<?xml version="1.0" encoding="UTF-8" standalone="no"?>
<!-- Created with Inkscape (http://www.inkscape.org/) -->

<svg
   width="482.62592"
   height="472.43274"
   viewBox="0 0 127.69477 124.99783"
   version="1.1"
   id="svg1"
   inkscape:version="1.4.2 (1:1.4.2+202505120737+ebf0e940d0)"
   sodipodi:docname="src_tunnel.svg"
   xmlns:inkscape="http://www.inkscape.org/namespaces/inkscape"
   xmlns:sodipodi="http://sodipodi.sourceforge.net/DTD/sodipodi-0.dtd"
   xmlns="http://www.w3.org/2000/svg"
   xmlns:svg="http://www.w3.org/2000/svg">
  <sodipodi:namedview
     id="namedview1"
     pagecolor="#ffffff"
     bordercolor="#000000"
     borderopacity="0.25"
     inkscape:showpageshadow="2"
     inkscape:pageopacity="0.0"
     inkscape:pagecheckerboard="0"
     inkscape:deskcolor="#d1d1d1"
     inkscape:document-units="px"
     inkscape:zoom="1.5696829"
     inkscape:cx="301.97182"
     inkscape:cy="360.26385"
     inkscape:window-width="1854"
     inkscape:window-height="1131"
     inkscape:window-x="0"
     inkscape:window-y="0"
     inkscape:window-maximized="1"
     inkscape:current-layer="layer1">
    <inkscape:page
       x="0"
       y="-1.5639547e-14"
       width="127.69477"
       height="124.99783"
       id="page2"
       margin="0"
       bleed="0" />
  </sodipodi:namedview>
  <defs
     id="defs1">
    <rect
       x="31.853567"
       y="183.47655"
       width="63.070065"
       height="44.594994"
       id="rect47" />
    <rect
       x="40.542973"
       y="573.00732"
       width="62.16589"
       height="42.344879"
       id="rect34" />
    <rect
       x="486.51566"
       y="642.38086"
       width="87.392624"
       height="55.859203"
       id="rect33" />
    <rect
       x="500.93094"
       y="359.93149"
       width="45.047745"
       height="37.840107"
       id="rect31" />
    <rect
       x="53.606819"
       y="566.70062"
       width="42.795361"
       height="36.488674"
       id="rect30" />
    <rect
       x="246.41116"
       y="618.50555"
       width="42.344879"
       height="22.523872"
       id="rect29" />
    <rect
       x="53.156342"
       y="432.00787"
       width="40.542973"
       height="36.939152"
       id="rect28" />
    <marker
       style="overflow:visible"
       id="ArrowWide"
       refX="0"
       refY="0"
       orient="auto-start-reverse"
       inkscape:stockid="Wide arrow"
       markerWidth="1"
       markerHeight="1"
       viewBox="0 0 1 1"
       inkscape:isstock="true"
       inkscape:collect="always"
       preserveAspectRatio="xMidYMid">
      <path
         style="fill:none;stroke:context-stroke;stroke-width:1;stroke-linecap:butt"
         d="M 3,-3 0,0 3,3"
         transform="rotate(180,0.125,0)"
         sodipodi:nodetypes="ccc"
         id="path26" />
    </marker>
    <marker
       style="overflow:visible"
       id="ArrowWide-7"
       refX="0"
       refY="0"
       orient="auto-start-reverse"
       inkscape:stockid="Wide arrow"
       markerWidth="1"
       markerHeight="1"
       viewBox="0 0 1 1"
       inkscape:isstock="true"
       inkscape:collect="always"
       preserveAspectRatio="xMidYMid">
      <path
         style="fill:none;stroke:context-stroke;stroke-width:1;stroke-linecap:butt"
         d="M 3,-3 0,0 3,3"
         transform="rotate(180,0.125,0)"
         sodipodi:nodetypes="ccc"
         id="path26-7" />
    </marker>
    <marker
       style="overflow:visible"
       id="ArrowWide-6"
       refX="0"
       refY="0"
       orient="auto-start-reverse"
       inkscape:stockid="Wide arrow"
       markerWidth="1"
       markerHeight="1"
       viewBox="0 0 1 1"
       inkscape:isstock="true"
       inkscape:collect="always"
       preserveAspectRatio="xMidYMid">
      <path
         style="fill:none;stroke:context-stroke;stroke-width:1;stroke-linecap:butt"
         d="M 3,-3 0,0 3,3"
         transform="rotate(180,0.125,0)"
         sodipodi:nodetypes="ccc"
         id="path26-3" />
    </marker>
  </defs>
  <g
     inkscape:label="Layer 1"
     inkscape:groupmode="layer"
     id="layer1"
     transform="translate(-11.6668,-42.344439)">
    <rect
       style="fill:#ffffff;stroke:#ffffff;stroke-width:0.264583;stroke-linejoin:round"
       id="rect32"
       width="127.43019"
       height="124.73325"
       x="11.799092"
       y="42.47673"
       inkscape:export-filename="tunnel_profile.svg"
       inkscape:export-xdpi="96"
       inkscape:export-ydpi="96" />
    <path
       style="fill:none;stroke:#338000;stroke-width:0.264582;stroke-linejoin:round;marker-start:url(#ArrowWide);marker-end:url(#ArrowWide)"
       d="m 29.300051,141.06941 -1.480037,-6.42907"
       id="path4-6-6-1-9-0-9" />
    <path
       style="fill:none;stroke:#71c837;stroke-width:0.264583;stroke-linejoin:round"
       d="m 31.472203,133.84842 -5.101249,1.15786"
       id="path4-6-6-1-9-0" />
    <path
       style="fill:none;stroke:#71c837;stroke-width:0.264583;stroke-linejoin:round"
       d="m 38.919927,135.64331 -5.101249,1.15786"
       id="path4-6-6-1-9" />
    <path
       style="fill:none;stroke:#786721;stroke-width:0.264583;stroke-linejoin:round"
       d="M 35.531029,99.429382 45.981661,142.58035 H 94.526495 L 104.97712,99.429392 c 0,0 0.74694,-3.152347 0.96384,-4.754957 0.20058,-1.48198 0.372,-2.98159 0.30959,-4.47578 -0.13769,-3.29631 -0.55936,-6.62157 -1.50403,-9.78263 -0.78256,-2.61859 -1.94437,-5.1486 -3.40488,-7.45865 -1.807685,-2.85919 -4.022275,-5.4985 -6.532401,-7.76611 -2.248722,-2.03146 -4.800585,-3.76849 -7.514177,-5.11757 -3.246796,-1.61416 -6.760419,-2.72608 -10.308831,-3.47171 -2.2049,-0.46333 -4.480339,-0.67767 -6.732169,-0.60345 -3.89459,0.12838 -7.803701,0.734 -11.549433,1.80815 -2.17991,0.62512 -4.273617,1.57128 -6.257632,2.66967 -2.36216,1.30775 -4.634093,2.82902 -6.648446,4.6269 -2.214246,1.9763 -4.230141,4.21881 -5.880648,6.68548 -1.665071,2.48843 -2.980194,5.23144 -3.971324,8.05676 -0.764536,2.17939 -1.177264,4.47832 -1.490517,6.76658 -0.162398,1.18629 -0.215663,2.38935 -0.198491,3.58658 0.02607,1.8179 0.189604,3.63679 0.457454,5.43503 0.19066,1.28002 0.816004,3.795697 0.816004,3.795697 z"
       id="path6"
       sodipodi:nodetypes="ccccaaaaaaaaaaaaaaaac" />
    <path
       style="fill:none;stroke:#786721;stroke-width:0.264583;stroke-linejoin:round"
       d="M 29.560337,99.096049 41.787152,147.34288 H 98.582637 L 110.80945,99.096069 c 0,0 0.87389,-3.524614 1.12765,-5.316476 0.23467,-1.656993 0.43523,-3.333693 0.36221,-5.004334 -0.16109,-3.685592 -0.65443,-7.403534 -1.75965,-10.937905 -0.91557,-2.927817 -2.27484,-5.756604 -3.98358,-8.339461 -2.11492,-3.196846 -4.7059,-6.14783 -7.642644,-8.683226 -2.630914,-2.271366 -5.616489,-4.213521 -8.791282,-5.721932 -3.798619,-1.804773 -7.909416,-3.048008 -12.060914,-3.881684 -2.579643,-0.518053 -5.241815,-0.757705 -7.876364,-0.67472 -4.556512,0.143542 -9.130013,0.820682 -13.512368,2.021682 -2.550406,0.698946 -4.999958,1.75684 -7.321175,2.984943 -2.763632,1.462184 -5.421701,3.163111 -7.778412,5.173302 -2.590578,2.209694 -4.949093,4.717022 -6.880119,7.474992 -1.948066,2.782292 -3.486706,5.84923 -4.646288,9.008203 -0.894476,2.436758 -1.377352,5.007172 -1.743845,7.565668 -0.189999,1.326388 -0.252317,2.671517 -0.232227,4.010138 0.0305,2.032574 0.22183,4.066266 0.535203,6.076859 0.223065,1.431181 0.954692,4.243931 0.954692,4.243931 z"
       id="path6-3"
       sodipodi:nodetypes="ccccaaaaaaaaaaaaaaaac" />
    <path
       style="fill:none;stroke:#b3b3b3;stroke-width:0.264583;stroke-linejoin:round"
       d="m 94.526495,142.58035 4.845008,1.09573"
       id="path4-6" />
    <path
       style="fill:none;stroke:#b3b3b3;stroke-width:0.264583;stroke-linejoin:round"
       d="m 92.066095,142.58035 v 4.76253"
       id="path7" />
    <path
       style="fill:none;stroke:#b3b3b3;stroke-width:0.264583;stroke-linejoin:round"
       d="m 84.307089,142.58035 v 4.76253"
       id="path7-2" />
    <path
       style="fill:none;stroke:#b3b3b3;stroke-width:0.264583;stroke-linejoin:round"
       d="m 76.700526,142.58035 v 4.76253"
       id="path7-2-5" />
    <path
       style="fill:none;stroke:#b3b3b3;stroke-width:0.264583;stroke-linejoin:round"
       d="m 70.254078,142.58035 v 4.76253"
       id="path7-2-9" />
    <path
       style="fill:none;stroke:#b3b3b3;stroke-width:0.264583;stroke-linejoin:round"
       d="m 63.036157,142.58035 v 4.76253"
       id="path7-2-2" />
    <path
       style="fill:none;stroke:#b3b3b3;stroke-width:0.264583;stroke-linejoin:round"
       d="m 55.468951,142.58035 v 4.76253"
       id="path7-2-4" />
    <path
       style="fill:none;stroke:#b3b3b3;stroke-width:0.264583;stroke-linejoin:round"
       d="m 47.948729,142.58035 v 4.76253"
       id="path7-2-0" />
    <path
       style="fill:none;stroke:#b3b3b3;stroke-width:0.264583;stroke-linejoin:round"
       d="m 45.983364,142.58419 -5.101249,1.15786"
       id="path4-6-6" />
    <path
       style="fill:none;stroke:#b3b3b3;stroke-width:0.264583;stroke-linejoin:round"
       d="m 44.021176,134.48545 -5.101249,1.15786"
       id="path4-6-6-1" />
    <path
       style="fill:none;stroke:#b3b3b3;stroke-width:0.264583;stroke-linejoin:round"
       d="M 41.831053,125.44236 36.541344,126.643"
       id="path4-6-6-6" />
    <path
       style="fill:none;stroke:#b3b3b3;stroke-width:0.264583;stroke-linejoin:round"
       d="m 39.648296,116.42969 -5.385454,1.22237"
       id="path4-6-6-7" />
    <path
       style="fill:none;stroke:#b3b3b3;stroke-width:0.264583;stroke-linejoin:round"
       d="m 37.549601,107.76412 -5.385454,1.22237"
       id="path4-6-6-7-4" />
    <path
       style="fill:none;stroke:#b3b3b3;stroke-width:0.264583;stroke-linejoin:round"
       d="m 35.057494,97.399432 -5.605489,1.272313"
       id="path4-6-6-7-0" />
    <path
       style="fill:none;stroke:#b3b3b3;stroke-width:0.264583;stroke-linejoin:round"
       d="m 96.204045,135.6537 5.051385,1.1424"
       id="path4-6-8" />
    <path
       style="fill:none;stroke:#b3b3b3;stroke-width:0.264583;stroke-linejoin:round"
       d="m 97.920446,128.56661 5.126684,1.15943"
       id="path4-6-9" />
    <path
       style="fill:none;stroke:#b3b3b3;stroke-width:0.264583;stroke-linejoin:round"
       d="m 105.80053,95.548145 5.54664,1.254407"
       id="path4-6-92" />
    <path
       style="fill:none;stroke:#b3b3b3;stroke-width:0.264583;stroke-linejoin:round"
       d="m 103.95815,103.63673 5.54664,1.25441"
       id="path4-6-92-5" />
    <path
       style="fill:none;stroke:#b3b3b3;stroke-width:0.264583;stroke-linejoin:round"
       d="m 101.59872,113.37892 5.28806,1.19593"
       id="path4-6-92-1" />
    <path
       style="fill:none;stroke:#b3b3b3;stroke-width:0.264583;stroke-linejoin:round"
       d="m 99.751808,121.00487 5.207032,1.17761"
       id="path4-6-92-2" />
    <path
       style="fill:none;stroke:#b3b3b3;stroke-width:0.264583;stroke-linejoin:round"
       d="m 106.0449,87.243395 6.09622,-0.910497"
       id="path8" />
    <path
       style="fill:none;stroke:#b3b3b3;stroke-width:0.264583;stroke-linejoin:round"
       d="m 71.512905,55.98682 0.362908,-5.459937"
       id="path9" />
    <path
       style="fill:none;stroke:#b3b3b3;stroke-width:0.264583;stroke-linejoin:round"
       d="m 81.307542,57.710223 2.217409,-5.138709"
       id="path10" />
    <path
       style="fill:none;stroke:#b3b3b3;stroke-width:0.264583;stroke-linejoin:round"
       d="m 89.854584,61.490304 3.397493,-4.734097"
       id="path11" />
    <path
       style="fill:none;stroke:#b3b3b3;stroke-width:0.264583;stroke-linejoin:round"
       d="m 97.707229,68.120373 4.476391,-4.160057"
       id="path12" />
    <path
       style="fill:none;stroke:#b3b3b3;stroke-width:0.264583;stroke-linejoin:round"
       d="m 102.4141,74.792701 5.48176,-3.090891"
       id="path13" />
    <path
       style="fill:none;stroke:#b3b3b3;stroke-width:0.264583;stroke-linejoin:round"
       d="m 104.74652,80.416023 6.18952,-1.207391"
       id="path14" />
    <path
       style="fill:none;stroke:#b3b3b3;stroke-width:0.264583;stroke-linejoin:round"
       d="m 34.343967,92.255045 -6.045576,0.248957"
       id="path15" />
    <path
       style="fill:none;stroke:#b3b3b3;stroke-width:0.264583;stroke-linejoin:round"
       d="M 34.456063,86.612073 28.142305,86.238711"
       id="path16" />
    <path
       style="fill:none;stroke:#b3b3b3;stroke-width:0.264583;stroke-linejoin:round"
       d="M 35.43056,81.51756 29.139329,80.229968"
       id="path17" />
    <path
       style="fill:none;stroke:#b3b3b3;stroke-width:0.264583;stroke-linejoin:round"
       d="M 37.530309,75.999289 31.747195,73.206792"
       id="path18" />
    <path
       style="fill:none;stroke:#b3b3b3;stroke-width:0.264583;stroke-linejoin:round"
       d="m 41.385386,69.771918 -5.021011,-3.78057"
       id="path19" />
    <path
       style="fill:none;stroke:#b3b3b3;stroke-width:0.264583;stroke-linejoin:round"
       d="M 46.856792,64.202357 42.938438,59.61046"
       id="path20" />
    <path
       style="fill:none;stroke:#b3b3b3;stroke-width:0.264583;stroke-linejoin:round"
       d="M 52.446996,60.476354 49.351332,55.542955"
       id="path21" />
    <path
       style="fill:none;stroke:#b3b3b3;stroke-width:0.264583;stroke-linejoin:round"
       d="M 60.362282,57.364433 58.674293,52.048835"
       id="path22" />
    <path
       style="fill:none;stroke:#b3b3b3;stroke-width:0.264583;stroke-linejoin:round"
       d="M 66.488918,56.271196 65.413032,50.881615"
       id="path23" />
    <path
       style="fill:none;stroke:#71c837;stroke-width:0.264583;stroke-linejoin:round"
       d="m 94.526493,142.58035 v 17.38162"
       id="path24" />
    <path
       style="fill:none;stroke:#71c837;stroke-width:0.264583;stroke-linejoin:round"
       d="m 45.983364,142.58419 v 17.38162"
       id="path24-1" />
    <path
       style="fill:none;stroke:#338000;stroke-width:0.264583;stroke-linejoin:round;marker-start:url(#ArrowWide);marker-end:url(#ArrowWide)"
       d="m 45.983363,158.3783 48.54313,-0.004"
       id="path25" />
    <path
       style="fill:none;stroke:#71c837;stroke-width:0.264583;stroke-linejoin:round"
       d="M 94.526493,142.58035 H 128.24718"
       id="path27" />
    <path
       style="fill:none;stroke:#71c837;stroke-width:0.264583;stroke-linejoin:round"
       d="M 70.254062,55.998535 H 129.12359"
       id="path27-0" />
    <path
       style="fill:none;stroke:#338000;stroke-width:0.264583;stroke-linejoin:round;marker-start:url(#ArrowWide-7);marker-end:url(#ArrowWide-7)"
       d="m 128.24718,142.58035 -0.004,-86.581811"
       id="path25-9" />
    <path
       style="fill:none;stroke:#338000;stroke-width:0.264583;stroke-linejoin:round;marker-end:url(#ArrowWide)"
       d="m 108.34264,142.58035 c 0,0 0.83523,-3.04566 0.59595,-4.55969 -0.27464,-1.73778 -0.98415,-3.56099 -2.26459,-4.76755 -1.07299,-1.01108 -4.10073,-1.65721 -4.10073,-1.65721"
       id="path28"
       sodipodi:nodetypes="caac" />
    <path
       style="fill:none;stroke:#338000;stroke-width:0.264584;stroke-linejoin:round;marker-start:url(#ArrowWide)"
       d="m 34.262842,117.65206 -9.245629,2.1563"
       id="path4-6-6-7-3" />
    <path
       style="fill:none;stroke:#338000;stroke-width:0.264584;stroke-linejoin:round;marker-start:url(#ArrowWide-6)"
       d="m 39.648294,116.42969 9.24563,-2.1563"
       id="path4-6-6-7-3-8" />
    <text
       xml:space="preserve"
       transform="matrix(0.26458333,0,0,0.26458333,4.171609,2.9797207)"
       id="text28"
       style="font-size:16px;line-height:normal;font-family:'Liberation Mono';-inkscape-font-specification:'Liberation Mono';text-decoration-color:#000000;white-space:pre;shape-inside:url(#rect28);display:inline;fill:#000000;stroke-width:1;-inkscape-stroke:none;stop-color:#000000"><tspan
         x="53.15625"
         y="446.24425"
         id="tspan1">T1</tspan></text>
    <text
       xml:space="preserve"
       transform="matrix(0.26458333,0,0,0.26458333,4.2907978,-5.4826861)"
       id="text29"
       style="font-size:16px;line-height:normal;font-family:'Liberation Mono';-inkscape-font-specification:'Liberation Mono';text-decoration-color:#000000;white-space:pre;shape-inside:url(#rect29);display:inline;fill:#000000;stroke-width:1;-inkscape-stroke:none;stop-color:#000000"><tspan
         x="246.41211"
         y="632.7423"
         id="tspan2">W1</tspan></text>
    <text
       xml:space="preserve"
       transform="matrix(0.26458333,0,0,0.26458333,94.874307,-17.878324)"
       id="text30"
       style="font-size:16px;line-height:normal;font-family:'Liberation Mono';-inkscape-font-specification:'Liberation Mono';text-decoration-color:#000000;white-space:pre;shape-inside:url(#rect30);display:inline;fill:#000000;stroke-width:1;-inkscape-stroke:none;stop-color:#000000"><tspan
         x="53.607422"
         y="580.93761"
         id="tspan3">a1</tspan></text>
    <text
       xml:space="preserve"
       transform="matrix(0.26458333,0,0,0.26458333,-3.3372872,3.0989095)"
       id="text31"
       style="font-size:16px;line-height:normal;font-family:'Liberation Mono';-inkscape-font-specification:'Liberation Mono';text-decoration-color:#000000;white-space:pre;shape-inside:url(#rect31);display:inline;fill:#000000;stroke-width:1;-inkscape-stroke:none;stop-color:#000000"><tspan
         x="500.93164"
         y="374.16808"
         id="tspan4">H1</tspan></text>
    <path
       style="fill:#ffffff;stroke:#338000;stroke-width:0.264583;stroke-linejoin:round;marker-end:url(#ArrowWide)"
       d="m 107.7467,158.75952 7.62808,-8.34322"
       id="path32" />
    <text
       xml:space="preserve"
       transform="matrix(0.26458333,0,0,0.26458333,-15.732925,-15.25617)"
       id="text32"
       style="font-size:16px;line-height:normal;font-family:'Liberation Mono';-inkscape-font-specification:'Liberation Mono';text-decoration-color:#000000;white-space:pre;shape-inside:url(#rect33);display:inline;fill:#000000;stroke-width:1;-inkscape-stroke:none;stop-color:#000000"><tspan
         x="486.51562"
         y="656.6173"
         id="tspan5">T2</tspan></text>
    <path
       style="fill:none;stroke:#71c837;stroke-width:0.264583;stroke-linejoin:round"
       d="m 33.275194,140.19842 -5.101249,1.15786"
       id="path4-6-6-1-9-5" />
    <path
       style="fill:#ffffff;stroke:#71c837;stroke-width:0.264583;stroke-linejoin:round"
       d="m 31.472203,133.84842 2.346476,2.95275 -0.543486,3.39725"
       id="path33" />
    <text
       xml:space="preserve"
       transform="matrix(0.26458333,0,0,0.26458333,11.680505,-15.375359)"
       id="text33"
       style="font-size:16px;line-height:normal;font-family:'Liberation Mono';-inkscape-font-specification:'Liberation Mono';text-decoration-color:#000000;white-space:pre;shape-inside:url(#rect34);display:inline;fill:#000000;stroke-width:1;-inkscape-stroke:none;stop-color:#000000"><tspan
         x="40.542969"
         y="587.24425"
         id="tspan6">E1</tspan></text>
    <path
       style="fill:none;stroke:#338000;stroke-width:0.264583;stroke-linejoin:round;stroke-dasharray:none;marker-start:url(#ArrowWide);marker-end:url(#ArrowWide)"
       d="m 27.443669,99.625215 2.60381,9.890445"
       id="path42" />
    <text
       xml:space="preserve"
       transform="matrix(0.26458333,0,0,0.26458333,6.0170166,54.119297)"
       id="text45"
       style="font-size:16px;line-height:normal;font-family:'Liberation Mono';-inkscape-font-specification:'Liberation Mono';text-decoration-color:#000000;white-space:pre;shape-inside:url(#rect47);display:inline;fill:#000000;stroke-width:1;-inkscape-stroke:none;stop-color:#000000"><tspan
         x="31.853516"
         y="197.713"
         id="tspan7">T3Max</tspan></text>
  </g>
</svg>
