<svg xmlns="http://www.w3.org/2000/svg" width="418.142" height="391.114" viewBox="0 0 110.633 103.482"><defs><path id="p" d="M204.517 1629.827h162.172v34.236H204.517z"/><path id="o" d="M384.375 1619.917h148.99v51.294h-148.99z"/><path id="n" d="M210.928 1668.568h173.447v51.354H210.928z"/><path id="m" d="M166.694 1606.403h171.043v60.364H166.694z"/><path id="l" d="M515.174 1399.601h45.131v31.58h-45.131z"/><path id="h" d="M297.194 1435.003h43.958v28.031h-43.958z"/><path id="b" d="M386.065 618.596h50.329v28.668h-50.329z"/><path id="d" d="M426.838 668.288h35.676v38.861h-35.676z"/><path id="f" d="M190.484 581.646h54.151v41.41h-54.151z"/><path id="j" d="M297.194 1435.003h43.958v28.031h-43.958z"/><marker id="q" markerHeight="1" markerWidth="1" orient="auto-start-reverse" preserveAspectRatio="xMidYMid" refX="0" refY="0" style="overflow:visible" viewBox="0 0 1 1"><path d="M3-3 0 0l3 3" style="fill:none;stroke:context-stroke;stroke-width:1;stroke-linecap:butt" transform="rotate(180 .125 0)"/></marker><marker id="a" markerHeight="1" markerWidth="1" orient="auto-start-reverse" preserveAspectRatio="xMidYMid" refX="0" refY="0" style="overflow:visible" viewBox="0 0 1 1"><path d="M3-3 0 0l3 3" style="fill:none;stroke:context-stroke;stroke-width:1;stroke-linecap:butt" transform="rotate(180 .125 0)"/></marker><marker id="c" markerHeight="1" markerWidth="1" orient="auto-start-reverse" preserveAspectRatio="xMidYMid" refX="0" refY="0" style="overflow:visible" viewBox="0 0 1 1"><path d="M3-3 0 0l3 3" style="fill:none;stroke:context-stroke;stroke-width:1;stroke-linecap:butt" transform="rotate(180 .125 0)"/></marker><marker id="e" markerHeight="1" markerWidth="1" orient="auto-start-reverse" preserveAspectRatio="xMidYMid" refX="0" refY="0" style="overflow:visible" viewBox="0 0 1 1"><path d="M3-3 0 0l3 3" style="fill:none;stroke:context-stroke;stroke-width:1;stroke-linecap:butt" transform="rotate(180 .125 0)"/></marker><marker id="g" markerHeight="1" markerWidth="1" orient="auto-start-reverse" preserveAspectRatio="xMidYMid" refX="0" refY="0" style="overflow:visible" viewBox="0 0 1 1"><path d="M3-3 0 0l3 3" style="fill:none;stroke:context-stroke;stroke-width:1;stroke-linecap:butt" transform="rotate(180 .125 0)"/></marker><marker id="i" markerHeight="1" markerWidth="1" orient="auto-start-reverse" preserveAspectRatio="xMidYMid" refX="0" refY="0" style="overflow:visible" viewBox="0 0 1 1"><path d="M3-3 0 0l3 3" style="fill:none;stroke:context-stroke;stroke-width:1;stroke-linecap:butt" transform="rotate(180 .125 0)"/></marker><marker id="k" markerHeight="1" markerWidth="1" orient="auto-start-reverse" preserveAspectRatio="xMidYMid" refX="0" refY="0" style="overflow:visible" viewBox="0 0 1 1"><path d="M3-3 0 0l3 3" style="fill:none;stroke:context-stroke;stroke-width:1;stroke-linecap:butt" transform="rotate(180 .125 0)"/></marker></defs><g transform="translate(-30.618 -338.126)"><path d="M30.751 338.258H141.12v103.218H30.751z" style="fill:#fff;stroke:#fff;stroke-width:.264583;stroke-linejoin:round"/><path d="M36.38 344.091h96.543v5.734H36.38z" style="fill:#ffd5d5;stroke:#ccc;stroke-width:.264583;stroke-linejoin:round"/><path d="M57.768 349.825v-5.541" style="opacity:.5;fill:#e5ffd5;fill-opacity:1;stroke:#00f;stroke-width:.264583;stroke-linejoin:round;stroke-dasharray:none;marker-start:url(#a);marker-end:url(#a)"/><text xml:space="preserve" style="font-size:16px;line-height:normal;font-family:&quot;Liberation Mono&quot;;-inkscape-font-specification:&quot;Liberation Mono&quot;;text-decoration-color:#000;white-space:pre;shape-inside:url(#b);display:inline;fill:#000;stroke-width:1;-inkscape-stroke:none;stop-color:#000" transform="translate(-43.158 180.627)scale(.26458)"><tspan x="386.064" y="632.832">H1</tspan></text><path d="M36.38 349.825h10.012v66.031H36.38zM65.224 349.825h10.012v66.031H65.224z" style="fill:#ffd5d5;stroke:#ccc;stroke-width:.264583;stroke-linejoin:round"/><circle cx="84.652" cy="359.241" r="9.416" style="fill:#fff;stroke:#ccc;stroke-width:.264583;stroke-linejoin:round"/><path d="M94.068 349.825h10.012v66.031H94.068zM122.911 349.825h10.012v66.031h-10.012z" style="fill:#ffd5d5;stroke:#ccc;stroke-width:.264583;stroke-linejoin:round"/><path d="M94.068 349.825h10.012v9.416H94.068zM122.911 349.825h10.012v9.416h-10.012zM122.911 359.241h10.012v17.17h-10.012zM94.068 359.241h10.012v17.17H94.068z" style="fill:none;stroke:#ccc;stroke-width:.264583;stroke-linejoin:round"/><path d="M122.911 376.41s-.471-6.993-1.266-10.391c-.628-2.684-1.612-5.287-2.743-7.8-.876-1.944-1.956-3.797-3.11-5.59-.65-1.008-2.141-2.894-2.141-2.894l9.26.09M104.08 376.41s.471-6.993 1.266-10.391c.627-2.684 1.612-5.287 2.743-7.8.875-1.944 1.898-3.836 3.11-5.59.72-1.039 2.452-2.894 2.452-2.894l-9.572.09M75.236 359.24s.269-2.42.694-3.548c.313-.83.781-1.61 1.341-2.299a10.4 10.4 0 0 1 2.349-2.11 8.8 8.8 0 0 1 2.316-1.058c.878-.26 2.716-.4 2.716-.4h-9.416M94.068 359.24s-.27-2.42-.695-3.548a8.3 8.3 0 0 0-1.341-2.299 10.4 10.4 0 0 0-2.349-2.11 8.8 8.8 0 0 0-2.316-1.058c-.877-.26-2.715-.4-2.715-.4h9.416" style="fill:#ffd5d5;stroke:#ff8080;stroke-width:.264583;stroke-linejoin:round"/><path d="M38.455 415.885v-65.97" style="opacity:.5;fill:#e5ffd5;fill-opacity:1;stroke:#00f;stroke-width:.264582;stroke-linejoin:round;stroke-dasharray:none;marker-start:url(#c);marker-end:url(#c)"/><text xml:space="preserve" style="font-size:16px;line-height:normal;font-family:&quot;Liberation Mono&quot;;-inkscape-font-specification:&quot;Liberation Mono&quot;;text-decoration-color:#000;white-space:pre;shape-inside:url(#d);display:inline;fill:#000;stroke-width:1;-inkscape-stroke:none;stop-color:#000" transform="translate(-73.753 203.205)scale(.26458)"><tspan x="426.838" y="682.524">H2</tspan></text><path d="M46.392 371.198h18.832" style="opacity:.5;fill:#e5ffd5;fill-opacity:1;stroke:#00f;stroke-width:.264583;stroke-linejoin:round;stroke-dasharray:none;marker-start:url(#e);marker-end:url(#e)"/><text xml:space="preserve" style="font-size:16px;line-height:normal;font-family:&quot;Liberation Mono&quot;;-inkscape-font-specification:&quot;Liberation Mono&quot;;text-decoration-color:#000;white-space:pre;shape-inside:url(#f);display:inline;fill:#000;stroke-width:1;-inkscape-stroke:none;stop-color:#000" transform="translate(3.26 212.675)scale(.26458)"><tspan x="190.484" y="595.883">W1</tspan></text><path d="M95.88 358.968v-8.87" style="opacity:.5;fill:#e5ffd5;fill-opacity:1;stroke:#00f;stroke-width:.264583;stroke-linejoin:round;stroke-dasharray:none;marker-start:url(#g);marker-end:url(#g)"/><text xml:space="preserve" style="font-size:16px;line-height:normal;font-family:&quot;Liberation Mono&quot;;-inkscape-font-specification:&quot;Liberation Mono&quot;;text-decoration-color:#000;white-space:pre;shape-inside:url(#h);fill:#000;stroke-width:1;-inkscape-stroke:none;stop-color:#000" transform="translate(18.136 -27.56)scale(.26458)"><tspan x="297.193" y="1449.24">W1/2</tspan></text><path d="M125.557 359.108v-9.272" style="opacity:.5;fill:#e5ffd5;fill-opacity:1;stroke:#00f;stroke-width:.264583;stroke-linejoin:round;stroke-dasharray:none;marker-start:url(#i);marker-end:url(#i)"/><text xml:space="preserve" style="font-size:16px;line-height:normal;font-family:&quot;Liberation Mono&quot;;-inkscape-font-specification:&quot;Liberation Mono&quot;;text-decoration-color:#000;white-space:pre;shape-inside:url(#j);display:inline;fill:#000;stroke-width:1;-inkscape-stroke:none;stop-color:#000" transform="translate(47.812 -27.832)scale(.26458)"><tspan x="297.193" y="1449.24">W1/2</tspan></text><path d="M124.499 376.088v-16.646" style="opacity:.5;fill:#e5ffd5;fill-opacity:1;stroke:#00f;stroke-width:.264583;stroke-linejoin:round;stroke-dasharray:none;marker-start:url(#k);marker-end:url(#k)"/><text xml:space="preserve" style="font-size:16px;line-height:normal;font-family:&quot;Liberation Mono&quot;;-inkscape-font-specification:&quot;Liberation Mono&quot;;text-decoration-color:#000;white-space:pre;shape-inside:url(#l);fill:#000;stroke-width:1;-inkscape-stroke:none;stop-color:#000" transform="translate(-11.026 -4.879)scale(.26458)"><tspan x="515.174" y="1413.838">Ea</tspan></text><text xml:space="preserve" style="font-size:16px;line-height:normal;font-family:&quot;Liberation Mono&quot;;-inkscape-font-specification:&quot;Liberation Mono&quot;;text-decoration-color:#000;white-space:pre;shape-inside:url(#m);fill:#000;stroke-width:1;-inkscape-stroke:none;stop-color:#000" transform="translate(-3.387 -17.658)scale(.26458)"><tspan x="166.693" y="1620.639">[rectangular]</tspan></text><text xml:space="preserve" style="font-size:16px;line-height:normal;font-family:&quot;Liberation Mono&quot;;-inkscape-font-specification:&quot;Liberation Mono&quot;;text-decoration-color:#000;white-space:pre;shape-inside:url(#n);fill:#000;stroke-width:1;-inkscape-stroke:none;stop-color:#000" transform="translate(13.535 -42.431)scale(.26458)"><tspan x="210.928" y="1682.805">[half-circle]</tspan></text><text xml:space="preserve" style="font-size:16px;line-height:normal;font-family:&quot;Liberation Mono&quot;;-inkscape-font-specification:&quot;Liberation Mono&quot;;text-decoration-color:#000;white-space:pre;shape-inside:url(#o);fill:#000;stroke-width:1;-inkscape-stroke:none;stop-color:#000" transform="translate(1.116 -20.5)scale(.26458)"><tspan x="384.375" y="1634.152">[gothic]</tspan></text><text xml:space="preserve" style="font-size:16px;line-height:normal;font-family:&quot;Liberation Mono&quot;;-inkscape-font-specification:&quot;Liberation Mono&quot;;text-decoration-color:#000;white-space:pre;shape-inside:url(#p);fill:#000;stroke-width:1;-inkscape-stroke:none;stop-color:#000" transform="translate(18.832)scale(.26458)"><tspan x="204.518" y="1644.065">arcStyle</tspan></text><path d="m58.64 415.015 14.78 15.733" style="fill:#ffd5d5;stroke:#00f;stroke-width:.264583;stroke-linejoin:round;marker-start:url(#q)"/><path d="m84.624 405.957-1.669 24.315" style="fill:#ffd5d5;stroke:#00f;stroke-width:.264583;stroke-linejoin:round;marker-start:url(#q)"/><path d="m108.939 413.585-15.257 17.402" style="fill:#ffd5d5;stroke:#00f;stroke-width:.264583;stroke-linejoin:round;marker-start:url(#q)"/></g></svg>