<svg xmlns="http://www.w3.org/2000/svg" width="495.367" height="408.726" viewBox="0 0 131.066 108.142"><defs><path id="t" d="M215.33 1204.065h256.103v85.368H215.33z"/><path id="s" d="M272.667 1150.551h87.916v53.514h-87.916z"/><path id="r" d="M216.604 1150.551h149.075v62.433H216.604z"/><path id="q" d="M402.19 1091.056h47.837v28.38H402.19z"/><path id="p" d="M425.696 692.384h48.206v25.227h-48.206z"/><path id="n" d="M519.401 888.959h38.291v33.723h-38.291z"/><path id="l" d="M506.337 715.358h42.795v28.17h-42.795z"/><path id="j" d="M393.71 854.313h52.24v46.506h-52.24z"/><path id="h" d="M427.475 832.4h83.456v44.85h-83.456z"/><path id="d" d="M386.065 618.596h50.329v28.668h-50.329z"/><path id="f" d="M190.484 581.646h54.151v41.41h-54.151z"/><path id="b" d="M426.838 668.288h35.676v38.861h-35.676z"/><marker id="o" markerHeight="1" markerWidth="1" orient="auto-start-reverse" preserveAspectRatio="xMidYMid" refX="0" refY="0" style="overflow:visible" viewBox="0 0 1 1"><path d="M3-3 0 0l3 3" style="fill:none;stroke:context-stroke;stroke-width:1;stroke-linecap:butt" transform="rotate(180 .125 0)"/></marker><marker id="c" markerHeight="1" markerWidth="1" orient="auto-start-reverse" preserveAspectRatio="xMidYMid" refX="0" refY="0" style="overflow:visible" viewBox="0 0 1 1"><path d="M3-3 0 0l3 3" style="fill:none;stroke:context-stroke;stroke-width:1;stroke-linecap:butt" transform="rotate(180 .125 0)"/></marker><marker id="e" markerHeight="1" markerWidth="1" orient="auto-start-reverse" preserveAspectRatio="xMidYMid" refX="0" refY="0" style="overflow:visible" viewBox="0 0 1 1"><path d="M3-3 0 0l3 3" style="fill:none;stroke:context-stroke;stroke-width:1;stroke-linecap:butt" transform="rotate(180 .125 0)"/></marker><marker id="g" markerHeight="1" markerWidth="1" orient="auto-start-reverse" preserveAspectRatio="xMidYMid" refX="0" refY="0" style="overflow:visible" viewBox="0 0 1 1"><path d="M3-3 0 0l3 3" style="fill:none;stroke:context-stroke;stroke-width:1;stroke-linecap:butt" transform="rotate(180 .125 0)"/></marker><marker id="i" markerHeight="1" markerWidth="1" orient="auto-start-reverse" preserveAspectRatio="xMidYMid" refX="0" refY="0" style="overflow:visible" viewBox="0 0 1 1"><path d="M3-3 0 0l3 3" style="fill:none;stroke:context-stroke;stroke-width:1;stroke-linecap:butt" transform="rotate(180 .125 0)"/></marker><marker id="a" markerHeight="1" markerWidth="1" orient="auto-start-reverse" preserveAspectRatio="xMidYMid" refX="0" refY="0" style="overflow:visible" viewBox="0 0 1 1"><path d="M3-3 0 0l3 3" style="fill:none;stroke:context-stroke;stroke-width:1;stroke-linecap:butt" transform="rotate(180 .125 0)"/></marker><marker id="k" markerHeight="1" markerWidth="1" orient="auto-start-reverse" preserveAspectRatio="xMidYMid" refX="0" refY="0" style="overflow:visible" viewBox="0 0 1 1"><path d="M3-3 0 0l3 3" style="fill:none;stroke:context-stroke;stroke-width:1;stroke-linecap:butt" transform="rotate(180 .125 0)"/></marker><marker id="m" markerHeight="1" markerWidth="1" orient="auto-start-reverse" preserveAspectRatio="xMidYMid" refX="0" refY="0" style="overflow:visible" viewBox="0 0 1 1"><path d="M3-3 0 0l3 3" style="fill:none;stroke:context-stroke;stroke-width:1;stroke-linecap:butt" transform="rotate(180 .125 0)"/></marker></defs><g transform="translate(-17.398 -181.574)"><path d="M17.53 181.706h130.801v107.877H17.53z" style="fill:#fff;stroke:#fff;stroke-width:.264583;stroke-linejoin:round"/><path d="M26.753 276.721h10.012v-60.939s.205-2.736.537-4.06c.266-1.06.678-2.086 1.158-3.069.394-.81.875-1.58 1.404-2.308.493-.681 1.06-1.308 1.641-1.916.615-.642 1.216-1.317 1.948-1.822.834-.574 2.728-1.332 2.728-1.332l.021-5.74-21.54.006" style="fill:#ffd5d5;stroke:#ff8080;stroke-width:.264583;stroke-linejoin:round"/><path d="M65.609 276.721H55.597v-60.939s-.204-2.736-.537-4.06c-.266-1.06-.678-2.086-1.157-3.069a15.6 15.6 0 0 0-1.404-2.308c-.494-.681-1.06-1.308-1.642-1.916-.615-.642-1.216-1.317-1.948-1.822-.834-.574-2.728-1.332-2.728-1.332l-.021-5.74 21.54.006" style="fill:#ffd5d5;stroke:#ff8080;stroke-width:.264583;stroke-linejoin:round"/><path d="M85.262 199.252v-3.711h15.37v3.711l9.44 60.551v16.185H75.823v-16.185z" style="fill:#ffe6d5;stroke:#ff8080;stroke-width:.264583;stroke-linejoin:round"/><path d="M34.025 276.722v-74.774" style="opacity:.5;fill:#e5ffd5;fill-opacity:1;stroke:#00f;stroke-width:.264582;stroke-linejoin:round;stroke-dasharray:none;marker-start:url(#a);marker-end:url(#a)"/><text xml:space="preserve" style="font-size:16px;line-height:normal;font-family:&quot;Liberation Mono&quot;;-inkscape-font-specification:&quot;Liberation Mono&quot;;text-decoration-color:#000;white-space:pre;shape-inside:url(#b);display:inline;fill:#000;stroke-width:1;-inkscape-stroke:none;stop-color:#000" transform="translate(-84.533 63.542)scale(.26458)"><tspan x="426.838" y="682.524">H2</tspan></text><circle cx="46.181" cy="210.691" r="9.416" style="fill:none;stroke:#f95;stroke-width:.264583;stroke-linejoin:round"/><path d="M55.597 210.691h10.012v66.031H55.597zM24.793 195.541h42.775v5.734H24.793z" style="fill:none;stroke:#ccc;stroke-width:.264583;stroke-linejoin:round"/><path d="M46.181 201.275v-5.541" style="opacity:.5;fill:#e5ffd5;fill-opacity:1;stroke:#00f;stroke-width:.264583;stroke-linejoin:round;stroke-dasharray:none;marker-start:url(#c);marker-end:url(#c)"/><text xml:space="preserve" style="font-size:16px;line-height:normal;font-family:&quot;Liberation Mono&quot;;-inkscape-font-specification:&quot;Liberation Mono&quot;;text-decoration-color:#000;white-space:pre;shape-inside:url(#d);display:inline;fill:#000;stroke-width:1;-inkscape-stroke:none;stop-color:#000" transform="translate(-54.745 32.077)scale(.26458)"><tspan x="386.064" y="632.832">H1</tspan></text><circle cx="39.472" cy="215.849" r="16.125" style="fill:none;stroke:#ccc;stroke-width:.264584;stroke-linejoin:round"/><path d="M36.765 236.091h18.832" style="opacity:.5;fill:#e5ffd5;fill-opacity:1;stroke:#00f;stroke-width:.264583;stroke-linejoin:round;stroke-dasharray:none;marker-start:url(#e);marker-end:url(#e)"/><text xml:space="preserve" style="font-size:16px;line-height:normal;font-family:&quot;Liberation Mono&quot;;-inkscape-font-specification:&quot;Liberation Mono&quot;;text-decoration-color:#000;white-space:pre;shape-inside:url(#f);display:inline;fill:#000;stroke-width:1;-inkscape-stroke:none;stop-color:#000" transform="translate(-6.366 77.568)scale(.26458)"><tspan x="190.484" y="595.883">W1</tspan></text><path d="M60.603 210.816v-9.545" style="opacity:.5;fill:#e5ffd5;fill-opacity:1;stroke:#4d4d4d;stroke-width:.264583;stroke-linejoin:round;stroke-dasharray:none;marker-start:url(#g);marker-end:url(#g)"/><text xml:space="preserve" style="font-size:16px;line-height:normal;font-family:&quot;Liberation Mono&quot;;-inkscape-font-specification:&quot;Liberation Mono&quot;;text-decoration-color:#000;white-space:pre;shape-inside:url(#h);display:inline;fill:#999;stroke-width:1;-inkscape-stroke:none;stop-color:#000" transform="translate(-51.554 -16.35)scale(.26458)"><tspan x="427.475" y="846.637">W1/2</tspan></text><path d="M39.472 215.782h23.036" style="fill:#999;stroke:#999;stroke-width:.264583;stroke-linejoin:round"/><path d="M60.603 215.432v-4.776" style="opacity:.5;fill:#e5ffd5;fill-opacity:1;stroke:#00f;stroke-width:.264583;stroke-linejoin:round;stroke-dasharray:none;marker-start:url(#i);marker-end:url(#i)"/><text xml:space="preserve" style="font-size:16px;line-height:normal;font-family:&quot;Liberation Mono&quot;;-inkscape-font-specification:&quot;Liberation Mono&quot;;text-decoration-color:#000;white-space:pre;shape-inside:url(#j);display:inline;fill:#000;stroke-width:1;-inkscape-stroke:none;stop-color:#000" transform="translate(-42.115 -15.386)scale(.26458)"><tspan x="393.711" y="868.549">Ea</tspan></text><path d="M32.561 276.722h23.036" style="fill:#999;stroke:#999;stroke-width:.264583;stroke-linejoin:round"/><path d="M85.262 195.541h15.37v3.711h-15.37z" style="fill:none;stroke:#ccc;stroke-width:.264583;stroke-linejoin:round"/><path d="M75.823 259.803h34.249v16.185H75.823z" style="fill:none;stroke:#ccc;stroke-width:.264582;stroke-linejoin:round"/><path d="M67.701 195.54H85.13" style="fill:#999;stroke:#999;stroke-width:.264582;stroke-linejoin:round"/><path d="M75.823 259.803c8.249-18.509 9.307-40.535 9.44-60.55M110.072 259.803c-8.25-18.509-9.307-40.535-9.44-60.55" style="fill:#f6ffd5;stroke:#ff8080;stroke-width:.264583;stroke-linejoin:round"/><path d="M89.52 199.31v-3.705" style="opacity:.5;fill:#e5ffd5;fill-opacity:1;stroke:#00f;stroke-width:.264583;stroke-linejoin:round;stroke-dasharray:none;marker-start:url(#k);marker-end:url(#k)"/><text xml:space="preserve" style="font-size:16px;line-height:normal;font-family:&quot;Liberation Mono&quot;;-inkscape-font-specification:&quot;Liberation Mono&quot;;text-decoration-color:#000;white-space:pre;shape-inside:url(#l);display:inline;fill:#000;stroke-width:1;-inkscape-stroke:none;stop-color:#000" transform="translate(-42.845 5.721)scale(.26458)"><tspan x="506.336" y="729.594">H3</tspan></text><path d="M112.336 275.988v-16.185" style="opacity:.5;fill:#e5ffd5;fill-opacity:1;stroke:#00f;stroke-width:.264583;stroke-linejoin:round;stroke-dasharray:none;marker-start:url(#m);marker-end:url(#m)"/><text xml:space="preserve" style="font-size:16px;line-height:normal;font-family:&quot;Liberation Mono&quot;;-inkscape-font-specification:&quot;Liberation Mono&quot;;text-decoration-color:#000;white-space:pre;shape-inside:url(#n);display:inline;fill:#000;stroke-width:1;-inkscape-stroke:none;stop-color:#000" transform="translate(-23.938 30.32)scale(.26458)"><tspan x="519.4" y="903.195">H4</tspan></text><path d="M85.13 193.424h15.502" style="fill:#f6ffd5;stroke:#00f;stroke-width:.264583;stroke-linejoin:round;marker-start:url(#o);marker-end:url(#o)"/><text xml:space="preserve" style="font-size:16px;line-height:normal;font-family:&quot;Liberation Mono&quot;;-inkscape-font-specification:&quot;Liberation Mono&quot;;text-decoration-color:#000;white-space:pre;shape-inside:url(#p);display:inline;fill:#000;stroke-width:1;-inkscape-stroke:none;stop-color:#000" transform="translate(-22.225 5.292)scale(.26458)"><tspan x="425.697" y="706.621">W3</tspan></text><path d="M75.823 271.226h34.249" style="fill:#f6ffd5;stroke:#00f;stroke-width:.264583;stroke-linejoin:round;marker-start:url(#o);marker-end:url(#o)"/><text xml:space="preserve" style="font-size:16px;line-height:normal;font-family:&quot;Liberation Mono&quot;;-inkscape-font-specification:&quot;Liberation Mono&quot;;text-decoration-color:#000;white-space:pre;shape-inside:url(#q);display:inline;fill:#000;stroke-width:1;-inkscape-stroke:none;stop-color:#000" transform="translate(-15.312 -17.368)scale(.26458)"><tspan x="402.191" y="1105.293">W4</tspan></text><text xml:space="preserve" style="font-style:italic;font-variant:normal;font-weight:400;font-stretch:normal;font-size:16px;line-height:normal;font-family:&quot;Liberation Mono&quot;;-inkscape-font-specification:&quot;Liberation Mono Italic&quot;;text-decoration-color:#000;white-space:pre;shape-inside:url(#r);display:inline;fill:#000;stroke-width:1;-inkscape-stroke:none;stop-color:#000" transform="translate(-16.494 -24.947)scale(.26458)"><tspan x="216.604" y="1164.787">face</tspan></text><text xml:space="preserve" style="font-style:italic;font-variant:normal;font-weight:400;font-stretch:normal;font-size:16px;line-height:normal;font-family:&quot;Liberation Mono&quot;;-inkscape-font-specification:&quot;Liberation Mono Italic&quot;;text-decoration-color:#000;white-space:pre;shape-inside:url(#s);display:inline;fill:#000;stroke-width:1;-inkscape-stroke:none;stop-color:#000" transform="translate(15.87 -25.566)scale(.26458)"><tspan x="272.666" y="1164.787">side</tspan></text><text xml:space="preserve" style="font-size:16px;line-height:normal;font-family:&quot;Liberation Mono&quot;;-inkscape-font-specification:&quot;Liberation Mono&quot;;text-decoration-color:#000;white-space:pre;shape-inside:url(#t);display:inline;fill:#000;stroke-width:1;-inkscape-stroke:none;stop-color:#000" transform="translate(48.882 -111.923)scale(.26458)"><tspan x="215.33" y="1218.301">sideStyle:
</tspan><tspan x="215.33" y="1238.301">[straight, arc]</tspan></text><path d="m115.968 217.44-11.462 17.53" style="fill:#f6ffd5;stroke:#00f;stroke-width:.264583;stroke-linejoin:round;marker-end:url(#o)"/></g></svg>