<svg xmlns="http://www.w3.org/2000/svg" width="562.897" height="550.155" viewBox="0 0 148.933 145.562"><defs><path id="E" d="M-100.456 483.362H4.055v31.984h-104.511z"/><path id="D" d="M-99.556 433.81H10.811v31.533H-99.556z"/><path id="C" d="M-94.15 383.807H4.054v25.227H-94.15z"/><path id="A" d="M-118.495 424.289h70.078v47.78h-70.078z"/><path id="z" d="M255.466 81.545h77.723v45.869h-77.723z"/><path id="x" d="M217.878 101.931h68.804v56.062h-68.804z"/><path id="t" d="M193.033 119.769h80.908v51.603h-80.908z"/><path id="r" d="M175.436 100.02h110.417v41.41H175.436z"/><path id="i" d="M173.92 612.863h67.53v43.321h-67.53z"/><path id="h" d="M426.838 668.288h35.676v38.861h-35.676z"/><path id="g" d="M386.065 618.596h50.329v28.668h-50.329z"/><path id="f" d="M270.755 606.492h84.093v45.869h-84.093z"/><path id="e" d="M190.484 581.646h54.151v41.41h-54.151z"/><path id="s" d="M175.436 100.02h110.417v41.41H175.436z"/><path id="u" d="M193.033 119.769h80.908v51.603h-80.908z"/><path id="v" d="M193.033 119.769h80.908v51.603h-80.908z"/><path id="w" d="M193.033 119.769h80.908v51.603h-80.908z"/><marker id="a" markerHeight="1" markerWidth="1" orient="auto-start-reverse" preserveAspectRatio="xMidYMid" refX="0" refY="0" style="overflow:visible" viewBox="0 0 1 1"><path d="M3-3 0 0l3 3" style="fill:none;stroke:context-stroke;stroke-width:1;stroke-linecap:butt" transform="rotate(180 .125 0)"/></marker><marker id="b" markerHeight="1" markerWidth="1" orient="auto-start-reverse" preserveAspectRatio="xMidYMid" refX="0" refY="0" style="overflow:visible" viewBox="0 0 1 1"><path d="M3-3 0 0l3 3" style="fill:none;stroke:context-stroke;stroke-width:1;stroke-linecap:butt" transform="rotate(180 .125 0)"/></marker><marker id="c" markerHeight="1" markerWidth="1" orient="auto-start-reverse" preserveAspectRatio="xMidYMid" refX="0" refY="0" style="overflow:visible" viewBox="0 0 1 1"><path d="M3-3 0 0l3 3" style="fill:none;stroke:context-stroke;stroke-width:1;stroke-linecap:butt" transform="rotate(180 .125 0)"/></marker><marker id="d" markerHeight="1" markerWidth="1" orient="auto-start-reverse" preserveAspectRatio="xMidYMid" refX="0" refY="0" style="overflow:visible" viewBox="0 0 1 1"><path d="M3-3 0 0l3 3" style="fill:none;stroke:context-stroke;stroke-width:1;stroke-linecap:butt" transform="rotate(180 .125 0)"/></marker><marker id="j" markerHeight="1" markerWidth="1" orient="auto-start-reverse" preserveAspectRatio="xMidYMid" refX="0" refY="0" style="overflow:visible" viewBox="0 0 1 1"><path d="M3-3 0 0l3 3" style="fill:none;stroke:context-stroke;stroke-width:1;stroke-linecap:butt" transform="rotate(180 .125 0)"/></marker><marker id="k" markerHeight="1" markerWidth="1" orient="auto-start-reverse" preserveAspectRatio="xMidYMid" refX="0" refY="0" style="overflow:visible" viewBox="0 0 1 1"><path d="M3-3 0 0l3 3" style="fill:none;stroke:context-stroke;stroke-width:1;stroke-linecap:butt" transform="rotate(180 .125 0)"/></marker><marker id="l" markerHeight="1" markerWidth="1" orient="auto-start-reverse" preserveAspectRatio="xMidYMid" refX="0" refY="0" style="overflow:visible" viewBox="0 0 1 1"><path d="M3-3 0 0l3 3" style="fill:none;stroke:context-stroke;stroke-width:1;stroke-linecap:butt" transform="rotate(180 .125 0)"/></marker><marker id="m" markerHeight="1" markerWidth="1" orient="auto-start-reverse" preserveAspectRatio="xMidYMid" refX="0" refY="0" style="overflow:visible" viewBox="0 0 1 1"><path d="M3-3 0 0l3 3" style="fill:none;stroke:context-stroke;stroke-width:1;stroke-linecap:butt" transform="rotate(180 .125 0)"/></marker><marker id="n" markerHeight="1" markerWidth="1" orient="auto-start-reverse" preserveAspectRatio="xMidYMid" refX="0" refY="0" style="overflow:visible" viewBox="0 0 1 1"><path d="M3-3 0 0l3 3" style="fill:none;stroke:context-stroke;stroke-width:1;stroke-linecap:butt" transform="rotate(180 .125 0)"/></marker><marker id="o" markerHeight="1" markerWidth="1" orient="auto-start-reverse" preserveAspectRatio="xMidYMid" refX="0" refY="0" style="overflow:visible" viewBox="0 0 1 1"><path d="M3-3 0 0l3 3" style="fill:none;stroke:context-stroke;stroke-width:1;stroke-linecap:butt" transform="rotate(180 .125 0)"/></marker><marker id="p" markerHeight="1" markerWidth="1" orient="auto-start-reverse" preserveAspectRatio="xMidYMid" refX="0" refY="0" style="overflow:visible" viewBox="0 0 1 1"><path d="M3-3 0 0l3 3" style="fill:none;stroke:context-stroke;stroke-width:1;stroke-linecap:butt" transform="rotate(180 .125 0)"/></marker><marker id="q" markerHeight="1" markerWidth="1" orient="auto-start-reverse" preserveAspectRatio="xMidYMid" refX="0" refY="0" style="overflow:visible" viewBox="0 0 1 1"><path d="M3-3 0 0l3 3" style="fill:none;stroke:context-stroke;stroke-width:1;stroke-linecap:butt" transform="rotate(180 .125 0)"/></marker><marker id="y" markerHeight="1" markerWidth="1" orient="auto-start-reverse" preserveAspectRatio="xMidYMid" refX="0" refY="0" style="overflow:visible" viewBox="0 0 1 1"><path d="M3-3 0 0l3 3" style="fill:none;stroke:context-stroke;stroke-width:1;stroke-linecap:butt" transform="rotate(180 .125 0)"/></marker><marker id="B" markerHeight="1" markerWidth="1" orient="auto-start-reverse" preserveAspectRatio="xMidYMid" refX="0" refY="0" style="overflow:visible" viewBox="0 0 1 1"><path d="M3-3 0 0l3 3" style="fill:none;stroke:context-stroke;stroke-width:1;stroke-linecap:butt" transform="rotate(180 .125 0)"/></marker></defs><g transform="translate(-3.576 -21.78)"><path d="M3.708 21.913h148.669V167.21H3.708z" style="opacity:1;fill:#fff;fill-opacity:1;stroke:#fff;stroke-width:.264583;stroke-linejoin:round;stroke-dasharray:none"/><path d="M12.872 51.132v81.048h10.012V66.15s.175-2.276.603-3.314c.573-1.392 1.414-2.744 2.558-3.724 1.315-1.126 2.99-1.888 4.685-2.246 1.445-.306 3.015-.29 4.43.132 1.225.366 2.303 1.166 3.268 2.003.805.698 1.55 1.515 2.04 2.463.74 1.437 1.248 4.686 1.248 4.686v66.03h10.012V66.15s.233-2.575.767-3.724c.686-1.472 1.773-2.782 3.018-3.823a8.6 8.6 0 0 1 3.009-1.605 6.9 6.9 0 0 1 2.622-.264c1.786.17 3.683.515 5.157 1.537 1.736 1.205 3.003 3.11 3.826 5.056.37.877.433 2.823.433 2.823v66.03h10.012V66.15s.226-3.524 1.072-5.006c.658-1.152 1.835-1.944 2.928-2.697.893-.615 1.871-1.145 2.913-1.449a7.1 7.1 0 0 1 2.503-.264c1.6.123 3.257.445 4.656 1.232 1.348.758 2.547 1.892 3.344 3.218.886 1.476 1.415 4.966 1.415 4.966v66.03h10.012V66.15s.506-3.226 1.233-4.658a7.2 7.2 0 0 1 1.928-2.38c1.359-1.073 3.013-1.792 4.685-2.246a4.6 4.6 0 0 1 1.57-.132c1.573.134 3.213.409 4.584 1.191a9.9 9.9 0 0 1 3.616 3.596c.796 1.382 1.216 4.629 1.216 4.629v66.03h10.012l.132-81.048z" style="fill:#ffd5d5;stroke:#f55;stroke-width:.264583;stroke-linejoin:round"/><circle cx="32.3" cy="66.15" r="9.416" style="fill:#fff;stroke:#ccc;stroke-width:.264583;stroke-linejoin:round"/><path d="M41.716 66.15h10.012v66.031H41.716zM12.872 66.15h10.012v66.031H12.872z" style="fill:none;stroke:#ccc;stroke-width:.264583;stroke-linejoin:round"/><circle cx="61.144" cy="66.15" r="9.416" style="fill:#fff;stroke:#ccc;stroke-width:.264583;stroke-linejoin:round"/><path d="M70.56 66.15h10.012v66.031H70.56z" style="fill:none;stroke:#ccc;stroke-width:.264583;stroke-linejoin:round"/><circle cx="89.988" cy="66.15" r="9.416" style="fill:#fff;stroke:#ccc;stroke-width:.264583;stroke-linejoin:round"/><path d="M99.403 66.15h10.012v66.031H99.403z" style="fill:none;stroke:#ccc;stroke-width:.264583;stroke-linejoin:round"/><circle cx="118.831" cy="66.15" r="9.416" style="fill:#fff;stroke:#ccc;stroke-width:.264583;stroke-linejoin:round"/><path d="M128.247 66.15h10.012v66.031h-10.012zM12.872 51.132h125.519v5.734H12.872z" style="fill:none;stroke:#ccc;stroke-width:.264583;stroke-linejoin:round"/><path d="M20.28 41.12v20.024L45.53 92.49l10.727 27.413 29.797 5.244 36.234-26.698 13.987-37.306V41.12h9.97V141H7.509l.12-99.88Z" style="opacity:.5;fill:#e5ffd5;fill-opacity:1;stroke:teal;stroke-width:.264583;stroke-linejoin:round"/><path d="M136.275 41.12v20.024" style="fill:#fff;stroke:teal;stroke-width:.264583;stroke-linejoin:round"/><path d="M51.728 85.2H70.56" style="opacity:.5;fill:#e5ffd5;fill-opacity:1;stroke:#00f;stroke-width:.264583;stroke-linejoin:round;stroke-dasharray:none;marker-start:url(#a);marker-end:url(#a)"/><path d="M70.559 91.06h9.75" style="opacity:.5;fill:#e5ffd5;fill-opacity:1;stroke:#00f;stroke-width:.264583;stroke-linejoin:round;stroke-dasharray:none;marker-start:url(#b);marker-end:url(#b)"/><path d="M61.315 56.77v-5.541" style="opacity:.5;fill:#e5ffd5;fill-opacity:1;stroke:#00f;stroke-width:.264583;stroke-linejoin:round;stroke-dasharray:none;marker-start:url(#c);marker-end:url(#c)"/><path d="M104.41 132.103V57.329" style="opacity:.5;fill:#e5ffd5;fill-opacity:1;stroke:#00f;stroke-width:.264582;stroke-linejoin:round;stroke-dasharray:none;marker-start:url(#d);marker-end:url(#d)"/><text xml:space="preserve" style="font-size:16px;line-height:normal;font-family:&quot;Liberation Mono&quot;;-inkscape-font-specification:&quot;Liberation Mono&quot;;text-decoration-color:#000;white-space:pre;shape-inside:url(#e);display:inline;fill:#000;stroke-width:1;-inkscape-stroke:none;stop-color:#000" transform="translate(8.596 -73.323)scale(.26458)"><tspan x="190.484" y="595.883">W1</tspan></text><text xml:space="preserve" style="font-size:16px;line-height:normal;font-family:&quot;Liberation Mono&quot;;-inkscape-font-specification:&quot;Liberation Mono&quot;;text-decoration-color:#000;white-space:pre;shape-inside:url(#f);display:inline;fill:#000;stroke-width:1;-inkscape-stroke:none;stop-color:#000" transform="translate(2.191 -74.334)scale(.26458)"><tspan x="270.756" y="620.729">W2</tspan></text><text xml:space="preserve" style="font-size:16px;line-height:normal;font-family:&quot;Liberation Mono&quot;;-inkscape-font-specification:&quot;Liberation Mono&quot;;text-decoration-color:#000;white-space:pre;shape-inside:url(#g);display:inline;fill:#000;stroke-width:1;-inkscape-stroke:none;stop-color:#000" transform="translate(-39.611 -112.428)scale(.26458)"><tspan x="386.064" y="632.832">H1</tspan></text><text xml:space="preserve" style="font-size:16px;line-height:normal;font-family:&quot;Liberation Mono&quot;;-inkscape-font-specification:&quot;Liberation Mono&quot;;text-decoration-color:#000;white-space:pre;shape-inside:url(#h);display:inline;fill:#000;stroke-width:1;-inkscape-stroke:none;stop-color:#000" transform="translate(-7.922 -81.077)scale(.26458)"><tspan x="426.838" y="682.524">H2</tspan></text><path d="m33.037 128.947 17.868 28.824" style="opacity:.5;fill:#e5ffd5;fill-opacity:1;stroke:#00f;stroke-width:.264583;stroke-linejoin:round;stroke-dasharray:none;marker-start:url(#a)"/><path d="m58.995 127.599-6.91 29.835" style="opacity:.5;fill:#e5ffd5;fill-opacity:1;stroke:#00f;stroke-width:.264583;stroke-linejoin:round;stroke-dasharray:none;marker-start:url(#a)"/><path d="m87.819 128.779-34.555 29.666" style="opacity:.5;fill:#e5ffd5;fill-opacity:1;stroke:#00f;stroke-width:.264583;stroke-linejoin:round;stroke-dasharray:none;marker-start:url(#a)"/><text xml:space="preserve" style="font-size:16px;line-height:normal;font-family:&quot;Liberation Mono&quot;;-inkscape-font-specification:&quot;Liberation Mono&quot;;text-decoration-color:#000;white-space:pre;shape-inside:url(#i);display:inline;fill:#000;stroke-width:1;-inkscape-stroke:none;stop-color:#000" transform="translate(3.203 -3.203)scale(.26458)"><tspan x="173.92" y="627.1">N1</tspan></text><path d="M12.872 32.59v18.542M20.28 32.59v64.558" style="opacity:.5;fill:#e5ffd5;fill-opacity:1;stroke:#999;stroke-width:.264583;stroke-linejoin:round;stroke-dasharray:none"/><path d="M12.872 32.59h7.09" style="opacity:.5;fill:#e5ffd5;fill-opacity:1;stroke:#00f;stroke-width:.264583;stroke-linejoin:round;stroke-dasharray:none;marker-start:url(#j);marker-end:url(#j)"/><path d="M136.275 32.59v18.542M138.391 32.59v18.542" style="opacity:.5;fill:#e5ffd5;fill-opacity:1;stroke:#999;stroke-width:.264583;stroke-linejoin:round;stroke-dasharray:none"/><path d="M129.185 32.59h7.09" style="opacity:.5;fill:#e5ffd5;fill-opacity:1;stroke:#00f;stroke-width:.264583;stroke-linejoin:round;stroke-dasharray:none;marker-end:url(#k)"/><path d="M145.481 32.59h-7.09" style="opacity:.5;fill:#e5ffd5;fill-opacity:1;stroke:#00f;stroke-width:.264583;stroke-linejoin:round;stroke-dasharray:none;marker-end:url(#l)"/><path d="M32.3 50.705v-9.343" style="opacity:.5;fill:#e5ffd5;fill-opacity:1;stroke:#00f;stroke-width:.264582;stroke-linejoin:round;stroke-dasharray:none;marker-start:url(#m);marker-end:url(#m)"/><path d="M20.28 41.188H32.3M124.255 41.12h12.02" style="opacity:.5;fill:#e5ffd5;fill-opacity:1;stroke:#999;stroke-width:.264583;stroke-linejoin:round;stroke-dasharray:none"/><path d="M124.255 50.463V41.12" style="opacity:.5;fill:#e5ffd5;fill-opacity:1;stroke:#00f;stroke-width:.264582;stroke-linejoin:round;stroke-dasharray:none;marker-start:url(#n);marker-end:url(#n)"/><path d="M20.28 60.475v-9.343" style="opacity:.5;fill:#e5ffd5;fill-opacity:1;stroke:#00f;stroke-width:.264582;stroke-linejoin:round;stroke-dasharray:none;marker-start:url(#o);marker-end:url(#o)"/><path d="M136.275 60.475v-9.343" style="opacity:.5;fill:#e5ffd5;fill-opacity:1;stroke:#00f;stroke-width:.264582;stroke-linejoin:round;stroke-dasharray:none;marker-start:url(#p);marker-end:url(#p)"/><path d="M45.53 92.462V51.24" style="opacity:.5;fill:#e5ffd5;fill-opacity:1;stroke:#00f;stroke-width:.264583;stroke-linejoin:round;stroke-dasharray:none;marker-start:url(#q);marker-end:url(#q)"/><text xml:space="preserve" style="font-size:16px;line-height:normal;font-family:&quot;Liberation Mono&quot;;-inkscape-font-specification:&quot;Liberation Mono&quot;;text-decoration-color:#000;white-space:pre;shape-inside:url(#r);display:inline;fill:#000;stroke-width:1;-inkscape-stroke:none;stop-color:#000" transform="translate(-33.917 1.146)scale(.26458)"><tspan x="175.436" y="114.256">Ix1</tspan></text><text xml:space="preserve" style="font-size:16px;line-height:normal;font-family:&quot;Liberation Mono&quot;;-inkscape-font-specification:&quot;Liberation Mono&quot;;text-decoration-color:#000;white-space:pre;shape-inside:url(#s);display:inline;fill:#000;stroke-width:1;-inkscape-stroke:none;stop-color:#000" transform="translate(86.6 -.194)scale(.26458)"><tspan x="175.436" y="114.256">Ix2</tspan></text><text xml:space="preserve" style="font-size:16px;line-height:normal;font-family:&quot;Liberation Mono&quot;;-inkscape-font-specification:&quot;Liberation Mono&quot;;text-decoration-color:#000;white-space:pre;shape-inside:url(#t);display:inline;fill:#000;stroke-width:1;-inkscape-stroke:none;stop-color:#000" transform="translate(-18.373 11.63)scale(.26458)"><tspan x="193.033" y="134.006">Ih11</tspan></text><text xml:space="preserve" style="font-size:16px;line-height:normal;font-family:&quot;Liberation Mono&quot;;-inkscape-font-specification:&quot;Liberation Mono&quot;;text-decoration-color:#000;white-space:pre;shape-inside:url(#u);display:inline;fill:#000;stroke-width:1;-inkscape-stroke:none;stop-color:#000" transform="translate(-41.326 22.386)scale(.26458)"><tspan x="193.033" y="134.006">Ih12</tspan></text><text xml:space="preserve" style="font-size:16px;line-height:normal;font-family:&quot;Liberation Mono&quot;;-inkscape-font-specification:&quot;Liberation Mono&quot;;text-decoration-color:#000;white-space:pre;shape-inside:url(#v);display:inline;fill:#000;stroke-width:1;-inkscape-stroke:none;stop-color:#000" transform="translate(62.158 12.15)scale(.26458)"><tspan x="193.033" y="134.006">Ih21</tspan></text><text xml:space="preserve" style="font-size:16px;line-height:normal;font-family:&quot;Liberation Mono&quot;;-inkscape-font-specification:&quot;Liberation Mono&quot;;text-decoration-color:#000;white-space:pre;shape-inside:url(#w);display:inline;fill:#000;stroke-width:1;-inkscape-stroke:none;stop-color:#000" transform="translate(85.907 22.156)scale(.26458)"><tspan x="193.033" y="134.006">Ih22</tspan></text><text xml:space="preserve" style="font-size:16px;line-height:normal;font-family:&quot;Liberation Mono&quot;;-inkscape-font-specification:&quot;Liberation Mono&quot;;text-decoration-color:#000;white-space:pre;shape-inside:url(#x);display:inline;fill:#000;stroke-width:1;-inkscape-stroke:none;stop-color:#000" transform="translate(-11.462 40.96)scale(.26458)"><tspan x="217.879" y="116.168">p1y</tspan></text><path d="M20.632 36.992H135.87" style="opacity:.5;fill:#e5ffd5;fill-opacity:1;stroke:#999;stroke-width:.264583;stroke-linejoin:round;stroke-dasharray:none;marker-start:url(#y);marker-end:url(#y)"/><text xml:space="preserve" style="font-size:16px;line-height:normal;font-family:&quot;Liberation Mono&quot;;-inkscape-font-specification:&quot;Liberation Mono&quot;;text-decoration-color:#000;white-space:pre;shape-inside:url(#z);display:inline;fill:#666;stroke-width:1;-inkscape-stroke:none;stop-color:#000" transform="translate(8.596 9.945)scale(.26458)"><tspan x="255.465" y="95.781">Lb</tspan></text><text xml:space="preserve" style="font-size:16px;line-height:normal;font-family:&quot;Liberation Mono&quot;;-inkscape-font-specification:&quot;Liberation Mono&quot;;text-decoration-color:#000;white-space:pre;shape-inside:url(#A);display:inline;fill:#000;stroke-width:1;-inkscape-stroke:none;stop-color:#000" transform="translate(60.667 -17.878)scale(.26458)"><tspan x="-118.496" y="438.526">p1x</tspan></text><path d="M20.684 94.695h24.784" style="opacity:.5;fill:#e5ffd5;fill-opacity:1;stroke:#00f;stroke-width:.264583;stroke-linejoin:round;stroke-dasharray:none;marker-start:url(#B);marker-end:url(#B)"/><path d="M45.53 92.49v5.312" style="opacity:.5;fill:#e5ffd5;fill-opacity:1;stroke:#999;stroke-width:.264583;stroke-linejoin:round;stroke-dasharray:none"/><text xml:space="preserve" style="font-size:16px;line-height:normal;font-family:&quot;Liberation Mono&quot;;-inkscape-font-specification:&quot;Liberation Mono&quot;;text-decoration-color:#000;white-space:pre;shape-inside:url(#C);display:inline;fill:#000;stroke-width:1;-inkscape-stroke:none;stop-color:#000" transform="translate(81.525 13.23)scale(.26458)"><tspan x="-94.15" y="398.043">[p2x,p2y]</tspan></text><text xml:space="preserve" style="font-size:16px;line-height:normal;font-family:&quot;Liberation Mono&quot;;-inkscape-font-specification:&quot;Liberation Mono&quot;;text-decoration-color:#000;white-space:pre;shape-inside:url(#D);display:inline;fill:#000;stroke-width:1;-inkscape-stroke:none;stop-color:#000" transform="translate(112.633 5.125)scale(.26458)"><tspan x="-99.555" y="448.047">[p3x,p3y]</tspan></text><text xml:space="preserve" style="font-size:16px;line-height:normal;font-family:&quot;Liberation Mono&quot;;-inkscape-font-specification:&quot;Liberation Mono&quot;;text-decoration-color:#000;white-space:pre;shape-inside:url(#E);display:inline;fill:#000;stroke-width:1;-inkscape-stroke:none;stop-color:#000" transform="translate(149.224 -32.3)scale(.26458)"><tspan x="-100.457" y="497.6">[p4x,p4y]</tspan></text></g></svg>