<svg xmlns="http://www.w3.org/2000/svg" width="527.923" height="439.35" viewBox="0 0 139.68 116.245"><defs><marker id="t" markerHeight="1" markerWidth="1" orient="auto-start-reverse" preserveAspectRatio="xMidYMid" refX="0" refY="0" style="overflow:visible" viewBox="0 0 1 1"><path d="M3-3 0 0l3 3" style="fill:none;stroke:context-stroke;stroke-width:1;stroke-linecap:butt" transform="rotate(180 .125 0)"/></marker><marker id="j" markerHeight="1" markerWidth="1" orient="auto-start-reverse" preserveAspectRatio="xMidYMid" refX="0" refY="0" style="overflow:visible" viewBox="0 0 1 1"><path d="M3-3 0 0l3 3" style="fill:none;stroke:context-stroke;stroke-width:1;stroke-linecap:butt" transform="rotate(180 .125 0)"/></marker><marker id="i" markerHeight="1" markerWidth="1" orient="auto-start-reverse" preserveAspectRatio="xMidYMid" refX="0" refY="0" style="overflow:visible" viewBox="0 0 1 1"><path d="M3-3 0 0l3 3" style="fill:none;stroke:context-stroke;stroke-width:1;stroke-linecap:butt" transform="rotate(180 .125 0)"/></marker><marker id="h" markerHeight="1" markerWidth="1" orient="auto-start-reverse" preserveAspectRatio="xMidYMid" refX="0" refY="0" style="overflow:visible" viewBox="0 0 1 1"><path d="M3-3 0 0l3 3" style="fill:none;stroke:context-stroke;stroke-width:1;stroke-linecap:butt" transform="rotate(180 .125 0)"/></marker><marker id="l" markerHeight="1" markerWidth="1" orient="auto-start-reverse" preserveAspectRatio="xMidYMid" refX="0" refY="0" style="overflow:visible" viewBox="0 0 1 1"><path d="M3-3 0 0l3 3" style="fill:none;stroke:context-stroke;stroke-width:1;stroke-linecap:butt" transform="rotate(180 .125 0)"/></marker><marker id="g" markerHeight="1" markerWidth="1" orient="auto-start-reverse" preserveAspectRatio="xMidYMid" refX="0" refY="0" style="overflow:visible" viewBox="0 0 1 1"><path d="M3-3 0 0l3 3" style="fill:none;stroke:context-stroke;stroke-width:1;stroke-linecap:butt" transform="rotate(180 .125 0)"/></marker><marker id="f" markerHeight="1" markerWidth="1" orient="auto-start-reverse" preserveAspectRatio="xMidYMid" refX="0" refY="0" style="overflow:visible" viewBox="0 0 1 1"><path d="M3-3 0 0l3 3" style="fill:none;stroke:context-stroke;stroke-width:1;stroke-linecap:butt" transform="rotate(180 .125 0)"/></marker><marker id="m" markerHeight="1" markerWidth="1" orient="auto-start-reverse" preserveAspectRatio="xMidYMid" refX="0" refY="0" style="overflow:visible" viewBox="0 0 1 1"><path d="M3-3 0 0l3 3" style="fill:none;stroke:context-stroke;stroke-width:1;stroke-linecap:butt" transform="rotate(180 .125 0)"/></marker><marker id="b" markerHeight="1" markerWidth="1" orient="auto-start-reverse" preserveAspectRatio="xMidYMid" refX="0" refY="0" style="overflow:visible" viewBox="0 0 1 1"><path d="M3-3 0 0l3 3" style="fill:none;stroke:context-stroke;stroke-width:1;stroke-linecap:butt" transform="rotate(180 .125 0)"/></marker><marker id="r" markerHeight="1" markerWidth="1" orient="auto-start-reverse" preserveAspectRatio="xMidYMid" refX="0" refY="0" style="overflow:visible" viewBox="0 0 1 1"><path d="M3-3 0 0l3 3" style="fill:none;stroke:context-stroke;stroke-width:1;stroke-linecap:butt" transform="rotate(180 .125 0)"/></marker><marker id="v" markerHeight="1" markerWidth="1" orient="auto-start-reverse" preserveAspectRatio="xMidYMid" refX="0" refY="0" style="overflow:visible" viewBox="0 0 1 1"><path d="M3-3 0 0l3 3" style="fill:none;stroke:context-stroke;stroke-width:1;stroke-linecap:butt" transform="rotate(180 .125 0)"/></marker><path id="s" d="M40.135 143.341h317.262v38.224H40.135z"/><path id="q" d="M237.628 570.402h52.782v33.541h-52.782z"/><path id="p" d="M133.785 566.705h52.24v34.053h-52.24z"/><path id="o" d="M37.587 563.171h57.827v33.765H37.587z"/><path id="n" d="M16.564 523.461h47.143v44.807H16.564z"/><path id="k" d="M251.643 956.881h49.054v37.587h-49.054z"/><path id="d" d="M16.564 523.461h47.143v44.807H16.564z"/><path id="e" d="M16.564 523.461h47.143v44.807H16.564z"/><path id="c" d="M133.785 566.705h52.24v34.053h-52.24z"/><path id="a" d="M133.785 566.705h52.24v34.053h-52.24z"/><path id="u" d="M40.135 143.341h221.701v66.892H40.135z"/></defs><g transform="translate(-9.677 -29.323)"><path d="M9.809 29.455h139.415v115.98H9.809z" style="fill:#fff;stroke:#fff;stroke-width:.264583;stroke-linejoin:round"/><text xml:space="preserve" style="font-size:16px;line-height:normal;font-family:&quot;Liberation Mono&quot;;-inkscape-font-specification:&quot;Liberation Mono&quot;;text-decoration-color:#000;white-space:pre;shape-inside:url(#a);display:inline;fill:#d40000;stroke-width:1;-inkscape-stroke:none;stop-color:#000" transform="translate(78.701 -22.438)scale(.26458)"><tspan x="133.785" y="580.942">D8</tspan></text><path d="m101.292 129.208 5-5.96" style="fill:none;stroke:#ff8080;stroke-width:.264583;stroke-linejoin:round;stroke-dasharray:none;marker-end:url(#b)"/><text xml:space="preserve" style="font-size:16px;line-height:normal;font-family:&quot;Liberation Mono&quot;;-inkscape-font-specification:&quot;Liberation Mono&quot;;text-decoration-color:#000;white-space:pre;shape-inside:url(#c);display:inline;fill:#d40000;stroke-width:1;-inkscape-stroke:none;stop-color:#000" transform="translate(60.558 -22.863)scale(.26458)"><tspan x="133.785" y="580.942">D7</tspan></text><text xml:space="preserve" style="font-size:16px;line-height:normal;font-family:&quot;Liberation Mono&quot;;-inkscape-font-specification:&quot;Liberation Mono&quot;;text-decoration-color:#000;white-space:pre;shape-inside:url(#d);display:inline;fill:#d40000;stroke-width:1;-inkscape-stroke:none;stop-color:#000" transform="translate(109.91 -95.888)scale(.26458)"><tspan x="16.564" y="537.697">H5</tspan></text><text xml:space="preserve" style="font-size:16px;line-height:normal;font-family:&quot;Liberation Mono&quot;;-inkscape-font-specification:&quot;Liberation Mono&quot;;text-decoration-color:#000;white-space:pre;shape-inside:url(#e);display:inline;fill:#d40000;stroke-width:1;-inkscape-stroke:none;stop-color:#000" transform="translate(67.649 -18.694)scale(.26458)"><tspan x="16.564" y="537.697">H6</tspan></text><path d="M66.016 130.678H54.104" style="fill:none;stroke:#ff8080;stroke-width:.264583;stroke-linejoin:round;stroke-dasharray:none;marker-start:url(#f);marker-end:url(#f)"/><path d="M53.59 130.894H36.737" style="fill:none;stroke:#ff8080;stroke-width:.264582;stroke-linejoin:round;stroke-dasharray:none;marker-start:url(#g);marker-end:url(#g)"/><path d="M66.37 119.985v11.858" style="fill:none;stroke:#ccc;stroke-width:.264583;stroke-linejoin:round;stroke-dasharray:none"/><path d="M70.741 120.17v3.84" style="fill:none;stroke:#ff8080;stroke-width:.264583;stroke-linejoin:round;stroke-dasharray:none;marker-start:url(#h);marker-end:url(#h)"/><path d="M18.323 105.152h6.657M18.323 124.367h54.692" style="fill:none;stroke:#ccc;stroke-width:.264584;stroke-linejoin:round;stroke-dasharray:none"/><circle cx="36.46" cy="116.614" r="7.754" style="fill:#b3b3b3;stroke:#000;stroke-width:.264583;stroke-linejoin:round"/><circle cx="36.46" cy="116.614" r="2.329" style="fill:#666;stroke:#000;stroke-width:.264583;stroke-linejoin:round"/><circle cx="53.555" cy="116.614" r="7.754" style="fill:#b3b3b3;stroke:#000;stroke-width:.264583;stroke-linejoin:round"/><path d="M25.113 100.769h113.105v4.383H25.113z" style="fill:#b3b3b3;stroke:#000;stroke-width:.264583;stroke-linejoin:round"/><circle cx="53.555" cy="116.614" r="2.329" style="fill:#666;stroke:#000;stroke-width:.264583;stroke-linejoin:round"/><circle cx="110.866" cy="116.614" r="7.754" style="fill:#b3b3b3;stroke:#000;stroke-width:.264583;stroke-linejoin:round"/><circle cx="110.866" cy="116.614" r="2.329" style="fill:#666;stroke:#000;stroke-width:.264583;stroke-linejoin:round"/><circle cx="127.961" cy="116.614" r="7.754" style="fill:#b3b3b3;stroke:#000;stroke-width:.264583;stroke-linejoin:round"/><circle cx="127.961" cy="116.614" r="2.329" style="fill:#666;stroke:#000;stroke-width:.264583;stroke-linejoin:round"/><path d="M66.369 105.152h30.592v14.833H66.369z" style="fill:#666;stroke:#000;stroke-width:.264583;stroke-linejoin:round"/><path d="M50.52 39.502h62.234v.954H50.52z" style="fill:#f95;stroke:#000;stroke-width:.264583;stroke-linejoin:round"/><path d="M52.569 40.456h58.137v9.539H52.569z" style="fill:#d7eef4;stroke:#000;stroke-width:.264583;stroke-linejoin:round"/><path d="M24.497 99.637c-1.362-2.119-3.31-6.369-3.579-7.807-.41-2.187-.122-6.717.591-9.296 1.589-5.748 4.92-13.212 8.032-17.998 3.781-5.814 6.22-8.447 11.382-12.29l3.023-2.251h75.382l2.834 2.107c5.313 3.95 7.222 5.948 10.744 11.242 3.398 5.107 5.866 10.069 7.72 15.517 1.422 4.177 1.88 6.56 1.885 9.828.006 3.532-.517 5.265-2.807 9.28l-1.598 2.8H25.224z" style="fill:#447821;stroke:#000;stroke-width:.264583;stroke-linejoin:round"/><path d="M72.488 54.827h18.138s2.145 11.258 1.954 16.925c-.242 7.156-3.907 21.215-3.907 21.215L74.44 92.73s-4.577-14.338-4.743-21.692c-.124-5.46 2.79-16.21 2.79-16.21zM43.952 55.304h22.885l-2.384 22.884-34.565-.477s1.084-6.22 2.384-9.058c1.403-3.066 3.456-5.846 5.72-8.343 1.744-1.922 5.96-5.006 5.96-5.006zM119.075 54.686H96.191l2.383 22.885 34.565-.477s-1.084-6.22-2.384-9.059c-1.403-3.066-3.455-5.845-5.72-8.343-1.743-1.921-5.96-5.006-5.96-5.006z" style="fill:#d7eef4;stroke:#000;stroke-width:.264583;stroke-linejoin:round"/><path d="M20.968 105.271v18.717" style="fill:none;stroke:#ff8080;stroke-width:.264583;stroke-linejoin:round;stroke-dasharray:none;marker-start:url(#i);marker-end:url(#i)"/><path d="M25.113 105.284v36.274M138.218 105.284v36.274" style="fill:none;stroke:#ccc;stroke-width:.264583;stroke-linejoin:round;stroke-dasharray:none"/><path d="M137.908 140.671H25.423" style="fill:none;stroke:#ff8080;stroke-width:.264583;stroke-linejoin:round;stroke-dasharray:none;marker-start:url(#j);marker-end:url(#j)"/><text xml:space="preserve" style="font-size:16px;line-height:normal;font-family:&quot;Liberation Mono&quot;;-inkscape-font-specification:&quot;Liberation Mono&quot;;text-decoration-color:#000;white-space:pre;shape-inside:url(#k);display:inline;fill:#d40000;stroke-width:1;-inkscape-stroke:none;stop-color:#000" transform="translate(14.216 -117.048)scale(.26458)"><tspan x="251.643" y="971.117">L1</tspan></text><path d="M53.687 116.614v14.951M36.46 116.891v14.952" style="fill:none;stroke:#ccc;stroke-width:.264583;stroke-linejoin:round;stroke-dasharray:none"/><path d="M36.084 130.894H25.483" style="fill:none;stroke:#ff8080;stroke-width:.264583;stroke-linejoin:round;stroke-dasharray:none;marker-start:url(#l);marker-end:url(#l)"/><path d="M113.436 41.143v8.429" style="fill:none;stroke:#ff8080;stroke-width:.264583;stroke-linejoin:round;stroke-dasharray:none;marker-start:url(#m);marker-end:url(#m)"/><text xml:space="preserve" style="font-size:16px;line-height:normal;font-family:&quot;Liberation Mono&quot;;-inkscape-font-specification:&quot;Liberation Mono&quot;;text-decoration-color:#000;white-space:pre;shape-inside:url(#n);display:inline;fill:#d40000;stroke-width:1;-inkscape-stroke:none;stop-color:#000" transform="translate(11.362 -26.111)scale(.26458)"><tspan x="16.564" y="537.697">H0</tspan></text><text xml:space="preserve" style="font-size:16px;line-height:normal;font-family:&quot;Liberation Mono&quot;;-inkscape-font-specification:&quot;Liberation Mono&quot;;text-decoration-color:#000;white-space:pre;shape-inside:url(#o);display:inline;fill:#d40000;stroke-width:1;-inkscape-stroke:none;stop-color:#000" transform="translate(47.365 -17.699)scale(.26458)"><tspan x="37.588" y="577.408">W6</tspan></text><text xml:space="preserve" style="font-size:16px;line-height:normal;font-family:&quot;Liberation Mono&quot;;-inkscape-font-specification:&quot;Liberation Mono&quot;;text-decoration-color:#000;white-space:pre;shape-inside:url(#p);display:inline;fill:#d40000;stroke-width:1;-inkscape-stroke:none;stop-color:#000" transform="translate(7.754 -18.373)scale(.26458)"><tspan x="133.785" y="580.942">W7</tspan></text><text xml:space="preserve" style="font-size:16px;line-height:normal;font-family:&quot;Liberation Mono&quot;;-inkscape-font-specification:&quot;Liberation Mono&quot;;text-decoration-color:#000;white-space:pre;shape-inside:url(#q);display:inline;fill:#d40000;stroke-width:1;-inkscape-stroke:none;stop-color:#000" transform="translate(-34.386 -19.553)scale(.26458)"><tspan x="237.627" y="584.639">W8</tspan></text><path d="m118.691 127.767 7.478-9.201" style="fill:none;stroke:#ff8080;stroke-width:.264583;stroke-linejoin:round;stroke-dasharray:none;marker-end:url(#r)"/><text xml:space="preserve" style="font-size:16px;line-height:normal;font-family:&quot;Liberation Mono&quot;;-inkscape-font-specification:&quot;Liberation Mono&quot;;text-decoration-color:#000;white-space:pre;shape-inside:url(#s);fill:#d45500;stroke-width:1;-inkscape-stroke:none;stop-color:#000" transform="translate(22.418 -6.91)scale(.26458)"><tspan x="40.135" y="157.578">topStyle: [mirador, sky, roof]</tspan></text><path d="m39.608 36.228 11.631 12.468" style="fill:#d45500;stroke:#d45500;stroke-width:.264583;stroke-linejoin:round;marker-end:url(#t)"/><text xml:space="preserve" style="font-size:16px;line-height:normal;font-family:&quot;Liberation Mono&quot;;-inkscape-font-specification:&quot;Liberation Mono&quot;;text-decoration-color:#000;white-space:pre;shape-inside:url(#u);display:inline;fill:#d45500;stroke-width:1;-inkscape-stroke:none;stop-color:#000" transform="translate(.933 5.447)scale(.26458)"><tspan x="40.135" y="157.578">sideWall:
</tspan><tspan x="40.135" y="177.578">[On, Off]</tspan></text><path d="m29.703 53.624 11.632 12.468" style="fill:#d45500;stroke:#d45500;stroke-width:.264583;stroke-linejoin:round;marker-end:url(#v)"/></g></svg>