<svg xmlns="http://www.w3.org/2000/svg" width="422.664" height="220.577" viewBox="0 0 111.83 58.361"><defs><marker id="a" markerHeight="1" markerWidth="1" orient="auto-start-reverse" preserveAspectRatio="xMidYMid" refX="0" refY="0" style="overflow:visible" viewBox="0 0 1 1"><path d="M3-3 0 0l3 3" style="fill:none;stroke:context-stroke;stroke-width:1;stroke-linecap:butt" transform="rotate(180 .125 0)"/></marker><marker id="c" markerHeight="1" markerWidth="1" orient="auto-start-reverse" preserveAspectRatio="xMidYMid" refX="0" refY="0" style="overflow:visible" viewBox="0 0 1 1"><path d="M3-3 0 0l3 3" style="fill:none;stroke:context-stroke;stroke-width:1;stroke-linecap:butt" transform="rotate(180 .125 0)"/></marker><marker id="e" markerHeight="1" markerWidth="1" orient="auto-start-reverse" preserveAspectRatio="xMidYMid" refX="0" refY="0" style="overflow:visible" viewBox="0 0 1 1"><path d="M3-3 0 0l3 3" style="fill:none;stroke:context-stroke;stroke-width:1;stroke-linecap:butt" transform="rotate(180 .125 0)"/></marker><marker id="g" markerHeight="1" markerWidth="1" orient="auto-start-reverse" preserveAspectRatio="xMidYMid" refX="0" refY="0" style="overflow:visible" viewBox="0 0 1 1"><path d="M3-3 0 0l3 3" style="fill:none;stroke:context-stroke;stroke-width:1;stroke-linecap:butt" transform="rotate(180 .125 0)"/></marker><marker id="h" markerHeight="1" markerWidth="1" orient="auto-start-reverse" preserveAspectRatio="xMidYMid" refX="0" refY="0" style="overflow:visible" viewBox="0 0 1 1"><path d="M3-3 0 0l3 3" style="fill:none;stroke:context-stroke;stroke-width:1;stroke-linecap:butt" transform="rotate(180 .125 0)"/></marker><marker id="k" markerHeight="1" markerWidth="1" orient="auto-start-reverse" preserveAspectRatio="xMidYMid" refX="0" refY="0" style="overflow:visible" viewBox="0 0 1 1"><path d="M3-3 0 0l3 3" style="fill:none;stroke:context-stroke;stroke-width:1;stroke-linecap:butt" transform="rotate(180 .125 0)"/></marker><marker id="m" markerHeight="1" markerWidth="1" orient="auto-start-reverse" preserveAspectRatio="xMidYMid" refX="0" refY="0" style="overflow:visible" viewBox="0 0 1 1"><path d="M3-3 0 0l3 3" style="fill:none;stroke:context-stroke;stroke-width:1;stroke-linecap:butt" transform="rotate(180 .125 0)"/></marker><marker id="n" markerHeight="1" markerWidth="1" orient="auto-start-reverse" preserveAspectRatio="xMidYMid" refX="0" refY="0" style="overflow:visible" viewBox="0 0 1 1"><path d="M3-3 0 0l3 3" style="fill:none;stroke:context-stroke;stroke-width:1;stroke-linecap:butt" transform="rotate(180 .125 0)"/></marker><marker id="p" markerHeight="1" markerWidth="1" orient="auto-start-reverse" preserveAspectRatio="xMidYMid" refX="0" refY="0" style="overflow:visible" viewBox="0 0 1 1"><path d="M3-3 0 0l3 3" style="fill:none;stroke:context-stroke;stroke-width:1;stroke-linecap:butt" transform="rotate(180 .125 0)"/></marker><path id="l" d="M172.009 1555.409h23.572v21.023h-23.572z"/><path id="b" d="M251.643 956.881h49.054v37.587h-49.054z"/><path id="d" d="M251.643 956.881h49.054v37.587h-49.054z"/><path id="f" d="M251.643 956.881h49.054v37.587h-49.054z"/><path id="i" d="M251.643 956.881h49.054v37.587h-49.054z"/><path id="j" d="M251.643 956.881h49.054v37.587h-49.054z"/><path id="o" d="M251.643 956.881h49.054v37.587h-49.054z"/><path id="q" d="M251.643 956.881h49.054v37.587h-49.054z"/></defs><path d="M23.616 353.167h111.565v58.096H23.616z" style="fill:#fff;stroke:#fff;stroke-width:.264583;stroke-linejoin:round" transform="translate(-23.483 -353.035)"/><path d="M99.295 387.402v16.289M50.532 387.404v16.289" style="fill:#b3b3b3;stroke:#e6e6e6;stroke-width:.264583;stroke-linejoin:round" transform="translate(-23.483 -353.035)"/><path d="M124.127 363.395v42.693" style="fill:none;stroke:#ff8080;stroke-width:.264583;stroke-linejoin:round;stroke-dasharray:none;marker-start:url(#a);marker-end:url(#a)" transform="translate(-23.483 -353.035)"/><path d="M28.605 363.288h93.444v42.908H28.605z" style="fill:none;stroke:teal;stroke-width:.264583;stroke-linejoin:round" transform="translate(-23.483 -353.035)"/><text xml:space="preserve" style="font-size:16px;line-height:normal;font-family:&quot;Liberation Mono&quot;;-inkscape-font-specification:&quot;Liberation Mono&quot;;text-decoration-color:#000;white-space:pre;shape-inside:url(#b);display:inline;fill:#d40000;stroke-width:1;-inkscape-stroke:none;stop-color:#000" transform="translate(35.52 -224.336)scale(.26458)"><tspan x="251.643" y="971.117">WW1</tspan></text><path d="M28.727 361.397h92.905" style="fill:none;stroke:#999;stroke-width:.264582;stroke-linejoin:round;stroke-dasharray:none;marker-start:url(#c);marker-end:url(#c)" transform="translate(-23.483 -353.035)"/><text xml:space="preserve" style="font-size:16px;line-height:normal;font-family:&quot;Liberation Mono&quot;;-inkscape-font-specification:&quot;Liberation Mono&quot;;text-decoration-color:#000;white-space:pre;shape-inside:url(#d);display:inline;fill:#b3b3b3;stroke-width:1;-inkscape-stroke:none;stop-color:#000" transform="translate(-19.651 -249.808)scale(.26458)"><tspan x="251.643" y="971.117">Lroof</tspan></text><path d="M99.295 387.27a8.26 8.241 0 0 1-8.13 8.24" style="fill:none;stroke:teal;stroke-width:.264583;stroke-linejoin:round" transform="translate(-23.483 -353.035)"/><path d="M97.748 382.213h1.547v5.057h-1.547z" style="fill:#f6ffd5;stroke:teal;stroke-width:.264583;stroke-linejoin:round" transform="translate(-23.483 -353.035)"/><path d="M99.728 384.742h21.927" style="fill:none;stroke:#ff8080;stroke-width:.264582;stroke-linejoin:round;stroke-dasharray:none;marker-start:url(#e);marker-end:url(#e)" transform="translate(-23.483 -353.035)"/><text xml:space="preserve" style="font-size:16px;line-height:normal;font-family:&quot;Liberation Mono&quot;;-inkscape-font-specification:&quot;Liberation Mono&quot;;text-decoration-color:#000;white-space:pre;shape-inside:url(#f);display:inline;fill:#d40000;stroke-width:1;-inkscape-stroke:none;stop-color:#000" transform="translate(18.018 -226.097)scale(.26458)"><tspan x="251.643" y="971.117">W4</tspan></text><path d="M28.605 384.742h21.927" style="fill:none;stroke:#ff8080;stroke-width:.264582;stroke-linejoin:round;stroke-dasharray:none;marker-start:url(#g);marker-end:url(#g)" transform="translate(-23.483 -353.035)"/><path d="M79.809 395.055v-20.627" style="fill:none;stroke:#ff8080;stroke-width:.264582;stroke-linejoin:round;stroke-dasharray:none;marker-start:url(#h);marker-end:url(#h)" transform="translate(-23.483 -353.035)"/><path d="M50.532 382.213h1.547v5.057h-1.547z" style="fill:#f6ffd5;stroke:teal;stroke-width:.264583;stroke-linejoin:round" transform="translate(-23.483 -353.035)"/><path d="M393.963-91.165h1.547v5.057h-1.547z" style="fill:#f6ffd5;stroke:teal;stroke-width:.264583;stroke-linejoin:round" transform="rotate(90 164.776 -188.259)"/><path d="M-374.083 91.055a8.26 8.241 0 0 1-8.13 8.24" style="fill:none;stroke:teal;stroke-width:.264583;stroke-linejoin:round" transform="rotate(-90 -188.259 -164.776)"/><path d="M374.083-91.055h1.547v5.057h-1.547z" style="fill:#f6ffd5;stroke:teal;stroke-width:.264583;stroke-linejoin:round" transform="rotate(90 164.776 -188.259)"/><path d="M-50.532-382.213a8.26 8.241 0 0 1-8.13 8.24" style="fill:none;stroke:teal;stroke-width:.264583;stroke-linejoin:round" transform="matrix(-1 0 0 -1 -23.483 -353.035)"/><path d="M395.535-58.772a8.26 8.241 0 0 1-8.13 8.24" style="fill:none;stroke:teal;stroke-width:.264583;stroke-linejoin:round" transform="rotate(90 164.776 -188.259)"/><path d="M393.988-63.829h1.547v5.057h-1.547zM373.973-63.72h1.547v5.057h-1.547z" style="fill:#f6ffd5;stroke:teal;stroke-width:.264583;stroke-linejoin:round" transform="rotate(90 164.776 -188.259)"/><path d="m63.72 373.973 22.278.11M63.962 395.425l22.279.11" style="fill:#f6ffd5;stroke:teal;stroke-width:.264583;stroke-linejoin:round" transform="translate(-23.483 -353.035)"/><text xml:space="preserve" style="font-size:16px;line-height:normal;font-family:&quot;Liberation Mono&quot;;-inkscape-font-specification:&quot;Liberation Mono&quot;;text-decoration-color:#000;white-space:pre;shape-inside:url(#i);display:inline;fill:#d40000;stroke-width:1;-inkscape-stroke:none;stop-color:#000" transform="translate(-54.163 -226.501)scale(.26458)"><tspan x="251.643" y="971.117">W4</tspan></text><text xml:space="preserve" style="font-size:16px;line-height:normal;font-family:&quot;Liberation Mono&quot;;-inkscape-font-specification:&quot;Liberation Mono&quot;;text-decoration-color:#000;white-space:pre;shape-inside:url(#j);display:inline;fill:#d40000;stroke-width:1;-inkscape-stroke:none;stop-color:#000" transform="translate(-9.007 -223.84)scale(.26458)"><tspan x="251.643" y="971.117">W5</tspan></text><path d="M50.792 403.792h48.134" style="fill:none;stroke:#ccc;stroke-width:.264581;stroke-linejoin:round;stroke-dasharray:none;marker-start:url(#k);marker-end:url(#k)" transform="translate(-23.483 -353.035)"/><text xml:space="preserve" style="font-size:16px;line-height:normal;font-family:&quot;Liberation Mono&quot;;-inkscape-font-specification:&quot;Liberation Mono&quot;;text-decoration-color:#000;white-space:pre;shape-inside:url(#l);display:inline;fill:#b3b3b3;stroke-width:1;-inkscape-stroke:none;stop-color:#000" transform="translate(3.214 -365.33)scale(.26458)"><tspan x="172.01" y="1569.647">L5</tspan></text><path d="M-46.984-382.11a11.893 11.866 0 0 1-11.707 11.865" style="fill:none;stroke:teal;stroke-width:.264582;stroke-linejoin:round" transform="matrix(-1 0 0 -1 -23.483 -353.035)"/><path d="M46.984 382.11v5.057M58.694 370.245l32.392.11" style="fill:#b3b3b3;stroke:teal;stroke-width:.264583;stroke-linejoin:round" transform="translate(-23.483 -353.035)"/><path d="M-370.355 91.086a11.893 11.866 0 0 1-11.708 11.865" style="fill:none;stroke:teal;stroke-width:.264582;stroke-linejoin:round" transform="rotate(-90 -188.259 -164.776)"/><path d="m102.95 382.065.156 5.212" style="fill:#b3b3b3;stroke:teal;stroke-width:.264583;stroke-linejoin:round" transform="translate(-23.483 -353.035)"/><path d="M398.984 91.24a11.893 11.866 0 0 1-11.707 11.866" style="fill:none;stroke:teal;stroke-width:.264582;stroke-linejoin:round" transform="matrix(0 1 1 0 -23.483 -353.035)"/><path d="M398.874-58.848a11.893 11.866 0 0 1-11.707 11.864" style="fill:none;stroke:teal;stroke-width:.264582;stroke-linejoin:round" transform="rotate(90 164.776 -188.259)"/><path d="m58.848 398.874 32.392.11" style="fill:#b3b3b3;stroke:teal;stroke-width:.264583;stroke-linejoin:round" transform="translate(-23.483 -353.035)"/><path d="M67.675 379.03v-4.794" style="fill:none;stroke:#ff8080;stroke-width:.264582;stroke-linejoin:round;stroke-dasharray:none;marker-end:url(#m)" transform="translate(-23.483 -353.035)"/><path d="M67.675 365.095v4.795" style="fill:none;stroke:#ff8080;stroke-width:.264582;stroke-linejoin:round;stroke-dasharray:none;marker-end:url(#n)" transform="translate(-23.483 -353.035)"/><text xml:space="preserve" style="font-size:16px;line-height:normal;font-family:&quot;Liberation Mono&quot;;-inkscape-font-specification:&quot;Liberation Mono&quot;;text-decoration-color:#000;white-space:pre;shape-inside:url(#o);display:inline;fill:#d40000;stroke-width:1;-inkscape-stroke:none;stop-color:#000" transform="translate(-21.567 -241.592)scale(.26458)"><tspan x="251.643" y="971.117">S5</tspan></text><path d="M53.799 386.995v-4.517" style="fill:none;stroke:#ff8080;stroke-width:.264581;stroke-linejoin:round;stroke-dasharray:none;marker-start:url(#p);marker-end:url(#p)" transform="translate(-23.483 -353.035)"/><text xml:space="preserve" style="font-size:16px;line-height:normal;font-family:&quot;Liberation Mono&quot;;-inkscape-font-specification:&quot;Liberation Mono&quot;;text-decoration-color:#000;white-space:pre;shape-inside:url(#q);display:inline;fill:#d40000;stroke-width:1;-inkscape-stroke:none;stop-color:#000" transform="translate(-35.262 -223.892)scale(.26458)"><tspan x="251.643" y="971.117">R5x3</tspan></text></svg>