<svg xmlns="http://www.w3.org/2000/svg" width="271.755" height="405.54" viewBox="0 0 71.902 107.299"><defs><marker id="C" markerHeight="1" markerWidth="1" orient="auto-start-reverse" preserveAspectRatio="xMidYMid" refX="0" refY="0" style="overflow:visible" viewBox="0 0 1 1"><path d="M3-3 0 0l3 3" style="fill:none;stroke:context-stroke;stroke-width:1;stroke-linecap:butt" transform="rotate(180 .125 0)"/></marker><marker id="f" markerHeight="1" markerWidth="1" orient="auto-start-reverse" preserveAspectRatio="xMidYMid" refX="0" refY="0" style="overflow:visible" viewBox="0 0 1 1"><path d="M3-3 0 0l3 3" style="fill:none;stroke:context-stroke;stroke-width:1;stroke-linecap:butt" transform="rotate(180 .125 0)"/></marker><marker id="g" markerHeight="1" markerWidth="1" orient="auto-start-reverse" preserveAspectRatio="xMidYMid" refX="0" refY="0" style="overflow:visible" viewBox="0 0 1 1"><path d="M3-3 0 0l3 3" style="fill:none;stroke:context-stroke;stroke-width:1;stroke-linecap:butt" transform="rotate(180 .125 0)"/></marker><marker id="h" markerHeight="1" markerWidth="1" orient="auto-start-reverse" preserveAspectRatio="xMidYMid" refX="0" refY="0" style="overflow:visible" viewBox="0 0 1 1"><path d="M3-3 0 0l3 3" style="fill:none;stroke:context-stroke;stroke-width:1;stroke-linecap:butt" transform="rotate(180 .125 0)"/></marker><marker id="i" markerHeight="1" markerWidth="1" orient="auto-start-reverse" preserveAspectRatio="xMidYMid" refX="0" refY="0" style="overflow:visible" viewBox="0 0 1 1"><path d="M3-3 0 0l3 3" style="fill:none;stroke:context-stroke;stroke-width:1;stroke-linecap:butt" transform="rotate(180 .125 0)"/></marker><marker id="c" markerHeight="1" markerWidth="1" orient="auto-start-reverse" preserveAspectRatio="xMidYMid" refX="0" refY="0" style="overflow:visible" viewBox="0 0 1 1"><path d="M3-3 0 0l3 3" style="fill:none;stroke:context-stroke;stroke-width:1;stroke-linecap:butt" transform="rotate(180 .125 0)"/></marker><marker id="n" markerHeight="1" markerWidth="1" orient="auto-start-reverse" preserveAspectRatio="xMidYMid" refX="0" refY="0" style="overflow:visible" viewBox="0 0 1 1"><path d="M3-3 0 0l3 3" style="fill:none;stroke:context-stroke;stroke-width:1;stroke-linecap:butt" transform="rotate(180 .125 0)"/></marker><marker id="o" markerHeight="1" markerWidth="1" orient="auto-start-reverse" preserveAspectRatio="xMidYMid" refX="0" refY="0" style="overflow:visible" viewBox="0 0 1 1"><path d="M3-3 0 0l3 3" style="fill:none;stroke:context-stroke;stroke-width:1;stroke-linecap:butt" transform="rotate(180 .125 0)"/></marker><marker id="p" markerHeight="1" markerWidth="1" orient="auto-start-reverse" preserveAspectRatio="xMidYMid" refX="0" refY="0" style="overflow:visible" viewBox="0 0 1 1"><path d="M3-3 0 0l3 3" style="fill:none;stroke:context-stroke;stroke-width:1;stroke-linecap:butt" transform="rotate(180 .125 0)"/></marker><marker id="u" markerHeight="1" markerWidth="1" orient="auto-start-reverse" preserveAspectRatio="xMidYMid" refX="0" refY="0" style="overflow:visible" viewBox="0 0 1 1"><path d="M3-3 0 0l3 3" style="fill:none;stroke:context-stroke;stroke-width:1;stroke-linecap:butt" transform="rotate(180 .125 0)"/></marker><marker id="v" markerHeight="1" markerWidth="1" orient="auto-start-reverse" preserveAspectRatio="xMidYMid" refX="0" refY="0" style="overflow:visible" viewBox="0 0 1 1"><path d="M3-3 0 0l3 3" style="fill:none;stroke:context-stroke;stroke-width:1;stroke-linecap:butt" transform="rotate(180 .125 0)"/></marker><marker id="x" markerHeight="1" markerWidth="1" orient="auto-start-reverse" preserveAspectRatio="xMidYMid" refX="0" refY="0" style="overflow:visible" viewBox="0 0 1 1"><path d="M3-3 0 0l3 3" style="fill:none;stroke:context-stroke;stroke-width:1;stroke-linecap:butt" transform="rotate(180 .125 0)"/></marker><marker id="z" markerHeight="1" markerWidth="1" orient="auto-start-reverse" preserveAspectRatio="xMidYMid" refX="0" refY="0" style="overflow:visible" viewBox="0 0 1 1"><path d="M3-3 0 0l3 3" style="fill:none;stroke:context-stroke;stroke-width:1;stroke-linecap:butt" transform="rotate(180 .125 0)"/></marker><marker id="A" markerHeight="1" markerWidth="1" orient="auto-start-reverse" preserveAspectRatio="xMidYMid" refX="0" refY="0" style="overflow:visible" viewBox="0 0 1 1"><path d="M3-3 0 0l3 3" style="fill:none;stroke:context-stroke;stroke-width:1;stroke-linecap:butt" transform="rotate(180 .125 0)"/></marker><marker id="b" markerHeight="1" markerWidth="1" orient="auto-start-reverse" preserveAspectRatio="xMidYMid" refX="0" refY="0" style="overflow:visible" viewBox="0 0 1 1"><path d="M3-3 0 0l3 3" style="fill:none;stroke:context-stroke;stroke-width:1;stroke-linecap:butt" transform="rotate(180 .125 0)"/></marker><marker id="a" markerHeight="1" markerWidth="1" orient="auto-start-reverse" preserveAspectRatio="xMidYMid" refX="0" refY="0" style="overflow:visible" viewBox="0 0 1 1"><path d="M3-3 0 0l3 3" style="fill:none;stroke:context-stroke;stroke-width:1;stroke-linecap:butt" transform="rotate(180 .125 0)"/></marker><marker id="D" markerHeight="1" markerWidth="1" orient="auto-start-reverse" preserveAspectRatio="xMidYMid" refX="0" refY="0" style="overflow:visible" viewBox="0 0 1 1"><path d="M3-3 0 0l3 3" style="fill:none;stroke:context-stroke;stroke-width:1;stroke-linecap:butt" transform="rotate(180 .125 0)"/></marker><marker id="E" markerHeight="1" markerWidth="1" orient="auto-start-reverse" preserveAspectRatio="xMidYMid" refX="0" refY="0" style="overflow:visible" viewBox="0 0 1 1"><path d="M3-3 0 0l3 3" style="fill:none;stroke:context-stroke;stroke-width:1;stroke-linecap:butt" transform="rotate(180 .125 0)"/></marker><marker id="L" markerHeight="1" markerWidth="1" orient="auto-start-reverse" preserveAspectRatio="xMidYMid" refX="0" refY="0" style="overflow:visible" viewBox="0 0 1 1"><path d="M3-3 0 0l3 3" style="fill:none;stroke:context-stroke;stroke-width:1;stroke-linecap:butt" transform="rotate(180 .125 0)"/></marker><marker id="M" markerHeight="1" markerWidth="1" orient="auto-start-reverse" preserveAspectRatio="xMidYMid" refX="0" refY="0" style="overflow:visible" viewBox="0 0 1 1"><path d="M3-3 0 0l3 3" style="fill:none;stroke:context-stroke;stroke-width:1;stroke-linecap:butt" transform="rotate(180 .125 0)"/></marker><path id="d" d="M251.643 956.881h49.054v37.587h-49.054z"/><path id="j" d="M251.643 956.881h49.054v37.587h-49.054z"/><path id="k" d="M251.643 956.881h49.054v37.587h-49.054z"/><path id="l" d="M251.643 956.881h49.054v37.587h-49.054z"/><path id="m" d="M251.643 956.881h49.054v37.587h-49.054z"/><path id="e" d="M251.643 956.881h49.054v37.587h-49.054z"/><path id="q" d="M251.643 956.881h49.054v37.587h-49.054z"/><path id="r" d="M251.643 956.881h49.054v37.587h-49.054z"/><path id="s" d="M251.643 956.881h49.054v37.587h-49.054z"/><path id="t" d="M16.564 523.461h47.143v44.807H16.564z"/><path id="w" d="M16.564 523.461h47.143v44.807H16.564z"/><path id="y" d="M251.643 956.881h49.054v37.587h-49.054z"/><path id="B" d="M16.564 523.461h47.143v44.807H16.564z"/><path id="F" d="M251.643 956.881h49.054v37.587h-49.054z"/><path id="G" d="M251.643 956.881h49.054v37.587h-49.054z"/><path id="H" d="M251.643 956.881h49.054v37.587h-49.054z"/><path id="I" d="M251.643 956.881h49.054v37.587h-49.054z"/><path id="J" d="M251.643 956.881h49.054v37.587h-49.054z"/><path id="K" d="M251.643 956.881h49.054v37.587h-49.054z"/></defs><path d="M44.668 464.884h71.637v107.035H44.668z" style="fill:#fff;stroke:#fff;stroke-width:.264583;stroke-linejoin:round" transform="translate(-44.536 -464.752)"/><path d="M70.894 542.262v-9.784" style="fill:#00f;stroke:#00f;stroke-width:.264583;stroke-linejoin:round;stroke-dasharray:none;marker-start:url(#a);marker-end:url(#a)" transform="translate(-44.536 -464.752)"/><path d="M70.894 504.04v-12.18" style="fill:#00f;stroke:#00f;stroke-width:.264583;stroke-linejoin:round;stroke-dasharray:none;marker-start:url(#b);marker-end:url(#b)" transform="translate(-44.536 -464.752)"/><path d="M55.179 527.284h43.683v15.264H55.179zM55.179 516.739h43.683v10.545H55.179zM55.179 491.698h43.683v25.041H55.179z" style="fill:none;stroke:teal;stroke-width:.264583;stroke-linejoin:round" transform="translate(-44.536 -464.752)"/><path d="M88.15 561.866H66.444" style="fill:none;stroke:#ff8080;stroke-width:.264583;stroke-linejoin:round;stroke-dasharray:none;marker-start:url(#c);marker-end:url(#c)" transform="translate(-44.536 -464.752)"/><text xml:space="preserve" style="font-size:16px;line-height:normal;font-family:&quot;Liberation Mono&quot;;-inkscape-font-specification:&quot;Liberation Mono&quot;;text-decoration-color:#000;white-space:pre;shape-inside:url(#d);display:inline;fill:#d40000;stroke-width:1;-inkscape-stroke:none;stop-color:#000" transform="translate(-36.78 -250.952)scale(.26458)"><tspan x="251.643" y="971.117">WW1</tspan></text><text xml:space="preserve" style="font-size:16px;line-height:normal;font-family:&quot;Liberation Mono&quot;;-inkscape-font-specification:&quot;Liberation Mono&quot;;text-decoration-color:#000;white-space:pre;shape-inside:url(#e);display:inline;fill:#d40000;stroke-width:1;-inkscape-stroke:none;stop-color:#000" transform="translate(-36.073 -156.01)scale(.26458)"><tspan x="251.643" y="971.117">WW2</tspan></text><path d="M100.978 516.29v-24.528" style="fill:none;stroke:#ff8080;stroke-width:.264583;stroke-linejoin:round;stroke-dasharray:none;marker-start:url(#f);marker-end:url(#f)" transform="translate(-44.536 -464.752)"/><path d="M100.978 527.182V516.72" style="fill:none;stroke:#ff8080;stroke-width:.264583;stroke-linejoin:round;stroke-dasharray:none;marker-start:url(#g);marker-end:url(#g)" transform="translate(-44.536 -464.752)"/><path d="M100.978 542.319v-14.927" style="fill:none;stroke:#ff8080;stroke-width:.264584;stroke-linejoin:round;stroke-dasharray:none;marker-start:url(#h);marker-end:url(#h)" transform="translate(-44.536 -464.752)"/><path d="M50.568 559.446h59.838" style="fill:#b3b3b3;stroke:#999;stroke-width:.264583;stroke-linejoin:round" transform="translate(-44.536 -464.752)"/><path d="M100.978 558.988v-16.14" style="fill:none;stroke:#ff8080;stroke-width:.264584;stroke-linejoin:round;stroke-dasharray:none;marker-start:url(#i);marker-end:url(#i)" transform="translate(-44.536 -464.752)"/><text xml:space="preserve" style="font-size:16px;line-height:normal;font-family:&quot;Liberation Mono&quot;;-inkscape-font-specification:&quot;Liberation Mono&quot;;text-decoration-color:#000;white-space:pre;shape-inside:url(#j);display:inline;fill:#d40000;stroke-width:1;-inkscape-stroke:none;stop-color:#000" transform="translate(-8.55 -216.08)scale(.26458)"><tspan x="251.643" y="971.117">H3</tspan></text><text xml:space="preserve" style="font-size:16px;line-height:normal;font-family:&quot;Liberation Mono&quot;;-inkscape-font-specification:&quot;Liberation Mono&quot;;text-decoration-color:#000;white-space:pre;shape-inside:url(#k);display:inline;fill:#d40000;stroke-width:1;-inkscape-stroke:none;stop-color:#000" transform="translate(-8.74 -199.102)scale(.26458)"><tspan x="251.643" y="971.117">H2</tspan></text><text xml:space="preserve" style="font-size:16px;line-height:normal;font-family:&quot;Liberation Mono&quot;;-inkscape-font-specification:&quot;Liberation Mono&quot;;text-decoration-color:#000;white-space:pre;shape-inside:url(#l);display:inline;fill:#d40000;stroke-width:1;-inkscape-stroke:none;stop-color:#000" transform="translate(-9.423 -185.914)scale(.26458)"><tspan x="251.643" y="971.117">H1</tspan></text><text xml:space="preserve" style="font-size:16px;line-height:normal;font-family:&quot;Liberation Mono&quot;;-inkscape-font-specification:&quot;Liberation Mono&quot;;text-decoration-color:#000;white-space:pre;shape-inside:url(#m);display:inline;fill:#d40000;stroke-width:1;-inkscape-stroke:none;stop-color:#000" transform="translate(-9.624 -169.602)scale(.26458)"><tspan x="251.643" y="971.117">H0</tspan></text><path d="M60.622 546.129h5.562v13.316h-5.562z" style="fill:#e5ffd5;stroke:teal;stroke-width:.264583;stroke-linejoin:round" transform="translate(-44.536 -464.752)"/><path d="M66.184 551.595h22.225v2.385H66.184z" style="fill:#e5ffd5;stroke:teal;stroke-width:.264582;stroke-linejoin:round" transform="translate(-44.536 -464.752)"/><path d="M88.409 546.129h5.562v13.316h-5.562z" style="fill:#e5ffd5;stroke:teal;stroke-width:.264583;stroke-linejoin:round" transform="translate(-44.536 -464.752)"/><path d="M66.124 561.866h-5.57" style="fill:none;stroke:#ff8080;stroke-width:.264582;stroke-linejoin:round;stroke-dasharray:none;marker-start:url(#n);marker-end:url(#n)" transform="translate(-44.536 -464.752)"/><path d="M59.034 559.314V546.26" style="fill:none;stroke:#ff8080;stroke-width:.264584;stroke-linejoin:round;stroke-dasharray:none;marker-start:url(#o);marker-end:url(#o)" transform="translate(-44.536 -464.752)"/><path d="m78.625 548.226-1.328 2.842" style="fill:none;stroke:#ff8080;stroke-width:.264582;stroke-linejoin:round;stroke-dasharray:none;marker-end:url(#p)" transform="translate(-44.536 -464.752)"/><text xml:space="preserve" style="font-size:16px;line-height:normal;font-family:&quot;Liberation Mono&quot;;-inkscape-font-specification:&quot;Liberation Mono&quot;;text-decoration-color:#000;white-space:pre;shape-inside:url(#q);display:inline;fill:#d40000;stroke-width:1;-inkscape-stroke:none;stop-color:#000" transform="translate(-57.617 -167.512)scale(.26458)"><tspan x="251.643" y="971.117">D7</tspan></text><text xml:space="preserve" style="font-size:16px;line-height:normal;font-family:&quot;Liberation Mono&quot;;-inkscape-font-specification:&quot;Liberation Mono&quot;;text-decoration-color:#000;white-space:pre;shape-inside:url(#r);display:inline;fill:#d40000;stroke-width:1;-inkscape-stroke:none;stop-color:#000" transform="translate(-33.628 -173.772)scale(.26458)"><tspan x="251.643" y="971.117">D8</tspan></text><text xml:space="preserve" style="font-size:16px;line-height:normal;font-family:&quot;Liberation Mono&quot;;-inkscape-font-specification:&quot;Liberation Mono&quot;;text-decoration-color:#000;white-space:pre;shape-inside:url(#s);display:inline;fill:#d40000;stroke-width:1;-inkscape-stroke:none;stop-color:#000" transform="translate(-50.574 -155.237)scale(.26458)"><tspan x="251.643" y="971.117">WW3</tspan></text><path d="M58.216 481.205h37.609v.954H58.216z" style="fill:#f95;stroke:#000;stroke-width:.264583;stroke-linejoin:round" transform="translate(-44.536 -464.752)"/><path d="M61.605 482.159h30.831v9.539H61.605z" style="fill:#d7eef4;stroke:#000;stroke-width:.264583;stroke-linejoin:round" transform="translate(-44.536 -464.752)"/><text xml:space="preserve" style="font-size:16px;line-height:normal;font-family:&quot;Liberation Mono&quot;;-inkscape-font-specification:&quot;Liberation Mono&quot;;text-decoration-color:#000;white-space:pre;shape-inside:url(#t);display:inline;fill:#d40000;stroke-width:1;-inkscape-stroke:none;stop-color:#000" transform="translate(30.64 -119.215)scale(.26458)"><tspan x="16.564" y="537.697">H5</tspan></text><path d="M78.702 482.568v8.428" style="fill:none;stroke:#ff8080;stroke-width:.264583;stroke-linejoin:round;stroke-dasharray:none;marker-start:url(#u);marker-end:url(#u)" transform="translate(-44.536 -464.752)"/><path d="M92.309 493.367H61.732" style="fill:none;stroke:#ff8080;stroke-width:.264583;stroke-linejoin:round;stroke-dasharray:none;marker-start:url(#v);marker-end:url(#v)" transform="translate(-44.536 -464.752)"/><text xml:space="preserve" style="font-size:16px;line-height:normal;font-family:&quot;Liberation Mono&quot;;-inkscape-font-specification:&quot;Liberation Mono&quot;;text-decoration-color:#000;white-space:pre;shape-inside:url(#w);display:inline;fill:#d40000;stroke-width:1;-inkscape-stroke:none;stop-color:#000" transform="translate(26.553 -109.83)scale(.26458)"><tspan x="16.564" y="537.697">W5</tspan></text><path d="M61.149 483.814h-2.742" style="fill:none;stroke:#ff8080;stroke-width:.264584;stroke-linejoin:round;stroke-dasharray:none;marker-start:url(#x);marker-end:url(#x)" transform="translate(-44.536 -464.752)"/><text xml:space="preserve" style="font-size:16px;line-height:normal;font-family:&quot;Liberation Mono&quot;;-inkscape-font-specification:&quot;Liberation Mono&quot;;text-decoration-color:#000;white-space:pre;shape-inside:url(#y);display:inline;fill:#d40000;stroke-width:1;-inkscape-stroke:none;stop-color:#000" transform="translate(-54.878 -233.525)scale(.26458)"><tspan x="251.643" y="971.117">S5</tspan></text><path d="M95.096 485.31v-2.74" style="fill:none;stroke:#ff8080;stroke-width:.264584;stroke-linejoin:round;stroke-dasharray:none;marker-end:url(#z)" transform="translate(-44.536 -464.752)"/><path d="M95.07 478.078v2.742" style="fill:none;stroke:#ff8080;stroke-width:.264584;stroke-linejoin:round;stroke-dasharray:none;marker-end:url(#A)" transform="translate(-44.536 -464.752)"/><text xml:space="preserve" style="font-size:16px;line-height:normal;font-family:&quot;Liberation Mono&quot;;-inkscape-font-specification:&quot;Liberation Mono&quot;;text-decoration-color:#000;white-space:pre;shape-inside:url(#B);display:inline;fill:#d40000;stroke-width:1;-inkscape-stroke:none;stop-color:#000" transform="translate(43.314 -129.602)scale(.26458)"><tspan x="16.564" y="537.697">E1</tspan></text><path d="M55.179 491.566v-22.741M98.861 491.698v-22.741" style="fill:#e5ffd5;stroke:#ccc;stroke-width:.264583;stroke-linejoin:round" transform="translate(-44.536 -464.752)"/><path d="M98.822 471.1H55.218" style="fill:none;stroke:#ff8080;stroke-width:.264583;stroke-linejoin:round;stroke-dasharray:none;marker-start:url(#C);marker-end:url(#C)" transform="translate(-44.536 -464.752)"/><path d="M77.02 504.219h9.113l6.429 27.92-16.345-.169" style="fill:none;stroke:purple;stroke-width:.264583;stroke-linejoin:round" transform="translate(-44.536 -464.752)"/><path d="M77.02 504.219h-9.113l-6.429 27.92 14.739-.169" style="fill:none;stroke:purple;stroke-width:.264583;stroke-linejoin:round" transform="translate(-44.536 -464.752)"/><path d="M55.687 504.352h11.708" style="fill:#00f;stroke:#00f;stroke-width:.264583;stroke-linejoin:round;stroke-dasharray:none;marker-start:url(#D);marker-end:url(#D)" transform="translate(-44.536 -464.752)"/><path d="M55.57 532.077h5.435" style="fill:#00f;stroke:#00f;stroke-width:.264583;stroke-linejoin:round;stroke-dasharray:none;marker-start:url(#E);marker-end:url(#E)" transform="translate(-44.536 -464.752)"/><text xml:space="preserve" style="font-size:16px;line-height:normal;font-family:&quot;Liberation Mono&quot;;-inkscape-font-specification:&quot;Liberation Mono&quot;;text-decoration-color:#000;white-space:pre;shape-inside:url(#F);display:inline;fill:#00f;stroke-width:1;-inkscape-stroke:none;stop-color:#000" transform="translate(-39.704 -220.087)scale(.26458)"><tspan x="251.643" y="971.117">FH3</tspan></text><text xml:space="preserve" style="font-size:16px;line-height:normal;font-family:&quot;Liberation Mono&quot;;-inkscape-font-specification:&quot;Liberation Mono&quot;;text-decoration-color:#000;white-space:pre;shape-inside:url(#G);display:inline;fill:#00f;stroke-width:1;-inkscape-stroke:none;stop-color:#000" transform="translate(-39.726 -182.73)scale(.26458)"><tspan x="251.643" y="971.117">FH1</tspan></text><text xml:space="preserve" style="font-size:16px;line-height:normal;font-family:&quot;Liberation Mono&quot;;-inkscape-font-specification:&quot;Liberation Mono&quot;;text-decoration-color:#000;white-space:pre;shape-inside:url(#H);display:inline;fill:#00f;stroke-width:1;-inkscape-stroke:none;stop-color:#000" transform="translate(-53.556 -218.289)scale(.26458)"><tspan x="251.643" y="971.117">FW3</tspan></text><text xml:space="preserve" style="font-size:16px;line-height:normal;font-family:&quot;Liberation Mono&quot;;-inkscape-font-specification:&quot;Liberation Mono&quot;;text-decoration-color:#000;white-space:pre;shape-inside:url(#I);display:inline;fill:#00f;stroke-width:1;-inkscape-stroke:none;stop-color:#000" transform="translate(-55.609 -185.23)scale(.26458)"><tspan x="251.643" y="971.117">FW1</tspan></text><text xml:space="preserve" style="font-size:16px;line-height:normal;font-family:&quot;Liberation Mono&quot;;-inkscape-font-specification:&quot;Liberation Mono&quot;;text-decoration-color:#000;white-space:pre;shape-inside:url(#J);display:inline;fill:#00f;stroke-width:1;-inkscape-stroke:none;stop-color:#000" transform="translate(-39.283 -208.641)scale(.26458)"><tspan x="251.643" y="971.117">FR3</tspan></text><text xml:space="preserve" style="font-size:16px;line-height:normal;font-family:&quot;Liberation Mono&quot;;-inkscape-font-specification:&quot;Liberation Mono&quot;;text-decoration-color:#000;white-space:pre;shape-inside:url(#K);display:inline;fill:#00f;stroke-width:1;-inkscape-stroke:none;stop-color:#000" transform="translate(-43.488 -196.462)scale(.26458)"><tspan x="251.643" y="971.117">FR1</tspan></text><path d="m67.552 524.676-4.97 6.853" style="fill:#00f;stroke:#00f;stroke-width:.264584;stroke-linejoin:round;stroke-dasharray:none;marker-end:url(#L)" transform="translate(-44.536 -464.752)"/><path d="m71.863 509.986-3.4-4.892" style="fill:#00f;stroke:#00f;stroke-width:.264584;stroke-linejoin:round;stroke-dasharray:none;marker-end:url(#M)" transform="translate(-44.536 -464.752)"/></svg>