<svg xmlns="http://www.w3.org/2000/svg" width="412.335" height="425.842" viewBox="0 0 109.097 112.671"><defs><marker id="b" markerHeight="1" markerWidth="1" orient="auto-start-reverse" preserveAspectRatio="xMidYMid" refX="0" refY="0" style="overflow:visible" viewBox="0 0 1 1"><path d="M3-3 0 0l3 3" style="fill:none;stroke:context-stroke;stroke-width:1;stroke-linecap:butt" transform="rotate(180 .125 0)"/></marker><marker id="c" markerHeight="1" markerWidth="1" orient="auto-start-reverse" preserveAspectRatio="xMidYMid" refX="0" refY="0" style="overflow:visible" viewBox="0 0 1 1"><path d="M3-3 0 0l3 3" style="fill:none;stroke:context-stroke;stroke-width:1;stroke-linecap:butt" transform="rotate(180 .125 0)"/></marker><marker id="d" markerHeight="1" markerWidth="1" orient="auto-start-reverse" preserveAspectRatio="xMidYMid" refX="0" refY="0" style="overflow:visible" viewBox="0 0 1 1"><path d="M3-3 0 0l3 3" style="fill:none;stroke:context-stroke;stroke-width:1;stroke-linecap:butt" transform="rotate(180 .125 0)"/></marker><marker id="e" markerHeight="1" markerWidth="1" orient="auto-start-reverse" preserveAspectRatio="xMidYMid" refX="0" refY="0" style="overflow:visible" viewBox="0 0 1 1"><path d="M3-3 0 0l3 3" style="fill:none;stroke:context-stroke;stroke-width:1;stroke-linecap:butt" transform="rotate(180 .125 0)"/></marker><marker id="f" markerHeight="1" markerWidth="1" orient="auto-start-reverse" preserveAspectRatio="xMidYMid" refX="0" refY="0" style="overflow:visible" viewBox="0 0 1 1"><path d="M3-3 0 0l3 3" style="fill:none;stroke:context-stroke;stroke-width:1;stroke-linecap:butt" transform="rotate(180 .125 0)"/></marker><marker id="g" markerHeight="1" markerWidth="1" orient="auto-start-reverse" preserveAspectRatio="xMidYMid" refX="0" refY="0" style="overflow:visible" viewBox="0 0 1 1"><path d="M3-3 0 0l3 3" style="fill:none;stroke:context-stroke;stroke-width:1;stroke-linecap:butt" transform="rotate(180 .125 0)"/></marker><marker id="o" markerHeight="1" markerWidth="1" orient="auto-start-reverse" preserveAspectRatio="xMidYMid" refX="0" refY="0" style="overflow:visible" viewBox="0 0 1 1"><path d="M3-3 0 0l3 3" style="fill:none;stroke:context-stroke;stroke-width:1;stroke-linecap:butt" transform="rotate(180 .125 0)"/></marker><marker id="p" markerHeight="1" markerWidth="1" orient="auto-start-reverse" preserveAspectRatio="xMidYMid" refX="0" refY="0" style="overflow:visible" viewBox="0 0 1 1"><path d="M3-3 0 0l3 3" style="fill:none;stroke:context-stroke;stroke-width:1;stroke-linecap:butt" transform="rotate(180 .125 0)"/></marker><marker id="s" markerHeight="1" markerWidth="1" orient="auto-start-reverse" preserveAspectRatio="xMidYMid" refX="0" refY="0" style="overflow:visible" viewBox="0 0 1 1"><path d="M3-3 0 0l3 3" style="fill:none;stroke:context-stroke;stroke-width:1;stroke-linecap:butt" transform="rotate(180 .125 0)"/></marker><marker id="u" markerHeight="1" markerWidth="1" orient="auto-start-reverse" preserveAspectRatio="xMidYMid" refX="0" refY="0" style="overflow:visible" viewBox="0 0 1 1"><path d="M3-3 0 0l3 3" style="fill:none;stroke:context-stroke;stroke-width:1;stroke-linecap:butt" transform="rotate(180 .125 0)"/></marker><marker id="w" markerHeight="1" markerWidth="1" orient="auto-start-reverse" preserveAspectRatio="xMidYMid" refX="0" refY="0" style="overflow:visible" viewBox="0 0 1 1"><path d="M3-3 0 0l3 3" style="fill:none;stroke:context-stroke;stroke-width:1;stroke-linecap:butt" transform="rotate(180 .125 0)"/></marker><marker id="x" markerHeight="1" markerWidth="1" orient="auto-start-reverse" preserveAspectRatio="xMidYMid" refX="0" refY="0" style="overflow:visible" viewBox="0 0 1 1"><path d="M3-3 0 0l3 3" style="fill:none;stroke:context-stroke;stroke-width:1;stroke-linecap:butt" transform="rotate(180 .125 0)"/></marker><marker id="a" markerHeight="1" markerWidth="1" orient="auto-start-reverse" preserveAspectRatio="xMidYMid" refX="0" refY="0" style="overflow:visible" viewBox="0 0 1 1"><path d="M3-3 0 0l3 3" style="fill:none;stroke:context-stroke;stroke-width:1;stroke-linecap:butt" transform="rotate(180 .125 0)"/></marker><marker id="B" markerHeight="1" markerWidth="1" orient="auto-start-reverse" preserveAspectRatio="xMidYMid" refX="0" refY="0" style="overflow:visible" viewBox="0 0 1 1"><path d="M3-3 0 0l3 3" style="fill:none;stroke:context-stroke;stroke-width:1;stroke-linecap:butt" transform="rotate(180 .125 0)"/></marker><path id="t" d="M191.121 767.034h56.699v46.506h-56.699z"/><path id="q" d="M128.688 839.023h50.329v45.232h-50.329z"/><path id="n" d="M500.101 945.414H556.8v54.151h-56.699z"/><path id="m" d="M477.166 988.735h54.151v34.402h-54.151z"/><path id="l" d="M475.892 944.14h47.143v28.668h-47.143z"/><path id="k" d="M530.043 863.869h49.054v43.321h-49.054z"/><path id="j" d="M517.939 913.56h50.329v49.054h-50.329z"/><path id="i" d="M486.085 958.155h49.054v39.498h-49.054z"/><path id="h" d="M251.643 956.881h49.054v37.587h-49.054z"/><path id="r" d="M128.688 839.023h50.329v45.232h-50.329z"/><path id="v" d="M191.121 767.034h56.699v46.506h-56.699z"/><path id="y" d="M128.688 839.023h50.329v45.232h-50.329z"/><path id="z" d="M37.587 563.171h57.827v33.765H37.587z"/><path id="A" d="M16.564 523.461h47.143v44.807H16.564z"/></defs><path d="M29.082 195.578h108.832v112.406H29.082z" style="fill:#fff;stroke:#fff;stroke-width:.264583;stroke-linejoin:round;stroke-dasharray:none" transform="translate(-28.95 -195.446)"/><path d="M81.63 207.763H67.94" style="fill:none;stroke:#ff8080;stroke-width:.264583;stroke-linejoin:round;stroke-dasharray:none;marker-start:url(#a);marker-end:url(#a)" transform="translate(-28.95 -195.446)"/><path d="M68.619 276.919h17.878v3.175H68.619z" style="fill:#e3f4d7;stroke:#e3f4d7;stroke-width:.264583;stroke-linejoin:round;stroke-dasharray:none" transform="translate(-28.95 -195.446)"/><path d="M68.619 280.094h35.756l8.582-10.25.238-.477v-13.35L82.206 210.25h-29.32" style="fill:none;stroke:teal;stroke-width:.264583;stroke-linejoin:round" transform="translate(-28.95 -195.446)"/><path d="m97.754 233.206 4.218-2.743" style="fill:none;stroke:#faa;stroke-width:.264583;stroke-linejoin:round;stroke-dasharray:none;marker-start:url(#b);marker-end:url(#b)" transform="translate(-28.95 -195.446)"/><path d="M113.195 256.018s-6.016-17.845-11.223-25.555c-5.274-7.81-19.766-20.214-19.766-20.214" style="fill:none;stroke:teal;stroke-width:.264583;stroke-linejoin:round;stroke-dasharray:none" transform="translate(-28.95 -195.446)"/><path d="M113.195 269.367v24.242" style="fill:none;stroke:#ccc;stroke-width:.264583;stroke-linejoin:round;stroke-dasharray:none" transform="translate(-28.95 -195.446)"/><path d="M104.285 297.6H39.98" style="fill:none;stroke:#ff8080;stroke-width:.264583;stroke-linejoin:round;stroke-dasharray:none;marker-start:url(#b);marker-end:url(#b)" transform="translate(-28.95 -195.446)"/><path d="M104.375 280.094v18.394" style="fill:none;stroke:#ccc;stroke-width:.264583;stroke-linejoin:round;stroke-dasharray:none" transform="translate(-28.95 -195.446)"/><path d="M113.096 285.067h-8.49" style="fill:none;stroke:#ff8080;stroke-width:.264583;stroke-linejoin:round;stroke-dasharray:none;marker-start:url(#c);marker-end:url(#c)" transform="translate(-28.95 -195.446)"/><path d="M104.508 280.16h22.169M113.328 269.499h13.349" style="fill:none;stroke:#ccc;stroke-width:.264583;stroke-linejoin:round;stroke-dasharray:none" transform="translate(-28.95 -195.446)"/><path d="M122.443 269.499v10.66" style="fill:none;stroke:#ff8080;stroke-width:.264583;stroke-linejoin:round;stroke-dasharray:none;marker-start:url(#d);marker-end:url(#d)" transform="translate(-28.95 -195.446)"/><path d="M113.32 255.928h13.35" style="fill:none;stroke:#ccc;stroke-width:.264583;stroke-linejoin:round;stroke-dasharray:none" transform="translate(-28.95 -195.446)"/><path d="M126.67 255.99v13.325" style="fill:none;stroke:#ff8080;stroke-width:.264583;stroke-linejoin:round;stroke-dasharray:none;marker-start:url(#e);marker-end:url(#e)" transform="translate(-28.95 -195.446)"/><path d="M82.12 210.28h44.55" style="fill:none;stroke:#ccc;stroke-width:.264583;stroke-linejoin:round;stroke-dasharray:none" transform="translate(-28.95 -195.446)"/><path d="M122.575 210.596v45.062" style="fill:none;stroke:#ff8080;stroke-width:.264583;stroke-linejoin:round;stroke-dasharray:none;marker-start:url(#f);marker-end:url(#f)" transform="translate(-28.95 -195.446)"/><path d="M82.252 210.149v51.43" style="fill:none;stroke:#ccc;stroke-width:.264583;stroke-linejoin:round;stroke-dasharray:none" transform="translate(-28.95 -195.446)"/><path d="M112.826 259.82h-30.27" style="fill:none;stroke:#ff8080;stroke-width:.264583;stroke-linejoin:round;stroke-dasharray:none;marker-start:url(#g);marker-end:url(#g)" transform="translate(-28.95 -195.446)"/><text xml:space="preserve" style="font-size:16px;line-height:normal;font-family:&quot;Liberation Mono&quot;;-inkscape-font-specification:&quot;Liberation Mono&quot;;text-decoration-color:#000;white-space:pre;shape-inside:url(#h);fill:#d40000;stroke-width:1;-inkscape-stroke:none;stop-color:#000" transform="translate(-22.725 -155.99)scale(.26458)"><tspan x="251.643" y="971.117">L1</tspan></text><text xml:space="preserve" style="font-size:16px;line-height:normal;font-family:&quot;Liberation Mono&quot;;-inkscape-font-specification:&quot;Liberation Mono&quot;;text-decoration-color:#000;white-space:pre;shape-inside:url(#i);fill:#d40000;stroke-width:1;-inkscape-stroke:none;stop-color:#000" transform="translate(-34.187 -176.35)scale(.26458)"><tspan x="486.086" y="972.391">H1</tspan></text><text xml:space="preserve" style="font-size:16px;line-height:normal;font-family:&quot;Liberation Mono&quot;;-inkscape-font-specification:&quot;Liberation Mono&quot;;text-decoration-color:#000;white-space:pre;shape-inside:url(#j);fill:#d40000;stroke-width:1;-inkscape-stroke:none;stop-color:#000" transform="translate(-38.57 -176.856)scale(.26458)"><tspan x="517.939" y="927.797">H2</tspan></text><text xml:space="preserve" style="font-size:16px;line-height:normal;font-family:&quot;Liberation Mono&quot;;-inkscape-font-specification:&quot;Liberation Mono&quot;;text-decoration-color:#000;white-space:pre;shape-inside:url(#k);fill:#d40000;stroke-width:1;-inkscape-stroke:none;stop-color:#000" transform="translate(-45.65 -195.397)scale(.26458)"><tspan x="530.043" y="878.106">H3</tspan></text><text xml:space="preserve" style="font-size:16px;line-height:normal;font-family:&quot;Liberation Mono&quot;;-inkscape-font-specification:&quot;Liberation Mono&quot;;text-decoration-color:#000;white-space:pre;shape-inside:url(#l);fill:#d40000;stroke-width:1;-inkscape-stroke:none;stop-color:#000" transform="translate(-48.178 -159.8)scale(.26458)"><tspan x="475.893" y="958.377">W1</tspan></text><text xml:space="preserve" style="font-size:16px;line-height:normal;font-family:&quot;Liberation Mono&quot;;-inkscape-font-specification:&quot;Liberation Mono&quot;;text-decoration-color:#000;white-space:pre;shape-inside:url(#m);fill:#d40000;stroke-width:1;-inkscape-stroke:none;stop-color:#000" transform="translate(-59.303 -201.924)scale(.26458)"><tspan x="477.166" y="1002.971">W3</tspan></text><text xml:space="preserve" style="font-size:16px;line-height:normal;font-family:&quot;Liberation Mono&quot;;-inkscape-font-specification:&quot;Liberation Mono&quot;;text-decoration-color:#000;white-space:pre;shape-inside:url(#n);fill:#d40000;stroke-width:1;-inkscape-stroke:none;stop-color:#000" transform="translate(-62.505 -213.939)scale(.26458)"><tspan x="500.102" y="959.65">C3</tspan></text><path d="m96.887 272.762 6.85 5.9" style="fill:none;stroke:#ff8080;stroke-width:.264583;stroke-linejoin:round;stroke-dasharray:none;marker-end:url(#o)" transform="translate(-28.95 -195.446)"/><path d="m104.62 266.707 7.861 2.191" style="fill:none;stroke:#ff8080;stroke-width:.264583;stroke-linejoin:round;stroke-dasharray:none;marker-end:url(#p)" transform="translate(-28.95 -195.446)"/><text xml:space="preserve" style="font-size:16px;line-height:normal;font-family:&quot;Liberation Mono&quot;;-inkscape-font-specification:&quot;Liberation Mono&quot;;text-decoration-color:#000;white-space:pre;shape-inside:url(#q);fill:#d40000;stroke-width:1;-inkscape-stroke:none;stop-color:#000" transform="translate(28.854 -149.212)scale(.26458)"><tspan x="128.688" y="853.26">R1</tspan></text><text xml:space="preserve" style="font-size:16px;line-height:normal;font-family:&quot;Liberation Mono&quot;;-inkscape-font-specification:&quot;Liberation Mono&quot;;text-decoration-color:#000;white-space:pre;shape-inside:url(#r);display:inline;fill:#d40000;stroke-width:1;-inkscape-stroke:none;stop-color:#000" transform="translate(36.213 -153.21)scale(.26458)"><tspan x="128.688" y="853.26">R2</tspan></text><path d="m74.63 216.93 6.85-5.9" style="fill:none;stroke:#ff8080;stroke-width:.264583;stroke-linejoin:round;stroke-dasharray:none;marker-end:url(#s)" transform="translate(-28.95 -195.446)"/><text xml:space="preserve" style="font-size:16px;line-height:normal;font-family:&quot;Liberation Mono&quot;;-inkscape-font-specification:&quot;Liberation Mono&quot;;text-decoration-color:#000;white-space:pre;shape-inside:url(#t);fill:#d40000;stroke-width:1;-inkscape-stroke:none;stop-color:#000" transform="translate(-10.083 -182.25)scale(.26458)"><tspan x="191.121" y="781.27">R4</tspan></text><path d="m99.102 250.903 13.048 4.676" style="fill:none;stroke:#ff8080;stroke-width:.264582;stroke-linejoin:round;stroke-dasharray:none;marker-end:url(#u)" transform="translate(-28.95 -195.446)"/><text xml:space="preserve" style="font-size:16px;line-height:normal;font-family:&quot;Liberation Mono&quot;;-inkscape-font-specification:&quot;Liberation Mono&quot;;text-decoration-color:#000;white-space:pre;shape-inside:url(#v);display:inline;fill:#d40000;stroke-width:1;-inkscape-stroke:none;stop-color:#000" transform="translate(13.321 -151.28)scale(.26458)"><tspan x="191.121" y="781.27">R3</tspan></text><path d="M68.619 276.919h17.878" style="fill:#d40000;stroke:teal;stroke-width:.264583;stroke-linejoin:round;stroke-dasharray:none" transform="translate(-28.95 -195.446)"/><path d="M73.056 265.939v10.66" style="fill:none;stroke:#ff8080;stroke-width:.264583;stroke-linejoin:round;stroke-dasharray:none;marker-end:url(#w)" transform="translate(-28.95 -195.446)"/><path d="M72.967 287.545v-7.051" style="fill:none;stroke:#ff8080;stroke-width:.264583;stroke-linejoin:round;stroke-dasharray:none;marker-end:url(#x)" transform="translate(-28.95 -195.446)"/><text xml:space="preserve" style="font-size:16px;line-height:normal;font-family:&quot;Liberation Mono&quot;;-inkscape-font-specification:&quot;Liberation Mono&quot;;text-decoration-color:#000;white-space:pre;shape-inside:url(#y);display:inline;fill:#d40000;stroke-width:1;-inkscape-stroke:none;stop-color:#000" transform="translate(8.34 -156.38)scale(.26458)"><tspan x="128.688" y="853.26">E1</tspan></text><path d="M36.689 199.756h32.905v.954H36.689z" style="fill:#f95;stroke:#000;stroke-width:.264583;stroke-linejoin:round" transform="translate(-28.95 -195.446)"/><path d="M36.715 200.71h30.831v9.539H36.715z" style="fill:#d7eef4;stroke:#000;stroke-width:.264583;stroke-linejoin:round" transform="translate(-28.95 -195.446)"/><text xml:space="preserve" style="font-size:16px;line-height:normal;font-family:&quot;Liberation Mono&quot;;-inkscape-font-specification:&quot;Liberation Mono&quot;;text-decoration-color:#000;white-space:pre;shape-inside:url(#z);display:inline;fill:#d40000;stroke-width:1;-inkscape-stroke:none;stop-color:#000" transform="translate(33.269 -141.334)scale(.26458)"><tspan x="37.588" y="577.408">W4</tspan></text><text xml:space="preserve" style="font-size:16px;line-height:normal;font-family:&quot;Liberation Mono&quot;;-inkscape-font-specification:&quot;Liberation Mono&quot;;text-decoration-color:#000;white-space:pre;shape-inside:url(#A);display:inline;fill:#d40000;stroke-width:1;-inkscape-stroke:none;stop-color:#000" transform="translate(21.336 -131.358)scale(.26458)"><tspan x="16.564" y="537.697">H5</tspan></text><path d="M53.812 201.119v8.428" style="fill:none;stroke:#ff8080;stroke-width:.264583;stroke-linejoin:round;stroke-dasharray:none;marker-start:url(#B);marker-end:url(#B)" transform="translate(-28.95 -195.446)"/></svg>