<svg xmlns="http://www.w3.org/2000/svg" width="514.544" height="373.094" viewBox="0 0 136.14 98.715"><g transform="translate(-13.216857,-32.525444)"><path d="M13.349 32.658h135.875v98.45H13.349z" style="fill:#fff;stroke:#fff;stroke-width:.264583;stroke-linejoin:round"/><circle cx="36.46" cy="116.614" r="7.754" style="fill:#b3b3b3;stroke:#000;stroke-width:.264583;stroke-linejoin:round"/><circle cx="36.46" cy="116.614" r="2.329" style="fill:#666;stroke:#000;stroke-width:.264583;stroke-linejoin:round"/><circle cx="53.555" cy="116.614" r="7.754" style="fill:#b3b3b3;stroke:#000;stroke-width:.264583;stroke-linejoin:round"/><path d="M25.113 100.769h113.105v4.383H25.113z" style="fill:#b3b3b3;stroke:#000;stroke-width:.264583;stroke-linejoin:round"/><circle cx="53.555" cy="116.614" r="2.329" style="fill:#666;stroke:#000;stroke-width:.264583;stroke-linejoin:round"/><circle cx="110.866" cy="116.614" r="7.754" style="fill:#b3b3b3;stroke:#000;stroke-width:.264583;stroke-linejoin:round"/><circle cx="110.866" cy="116.614" r="2.329" style="fill:#666;stroke:#000;stroke-width:.264583;stroke-linejoin:round"/><circle cx="127.961" cy="116.614" r="7.754" style="fill:#b3b3b3;stroke:#000;stroke-width:.264583;stroke-linejoin:round"/><circle cx="127.961" cy="116.614" r="2.329" style="fill:#666;stroke:#000;stroke-width:.264583;stroke-linejoin:round"/><path d="M66.369 105.152h30.592v14.833H66.369z" style="fill:#666;stroke:#000;stroke-width:.264583;stroke-linejoin:round"/><path d="M50.52 39.502h62.234v.954H50.52z" style="fill:#f95;stroke:#000;stroke-width:.264583;stroke-linejoin:round"/><path d="M52.569 40.456h58.137v9.539H52.569z" style="fill:#d7eef4;stroke:#000;stroke-width:.264583;stroke-linejoin:round"/><path d="M24.497 99.637c-1.362-2.119-3.31-6.369-3.579-7.807-.41-2.187-.122-6.717.591-9.296 1.589-5.748 4.92-13.212 8.032-17.998 3.781-5.814 6.22-8.447 11.382-12.29l3.023-2.251h75.382l2.834 2.107c5.313 3.95 7.222 5.948 10.744 11.242 3.398 5.107 5.866 10.069 7.72 15.517 1.422 4.177 1.88 6.56 1.885 9.828.006 3.532-.517 5.265-2.807 9.28l-1.598 2.8H25.224z" style="fill:#447821;stroke:#000;stroke-width:.264583;stroke-linejoin:round"/><path d="M72.488 54.827h18.138s2.145 11.258 1.954 16.925c-.242 7.156-3.907 21.215-3.907 21.215L74.44 92.73s-4.577-14.338-4.743-21.692c-.124-5.46 2.79-16.21 2.79-16.21zM43.952 55.304h22.885l-2.384 22.884-34.565-.477s1.084-6.22 2.384-9.058c1.403-3.066 3.456-5.846 5.72-8.343 1.744-1.922 5.96-5.006 5.96-5.006zM119.075 54.686H96.191l2.383 22.885 34.565-.477s-1.084-6.22-2.384-9.059c-1.403-3.066-3.455-5.845-5.72-8.343-1.743-1.921-5.96-5.006-5.96-5.006z" style="fill:#d7eef4;stroke:#000;stroke-width:.264583;stroke-linejoin:round"/></g></svg>