<svg xmlns="http://www.w3.org/2000/svg" width="232.257" height="209.322" viewBox="0 0 61.451 55.383"><defs><path id="e" d="M365.679 371.413h52.877v38.861h-52.877z"/><path id="d" d="M335.737 540.237h66.892v51.603h-66.892z"/><path id="c" d="M246.547 513.479h42.047v47.78h-42.047z"/><marker id="a" markerHeight="1" markerWidth="1" orient="auto-start-reverse" preserveAspectRatio="xMidYMid" refX="0" refY="0" style="overflow:visible" viewBox="0 0 1 1"><path d="M3-3 0 0l3 3" style="fill:none;stroke:context-stroke;stroke-width:1;stroke-linecap:butt" transform="rotate(180 .125 0)"/></marker><marker id="b" markerHeight="1" markerWidth="1" orient="auto-start-reverse" preserveAspectRatio="xMidYMid" refX="0" refY="0" style="overflow:visible" viewBox="0 0 1 1"><path d="M3-3 0 0l3 3" style="fill:none;stroke:context-stroke;stroke-width:1;stroke-linecap:butt" transform="rotate(180 .125 0)"/></marker></defs><g transform="translate(-40.49 -53.806)"><path d="M40.623 53.939h61.187v55.119H40.623z" style="fill:#fff;stroke:#fff;stroke-width:.264583;stroke-linejoin:round"/><circle cx="67.387" cy="76.526" r="19.553" style="fill:#fff;stroke:#4a0;stroke-width:.264583;stroke-linejoin:round"/><circle cx="67.387" cy="76.526" r="11.462" style="fill:#fff;stroke:#4a0;stroke-width:.264583;stroke-linejoin:round"/><path d="m53.939 92.707-7.417 10.114" style="fill:#fff;stroke:navy;stroke-width:.264583;stroke-linejoin:round;marker-start:url(#a)"/><path d="m74.913 86.356 9.748 14.868" style="fill:#fff;stroke:navy;stroke-width:.264583;stroke-linejoin:round;marker-start:url(#b)"/><text xml:space="preserve" style="font-size:16px;line-height:normal;font-family:&quot;Liberation Mono&quot;;-inkscape-font-specification:&quot;Liberation Mono&quot;;text-decoration-color:#000;white-space:pre;shape-inside:url(#c);fill:#000;stroke-width:1;-inkscape-stroke:none;stop-color:#000" transform="translate(19.216 -34.049)scale(.26458)"><tspan x="246.547" y="527.717">Di</tspan></text><text xml:space="preserve" style="font-size:16px;line-height:normal;font-family:&quot;Liberation Mono&quot;;-inkscape-font-specification:&quot;Liberation Mono&quot;;text-decoration-color:#000;white-space:pre;shape-inside:url(#d);fill:#000;stroke-width:1;-inkscape-stroke:none;stop-color:#000" transform="translate(-46.86 -39.948)scale(.26458)"><tspan x="335.736" y="554.473">D1</tspan></text><path d="m91.359 94.73 6.236-5.563" style="fill:#fff;stroke:navy;stroke-width:.264583;stroke-linejoin:round;marker-end:url(#a)"/><text xml:space="preserve" style="font-size:16px;line-height:normal;font-family:&quot;Liberation Mono&quot;;-inkscape-font-specification:&quot;Liberation Mono&quot;;text-decoration-color:#000;white-space:pre;shape-inside:url(#e);fill:#000;stroke-width:1;-inkscape-stroke:none;stop-color:#000" transform="translate(-2.528 -6.068)scale(.26458)"><tspan x="365.68" y="385.649">T1</tspan></text></g></svg>