<svg xmlns="http://www.w3.org/2000/svg" xml:space="preserve" width="269.207" height="190.21" viewBox="0 0 71.228 50.326"><defs><marker id="b" markerHeight="1" markerWidth="1" orient="auto-start-reverse" preserveAspectRatio="xMidYMid" refX="0" refY="0" style="overflow:visible" viewBox="0 0 1 1"><path d="M3-3 0 0l3 3" style="fill:none;stroke:context-stroke;stroke-width:1;stroke-linecap:butt" transform="rotate(180 .125 0)"/></marker><path id="a" d="M116.584 1726.463H382.88v65.618H116.584z"/></defs><path d="M23.261 462.524h70.963v50.062H23.261z" style="fill:#fff;stroke:#fff;stroke-width:.264583;stroke-linejoin:round;stroke-dasharray:none" transform="translate(-23.129 -462.392)"/><path fill="none" stroke="green" stroke-width=".265" d="m43.779 26.395 5.74-4.3-4.439-4.52-4.413 5.652z"/><path fill="none" stroke="green" stroke-width=".265" d="m40.667 23.227 4.413-5.651-5.469-3.2-2.777 6.608z"/><path fill="none" stroke="green" stroke-width=".265" d="m36.834 20.984 2.777-6.608-6.117-1.658-.948 7.104zM32.546 19.822l.948-7.104h-6.338l.948 7.104z"/><path fill="none" stroke="green" stroke-width=".265" d="m28.104 19.822-.948-7.104-6.117 1.658 2.777 6.608zM23.816 20.984l-2.777-6.608-5.469 3.2 4.413 5.651z"/><path fill="none" stroke="green" stroke-width=".265" d="m19.983 23.227-4.413-5.651-4.439 4.518 5.74 4.3zM9.7 44.31h7.168v-3.576H9.7zM43.783 44.31h7.168v-3.576h-7.168zM13.287 40.726h3.58V37.15h-3.58zM43.783 40.726h3.58V37.15h-3.58zM9.7 37.143h7.168v-3.577H9.7zM43.783 37.143h7.168v-3.577h-7.168zM13.287 33.559h3.58v-3.577h-3.58zM43.783 33.559h3.58v-3.577h-3.58zM9.7 29.975h7.168v-3.577H9.7zM43.783 29.975h7.168v-3.577h-7.168zM13.287 47.894h6.272v-3.577h-6.272zM19.566 47.894h7.168v-3.577h-7.168zM26.741 47.894h7.168v-3.577h-7.168zM33.916 47.894h7.169v-3.577h-7.169ZM41.092 47.894h6.271v-3.577h-6.271z"/><text xml:space="preserve" style="font-size:16px;line-height:normal;font-family:&quot;Liberation Mono&quot;;-inkscape-font-specification:&quot;Liberation Mono&quot;;text-decoration-color:#000;white-space:pre;shape-inside:url(#a);fill:#000;stroke-width:1;-inkscape-stroke:none;stop-color:#000" transform="translate(-29.028 -455.481)scale(.26458)"><tspan x="116.584" y="1740.699">spread: [widest, odd, even]</tspan></text><path d="m39.948 469.098 1.18 7.08" style="fill:#000;stroke:#d4aa00;stroke-width:.264583;stroke-linejoin:round;stroke-dasharray:none;marker-end:url(#b)" transform="translate(-23.129 -462.392)"/><path d="m41.044 468.424 5.394 6.827" style="fill:#000;stroke:#d4aa00;stroke-width:.264583;stroke-linejoin:round;stroke-dasharray:none;marker-end:url(#b)" transform="translate(-23.129 -462.392)"/></svg>