<svg xmlns="http://www.w3.org/2000/svg" xml:space="preserve" width="125.866" height="143.385" viewBox="0 0 33.302 37.937"><defs><path id="d" d="M210.871 1667.853H361.22v35.357H210.871z"/><path id="c" d="M446.587 1549.995h34.72v27.076h-34.72z"/><path id="b" d="M416.645 1601.916h44.914v37.906h-44.914z"/><marker id="a" markerHeight="1" markerWidth="1" orient="auto-start-reverse" preserveAspectRatio="xMidYMid" refX="0" refY="0" style="overflow:visible" viewBox="0 0 1 1"><path d="M3-3 0 0l3 3" style="fill:none;stroke:context-stroke;stroke-width:1;stroke-linecap:butt" transform="rotate(180 .125 0)"/></marker></defs><path d="M76.526 401.085h33.037v37.673H76.526z" style="fill:#fff;stroke:#fff;stroke-width:.264582;stroke-linejoin:round;stroke-dasharray:none" transform="translate(-76.393 -400.953)"/><path fill="none" stroke="green" stroke-width=".265" d="m21.463 34.852 2.682-20.045H6.212l2.681 20.045z"/><path d="m102.898 416.181-2.682 20.045" style="fill:#fff;stroke:#a00;stroke-width:.264583;stroke-linejoin:round;stroke-dasharray:none;marker-start:url(#a);marker-end:url(#a)" transform="translate(-76.393 -400.953)"/><path d="M78.454 410.103v7.163M105.32 410.103v7.163" style="fill:#fff;stroke:#b3b3b3;stroke-width:.264583;stroke-linejoin:round;stroke-dasharray:none" transform="translate(-76.393 -400.953)"/><path d="M78.454 410.103h26.866" style="fill:#fff;stroke:#a00;stroke-width:.264583;stroke-linejoin:round;stroke-dasharray:none;marker-start:url(#a);marker-end:url(#a)" transform="translate(-76.393 -400.953)"/><text xml:space="preserve" style="font-size:16px;line-height:normal;font-family:&quot;Liberation Mono&quot;;-inkscape-font-specification:&quot;Liberation Mono&quot;;text-decoration-color:#000;white-space:pre;shape-inside:url(#b);fill:maroon;stroke-width:1;-inkscape-stroke:none;stop-color:#000" transform="translate(-84.231 -400.953)scale(.26458)"><tspan x="416.645" y="1616.152">vL</tspan></text><text xml:space="preserve" style="font-size:16px;line-height:normal;font-family:&quot;Liberation Mono&quot;;-inkscape-font-specification:&quot;Liberation Mono&quot;;text-decoration-color:#000;white-space:pre;shape-inside:url(#c);fill:maroon;stroke-width:1;-inkscape-stroke:none;stop-color:#000" transform="translate(-105.048 -405.504)scale(.26458)"><tspan x="446.588" y="1564.231">vW</tspan></text><text xml:space="preserve" style="font-size:16px;line-height:normal;font-family:&quot;Liberation Mono&quot;;-inkscape-font-specification:&quot;Liberation Mono&quot;;text-decoration-color:#000;white-space:pre;shape-inside:url(#d);fill:#000;stroke-width:1;-inkscape-stroke:none;stop-color:#000" transform="translate(-53.89 -440.311)scale(.26458)"><tspan x="210.871" y="1682.09">(max width)</tspan></text></svg>