<svg xmlns="http://www.w3.org/2000/svg" width="392.014" height="380.302" viewBox="0 0 103.72 100.622"><defs><path id="y" d="M218.515 762.574h58.611v40.773h-58.611z"/><path id="x" d="M441.791 937.208h81.664v34.472h-81.664z"/><path id="w" d="M440.791 880.963h79.51v35.104h-79.51z"/><path id="v" d="M439.666 823.938h72.527v38.702h-72.527z"/><path id="u" d="M435.612 776.173h56.76v22.524h-56.76z"/><path id="b" d="M157.038 338.285h33.446v19.749h-33.446z"/><path id="c" d="M-18.475 278.4h43.321v43.002h-43.321z"/><path id="k" d="M-18.475 278.4h43.321v43.002h-43.321z"/><path id="j" d="M157.038 338.285h33.446v19.749h-33.446z"/><path id="o" d="M-18.475 278.4h43.321v43.002h-43.321z"/><path id="n" d="M157.038 338.285h33.446v19.749h-33.446z"/><path id="s" d="M-18.475 278.4h43.321v43.002h-43.321z"/><path id="r" d="M157.038 338.285h33.446v19.749h-33.446z"/><marker id="d" markerHeight="1" markerWidth="1" orient="auto-start-reverse" preserveAspectRatio="xMidYMid" refX="0" refY="0" style="overflow:visible" viewBox="0 0 1 1"><path d="M3-3 0 0l3 3" style="fill:none;stroke:context-stroke;stroke-width:1;stroke-linecap:butt" transform="rotate(180 .125 0)"/></marker><marker id="e" markerHeight="1" markerWidth="1" orient="auto-start-reverse" preserveAspectRatio="xMidYMid" refX="0" refY="0" style="overflow:visible" viewBox="0 0 1 1"><path d="M3-3 0 0l3 3" style="fill:none;stroke:context-stroke;stroke-width:1;stroke-linecap:butt" transform="rotate(180 .125 0)"/></marker><marker id="f" markerHeight="1" markerWidth="1" orient="auto-start-reverse" preserveAspectRatio="xMidYMid" refX="0" refY="0" style="overflow:visible" viewBox="0 0 1 1"><path d="M3-3 0 0l3 3" style="fill:none;stroke:context-stroke;stroke-width:1;stroke-linecap:butt" transform="rotate(180 .125 0)"/></marker><marker id="g" markerHeight="1" markerWidth="1" orient="auto-start-reverse" preserveAspectRatio="xMidYMid" refX="0" refY="0" style="overflow:visible" viewBox="0 0 1 1"><path d="M3-3 0 0l3 3" style="fill:none;stroke:context-stroke;stroke-width:1;stroke-linecap:butt" transform="rotate(180 .125 0)"/></marker><marker id="h" markerHeight="1" markerWidth="1" orient="auto-start-reverse" preserveAspectRatio="xMidYMid" refX="0" refY="0" style="overflow:visible" viewBox="0 0 1 1"><path d="M3-3 0 0l3 3" style="fill:none;stroke:context-stroke;stroke-width:1;stroke-linecap:butt" transform="rotate(180 .125 0)"/></marker><marker id="a" markerHeight="1" markerWidth="1" orient="auto-start-reverse" preserveAspectRatio="xMidYMid" refX="0" refY="0" style="overflow:visible" viewBox="0 0 1 1"><path d="M3-3 0 0l3 3" style="fill:none;stroke:context-stroke;stroke-width:1;stroke-linecap:butt" transform="rotate(180 .125 0)"/></marker><marker id="i" markerHeight="1" markerWidth="1" orient="auto-start-reverse" preserveAspectRatio="xMidYMid" refX="0" refY="0" style="overflow:visible" viewBox="0 0 1 1"><path d="M3-3 0 0l3 3" style="fill:none;stroke:context-stroke;stroke-width:1;stroke-linecap:butt" transform="rotate(180 .125 0)"/></marker><marker id="l" markerHeight="1" markerWidth="1" orient="auto-start-reverse" preserveAspectRatio="xMidYMid" refX="0" refY="0" style="overflow:visible" viewBox="0 0 1 1"><path d="M3-3 0 0l3 3" style="fill:none;stroke:context-stroke;stroke-width:1;stroke-linecap:butt" transform="rotate(180 .125 0)"/></marker><marker id="m" markerHeight="1" markerWidth="1" orient="auto-start-reverse" preserveAspectRatio="xMidYMid" refX="0" refY="0" style="overflow:visible" viewBox="0 0 1 1"><path d="M3-3 0 0l3 3" style="fill:none;stroke:context-stroke;stroke-width:1;stroke-linecap:butt" transform="rotate(180 .125 0)"/></marker><marker id="p" markerHeight="1" markerWidth="1" orient="auto-start-reverse" preserveAspectRatio="xMidYMid" refX="0" refY="0" style="overflow:visible" viewBox="0 0 1 1"><path d="M3-3 0 0l3 3" style="fill:none;stroke:context-stroke;stroke-width:1;stroke-linecap:butt" transform="rotate(180 .125 0)"/></marker><marker id="q" markerHeight="1" markerWidth="1" orient="auto-start-reverse" preserveAspectRatio="xMidYMid" refX="0" refY="0" style="overflow:visible" viewBox="0 0 1 1"><path d="M3-3 0 0l3 3" style="fill:none;stroke:context-stroke;stroke-width:1;stroke-linecap:butt" transform="rotate(180 .125 0)"/></marker><marker id="t" markerHeight="1" markerWidth="1" orient="auto-start-reverse" preserveAspectRatio="xMidYMid" refX="0" refY="0" style="overflow:visible" viewBox="0 0 1 1"><path d="M3-3 0 0l3 3" style="fill:none;stroke:context-stroke;stroke-width:1;stroke-linecap:butt" transform="rotate(180 .125 0)"/></marker></defs><g transform="translate(-6.066 -151.714)"><path d="M6.198 151.847h103.456v100.357H6.198z" style="fill:#fff;stroke:#fff;stroke-width:.264583;stroke-linejoin:round"/><circle cx="34.19" cy="230.019" r="17.109" style="fill:none;stroke:#e6e6e6;stroke-width:.264583;stroke-linejoin:round"/><circle cx="25.194" cy="230.019" r="17.109" style="fill:none;stroke:#e6e6e6;stroke-width:.264583;stroke-linejoin:round"/><circle cx="29.559" cy="221.1" r="7.008" style="fill:none;stroke:#ccc;stroke-width:.264583;stroke-linejoin:round"/><path d="M43.017 165.13v18.756" style="fill:#ccc;stroke:green;stroke-width:.264583;stroke-linejoin:round;marker-start:url(#a);marker-end:url(#a)"/><text xml:space="preserve" style="font-size:16px;line-height:normal;font-family:&quot;Liberation Mono&quot;;-inkscape-font-specification:&quot;Liberation Mono&quot;;text-decoration-color:#000;white-space:pre;shape-inside:url(#b);display:inline;fill:green;stroke-width:1;-inkscape-stroke:none;stop-color:#000" transform="translate(-13.452 96.461)scale(.26458)"><tspan x="157.039" y="352.522">W1</tspan></text><text xml:space="preserve" style="font-size:16px;line-height:normal;font-family:&quot;Liberation Mono&quot;;-inkscape-font-specification:&quot;Liberation Mono&quot;;text-decoration-color:#000;white-space:pre;shape-inside:url(#c);display:inline;fill:green;stroke-width:1;-inkscape-stroke:none;stop-color:#000" transform="translate(48.458 98.819)scale(.26458)"><tspan x="-18.475" y="292.637">H1</tspan></text><path d="M18.483 183.94v-18.743s2.106-1.31 3.241-1.799a22.7 22.7 0 0 1 4.46-1.413 18.3 18.3 0 0 1 3.63-.34c1.213 0 2.432.114 3.624.339 1.187.224 2.367.536 3.482.999 1.403.582 3.98 2.214 3.98 2.214v18.743z" style="fill:none;stroke:#00f;stroke-width:.264583;stroke-linejoin:round"/><circle cx="90.094" cy="172.772" r="17.109" style="fill:none;stroke:#b3b3b3;stroke-width:.264583;stroke-linejoin:round"/><circle cx="29.814" cy="181.535" r="19.806" style="fill:none;stroke:#b3b3b3;stroke-width:.264583;stroke-linejoin:round"/><circle cx="81.099" cy="172.772" r="17.109" style="fill:none;stroke:#b3b3b3;stroke-width:.264583;stroke-linejoin:round"/><path d="M85.372 156.254s-2.205.806-3.229 1.37a19.4 19.4 0 0 0-3.425 2.37 16.4 16.4 0 0 0-2.42 2.661c-.788 1.078-2.003 3.47-2.003 3.47M85.636 156.254s2.204.806 3.228 1.37c1.217.67 2.381 1.456 3.426 2.37.902.79 1.713 1.693 2.42 2.661.787 1.078 2.003 3.47 2.003 3.47" style="fill:none;stroke:#00f;stroke-width:.264583;stroke-linejoin:round"/><path d="M96.713 166.124v18.743H74.295v-18.743M26.331 214.933a19.4 19.4 0 0 0-3.425 2.371 16.4 16.4 0 0 0-2.42 2.66c-.788 1.08-2.004 3.47-2.004 3.47M33.052 214.933q.426.236.842.489a18.7 18.7 0 0 1 2.584 1.882c.902.79 1.712 1.693 2.42 2.66.787 1.08 2.003 3.47 2.003 3.47M40.9 223.434v18.743H18.483v-18.743M26.331 214.933s1.247-.562 1.909-.715c.43-.1.877-.128 1.32-.125.492.003.989.05 1.47.156.695.152 2.022.684 2.022.684" style="fill:none;stroke:#00f;stroke-width:.264583;stroke-linejoin:round"/><path d="m26.331 214.933 3.228 6.167 3.493-6.167" style="fill:none;stroke:#fff6d5;stroke-width:.264583;stroke-linejoin:round"/><path d="M96.713 223.434v18.743H74.295v-18.743" style="fill:none;stroke:#00f;stroke-width:.264583;stroke-linejoin:round"/><path d="m40.9 165.197-5.978-4.53" style="fill:none;stroke:#aad400;stroke-width:.264583;stroke-linejoin:round;marker-end:url(#d)"/><path d="m74.295 166.124 4.548-8.556" style="fill:none;stroke:#d45500;stroke-width:.264583;stroke-linejoin:round;marker-end:url(#d)"/><path d="m18.482 223.434 4.55-8.556" style="fill:none;stroke:#d45500;stroke-width:.264583;stroke-linejoin:round;marker-end:url(#e)"/><path d="m74.295 223.434 2.779-7.124" style="fill:none;stroke:#d45500;stroke-width:.264583;stroke-linejoin:round;marker-end:url(#f)"/><path d="m85.504 212.636-7.583 1.915" style="fill:none;stroke:#d45500;stroke-width:.264583;stroke-linejoin:round;marker-end:url(#g)"/><path d="M74.295 223.434s1.228-2.64 1.978-3.887c.655-1.088 1.317-2.196 2.191-3.118.688-.726 1.515-1.319 2.36-1.854.637-.404 1.328-.718 2.022-1.011.865-.365 2.658-.928 2.658-.928M96.713 223.434s-1.229-2.64-1.978-3.887c-.655-1.088-1.317-2.196-2.191-3.118-.688-.726-1.515-1.319-2.36-1.854-.637-.404-1.328-.718-2.023-1.011-.864-.365-2.657-.928-2.657-.928" style="fill:none;stroke:#00f;stroke-width:.264583;stroke-linejoin:round"/><path d="M18.47 186.057H40.9" style="fill:none;stroke:green;stroke-width:.264583;stroke-linejoin:round;marker-start:url(#h);marker-end:url(#h)"/><path d="M98.843 166.058v18.755" style="fill:#ccc;stroke:green;stroke-width:.264583;stroke-linejoin:round;marker-start:url(#i);marker-end:url(#i)"/><text xml:space="preserve" style="font-size:16px;line-height:normal;font-family:&quot;Liberation Mono&quot;;-inkscape-font-specification:&quot;Liberation Mono&quot;;text-decoration-color:#000;white-space:pre;shape-inside:url(#j);display:inline;fill:green;stroke-width:1;-inkscape-stroke:none;stop-color:#000" transform="translate(42.373 97.388)scale(.26458)"><tspan x="157.039" y="352.522">W1</tspan></text><text xml:space="preserve" style="font-size:16px;line-height:normal;font-family:&quot;Liberation Mono&quot;;-inkscape-font-specification:&quot;Liberation Mono&quot;;text-decoration-color:#000;white-space:pre;shape-inside:url(#k);display:inline;fill:green;stroke-width:1;-inkscape-stroke:none;stop-color:#000" transform="translate(104.283 99.746)scale(.26458)"><tspan x="-18.475" y="292.637">H1</tspan></text><path d="M74.295 186.984h22.431" style="fill:none;stroke:green;stroke-width:.264583;stroke-linejoin:round;marker-start:url(#l);marker-end:url(#l)"/><path d="M43.03 223.368v18.755" style="fill:#ccc;stroke:green;stroke-width:.264583;stroke-linejoin:round;marker-start:url(#m);marker-end:url(#m)"/><text xml:space="preserve" style="font-size:16px;line-height:normal;font-family:&quot;Liberation Mono&quot;;-inkscape-font-specification:&quot;Liberation Mono&quot;;text-decoration-color:#000;white-space:pre;shape-inside:url(#n);display:inline;fill:green;stroke-width:1;-inkscape-stroke:none;stop-color:#000" transform="translate(-13.44 154.698)scale(.26458)"><tspan x="157.039" y="352.522">W1</tspan></text><text xml:space="preserve" style="font-size:16px;line-height:normal;font-family:&quot;Liberation Mono&quot;;-inkscape-font-specification:&quot;Liberation Mono&quot;;text-decoration-color:#000;white-space:pre;shape-inside:url(#o);display:inline;fill:green;stroke-width:1;-inkscape-stroke:none;stop-color:#000" transform="translate(48.47 157.056)scale(.26458)"><tspan x="-18.475" y="292.637">H1</tspan></text><path d="M18.482 244.294h22.432" style="fill:none;stroke:green;stroke-width:.264583;stroke-linejoin:round;marker-start:url(#p);marker-end:url(#p)"/><path d="M98.843 223.368v18.755" style="fill:#ccc;stroke:green;stroke-width:.264583;stroke-linejoin:round;marker-start:url(#q);marker-end:url(#q)"/><text xml:space="preserve" style="font-size:16px;line-height:normal;font-family:&quot;Liberation Mono&quot;;-inkscape-font-specification:&quot;Liberation Mono&quot;;text-decoration-color:#000;white-space:pre;shape-inside:url(#r);display:inline;fill:green;stroke-width:1;-inkscape-stroke:none;stop-color:#000" transform="translate(42.373 154.698)scale(.26458)"><tspan x="157.039" y="352.522">W1</tspan></text><text xml:space="preserve" style="font-size:16px;line-height:normal;font-family:&quot;Liberation Mono&quot;;-inkscape-font-specification:&quot;Liberation Mono&quot;;text-decoration-color:#000;white-space:pre;shape-inside:url(#s);display:inline;fill:green;stroke-width:1;-inkscape-stroke:none;stop-color:#000" transform="translate(104.283 157.055)scale(.26458)"><tspan x="-18.475" y="292.637">H1</tspan></text><path d="M74.295 244.294h22.431" style="fill:none;stroke:green;stroke-width:.264583;stroke-linejoin:round;marker-start:url(#t);marker-end:url(#t)"/><text xml:space="preserve" style="font-size:16px;line-height:normal;font-family:&quot;Liberation Mono&quot;;-inkscape-font-specification:&quot;Liberation Mono&quot;;text-decoration-color:#000;white-space:pre;shape-inside:url(#u);display:inline;fill:#000;stroke-width:1;-inkscape-stroke:none;stop-color:#000" transform="translate(-92.61 -29.797)scale(.26458)"><tspan x="435.611" y="790.408">1-arc</tspan></text><text xml:space="preserve" style="font-size:16px;line-height:normal;font-family:&quot;Liberation Mono&quot;;-inkscape-font-specification:&quot;Liberation Mono&quot;;text-decoration-color:#000;white-space:pre;shape-inside:url(#v);display:inline;fill:#000;stroke-width:1;-inkscape-stroke:none;stop-color:#000" transform="translate(-37.664 -42.55)scale(.26458)"><tspan x="439.666" y="838.174">2-arcs</tspan></text><text xml:space="preserve" style="font-size:16px;line-height:normal;font-family:&quot;Liberation Mono&quot;;-inkscape-font-specification:&quot;Liberation Mono&quot;;text-decoration-color:#000;white-space:pre;shape-inside:url(#w);display:inline;fill:#000;stroke-width:1;-inkscape-stroke:none;stop-color:#000" transform="translate(-93.802 .954)scale(.26458)"><tspan x="440.791" y="895.199">3-arcs</tspan></text><text xml:space="preserve" style="font-size:16px;line-height:normal;font-family:&quot;Liberation Mono&quot;;-inkscape-font-specification:&quot;Liberation Mono&quot;;text-decoration-color:#000;white-space:pre;shape-inside:url(#x);display:inline;fill:#000;stroke-width:1;-inkscape-stroke:none;stop-color:#000" transform="translate(-38.498 -14.064)scale(.26458)"><tspan x="441.791" y="951.443">4-arcs</tspan></text><path d="m53.096 202.27 7.08-6.574" style="fill:purple;stroke:#000;stroke-width:.264583;stroke-linejoin:round;stroke-dasharray:none;marker-end:url(#d)"/><text xml:space="preserve" style="font-size:16px;line-height:normal;font-family:&quot;Liberation Mono&quot;;-inkscape-font-specification:&quot;Liberation Mono&quot;;text-decoration-color:#000;white-space:pre;shape-inside:url(#y);fill:#000;stroke-width:1;-inkscape-stroke:none;stop-color:#000" transform="translate(-1.011 -2.191)scale(.26458)"><tspan x="218.516" y="776.811">T1</tspan></text></g></svg>