<svg xmlns="http://www.w3.org/2000/svg" width="288.098" height="276.149" viewBox="0 0 76.226 73.064"><defs><path id="j" d="M438.305 272.029h58.611v49.054h-58.611z"/><path id="i" d="M377.146 430.023h47.462v22.616h-47.462z"/><path id="h" d="M366.179 389.251h39.636v27.076h-39.636z"/><path id="g" d="M32.885 95.952h44.147v32.434H32.885z"/><path id="f" d="M-57.655 234.761h50.01v44.276h-50.01z"/><path id="d" d="M-75.811 210.552h36.95v30.261h-36.95z"/><path id="c" d="M-18.475 278.4h43.321v43.002h-43.321z"/><path id="b" d="M157.038 338.285h33.446v19.749h-33.446z"/><marker id="a" markerHeight="1" markerWidth="1" orient="auto-start-reverse" preserveAspectRatio="xMidYMid" refX="0" refY="0" style="overflow:visible" viewBox="0 0 1 1"><path d="M3-3 0 0l3 3" style="fill:none;stroke:context-stroke;stroke-width:1;stroke-linecap:butt" transform="rotate(180 .125 0)"/></marker><marker id="e" markerHeight="1" markerWidth="1" orient="auto-start-reverse" preserveAspectRatio="xMidYMid" refX="0" refY="0" style="overflow:visible" viewBox="0 0 1 1"><path d="M3-3 0 0l3 3" style="fill:none;stroke:context-stroke;stroke-width:1;stroke-linecap:butt" transform="rotate(180 .125 0)"/></marker></defs><g transform="translate(-9.813 -37.456)"><path d="M9.945 37.589h75.961v72.8H9.945z" style="fill:#fff;stroke:#fff;stroke-width:.264583;stroke-linejoin:round"/><path d="M33.494 42.6h10.583v5.292H33.494z" style="fill:#f2f2f2;stroke:#e6e6e6;stroke-width:.264583;stroke-linejoin:round"/><path d="M28.203 47.891h10.583v5.292H28.203zM28.203 53.183h10.583v5.292H28.203zM33.494 63.766h5.292v5.292h-5.292z" style="fill:#f2f2f2;stroke:#e6e6e6;stroke-width:.264583;stroke-linejoin:round"/><path d="M28.203 58.475h10.583v5.292H28.203zM28.203 69.058h10.583v5.292H28.203zM28.203 79.641h10.583v5.292H28.203z" style="fill:#f2f2f2;stroke:#e6e6e6;stroke-width:.264583;stroke-linejoin:round"/><path d="M33.494 74.35h5.292v5.292h-5.292z" style="fill:#f2f2f2;stroke:#e6e6e6;stroke-width:.264583;stroke-linejoin:round"/><path d="M54.378 54.255h22.67" style="fill:#ccc;stroke:#ccc;stroke-width:.264583;stroke-linejoin:round"/><path d="M38.786 59.144h30.846v25.789H38.786z" style="fill:#fff;stroke:#ccc;stroke-width:.264583;stroke-linejoin:round"/><circle cx="54.378" cy="81.14" r="26.885" style="fill:none;stroke:#ccc;stroke-width:.264583;stroke-linejoin:round"/><path d="M38.786 87.05h30.846" style="fill:none;stroke:green;stroke-width:.264583;stroke-linejoin:round;marker-start:url(#a);marker-end:url(#a)"/><path d="M68.929 59.144h8.12" style="fill:#ccc;stroke:#ccc;stroke-width:.264583;stroke-linejoin:round"/><path d="M54.378 81.14 30.555 68.678" style="fill:#ccc;stroke:#d4aa00;stroke-width:.264583;stroke-linejoin:round;marker-start:url(#a);marker-end:url(#a)"/><path d="M54.378 73.892 27.36 48.272M54.378 73.892 34.066 44.985M54.378 73.892 40.869 42.625M54.378 73.892l-6.755-33.037" style="fill:#ccc;stroke:#ccc;stroke-width:.264583;stroke-linejoin:round"/><path d="M28.203 63.766h10.583v-4.622l-.622-.67h-9.961Z" style="fill:#f2f2f2;stroke:#ffb380;stroke-width:.264583;stroke-linejoin:round"/><path d="M38.786 84.933v-25.79s2.899-1.802 4.46-2.475a31.3 31.3 0 0 1 6.136-1.944c1.64-.333 3.323-.468 4.996-.469 1.669 0 3.345.158 4.986.467 1.633.308 3.257.737 4.791 1.374 1.93.801 5.477 3.048 5.477 3.048v25.789z" style="fill:none;stroke:#00f;stroke-width:.264583;stroke-linejoin:round"/><path d="M28.203 58.475h9.961l-5.645-5.311-4.316.019z" style="fill:#f2f2f2;stroke:#ffb380;stroke-width:.264583;stroke-linejoin:round"/><path d="M72.343 59.522v25.454" style="fill:#ccc;stroke:green;stroke-width:.264583;stroke-linejoin:round;marker-start:url(#a);marker-end:url(#a)"/><path d="M54.378 81.14v-7.248" style="fill:#f60;stroke:#f60;stroke-width:.264583;stroke-linejoin:round;marker-start:url(#a);marker-end:url(#a)"/><text xml:space="preserve" style="font-size:16px;line-height:normal;font-family:&quot;Liberation Mono&quot;;-inkscape-font-specification:&quot;Liberation Mono&quot;;text-decoration-color:#000;white-space:pre;shape-inside:url(#b);display:inline;fill:green;stroke-width:1;-inkscape-stroke:none;stop-color:#000" transform="translate(11.311 -2.38)scale(.26458)"><tspan x="157.039" y="352.522">W1</tspan></text><text xml:space="preserve" style="font-size:16px;line-height:normal;font-family:&quot;Liberation Mono&quot;;-inkscape-font-specification:&quot;Liberation Mono&quot;;text-decoration-color:#000;white-space:pre;shape-inside:url(#c);display:inline;fill:green;stroke-width:1;-inkscape-stroke:none;stop-color:#000" transform="translate(78.06 -4.14)scale(.26458)"><tspan x="-18.475" y="292.637">H1</tspan></text><text xml:space="preserve" style="font-size:16px;line-height:normal;font-family:&quot;Liberation Mono&quot;;-inkscape-font-specification:&quot;Liberation Mono&quot;;text-decoration-color:#000;white-space:pre;shape-inside:url(#d);display:inline;fill:green;stroke-width:1;-inkscape-stroke:none;stop-color:#000" transform="translate(93.899 -1.369)scale(.26458)"><tspan x="-75.811" y="224.789">H2p</tspan></text><path d="M72.324 54.255v4.889" style="fill:#ccc;stroke:green;stroke-width:.264583;stroke-linejoin:round;marker-start:url(#e);marker-end:url(#e)"/><text xml:space="preserve" style="font-size:16px;line-height:normal;font-family:&quot;Liberation Mono&quot;;-inkscape-font-specification:&quot;Liberation Mono&quot;;text-decoration-color:#000;white-space:pre;shape-inside:url(#f);display:inline;fill:#f60;stroke-width:1;-inkscape-stroke:none;stop-color:#000" transform="translate(70.644 12.706)scale(.26458)"><tspan x="-57.654" y="248.998">Hc</tspan></text><path d="m31.387 54.415 6.992-7.931" style="fill:#f60;stroke:#aade87;stroke-width:.264583;stroke-linejoin:round"/><path d="m32.52 53.164 6.266 5.98 3.68-2.202-5.905-8.409z" style="fill:#f2f2f2;stroke:#f60;stroke-width:.264583;stroke-linejoin:round"/><path d="M28.203 42.6h5.292v5.292h-5.292z" style="fill:#f2f2f2;stroke:#e6e6e6;stroke-width:.264583;stroke-linejoin:round"/><path d="M33.494 42.6v5.291h3.693l6.943-2.778-.052-2.513z" style="fill:none;stroke:#ffe680;stroke-width:.264583;stroke-linejoin:round"/><path d="m42.312 45.858-5.155 2.086-.506.625 5.84 8.403 3.993-1.52z" style="fill:none;stroke:#d4aa00;stroke-width:.264583;stroke-linejoin:round"/><text xml:space="preserve" style="font-size:16px;line-height:normal;font-family:&quot;Liberation Mono&quot;;-inkscape-font-specification:&quot;Liberation Mono&quot;;text-decoration-color:#000;white-space:pre;shape-inside:url(#g);display:inline;fill:#d4aa00;stroke-width:1;-inkscape-stroke:none;stop-color:#000" transform="translate(16.329 39.452)scale(.26458)"><tspan x="32.885" y="110.188">R1</tspan></text><path d="M26.615 79.641v5.292" style="fill:#fff;stroke:purple;stroke-width:.264583;stroke-linejoin:round;marker-start:url(#a);marker-end:url(#a)"/><path d="M28.203 87.05h10.583" style="fill:#fff;stroke:purple;stroke-width:.264583;stroke-linejoin:round;marker-start:url(#a);marker-end:url(#a)"/><text xml:space="preserve" style="font-size:16px;line-height:normal;font-family:&quot;Liberation Mono&quot;;-inkscape-font-specification:&quot;Liberation Mono&quot;;text-decoration-color:#000;white-space:pre;shape-inside:url(#h);display:inline;fill:purple;stroke-width:1;-inkscape-stroke:none;stop-color:#000" transform="translate(-76.357 -22.755)scale(.26458)"><tspan x="366.18" y="403.486">bH</tspan></text><text xml:space="preserve" style="font-size:16px;line-height:normal;font-family:&quot;Liberation Mono&quot;;-inkscape-font-specification:&quot;Liberation Mono&quot;;text-decoration-color:#000;white-space:pre;shape-inside:url(#i);display:inline;fill:purple;stroke-width:1;-inkscape-stroke:none;stop-color:#000" transform="translate(-69.193 -26.632)scale(.26458)"><tspan x="377.146" y="444.26">bW</tspan></text><path d="M14.193 53.755h8.091l4.72 4.72h3.712" style="fill:none;stroke:#d45500;stroke-width:.264583;stroke-linejoin:round"/><path d="M14.193 63.194h8.091l4.72-4.72h2.654" style="fill:none;stroke:#d45500;stroke-width:.264583;stroke-linejoin:round"/><path d="M17.368 54.239v8.64" style="fill:none;stroke:red;stroke-width:.264583;stroke-linejoin:round;stroke-dasharray:none;marker-start:url(#a);marker-end:url(#a)"/><text xml:space="preserve" style="font-size:16px;line-height:normal;font-family:&quot;Liberation Mono&quot;;-inkscape-font-specification:&quot;Liberation Mono&quot;;text-decoration-color:#000;white-space:pre;shape-inside:url(#j);display:inline;fill:red;stroke-width:1;-inkscape-stroke:none;stop-color:#000" transform="translate(-104.5 -16.197)scale(.26458)"><tspan x="438.305" y="286.266">jW</tspan></text></g></svg>