<svg xmlns="http://www.w3.org/2000/svg" width="269.935" height="210.922" viewBox="0 0 71.42 55.807"><defs><path id="i" d="M343.714 1077.092h72.076v26.128h-72.076z"/><path id="h" d="M317.676 991.05h76.041v32.62h-76.041z"/><path id="g" d="M113.971 1182.676h111.367v48.028H113.971z"/><path id="d" d="M134.017 959.967h119.602v41.894H134.017z"/><path id="b" d="M170.956 480.659h39.192v24.101h-39.192z"/><marker id="c" markerHeight="1" markerWidth="1" orient="auto-start-reverse" preserveAspectRatio="xMidYMid" refX="0" refY="0" style="overflow:visible" viewBox="0 0 1 1"><path d="M3-3 0 0l3 3" style="fill:none;stroke:context-stroke;stroke-width:1;stroke-linecap:butt" transform="rotate(180 .125 0)"/></marker><marker id="a" markerHeight="1" markerWidth="1" orient="auto-start-reverse" preserveAspectRatio="xMidYMid" refX="0" refY="0" style="overflow:visible" viewBox="0 0 1 1"><path d="M3-3 0 0l3 3" style="fill:none;stroke:context-stroke;stroke-width:1;stroke-linecap:butt" transform="rotate(180 .125 0)"/></marker><marker id="e" markerHeight="1" markerWidth="1" orient="auto-start-reverse" preserveAspectRatio="xMidYMid" refX="0" refY="0" style="overflow:visible" viewBox="0 0 1 1"><path d="M3-3 0 0l3 3" style="fill:none;stroke:context-stroke;stroke-width:1;stroke-linecap:butt" transform="rotate(180 .125 0)"/></marker><marker id="f" markerHeight="1" markerWidth="1" orient="auto-start-reverse" preserveAspectRatio="xMidYMid" refX="0" refY="0" style="overflow:visible" viewBox="0 0 1 1"><path d="M3-3 0 0l3 3" style="fill:none;stroke:context-stroke;stroke-width:1;stroke-linecap:butt" transform="rotate(180 .125 0)"/></marker></defs><g transform="translate(-30.26 -260.295)"><path d="M30.393 260.428h71.156v55.542H30.393z" style="fill:#fff;stroke:#fff;stroke-width:.264583;stroke-linejoin:round;stroke-dasharray:none"/><circle cx="59.621" cy="288.203" r="11.836" style="fill:none;stroke:#e6e6e6;stroke-width:.264584;stroke-linejoin:round"/><circle cx="59.621" cy="288.485" r="24.299" style="fill:none;stroke:#e6e6e6;stroke-width:.264584;stroke-linejoin:round"/><path d="M35.46 288.203h12.325s.433-3.657 1.24-5.272c.813-1.63 2.08-3.055 3.499-4.2.988-.797 2.171-1.363 3.376-1.763 1.192-.396 3.72-.6 3.72-.6v-12.182s-4.205.238-6.214.809c-2.575.732-5.114 1.79-7.318 3.309-2.543 1.753-4.769 4.024-6.57 6.533-1.308 1.82-2.304 3.89-2.97 6.03-.737 2.36-1.088 7.336-1.088 7.336z" style="fill:none;stroke:#d4aa00;stroke-width:.264584;stroke-linejoin:round"/><circle cx="59.621" cy="289.008" r="16.682" style="fill:none;stroke:#00f;stroke-width:.264584;stroke-linejoin:round"/><path d="M61.208 264.329v11.641" style="fill:#d5d5ff;stroke:#536c53;stroke-width:.264583;stroke-linejoin:round;marker-start:url(#a);marker-end:url(#a)"/><text xml:space="preserve" style="font-size:16px;line-height:normal;font-family:&quot;Liberation Mono&quot;;-inkscape-font-specification:&quot;Liberation Mono&quot;;text-decoration-color:#000;white-space:pre;shape-inside:url(#b);display:inline;fill:#000;stroke-width:1;-inkscape-stroke:none;stop-color:#000" transform="translate(16.451 139.905)scale(.26458)"><tspan x="170.957" y="494.897">T1</tspan></text><path d="M59.62 276.368v11.835M47.785 288.203h11.836" style="fill:none;stroke:#dde9af;stroke-width:.264583;stroke-linejoin:round"/><path d="M59.416 285.338s-1.217.351-1.55.834c-.352.512-.238 1.848-.238 1.848" style="fill:none;stroke:#89a02c;stroke-width:.264583;stroke-linejoin:round;marker-end:url(#c)"/><text xml:space="preserve" style="font-size:16px;line-height:normal;font-family:&quot;Liberation Mono&quot;;-inkscape-font-specification:&quot;Liberation Mono&quot;;text-decoration-color:#000;white-space:pre;shape-inside:url(#d);fill:#668000;stroke-width:1;-inkscape-stroke:none;stop-color:#000" transform="translate(16.515 34.922)scale(.26458)"><tspan x="134.018" y="974.203">Jangle</tspan></text><path d="M47.486 307.405h-11.64" style="fill:#d5d5ff;stroke:#536c53;stroke-width:.264583;stroke-linejoin:round;marker-start:url(#e);marker-end:url(#e)"/><path d="M47.59 305.378h-4.133" style="fill:#d5d5ff;stroke:#536c53;stroke-width:.264583;stroke-linejoin:round;marker-start:url(#f);marker-end:url(#f)"/><path d="M35.46 288.377v19.387M42.999 288.377v19.387M47.785 288.203v19.56" style="fill:#668000;stroke:purple;stroke-width:.264583;stroke-linejoin:round"/><text xml:space="preserve" style="font-size:16px;line-height:normal;font-family:&quot;Liberation Mono&quot;;-inkscape-font-specification:&quot;Liberation Mono&quot;;text-decoration-color:#000;white-space:pre;shape-inside:url(#g);fill:purple;stroke-width:1;-inkscape-stroke:none;stop-color:#000" transform="translate(2.625 -4.905)scale(.26458)"><tspan x="113.971" y="1196.912">Jneutral</tspan></text><text xml:space="preserve" style="font-size:16px;line-height:normal;font-family:&quot;Liberation Mono&quot;;-inkscape-font-specification:&quot;Liberation Mono&quot;;text-decoration-color:#000;white-space:pre;shape-inside:url(#h);fill:#00f;stroke-width:1;-inkscape-stroke:none;stop-color:#000" transform="translate(-7.509 43.785)scale(.26458)"><tspan x="317.676" y="1005.287">Jradius</tspan></text><path d="m71.275 302.62 5.244 5.483" style="fill:#00f;stroke:#00f;stroke-width:.264583;stroke-linejoin:round;stroke-dasharray:none;marker-start:url(#c)"/><text xml:space="preserve" style="font-size:16px;line-height:normal;font-family:&quot;Liberation Mono&quot;;-inkscape-font-specification:&quot;Liberation Mono&quot;;text-decoration-color:#000;white-space:pre;shape-inside:url(#i);fill:#4d4d4d;stroke-width:1;-inkscape-stroke:none;stop-color:#000" transform="translate(-7.628 -20.024)scale(.26458)"><tspan x="343.715" y="1091.328">Jmark</tspan></text></g></svg>