<svg xmlns="http://www.w3.org/2000/svg" width="506.665" height="744.955" viewBox="0 0 134.055 197.103"><defs><path id="y" d="M247.184 2018.879h77.086v47.78h-77.086z"/><path id="l" d="M267.57 1520.052h49.692v33.765H267.57z"/><path id="j" d="M306.113 1539.483h34.083v25.215h-34.083z"/><path id="b" d="M279.356 528.132h43.801v30.579h-43.801z"/><path id="h" d="M279.356 528.132h43.801v30.579h-43.801z"/><path id="d" d="M306.113 1539.483h34.083v25.215h-34.083z"/><path id="c" d="M306.113 1539.483h34.083v25.215h-34.083z"/><path id="o" d="M345.967 233.798h63.517v28.38h-63.517z"/><path id="q" d="M345.967 233.798h63.517v28.38h-63.517z"/><path id="r" d="M345.967 233.798h63.517v28.38h-63.517z"/><path id="s" d="M345.967 233.798h63.517v28.38h-63.517z"/><path id="v" d="M170.956 480.659h39.192v24.101h-39.192z"/><path id="x" d="M306.113 1539.483h55.744v25.859h-55.744z"/><path id="z" d="M247.184 2018.879h77.086v47.78h-77.086z"/><path id="A" d="M247.184 2018.879h77.086v47.78h-77.086z"/><path id="B" d="M247.184 2018.879h77.086v47.78h-77.086z"/><path id="C" d="M345.967 233.798h63.517v28.38h-63.517z"/><path id="D" d="M345.967 233.798h63.517v28.38h-63.517z"/><path id="E" d="M345.967 233.798h63.517v28.38h-63.517z"/><path id="F" d="M345.967 233.798h63.517v28.38h-63.517z"/><path id="G" d="M345.967 233.798h63.517v28.38h-63.517z"/><path id="H" d="M345.967 233.798h63.517v28.38h-63.517z"/><path id="I" d="M345.967 233.798h63.517v28.38h-63.517z"/><path id="J" d="M345.967 233.798h63.517v28.38h-63.517z"/><path id="K" d="M345.967 233.798h63.517v28.38h-63.517z"/><path id="L" d="M345.967 233.798h63.517v28.38h-63.517z"/><path id="M" d="M345.967 233.798h63.517v28.38h-63.517z"/><path id="N" d="M345.967 233.798h63.517v28.38h-63.517z"/><marker id="k" markerHeight="1" markerWidth="1" orient="auto-start-reverse" preserveAspectRatio="xMidYMid" refX="0" refY="0" style="overflow:visible" viewBox="0 0 1 1"><path d="M3-3 0 0l3 3" style="fill:none;stroke:context-stroke;stroke-width:1;stroke-linecap:butt" transform="rotate(180 .125 0)"/></marker><marker id="a" markerHeight="1" markerWidth="1" orient="auto-start-reverse" preserveAspectRatio="xMidYMid" refX="0" refY="0" style="overflow:visible" viewBox="0 0 1 1"><path d="M3-3 0 0l3 3" style="fill:none;stroke:context-stroke;stroke-width:1;stroke-linecap:butt" transform="rotate(180 .125 0)"/></marker><marker id="g" markerHeight="1" markerWidth="1" orient="auto-start-reverse" preserveAspectRatio="xMidYMid" refX="0" refY="0" style="overflow:visible" viewBox="0 0 1 1"><path d="M3-3 0 0l3 3" style="fill:none;stroke:context-stroke;stroke-width:1;stroke-linecap:butt" transform="rotate(180 .125 0)"/></marker><marker id="i" markerHeight="1" markerWidth="1" orient="auto-start-reverse" preserveAspectRatio="xMidYMid" refX="0" refY="0" style="overflow:visible" viewBox="0 0 1 1"><path d="M3-3 0 0l3 3" style="fill:none;stroke:context-stroke;stroke-width:1;stroke-linecap:butt" transform="rotate(180 .125 0)"/></marker><marker id="f" markerHeight="1" markerWidth="1" orient="auto-start-reverse" preserveAspectRatio="xMidYMid" refX="0" refY="0" style="overflow:visible" viewBox="0 0 1 1"><path d="M3-3 0 0l3 3" style="fill:none;stroke:context-stroke;stroke-width:1;stroke-linecap:butt" transform="rotate(180 .125 0)"/></marker><marker id="e" markerHeight="1" markerWidth="1" orient="auto-start-reverse" preserveAspectRatio="xMidYMid" refX="0" refY="0" style="overflow:visible" viewBox="0 0 1 1"><path d="M3-3 0 0l3 3" style="fill:none;stroke:context-stroke;stroke-width:1;stroke-linecap:butt" transform="rotate(180 .125 0)"/></marker><marker id="m" markerHeight="1" markerWidth="1" orient="auto-start-reverse" preserveAspectRatio="xMidYMid" refX="0" refY="0" style="overflow:visible" viewBox="0 0 1 1"><path d="M3-3 0 0l3 3" style="fill:none;stroke:context-stroke;stroke-width:1;stroke-linecap:butt" transform="rotate(180 .125 0)"/></marker><marker id="p" markerHeight="1" markerWidth="1" orient="auto-start-reverse" preserveAspectRatio="xMidYMid" refX="0" refY="0" style="overflow:visible" viewBox="0 0 1 1"><path d="M3-3 0 0l3 3" style="fill:none;stroke:context-stroke;stroke-width:1;stroke-linecap:butt" transform="rotate(180 .125 0)"/></marker><marker id="n" markerHeight="1" markerWidth="1" orient="auto-start-reverse" preserveAspectRatio="xMidYMid" refX="0" refY="0" style="overflow:visible" viewBox="0 0 1 1"><path d="M3-3 0 0l3 3" style="fill:none;stroke:context-stroke;stroke-width:1;stroke-linecap:butt" transform="rotate(180 .125 0)"/></marker><marker id="t" markerHeight="1" markerWidth="1" orient="auto-start-reverse" preserveAspectRatio="xMidYMid" refX="0" refY="0" style="overflow:visible" viewBox="0 0 1 1"><path d="M3-3 0 0l3 3" style="fill:none;stroke:context-stroke;stroke-width:1;stroke-linecap:butt" transform="rotate(180 .125 0)"/></marker><marker id="u" markerHeight="1" markerWidth="1" orient="auto-start-reverse" preserveAspectRatio="xMidYMid" refX="0" refY="0" style="overflow:visible" viewBox="0 0 1 1"><path d="M3-3 0 0l3 3" style="fill:none;stroke:context-stroke;stroke-width:1;stroke-linecap:butt" transform="rotate(180 .125 0)"/></marker><marker id="w" markerHeight="1" markerWidth="1" orient="auto-start-reverse" preserveAspectRatio="xMidYMid" refX="0" refY="0" style="overflow:visible" viewBox="0 0 1 1"><path d="M3-3 0 0l3 3" style="fill:none;stroke:context-stroke;stroke-width:1;stroke-linecap:butt" transform="rotate(180 .125 0)"/></marker></defs><path d="M11.62 333.252h133.791V530.09H11.62z" style="fill:#fff;stroke:#fff;stroke-width:.264582;stroke-linejoin:round;stroke-dasharray:none" transform="translate(-11.487 -333.12)"/><path d="M-34.091-511.532h4.096v150.455h-4.096z" style="fill:#d5d5ff;stroke:#00f;stroke-width:.264584;stroke-linejoin:round" transform="matrix(-1 0 0 -1 -11.487 -333.12)"/><path d="M-129.498-491.187h91.519v109.623h-91.519z" style="fill:#d5d5ff;stroke:#00f;stroke-width:.264583;stroke-linejoin:round" transform="matrix(-1 0 0 -1 -11.487 -333.12)"/><path d="M51.247 475.103h64.936l-32.468-33.401Z" style="fill:#fff;stroke:#fff;stroke-width:.264583;stroke-linejoin:round;stroke-dasharray:none" transform="translate(-11.487 -333.12)"/><path d="M-426.514-247.847h109.623v7.673h-109.623z" style="fill:none;stroke:#f2f2f2;stroke-width:.264583;stroke-linejoin:round;stroke-dasharray:none" transform="rotate(225.812 -76.121 -164.133)"/><path d="M-37.979-491.187h3.888v109.623h-3.888z" style="fill:#fff6d5;stroke:#d4aa00;stroke-width:.264583;stroke-linejoin:round" transform="matrix(-1 0 0 -1 -11.487 -333.12)"/><path d="M133.387-511.532h4.096v150.455h-4.096z" style="fill:#d5d5ff;stroke:#00f;stroke-width:.264584;stroke-linejoin:round" transform="matrix(1 0 0 -1 -11.487 -333.12)"/><path d="M129.498-491.187h3.888v109.623h-3.888z" style="fill:#fff6d5;stroke:#d4aa00;stroke-width:.264583;stroke-linejoin:round" transform="matrix(1 0 0 -1 -11.487 -333.12)"/><path d="M-377.676 56.717h4.096v54.114h-4.096z" style="fill:#d5d5ff;stroke:#00f;stroke-width:.264584;stroke-linejoin:round" transform="rotate(-90 -172.304 -160.816)"/><path d="M-381.564 56.717h3.888v54.044h-3.888z" style="fill:#fff6d5;stroke:#d4aa00;stroke-width:.264583;stroke-linejoin:round" transform="rotate(-90 -172.304 -160.816)"/><path d="M495.075-110.761h4.096v54.114h-4.096z" style="fill:#d5d5ff;stroke:#00f;stroke-width:.264584;stroke-linejoin:round" transform="rotate(90 160.816 -172.304)"/><path d="M491.187-110.761h3.888v54.044h-3.888z" style="fill:#fff6d5;stroke:#d4aa00;stroke-width:.264583;stroke-linejoin:round" transform="rotate(90 160.816 -172.304)"/><path d="M34.638 375.628H56.17" style="fill:none;stroke:#f60;stroke-width:.264582;stroke-linejoin:round;marker-start:url(#a);marker-end:url(#a)" transform="translate(-11.487 -333.12)"/><text xml:space="preserve" style="font-size:16px;line-height:normal;font-family:&quot;Liberation Mono&quot;;-inkscape-font-specification:&quot;Liberation Mono&quot;;text-decoration-color:#000;white-space:pre;shape-inside:url(#b);display:inline;fill:#f60;stroke-width:1;-inkscape-stroke:none;stop-color:#000" transform="translate(-41.582 -101.881)scale(.26458)"><tspan x="279.355" y="542.369">E1</tspan></text><path d="m45.884 397.511 75.446 77.726M45.89 475.243l75.435-77.737" style="fill:#fff;stroke:#f2f2f2;stroke-width:.264583;stroke-linejoin:round;stroke-dasharray:none" transform="translate(-11.487 -333.12)"/><path d="M37.979 381.564h91.519v15.728H37.979zM37.979 475.458h91.519v15.728H37.979z" style="fill:none;stroke:#f2f2f2;stroke-width:.264583;stroke-linejoin:round;stroke-dasharray:none" transform="translate(-11.487 -333.12)"/><path d="M-491.187 37.979h109.623v7.673h-109.623zM-491.187 121.561h109.623v7.673h-109.623z" style="fill:none;stroke:#f2f2f2;stroke-width:.264583;stroke-linejoin:round;stroke-dasharray:none" transform="rotate(-90 -172.304 -160.816)"/><path d="M-310.09-367.902h109.623v7.673H-310.09z" style="fill:none;stroke:#f2f2f2;stroke-width:.264583;stroke-linejoin:round;stroke-dasharray:none" transform="rotate(134.188 64.634 -168.987)scale(-1 1)"/><path d="M51.247 397.292h64.936l-32.468 33.402Z" style="fill:#fff;stroke:#fff;stroke-width:.264583;stroke-linejoin:round;stroke-dasharray:none" transform="translate(-11.487 -333.12)"/><text xml:space="preserve" style="font-size:16px;line-height:normal;font-family:&quot;Liberation Mono&quot;;-inkscape-font-specification:&quot;Liberation Mono&quot;;text-decoration-color:#000;white-space:pre;shape-inside:url(#c);display:inline;fill:#d45500;stroke-width:1;-inkscape-stroke:none;stop-color:#000" transform="translate(18.25 -336.238)scale(.26458)"><tspan x="306.113" y="1553.719">S3</tspan></text><text xml:space="preserve" style="font-size:16px;line-height:normal;font-family:&quot;Liberation Mono&quot;;-inkscape-font-specification:&quot;Liberation Mono&quot;;text-decoration-color:#000;white-space:pre;shape-inside:url(#d);display:inline;fill:#d45500;stroke-width:1;-inkscape-stroke:none;stop-color:#000" transform="translate(10.86 -353.384)scale(.26458)"><tspan x="306.113" y="1553.719">S2</tspan></text><path d="m107.885 405.888 5.17 5.32" style="fill:none;stroke:#f60;stroke-width:.264581;stroke-linejoin:round;marker-start:url(#e);marker-end:url(#e)" transform="translate(-11.487 -333.12)"/><path d="M102.477 396.717v-14.578" style="fill:none;stroke:#f60;stroke-width:.26458;stroke-linejoin:round;marker-start:url(#f);marker-end:url(#f)" transform="translate(-11.487 -333.12)"/><path d="m89.065 436.198 32.496-33.43v66.86zM78.364 436.198l-32.496-33.43v66.86z" style="fill:#fff;stroke:#fff;stroke-width:.264583;stroke-linejoin:round;stroke-dasharray:none" transform="translate(-11.487 -333.12)"/><path d="M29.995 360.944v-21.07M137.483 360.944v-21.07" style="fill:#fff;stroke:#b3b3b3;stroke-width:.264583;stroke-linejoin:round;stroke-dasharray:none" transform="translate(-11.487 -333.12)"/><path d="M30.13 350.287h107.288" style="fill:none;stroke:#f60;stroke-width:.264582;stroke-linejoin:round;marker-start:url(#g);marker-end:url(#g)" transform="translate(-11.487 -333.12)"/><text xml:space="preserve" style="font-size:16px;line-height:normal;font-family:&quot;Liberation Mono&quot;;-inkscape-font-specification:&quot;Liberation Mono&quot;;text-decoration-color:#000;white-space:pre;shape-inside:url(#h);display:inline;fill:#f60;stroke-width:1;-inkscape-stroke:none;stop-color:#000" transform="translate(-4.291 -128.044)scale(.26458)"><tspan x="279.355" y="542.369">L2</tspan></text><path d="M38.25 428.942h7.131" style="fill:none;stroke:#f60;stroke-width:.264581;stroke-linejoin:round;marker-start:url(#i);marker-end:url(#i)" transform="translate(-11.487 -333.12)"/><text xml:space="preserve" style="font-size:16px;line-height:normal;font-family:&quot;Liberation Mono&quot;;-inkscape-font-specification:&quot;Liberation Mono&quot;;text-decoration-color:#000;white-space:pre;shape-inside:url(#j);fill:#d45500;stroke-width:1;-inkscape-stroke:none;stop-color:#000" transform="translate(-52.967 -316.854)scale(.26458)"><tspan x="306.113" y="1553.719">S1</tspan></text><path d="m53.766 398.116 7.467 3.296" style="fill:#d45500;stroke:#b3b3b3;stroke-width:.264583;stroke-linejoin:round;stroke-dasharray:none;marker-start:url(#k)" transform="translate(-11.487 -333.12)"/><text xml:space="preserve" style="font-size:16px;line-height:normal;font-family:&quot;Liberation Mono&quot;;-inkscape-font-specification:&quot;Liberation Mono&quot;;text-decoration-color:#000;white-space:pre;shape-inside:url(#l);fill:#000;stroke-width:1;-inkscape-stroke:none;stop-color:#000" transform="translate(-20.778 -335.61)scale(.26458)"><tspan x="267.57" y="1534.289">R3</tspan></text><path d="m130.062 498.386.715-5.84" style="fill:#d4aa00;stroke:#fc0;stroke-width:.264583;stroke-linejoin:round;marker-end:url(#m)" transform="translate(-11.487 -333.12)"/><path d="m116.156 498.708-3.836-5.335" style="fill:#d4aa00;stroke:#fc0;stroke-width:.264583;stroke-linejoin:round;marker-end:url(#n)" transform="translate(-11.487 -333.12)"/><text xml:space="preserve" style="font-size:16px;line-height:normal;font-family:&quot;Liberation Mono&quot;;-inkscape-font-specification:&quot;Liberation Mono&quot;;text-decoration-color:#000;white-space:pre;shape-inside:url(#o);display:inline;fill:#d4aa00;stroke-width:1;-inkscape-stroke:none;stop-color:#000" transform="translate(23.974 103.568)scale(.26458)"><tspan x="345.967" y="248.033">J4</tspan></text><path d="m37.738 498.316-.715-5.84" style="fill:#d4aa00;stroke:#fc0;stroke-width:.264583;stroke-linejoin:round;marker-end:url(#p)" transform="translate(-11.487 -333.12)"/><text xml:space="preserve" style="font-size:16px;line-height:normal;font-family:&quot;Liberation Mono&quot;;-inkscape-font-specification:&quot;Liberation Mono&quot;;text-decoration-color:#000;white-space:pre;shape-inside:url(#q);display:inline;fill:#d4aa00;stroke-width:1;-inkscape-stroke:none;stop-color:#000" transform="translate(-67.603 102.992)scale(.26458)"><tspan x="345.967" y="248.033">J1</tspan></text><text xml:space="preserve" style="font-size:16px;line-height:normal;font-family:&quot;Liberation Mono&quot;;-inkscape-font-specification:&quot;Liberation Mono&quot;;text-decoration-color:#000;white-space:pre;shape-inside:url(#r);display:inline;fill:#d4aa00;stroke-width:1;-inkscape-stroke:none;stop-color:#000" transform="translate(11.584 103.807)scale(.26458)"><tspan x="345.967" y="248.033">J11</tspan></text><text xml:space="preserve" style="font-size:16px;line-height:normal;font-family:&quot;Liberation Mono&quot;;-inkscape-font-specification:&quot;Liberation Mono&quot;;text-decoration-color:#000;white-space:pre;shape-inside:url(#s);display:inline;fill:#d4aa00;stroke-width:1;-inkscape-stroke:none;stop-color:#000" transform="translate(10.59 -25.71)scale(.26458)"><tspan x="345.967" y="248.033">J12</tspan></text><path d="m115.644 374.231-3.836 5.335" style="fill:#d4aa00;stroke:#fc0;stroke-width:.264583;stroke-linejoin:round;marker-end:url(#t)" transform="translate(-11.487 -333.12)"/><path d="m34.09 360.813.046-4.882" style="fill:#d5d5ff;stroke:#b7c8b7;stroke-width:.264583;stroke-linejoin:round" transform="translate(-11.487 -333.12)"/><path d="M29.995 356.583h4.096" style="fill:#d5d5ff;stroke:#536c53;stroke-width:.264583;stroke-linejoin:round;marker-start:url(#u);marker-end:url(#u)" transform="translate(-11.487 -333.12)"/><text xml:space="preserve" style="font-size:16px;line-height:normal;font-family:&quot;Liberation Mono&quot;;-inkscape-font-specification:&quot;Liberation Mono&quot;;text-decoration-color:#000;white-space:pre;shape-inside:url(#v);display:inline;fill:#000;stroke-width:1;-inkscape-stroke:none;stop-color:#000" transform="translate(-27.119 -109.17)scale(.26458)"><tspan x="170.957" y="494.897">T1</tspan></text><path d="M-471.57 77.079h4.93v13.336h-4.93z" style="fill:#d5d5ff;stroke:#00f;stroke-width:.264583;stroke-linejoin:round" transform="rotate(-90 -172.304 -160.816)"/><path d="M-475.458 77.079h3.888v13.319h-3.888z" style="fill:#fff6d5;stroke:#d4aa00;stroke-width:.264583;stroke-linejoin:round" transform="rotate(-90 -172.304 -160.816)"/><path d="M401.181-90.374h4.93v13.336h-4.93z" style="fill:#d5d5ff;stroke:#00f;stroke-width:.264583;stroke-linejoin:round" transform="rotate(90 160.816 -172.304)"/><path d="M397.292-90.374h3.888v13.319h-3.888z" style="fill:#fff6d5;stroke:#d4aa00;stroke-width:.264583;stroke-linejoin:round" transform="rotate(90 160.816 -172.304)"/><path d="M49.757 429.538h4.93v13.336h-4.93z" style="fill:#d5d5ff;stroke:#00f;stroke-width:.264583;stroke-linejoin:round" transform="translate(-11.487 -333.12)"/><path d="M45.868 429.538h3.888v13.319h-3.888z" style="fill:#fff6d5;stroke:#d4aa00;stroke-width:.264583;stroke-linejoin:round" transform="translate(-11.487 -333.12)"/><path d="M-117.673-442.857h4.93v13.336h-4.93z" style="fill:#d5d5ff;stroke:#00f;stroke-width:.264583;stroke-linejoin:round" transform="matrix(-1 0 0 -1 -11.487 -333.12)"/><path d="M-121.561-442.857h3.888v13.319h-3.888z" style="fill:#fff6d5;stroke:#d4aa00;stroke-width:.264583;stroke-linejoin:round" transform="matrix(-1 0 0 -1 -11.487 -333.12)"/><path d="M-236.691 391.263h4.93v13.336h-4.93z" style="fill:#d5d5ff;stroke:#00f;stroke-width:.264583;stroke-linejoin:round" transform="rotate(-44.247 -415.452 -152.431)"/><path d="M-240.579 391.263h3.888v13.319h-3.888z" style="fill:#fff6d5;stroke:#d4aa00;stroke-width:.264583;stroke-linejoin:round" transform="rotate(-44.247 -415.452 -152.431)"/><path d="M377.863 210.594h4.93v13.336h-4.93z" style="fill:#d5d5ff;stroke:#00f;stroke-width:.264583;stroke-linejoin:round" transform="rotate(45.753 389.007 -180.173)"/><path d="M373.975 210.594h3.888v13.319h-3.888z" style="fill:#fff6d5;stroke:#d4aa00;stroke-width:.264583;stroke-linejoin:round" transform="rotate(45.753 389.007 -180.173)"/><path d="M-236.636 336.986h4.93v13.336h-4.93z" style="fill:#d5d5ff;stroke:#00f;stroke-width:.264583;stroke-linejoin:round" transform="rotate(-44.247 -415.452 -152.431)"/><path d="M-240.524 336.986h3.888v13.319h-3.888z" style="fill:#fff6d5;stroke:#d4aa00;stroke-width:.264583;stroke-linejoin:round" transform="rotate(-44.247 -415.452 -152.431)"/><path d="M-362.411-223.926h4.93v13.336h-4.93z" style="fill:#d5d5ff;stroke:#00f;stroke-width:.264583;stroke-linejoin:round" transform="rotate(225.753 -76.021 -164.136)"/><path d="M-366.3-223.926h3.888v13.319h-3.888z" style="fill:#fff6d5;stroke:#d4aa00;stroke-width:.264583;stroke-linejoin:round" transform="rotate(225.753 -76.021 -164.136)"/><path d="M252.085-350.494h4.93v13.336h-4.93z" style="fill:#d5d5ff;stroke:#00f;stroke-width:.264583;stroke-linejoin:round" transform="rotate(135.753 61.968 -168.895)"/><path d="M248.197-350.494h3.888v13.319h-3.888z" style="fill:#fff6d5;stroke:#d4aa00;stroke-width:.264583;stroke-linejoin:round" transform="rotate(135.753 61.968 -168.895)"/><path d="M379.346 264.851h4.93v13.336h-4.93z" style="fill:#d5d5ff;stroke:#00f;stroke-width:.264583;stroke-linejoin:round" transform="rotate(45.753 389.007 -180.173)"/><path d="M375.458 264.851h3.888v13.319h-3.888z" style="fill:#fff6d5;stroke:#d4aa00;stroke-width:.264583;stroke-linejoin:round" transform="rotate(45.753 389.007 -180.173)"/><path d="M-363.894-278.182h4.93v13.336h-4.93z" style="fill:#d5d5ff;stroke:#00f;stroke-width:.264583;stroke-linejoin:round" transform="rotate(225.753 -76.021 -164.136)"/><path d="M-367.782-278.182h3.888v13.319h-3.888z" style="fill:#fff6d5;stroke:#d4aa00;stroke-width:.264583;stroke-linejoin:round" transform="rotate(225.753 -76.021 -164.136)"/><path d="M252.141-404.772h4.93v13.336h-4.93z" style="fill:#d5d5ff;stroke:#00f;stroke-width:.264583;stroke-linejoin:round" transform="rotate(135.753 61.968 -168.895)"/><path d="M248.252-404.772h3.888v13.319h-3.888z" style="fill:#fff6d5;stroke:#d4aa00;stroke-width:.264583;stroke-linejoin:round" transform="rotate(135.753 61.968 -168.895)"/><path d="M78.447 471.208v-4.26" style="fill:none;stroke:#f60;stroke-width:.264581;stroke-linejoin:round;marker-start:url(#w);marker-end:url(#w)" transform="translate(-11.487 -333.12)"/><text xml:space="preserve" style="font-size:16px;line-height:normal;font-family:&quot;Liberation Mono&quot;;-inkscape-font-specification:&quot;Liberation Mono&quot;;text-decoration-color:#000;white-space:pre;shape-inside:url(#x);display:inline;fill:#d45500;stroke-width:1;-inkscape-stroke:none;stop-color:#000" transform="translate(-12.221 -273.649)scale(.26458)"><tspan x="306.113" y="1553.719">W1/2</tspan></text><path d="m62.75 523.727 19.384-47.533" style="fill:#fff;stroke:#0a0;stroke-width:.264583;stroke-linejoin:round;stroke-dasharray:none;marker-end:url(#k)" transform="translate(-11.487 -333.12)"/><path d="m64.558 461.682-15.845 60.006" style="fill:#fff;stroke:#0a0;stroke-width:.264583;stroke-linejoin:round;stroke-dasharray:none;marker-start:url(#k)" transform="translate(-11.487 -333.12)"/><text xml:space="preserve" style="font-size:16px;line-height:normal;font-family:&quot;Liberation Mono&quot;;-inkscape-font-specification:&quot;Liberation Mono&quot;;text-decoration-color:#000;white-space:pre;shape-inside:url(#y);fill:#0a0;stroke-width:1;-inkscape-stroke:none;stop-color:#000" transform="translate(-17.556 -343.233)scale(.26458)"><tspan x="247.184" y="2033.115">P11</tspan></text><text xml:space="preserve" style="font-size:16px;line-height:normal;font-family:&quot;Liberation Mono&quot;;-inkscape-font-specification:&quot;Liberation Mono&quot;;text-decoration-color:#000;white-space:pre;shape-inside:url(#z);display:inline;fill:#0a0;stroke-width:1;-inkscape-stroke:none;stop-color:#000" transform="translate(-32.51 -345.314)scale(.26458)"><tspan x="247.184" y="2033.115">P12</tspan></text><text xml:space="preserve" style="font-size:16px;line-height:normal;font-family:&quot;Liberation Mono&quot;;-inkscape-font-specification:&quot;Liberation Mono&quot;;text-decoration-color:#000;white-space:pre;shape-inside:url(#A);display:inline;fill:#0a0;stroke-width:1;-inkscape-stroke:none;stop-color:#000" transform="translate(-59.73 -432.98)scale(.26458)"><tspan x="247.184" y="2033.115">P21</tspan></text><text xml:space="preserve" style="font-size:16px;line-height:normal;font-family:&quot;Liberation Mono&quot;;-inkscape-font-specification:&quot;Liberation Mono&quot;;text-decoration-color:#000;white-space:pre;shape-inside:url(#B);display:inline;fill:#0a0;stroke-width:1;-inkscape-stroke:none;stop-color:#000" transform="translate(-63.296 -414.142)scale(.26458)"><tspan x="247.184" y="2033.115">P22</tspan></text><path d="m45.005 436.398-20.058.337" style="fill:#0a0;stroke:#0a0;stroke-width:.264583;stroke-linejoin:round;stroke-dasharray:none;marker-start:url(#k)" transform="translate(-11.487 -333.12)"/><path d="m59.164 454.602-37.251.843" style="fill:#0a0;stroke:#0a0;stroke-width:.264583;stroke-linejoin:round;stroke-dasharray:none;marker-start:url(#k)" transform="translate(-11.487 -333.12)"/><text xml:space="preserve" style="font-size:16px;line-height:normal;font-family:&quot;Liberation Mono&quot;;-inkscape-font-specification:&quot;Liberation Mono&quot;;text-decoration-color:#000;white-space:pre;shape-inside:url(#C);display:inline;fill:#d4aa00;stroke-width:1;-inkscape-stroke:none;stop-color:#000" transform="translate(15.032 38.061)scale(.26458)"><tspan x="345.967" y="248.033">J111</tspan></text><text xml:space="preserve" style="font-size:16px;line-height:normal;font-family:&quot;Liberation Mono&quot;;-inkscape-font-specification:&quot;Liberation Mono&quot;;text-decoration-color:#000;white-space:pre;shape-inside:url(#D);display:inline;fill:#d4aa00;stroke-width:1;-inkscape-stroke:none;stop-color:#000" transform="translate(-4.31 22.892)scale(.26458)"><tspan x="345.967" y="248.033">J112</tspan></text><text xml:space="preserve" style="font-size:16px;line-height:normal;font-family:&quot;Liberation Mono&quot;;-inkscape-font-specification:&quot;Liberation Mono&quot;;text-decoration-color:#000;white-space:pre;shape-inside:url(#E);display:inline;fill:#d4aa00;stroke-width:1;-inkscape-stroke:none;stop-color:#000" transform="translate(1.327 52.1)scale(.26458)"><tspan x="345.967" y="248.033">J113</tspan></text><text xml:space="preserve" style="font-size:16px;line-height:normal;font-family:&quot;Liberation Mono&quot;;-inkscape-font-specification:&quot;Liberation Mono&quot;;text-decoration-color:#000;white-space:pre;shape-inside:url(#F);display:inline;fill:#d4aa00;stroke-width:1;-inkscape-stroke:none;stop-color:#000" transform="translate(-24.264 1.878)scale(.26458)"><tspan x="345.967" y="248.033">J121</tspan></text><text xml:space="preserve" style="font-size:16px;line-height:normal;font-family:&quot;Liberation Mono&quot;;-inkscape-font-specification:&quot;Liberation Mono&quot;;text-decoration-color:#000;white-space:pre;shape-inside:url(#G);display:inline;fill:#d4aa00;stroke-width:1;-inkscape-stroke:none;stop-color:#000" transform="translate(-37.892 13.451)scale(.26458)"><tspan x="345.967" y="248.033">J122</tspan></text><text xml:space="preserve" style="font-size:16px;line-height:normal;font-family:&quot;Liberation Mono&quot;;-inkscape-font-specification:&quot;Liberation Mono&quot;;text-decoration-color:#000;white-space:pre;shape-inside:url(#H);display:inline;fill:#d4aa00;stroke-width:1;-inkscape-stroke:none;stop-color:#000" transform="translate(-11.712 14.476)scale(.26458)"><tspan x="345.967" y="248.033">J123</tspan></text><text xml:space="preserve" style="font-size:16px;line-height:normal;font-family:&quot;Liberation Mono&quot;;-inkscape-font-specification:&quot;Liberation Mono&quot;;text-decoration-color:#000;white-space:pre;shape-inside:url(#I);display:inline;fill:#d4aa00;stroke-width:1;-inkscape-stroke:none;stop-color:#000" transform="translate(-61.16 41.905)scale(.26458)"><tspan x="345.967" y="248.033">J131</tspan></text><text xml:space="preserve" style="font-size:16px;line-height:normal;font-family:&quot;Liberation Mono&quot;;-inkscape-font-specification:&quot;Liberation Mono&quot;;text-decoration-color:#000;white-space:pre;shape-inside:url(#J);display:inline;fill:#d4aa00;stroke-width:1;-inkscape-stroke:none;stop-color:#000" transform="translate(-48.494 51.909)scale(.26458)"><tspan x="345.967" y="248.033">J132</tspan></text><text xml:space="preserve" style="font-size:16px;line-height:normal;font-family:&quot;Liberation Mono&quot;;-inkscape-font-specification:&quot;Liberation Mono&quot;;text-decoration-color:#000;white-space:pre;shape-inside:url(#K);display:inline;fill:#d4aa00;stroke-width:1;-inkscape-stroke:none;stop-color:#000" transform="translate(-49.697 24.161)scale(.26458)"><tspan x="345.967" y="248.033">J133</tspan></text><text xml:space="preserve" style="font-size:16px;line-height:normal;font-family:&quot;Liberation Mono&quot;;-inkscape-font-specification:&quot;Liberation Mono&quot;;text-decoration-color:#000;white-space:pre;shape-inside:url(#L);display:inline;fill:#d4aa00;stroke-width:1;-inkscape-stroke:none;stop-color:#000" transform="translate(-23.44 76.105)scale(.26458)"><tspan x="345.967" y="248.033">J141</tspan></text><text xml:space="preserve" style="font-size:16px;line-height:normal;font-family:&quot;Liberation Mono&quot;;-inkscape-font-specification:&quot;Liberation Mono&quot;;text-decoration-color:#000;white-space:pre;shape-inside:url(#M);display:inline;fill:#d4aa00;stroke-width:1;-inkscape-stroke:none;stop-color:#000" transform="translate(-12.56 61.402)scale(.26458)"><tspan x="345.967" y="248.033">J142</tspan></text><text xml:space="preserve" style="font-size:16px;line-height:normal;font-family:&quot;Liberation Mono&quot;;-inkscape-font-specification:&quot;Liberation Mono&quot;;text-decoration-color:#000;white-space:pre;shape-inside:url(#N);display:inline;fill:#d4aa00;stroke-width:1;-inkscape-stroke:none;stop-color:#000" transform="translate(-38.662 59.732)scale(.26458)"><tspan x="345.967" y="248.033">J143</tspan></text></svg>