<svg xmlns="http://www.w3.org/2000/svg" width="519.049" height="243.357" viewBox="0 0 137.332 64.388"><defs><path id="s" d="M345.967 233.798h49.102v29.732h-49.102z"/><path id="r" d="M214.427 366.238h34.462v24.101h-34.462z"/><path id="q" d="M291.684 246.862h32.209v21.848h-32.209z"/><path id="p" d="M304.839 220.745h32.809v25.483h-32.809z"/><path id="o" d="M212.782 191.44h47.78v32.491h-47.78z"/><path id="m" d="M324.588 372.05h41.41v23.572h-41.41z"/><path id="l" d="M272.029 379.057h24.745v22.297h-24.745z"/><path id="n" d="M324.588 372.05h41.41v23.572h-41.41z"/><path id="t" d="M345.967 233.798h63.517v28.38h-63.517z"/><path id="d" d="M170.956 480.659h39.192v24.101h-39.192z"/><path id="b" d="M345.967 233.798h63.517v28.38h-63.517z"/><path id="v" d="M345.967 233.798h63.517v28.38h-63.517z"/><path id="w" d="M345.967 233.798h63.517v28.38h-63.517z"/><path id="z" d="M345.967 233.798h63.517v28.38h-63.517z"/><marker id="f" markerHeight="1" markerWidth="1" orient="auto-start-reverse" preserveAspectRatio="xMidYMid" refX="0" refY="0" style="overflow:visible" viewBox="0 0 1 1"><path d="M3-3 0 0l3 3" style="fill:none;stroke:context-stroke;stroke-width:1;stroke-linecap:butt" transform="rotate(180 .125 0)"/></marker><marker id="g" markerHeight="1" markerWidth="1" orient="auto-start-reverse" preserveAspectRatio="xMidYMid" refX="0" refY="0" style="overflow:visible" viewBox="0 0 1 1"><path d="M3-3 0 0l3 3" style="fill:none;stroke:context-stroke;stroke-width:1;stroke-linecap:butt" transform="rotate(180 .125 0)"/></marker><marker id="h" markerHeight="1" markerWidth="1" orient="auto-start-reverse" preserveAspectRatio="xMidYMid" refX="0" refY="0" style="overflow:visible" viewBox="0 0 1 1"><path d="M3-3 0 0l3 3" style="fill:none;stroke:context-stroke;stroke-width:1;stroke-linecap:butt" transform="rotate(180 .125 0)"/></marker><marker id="i" markerHeight="1" markerWidth="1" orient="auto-start-reverse" preserveAspectRatio="xMidYMid" refX="0" refY="0" style="overflow:visible" viewBox="0 0 1 1"><path d="M3-3 0 0l3 3" style="fill:none;stroke:context-stroke;stroke-width:1;stroke-linecap:butt" transform="rotate(180 .125 0)"/></marker><marker id="j" markerHeight="1" markerWidth="1" orient="auto-start-reverse" preserveAspectRatio="xMidYMid" refX="0" refY="0" style="overflow:visible" viewBox="0 0 1 1"><path d="M3-3 0 0l3 3" style="fill:none;stroke:context-stroke;stroke-width:1;stroke-linecap:butt" transform="rotate(180 .125 0)"/></marker><marker id="k" markerHeight="1" markerWidth="1" orient="auto-start-reverse" preserveAspectRatio="xMidYMid" refX="0" refY="0" style="overflow:visible" viewBox="0 0 1 1"><path d="M3-3 0 0l3 3" style="fill:none;stroke:context-stroke;stroke-width:1;stroke-linecap:butt" transform="rotate(180 .125 0)"/></marker><marker id="e" markerHeight="1" markerWidth="1" orient="auto-start-reverse" preserveAspectRatio="xMidYMid" refX="0" refY="0" style="overflow:visible" viewBox="0 0 1 1"><path d="M3-3 0 0l3 3" style="fill:none;stroke:context-stroke;stroke-width:1;stroke-linecap:butt" transform="rotate(180 .125 0)"/></marker><marker id="c" markerHeight="1" markerWidth="1" orient="auto-start-reverse" preserveAspectRatio="xMidYMid" refX="0" refY="0" style="overflow:visible" viewBox="0 0 1 1"><path d="M3-3 0 0l3 3" style="fill:none;stroke:context-stroke;stroke-width:1;stroke-linecap:butt" transform="rotate(180 .125 0)"/></marker><marker id="a" markerHeight="1" markerWidth="1" orient="auto-start-reverse" preserveAspectRatio="xMidYMid" refX="0" refY="0" style="overflow:visible" viewBox="0 0 1 1"><path d="M3-3 0 0l3 3" style="fill:none;stroke:context-stroke;stroke-width:1;stroke-linecap:butt" transform="rotate(180 .125 0)"/></marker><marker id="u" markerHeight="1" markerWidth="1" orient="auto-start-reverse" preserveAspectRatio="xMidYMid" refX="0" refY="0" style="overflow:visible" viewBox="0 0 1 1"><path d="M3-3 0 0l3 3" style="fill:none;stroke:context-stroke;stroke-width:1;stroke-linecap:butt" transform="rotate(180 .125 0)"/></marker><marker id="x" markerHeight="1" markerWidth="1" orient="auto-start-reverse" preserveAspectRatio="xMidYMid" refX="0" refY="0" style="overflow:visible" viewBox="0 0 1 1"><path d="M3-3 0 0l3 3" style="fill:none;stroke:context-stroke;stroke-width:1;stroke-linecap:butt" transform="rotate(180 .125 0)"/></marker><marker id="y" markerHeight="1" markerWidth="1" orient="auto-start-reverse" preserveAspectRatio="xMidYMid" refX="0" refY="0" style="overflow:visible" viewBox="0 0 1 1"><path d="M3-3 0 0l3 3" style="fill:none;stroke:context-stroke;stroke-width:1;stroke-linecap:butt" transform="rotate(180 .125 0)"/></marker></defs><g transform="translate(-7.257 -50.88)"><path d="M7.39 51.013h137.067v64.124H7.39z" style="fill:#fff;stroke:#fff;stroke-width:.264583;stroke-linejoin:round"/><path d="m40.542 58.08.715 6.839" style="fill:#d4aa00;stroke:#fc0;stroke-width:.264583;stroke-linejoin:round;marker-end:url(#a)"/><text xml:space="preserve" style="font-size:16px;line-height:normal;font-family:&quot;Liberation Mono&quot;;-inkscape-font-specification:&quot;Liberation Mono&quot;;text-decoration-color:#000;white-space:pre;shape-inside:url(#b);display:inline;fill:#d4aa00;stroke-width:1;-inkscape-stroke:none;stop-color:#000" transform="translate(-54.22 -8.08)scale(.26458)"><tspan x="345.967" y="248.033">J11</tspan></text><path d="M92.447-108.889h4.096v64.221h-4.096z" style="fill:#d5d5ff;stroke:#00f;stroke-width:.264583;stroke-linejoin:round" transform="rotate(90)"/><path d="M69.369-108.889h3.954v64.221h-3.954z" style="fill:#fff6d5;stroke:#d4aa00;stroke-width:.264583;stroke-linejoin:round" transform="rotate(90)"/><path d="M65.273-108.889h4.096v64.221h-4.096z" style="fill:#d5d5ff;stroke:#00f;stroke-width:.264583;stroke-linejoin:round" transform="rotate(90)"/><path d="M52.419 65.616v3.41" style="fill:#d5d5ff;stroke:#536c53;stroke-width:.264583;stroke-linejoin:round;marker-start:url(#c);marker-end:url(#c)"/><text xml:space="preserve" style="font-size:16px;line-height:normal;font-family:&quot;Liberation Mono&quot;;-inkscape-font-specification:&quot;Liberation Mono&quot;;text-decoration-color:#000;white-space:pre;shape-inside:url(#d);display:inline;fill:#000;stroke-width:1;-inkscape-stroke:none;stop-color:#000" transform="translate(8.187 -62.227)scale(.26458)"><tspan x="170.957" y="494.897">T1</tspan></text><path d="M88.493-108.889h3.954v64.221h-3.954z" style="fill:#fff6d5;stroke:#d4aa00;stroke-width:.264583;stroke-linejoin:round" transform="rotate(90)"/><path d="m94.655 100.851-1.269-11.549" style="fill:#d4aa00;stroke:#fc0;stroke-width:.264583;stroke-linejoin:round;marker-end:url(#e)"/><path d="M44.668 73.323s-1.445-2.394-2.348-3.453c-1.117-1.31-2.316-2.602-3.759-3.541-1.708-1.113-3.666-1.853-5.637-2.375-1.335-.353-2.735-.566-4.114-.492-2.609.14-5.273.648-7.637 1.76-2.09.984-3.958 2.493-5.503 4.21-1.453 1.615-2.648 3.524-3.394 5.565a15.4 15.4 0 0 0-.912 5.911c.128 2.808.804 5.656 2.038 8.182.894 1.832 2.244 3.462 3.77 4.815a18 18 0 0 0 5.516 3.34c1.94.734 4.049 1.158 6.122 1.109a19.5 19.5 0 0 0 7.634-1.76c1.994-.92 3.758-2.352 5.29-3.925 1.188-1.218 2.934-4.176 2.934-4.176h64.22s1.78 2.85 2.898 4.093c.932 1.036 1.97 2.002 3.137 2.765a19 19 0 0 0 4.982 2.317c1.563.463 3.212.727 4.842.686 2.213-.056 4.481-.4 6.519-1.264a19.1 19.1 0 0 0 6.463-4.527c1.518-1.633 2.655-3.653 3.432-5.743.696-1.875 1.07-3.912 1.032-5.912-.047-2.438-.486-4.95-1.534-7.152-1.26-2.647-3.25-4.988-5.51-6.854-1.362-1.124-3.01-1.91-4.683-2.476a18.8 18.8 0 0 0-5.719-.964c-1.588-.024-3.203.18-4.72.65-2.12.66-4.149 1.696-5.95 2.994-1.175.846-2.159 1.945-3.079 3.063-.803.976-2.11 3.154-2.11 3.154z" style="fill:#d5d5ff;stroke:#00f;stroke-width:.264583;stroke-linejoin:round"/><path d="M44.668 73.323h64.221v15.17H44.668z" style="fill:none;stroke:#ccc;stroke-width:.264583;stroke-linejoin:round"/><circle cx="28.81" cy="80.908" r="17.446" style="fill:none;stroke:#ccc;stroke-width:.264583;stroke-linejoin:round"/><circle cx="124.747" cy="80.908" r="17.446" style="fill:none;stroke:#ccc;stroke-width:.264583;stroke-linejoin:round"/><circle cx="28.81" cy="80.908" r="9.692" style="fill:#fff;stroke:#00f;stroke-width:.264583;stroke-linejoin:round"/><circle cx="124.747" cy="80.908" r="9.692" style="fill:#fff;stroke:#00f;stroke-width:.264583;stroke-linejoin:round"/><circle cx="56.13" cy="80.908" r="3.961" style="fill:#fff;stroke:#00f;stroke-width:.264583;stroke-linejoin:round"/><circle cx="69.966" cy="80.908" r="3.961" style="fill:#fff;stroke:#00f;stroke-width:.264583;stroke-linejoin:round"/><circle cx="97.427" cy="80.908" r="3.961" style="fill:#fff;stroke:#00f;stroke-width:.264583;stroke-linejoin:round"/><path d="M46.255 80.908h5.914" style="fill:none;stroke:purple;stroke-width:.264583;stroke-linejoin:round;marker-start:url(#f);marker-end:url(#f)"/><path d="M60.091 80.908h5.913" style="fill:none;stroke:purple;stroke-width:.264583;stroke-linejoin:round;marker-start:url(#g);marker-end:url(#g)"/><path d="M101.388 80.908h5.913" style="fill:none;stroke:purple;stroke-width:.264583;stroke-linejoin:round;marker-start:url(#h);marker-end:url(#h)"/><path d="M28.942 80.908v26.97M124.615 80.908v26.97" style="fill:none;stroke:#666;stroke-width:.264583;stroke-linejoin:round"/><path d="M69.888 84.79v-7.764" style="fill:none;stroke:teal;stroke-width:.264583;stroke-linejoin:round;marker-start:url(#i);marker-end:url(#i)"/><path d="M69.888 76.555v-3.117" style="fill:none;stroke:teal;stroke-width:.264583;stroke-linejoin:round;marker-start:url(#j);marker-end:url(#j)"/><path d="M69.888 88.372v-3.117" style="fill:none;stroke:teal;stroke-width:.264583;stroke-linejoin:round;marker-start:url(#k);marker-end:url(#k)"/><path d="M28.942 107.877h95.673" style="fill:none;stroke:#ff7f2a;stroke-width:.264583;stroke-linejoin:round;marker-start:url(#f);marker-end:url(#f)"/><path d="m23.949 71.811-5.81-11.734" style="fill:none;stroke:#ff7f2a;stroke-width:.264583;stroke-linejoin:round;marker-start:url(#f)"/><path d="m18.622 95.633-2.907 6.996" style="fill:none;stroke:#ff7f2a;stroke-width:.264583;stroke-linejoin:round;marker-start:url(#f)"/><path d="M84.171 73.323v15.17" style="fill:none;stroke:#ff7f2a;stroke-width:.264583;stroke-linejoin:round;marker-start:url(#f);marker-end:url(#f)"/><text xml:space="preserve" style="font-size:16px;line-height:normal;font-family:&quot;Liberation Mono&quot;;-inkscape-font-specification:&quot;Liberation Mono&quot;;text-decoration-color:#000;white-space:pre;shape-inside:url(#l);display:inline;fill:#000;stroke-width:1;-inkscape-stroke:none;stop-color:#000" transform="translate(2.558 2.444)scale(.26458)"><tspan x="272.029" y="393.293">L1</tspan></text><text xml:space="preserve" style="font-size:16px;line-height:normal;font-family:&quot;Liberation Mono&quot;;-inkscape-font-specification:&quot;Liberation Mono&quot;;text-decoration-color:#000;white-space:pre;shape-inside:url(#m);display:inline;fill:#000;stroke-width:1;-inkscape-stroke:none;stop-color:#000" transform="translate(-.8 -19.974)scale(.26458)"><tspan x="324.588" y="386.285">W1</tspan></text><text xml:space="preserve" style="font-size:16px;line-height:normal;font-family:&quot;Liberation Mono&quot;;-inkscape-font-specification:&quot;Liberation Mono&quot;;text-decoration-color:#000;white-space:pre;shape-inside:url(#n);display:inline;fill:purple;stroke-width:1;-inkscape-stroke:none;stop-color:#000" transform="translate(-25.228 -22.237)scale(.26458)"><tspan x="324.588" y="386.285">W2</tspan></text><text xml:space="preserve" style="font-size:16px;line-height:normal;font-family:&quot;Liberation Mono&quot;;-inkscape-font-specification:&quot;Liberation Mono&quot;;text-decoration-color:#000;white-space:pre;shape-inside:url(#o);display:inline;fill:#000;stroke-width:1;-inkscape-stroke:none;stop-color:#000" transform="translate(-41.955 4.26)scale(.26458)"><tspan x="212.781" y="205.676">D1</tspan></text><text xml:space="preserve" style="font-size:16px;line-height:normal;font-family:&quot;Liberation Mono&quot;;-inkscape-font-specification:&quot;Liberation Mono&quot;;text-decoration-color:#000;white-space:pre;shape-inside:url(#p);display:inline;fill:#000;stroke-width:1;-inkscape-stroke:none;stop-color:#000" transform="translate(-67.41 43.831)scale(.26458)"><tspan x="304.838" y="234.983">D2</tspan></text><path d="m70.816 74.777 6.995-12.539" style="fill:purple;stroke:#4a0;stroke-width:.264583;stroke-linejoin:round;marker-start:url(#f)"/><path d="m70.65 80.865 7.76-18.36" style="fill:purple;stroke:#4a0;stroke-width:.264582;stroke-linejoin:round;marker-start:url(#f)"/><text xml:space="preserve" style="font-size:16px;line-height:normal;font-family:&quot;Liberation Mono&quot;;-inkscape-font-specification:&quot;Liberation Mono&quot;;text-decoration-color:#000;white-space:pre;shape-inside:url(#q);display:inline;fill:#000;stroke-width:1;-inkscape-stroke:none;stop-color:#000" transform="translate(.715 -7.094)scale(.26458)"><tspan x="291.684" y="261.098">P2</tspan></text><path d="m56.913 85.4 2.264 14.639" style="fill:purple;stroke:#666;stroke-width:.264582;stroke-linejoin:round;marker-start:url(#f)"/><text xml:space="preserve" style="font-size:16px;line-height:normal;font-family:&quot;Liberation Mono&quot;;-inkscape-font-specification:&quot;Liberation Mono&quot;;text-decoration-color:#000;white-space:pre;shape-inside:url(#r);display:inline;fill:#b3b3b3;stroke-width:1;-inkscape-stroke:none;stop-color:#000" transform="translate(.894 2.863)scale(.26458)"><tspan x="214.428" y="380.475">N2</tspan></text><path d="M44.668 73.323s-1.445-2.394-2.348-3.453c-1.117-1.31-2.316-2.602-3.759-3.541-1.708-1.113-3.666-1.853-5.637-2.375-1.335-.353-2.735-.566-4.114-.492-2.609.14-5.273.648-7.637 1.76-2.09.984-3.958 2.493-5.503 4.21-1.453 1.615-2.648 3.524-3.394 5.565a15.4 15.4 0 0 0-.912 5.911c.128 2.808.804 5.656 2.038 8.182.894 1.832 2.244 3.462 3.77 4.815a18 18 0 0 0 5.516 3.34c1.94.734 4.049 1.158 6.122 1.109a19.5 19.5 0 0 0 7.634-1.76c1.994-.92 3.758-2.352 5.29-3.925 1.188-1.218 2.934-4.176 2.934-4.176h64.22s1.78 2.85 2.898 4.093c.932 1.036 1.97 2.002 3.137 2.765a19 19 0 0 0 4.982 2.317c1.563.463 3.212.727 4.842.686 2.213-.056 4.481-.4 6.519-1.264a19.1 19.1 0 0 0 6.463-4.527c1.518-1.633 2.655-3.653 3.432-5.743.696-1.875 1.07-3.912 1.032-5.912-.047-2.438-.486-4.95-1.534-7.152-1.26-2.647-3.25-4.988-5.51-6.854-1.362-1.124-3.01-1.91-4.683-2.476a18.8 18.8 0 0 0-5.719-.964c-1.588-.024-3.203.18-4.72.65-2.12.66-4.149 1.696-5.95 2.994-1.175.846-2.159 1.945-3.079 3.063-.803.976-2.11 3.154-2.11 3.154z" style="fill:none;stroke:#00f;stroke-width:.264583;stroke-linejoin:round"/><path d="M44.668 73.323h64.22M44.536 88.493h64.22" style="fill:none;stroke:#fc0;stroke-width:.264583;stroke-linejoin:round"/><text xml:space="preserve" style="font-size:16px;line-height:normal;font-family:&quot;Liberation Mono&quot;;-inkscape-font-specification:&quot;Liberation Mono&quot;;text-decoration-color:#000;white-space:pre;shape-inside:url(#s);display:inline;fill:#d4aa00;stroke-width:1;-inkscape-stroke:none;stop-color:#000" transform="translate(0 -6.88)scale(.26458)"><tspan x="345.967" y="248.033">J1,J4</tspan></text><path d="m94.04 59.312-.715 13.286" style="fill:#d4aa00;stroke:#fc0;stroke-width:.264583;stroke-linejoin:round;marker-end:url(#f)"/><text xml:space="preserve" style="font-size:16px;line-height:normal;font-family:&quot;Liberation Mono&quot;;-inkscape-font-specification:&quot;Liberation Mono&quot;;text-decoration-color:#000;white-space:pre;shape-inside:url(#t);display:inline;fill:#d4aa00;stroke-width:1;-inkscape-stroke:none;stop-color:#000" transform="translate(-.313 38.74)scale(.26458)"><tspan x="345.967" y="248.033">J2,J3</tspan></text><path d="m67.46 84.693-6.555 15.003" style="fill:purple;stroke:#666;stroke-width:.264582;stroke-linejoin:round;marker-start:url(#f)"/><path d="M36.639 73.254h4.096v15.239h-4.096z" style="fill:none;stroke:#6f8a91;stroke-width:.264583;stroke-linejoin:round"/><path d="M36.639 73.254h4.096s.144-1.215.412-1.752c.27-.542.691-1.016 1.163-1.396a3.6 3.6 0 0 1 1.122-.586c.396-.131 1.236-.2 1.236-.2v-4.047s-1.398.078-2.065.268c-.856.244-1.7.595-2.432 1.1a9 9 0 0 0-2.184 2.17A7 7 0 0 0 37 70.817c-.245.784-.361 2.438-.361 2.438zM44.668 96.544v-4.097s-1.215-.144-1.752-.411c-.542-.27-1.016-.692-1.396-1.163a3.6 3.6 0 0 1-.586-1.122c-.131-.397-.2-1.237-.2-1.237h-4.047s.078 1.398.268 2.066c.244.855.595 1.7 1.1 2.432a9 9 0 0 0 2.17 2.183 7 7 0 0 0 2.005.987c.784.245 2.438.362 2.438.362z" style="fill:none;stroke:#d4aa00;stroke-width:.264583;stroke-linejoin:round"/><path d="M-116.918 73.254h4.096v15.239h-4.096z" style="fill:none;stroke:#6f8a91;stroke-width:.264583;stroke-linejoin:round" transform="scale(-1 1)"/><path d="M116.918 73.254h-4.096s-.144-1.215-.412-1.752c-.27-.542-.691-1.016-1.163-1.396a3.6 3.6 0 0 0-1.122-.586c-.396-.131-1.236-.2-1.236-.2v-4.047s1.397.078 2.065.268c.856.244 1.7.595 2.432 1.1a9 9 0 0 1 2.184 2.17c.434.606.765 1.294.987 2.005.244.784.361 2.438.361 2.438zM108.889 96.544v-4.097s1.215-.144 1.752-.411c.542-.27 1.015-.692 1.395-1.163.265-.329.454-.722.587-1.122.131-.397.199-1.237.199-1.237h4.048s-.079 1.398-.268 2.066c-.244.855-.595 1.7-1.1 2.432a9 9 0 0 1-2.171 2.183 7 7 0 0 1-2.004.987c-.784.245-2.438.362-2.438.362z" style="fill:none;stroke:#d4aa00;stroke-width:.264583;stroke-linejoin:round"/><path d="m113.033 58.412-.715 6.839" style="fill:#d4aa00;stroke:#fc0;stroke-width:.264583;stroke-linejoin:round;marker-end:url(#u)"/><text xml:space="preserve" style="font-size:16px;line-height:normal;font-family:&quot;Liberation Mono&quot;;-inkscape-font-specification:&quot;Liberation Mono&quot;;text-decoration-color:#000;white-space:pre;shape-inside:url(#v);display:inline;fill:#d4aa00;stroke-width:1;-inkscape-stroke:none;stop-color:#000" transform="translate(19.474 -7.934)scale(.26458)"><tspan x="345.967" y="248.033">J12</tspan></text><text xml:space="preserve" style="font-size:16px;line-height:normal;font-family:&quot;Liberation Mono&quot;;-inkscape-font-specification:&quot;Liberation Mono&quot;;text-decoration-color:#000;white-space:pre;shape-inside:url(#w);display:inline;fill:#d4aa00;stroke-width:1;-inkscape-stroke:none;stop-color:#000" transform="translate(19.747 39.974)scale(.26458)"><tspan x="345.967" y="248.033">J21</tspan></text><path d="m113.559 102.1-.716-5.596" style="fill:#d4aa00;stroke:#fc0;stroke-width:.264583;stroke-linejoin:round;marker-end:url(#x)"/><path d="m40.65 102.304.715-5.475" style="fill:#d4aa00;stroke:#fc0;stroke-width:.264583;stroke-linejoin:round;marker-end:url(#y)"/><text xml:space="preserve" style="font-size:16px;line-height:normal;font-family:&quot;Liberation Mono&quot;;-inkscape-font-specification:&quot;Liberation Mono&quot;;text-decoration-color:#000;white-space:pre;shape-inside:url(#z);display:inline;fill:#d4aa00;stroke-width:1;-inkscape-stroke:none;stop-color:#000" transform="translate(-53.564 40.242)scale(.26458)"><tspan x="345.967" y="248.033">J22</tspan></text></g></svg>