<svg xmlns="http://www.w3.org/2000/svg" width="449.675" height="320.839" viewBox="0 0 118.977 84.889"><defs><marker id="a" markerHeight="1" markerWidth="1" orient="auto-start-reverse" preserveAspectRatio="xMidYMid" refX="0" refY="0" style="overflow:visible" viewBox="0 0 1 1"><path d="M3-3 0 0l3 3" style="fill:none;stroke:context-stroke;stroke-width:1;stroke-linecap:butt" transform="rotate(180 .125 0)"/></marker><marker id="b" markerHeight="1" markerWidth="1" orient="auto-start-reverse" preserveAspectRatio="xMidYMid" refX="0" refY="0" style="overflow:visible" viewBox="0 0 1 1"><path d="M3-3 0 0l3 3" style="fill:none;stroke:context-stroke;stroke-width:1;stroke-linecap:butt" transform="rotate(180 .125 0)"/></marker><marker id="f" markerHeight="1" markerWidth="1" orient="auto-start-reverse" preserveAspectRatio="xMidYMid" refX="0" refY="0" style="overflow:visible" viewBox="0 0 1 1"><path d="M3-3 0 0l3 3" style="fill:none;stroke:context-stroke;stroke-width:1;stroke-linecap:butt" transform="rotate(180 .125 0)"/></marker><marker id="h" markerHeight="1" markerWidth="1" orient="auto-start-reverse" preserveAspectRatio="xMidYMid" refX="0" refY="0" style="overflow:visible" viewBox="0 0 1 1"><path d="M3-3 0 0l3 3" style="fill:none;stroke:context-stroke;stroke-width:1;stroke-linecap:butt" transform="rotate(180 .125 0)"/></marker><marker id="i" markerHeight="1" markerWidth="1" orient="auto-start-reverse" preserveAspectRatio="xMidYMid" refX="0" refY="0" style="overflow:visible" viewBox="0 0 1 1"><path d="M3-3 0 0l3 3" style="fill:none;stroke:context-stroke;stroke-width:1;stroke-linecap:butt" transform="rotate(180 .125 0)"/></marker><marker id="j" markerHeight="1" markerWidth="1" orient="auto-start-reverse" preserveAspectRatio="xMidYMid" refX="0" refY="0" style="overflow:visible" viewBox="0 0 1 1"><path d="M3-3 0 0l3 3" style="fill:none;stroke:context-stroke;stroke-width:1;stroke-linecap:butt" transform="rotate(180 .125 0)"/></marker><marker id="k" markerHeight="1" markerWidth="1" orient="auto-start-reverse" preserveAspectRatio="xMidYMid" refX="0" refY="0" style="overflow:visible" viewBox="0 0 1 1"><path d="M3-3 0 0l3 3" style="fill:none;stroke:context-stroke;stroke-width:1;stroke-linecap:butt" transform="rotate(180 .125 0)"/></marker><marker id="l" markerHeight="1" markerWidth="1" orient="auto-start-reverse" preserveAspectRatio="xMidYMid" refX="0" refY="0" style="overflow:visible" viewBox="0 0 1 1"><path d="M3-3 0 0l3 3" style="fill:none;stroke:context-stroke;stroke-width:1;stroke-linecap:butt" transform="rotate(180 .125 0)"/></marker><marker id="p" markerHeight="1" markerWidth="1" orient="auto-start-reverse" preserveAspectRatio="xMidYMid" refX="0" refY="0" style="overflow:visible" viewBox="0 0 1 1"><path d="M3-3 0 0l3 3" style="fill:none;stroke:context-stroke;stroke-width:1;stroke-linecap:butt" transform="rotate(180 .125 0)"/></marker><marker id="q" markerHeight="1" markerWidth="1" orient="auto-start-reverse" preserveAspectRatio="xMidYMid" refX="0" refY="0" style="overflow:visible" viewBox="0 0 1 1"><path d="M3-3 0 0l3 3" style="fill:none;stroke:context-stroke;stroke-width:1;stroke-linecap:butt" transform="rotate(180 .125 0)"/></marker><marker id="s" markerHeight="1" markerWidth="1" orient="auto-start-reverse" preserveAspectRatio="xMidYMid" refX="0" refY="0" style="overflow:visible" viewBox="0 0 1 1"><path d="M3-3 0 0l3 3" style="fill:none;stroke:context-stroke;stroke-width:1;stroke-linecap:butt" transform="rotate(180 .125 0)"/></marker><marker id="u" markerHeight="1" markerWidth="1" orient="auto-start-reverse" preserveAspectRatio="xMidYMid" refX="0" refY="0" style="overflow:visible" viewBox="0 0 1 1"><path d="M3-3 0 0l3 3" style="fill:none;stroke:context-stroke;stroke-width:1;stroke-linecap:butt" transform="rotate(180 .125 0)"/></marker><marker id="x" markerHeight="1" markerWidth="1" orient="auto-start-reverse" preserveAspectRatio="xMidYMid" refX="0" refY="0" style="overflow:visible" viewBox="0 0 1 1"><path d="M3-3 0 0l3 3" style="fill:none;stroke:context-stroke;stroke-width:1;stroke-linecap:butt" transform="rotate(180 .125 0)"/></marker><marker id="z" markerHeight="1" markerWidth="1" orient="auto-start-reverse" preserveAspectRatio="xMidYMid" refX="0" refY="0" style="overflow:visible" viewBox="0 0 1 1"><path d="M3-3 0 0l3 3" style="fill:none;stroke:context-stroke;stroke-width:1;stroke-linecap:butt" transform="rotate(180 .125 0)"/></marker><marker id="v" markerHeight="1" markerWidth="1" orient="auto-start-reverse" preserveAspectRatio="xMidYMid" refX="0" refY="0" style="overflow:visible" viewBox="0 0 1 1"><path d="M3-3 0 0l3 3" style="fill:none;stroke:context-stroke;stroke-width:1;stroke-linecap:butt" transform="rotate(180 .125 0)"/></marker><marker id="C" markerHeight="1" markerWidth="1" orient="auto-start-reverse" preserveAspectRatio="xMidYMid" refX="0" refY="0" style="overflow:visible" viewBox="0 0 1 1"><path d="M3-3 0 0l3 3" style="fill:none;stroke:context-stroke;stroke-width:1;stroke-linecap:butt" transform="rotate(180 .125 0)"/></marker><marker id="E" markerHeight="1" markerWidth="1" orient="auto-start-reverse" preserveAspectRatio="xMidYMid" refX="0" refY="0" style="overflow:visible" viewBox="0 0 1 1"><path d="M3-3 0 0l3 3" style="fill:none;stroke:context-stroke;stroke-width:1;stroke-linecap:butt" transform="rotate(180 .125 0)"/></marker><marker id="G" markerHeight="1" markerWidth="1" orient="auto-start-reverse" preserveAspectRatio="xMidYMid" refX="0" refY="0" style="overflow:visible" viewBox="0 0 1 1"><path d="M3-3 0 0l3 3" style="fill:none;stroke:context-stroke;stroke-width:1;stroke-linecap:butt" transform="rotate(180 .125 0)"/></marker><path id="F" d="M279.356 528.132h43.801v30.579h-43.801z"/><path id="e" d="M170.956 480.659h39.192v24.101h-39.192z"/><path id="d" d="M295.063 631.569h51.097v29.017h-51.097z"/><path id="c" d="M288.306 559.042h47.751v42.345h-47.751z"/><path id="g" d="M170.956 480.659h39.192v24.101h-39.192z"/><path id="m" d="M324.588 372.05h41.41v23.572h-41.41z"/><path id="n" d="M291.684 246.862h32.209v21.848h-32.209z"/><path id="o" d="M214.427 366.238h34.462v24.101h-34.462z"/><path id="r" d="M345.967 233.798h63.517v28.38h-63.517z"/><path id="t" d="M345.967 233.798h63.517v28.38h-63.517z"/><path id="w" d="M345.967 233.798h63.517v28.38h-63.517z"/><path id="y" d="M345.967 233.798h63.517v28.38h-63.517z"/><path id="A" d="M295.063 631.569h51.097v29.017h-51.097z"/><path id="B" d="M345.967 233.798h85.591v31.533h-85.591z"/><path id="D" d="M345.967 233.798H423.9v30.182h-77.933z"/><path id="H" d="M279.356 528.132h43.801v30.579h-43.801z"/></defs><g transform="translate(-24.897 -146.232)"><path d="M25.03 146.364h118.712v84.624H25.03z" style="fill:#fff;stroke:#fff;stroke-width:.264583;stroke-linejoin:round"/><path d="M133.904 162.664H138v44.295h-4.096zM47.78 162.64h4.096v44.295H47.78z" style="fill:#d5d5ff;stroke:#00f;stroke-width:.264583;stroke-linejoin:round"/><path d="M47.78 175.023h4.096v19.529H47.78z" style="fill:#d5d5ff;stroke:#6f8a91;stroke-width:.264583;stroke-linejoin:round"/><path d="m47.647 162.685-15.523-.045M47.647 206.935l-15.523-.045M47.694 175.068l-7.797-.045M47.777 194.552l-7.798-.045" style="fill:#d5d5ff;stroke:#b7c8b7;stroke-width:.264583;stroke-linejoin:round"/><path d="m42.543 175.14.082 18.976" style="fill:#d5d5ff;stroke:#536c53;stroke-width:.264583;stroke-linejoin:round;marker-start:url(#a);marker-end:url(#a)"/><path d="m33.01 163.015.082 43.546" style="fill:#d5d5ff;stroke:#536c53;stroke-width:.264583;stroke-linejoin:round;marker-start:url(#b);marker-end:url(#b)"/><text xml:space="preserve" style="font-size:16px;line-height:normal;font-family:&quot;Liberation Mono&quot;;-inkscape-font-specification:&quot;Liberation Mono&quot;;text-decoration-color:#000;white-space:pre;shape-inside:url(#c);display:inline;fill:#000;stroke-width:1;-inkscape-stroke:none;stop-color:#000" transform="translate(-39.174 34.446)scale(.26458)"><tspan x="288.305" y="573.279">W1</tspan></text><text xml:space="preserve" style="font-size:16px;line-height:normal;font-family:&quot;Liberation Mono&quot;;-inkscape-font-specification:&quot;Liberation Mono&quot;;text-decoration-color:#000;white-space:pre;shape-inside:url(#d);display:inline;fill:#000;stroke-width:1;-inkscape-stroke:none;stop-color:#000" transform="translate(-51.436 15.25)scale(.26458)"><tspan x="295.063" y="645.807">D2</tspan></text><path d="m47.78 162.64.045-7.797M51.876 162.513l.045-7.797" style="fill:#d5d5ff;stroke:#b7c8b7;stroke-width:.264583;stroke-linejoin:round"/><path d="M47.78 155.105h4.096" style="fill:#d5d5ff;stroke:#536c53;stroke-width:.264583;stroke-linejoin:round;marker-start:url(#a);marker-end:url(#a)"/><text xml:space="preserve" style="font-size:16px;line-height:normal;font-family:&quot;Liberation Mono&quot;;-inkscape-font-specification:&quot;Liberation Mono&quot;;text-decoration-color:#000;white-space:pre;shape-inside:url(#e);display:inline;fill:#000;stroke-width:1;-inkscape-stroke:none;stop-color:#000" transform="translate(2.153 22.472)scale(.26458)"><tspan x="170.957" y="494.897">T1</tspan></text><path d="M47.78 175.023h4.096s.144-1.215.411-1.752c.27-.542.692-1.016 1.163-1.396a3.6 3.6 0 0 1 1.122-.586c.397-.131 1.237-.2 1.237-.2v-4.047s-1.398.078-2.066.268c-.855.244-1.699.595-2.431 1.1a9 9 0 0 0-2.184 2.17 7 7 0 0 0-.987 2.005c-.245.784-.361 2.438-.361 2.438z" style="fill:none;stroke:#d4aa00;stroke-width:.264583;stroke-linejoin:round"/><path d="M167.018-129.995h4.096v74.175h-4.096z" style="fill:#d5d5ff;stroke:#00f;stroke-width:.264584;stroke-linejoin:round" transform="rotate(90)"/><path d="M129.995 167.018v4.096s1.215.144 1.752.412c.542.27 1.015.691 1.395 1.162.265.329.453.722.586 1.123.132.396.2 1.236.2 1.236h4.048s-.079-1.398-.269-2.065c-.243-.856-.594-1.7-1.1-2.432a9 9 0 0 0-2.17-2.184 7 7 0 0 0-2.004-.987c-.785-.245-2.438-.361-2.438-.361z" style="fill:none;stroke:#d4aa00;stroke-width:.264583;stroke-linejoin:round"/><path d="M133.904 175.047H138v19.529h-4.096z" style="fill:#d5d5ff;stroke:#6f8a91;stroke-width:.264583;stroke-linejoin:round"/><path d="M138 194.576h-4.096s-.144 1.216-.412 1.752c-.27.542-.692 1.016-1.163 1.396a3.6 3.6 0 0 1-1.122.586c-.396.132-1.236.2-1.236.2v4.048s1.397-.08 2.065-.269c.856-.243 1.7-.595 2.432-1.1a9 9 0 0 0 2.183-2.17 7 7 0 0 0 .987-2.005c.245-.784.362-2.438.362-2.438z" style="fill:none;stroke:#d4aa00;stroke-width:.264583;stroke-linejoin:round"/><path d="M198.486-129.959h4.096v74.175h-4.096z" style="fill:#d5d5ff;stroke:#00f;stroke-width:.264584;stroke-linejoin:round" transform="rotate(90)"/><path d="M55.785 202.582v-4.096s-1.215-.144-1.752-.412c-.542-.27-1.016-.692-1.396-1.163a3.6 3.6 0 0 1-.586-1.122c-.132-.396-.2-1.237-.2-1.237h-4.048s.08 1.398.27 2.066c.242.855.594 1.7 1.099 2.432a9 9 0 0 0 2.17 2.183 7 7 0 0 0 2.005.987c.784.245 2.438.362 2.438.362z" style="fill:none;stroke:#d4aa00;stroke-width:.264583;stroke-linejoin:round"/><path d="M175.068-119.929h19.529v54.044h-19.529z" style="fill:#d5d5ff;stroke:#00f;stroke-width:.264584;stroke-linejoin:round" transform="rotate(90)"/><path d="M171.114-119.929h3.954v54.044h-3.954z" style="fill:#fff6d5;stroke:#d4aa00;stroke-width:.264584;stroke-linejoin:round" transform="rotate(90)"/><path d="M194.597-119.929h3.888v54.044h-3.888z" style="fill:#fff6d5;stroke:#d4aa00;stroke-width:.264583;stroke-linejoin:round" transform="rotate(90)"/><path d="M63.56 167.36v3.41" style="fill:#d5d5ff;stroke:#536c53;stroke-width:.264583;stroke-linejoin:round;marker-start:url(#f);marker-end:url(#f)"/><text xml:space="preserve" style="font-size:16px;line-height:normal;font-family:&quot;Liberation Mono&quot;;-inkscape-font-specification:&quot;Liberation Mono&quot;;text-decoration-color:#000;white-space:pre;shape-inside:url(#g);display:inline;fill:#000;stroke-width:1;-inkscape-stroke:none;stop-color:#000" transform="translate(19.328 39.519)scale(.26458)"><tspan x="170.957" y="494.897">T1</tspan></text><circle cx="75.76" cy="184.833" r="3.961" style="fill:#fff;stroke:#00f;stroke-width:.264583;stroke-linejoin:round"/><circle cx="89.595" cy="184.833" r="3.961" style="fill:#fff;stroke:#00f;stroke-width:.264583;stroke-linejoin:round"/><path d="M65.885 184.833h5.913" style="fill:none;stroke:purple;stroke-width:.264583;stroke-linejoin:round;marker-start:url(#h);marker-end:url(#h)"/><path d="M79.72 184.833h5.914" style="fill:none;stroke:purple;stroke-width:.264583;stroke-linejoin:round;marker-start:url(#i);marker-end:url(#i)"/><path d="M89.518 188.715v-7.764" style="fill:none;stroke:teal;stroke-width:.264583;stroke-linejoin:round;marker-start:url(#j);marker-end:url(#j)"/><path d="M89.518 180.58v-5.087" style="fill:none;stroke:teal;stroke-width:.264583;stroke-linejoin:round;marker-start:url(#k);marker-end:url(#k)"/><path d="M89.518 194.158v-5.238" style="fill:none;stroke:teal;stroke-width:.264582;stroke-linejoin:round;marker-start:url(#l);marker-end:url(#l)"/><text xml:space="preserve" style="font-size:16px;line-height:normal;font-family:&quot;Liberation Mono&quot;;-inkscape-font-specification:&quot;Liberation Mono&quot;;text-decoration-color:#000;white-space:pre;shape-inside:url(#m);display:inline;fill:purple;stroke-width:1;-inkscape-stroke:none;stop-color:#000" transform="translate(-5.598 81.687)scale(.26458)"><tspan x="324.588" y="386.285">W2</tspan></text><path d="m90.816 178.716 7.445-14.051" style="fill:purple;stroke:#4a0;stroke-width:.264583;stroke-linejoin:round;marker-start:url(#h)"/><path d="m90.637 184.794 8.65-20.011" style="fill:purple;stroke:#4a0;stroke-width:.264583;stroke-linejoin:round;marker-start:url(#h)"/><text xml:space="preserve" style="font-size:16px;line-height:normal;font-family:&quot;Liberation Mono&quot;;-inkscape-font-specification:&quot;Liberation Mono&quot;;text-decoration-color:#000;white-space:pre;shape-inside:url(#n);display:inline;fill:#000;stroke-width:1;-inkscape-stroke:none;stop-color:#000" transform="translate(20.75 94.993)scale(.26458)"><tspan x="291.684" y="261.098">P2</tspan></text><path d="m75.76 189.852 2.383 16.09" style="fill:purple;stroke:#666;stroke-width:.264583;stroke-linejoin:round;marker-start:url(#h)"/><path d="m86.748 188.685-7.012 16.965" style="fill:purple;stroke:#666;stroke-width:.264584;stroke-linejoin:round;marker-start:url(#h)"/><text xml:space="preserve" style="font-size:16px;line-height:normal;font-family:&quot;Liberation Mono&quot;;-inkscape-font-specification:&quot;Liberation Mono&quot;;text-decoration-color:#000;white-space:pre;shape-inside:url(#o);display:inline;fill:#b3b3b3;stroke-width:1;-inkscape-stroke:none;stop-color:#000" transform="translate(19.74 108.904)scale(.26458)"><tspan x="214.428" y="380.475">N2b</tspan></text><path d="m54.914 209.256-.715-5.84" style="fill:#d4aa00;stroke:#fc0;stroke-width:.264583;stroke-linejoin:round;marker-end:url(#p)"/><circle cx="110.055" cy="184.833" r="3.961" style="fill:#fff;stroke:#00f;stroke-width:.264583;stroke-linejoin:round"/><path d="M114.016 184.833h5.913" style="fill:none;stroke:purple;stroke-width:.264583;stroke-linejoin:round;marker-start:url(#q);marker-end:url(#q)"/><text xml:space="preserve" style="font-size:16px;line-height:normal;font-family:&quot;Liberation Mono&quot;;-inkscape-font-specification:&quot;Liberation Mono&quot;;text-decoration-color:#000;white-space:pre;shape-inside:url(#r);display:inline;fill:#d4aa00;stroke-width:1;-inkscape-stroke:none;stop-color:#000" transform="translate(-39.083 147.023)scale(.26458)"><tspan x="345.967" y="248.033">J2</tspan></text><path d="m131.269 209.02.715-5.84" style="fill:#d4aa00;stroke:#fc0;stroke-width:.264583;stroke-linejoin:round;marker-end:url(#s)"/><text xml:space="preserve" style="font-size:16px;line-height:normal;font-family:&quot;Liberation Mono&quot;;-inkscape-font-specification:&quot;Liberation Mono&quot;;text-decoration-color:#000;white-space:pre;shape-inside:url(#t);display:inline;fill:#d4aa00;stroke-width:1;-inkscape-stroke:none;stop-color:#000" transform="translate(36.669 147.321)scale(.26458)"><tspan x="345.967" y="248.033">J3</tspan></text><path d="m130.601 160.328.715 5.84" style="fill:#d4aa00;stroke:#fc0;stroke-width:.264583;stroke-linejoin:round;marker-end:url(#u)"/><path d="m75.274 160.312.715 12.493" style="fill:#d4aa00;stroke:#fc0;stroke-width:.264583;stroke-linejoin:round;marker-end:url(#v)"/><text xml:space="preserve" style="font-size:16px;line-height:normal;font-family:&quot;Liberation Mono&quot;;-inkscape-font-specification:&quot;Liberation Mono&quot;;text-decoration-color:#000;white-space:pre;shape-inside:url(#w);display:inline;fill:#d4aa00;stroke-width:1;-inkscape-stroke:none;stop-color:#000" transform="translate(35.838 93.172)scale(.26458)"><tspan x="345.967" y="248.033">J4</tspan></text><path d="m54.487 160.59-.715 5.84" style="fill:#d4aa00;stroke:#fc0;stroke-width:.264583;stroke-linejoin:round;marker-end:url(#x)"/><text xml:space="preserve" style="font-size:16px;line-height:normal;font-family:&quot;Liberation Mono&quot;;-inkscape-font-specification:&quot;Liberation Mono&quot;;text-decoration-color:#000;white-space:pre;shape-inside:url(#y);display:inline;fill:#d4aa00;stroke-width:1;-inkscape-stroke:none;stop-color:#000" transform="translate(-38.538 93.99)scale(.26458)"><tspan x="345.967" y="248.033">J1</tspan></text><path d="m47.825 207.068-.045 15.522M138 207.092l-.045 15.522" style="fill:#d5d5ff;stroke:#b7c8b7;stroke-width:.264583;stroke-linejoin:round"/><path d="m137.76 222.508-89.63.082" style="fill:#d5d5ff;stroke:#536c53;stroke-width:.264583;stroke-linejoin:round;marker-start:url(#z);marker-end:url(#z)"/><text xml:space="preserve" style="font-size:16px;line-height:normal;font-family:&quot;Liberation Mono&quot;;-inkscape-font-specification:&quot;Liberation Mono&quot;;text-decoration-color:#000;white-space:pre;shape-inside:url(#A);display:inline;fill:#000;stroke-width:1;-inkscape-stroke:none;stop-color:#000" transform="translate(12.465 55.22)scale(.26458)"><tspan x="295.063" y="645.807">L2</tspan></text><text xml:space="preserve" style="font-size:16px;line-height:normal;font-family:&quot;Liberation Mono&quot;;-inkscape-font-specification:&quot;Liberation Mono&quot;;text-decoration-color:#000;white-space:pre;shape-inside:url(#B);display:inline;fill:#d4aa00;stroke-width:1;-inkscape-stroke:none;stop-color:#000" transform="translate(-20.085 93.947)scale(.26458)"><tspan x="345.967" y="248.033">J11,J12</tspan></text><path d="m99.107 209.462.715-12.494" style="fill:#d4aa00;stroke:#fc0;stroke-width:.264583;stroke-linejoin:round;marker-end:url(#C)"/><text xml:space="preserve" style="font-size:16px;line-height:normal;font-family:&quot;Liberation Mono&quot;;-inkscape-font-specification:&quot;Liberation Mono&quot;;text-decoration-color:#000;white-space:pre;shape-inside:url(#D);display:inline;fill:#d4aa00;stroke-width:1;-inkscape-stroke:none;stop-color:#000" transform="translate(4.352 147.37)scale(.26458)"><tspan x="345.967" y="248.033">J21,J22</tspan></text><path d="M52.272 190.489h13.222" style="fill:none;stroke:#f60;stroke-width:.264582;stroke-linejoin:round;marker-start:url(#E);marker-end:url(#E)"/><text xml:space="preserve" style="font-size:16px;line-height:normal;font-family:&quot;Liberation Mono&quot;;-inkscape-font-specification:&quot;Liberation Mono&quot;;text-decoration-color:#000;white-space:pre;shape-inside:url(#F);display:inline;fill:#f60;stroke-width:1;-inkscape-stroke:none;stop-color:#000" transform="translate(-16.94 46.1)scale(.26458)"><tspan x="279.355" y="542.369">E1</tspan></text><path d="M120.315 190.652h13.222" style="fill:none;stroke:#f60;stroke-width:.264582;stroke-linejoin:round;marker-start:url(#G);marker-end:url(#G)"/><text xml:space="preserve" style="font-size:16px;line-height:normal;font-family:&quot;Liberation Mono&quot;;-inkscape-font-specification:&quot;Liberation Mono&quot;;text-decoration-color:#000;white-space:pre;shape-inside:url(#H);display:inline;fill:#f60;stroke-width:1;-inkscape-stroke:none;stop-color:#000" transform="translate(50.959 46.263)scale(.26458)"><tspan x="279.355" y="542.369">E1</tspan></text></g></svg>