<svg xmlns="http://www.w3.org/2000/svg" width="532.317" height="467.336" viewBox="0 0 140.842 123.649"><defs><path id="w" d="M373.896 535.167h233.347v111.268H373.896z"/><path id="v" d="M186.498 521.653h56.31v34.687h-56.31z"/><path id="r" d="M278.719 539.281h39.817v27.713h-39.817z"/><path id="g" d="M326.181 552.341h72.151v31.216h-72.151z"/><path id="d" d="M133.887 552.341h52.138v21.66h-52.138z"/><path id="b" d="M309.617 127.414h61.159v32.491h-61.159z"/><path id="c" d="M309.617 127.414h61.159v32.491h-61.159z"/><path id="e" d="M133.887 552.341h52.138v21.66h-52.138z"/><path id="i" d="M326.181 552.341h72.151v31.216h-72.151z"/><path id="k" d="M326.181 552.341h72.151v31.216h-72.151z"/><path id="m" d="M326.181 552.341h72.151v31.216h-72.151z"/><path id="s" d="M278.719 539.281h39.817v27.713h-39.817z"/><marker id="a" markerHeight="1" markerWidth="1" orient="auto-start-reverse" preserveAspectRatio="xMidYMid" refX="0" refY="0" style="overflow:visible" viewBox="0 0 1 1"><path d="M3-3 0 0l3 3" style="fill:none;stroke:context-stroke;stroke-width:1;stroke-linecap:butt" transform="rotate(180 .125 0)"/></marker><marker id="f" markerHeight="1" markerWidth="1" orient="auto-start-reverse" preserveAspectRatio="xMidYMid" refX="0" refY="0" style="overflow:visible" viewBox="0 0 1 1"><path d="M3-3 0 0l3 3" style="fill:none;stroke:context-stroke;stroke-width:1;stroke-linecap:butt" transform="rotate(180 .125 0)"/></marker><marker id="h" markerHeight="1" markerWidth="1" orient="auto-start-reverse" preserveAspectRatio="xMidYMid" refX="0" refY="0" style="overflow:visible" viewBox="0 0 1 1"><path d="M3-3 0 0l3 3" style="fill:none;stroke:context-stroke;stroke-width:1;stroke-linecap:butt" transform="rotate(180 .125 0)"/></marker><marker id="j" markerHeight="1" markerWidth="1" orient="auto-start-reverse" preserveAspectRatio="xMidYMid" refX="0" refY="0" style="overflow:visible" viewBox="0 0 1 1"><path d="M3-3 0 0l3 3" style="fill:none;stroke:context-stroke;stroke-width:1;stroke-linecap:butt" transform="rotate(180 .125 0)"/></marker><marker id="l" markerHeight="1" markerWidth="1" orient="auto-start-reverse" preserveAspectRatio="xMidYMid" refX="0" refY="0" style="overflow:visible" viewBox="0 0 1 1"><path d="M3-3 0 0l3 3" style="fill:none;stroke:context-stroke;stroke-width:1;stroke-linecap:butt" transform="rotate(180 .125 0)"/></marker><marker id="n" markerHeight="1" markerWidth="1" orient="auto-start-reverse" preserveAspectRatio="xMidYMid" refX="0" refY="0" style="overflow:visible" viewBox="0 0 1 1"><path d="M3-3 0 0l3 3" style="fill:none;stroke:context-stroke;stroke-width:1;stroke-linecap:butt" transform="rotate(180 .125 0)"/></marker><marker id="o" markerHeight="1" markerWidth="1" orient="auto-start-reverse" preserveAspectRatio="xMidYMid" refX="0" refY="0" style="overflow:visible" viewBox="0 0 1 1"><path d="M3-3 0 0l3 3" style="fill:none;stroke:context-stroke;stroke-width:1;stroke-linecap:butt" transform="rotate(180 .125 0)"/></marker><marker id="p" markerHeight="1" markerWidth="1" orient="auto-start-reverse" preserveAspectRatio="xMidYMid" refX="0" refY="0" style="overflow:visible" viewBox="0 0 1 1"><path d="M3-3 0 0l3 3" style="fill:none;stroke:context-stroke;stroke-width:1;stroke-linecap:butt" transform="rotate(180 .125 0)"/></marker><marker id="q" markerHeight="1" markerWidth="1" orient="auto-start-reverse" preserveAspectRatio="xMidYMid" refX="0" refY="0" style="overflow:visible" viewBox="0 0 1 1"><path d="M3-3 0 0l3 3" style="fill:none;stroke:context-stroke;stroke-width:1;stroke-linecap:butt" transform="rotate(180 .125 0)"/></marker><marker id="t" markerHeight="1" markerWidth="1" orient="auto-start-reverse" preserveAspectRatio="xMidYMid" refX="0" refY="0" style="overflow:visible" viewBox="0 0 1 1"><path d="M3-3 0 0l3 3" style="fill:none;stroke:context-stroke;stroke-width:1;stroke-linecap:butt" transform="rotate(180 .125 0)"/></marker><marker id="u" markerHeight="1" markerWidth="1" orient="auto-start-reverse" preserveAspectRatio="xMidYMid" refX="0" refY="0" style="overflow:visible" viewBox="0 0 1 1"><path d="M3-3 0 0l3 3" style="fill:none;stroke:context-stroke;stroke-width:1;stroke-linecap:butt" transform="rotate(180 .125 0)"/></marker></defs><path d="M12.473 28.655h140.578V152.04H12.473z" style="fill:#fff;stroke:#fff;stroke-width:.264583;stroke-linejoin:round;stroke-dasharray:none" transform="translate(-12.341 -28.523)"/><path d="M18.144 48.77v83.457h118.332V48.769Z" style="fill:#fff6d5;stroke:#d4aa00;stroke-width:.264583;stroke-linejoin:round" transform="translate(-12.341 -28.523)"/><path d="M20.79 51.415v78.166h113.04V51.415z" style="fill:#fff;stroke:#d4aa00;stroke-width:.264583;stroke-linejoin:round" transform="translate(-12.341 -28.523)"/><path d="M29.206 59.832V86.29h26.459V59.832Z" style="fill:#fff6d5;stroke:#d4aa00;stroke-width:.264583;stroke-linejoin:round" transform="translate(-12.341 -28.523)"/><path d="M31.852 62.477v21.167H53.02V62.477z" style="fill:#f2f2f2;stroke:#d4aa00;stroke-width:.264583;stroke-linejoin:round" transform="translate(-12.341 -28.523)"/><path d="M-79.94 29.206h5.913v2.646h-5.913zM-70.575 29.206h5.913v2.646h-5.913z" style="fill:#f4e3d7;stroke:#a05a2c;stroke-width:.264583;stroke-linejoin:round" transform="rotate(-90 -20.432 -8.09)"/><path d="M35.775 59.832h5.913v2.646h-5.913zM35.556 83.644h5.913v2.646h-5.913z" style="fill:#f4e3d7;stroke:#a05a2c;stroke-width:.264583;stroke-linejoin:round" transform="translate(-12.341 -28.523)"/><path d="M64.081 59.832V86.29H90.54V59.832Z" style="fill:#fff6d5;stroke:#d4aa00;stroke-width:.264583;stroke-linejoin:round" transform="translate(-12.341 -28.523)"/><path d="M66.727 62.477v21.167h21.167V62.477z" style="fill:#f2f2f2;stroke:#d4aa00;stroke-width:.264583;stroke-linejoin:round" transform="translate(-12.341 -28.523)"/><path d="M-79.94 64.081h5.913v2.646h-5.913zM-70.575 64.081h5.913v2.646h-5.913z" style="fill:#f4e3d7;stroke:#a05a2c;stroke-width:.264583;stroke-linejoin:round" transform="rotate(-90 -20.432 -8.09)"/><path d="M70.649 59.832h5.913v2.646h-5.913zM70.431 83.644h5.913v2.646h-5.913z" style="fill:#f4e3d7;stroke:#a05a2c;stroke-width:.264583;stroke-linejoin:round" transform="translate(-12.341 -28.523)"/><path d="M98.956 59.832V86.29h26.458V59.832Z" style="fill:#fff6d5;stroke:#d4aa00;stroke-width:.264583;stroke-linejoin:round" transform="translate(-12.341 -28.523)"/><path d="M101.602 62.477v21.167h21.166V62.477z" style="fill:#f2f2f2;stroke:#d4aa00;stroke-width:.264583;stroke-linejoin:round" transform="translate(-12.341 -28.523)"/><path d="M-79.94 98.956h5.913v2.646h-5.913zM-70.575 98.956h5.913v2.646h-5.913z" style="fill:#f4e3d7;stroke:#a05a2c;stroke-width:.264583;stroke-linejoin:round" transform="rotate(-90 -20.432 -8.09)"/><path d="M105.524 59.832h5.913v2.646h-5.913zM105.306 83.644h5.913v2.646h-5.913z" style="fill:#f4e3d7;stroke:#a05a2c;stroke-width:.264583;stroke-linejoin:round" transform="translate(-12.341 -28.523)"/><path d="M29.206 94.706v26.459h26.459V94.706Z" style="fill:#fff6d5;stroke:#d4aa00;stroke-width:.264583;stroke-linejoin:round" transform="translate(-12.341 -28.523)"/><path d="M31.852 97.352v21.167H53.02V97.352z" style="fill:#f2f2f2;stroke:#d4aa00;stroke-width:.264583;stroke-linejoin:round" transform="translate(-12.341 -28.523)"/><path d="M-114.815 29.206h5.913v2.646h-5.913zM-105.45 29.206h5.913v2.646h-5.913z" style="fill:#f4e3d7;stroke:#a05a2c;stroke-width:.264583;stroke-linejoin:round" transform="rotate(-90 -20.432 -8.09)"/><path d="M35.775 94.706h5.913v2.646h-5.913zM35.556 118.519h5.913v2.646h-5.913z" style="fill:#f4e3d7;stroke:#a05a2c;stroke-width:.264583;stroke-linejoin:round" transform="translate(-12.341 -28.523)"/><path d="M64.081 94.706v26.459H90.54V94.706Z" style="fill:#fff6d5;stroke:#d4aa00;stroke-width:.264583;stroke-linejoin:round" transform="translate(-12.341 -28.523)"/><path d="M66.727 97.352v21.167h21.167V97.352z" style="fill:#f2f2f2;stroke:#d4aa00;stroke-width:.264583;stroke-linejoin:round" transform="translate(-12.341 -28.523)"/><path d="M-114.815 64.081h5.913v2.646h-5.913zM-105.45 64.081h5.913v2.646h-5.913z" style="fill:#f4e3d7;stroke:#a05a2c;stroke-width:.264583;stroke-linejoin:round" transform="rotate(-90 -20.432 -8.09)"/><path d="M70.649 94.706h5.913v2.646h-5.913zM70.431 118.519h5.913v2.646h-5.913z" style="fill:#f4e3d7;stroke:#a05a2c;stroke-width:.264583;stroke-linejoin:round" transform="translate(-12.341 -28.523)"/><path d="M98.956 94.706v26.459h26.458V94.706Z" style="fill:#fff6d5;stroke:#d4aa00;stroke-width:.264583;stroke-linejoin:round" transform="translate(-12.341 -28.523)"/><path d="M101.602 97.352v21.167h21.166V97.352z" style="fill:#f2f2f2;stroke:#d4aa00;stroke-width:.264583;stroke-linejoin:round" transform="translate(-12.341 -28.523)"/><path d="M-114.815 98.956h5.913v2.646h-5.913zM-105.45 98.956h5.913v2.646h-5.913z" style="fill:#f4e3d7;stroke:#a05a2c;stroke-width:.264583;stroke-linejoin:round" transform="rotate(-90 -20.432 -8.09)"/><path d="M105.524 94.706h5.913v2.646h-5.913zM105.306 118.519h5.913v2.646h-5.913z" style="fill:#f4e3d7;stroke:#a05a2c;stroke-width:.264583;stroke-linejoin:round" transform="translate(-12.341 -28.523)"/><path d="M86.29-45.067h8.416v5.263H86.29zM86.29-79.942h8.416v5.263H86.29zM86.29-114.817h8.416v5.263H86.29z" style="fill:#fea;stroke:#d4aa00;stroke-width:.264582;stroke-linejoin:round" transform="rotate(90 8.09 -20.432)"/><path d="M55.665 70.429h8.416v5.263h-8.416zM90.54 70.429h8.416v5.263H90.54zM55.665 105.304h8.416v5.263h-8.416zM90.54 105.304h8.416v5.263H90.54z" style="fill:#fea;stroke:#d4aa00;stroke-width:.264582;stroke-linejoin:round" transform="translate(-12.341 -28.523)"/><path d="m51.073 58.321 13.485-23.26" style="fill:#fea;stroke:navy;stroke-width:.264583;stroke-linejoin:round;stroke-dasharray:none;marker-start:url(#a)" transform="translate(-12.341 -28.523)"/><path d="M78.043 58.49 65.569 35.229" style="fill:#fea;stroke:navy;stroke-width:.264583;stroke-linejoin:round;stroke-dasharray:none;marker-start:url(#a)" transform="translate(-12.341 -28.523)"/><text xml:space="preserve" style="font-size:16px;line-height:normal;font-family:&quot;Liberation Mono&quot;;-inkscape-font-specification:&quot;Liberation Mono&quot;;text-decoration-color:#000;white-space:pre;shape-inside:url(#b);fill:navy;stroke-width:1;-inkscape-stroke:none;stop-color:#000" transform="translate(-33.58 -31.557)scale(.26458)"><tspan x="309.617" y="141.65">onx</tspan></text><path d="m127.088 71.327 15.645 13.804" style="fill:#fea;stroke:navy;stroke-width:.264583;stroke-linejoin:round;stroke-dasharray:none;marker-start:url(#a)" transform="translate(-12.341 -28.523)"/><path d="m126.245 100.807 16.499-13.659" style="fill:#fea;stroke:navy;stroke-width:.264583;stroke-linejoin:round;stroke-dasharray:none;marker-start:url(#a)" transform="translate(-12.341 -28.523)"/><text xml:space="preserve" style="font-size:16px;line-height:normal;font-family:&quot;Liberation Mono&quot;;-inkscape-font-specification:&quot;Liberation Mono&quot;;text-decoration-color:#000;white-space:pre;shape-inside:url(#c);display:inline;fill:navy;stroke-width:1;-inkscape-stroke:none;stop-color:#000" transform="translate(48.561 21.487)scale(.26458)"><tspan x="309.617" y="141.65">ony</tspan></text><path d="M27.619 59.832V86.29" style="fill:navy;stroke:navy;stroke-width:.264583;stroke-linejoin:round;stroke-dasharray:none;marker-start:url(#a);marker-end:url(#a)" transform="translate(-12.341 -28.523)"/><text xml:space="preserve" style="font-size:16px;line-height:normal;font-family:&quot;Liberation Mono&quot;;-inkscape-font-specification:&quot;Liberation Mono&quot;;text-decoration-color:#000;white-space:pre;shape-inside:url(#d);fill:navy;stroke-width:1;-inkscape-stroke:none;stop-color:#000" transform="translate(-28.024 -104.274)scale(.26458)"><tspan x="133.887" y="566.576">oly</tspan></text><path d="M29.206 122.752h26.459" style="fill:navy;stroke:navy;stroke-width:.264583;stroke-linejoin:round;stroke-dasharray:none;marker-start:url(#a);marker-end:url(#a)" transform="translate(-12.341 -28.523)"/><text xml:space="preserve" style="font-size:16px;line-height:normal;font-family:&quot;Liberation Mono&quot;;-inkscape-font-specification:&quot;Liberation Mono&quot;;text-decoration-color:#000;white-space:pre;shape-inside:url(#e);display:inline;fill:navy;stroke-width:1;-inkscape-stroke:none;stop-color:#000" transform="translate(-9.228 -51.77)scale(.26458)"><tspan x="133.887" y="566.576">olx</tspan></text><path d="M90.605 118.519h8.35" style="fill:navy;stroke:navy;stroke-width:.264583;stroke-linejoin:round;stroke-dasharray:none;marker-start:url(#f);marker-end:url(#f)" transform="translate(-12.341 -28.523)"/><text xml:space="preserve" style="font-size:16px;line-height:normal;font-family:&quot;Liberation Mono&quot;;-inkscape-font-specification:&quot;Liberation Mono&quot;;text-decoration-color:#000;white-space:pre;shape-inside:url(#g);fill:navy;stroke-width:1;-inkscape-stroke:none;stop-color:#000" transform="translate(-7.448 -55.767)scale(.26458)"><tspan x="326.18" y="566.576">iwx</tspan></text><path d="M125.414 119.014h8.351" style="fill:navy;stroke:navy;stroke-width:.264583;stroke-linejoin:round;stroke-dasharray:none;marker-start:url(#h);marker-end:url(#h)" transform="translate(-12.341 -28.523)"/><text xml:space="preserve" style="font-size:16px;line-height:normal;font-family:&quot;Liberation Mono&quot;;-inkscape-font-specification:&quot;Liberation Mono&quot;;text-decoration-color:#000;white-space:pre;shape-inside:url(#i);display:inline;fill:navy;stroke-width:1;-inkscape-stroke:none;stop-color:#000" transform="translate(27.362 -55.272)scale(.26458)"><tspan x="326.18" y="566.576">ewx</tspan></text><path d="M87.365 94.641V86.29" style="fill:navy;stroke:navy;stroke-width:.264583;stroke-linejoin:round;stroke-dasharray:none;marker-start:url(#j);marker-end:url(#j)" transform="translate(-12.341 -28.523)"/><text xml:space="preserve" style="font-size:16px;line-height:normal;font-family:&quot;Liberation Mono&quot;;-inkscape-font-specification:&quot;Liberation Mono&quot;;text-decoration-color:#000;white-space:pre;shape-inside:url(#k);display:inline;fill:navy;stroke-width:1;-inkscape-stroke:none;stop-color:#000" transform="translate(-11.011 -86.397)scale(.26458)"><tspan x="326.18" y="566.576">iwy</tspan></text><path d="M87.365 59.832V51.48" style="fill:navy;stroke:navy;stroke-width:.264583;stroke-linejoin:round;stroke-dasharray:none;marker-start:url(#l);marker-end:url(#l)" transform="translate(-12.341 -28.523)"/><text xml:space="preserve" style="font-size:16px;line-height:normal;font-family:&quot;Liberation Mono&quot;;-inkscape-font-specification:&quot;Liberation Mono&quot;;text-decoration-color:#000;white-space:pre;shape-inside:url(#m);display:inline;fill:navy;stroke-width:1;-inkscape-stroke:none;stop-color:#000" transform="translate(-11.011 -121.207)scale(.26458)"><tspan x="326.18" y="566.576">ewy</tspan></text><path d="M120.74 56.587V51.72" style="fill:navy;stroke:purple;stroke-width:.264583;stroke-linejoin:round;stroke-dasharray:none;marker-end:url(#n)" transform="translate(-12.341 -28.523)"/><path d="M120.643 43.769v4.868" style="fill:navy;stroke:purple;stroke-width:.264583;stroke-linejoin:round;stroke-dasharray:none;marker-end:url(#o)" transform="translate(-12.341 -28.523)"/><path d="M80.105 126.241v-4.868" style="fill:navy;stroke:purple;stroke-width:.264583;stroke-linejoin:round;stroke-dasharray:none;marker-end:url(#p)" transform="translate(-12.341 -28.523)"/><path d="M80.009 113.423v4.868" style="fill:navy;stroke:purple;stroke-width:.264583;stroke-linejoin:round;stroke-dasharray:none;marker-end:url(#q)" transform="translate(-12.341 -28.523)"/><text xml:space="preserve" style="font-size:16px;line-height:normal;font-family:&quot;Liberation Mono&quot;;-inkscape-font-specification:&quot;Liberation Mono&quot;;text-decoration-color:#000;white-space:pre;shape-inside:url(#r);fill:purple;stroke-width:1;-inkscape-stroke:none;stop-color:#000" transform="translate(-5.646 -48.244)scale(.26458)"><tspan x="278.719" y="553.518">ith</tspan></text><text xml:space="preserve" style="font-size:16px;line-height:normal;font-family:&quot;Liberation Mono&quot;;-inkscape-font-specification:&quot;Liberation Mono&quot;;text-decoration-color:#000;white-space:pre;shape-inside:url(#s);display:inline;fill:purple;stroke-width:1;-inkscape-stroke:none;stop-color:#000" transform="translate(34.943 -129.03)scale(.26458)"><tspan x="278.719" y="553.518">eth</tspan></text><path d="M60.035 115.663v-4.868" style="fill:navy;stroke:#f60;stroke-width:.264583;stroke-linejoin:round;stroke-dasharray:none;marker-end:url(#t)" transform="translate(-12.341 -28.523)"/><path d="M59.94 100.199v4.868" style="fill:navy;stroke:#f60;stroke-width:.264583;stroke-linejoin:round;stroke-dasharray:none;marker-end:url(#u)" transform="translate(-12.341 -28.523)"/><text xml:space="preserve" style="font-size:16px;line-height:normal;font-family:&quot;Liberation Mono&quot;;-inkscape-font-specification:&quot;Liberation Mono&quot;;text-decoration-color:#000;white-space:pre;shape-inside:url(#v);fill:#f60;stroke-width:1;-inkscape-stroke:none;stop-color:#000" transform="translate(-4.594 -51.169)scale(.26458)"><tspan x="186.498" y="535.889">bw</tspan></text><path d="M112.185 107.935h-5.869" style="fill:#5aa02c;stroke:#f60;stroke-width:.529167;stroke-linejoin:round;stroke-dasharray:none;marker-end:url(#a)" transform="translate(-12.341 -28.523)"/><path d="m111.68 110.011 5.244 28.963" style="fill:#ffb380;stroke:#ffb380;stroke-width:.264583;stroke-linejoin:round;stroke-dasharray:none;marker-start:url(#a)" transform="translate(-12.341 -28.523)"/><text xml:space="preserve" style="font-size:16px;line-height:normal;font-family:&quot;Liberation Mono&quot;;-inkscape-font-specification:&quot;Liberation Mono&quot;;text-decoration-color:#000;white-space:pre;shape-inside:url(#w);fill:#f95;stroke-width:1;-inkscape-stroke:none;stop-color:#000" transform="translate(-35.702 -30.787)scale(.26458)"><tspan x="373.896" y="549.404">office-orientation:
</tspan><tspan x="373.896" y="569.404">xdw,xup,xal,ydw,yup,yal </tspan></text></svg>