<svg xmlns="http://www.w3.org/2000/svg" width="535.624" height="269.485" viewBox="0 0 141.717 71.301"><defs><marker id="u" markerHeight="1" markerWidth="1" orient="auto-start-reverse" preserveAspectRatio="xMidYMid" refX="0" refY="0" style="overflow:visible" viewBox="0 0 1 1"><path d="M3-3 0 0l3 3" style="fill:none;stroke:context-stroke;stroke-width:1;stroke-linecap:butt" transform="rotate(180 .125 0)"/></marker><marker id="b" markerHeight="1" markerWidth="1" orient="auto-start-reverse" preserveAspectRatio="xMidYMid" refX="0" refY="0" style="overflow:visible" viewBox="0 0 1 1"><path d="M3-3 0 0l3 3" style="fill:none;stroke:context-stroke;stroke-width:1;stroke-linecap:butt" transform="rotate(180 .125 0)"/></marker><marker id="g" markerHeight="1" markerWidth="1" orient="auto-start-reverse" preserveAspectRatio="xMidYMid" refX="0" refY="0" style="overflow:visible" viewBox="0 0 1 1"><path d="M3-3 0 0l3 3" style="fill:none;stroke:context-stroke;stroke-width:1;stroke-linecap:butt" transform="rotate(180 .125 0)"/></marker><marker id="f" markerHeight="1" markerWidth="1" orient="auto-start-reverse" preserveAspectRatio="xMidYMid" refX="0" refY="0" style="overflow:visible" viewBox="0 0 1 1"><path d="M3-3 0 0l3 3" style="fill:none;stroke:context-stroke;stroke-width:1;stroke-linecap:butt" transform="rotate(180 .125 0)"/></marker><marker id="h" markerHeight="1" markerWidth="1" orient="auto-start-reverse" preserveAspectRatio="xMidYMid" refX="0" refY="0" style="overflow:visible" viewBox="0 0 1 1"><path d="M3-3 0 0l3 3" style="fill:none;stroke:context-stroke;stroke-width:1;stroke-linecap:butt" transform="rotate(180 .125 0)"/></marker><marker id="j" markerHeight="1" markerWidth="1" orient="auto-start-reverse" preserveAspectRatio="xMidYMid" refX="0" refY="0" style="overflow:visible" viewBox="0 0 1 1"><path d="M3-3 0 0l3 3" style="fill:none;stroke:context-stroke;stroke-width:1;stroke-linecap:butt" transform="rotate(180 .125 0)"/></marker><marker id="k" markerHeight="1" markerWidth="1" orient="auto-start-reverse" preserveAspectRatio="xMidYMid" refX="0" refY="0" style="overflow:visible" viewBox="0 0 1 1"><path d="M3-3 0 0l3 3" style="fill:none;stroke:context-stroke;stroke-width:1;stroke-linecap:butt" transform="rotate(180 .125 0)"/></marker><marker id="m" markerHeight="1" markerWidth="1" orient="auto-start-reverse" preserveAspectRatio="xMidYMid" refX="0" refY="0" style="overflow:visible" viewBox="0 0 1 1"><path d="M3-3 0 0l3 3" style="fill:none;stroke:context-stroke;stroke-width:1;stroke-linecap:butt" transform="rotate(180 .125 0)"/></marker><marker id="n" markerHeight="1" markerWidth="1" orient="auto-start-reverse" preserveAspectRatio="xMidYMid" refX="0" refY="0" style="overflow:visible" viewBox="0 0 1 1"><path d="M3-3 0 0l3 3" style="fill:none;stroke:context-stroke;stroke-width:1;stroke-linecap:butt" transform="rotate(180 .125 0)"/></marker><marker id="p" markerHeight="1" markerWidth="1" orient="auto-start-reverse" preserveAspectRatio="xMidYMid" refX="0" refY="0" style="overflow:visible" viewBox="0 0 1 1"><path d="M3-3 0 0l3 3" style="fill:none;stroke:context-stroke;stroke-width:1;stroke-linecap:butt" transform="rotate(180 .125 0)"/></marker><marker id="q" markerHeight="1" markerWidth="1" orient="auto-start-reverse" preserveAspectRatio="xMidYMid" refX="0" refY="0" style="overflow:visible" viewBox="0 0 1 1"><path d="M3-3 0 0l3 3" style="fill:none;stroke:context-stroke;stroke-width:1;stroke-linecap:butt" transform="rotate(180 .125 0)"/></marker><marker id="s" markerHeight="1" markerWidth="1" orient="auto-start-reverse" preserveAspectRatio="xMidYMid" refX="0" refY="0" style="overflow:visible" viewBox="0 0 1 1"><path d="M3-3 0 0l3 3" style="fill:none;stroke:context-stroke;stroke-width:1;stroke-linecap:butt" transform="rotate(180 .125 0)"/></marker><marker id="A" markerHeight="1" markerWidth="1" orient="auto-start-reverse" preserveAspectRatio="xMidYMid" refX="0" refY="0" style="overflow:visible" viewBox="0 0 1 1"><path d="M3-3 0 0l3 3" style="fill:none;stroke:context-stroke;stroke-width:1;stroke-linecap:butt" transform="rotate(180 .125 0)"/></marker><marker id="z" markerHeight="1" markerWidth="1" orient="auto-start-reverse" preserveAspectRatio="xMidYMid" refX="0" refY="0" style="overflow:visible" viewBox="0 0 1 1"><path d="M3-3 0 0l3 3" style="fill:none;stroke:context-stroke;stroke-width:1;stroke-linecap:butt" transform="rotate(180 .125 0)"/></marker><marker id="C" markerHeight="1" markerWidth="1" orient="auto-start-reverse" preserveAspectRatio="xMidYMid" refX="0" refY="0" style="overflow:visible" viewBox="0 0 1 1"><path d="M3-3 0 0l3 3" style="fill:none;stroke:context-stroke;stroke-width:1;stroke-linecap:butt" transform="rotate(180 .125 0)"/></marker><marker id="E" markerHeight="1" markerWidth="1" orient="auto-start-reverse" preserveAspectRatio="xMidYMid" refX="0" refY="0" style="overflow:visible" viewBox="0 0 1 1"><path d="M3-3 0 0l3 3" style="fill:none;stroke:context-stroke;stroke-width:1;stroke-linecap:butt" transform="rotate(180 .125 0)"/></marker><marker id="a" markerHeight="1" markerWidth="1" orient="auto-start-reverse" preserveAspectRatio="xMidYMid" refX="0" refY="0" style="overflow:visible" viewBox="0 0 1 1"><path d="M3-3 0 0l3 3" style="fill:none;stroke:context-stroke;stroke-width:1;stroke-linecap:butt" transform="rotate(180 .125 0)"/></marker><path id="F" d="M-104.06 768.515h59.463v22.524h-59.463z"/><path id="y" d="M375.554 647.902h52.558v31.854h-52.558z"/><path id="v" d="M306.591 762.734h37.428v21.501h-37.428z"/><path id="t" d="M287.001 745.373h43.722v30.722h-43.722z"/><path id="c" d="M326.181 552.341h72.151v31.216h-72.151z"/><path id="d" d="M326.181 552.341h72.151v31.216h-72.151z"/><path id="e" d="M326.181 552.341h72.151v31.216h-72.151z"/><path id="i" d="M326.181 552.341h72.151v31.216h-72.151z"/><path id="l" d="M278.719 539.281h39.817v27.713h-39.817z"/><path id="o" d="M278.719 539.281h39.817v27.713h-39.817z"/><path id="r" d="M278.719 539.281h39.817v27.713h-39.817z"/><path id="w" d="M306.591 762.734h37.428v21.501h-37.428z"/><path id="B" d="M278.719 539.281h39.817v27.713h-39.817z"/><path id="D" d="M287.001 745.373h43.722v30.722h-43.722z"/><path id="x" d="M306.591 762.734h37.428v21.501h-37.428z"/></defs><path d="M5.626 172.109h141.453v71.037H5.626z" style="fill:#fff;stroke:#fff;stroke-width:.264583;stroke-linejoin:round" transform="translate(-5.494 -171.976)"/><path d="M79.487 201.537s.433-1.177.337-1.77c-.11-.683-1.011-1.812-1.011-1.812" style="fill:none;stroke:#333;stroke-width:.264583;stroke-linejoin:round;marker-end:url(#a)" transform="translate(-5.494 -171.976)"/><path d="M84.473 201.537h-8.96" style="fill:#d7e3f4;stroke:#999;stroke-width:.264583;stroke-linejoin:round" transform="translate(-5.494 -171.976)"/><path d="M14.266 199.95H10.25" style="fill:#d7e3f4;stroke:#ccc;stroke-width:.264583;stroke-linejoin:round" transform="translate(-5.494 -171.976)"/><path d="M26.342 188.125H9.895" style="fill:#d7e3f4;stroke:#ccc;stroke-width:.264582;stroke-linejoin:round" transform="translate(-5.494 -171.976)"/><path d="M134.186 199.95h6.576" style="fill:none;stroke:#ccc;stroke-width:.264583;stroke-linejoin:round" transform="translate(-5.494 -171.976)"/><path d="M14.222 235.722h119.841v2.646H14.222z" style="fill:#fff6d5;stroke:#d4aa00;stroke-width:.264583;stroke-linejoin:round" transform="translate(-5.494 -171.976)"/><path d="M-235.722 14.222h34.185v2.646h-34.185z" style="fill:#fff6d5;stroke:#d4aa00;stroke-width:.264583;stroke-linejoin:round" transform="rotate(-90 -88.735 -83.241)"/><path d="M28.634 214.555v21.167H49.8v-21.167z" style="fill:#fea;stroke:#d4aa00;stroke-width:.264583;stroke-linejoin:round" transform="translate(-5.494 -171.976)"/><path d="M-235.722 25.988h21.167v2.646h-21.167z" style="fill:#fff6d5;stroke:#d4aa00;stroke-width:.264583;stroke-linejoin:round" transform="rotate(-90 -88.735 -83.241)"/><path d="M17.253 222.273h8.351" style="fill:navy;stroke:navy;stroke-width:.264583;stroke-linejoin:round;stroke-dasharray:none;marker-start:url(#b);marker-end:url(#b)" transform="translate(-5.494 -171.976)"/><text xml:space="preserve" style="font-size:16px;line-height:normal;font-family:&quot;Liberation Mono&quot;;-inkscape-font-specification:&quot;Liberation Mono&quot;;text-decoration-color:#000;white-space:pre;shape-inside:url(#c);display:inline;fill:navy;stroke-width:1;-inkscape-stroke:none;stop-color:#000" transform="translate(-73.952 -95.467)scale(.26458)"><tspan x="326.18" y="566.576">ewx</tspan></text><path d="M-235.722 49.8h21.167v2.646h-21.167z" style="fill:#fff6d5;stroke:#d4aa00;stroke-width:.264583;stroke-linejoin:round" transform="rotate(-90 -88.735 -83.241)"/><path d="M-52.446-214.555h26.458v2.646h-26.458z" style="fill:#fff6d5;stroke:#d4aa00;stroke-width:.264583;stroke-linejoin:round" transform="matrix(-1 0 0 -1 -5.494 -171.976)"/><text xml:space="preserve" style="font-size:16px;line-height:normal;font-family:&quot;Liberation Mono&quot;;-inkscape-font-specification:&quot;Liberation Mono&quot;;text-decoration-color:#000;white-space:pre;shape-inside:url(#d);display:inline;fill:navy;stroke-width:1;-inkscape-stroke:none;stop-color:#000" transform="translate(-38.76 -92.601)scale(.26458)"><tspan x="326.18" y="566.576">iwx</tspan></text><path d="M63.559 214.555v21.167h21.166v-21.167z" style="fill:#fea;stroke:#d4aa00;stroke-width:.264583;stroke-linejoin:round" transform="translate(-5.494 -171.976)"/><path d="M-235.722 60.913h21.167v2.646h-21.167zM-235.722 84.725h21.167v2.646h-21.167z" style="fill:#fff6d5;stroke:#d4aa00;stroke-width:.264583;stroke-linejoin:round" transform="rotate(-90 -88.735 -83.241)"/><path d="M-87.371-214.555h26.458v2.646h-26.458z" style="fill:#fff6d5;stroke:#d4aa00;stroke-width:.264583;stroke-linejoin:round" transform="matrix(-1 0 0 -1 -5.494 -171.976)"/><text xml:space="preserve" style="font-size:16px;line-height:normal;font-family:&quot;Liberation Mono&quot;;-inkscape-font-specification:&quot;Liberation Mono&quot;;text-decoration-color:#000;white-space:pre;shape-inside:url(#e);display:inline;fill:#999;stroke-width:1;-inkscape-stroke:none;stop-color:#000" transform="translate(-3.523 -92.601)scale(.26458)"><tspan x="326.18" y="566.576">iwx</tspan></text><path d="M98.795 214.555v21.167h21.166v-21.167z" style="fill:#fea;stroke:#d4aa00;stroke-width:.264583;stroke-linejoin:round" transform="translate(-5.494 -171.976)"/><path d="M-235.722 96.149h21.167v2.646h-21.167zM-235.722 119.961h21.167v2.646h-21.167z" style="fill:#fff6d5;stroke:#d4aa00;stroke-width:.264583;stroke-linejoin:round" transform="rotate(-90 -88.735 -83.241)"/><path d="M-122.607-214.555h26.458v2.646h-26.458z" style="fill:#fff6d5;stroke:#d4aa00;stroke-width:.264583;stroke-linejoin:round" transform="matrix(-1 0 0 -1 -5.494 -171.976)"/><path d="M87.682 225.139h8.351" style="fill:navy;stroke:#666;stroke-width:.264583;stroke-linejoin:round;stroke-dasharray:none;marker-start:url(#f);marker-end:url(#f)" transform="translate(-5.494 -171.976)"/><path d="M52.446 225.139h8.351" style="fill:navy;stroke:navy;stroke-width:.264583;stroke-linejoin:round;stroke-dasharray:none;marker-start:url(#g);marker-end:url(#g)" transform="translate(-5.494 -171.976)"/><path d="M-235.722 131.496h34.185v2.646h-34.185z" style="fill:#fff6d5;stroke:#d4aa00;stroke-width:.264583;stroke-linejoin:round" transform="rotate(-90 -88.735 -83.241)"/><path d="M122.885 222.273h8.351" style="fill:navy;stroke:#666;stroke-width:.264583;stroke-linejoin:round;stroke-dasharray:none;marker-start:url(#h);marker-end:url(#h)" transform="translate(-5.494 -171.976)"/><text xml:space="preserve" style="font-size:16px;line-height:normal;font-family:&quot;Liberation Mono&quot;;-inkscape-font-specification:&quot;Liberation Mono&quot;;text-decoration-color:#000;white-space:pre;shape-inside:url(#i);display:inline;fill:#999;stroke-width:1;-inkscape-stroke:none;stop-color:#000" transform="translate(31.68 -95.467)scale(.26458)"><tspan x="326.18" y="566.576">ewx</tspan></text><path d="M139.278 216.861h-4.868" style="fill:navy;stroke:purple;stroke-width:.264583;stroke-linejoin:round;stroke-dasharray:none;marker-end:url(#j)" transform="translate(-5.494 -171.976)"/><path d="M126.207 216.873h4.868" style="fill:navy;stroke:purple;stroke-width:.264583;stroke-linejoin:round;stroke-dasharray:none;marker-end:url(#k)" transform="translate(-5.494 -171.976)"/><text xml:space="preserve" style="font-size:16px;line-height:normal;font-family:&quot;Liberation Mono&quot;;-inkscape-font-specification:&quot;Liberation Mono&quot;;text-decoration-color:#000;white-space:pre;shape-inside:url(#l);display:inline;fill:purple;stroke-width:1;-inkscape-stroke:none;stop-color:#000" transform="translate(57.423 -102.478)scale(.26458)"><tspan x="278.719" y="553.518">eth</tspan></text><path d="M127.734 233.078h-4.868" style="fill:navy;stroke:purple;stroke-width:.264583;stroke-linejoin:round;stroke-dasharray:none;marker-end:url(#m)" transform="translate(-5.494 -171.976)"/><path d="M114.663 233.09h4.868" style="fill:navy;stroke:purple;stroke-width:.264583;stroke-linejoin:round;stroke-dasharray:none;marker-end:url(#n)" transform="translate(-5.494 -171.976)"/><text xml:space="preserve" style="font-size:16px;line-height:normal;font-family:&quot;Liberation Mono&quot;;-inkscape-font-specification:&quot;Liberation Mono&quot;;text-decoration-color:#000;white-space:pre;shape-inside:url(#o);display:inline;fill:purple;stroke-width:1;-inkscape-stroke:none;stop-color:#000" transform="translate(44.292 -86.262)scale(.26458)"><tspan x="278.719" y="553.518">ith</tspan></text><path d="M104.127 219.881v-4.868" style="fill:navy;stroke:purple;stroke-width:.264583;stroke-linejoin:round;stroke-dasharray:none;marker-end:url(#p)" transform="translate(-5.494 -171.976)"/><path d="M104.115 206.81v4.868" style="fill:navy;stroke:purple;stroke-width:.264583;stroke-linejoin:round;stroke-dasharray:none;marker-end:url(#q)" transform="translate(-5.494 -171.976)"/><text xml:space="preserve" style="font-size:16px;line-height:normal;font-family:&quot;Liberation Mono&quot;;-inkscape-font-specification:&quot;Liberation Mono&quot;;text-decoration-color:#000;white-space:pre;shape-inside:url(#r);display:inline;fill:purple;stroke-width:1;-inkscape-stroke:none;stop-color:#000" transform="translate(25.468 -110.019)scale(.26458)"><tspan x="278.719" y="553.518">ith</tspan></text><path d="M68.321 212.216v23.51" style="fill:navy;stroke:green;stroke-width:.264583;stroke-linejoin:round;stroke-dasharray:none;marker-start:url(#s);marker-end:url(#s)" transform="translate(-5.494 -171.976)"/><text xml:space="preserve" style="font-size:16px;line-height:normal;font-family:&quot;Liberation Mono&quot;;-inkscape-font-specification:&quot;Liberation Mono&quot;;text-decoration-color:#000;white-space:pre;shape-inside:url(#t);display:inline;fill:green;stroke-width:1;-inkscape-stroke:none;stop-color:#000" transform="translate(-12.658 -147.62)scale(.26458)"><tspan x="287" y="759.609">oh1</tspan></text><path d="M14.266 201.537h2.557l9.52-11.824 17.268 11.824h2.557l9.519-11.824 17.268 11.824h2.557l9.52-11.824 17.268 11.824h2.557l9.519-11.824 17.268 11.824h2.542" style="fill:none;stroke:teal;stroke-width:.264583;stroke-linejoin:round" transform="translate(-5.494 -171.976)"/><path d="M14.266 199.95h2.557l9.52-11.825L43.61 199.95h2.557l9.519-11.825 17.268 11.825h2.557l9.52-11.825L102.3 199.95h2.557l9.519-11.825 17.268 11.825h2.542M14.266 199.95v1.587M134.186 199.95v1.587" style="fill:none;stroke:teal;stroke-width:.264583;stroke-linejoin:round" transform="translate(-5.494 -171.976)"/><path d="M54.788 758.781v-2.259h9.296l17.71-22.024c9.74-12.113 18.041-21.896 18.446-21.74.405.155 15.022 10.066 32.483 22.023l31.747 21.741h10.499l17.722-22.013c9.753-12.115 18.062-21.882 18.479-21.722s15.034 10.066 32.485 22.013l31.728 21.722h10.513l17.673-21.979c9.72-12.088 17.866-21.979 18.101-21.979s14.867 9.89 32.514 21.98l32.086 21.978h10.518l17.696-21.979c9.733-12.088 17.881-21.979 18.108-21.979.226 0 14.85 9.89 32.498 21.98l32.086 21.978h9.296v4.46h-8.436l-32.238-22.076c-17.731-12.142-32.676-22.181-33.21-22.309-.643-.154-7.02 7.322-18.81 22.049l-17.838 22.281-4.46.016-4.46.015-32.49-22.281c-17.87-12.255-32.785-22.284-33.146-22.286-.36-.002-8.674 10.014-18.475 22.258l-17.82 22.262-4.46.032-4.459.032-32.172-22.078c-17.694-12.142-32.662-22.103-33.261-22.134-.698-.037-7.453 7.842-18.795 21.921l-17.706 21.98-4.458.174-4.458.175-32.66-22.363c-17.964-12.3-32.956-22.264-33.317-22.144s-8.617 10.105-18.347 22.188l-17.692 21.97-4.258.188-4.258.188z" style="fill:#d7e3f4;stroke:#d7e3f4;stroke-width:.999998;stroke-linejoin:round" transform="translate(-5.494 -171.976)scale(.26458)"/><path d="M102.3 201.537h-8.96" style="fill:#d7e3f4;stroke:#999;stroke-width:.264583;stroke-linejoin:round" transform="translate(-5.494 -171.976)"/><path d="M96.278 197.645s-.9.874-1.07 1.45c-.195.663.128 2.07.128 2.07" style="fill:none;stroke:#333;stroke-width:.264583;stroke-linejoin:round;marker-end:url(#u)" transform="translate(-5.494 -171.976)"/><text xml:space="preserve" style="font-size:16px;line-height:normal;font-family:&quot;Liberation Mono&quot;;-inkscape-font-specification:&quot;Liberation Mono&quot;;text-decoration-color:#000;white-space:pre;shape-inside:url(#v);display:inline;fill:#999;stroke-width:1;-inkscape-stroke:none;stop-color:#000" transform="translate(3.608 -173.03)scale(.26458)"><tspan x="306.59" y="776.971">ras</tspan></text><path d="M83.414 191.693s1.012 1.21 1.727 1.306c.794.108 2.234-.885 2.234-.885" style="fill:none;stroke:#333;stroke-width:.264583;stroke-linejoin:round;marker-end:url(#u)" transform="translate(-5.494 -171.976)"/><text xml:space="preserve" style="font-size:16px;line-height:normal;font-family:&quot;Liberation Mono&quot;;-inkscape-font-specification:&quot;Liberation Mono&quot;;text-decoration-color:#000;white-space:pre;shape-inside:url(#w);display:inline;fill:#000;stroke-width:1;-inkscape-stroke:none;stop-color:#000" transform="translate(-4.327 -181.412)scale(.26458)"><tspan x="306.59" y="776.971">ram</tspan></text><text xml:space="preserve" style="font-size:16px;line-height:normal;font-family:&quot;Liberation Mono&quot;;-inkscape-font-specification:&quot;Liberation Mono&quot;;text-decoration-color:#000;white-space:pre;shape-inside:url(#x);display:inline;fill:#000;stroke-width:1;-inkscape-stroke:none;stop-color:#000" transform="translate(-6.534 -176.523)scale(.26458)"><tspan x="306.59" y="776.971">ran</tspan></text><path d="m86.218 187.437 11.546-10.114" style="fill:none;stroke:#333;stroke-width:.264583;stroke-linejoin:round;marker-start:url(#u)" transform="translate(-5.494 -171.976)"/><path d="m113.271 187.268-13.569-9.776" style="fill:none;stroke:#333;stroke-width:.264583;stroke-linejoin:round;marker-start:url(#u)" transform="translate(-5.494 -171.976)"/><path d="m56.973 187.606 38.263-10.62" style="fill:none;stroke:#333;stroke-width:.264583;stroke-linejoin:round;marker-start:url(#u)" transform="translate(-5.494 -171.976)"/><text xml:space="preserve" style="font-size:16px;line-height:normal;font-family:&quot;Liberation Mono&quot;;-inkscape-font-specification:&quot;Liberation Mono&quot;;text-decoration-color:#000;white-space:pre;shape-inside:url(#y);display:inline;fill:#000;stroke-width:1;-inkscape-stroke:none;stop-color:#000" transform="translate(-9.034 -170.628)scale(.26458)"><tspan x="375.553" y="662.139">rtn</tspan></text><path d="M135.696 206.853v-4.868" style="fill:navy;stroke:purple;stroke-width:.264583;stroke-linejoin:round;stroke-dasharray:none;marker-end:url(#z)" transform="translate(-5.494 -171.976)"/><path d="M135.684 194.84v4.869" style="fill:navy;stroke:purple;stroke-width:.264583;stroke-linejoin:round;stroke-dasharray:none;marker-end:url(#A)" transform="translate(-5.494 -171.976)"/><text xml:space="preserve" style="font-size:16px;line-height:normal;font-family:&quot;Liberation Mono&quot;;-inkscape-font-specification:&quot;Liberation Mono&quot;;text-decoration-color:#000;white-space:pre;shape-inside:url(#B);display:inline;fill:purple;stroke-width:1;-inkscape-stroke:none;stop-color:#000" transform="translate(57.037 -121.988)scale(.26458)"><tspan x="278.719" y="553.518">rth</tspan></text><path d="M134.142 201.537h6.576" style="fill:none;stroke:#ccc;stroke-width:.264583;stroke-linejoin:round" transform="translate(-5.494 -171.976)"/><path d="M72.955 201.537h-8.96" style="fill:#d7e3f4;stroke:#999;stroke-width:.264583;stroke-linejoin:round" transform="translate(-5.494 -171.976)"/><path d="M68.321 201.751v9.962" style="fill:navy;stroke:green;stroke-width:.264584;stroke-linejoin:round;stroke-dasharray:none;marker-start:url(#C);marker-end:url(#C)" transform="translate(-5.494 -171.976)"/><text xml:space="preserve" style="font-size:16px;line-height:normal;font-family:&quot;Liberation Mono&quot;;-inkscape-font-specification:&quot;Liberation Mono&quot;;text-decoration-color:#000;white-space:pre;shape-inside:url(#D);display:inline;fill:green;stroke-width:1;-inkscape-stroke:none;stop-color:#000" transform="translate(-12.122 -164.72)scale(.26458)"><tspan x="287" y="759.609">oh2</tspan></text><path d="M12.896 188.503v11.033" style="fill:navy;stroke:#666;stroke-width:.264584;stroke-linejoin:round;stroke-dasharray:none;marker-start:url(#E);marker-end:url(#E)" transform="translate(-5.494 -171.976)"/><text xml:space="preserve" style="font-size:16px;line-height:normal;font-family:&quot;Liberation Mono&quot;;-inkscape-font-specification:&quot;Liberation Mono&quot;;text-decoration-color:#000;white-space:pre;shape-inside:url(#F);display:inline;fill:#999;stroke-width:1;-inkscape-stroke:none;stop-color:#000" transform="translate(29.647 -183.538)scale(.26458)"><tspan x="-104.061" y="782.75">rh</tspan></text></svg>