<svg xmlns="http://www.w3.org/2000/svg" width="261.562" height="202.314" viewBox="0 0 69.205 53.529"><defs><marker id="c" markerHeight="1" markerWidth="1" orient="auto-start-reverse" preserveAspectRatio="xMidYMid" refX="0" refY="0" style="overflow:visible" viewBox="0 0 1 1"><path d="M3-3 0 0l3 3" style="fill:none;stroke:context-stroke;stroke-width:1;stroke-linecap:butt" transform="rotate(180 .125 0)"/></marker><marker id="e" markerHeight="1" markerWidth="1" orient="auto-start-reverse" preserveAspectRatio="xMidYMid" refX="0" refY="0" style="overflow:visible" viewBox="0 0 1 1"><path d="M3-3 0 0l3 3" style="fill:none;stroke:context-stroke;stroke-width:1;stroke-linecap:butt" transform="rotate(180 .125 0)"/></marker><marker id="f" markerHeight="1" markerWidth="1" orient="auto-start-reverse" preserveAspectRatio="xMidYMid" refX="0" refY="0" style="overflow:visible" viewBox="0 0 1 1"><path d="M3-3 0 0l3 3" style="fill:none;stroke:context-stroke;stroke-width:1;stroke-linecap:butt" transform="rotate(180 .125 0)"/></marker><marker id="h" markerHeight="1" markerWidth="1" orient="auto-start-reverse" preserveAspectRatio="xMidYMid" refX="0" refY="0" style="overflow:visible" viewBox="0 0 1 1"><path d="M3-3 0 0l3 3" style="fill:none;stroke:context-stroke;stroke-width:1;stroke-linecap:butt" transform="rotate(180 .125 0)"/></marker><marker id="i" markerHeight="1" markerWidth="1" orient="auto-start-reverse" preserveAspectRatio="xMidYMid" refX="0" refY="0" style="overflow:visible" viewBox="0 0 1 1"><path d="M3-3 0 0l3 3" style="fill:none;stroke:context-stroke;stroke-width:1;stroke-linecap:butt" transform="rotate(180 .125 0)"/></marker><marker id="a" markerHeight="1" markerWidth="1" orient="auto-start-reverse" preserveAspectRatio="xMidYMid" refX="0" refY="0" style="overflow:visible" viewBox="0 0 1 1"><path d="M3-3 0 0l3 3" style="fill:none;stroke:context-stroke;stroke-width:1;stroke-linecap:butt" transform="rotate(180 .125 0)"/></marker><marker id="k" markerHeight="1" markerWidth="1" orient="auto-start-reverse" preserveAspectRatio="xMidYMid" refX="0" refY="0" style="overflow:visible" viewBox="0 0 1 1"><path d="M3-3 0 0l3 3" style="fill:none;stroke:context-stroke;stroke-width:1;stroke-linecap:butt" transform="rotate(180 .125 0)"/></marker><marker id="l" markerHeight="1" markerWidth="1" orient="auto-start-reverse" preserveAspectRatio="xMidYMid" refX="0" refY="0" style="overflow:visible" viewBox="0 0 1 1"><path d="M3-3 0 0l3 3" style="fill:none;stroke:context-stroke;stroke-width:1;stroke-linecap:butt" transform="rotate(180 .125 0)"/></marker><marker id="m" markerHeight="1" markerWidth="1" orient="auto-start-reverse" preserveAspectRatio="xMidYMid" refX="0" refY="0" style="overflow:visible" viewBox="0 0 1 1"><path d="M3-3 0 0l3 3" style="fill:none;stroke:context-stroke;stroke-width:1;stroke-linecap:butt" transform="rotate(180 .125 0)"/></marker><marker id="n" markerHeight="1" markerWidth="1" orient="auto-start-reverse" preserveAspectRatio="xMidYMid" refX="0" refY="0" style="overflow:visible" viewBox="0 0 1 1"><path d="M3-3 0 0l3 3" style="fill:none;stroke:context-stroke;stroke-width:1;stroke-linecap:butt" transform="rotate(180 .125 0)"/></marker><marker id="o" markerHeight="1" markerWidth="1" orient="auto-start-reverse" preserveAspectRatio="xMidYMid" refX="0" refY="0" style="overflow:visible" viewBox="0 0 1 1"><path d="M3-3 0 0l3 3" style="fill:none;stroke:context-stroke;stroke-width:1;stroke-linecap:butt" transform="rotate(180 .125 0)"/></marker><path id="t" d="M88.553 1271.276h46.506v21.979H88.553z"/><path id="s" d="M59.248 1238.467h44.914v18.794H59.248z"/><path id="r" d="M42.684 1201.835h50.01v26.757h-50.01z"/><path id="q" d="M35.357 1162.018h58.611v22.297H35.357z"/><path id="p" d="M34.72 1113.601h57.018v30.261H34.72z"/><path id="d" d="M287.001 745.373h43.722v30.722h-43.722z"/><path id="g" d="M278.719 539.281h39.817v27.713h-39.817z"/><path id="j" d="M278.719 539.281h39.817v27.713h-39.817z"/><path id="b" d="M133.887 552.341h52.138v21.66h-52.138z"/></defs><path d="M33.375 273.57h68.94v53.264h-68.94z" style="fill:#fff;stroke:#fff;stroke-width:.264583;stroke-linejoin:round" transform="translate(-33.242 -273.438)"/><path d="M44.278 321.097h44.44" style="fill:navy;stroke:navy;stroke-width:.264583;stroke-linejoin:round;stroke-dasharray:none;marker-start:url(#a);marker-end:url(#a)" transform="translate(-33.242 -273.438)"/><text xml:space="preserve" style="font-size:16px;line-height:normal;font-family:&quot;Liberation Mono&quot;;-inkscape-font-specification:&quot;Liberation Mono&quot;;text-decoration-color:#000;white-space:pre;shape-inside:url(#b);display:inline;fill:navy;stroke-width:1;-inkscape-stroke:none;stop-color:#000" transform="translate(-6.014 -98.098)scale(.26458)"><tspan x="133.887" y="566.576">olx</tspan></text><path d="M46.499 285.014v30.583h39.998v-30.583z" style="fill:#fea;stroke:#d4aa00;stroke-width:.264584;stroke-linejoin:round" transform="translate(-33.242 -273.438)"/><path d="M-315.597 43.853h30.583v2.646h-30.583zM-315.597 86.497h30.583v2.646h-30.583z" style="fill:#fff6d5;stroke:#d4aa00;stroke-width:.264583;stroke-linejoin:round" transform="rotate(-90 -153.34 -120.098)"/><path d="M-89.143-285.014h45.29v2.646h-45.29z" style="fill:#fff6d5;stroke:#d4aa00;stroke-width:.264583;stroke-linejoin:round" transform="matrix(-1 0 0 -1 -33.242 -273.438)"/><path d="M93.512 282.752v32.364" style="fill:navy;stroke:green;stroke-width:.264583;stroke-linejoin:round;stroke-dasharray:none;marker-start:url(#c);marker-end:url(#c)" transform="translate(-33.242 -273.438)"/><text xml:space="preserve" style="font-size:16px;line-height:normal;font-family:&quot;Liberation Mono&quot;;-inkscape-font-specification:&quot;Liberation Mono&quot;;text-decoration-color:#000;white-space:pre;shape-inside:url(#d);display:inline;fill:green;stroke-width:1;-inkscape-stroke:none;stop-color:#000" transform="translate(-14.507 -175.125)scale(.26458)"><tspan x="287" y="759.609">oh</tspan></text><path d="M98.103 315.597h-8.96M98.103 282.368h-8.96" style="fill:#d7e3f4;stroke:#ccc;stroke-width:.264583;stroke-linejoin:round" transform="translate(-33.242 -273.438)"/><path d="M52.076 290.225v-4.868" style="fill:navy;stroke:purple;stroke-width:.264583;stroke-linejoin:round;stroke-dasharray:none;marker-end:url(#e)" transform="translate(-33.242 -273.438)"/><path d="M52.064 277.154v4.868" style="fill:navy;stroke:purple;stroke-width:.264583;stroke-linejoin:round;stroke-dasharray:none;marker-end:url(#f)" transform="translate(-33.242 -273.438)"/><text xml:space="preserve" style="font-size:16px;line-height:normal;font-family:&quot;Liberation Mono&quot;;-inkscape-font-specification:&quot;Liberation Mono&quot;;text-decoration-color:#000;white-space:pre;shape-inside:url(#g);display:inline;fill:purple;stroke-width:1;-inkscape-stroke:none;stop-color:#000" transform="translate(-54.331 -141.136)scale(.26458)"><tspan x="278.719" y="553.518">ith</tspan></text><path d="M51.762 309.215h-4.868" style="fill:navy;stroke:purple;stroke-width:.264583;stroke-linejoin:round;stroke-dasharray:none;marker-end:url(#h)" transform="translate(-33.242 -273.438)"/><path d="M38.69 309.227h4.869" style="fill:navy;stroke:purple;stroke-width:.264583;stroke-linejoin:round;stroke-dasharray:none;marker-end:url(#i)" transform="translate(-33.242 -273.438)"/><text xml:space="preserve" style="font-size:16px;line-height:normal;font-family:&quot;Liberation Mono&quot;;-inkscape-font-specification:&quot;Liberation Mono&quot;;text-decoration-color:#000;white-space:pre;shape-inside:url(#j);display:inline;fill:purple;stroke-width:1;-inkscape-stroke:none;stop-color:#000" transform="translate(-71.228 -111.944)scale(.26458)"><tspan x="278.719" y="553.518">ith</tspan></text><path d="M43.853 315.73v8.96M89.143 315.597v8.96" style="fill:#d7e3f4;stroke:#ccc;stroke-width:.264583;stroke-linejoin:round" transform="translate(-33.242 -273.438)"/><path d="M57.806 293.681v12.753h12.277v-12.753c-4.092-3.42-8.184-3.254-12.277 0z" style="fill:#ffd5d5;stroke:#ccc;stroke-width:.264583;stroke-linejoin:round" transform="translate(-33.242 -273.438)"/><path d="M79.044 306.434h-8.96M79.044 293.681h-8.96M79.044 291.178h-15.1M57.806 306.434v5.326M70.083 306.434v5.326" style="fill:#d7e3f4;stroke:#ccc;stroke-width:.264583;stroke-linejoin:round" transform="translate(-33.242 -273.438)"/><path d="M74.981 291.533v1.816" style="fill:navy;stroke:green;stroke-width:.264583;stroke-linejoin:round;stroke-dasharray:none;marker-start:url(#k);marker-end:url(#k)" transform="translate(-33.242 -273.438)"/><path d="M73.923 294.101v11.914" style="fill:navy;stroke:green;stroke-width:.264583;stroke-linejoin:round;stroke-dasharray:none;marker-start:url(#l);marker-end:url(#l)" transform="translate(-33.242 -273.438)"/><path d="M75.45 306.617v8.588" style="fill:navy;stroke:green;stroke-width:.264583;stroke-linejoin:round;stroke-dasharray:none;marker-start:url(#m);marker-end:url(#m)" transform="translate(-33.242 -273.438)"/><path d="M58.147 309.984h11.595" style="fill:navy;stroke:green;stroke-width:.264582;stroke-linejoin:round;stroke-dasharray:none;marker-start:url(#n);marker-end:url(#n)" transform="translate(-33.242 -273.438)"/><path d="M46.87 300.305H57.4" style="fill:navy;stroke:green;stroke-width:.264582;stroke-linejoin:round;stroke-dasharray:none;marker-start:url(#o);marker-end:url(#o)" transform="translate(-33.242 -273.438)"/><text xml:space="preserve" style="font-size:16px;line-height:normal;font-family:&quot;Liberation Mono&quot;;-inkscape-font-specification:&quot;Liberation Mono&quot;;text-decoration-color:#000;white-space:pre;shape-inside:url(#p);fill:green;stroke-width:1;-inkscape-stroke:none;stop-color:#000" transform="translate(5.081 -272.764)scale(.26458)"><tspan x="34.721" y="1127.838">swx1</tspan></text><text xml:space="preserve" style="font-size:16px;line-height:normal;font-family:&quot;Liberation Mono&quot;;-inkscape-font-specification:&quot;Liberation Mono&quot;;text-decoration-color:#000;white-space:pre;shape-inside:url(#q);fill:green;stroke-width:1;-inkscape-stroke:none;stop-color:#000" transform="translate(16.412 -271.331)scale(.26458)"><tspan x="35.357" y="1176.254">swx2</tspan></text><text xml:space="preserve" style="font-size:16px;line-height:normal;font-family:&quot;Liberation Mono&quot;;-inkscape-font-specification:&quot;Liberation Mono&quot;;text-decoration-color:#000;white-space:pre;shape-inside:url(#r);fill:green;stroke-width:1;-inkscape-stroke:none;stop-color:#000" transform="translate(31.316 -283.214)scale(.26458)"><tspan x="42.684" y="1216.072">swh1</tspan></text><text xml:space="preserve" style="font-size:16px;line-height:normal;font-family:&quot;Liberation Mono&quot;;-inkscape-font-specification:&quot;Liberation Mono&quot;;text-decoration-color:#000;white-space:pre;shape-inside:url(#s);fill:green;stroke-width:1;-inkscape-stroke:none;stop-color:#000" transform="translate(25.922 -303.441)scale(.26458)"><tspan x="59.248" y="1252.703">swh2</tspan></text><text xml:space="preserve" style="font-size:16px;line-height:normal;font-family:&quot;Liberation Mono&quot;;-inkscape-font-specification:&quot;Liberation Mono&quot;;text-decoration-color:#000;white-space:pre;shape-inside:url(#t);fill:green;stroke-width:1;-inkscape-stroke:none;stop-color:#000" transform="translate(19.376 -320.129)scale(.26458)"><tspan x="88.553" y="1285.512">swh3</tspan></text></svg>