<svg xmlns="http://www.w3.org/2000/svg" width="364.085" height="230.744" viewBox="0 0 96.331 61.051"><defs><marker id="B" markerHeight="1" markerWidth="1" orient="auto-start-reverse" preserveAspectRatio="xMidYMid" refX="0" refY="0" style="overflow:visible" viewBox="0 0 1 1"><path d="M3-3 0 0l3 3" style="fill:none;stroke:context-stroke;stroke-width:1;stroke-linecap:butt" transform="rotate(180 .125 0)"/></marker><marker id="b" markerHeight="1" markerWidth="1" orient="auto-start-reverse" preserveAspectRatio="xMidYMid" refX="0" refY="0" style="overflow:visible" viewBox="0 0 1 1"><path d="M3-3 0 0l3 3" style="fill:none;stroke:context-stroke;stroke-width:1;stroke-linecap:butt" transform="rotate(180 .125 0)"/></marker><marker id="d" markerHeight="1" markerWidth="1" orient="auto-start-reverse" preserveAspectRatio="xMidYMid" refX="0" refY="0" style="overflow:visible" viewBox="0 0 1 1"><path d="M3-3 0 0l3 3" style="fill:none;stroke:context-stroke;stroke-width:1;stroke-linecap:butt" transform="rotate(180 .125 0)"/></marker><marker id="e" markerHeight="1" markerWidth="1" orient="auto-start-reverse" preserveAspectRatio="xMidYMid" refX="0" refY="0" style="overflow:visible" viewBox="0 0 1 1"><path d="M3-3 0 0l3 3" style="fill:none;stroke:context-stroke;stroke-width:1;stroke-linecap:butt" transform="rotate(180 .125 0)"/></marker><marker id="g" markerHeight="1" markerWidth="1" orient="auto-start-reverse" preserveAspectRatio="xMidYMid" refX="0" refY="0" style="overflow:visible" viewBox="0 0 1 1"><path d="M3-3 0 0l3 3" style="fill:none;stroke:context-stroke;stroke-width:1;stroke-linecap:butt" transform="rotate(180 .125 0)"/></marker><marker id="h" markerHeight="1" markerWidth="1" orient="auto-start-reverse" preserveAspectRatio="xMidYMid" refX="0" refY="0" style="overflow:visible" viewBox="0 0 1 1"><path d="M3-3 0 0l3 3" style="fill:none;stroke:context-stroke;stroke-width:1;stroke-linecap:butt" transform="rotate(180 .125 0)"/></marker><marker id="j" markerHeight="1" markerWidth="1" orient="auto-start-reverse" preserveAspectRatio="xMidYMid" refX="0" refY="0" style="overflow:visible" viewBox="0 0 1 1"><path d="M3-3 0 0l3 3" style="fill:none;stroke:context-stroke;stroke-width:1;stroke-linecap:butt" transform="rotate(180 .125 0)"/></marker><marker id="k" markerHeight="1" markerWidth="1" orient="auto-start-reverse" preserveAspectRatio="xMidYMid" refX="0" refY="0" style="overflow:visible" viewBox="0 0 1 1"><path d="M3-3 0 0l3 3" style="fill:none;stroke:context-stroke;stroke-width:1;stroke-linecap:butt" transform="rotate(180 .125 0)"/></marker><marker id="l" markerHeight="1" markerWidth="1" orient="auto-start-reverse" preserveAspectRatio="xMidYMid" refX="0" refY="0" style="overflow:visible" viewBox="0 0 1 1"><path d="M3-3 0 0l3 3" style="fill:none;stroke:context-stroke;stroke-width:1;stroke-linecap:butt" transform="rotate(180 .125 0)"/></marker><marker id="m" markerHeight="1" markerWidth="1" orient="auto-start-reverse" preserveAspectRatio="xMidYMid" refX="0" refY="0" style="overflow:visible" viewBox="0 0 1 1"><path d="M3-3 0 0l3 3" style="fill:none;stroke:context-stroke;stroke-width:1;stroke-linecap:butt" transform="rotate(180 .125 0)"/></marker><marker id="n" markerHeight="1" markerWidth="1" orient="auto-start-reverse" preserveAspectRatio="xMidYMid" refX="0" refY="0" style="overflow:visible" viewBox="0 0 1 1"><path d="M3-3 0 0l3 3" style="fill:none;stroke:context-stroke;stroke-width:1;stroke-linecap:butt" transform="rotate(180 .125 0)"/></marker><marker id="t" markerHeight="1" markerWidth="1" orient="auto-start-reverse" preserveAspectRatio="xMidYMid" refX="0" refY="0" style="overflow:visible" viewBox="0 0 1 1"><path d="M3-3 0 0l3 3" style="fill:none;stroke:context-stroke;stroke-width:1;stroke-linecap:butt" transform="rotate(180 .125 0)"/></marker><marker id="u" markerHeight="1" markerWidth="1" orient="auto-start-reverse" preserveAspectRatio="xMidYMid" refX="0" refY="0" style="overflow:visible" viewBox="0 0 1 1"><path d="M3-3 0 0l3 3" style="fill:none;stroke:context-stroke;stroke-width:1;stroke-linecap:butt" transform="rotate(180 .125 0)"/></marker><marker id="x" markerHeight="1" markerWidth="1" orient="auto-start-reverse" preserveAspectRatio="xMidYMid" refX="0" refY="0" style="overflow:visible" viewBox="0 0 1 1"><path d="M3-3 0 0l3 3" style="fill:none;stroke:context-stroke;stroke-width:1;stroke-linecap:butt" transform="rotate(180 .125 0)"/></marker><marker id="z" markerHeight="1" markerWidth="1" orient="auto-start-reverse" preserveAspectRatio="xMidYMid" refX="0" refY="0" style="overflow:visible" viewBox="0 0 1 1"><path d="M3-3 0 0l3 3" style="fill:none;stroke:context-stroke;stroke-width:1;stroke-linecap:butt" transform="rotate(180 .125 0)"/></marker><path id="a" d="M133.887 552.341h52.138v21.66h-52.138z"/><path id="c" d="M287.001 745.373h43.722v30.722h-43.722z"/><path id="f" d="M278.719 539.281h39.817v27.713h-39.817z"/><path id="i" d="M278.719 539.281h39.817v27.713h-39.817z"/><path id="o" d="M34.72 1113.601h57.018v30.261H34.72z"/><path id="p" d="M35.357 1162.018h58.611v22.297H35.357z"/><path id="q" d="M42.684 1201.835h50.01v26.757h-50.01z"/><path id="r" d="M59.248 1238.467h44.914v18.794H59.248z"/><path id="s" d="M88.553 1271.276h46.506v21.979H88.553z"/><path id="v" d="M59.248 1238.467h44.914v18.794H59.248z"/><path id="w" d="M88.553 1271.276h46.506v21.979H88.553z"/><path id="y" d="M35.357 1162.018h58.611v22.297H35.357z"/><path id="A" d="M35.357 1162.018h58.611v22.297H35.357z"/></defs><path d="M42.908 355.898h96.066v60.786H42.908z" style="fill:#fff;stroke:#fff;stroke-width:.264583;stroke-linejoin:round" transform="translate(-42.776 -355.766)"/><text xml:space="preserve" style="font-size:16px;line-height:normal;font-family:&quot;Liberation Mono&quot;;-inkscape-font-specification:&quot;Liberation Mono&quot;;text-decoration-color:#000;white-space:pre;shape-inside:url(#a);display:inline;fill:navy;stroke-width:1;-inkscape-stroke:none;stop-color:#000" transform="translate(6.906 -91.36)scale(.26458)"><tspan x="133.887" y="566.576">olx</tspan></text><path d="M55.194 368.787v30.583h67.859v-30.583z" style="fill:#fea;stroke:#d4aa00;stroke-width:.264585;stroke-linejoin:round" transform="translate(-42.776 -355.766)"/><path d="M-399.37 52.548h30.583v2.646h-30.583zM-399.37 123.238h30.583v2.646h-30.583z" style="fill:#fff6d5;stroke:#d4aa00;stroke-width:.264583;stroke-linejoin:round" transform="rotate(-90 -199.27 -156.495)"/><path d="M-125.752-368.787h73.204v2.646h-73.204z" style="fill:#fff6d5;stroke:#d4aa00;stroke-width:.264583;stroke-linejoin:round" transform="matrix(-1 0 0 -1 -42.776 -355.766)"/><path d="M130.253 366.525v32.364" style="fill:navy;stroke:green;stroke-width:.264583;stroke-linejoin:round;stroke-dasharray:none;marker-start:url(#b);marker-end:url(#b)" transform="translate(-42.776 -355.766)"/><text xml:space="preserve" style="font-size:16px;line-height:normal;font-family:&quot;Liberation Mono&quot;;-inkscape-font-specification:&quot;Liberation Mono&quot;;text-decoration-color:#000;white-space:pre;shape-inside:url(#c);display:inline;fill:green;stroke-width:1;-inkscape-stroke:none;stop-color:#000" transform="translate(12.7 -173.68)scale(.26458)"><tspan x="287" y="759.609">oh</tspan></text><path d="M134.845 399.37h-8.96M134.845 366.141h-8.96" style="fill:#d7e3f4;stroke:#ccc;stroke-width:.264583;stroke-linejoin:round" transform="translate(-42.776 -355.766)"/><path d="M60.77 373.998v-4.868" style="fill:navy;stroke:purple;stroke-width:.264583;stroke-linejoin:round;stroke-dasharray:none;marker-end:url(#d)" transform="translate(-42.776 -355.766)"/><path d="M60.76 360.927v4.868" style="fill:navy;stroke:purple;stroke-width:.264583;stroke-linejoin:round;stroke-dasharray:none;marker-end:url(#e)" transform="translate(-42.776 -355.766)"/><text xml:space="preserve" style="font-size:16px;line-height:normal;font-family:&quot;Liberation Mono&quot;;-inkscape-font-specification:&quot;Liberation Mono&quot;;text-decoration-color:#000;white-space:pre;shape-inside:url(#f);display:inline;fill:purple;stroke-width:1;-inkscape-stroke:none;stop-color:#000" transform="translate(-55.17 -139.69)scale(.26458)"><tspan x="278.719" y="553.518">ith</tspan></text><path d="M60.457 392.988H55.59" style="fill:navy;stroke:purple;stroke-width:.264583;stroke-linejoin:round;stroke-dasharray:none;marker-end:url(#g)" transform="translate(-42.776 -355.766)"/><path d="M47.386 393h4.868" style="fill:navy;stroke:purple;stroke-width:.264583;stroke-linejoin:round;stroke-dasharray:none;marker-end:url(#h)" transform="translate(-42.776 -355.766)"/><text xml:space="preserve" style="font-size:16px;line-height:normal;font-family:&quot;Liberation Mono&quot;;-inkscape-font-specification:&quot;Liberation Mono&quot;;text-decoration-color:#000;white-space:pre;shape-inside:url(#i);display:inline;fill:purple;stroke-width:1;-inkscape-stroke:none;stop-color:#000" transform="translate(-72.066 -110.498)scale(.26458)"><tspan x="278.719" y="553.518">ith</tspan></text><path d="M52.548 399.502V412.8" style="fill:#d7e3f4;stroke:#ccc;stroke-width:.264582;stroke-linejoin:round" transform="translate(-42.776 -355.766)"/><path d="M125.884 399.37v13.429" style="fill:#d7e3f4;stroke:#ccc;stroke-width:.264583;stroke-linejoin:round" transform="translate(-42.776 -355.766)"/><path d="M66.502 377.454v12.754h12.276v-12.754c-4.092-3.42-8.184-3.254-12.276 0z" style="fill:#ffd5d5;stroke:#ccc;stroke-width:.264583;stroke-linejoin:round" transform="translate(-42.776 -355.766)"/><path d="M87.739 390.208h-8.96M87.739 377.454h-8.96M87.739 374.951H72.64M66.502 390.208v5.325M78.779 390.208v15.549" style="fill:#d7e3f4;stroke:#ccc;stroke-width:.264583;stroke-linejoin:round" transform="translate(-42.776 -355.766)"/><path d="M83.677 375.306v1.816" style="fill:navy;stroke:green;stroke-width:.264583;stroke-linejoin:round;stroke-dasharray:none;marker-start:url(#j);marker-end:url(#j)" transform="translate(-42.776 -355.766)"/><path d="M82.618 377.874v11.914" style="fill:navy;stroke:green;stroke-width:.264583;stroke-linejoin:round;stroke-dasharray:none;marker-start:url(#k);marker-end:url(#k)" transform="translate(-42.776 -355.766)"/><path d="M84.146 390.39v8.588" style="fill:navy;stroke:green;stroke-width:.264583;stroke-linejoin:round;stroke-dasharray:none;marker-start:url(#l);marker-end:url(#l)" transform="translate(-42.776 -355.766)"/><path d="M66.843 393.757h11.595" style="fill:navy;stroke:green;stroke-width:.264582;stroke-linejoin:round;stroke-dasharray:none;marker-start:url(#m);marker-end:url(#m)" transform="translate(-42.776 -355.766)"/><path d="M55.565 384.078h10.531" style="fill:navy;stroke:green;stroke-width:.264582;stroke-linejoin:round;stroke-dasharray:none;marker-start:url(#n);marker-end:url(#n)" transform="translate(-42.776 -355.766)"/><text xml:space="preserve" style="font-size:16px;line-height:normal;font-family:&quot;Liberation Mono&quot;;-inkscape-font-specification:&quot;Liberation Mono&quot;;text-decoration-color:#000;white-space:pre;shape-inside:url(#o);display:inline;fill:green;stroke-width:1;-inkscape-stroke:none;stop-color:#000" transform="translate(4.243 -271.318)scale(.26458)"><tspan x="34.721" y="1127.838">fwx1</tspan></text><text xml:space="preserve" style="font-size:16px;line-height:normal;font-family:&quot;Liberation Mono&quot;;-inkscape-font-specification:&quot;Liberation Mono&quot;;text-decoration-color:#000;white-space:pre;shape-inside:url(#p);display:inline;fill:green;stroke-width:1;-inkscape-stroke:none;stop-color:#000" transform="translate(15.574 -269.886)scale(.26458)"><tspan x="35.357" y="1176.254">fwx2</tspan></text><text xml:space="preserve" style="font-size:16px;line-height:normal;font-family:&quot;Liberation Mono&quot;;-inkscape-font-specification:&quot;Liberation Mono&quot;;text-decoration-color:#000;white-space:pre;shape-inside:url(#q);display:inline;fill:green;stroke-width:1;-inkscape-stroke:none;stop-color:#000" transform="translate(30.477 -281.769)scale(.26458)"><tspan x="42.684" y="1216.072">fwh1</tspan></text><text xml:space="preserve" style="font-size:16px;line-height:normal;font-family:&quot;Liberation Mono&quot;;-inkscape-font-specification:&quot;Liberation Mono&quot;;text-decoration-color:#000;white-space:pre;shape-inside:url(#r);display:inline;fill:green;stroke-width:1;-inkscape-stroke:none;stop-color:#000" transform="translate(25.084 -301.996)scale(.26458)"><tspan x="59.248" y="1252.703">fwh2</tspan></text><text xml:space="preserve" style="font-size:16px;line-height:normal;font-family:&quot;Liberation Mono&quot;;-inkscape-font-specification:&quot;Liberation Mono&quot;;text-decoration-color:#000;white-space:pre;shape-inside:url(#s);display:inline;fill:green;stroke-width:1;-inkscape-stroke:none;stop-color:#000" transform="translate(18.537 -318.683)scale(.26458)"><tspan x="88.553" y="1285.512">fwh3</tspan></text><path d="M97.547 380.989v18.38h12.277v-18.38c-4.093-4.93-8.185-4.69-12.277 0z" style="fill:#ffd5d5;stroke:#ccc;stroke-width:.264583;stroke-linejoin:round" transform="translate(-42.776 -355.766)"/><path d="M118.784 380.989h-8.96M118.784 377.285h-15.099" style="fill:#d7e3f4;stroke:#ccc;stroke-width:.264583;stroke-linejoin:round" transform="translate(-42.776 -355.766)"/><path d="M113.357 377.514v3.238" style="fill:navy;stroke:green;stroke-width:.264583;stroke-linejoin:round;stroke-dasharray:none;marker-start:url(#t);marker-end:url(#t)" transform="translate(-42.776 -355.766)"/><path d="M112.299 381.234v17.775" style="fill:navy;stroke:green;stroke-width:.264583;stroke-linejoin:round;stroke-dasharray:none;marker-start:url(#u);marker-end:url(#u)" transform="translate(-42.776 -355.766)"/><text xml:space="preserve" style="font-size:16px;line-height:normal;font-family:&quot;Liberation Mono&quot;;-inkscape-font-specification:&quot;Liberation Mono&quot;;text-decoration-color:#000;white-space:pre;shape-inside:url(#v);display:inline;fill:green;stroke-width:1;-inkscape-stroke:none;stop-color:#000" transform="translate(54.047 -295.937)scale(.26458)"><tspan x="59.248" y="1252.703">fdh2</tspan></text><text xml:space="preserve" style="font-size:16px;line-height:normal;font-family:&quot;Liberation Mono&quot;;-inkscape-font-specification:&quot;Liberation Mono&quot;;text-decoration-color:#000;white-space:pre;shape-inside:url(#w);display:inline;fill:green;stroke-width:1;-inkscape-stroke:none;stop-color:#000" transform="translate(48.218 -315.448)scale(.26458)"><tspan x="88.553" y="1285.512">fdh3</tspan></text><path d="M97.547 399.502v5.325M109.824 399.37v5.325" style="fill:#d7e3f4;stroke:#ccc;stroke-width:.264583;stroke-linejoin:round" transform="translate(-42.776 -355.766)"/><path d="M97.888 402.776h11.595" style="fill:navy;stroke:green;stroke-width:.264582;stroke-linejoin:round;stroke-dasharray:none;marker-start:url(#x);marker-end:url(#x)" transform="translate(-42.776 -355.766)"/><text xml:space="preserve" style="font-size:16px;line-height:normal;font-family:&quot;Liberation Mono&quot;;-inkscape-font-specification:&quot;Liberation Mono&quot;;text-decoration-color:#000;white-space:pre;shape-inside:url(#y);display:inline;fill:green;stroke-width:1;-inkscape-stroke:none;stop-color:#000" transform="translate(46.09 -260.338)scale(.26458)"><tspan x="35.357" y="1176.254">fdx2</tspan></text><path d="M79.096 401.803h18.123" style="fill:navy;stroke:green;stroke-width:.264582;stroke-linejoin:round;stroke-dasharray:none;marker-start:url(#z);marker-end:url(#z)" transform="translate(-42.776 -355.766)"/><text xml:space="preserve" style="font-size:16px;line-height:normal;font-family:&quot;Liberation Mono&quot;;-inkscape-font-specification:&quot;Liberation Mono&quot;;text-decoration-color:#000;white-space:pre;shape-inside:url(#A);display:inline;fill:green;stroke-width:1;-inkscape-stroke:none;stop-color:#000" transform="translate(30.535 -261.223)scale(.26458)"><tspan x="35.357" y="1176.254">fdx1</tspan></text><path d="M52.605 410.161h73.114" style="fill:navy;stroke:navy;stroke-width:.264582;stroke-linejoin:round;stroke-dasharray:none;marker-start:url(#B);marker-end:url(#B)" transform="translate(-42.776 -355.766)"/></svg>