<svg xmlns="http://www.w3.org/2000/svg" width="330.366" height="299.787" viewBox="0 0 87.409 79.319"><defs><marker id="c" markerHeight="1" markerWidth="1" orient="auto-start-reverse" preserveAspectRatio="xMidYMid" refX="0" refY="0" style="overflow:visible" viewBox="0 0 1 1"><path d="M3-3 0 0l3 3" style="fill:none;stroke:context-stroke;stroke-width:1;stroke-linecap:butt" transform="rotate(180 .125 0)"/></marker><marker id="b" markerHeight="1" markerWidth="1" orient="auto-start-reverse" preserveAspectRatio="xMidYMid" refX="0" refY="0" style="overflow:visible" viewBox="0 0 1 1"><path d="M3-3 0 0l3 3" style="fill:none;stroke:context-stroke;stroke-width:1;stroke-linecap:butt" transform="rotate(180 .125 0)"/></marker><marker id="e" markerHeight="1" markerWidth="1" orient="auto-start-reverse" preserveAspectRatio="xMidYMid" refX="0" refY="0" style="overflow:visible" viewBox="0 0 1 1"><path d="M3-3 0 0l3 3" style="fill:none;stroke:context-stroke;stroke-width:1;stroke-linecap:butt" transform="rotate(180 .125 0)"/></marker><marker id="g" markerHeight="1" markerWidth="1" orient="auto-start-reverse" preserveAspectRatio="xMidYMid" refX="0" refY="0" style="overflow:visible" viewBox="0 0 1 1"><path d="M3-3 0 0l3 3" style="fill:none;stroke:context-stroke;stroke-width:1;stroke-linecap:butt" transform="rotate(180 .125 0)"/></marker><marker id="h" markerHeight="1" markerWidth="1" orient="auto-start-reverse" preserveAspectRatio="xMidYMid" refX="0" refY="0" style="overflow:visible" viewBox="0 0 1 1"><path d="M3-3 0 0l3 3" style="fill:none;stroke:context-stroke;stroke-width:1;stroke-linecap:butt" transform="rotate(180 .125 0)"/></marker><path id="d" d="M442.765 2143.108h38.861v30.898h-38.861z"/><path id="a" d="M442.765 2143.108h38.861v30.898h-38.861z"/><path id="f" d="M442.765 2143.108h38.861v30.898h-38.861z"/><path id="i" d="M442.765 2143.108h38.861v30.898h-38.861z"/></defs><g transform="translate(-35.77 -542.626)"><path d="M35.903 542.758h87.145v79.054H35.903z" style="fill:#fff;stroke:#fff;stroke-width:.264583;stroke-linejoin:round"/><circle cx="75.261" cy="582.959" r="35.819" style="fill:#e6e6e6;stroke:gray;stroke-width:.264583;stroke-linejoin:round"/><ellipse cx="75.261" cy="582.959" rx="24.642" ry="24.947" style="fill:#fff;stroke:gray;stroke-width:.264583;stroke-linejoin:round"/><text xml:space="preserve" style="font-size:16px;line-height:normal;font-family:&quot;Liberation Mono&quot;;-inkscape-font-specification:&quot;Liberation Mono&quot;;text-decoration-color:#000;white-space:pre;shape-inside:url(#a);display:inline;fill:#a00;stroke-width:1;-inkscape-stroke:none;stop-color:#000" transform="translate(-43.717 -4.055)scale(.26458)"><tspan x="442.764" y="2157.344">W1</tspan></text><path d="M75.343 563.806v-5.515" style="fill:#a00;stroke:#f55;stroke-width:.264583;stroke-linejoin:round;marker-end:url(#b)"/><ellipse cx="75.261" cy="554.027" rx="2.253" ry="2.283" style="fill:#fff;stroke:gray;stroke-width:.264583;stroke-linejoin:round"/><ellipse cx="86.287" cy="556.393" rx="2.253" ry="2.283" style="fill:#fff;stroke:gray;stroke-width:.264583;stroke-linejoin:round"/><ellipse cx="95.222" cy="561.736" rx="2.253" ry="2.283" style="fill:#fff;stroke:gray;stroke-width:.264583;stroke-linejoin:round"/><ellipse cx="100.904" cy="569.565" rx="2.253" ry="2.283" style="fill:#fff;stroke:gray;stroke-width:.264583;stroke-linejoin:round"/><ellipse cx="65.199" cy="556.103" rx="2.253" ry="2.283" style="fill:#fff;stroke:gray;stroke-width:.264583;stroke-linejoin:round"/><path d="m110.911 575.711 6.659-3.034" style="fill:#f55;stroke:#f55;stroke-width:.264583;stroke-linejoin:round;marker-start:url(#c)"/><text xml:space="preserve" style="font-size:16px;line-height:normal;font-family:&quot;Liberation Mono&quot;;-inkscape-font-specification:&quot;Liberation Mono&quot;;text-decoration-color:#000;white-space:pre;shape-inside:url(#d);fill:#a00;stroke-width:1;-inkscape-stroke:none;stop-color:#000" transform="translate(-.337 1.433)scale(.26458)"><tspan x="442.764" y="2157.344">D1</tspan></text><path d="M75.261 554.548v1.432" style="fill:#a00;stroke:#f55;stroke-width:.264583;stroke-linejoin:round;marker-end:url(#c)"/><path d="m103.24 568.043 6.657-3.034" style="fill:#f55;stroke:#f55;stroke-width:.264583;stroke-linejoin:round;marker-start:url(#e)"/><text xml:space="preserve" style="font-size:16px;line-height:normal;font-family:&quot;Liberation Mono&quot;;-inkscape-font-specification:&quot;Liberation Mono&quot;;text-decoration-color:#000;white-space:pre;shape-inside:url(#f);display:inline;fill:#a00;stroke-width:1;-inkscape-stroke:none;stop-color:#000" transform="translate(-8.01 -6.236)scale(.26458)"><tspan x="442.764" y="2157.344">D2</tspan></text><path d="m88.76 555.367 14.158-6.405" style="fill:#f55;stroke:#f55;stroke-width:.264583;stroke-linejoin:round;marker-start:url(#g)"/><path d="m96.905 559.556 7.248-9.86" style="fill:#f55;stroke:#f55;stroke-width:.264583;stroke-linejoin:round;marker-start:url(#h)"/><text xml:space="preserve" style="font-size:16px;line-height:normal;font-family:&quot;Liberation Mono&quot;;-inkscape-font-specification:&quot;Liberation Mono&quot;;text-decoration-color:#000;white-space:pre;shape-inside:url(#i);display:inline;fill:#a00;stroke-width:1;-inkscape-stroke:none;stop-color:#000" transform="translate(-14.121 -22.113)scale(.26458)"><tspan x="442.764" y="2157.344">N2</tspan></text></g></svg>