<svg xmlns="http://www.w3.org/2000/svg" width="526.584" height="571.977" viewBox="0 0 139.325 151.335"><defs><path id="s" d="M59.248 1155.01h78.36v101.931h-78.36z"/><path id="f" d="M216.286 1208.206h48.099v22.616h-48.099z"/><path id="c" d="M356.123 761.937h53.514v33.765h-53.514z"/><path id="d" d="M407.089 775.953h56.699v35.676h-56.699z"/><path id="h" d="M273.941 754.929h57.336v32.491h-57.336z"/><path id="j" d="M273.941 754.929h57.336v32.491h-57.336z"/><path id="l" d="M273.941 754.929h57.336v32.491h-57.336z"/><path id="o" d="M273.941 754.929h57.336v32.491h-57.336z"/><path id="p" d="M273.941 754.929h57.336v32.491h-57.336z"/><path id="r" d="M273.941 754.929h57.336v32.491h-57.336z"/><marker id="e" markerHeight="1" markerWidth="1" orient="auto-start-reverse" preserveAspectRatio="xMidYMid" refX="0" refY="0" style="overflow:visible" viewBox="0 0 1 1"><path d="M3-3 0 0l3 3" style="fill:none;stroke:context-stroke;stroke-width:1;stroke-linecap:butt" transform="rotate(180 .125 0)"/></marker><marker id="a" markerHeight="1" markerWidth="1" orient="auto-start-reverse" preserveAspectRatio="xMidYMid" refX="0" refY="0" style="overflow:visible" viewBox="0 0 1 1"><path d="M3-3 0 0l3 3" style="fill:none;stroke:context-stroke;stroke-width:1;stroke-linecap:butt" transform="rotate(180 .125 0)"/></marker><marker id="b" markerHeight="1" markerWidth="1" orient="auto-start-reverse" preserveAspectRatio="xMidYMid" refX="0" refY="0" style="overflow:visible" viewBox="0 0 1 1"><path d="M3-3 0 0l3 3" style="fill:none;stroke:context-stroke;stroke-width:1;stroke-linecap:butt" transform="rotate(180 .125 0)"/></marker><marker id="g" markerHeight="1" markerWidth="1" orient="auto-start-reverse" preserveAspectRatio="xMidYMid" refX="0" refY="0" style="overflow:visible" viewBox="0 0 1 1"><path d="M3-3 0 0l3 3" style="fill:none;stroke:context-stroke;stroke-width:1;stroke-linecap:butt" transform="rotate(180 .125 0)"/></marker><marker id="i" markerHeight="1" markerWidth="1" orient="auto-start-reverse" preserveAspectRatio="xMidYMid" refX="0" refY="0" style="overflow:visible" viewBox="0 0 1 1"><path d="M3-3 0 0l3 3" style="fill:none;stroke:context-stroke;stroke-width:1;stroke-linecap:butt" transform="rotate(180 .125 0)"/></marker><marker id="k" markerHeight="1" markerWidth="1" orient="auto-start-reverse" preserveAspectRatio="xMidYMid" refX="0" refY="0" style="overflow:visible" viewBox="0 0 1 1"><path d="M3-3 0 0l3 3" style="fill:none;stroke:context-stroke;stroke-width:1;stroke-linecap:butt" transform="rotate(180 .125 0)"/></marker><marker id="m" markerHeight="1" markerWidth="1" orient="auto-start-reverse" preserveAspectRatio="xMidYMid" refX="0" refY="0" style="overflow:visible" viewBox="0 0 1 1"><path d="M3-3 0 0l3 3" style="fill:none;stroke:context-stroke;stroke-width:1;stroke-linecap:butt" transform="rotate(180 .125 0)"/></marker><marker id="n" markerHeight="1" markerWidth="1" orient="auto-start-reverse" preserveAspectRatio="xMidYMid" refX="0" refY="0" style="overflow:visible" viewBox="0 0 1 1"><path d="M3-3 0 0l3 3" style="fill:none;stroke:context-stroke;stroke-width:1;stroke-linecap:butt" transform="rotate(180 .125 0)"/></marker><marker id="q" markerHeight="1" markerWidth="1" orient="auto-start-reverse" preserveAspectRatio="xMidYMid" refX="0" refY="0" style="overflow:visible" viewBox="0 0 1 1"><path d="M3-3 0 0l3 3" style="fill:none;stroke:context-stroke;stroke-width:1;stroke-linecap:butt" transform="rotate(180 .125 0)"/></marker></defs><path d="M10.635 230.183h139.061v151.071H10.635z" style="fill:#fff;fill-opacity:1;stroke:#fff;stroke-width:.264583;stroke-linejoin:round" transform="translate(-10.503 -230.05)"/><path d="M114.468 371.119h10.25v-4.053l-27.414-78.903h-6.803l.1 3.464 4.746-.11 25.555 75.072h-6.405z" style="fill:#e6e6e6;stroke:gray;stroke-width:.264583;stroke-linejoin:round" transform="translate(-10.503 -230.05)"/><path d="M117.09 330.065h-3.032l-15.972-44.457H90.63v-2.503h6.741l-4.715-13.11h-7.39v-2.385h8.94z" style="fill:#e9ddaf;stroke:gray;stroke-width:.264583;stroke-linejoin:round" transform="translate(-10.503 -230.05)"/><path d="M43.365 371.119h-10.25v-4.053l27.413-78.903h6.803l-.1 3.464-4.746-.11-25.554 75.072h6.405z" style="fill:#e6e6e6;stroke:gray;stroke-width:.264583;stroke-linejoin:round" transform="translate(-10.503 -230.05)"/><path d="M40.743 330.065h3.032l15.971-44.457h7.457v-2.503H60.46l4.716-13.11h7.39v-2.385h-8.94z" style="fill:#e9ddaf;stroke:gray;stroke-width:.264583;stroke-linejoin:round" transform="translate(-10.503 -230.05)"/><path d="M14.283 272.259h130.75v7.986H14.283z" style="fill:#e9ddaf;stroke:gray;stroke-width:.264583;stroke-linejoin:round" transform="translate(-10.503 -230.05)"/><path d="M14.283 273.451h130.75v5.602H14.283z" style="fill:#fff;stroke:gray;stroke-width:.264583;stroke-linejoin:round" transform="translate(-10.503 -230.05)"/><path d="m22.745 280.377 24.637 31.57 2.385-6.51-19.87-25.06z" style="fill:#e9ddaf;fill-opacity:1;stroke:gray;stroke-width:.264583;stroke-linejoin:round" transform="translate(-10.503 -230.05)"/><path d="M24.354 280.244h4.112l20.77 26.64-1.327 3.624z" style="fill:#fff;fill-opacity:1;stroke:gray;stroke-width:.264583;stroke-linejoin:round" transform="translate(-10.503 -230.05)"/><path d="m135.172 280.282-24.636 31.57-2.385-6.51 19.87-25.06z" style="fill:#e9ddaf;fill-opacity:1;stroke:gray;stroke-width:.264583;stroke-linejoin:round" transform="translate(-10.503 -230.05)"/><path d="M133.563 280.15h-4.112l-20.77 26.64 1.328 3.623z" style="fill:#fff;fill-opacity:1;stroke:gray;stroke-width:.264583;stroke-linejoin:round" transform="translate(-10.503 -230.05)"/><path d="M84.819 347.845s-.15-1.397-.404-2.041a5 5 0 0 0-.906-1.462c-.376-.43-.816-.826-1.321-1.086-.785-.404-1.673-.68-2.553-.683a5.04 5.04 0 0 0-2.474.639 5.4 5.4 0 0 0-1.969 1.939c-.469.801-.74 2.694-.74 2.694v11.794s.128 1.326.363 1.94c.22.575.55 1.117.956 1.575.43.483.946.91 1.524 1.19.724.35 1.538.584 2.34.568.934-.02 1.91-.261 2.698-.771.893-.577 1.607-1.476 2.074-2.441.303-.63.412-2.061.412-2.061z" style="fill:#d7e3f4;fill-opacity:1;stroke:#214478;stroke-width:.264583;stroke-linejoin:round" transform="translate(-10.503 -230.05)"/><path d="M14.283 246.395h9.939v25.864h-9.939zM47.45 246.395h9.939v25.864H47.45zM100.671 246.395h9.939v25.864h-9.939zM135.094 246.395h9.939v25.864h-9.939z" style="fill:#e9ddaf;fill-opacity:1;stroke:gray;stroke-width:.264583;stroke-linejoin:round" transform="translate(-10.503 -230.05)"/><path d="M111.876 330.02h1.93" style="fill:#e9ddaf;fill-opacity:1;stroke:#f55;stroke-width:.264584;stroke-linejoin:round;marker-start:url(#a);marker-end:url(#a)" transform="translate(-10.503 -230.05)"/><path d="M67.688 287.584v-1.709" style="fill:#e9ddaf;fill-opacity:1;stroke:#f55;stroke-width:.264584;stroke-linejoin:round;marker-start:url(#b);marker-end:url(#b)" transform="translate(-10.503 -230.05)"/><text xml:space="preserve" style="font-size:16px;line-height:normal;font-family:&quot;Liberation Mono&quot;;-inkscape-font-specification:&quot;Liberation Mono&quot;;text-decoration-color:#000;white-space:pre;shape-inside:url(#c);display:inline;fill:#a00;stroke-width:1;-inkscape-stroke:none;stop-color:#000" transform="translate(-35.602 -147.145)scale(.26458)"><tspan x="356.123" y="776.174">Z3</tspan></text><text xml:space="preserve" style="font-size:16px;line-height:normal;font-family:&quot;Liberation Mono&quot;;-inkscape-font-specification:&quot;Liberation Mono&quot;;text-decoration-color:#000;white-space:pre;shape-inside:url(#d);display:inline;fill:#a00;stroke-width:1;-inkscape-stroke:none;stop-color:#000" transform="translate(-4.882 -105.26)scale(.26458)"><tspan x="407.088" y="790.19">Z4</tspan></text><path d="M44.162 330.037H72.65" style="fill:#b3b3b3;stroke:#ccc;stroke-width:.264583;stroke-linejoin:round" transform="translate(-10.503 -230.05)"/><path d="M57.226 329.785s1.006-3.442.252-4.889c-.857-1.645-4.72-2.95-4.72-2.95" style="fill:none;stroke:#338000;stroke-width:.264583;stroke-linejoin:round;marker-end:url(#e)" transform="translate(-10.503 -230.05)"/><text xml:space="preserve" style="font-size:16px;line-height:normal;font-family:&quot;Liberation Mono&quot;;-inkscape-font-specification:&quot;Liberation Mono&quot;;text-decoration-color:#000;white-space:pre;shape-inside:url(#f);display:inline;fill:#338000;stroke-width:1;-inkscape-stroke:none;stop-color:#000" transform="translate(-10.503 -230.05)scale(.26458)"><tspan x="216.285" y="1222.441">aInc</tspan></text><path d="M67.704 289.895h22.51" style="fill:#e9ddaf;fill-opacity:1;stroke:#999;stroke-width:.264584;stroke-linejoin:round;marker-start:url(#g);marker-end:url(#g)" transform="translate(-10.503 -230.05)"/><text xml:space="preserve" style="font-size:16px;line-height:normal;font-family:&quot;Liberation Mono&quot;;-inkscape-font-specification:&quot;Liberation Mono&quot;;text-decoration-color:#000;white-space:pre;shape-inside:url(#h);display:inline;fill:#999;stroke-width:1;-inkscape-stroke:none;stop-color:#000" transform="translate(-7.17 -140.204)scale(.26458)"><tspan x="273.941" y="769.166">D5</tspan></text><path d="M67.59 284.356H90.1" style="fill:#e9ddaf;fill-opacity:1;stroke:#999;stroke-width:.264584;stroke-linejoin:round;marker-start:url(#i);marker-end:url(#i)" transform="translate(-10.503 -230.05)"/><text xml:space="preserve" style="font-size:16px;line-height:normal;font-family:&quot;Liberation Mono&quot;;-inkscape-font-specification:&quot;Liberation Mono&quot;;text-decoration-color:#000;white-space:pre;shape-inside:url(#j);display:inline;fill:#999;stroke-width:1;-inkscape-stroke:none;stop-color:#000" transform="translate(-7.282 -149.447)scale(.26458)"><tspan x="273.941" y="769.166">D5</tspan></text><path d="M14.51 237.382h130.295" style="fill:#e9ddaf;fill-opacity:1;stroke:#f55;stroke-width:.264582;stroke-linejoin:round;marker-start:url(#k);marker-end:url(#k)" transform="translate(-10.503 -230.05)"/><text xml:space="preserve" style="font-size:16px;line-height:normal;font-family:&quot;Liberation Mono&quot;;-inkscape-font-specification:&quot;Liberation Mono&quot;;text-decoration-color:#000;white-space:pre;shape-inside:url(#l);display:inline;fill:#a00;stroke-width:1;-inkscape-stroke:none;stop-color:#000" transform="translate(-5.979 -197.484)scale(.26458)"><tspan x="273.941" y="769.166">L9</tspan></text><path d="M57.605 250.363h42.85" style="fill:#e9ddaf;fill-opacity:1;stroke:#f55;stroke-width:.264582;stroke-linejoin:round;marker-start:url(#m);marker-end:url(#m)" transform="translate(-10.503 -230.05)"/><path d="M14.21 244.846h10.085" style="fill:#e9ddaf;fill-opacity:1;stroke:#f55;stroke-width:.264581;stroke-linejoin:round;marker-start:url(#n);marker-end:url(#n)" transform="translate(-10.503 -230.05)"/><text xml:space="preserve" style="font-size:16px;line-height:normal;font-family:&quot;Liberation Mono&quot;;-inkscape-font-specification:&quot;Liberation Mono&quot;;text-decoration-color:#000;white-space:pre;shape-inside:url(#o);display:inline;fill:#a00;stroke-width:1;-inkscape-stroke:none;stop-color:#000" transform="translate(-6.592 -184.557)scale(.26458)"><tspan x="273.941" y="769.166">L8</tspan></text><text xml:space="preserve" style="font-size:16px;line-height:normal;font-family:&quot;Liberation Mono&quot;;-inkscape-font-specification:&quot;Liberation Mono&quot;;text-decoration-color:#000;white-space:pre;shape-inside:url(#p);display:inline;fill:#a00;stroke-width:1;-inkscape-stroke:none;stop-color:#000" transform="translate(-66.377 -189.641)scale(.26458)"><tspan x="273.941" y="769.166">W8</tspan></text><path d="M47.503 244.947h10.085" style="fill:#e9ddaf;fill-opacity:1;stroke:#f55;stroke-width:.264581;stroke-linejoin:round;marker-start:url(#q);marker-end:url(#q)" transform="translate(-10.503 -230.05)"/><text xml:space="preserve" style="font-size:16px;line-height:normal;font-family:&quot;Liberation Mono&quot;;-inkscape-font-specification:&quot;Liberation Mono&quot;;text-decoration-color:#000;white-space:pre;shape-inside:url(#r);display:inline;fill:#a00;stroke-width:1;-inkscape-stroke:none;stop-color:#000" transform="translate(-33.084 -189.541)scale(.26458)"><tspan x="273.941" y="769.166">W8</tspan></text><text xml:space="preserve" style="font-size:16px;line-height:normal;font-family:&quot;Liberation Mono&quot;;-inkscape-font-specification:&quot;Liberation Mono&quot;;text-decoration-color:#000;white-space:pre;shape-inside:url(#s);fill:purple;stroke-width:1;-inkscape-stroke:none;stop-color:#000" transform="translate(-10.503 -230.05)scale(.26458)"><tspan x="59.248" y="1169.246">gen3D:</tspan><tspan x="59.248" y="1189.246">[both,
</tspan><tspan x="59.248" y="1209.246">top, </tspan><tspan x="59.248" y="1229.246">bottom]</tspan></text><path d="m23.767 318.238 20.395-.842" style="fill:purple;stroke:purple;stroke-width:.264583;stroke-linejoin:round;stroke-dasharray:none;marker-end:url(#e)" transform="translate(-10.503 -230.05)"/><path d="m28.992 326.33 11.125 17.53" style="fill:purple;stroke:purple;stroke-width:.264583;stroke-linejoin:round;stroke-dasharray:none;marker-end:url(#e)" transform="translate(-10.503 -230.05)"/></svg>