<svg xmlns="http://www.w3.org/2000/svg" width="526.584" height="522.761" viewBox="0 0 139.325 138.314"><defs><marker id="a" markerHeight="1" markerWidth="1" orient="auto-start-reverse" preserveAspectRatio="xMidYMid" refX="0" refY="0" style="overflow:visible" viewBox="0 0 1 1"><path d="M3-3 0 0l3 3" style="fill:none;stroke:context-stroke;stroke-width:1;stroke-linecap:butt" transform="rotate(180 .125 0)"/></marker><marker id="b" markerHeight="1" markerWidth="1" orient="auto-start-reverse" preserveAspectRatio="xMidYMid" refX="0" refY="0" style="overflow:visible" viewBox="0 0 1 1"><path d="M3-3 0 0l3 3" style="fill:none;stroke:context-stroke;stroke-width:1;stroke-linecap:butt" transform="rotate(180 .125 0)"/></marker><marker id="c" markerHeight="1" markerWidth="1" orient="auto-start-reverse" preserveAspectRatio="xMidYMid" refX="0" refY="0" style="overflow:visible" viewBox="0 0 1 1"><path d="M3-3 0 0l3 3" style="fill:none;stroke:context-stroke;stroke-width:1;stroke-linecap:butt" transform="rotate(180 .125 0)"/></marker><marker id="d" markerHeight="1" markerWidth="1" orient="auto-start-reverse" preserveAspectRatio="xMidYMid" refX="0" refY="0" style="overflow:visible" viewBox="0 0 1 1"><path d="M3-3 0 0l3 3" style="fill:none;stroke:context-stroke;stroke-width:1;stroke-linecap:butt" transform="rotate(180 .125 0)"/></marker><marker id="e" markerHeight="1" markerWidth="1" orient="auto-start-reverse" preserveAspectRatio="xMidYMid" refX="0" refY="0" style="overflow:visible" viewBox="0 0 1 1"><path d="M3-3 0 0l3 3" style="fill:none;stroke:context-stroke;stroke-width:1;stroke-linecap:butt" transform="rotate(180 .125 0)"/></marker><marker id="f" markerHeight="1" markerWidth="1" orient="auto-start-reverse" preserveAspectRatio="xMidYMid" refX="0" refY="0" style="overflow:visible" viewBox="0 0 1 1"><path d="M3-3 0 0l3 3" style="fill:none;stroke:context-stroke;stroke-width:1;stroke-linecap:butt" transform="rotate(180 .125 0)"/></marker><marker id="g" markerHeight="1" markerWidth="1" orient="auto-start-reverse" preserveAspectRatio="xMidYMid" refX="0" refY="0" style="overflow:visible" viewBox="0 0 1 1"><path d="M3-3 0 0l3 3" style="fill:none;stroke:context-stroke;stroke-width:1;stroke-linecap:butt" transform="rotate(180 .125 0)"/></marker><marker id="h" markerHeight="1" markerWidth="1" orient="auto-start-reverse" preserveAspectRatio="xMidYMid" refX="0" refY="0" style="overflow:visible" viewBox="0 0 1 1"><path d="M3-3 0 0l3 3" style="fill:none;stroke:context-stroke;stroke-width:1;stroke-linecap:butt" transform="rotate(180 .125 0)"/></marker><marker id="i" markerHeight="1" markerWidth="1" orient="auto-start-reverse" preserveAspectRatio="xMidYMid" refX="0" refY="0" style="overflow:visible" viewBox="0 0 1 1"><path d="M3-3 0 0l3 3" style="fill:none;stroke:context-stroke;stroke-width:1;stroke-linecap:butt" transform="rotate(180 .125 0)"/></marker><marker id="o" markerHeight="1" markerWidth="1" orient="auto-start-reverse" preserveAspectRatio="xMidYMid" refX="0" refY="0" style="overflow:visible" viewBox="0 0 1 1"><path d="M3-3 0 0l3 3" style="fill:none;stroke:context-stroke;stroke-width:1;stroke-linecap:butt" transform="rotate(180 .125 0)"/></marker><marker id="r" markerHeight="1" markerWidth="1" orient="auto-start-reverse" preserveAspectRatio="xMidYMid" refX="0" refY="0" style="overflow:visible" viewBox="0 0 1 1"><path d="M3-3 0 0l3 3" style="fill:none;stroke:context-stroke;stroke-width:1;stroke-linecap:butt" transform="rotate(180 .125 0)"/></marker><path id="v" d="M289.23 473.981h60.522v38.861H289.23z"/><path id="u" d="M289.867 467.61h56.699v20.386h-56.699z"/><path id="t" d="M329.366 611.588h37.587v31.854h-37.587z"/><path id="p" d="M407.089 775.953h56.699v35.676h-56.699z"/><path id="n" d="M356.123 761.937h53.514v33.765h-53.514z"/><path id="m" d="M352.3 775.316h40.773v31.854H352.3z"/><path id="l" d="M206.411 763.211h63.07v53.514h-63.07z"/><path id="k" d="M481.626 598.847h42.047v33.765h-42.047z"/><path id="j" d="M273.941 754.929h57.336v32.491h-57.336z"/><path id="q" d="M407.089 775.953h56.699v35.676h-56.699z"/><path id="s" d="M273.941 754.929h57.336v32.491h-57.336z"/></defs><path d="M7.079 54.444H146.14v138.049H7.079z" style="fill:#fff;fill-opacity:1;stroke:#fff;stroke-width:.264583;stroke-linejoin:round" transform="translate(-6.947 -54.312)"/><path d="M110.912 182.359h10.25v-4.053L93.748 99.403h-6.803l.1 3.464 4.746-.11 25.555 75.072h-6.405z" style="fill:#e6e6e6;stroke:gray;stroke-width:.264583;stroke-linejoin:round" transform="translate(-6.947 -54.312)"/><path d="M113.534 141.306h-3.032L94.53 96.848h-7.456v-2.503h6.741L89.1 81.235h-7.39V78.85h8.94z" style="fill:#e9ddaf;stroke:gray;stroke-width:.264583;stroke-linejoin:round" transform="translate(-6.947 -54.312)"/><path d="M39.81 182.359H29.558v-4.053l27.413-78.903h6.803l-.1 3.464-4.746-.11-25.554 75.072h6.405z" style="fill:#e6e6e6;stroke:gray;stroke-width:.264583;stroke-linejoin:round" transform="translate(-6.947 -54.312)"/><path d="M37.187 141.306h3.032L56.19 96.848h7.457v-2.503h-6.742l4.716-13.11h7.39V78.85h-8.94z" style="fill:#e9ddaf;stroke:gray;stroke-width:.264583;stroke-linejoin:round" transform="translate(-6.947 -54.312)"/><path d="M10.727 83.499h130.75v7.986H10.727z" style="fill:#e9ddaf;stroke:gray;stroke-width:.264583;stroke-linejoin:round" transform="translate(-6.947 -54.312)"/><path d="M10.727 84.691h130.75v5.602H10.727z" style="fill:#fff;stroke:gray;stroke-width:.264583;stroke-linejoin:round" transform="translate(-6.947 -54.312)"/><path d="m19.19 91.617 24.636 31.57 2.385-6.51-19.87-25.06Z" style="fill:#e9ddaf;fill-opacity:1;stroke:gray;stroke-width:.264583;stroke-linejoin:round" transform="translate(-6.947 -54.312)"/><path d="M20.798 91.485h4.112l20.77 26.64-1.327 3.623z" style="fill:#fff;fill-opacity:1;stroke:gray;stroke-width:.264583;stroke-linejoin:round" transform="translate(-6.947 -54.312)"/><path d="m131.616 91.522-24.636 31.571-2.385-6.511 19.87-25.06Z" style="fill:#e9ddaf;fill-opacity:1;stroke:gray;stroke-width:.264583;stroke-linejoin:round" transform="translate(-6.947 -54.312)"/><path d="M130.007 91.39h-4.112l-20.77 26.64 1.328 3.624z" style="fill:#fff;fill-opacity:1;stroke:gray;stroke-width:.264583;stroke-linejoin:round" transform="translate(-6.947 -54.312)"/><path d="M81.263 159.085s-.15-1.396-.404-2.04a5 5 0 0 0-.906-1.463c-.376-.43-.816-.825-1.321-1.085-.785-.405-1.673-.68-2.553-.684a5.04 5.04 0 0 0-2.474.639 5.4 5.4 0 0 0-1.968 1.94c-.47.8-.742 2.693-.742 2.693v11.794s.13 1.326.364 1.94c.22.575.55 1.117.956 1.575.43.483.946.91 1.524 1.19.724.35 1.538.584 2.34.568.934-.019 1.91-.261 2.698-.77.893-.577 1.607-1.477 2.074-2.442.304-.63.412-2.06.412-2.06z" style="fill:#d7e3f4;fill-opacity:1;stroke:#214478;stroke-width:.264583;stroke-linejoin:round" transform="translate(-6.947 -54.312)"/><path d="M10.727 57.635h9.939v25.864h-9.939zM43.894 57.635h9.939v25.864h-9.939zM97.115 57.635h9.939v25.864h-9.939zM131.538 57.635h9.939v25.864h-9.939z" style="fill:#e9ddaf;fill-opacity:1;stroke:gray;stroke-width:.264583;stroke-linejoin:round" transform="translate(-6.947 -54.312)"/><path d="M29.559 185.005h91.603" style="fill:#e9ddaf;fill-opacity:1;stroke:#f55;stroke-width:.264583;stroke-linejoin:round;marker-start:url(#a);marker-end:url(#a)" transform="translate(-6.947 -54.312)"/><path d="M70.895 177.122h10.368" style="fill:#e9ddaf;fill-opacity:1;stroke:#f55;stroke-width:.264584;stroke-linejoin:round;marker-start:url(#b);marker-end:url(#b)" transform="translate(-6.947 -54.312)"/><path d="M82.83 175.99v-22.015" style="fill:#e9ddaf;fill-opacity:1;stroke:#f55;stroke-width:.264585;stroke-linejoin:round;marker-start:url(#c);marker-end:url(#c)" transform="translate(-6.947 -54.312)"/><path d="M111.277 176.242h5.733" style="fill:#e9ddaf;fill-opacity:1;stroke:#f55;stroke-width:.264584;stroke-linejoin:round;marker-start:url(#d);marker-end:url(#d)" transform="translate(-6.947 -54.312)"/><path d="M123.24 182.167v-3.843" style="fill:#e9ddaf;fill-opacity:1;stroke:#f55;stroke-width:.264584;stroke-linejoin:round;marker-start:url(#e);marker-end:url(#e)" transform="translate(-6.947 -54.312)"/><path d="M87.046 103.925h4.783" style="fill:#e9ddaf;fill-opacity:1;stroke:#f55;stroke-width:.264584;stroke-linejoin:round;marker-start:url(#f);marker-end:url(#f)" transform="translate(-6.947 -54.312)"/><path d="M84.867 102.357v-2.833" style="fill:#e9ddaf;fill-opacity:1;stroke:#f55;stroke-width:.264584;stroke-linejoin:round;marker-start:url(#g);marker-end:url(#g)" transform="translate(-6.947 -54.312)"/><path d="M64.795 182.262V99.5" style="fill:#e9ddaf;fill-opacity:1;stroke:#f55;stroke-width:.264583;stroke-linejoin:round;marker-start:url(#h);marker-end:url(#h)" transform="translate(-6.947 -54.312)"/><path d="m113.737 155.946 5.448-1.855" style="fill:#e9ddaf;fill-opacity:1;stroke:#f55;stroke-width:.264583;stroke-linejoin:round;marker-start:url(#a)" transform="translate(-6.947 -54.312)"/><path d="m110.146 157.217-5.448 1.854" style="fill:#e9ddaf;fill-opacity:1;stroke:#f55;stroke-width:.264583;stroke-linejoin:round;marker-start:url(#i)" transform="translate(-6.947 -54.312)"/><text xml:space="preserve" style="font-size:16px;line-height:normal;font-family:&quot;Liberation Mono&quot;;-inkscape-font-specification:&quot;Liberation Mono&quot;;text-decoration-color:#000;white-space:pre;shape-inside:url(#j);fill:#a00;stroke-width:1;-inkscape-stroke:none;stop-color:#000" transform="translate(-5.599 -68.134)scale(.26458)"><tspan x="273.941" y="769.166">D1</tspan></text><text xml:space="preserve" style="font-size:16px;line-height:normal;font-family:&quot;Liberation Mono&quot;;-inkscape-font-specification:&quot;Liberation Mono&quot;;text-decoration-color:#000;white-space:pre;shape-inside:url(#k);fill:#a00;stroke-width:1;-inkscape-stroke:none;stop-color:#000" transform="translate(-9.138 -34.928)scale(.26458)"><tspan x="481.625" y="613.084">E1</tspan></text><text xml:space="preserve" style="font-size:16px;line-height:normal;font-family:&quot;Liberation Mono&quot;;-inkscape-font-specification:&quot;Liberation Mono&quot;;text-decoration-color:#000;white-space:pre;shape-inside:url(#l);fill:#a00;stroke-width:1;-inkscape-stroke:none;stop-color:#000" transform="translate(3.84 -120.242)scale(.26458)"><tspan x="206.41" y="777.447">L1</tspan></text><text xml:space="preserve" style="font-size:16px;line-height:normal;font-family:&quot;Liberation Mono&quot;;-inkscape-font-specification:&quot;Liberation Mono&quot;;text-decoration-color:#000;white-space:pre;shape-inside:url(#m);fill:#a00;stroke-width:1;-inkscape-stroke:none;stop-color:#000" transform="translate(18.674 -105.048)scale(.26458)"><tspan x="352.301" y="789.553">E2</tspan></text><text xml:space="preserve" style="font-size:16px;line-height:normal;font-family:&quot;Liberation Mono&quot;;-inkscape-font-specification:&quot;Liberation Mono&quot;;text-decoration-color:#000;white-space:pre;shape-inside:url(#n);fill:#a00;stroke-width:1;-inkscape-stroke:none;stop-color:#000" transform="translate(-22.96 -157.301)scale(.26458)"><tspan x="356.123" y="776.174">E3</tspan></text><path d="M82.768 182.468v-5.867" style="fill:#e9ddaf;fill-opacity:1;stroke:#f55;stroke-width:.264585;stroke-linejoin:round;marker-start:url(#o);marker-end:url(#o)" transform="translate(-6.947 -54.312)"/><text xml:space="preserve" style="font-size:16px;line-height:normal;font-family:&quot;Liberation Mono&quot;;-inkscape-font-specification:&quot;Liberation Mono&quot;;text-decoration-color:#000;white-space:pre;shape-inside:url(#p);fill:#a00;stroke-width:1;-inkscape-stroke:none;stop-color:#000" transform="translate(-3.576 -88.192)scale(.26458)"><tspan x="407.088" y="790.19">S1</tspan></text><text xml:space="preserve" style="font-size:16px;line-height:normal;font-family:&quot;Liberation Mono&quot;;-inkscape-font-specification:&quot;Liberation Mono&quot;;text-decoration-color:#000;white-space:pre;shape-inside:url(#q);display:inline;fill:#a00;stroke-width:1;-inkscape-stroke:none;stop-color:#000" transform="translate(-27.975 -155.028)scale(.26458)"><tspan x="407.088" y="790.19">S3</tspan></text><path d="M57.365 98.182h36.29" style="fill:#e9ddaf;fill-opacity:1;stroke:#f55;stroke-width:.264584;stroke-linejoin:round;marker-start:url(#r);marker-end:url(#r)" transform="translate(-6.947 -54.312)"/><text xml:space="preserve" style="font-size:16px;line-height:normal;font-family:&quot;Liberation Mono&quot;;-inkscape-font-specification:&quot;Liberation Mono&quot;;text-decoration-color:#000;white-space:pre;shape-inside:url(#s);display:inline;fill:#a00;stroke-width:1;-inkscape-stroke:none;stop-color:#000" transform="translate(-6.29 -160.73)scale(.26458)"><tspan x="273.941" y="769.166">D3</tspan></text><text xml:space="preserve" style="font-size:16px;line-height:normal;font-family:&quot;Liberation Mono&quot;;-inkscape-font-specification:&quot;Liberation Mono&quot;;text-decoration-color:#000;white-space:pre;shape-inside:url(#t);fill:#a00;stroke-width:1;-inkscape-stroke:none;stop-color:#000" transform="translate(-10.318 -52.795)scale(.26458)"><tspan x="329.365" y="625.824">H1H</tspan></text><text xml:space="preserve" style="font-size:16px;line-height:normal;font-family:&quot;Liberation Mono&quot;;-inkscape-font-specification:&quot;Liberation Mono&quot;;text-decoration-color:#000;white-space:pre;shape-inside:url(#u);fill:#a00;stroke-width:1;-inkscape-stroke:none;stop-color:#000" transform="translate(.807 -.542)scale(.26458)"><tspan x="289.867" y="481.846">H1P</tspan></text><text xml:space="preserve" style="font-size:16px;line-height:normal;font-family:&quot;Liberation Mono&quot;;-inkscape-font-specification:&quot;Liberation Mono&quot;;text-decoration-color:#000;white-space:pre;shape-inside:url(#v);fill:#a00;stroke-width:1;-inkscape-stroke:none;stop-color:#000" transform="translate(-11.667 -2.228)scale(.26458)"><tspan x="289.23" y="488.217">H1W</tspan></text></svg>