<svg xmlns="http://www.w3.org/2000/svg" width="380.057" height="387.702" viewBox="0 0 100.557 102.58"><defs><marker id="d" markerHeight="1" markerWidth="1" orient="auto-start-reverse" preserveAspectRatio="xMidYMid" refX="0" refY="0" style="overflow:visible" viewBox="0 0 1 1"><path d="M3-3 0 0l3 3" style="fill:none;stroke:context-stroke;stroke-width:1;stroke-linecap:butt" transform="rotate(180 .125 0)"/></marker><marker id="a" markerHeight="1" markerWidth="1" orient="auto-start-reverse" preserveAspectRatio="xMidYMid" refX="0" refY="0" style="overflow:visible" viewBox="0 0 1 1"><path d="M3-3 0 0l3 3" style="fill:none;stroke:context-stroke;stroke-width:1;stroke-linecap:butt" transform="rotate(180 .125 0)"/></marker><marker id="b" markerHeight="1" markerWidth="1" orient="auto-start-reverse" preserveAspectRatio="xMidYMid" refX="0" refY="0" style="overflow:visible" viewBox="0 0 1 1"><path d="M3-3 0 0l3 3" style="fill:none;stroke:context-stroke;stroke-width:1;stroke-linecap:butt" transform="rotate(180 .125 0)"/></marker><marker id="f" markerHeight="1" markerWidth="1" orient="auto-start-reverse" preserveAspectRatio="xMidYMid" refX="0" refY="0" style="overflow:visible" viewBox="0 0 1 1"><path d="M3-3 0 0l3 3" style="fill:none;stroke:context-stroke;stroke-width:1;stroke-linecap:butt" transform="rotate(180 .125 0)"/></marker><marker id="c" markerHeight="1" markerWidth="1" orient="auto-start-reverse" preserveAspectRatio="xMidYMid" refX="0" refY="0" style="overflow:visible" viewBox="0 0 1 1"><path d="M3-3 0 0l3 3" style="fill:none;stroke:context-stroke;stroke-width:1;stroke-linecap:butt" transform="rotate(180 .125 0)"/></marker><marker id="h" markerHeight="1" markerWidth="1" orient="auto-start-reverse" preserveAspectRatio="xMidYMid" refX="0" refY="0" style="overflow:visible" viewBox="0 0 1 1"><path d="M3-3 0 0l3 3" style="fill:none;stroke:context-stroke;stroke-width:1;stroke-linecap:butt" transform="rotate(180 .125 0)"/></marker><marker id="i" markerHeight="1" markerWidth="1" orient="auto-start-reverse" preserveAspectRatio="xMidYMid" refX="0" refY="0" style="overflow:visible" viewBox="0 0 1 1"><path d="M3-3 0 0l3 3" style="fill:none;stroke:context-stroke;stroke-width:1;stroke-linecap:butt" transform="rotate(180 .125 0)"/></marker><marker id="n" markerHeight="1" markerWidth="1" orient="auto-start-reverse" preserveAspectRatio="xMidYMid" refX="0" refY="0" style="overflow:visible" viewBox="0 0 1 1"><path d="M3-3 0 0l3 3" style="fill:none;stroke:context-stroke;stroke-width:1;stroke-linecap:butt" transform="rotate(180 .125 0)"/></marker><path id="e" d="M442.765 2143.108h38.861v30.898h-38.861z"/><path id="g" d="M442.765 2143.108h38.861v30.898h-38.861z"/><path id="j" d="M442.765 2143.108h38.861v30.898h-38.861z"/><path id="k" d="M442.765 2143.108h38.861v30.898h-38.861z"/><path id="l" d="M442.765 2143.108h38.861v30.898h-38.861z"/><path id="m" d="M442.765 2143.108h38.861v30.898h-38.861z"/></defs><g transform="translate(-23.297 -638.03)"><path d="M23.43 638.162h100.292v102.315H23.43z" style="fill:#fff;stroke:#fff;stroke-width:.264583;stroke-linejoin:round"/><circle cx="79.475" cy="716.946" r="15.592" style="fill:#ccc;stroke:#666;stroke-width:.264583;stroke-linejoin:round"/><circle cx="79.475" cy="716.946" r="12.642" style="fill:#fff;stroke:#666;stroke-width:.264583;stroke-linejoin:round"/><circle cx="79.475" cy="663.579" r="15.592" style="fill:#fff;stroke:#666;stroke-width:.264583;stroke-linejoin:round"/><path d="m79.475 663.579 37.55 21.68M79.475 663.579l-37.55 21.68" style="fill:#ccc;stroke:#b3b3b3;stroke-width:.264583;stroke-linejoin:round"/><path d="M225.272 2634.945c-8.53-39.946-15.58-72.842-15.667-73.102-.116-.341 36.69-22.078 39.089-23.085.174-.073 1.483 1.549 2.908 3.604 5.234 7.546 13.775 14.82 22.514 19.175 18.28 9.11 41.188 7.783 58.562-3.392 6.584-4.235 13.059-10.583 17.339-17.002.826-1.238 1.562-2.329 1.637-2.423s9.019 4.957 19.876 11.224l19.741 11.395-15.557 72.653c-13.979 65.282-15.59 72.415-15.876 70.312-2.134-15.696-7.256-26.562-17.25-36.595-11.558-11.605-25.71-17.476-42.12-17.476-16.131 0-30.01 5.582-41.478 16.682-10.42 10.087-16.704 23.065-17.893 36.957l-.317 3.702z" style="fill:#ffd5d5;stroke:#ff8080;stroke-width:1;stroke-linejoin:round" transform="scale(.26458)"/><path d="m92.48 726.566 6.658 3.034" style="fill:#f55;stroke:#f55;stroke-width:.264583;stroke-linejoin:round;marker-start:url(#a)"/><path d="m67.724 727.66-5.227 5.298" style="fill:#f55;stroke:#f55;stroke-width:.264583;stroke-linejoin:round;marker-start:url(#b)"/><path d="m103.887 676.124-10.115-5.607" style="fill:#f55;stroke:#f55;stroke-width:.264583;stroke-linejoin:round;marker-start:url(#c);marker-end:url(#d)"/><text xml:space="preserve" style="font-size:16px;line-height:normal;font-family:&quot;Liberation Mono&quot;;-inkscape-font-specification:&quot;Liberation Mono&quot;;text-decoration-color:#000;white-space:pre;shape-inside:url(#e);display:inline;fill:#a00;stroke-width:1;-inkscape-stroke:none;stop-color:#000" transform="translate(-17.36 161.069)scale(.26458)"><tspan x="442.764" y="2157.344">D6</tspan></text><path d="m70.41 725.321 5.228-5.298" style="fill:#f55;stroke:#f55;stroke-width:.264583;stroke-linejoin:round;marker-start:url(#f)"/><text xml:space="preserve" style="font-size:16px;line-height:normal;font-family:&quot;Liberation Mono&quot;;-inkscape-font-specification:&quot;Liberation Mono&quot;;text-decoration-color:#000;white-space:pre;shape-inside:url(#g);display:inline;fill:#a00;stroke-width:1;-inkscape-stroke:none;stop-color:#000" transform="translate(-60.66 164.785)scale(.26458)"><tspan x="442.764" y="2157.344">E6</tspan></text><path d="M79.475 663.579H33.206M79.475 716.814H33.206" style="fill:#ffd5d5;stroke:#ccc;stroke-width:.264583;stroke-linejoin:round"/><path d="M34.093 716.377v-52.36" style="fill:#e9ddaf;fill-opacity:1;stroke:#f55;stroke-width:.264583;stroke-linejoin:round;marker-start:url(#h);marker-end:url(#h)"/><path d="M75.175 666.061s3.13 2.804 5.058 2.804c1.633 0 4.284-2.375 4.284-2.375" style="fill:none;stroke:#f55;stroke-width:.264583;stroke-linejoin:round;marker-end:url(#i)"/><text xml:space="preserve" style="font-size:16px;line-height:normal;font-family:&quot;Liberation Mono&quot;;-inkscape-font-specification:&quot;Liberation Mono&quot;;text-decoration-color:#000;white-space:pre;shape-inside:url(#j);display:inline;fill:#a00;stroke-width:1;-inkscape-stroke:none;stop-color:#000" transform="translate(-89.429 120.794)scale(.26458)"><tspan x="442.764" y="2157.344">H8</tspan></text><text xml:space="preserve" style="font-size:16px;line-height:normal;font-family:&quot;Liberation Mono&quot;;-inkscape-font-specification:&quot;Liberation Mono&quot;;text-decoration-color:#000;white-space:pre;shape-inside:url(#k);display:inline;fill:#a00;stroke-width:1;-inkscape-stroke:none;stop-color:#000" transform="translate(-39.784 101.176)scale(.26458)"><tspan x="442.764" y="2157.344">a8</tspan></text><text xml:space="preserve" style="font-size:16px;line-height:normal;font-family:&quot;Liberation Mono&quot;;-inkscape-font-specification:&quot;Liberation Mono&quot;;text-decoration-color:#000;white-space:pre;shape-inside:url(#l);display:inline;fill:#a00;stroke-width:1;-inkscape-stroke:none;stop-color:#000" transform="translate(-18.653 101.032)scale(.26458)"><tspan x="442.764" y="2157.344">F8</tspan></text><text xml:space="preserve" style="font-size:16px;line-height:normal;font-family:&quot;Liberation Mono&quot;;-inkscape-font-specification:&quot;Liberation Mono&quot;;text-decoration-color:#000;white-space:pre;shape-inside:url(#m);display:inline;fill:#a00;stroke-width:1;-inkscape-stroke:none;stop-color:#000" transform="translate(-21.18 75.683)scale(.26458)"><tspan x="442.764" y="2157.344">G8</tspan></text><path d="m91.805 653.14 5.228-5.298" style="fill:#f55;stroke:#f55;stroke-width:.264583;stroke-linejoin:round;marker-start:url(#n)"/></g></svg>