<svg xmlns="http://www.w3.org/2000/svg" width="526.584" height="429.273" viewBox="0 0 139.325 113.578"><defs><marker id="O" markerHeight="1" markerWidth="1" orient="auto-start-reverse" preserveAspectRatio="xMidYMid" refX="0" refY="0" style="overflow:visible" viewBox="0 0 1 1"><path d="M3-3 0 0l3 3" style="fill:none;stroke:context-stroke;stroke-width:1;stroke-linecap:butt" transform="rotate(180,0.125,0)"/></marker><marker id="o" markerHeight="1" markerWidth="1" orient="auto-start-reverse" preserveAspectRatio="xMidYMid" refX="0" refY="0" style="overflow:visible" viewBox="0 0 1 1"><path d="M3-3 0 0l3 3" style="fill:none;stroke:context-stroke;stroke-width:1;stroke-linecap:butt" transform="rotate(180,0.125,0)"/></marker><marker id="q" markerHeight="1" markerWidth="1" orient="auto-start-reverse" preserveAspectRatio="xMidYMid" refX="0" refY="0" style="overflow:visible" viewBox="0 0 1 1"><path d="M3-3 0 0l3 3" style="fill:none;stroke:context-stroke;stroke-width:1;stroke-linecap:butt" transform="rotate(180,0.125,0)"/></marker><marker id="s" markerHeight="1" markerWidth="1" orient="auto-start-reverse" preserveAspectRatio="xMidYMid" refX="0" refY="0" style="overflow:visible" viewBox="0 0 1 1"><path d="M3-3 0 0l3 3" style="fill:none;stroke:context-stroke;stroke-width:1;stroke-linecap:butt" transform="rotate(180,0.125,0)"/></marker><marker id="u" markerHeight="1" markerWidth="1" orient="auto-start-reverse" preserveAspectRatio="xMidYMid" refX="0" refY="0" style="overflow:visible" viewBox="0 0 1 1"><path d="M3-3 0 0l3 3" style="fill:none;stroke:context-stroke;stroke-width:1;stroke-linecap:butt" transform="rotate(180,0.125,0)"/></marker><marker id="v" markerHeight="1" markerWidth="1" orient="auto-start-reverse" preserveAspectRatio="xMidYMid" refX="0" refY="0" style="overflow:visible" viewBox="0 0 1 1"><path d="M3-3 0 0l3 3" style="fill:none;stroke:context-stroke;stroke-width:1;stroke-linecap:butt" transform="rotate(180,0.125,0)"/></marker><marker id="y" markerHeight="1" markerWidth="1" orient="auto-start-reverse" preserveAspectRatio="xMidYMid" refX="0" refY="0" style="overflow:visible" viewBox="0 0 1 1"><path d="M3-3 0 0l3 3" style="fill:none;stroke:context-stroke;stroke-width:1;stroke-linecap:butt" transform="rotate(180,0.125,0)"/></marker><marker id="A" markerHeight="1" markerWidth="1" orient="auto-start-reverse" preserveAspectRatio="xMidYMid" refX="0" refY="0" style="overflow:visible" viewBox="0 0 1 1"><path d="M3-3 0 0l3 3" style="fill:none;stroke:context-stroke;stroke-width:1;stroke-linecap:butt" transform="rotate(180,0.125,0)"/></marker><marker id="D" markerHeight="1" markerWidth="1" orient="auto-start-reverse" preserveAspectRatio="xMidYMid" refX="0" refY="0" style="overflow:visible" viewBox="0 0 1 1"><path d="M3-3 0 0l3 3" style="fill:none;stroke:context-stroke;stroke-width:1;stroke-linecap:butt" transform="rotate(180,0.125,0)"/></marker><marker id="F" markerHeight="1" markerWidth="1" orient="auto-start-reverse" preserveAspectRatio="xMidYMid" refX="0" refY="0" style="overflow:visible" viewBox="0 0 1 1"><path d="M3-3 0 0l3 3" style="fill:none;stroke:context-stroke;stroke-width:1;stroke-linecap:butt" transform="rotate(180,0.125,0)"/></marker><marker id="G" markerHeight="1" markerWidth="1" orient="auto-start-reverse" preserveAspectRatio="xMidYMid" refX="0" refY="0" style="overflow:visible" viewBox="0 0 1 1"><path d="M3-3 0 0l3 3" style="fill:none;stroke:context-stroke;stroke-width:1;stroke-linecap:butt" transform="rotate(180,0.125,0)"/></marker><marker id="n" markerHeight="1" markerWidth="1" orient="auto-start-reverse" preserveAspectRatio="xMidYMid" refX="0" refY="0" style="overflow:visible" viewBox="0 0 1 1"><path d="M3-3 0 0l3 3" style="fill:none;stroke:context-stroke;stroke-width:1;stroke-linecap:butt" transform="rotate(180,0.125,0)"/></marker><marker id="B" markerHeight="1" markerWidth="1" orient="auto-start-reverse" preserveAspectRatio="xMidYMid" refX="0" refY="0" style="overflow:visible" viewBox="0 0 1 1"><path d="M3-3 0 0l3 3" style="fill:none;stroke:context-stroke;stroke-width:1;stroke-linecap:butt" transform="rotate(180,0.125,0)"/></marker><marker id="I" markerHeight="1" markerWidth="1" orient="auto-start-reverse" preserveAspectRatio="xMidYMid" refX="0" refY="0" style="overflow:visible" viewBox="0 0 1 1"><path d="M3-3 0 0l3 3" style="fill:none;stroke:context-stroke;stroke-width:1;stroke-linecap:butt" transform="rotate(180,0.125,0)"/></marker><marker id="K" markerHeight="1" markerWidth="1" orient="auto-start-reverse" preserveAspectRatio="xMidYMid" refX="0" refY="0" style="overflow:visible" viewBox="0 0 1 1"><path d="M3-3 0 0l3 3" style="fill:none;stroke:context-stroke;stroke-width:1;stroke-linecap:butt" transform="rotate(180,0.125,0)"/></marker><marker id="k" markerHeight="1" markerWidth="1" orient="auto-start-reverse" preserveAspectRatio="xMidYMid" refX="0" refY="0" style="overflow:visible" viewBox="0 0 1 1"><path d="M3-3 0 0l3 3" style="fill:none;stroke:context-stroke;stroke-width:1;stroke-linecap:butt" transform="rotate(180,0.125,0)"/></marker><marker id="M" markerHeight="1" markerWidth="1" orient="auto-start-reverse" preserveAspectRatio="xMidYMid" refX="0" refY="0" style="overflow:visible" viewBox="0 0 1 1"><path d="M3-3 0 0l3 3" style="fill:none;stroke:context-stroke;stroke-width:1;stroke-linecap:butt" transform="rotate(180,0.125,0)"/></marker><marker id="j" markerHeight="1" markerWidth="1" orient="auto-start-reverse" preserveAspectRatio="xMidYMid" refX="0" refY="0" style="overflow:visible" viewBox="0 0 1 1"><path d="M3-3 0 0l3 3" style="fill:none;stroke:context-stroke;stroke-width:1;stroke-linecap:butt" transform="rotate(180,0.125,0)"/></marker><marker id="h" markerHeight="1" markerWidth="1" orient="auto-start-reverse" preserveAspectRatio="xMidYMid" refX="0" refY="0" style="overflow:visible" viewBox="0 0 1 1"><path d="M3-3 0 0l3 3" style="fill:none;stroke:context-stroke;stroke-width:1;stroke-linecap:butt" transform="rotate(180,0.125,0)"/></marker><marker id="e" markerHeight="1" markerWidth="1" orient="auto-start-reverse" preserveAspectRatio="xMidYMid" refX="0" refY="0" style="overflow:visible" viewBox="0 0 1 1"><path d="M3-3 0 0l3 3" style="fill:none;stroke:context-stroke;stroke-width:1;stroke-linecap:butt" transform="rotate(180,0.125,0)"/></marker><marker id="d" markerHeight="1" markerWidth="1" orient="auto-start-reverse" preserveAspectRatio="xMidYMid" refX="0" refY="0" style="overflow:visible" viewBox="0 0 1 1"><path d="M3-3 0 0l3 3" style="fill:none;stroke:context-stroke;stroke-width:1;stroke-linecap:butt" transform="rotate(180,0.125,0)"/></marker><marker id="Q" markerHeight="1" markerWidth="1" orient="auto-start-reverse" preserveAspectRatio="xMidYMid" refX="0" refY="0" style="overflow:visible" viewBox="0 0 1 1"><path d="M3-3 0 0l3 3" style="fill:none;stroke:context-stroke;stroke-width:1;stroke-linecap:butt" transform="rotate(180,0.125,0)"/></marker><marker id="a" markerHeight="1" markerWidth="1" orient="auto-start-reverse" preserveAspectRatio="xMidYMid" refX="0" refY="0" style="overflow:visible" viewBox="0 0 1 1"><path d="M3-3 0 0l3 3" style="fill:none;stroke:context-stroke;stroke-width:1;stroke-linecap:butt" transform="rotate(180,0.125,0)"/></marker><path id="R" d="M348.895 1878.716h34.687v24.776h-34.687z"/><path id="P" d="M314.076 1881.272h36.313v33.765h-36.313z"/><path id="E" d="M287.587 1805.842h39.231v27.968h-39.231z"/><path id="p" d="M356.123 761.937h53.514v33.765h-53.514z"/><path id="r" d="M216.286 1208.206h48.099v22.616h-48.099z"/><path id="t" d="M273.941 754.929h57.336v32.491h-57.336z"/><path id="w" d="M273.941 754.929h57.336v32.491h-57.336z"/><path id="x" d="M273.941 754.929h57.336v32.491h-57.336z"/><path id="z" d="M273.941 754.929h57.336v32.491h-57.336z"/><path id="C" d="M356.123 761.937h53.514v33.765h-53.514z"/><path id="H" d="M352.3 775.316h40.773v31.854H352.3z"/><path id="m" d="M287.587 1805.842h39.231v27.968h-39.231z"/><path id="J" d="M356.123 761.937h53.514v33.765h-53.514z"/><path id="L" d="M273.941 754.929h57.336v32.491h-57.336z"/><path id="l" d="M273.941 754.929h57.336v32.491h-57.336z"/><path id="N" d="M273.941 754.929h57.336v32.491h-57.336z"/><path id="i" d="M273.941 754.929h57.336v32.491h-57.336z"/><path id="g" d="M273.941 754.929h57.336v32.491h-57.336z"/><path id="f" d="M273.941 754.929h57.336v32.491h-57.336z"/><path id="c" d="M314.076 1881.272h36.313v33.765h-36.313z"/><path id="b" d="M273.941 754.929h57.336v32.491h-57.336z"/></defs><path d="M9.845 411.816h139.061V525.13H9.845z" style="fill:#fff;fill-opacity:1;stroke:#fff;stroke-width:.264583;stroke-linejoin:round" transform="translate(-9.7123434,-411.68409)"/><path d="M91.816 493.945v19.438" style="fill:#b3b3b3;stroke:#ccc;stroke-width:.264582;stroke-linejoin:round" transform="translate(-9.7123434,-411.68409)"/><path d="m40.898 466.802-4.31 4" style="fill:#e9ddaf;fill-opacity:1;stroke:#f55;stroke-width:.264583;stroke-linejoin:round;marker-end:url(#a)" transform="translate(-9.7123434,-411.68409)"/><text xml:space="preserve" style="font-size:16px;line-height:normal;font-family:&quot;Liberation Mono&quot;;-inkscape-font-specification:&quot;Liberation Mono&quot;;text-decoration-color:#000;white-space:pre;shape-inside:url(#b);display:inline;fill:#a00;stroke-width:1;-inkscape-stroke:none;stop-color:#000" transform="translate(-9.7123434,-411.68409) matrix(0.26458333,0,0,0.26458333,-31.540193,264.45265)"><tspan x="273.941" y="769.166">EE4</tspan></text><text xml:space="preserve" style="font-size:16px;line-height:normal;font-family:&quot;Liberation Mono&quot;;-inkscape-font-specification:&quot;Liberation Mono&quot;;text-decoration-color:#000;white-space:pre;shape-inside:url(#c);display:inline;fill:#999;stroke-width:1;-inkscape-stroke:none;stop-color:#000" transform="translate(-9.7123434,-411.68409) matrix(0.26458333,0,0,0.26458333,11.826663,-3.2190703)"><tspan x="314.076" y="1895.508">TL4</tspan></text><path d="M79.967 510.06h11.857" style="fill:#e9ddaf;fill-opacity:1;stroke:#b3b3b3;stroke-width:.264584;stroke-linejoin:round;marker-start:url(#d);marker-end:url(#d)" transform="translate(-9.7123434,-411.68409)"/><path d="M79.616 493.509v19.438" style="fill:#b3b3b3;stroke:#ccc;stroke-width:.264582;stroke-linejoin:round" transform="translate(-9.7123434,-411.68409)"/><path d="m26.713 485.366 6.788-7.033" style="fill:#e9ddaf;fill-opacity:1;stroke:#f55;stroke-width:.264584;stroke-linejoin:round;marker-end:url(#e)" transform="translate(-9.7123434,-411.68409)"/><text xml:space="preserve" style="font-size:16px;line-height:normal;font-family:&quot;Liberation Mono&quot;;-inkscape-font-specification:&quot;Liberation Mono&quot;;text-decoration-color:#000;white-space:pre;shape-inside:url(#f);display:inline;fill:#a00;stroke-width:1;-inkscape-stroke:none;stop-color:#000" transform="translate(-9.7123434,-411.68409) matrix(0.26458333,0,0,0.26458333,-51.383943,283.2173)"><tspan x="273.941" y="769.166">D4</tspan></text><text xml:space="preserve" style="font-size:16px;line-height:normal;font-family:&quot;Liberation Mono&quot;;-inkscape-font-specification:&quot;Liberation Mono&quot;;text-decoration-color:#000;white-space:pre;shape-inside:url(#g);display:inline;fill:#a00;stroke-width:1;-inkscape-stroke:none;stop-color:#000" transform="translate(-9.7123434,-411.68409) matrix(0.26458333,0,0,0.26458333,-39.4608,298.31545)"><tspan x="273.941" y="769.166">R4v</tspan></text><path d="m37.699 511.103 6.788-17.64" style="fill:#e9ddaf;fill-opacity:1;stroke:#f55;stroke-width:.264584;stroke-linejoin:round;marker-start:url(#h);marker-end:url(#h)" transform="translate(-9.7123434,-411.68409)"/><text xml:space="preserve" style="font-size:16px;line-height:normal;font-family:&quot;Liberation Mono&quot;;-inkscape-font-specification:&quot;Liberation Mono&quot;;text-decoration-color:#000;white-space:pre;shape-inside:url(#i);display:inline;fill:#a00;stroke-width:1;-inkscape-stroke:none;stop-color:#000" transform="translate(-9.7123434,-411.68409) matrix(0.26458333,0,0,0.26458333,-58.77104,265.39553)"><tspan x="273.941" y="769.166">R4h</tspan></text><path d="M13.976 464.02h7.622" style="fill:#e9ddaf;fill-opacity:1;stroke:#f55;stroke-width:.264584;stroke-linejoin:round;marker-start:url(#j);marker-end:url(#j)" transform="translate(-9.7123434,-411.68409)"/><path d="M66.668 469.243h22.51" style="fill:#e9ddaf;fill-opacity:1;stroke:#999;stroke-width:.264584;stroke-linejoin:round;marker-start:url(#k);marker-end:url(#k)" transform="translate(-9.7123434,-411.68409)"/><text xml:space="preserve" style="font-size:16px;line-height:normal;font-family:&quot;Liberation Mono&quot;;-inkscape-font-specification:&quot;Liberation Mono&quot;;text-decoration-color:#000;white-space:pre;shape-inside:url(#l);display:inline;fill:#999;stroke-width:1;-inkscape-stroke:none;stop-color:#000" transform="translate(-9.7123434,-411.68409) matrix(0.26458333,0,0,0.26458333,2.2979752,269.19395)"><tspan x="273.941" y="769.166">D5</tspan></text><path d="M116.299 511.699h-3.032l-15.972-44.457H89.84v-2.503h6.741l-4.715-13.111h-7.39v-2.384h8.94zM39.952 511.699h3.032l15.972-44.457h7.456v-2.503h-6.741l4.715-13.111h7.39v-2.384h-8.94z" style="fill:#e9ddaf;stroke:gray;stroke-width:.264583;stroke-linejoin:round" transform="translate(-9.7123434,-411.68409)"/><path d="M13.492 453.892h130.75v7.986H13.492z" style="fill:#e9ddaf;stroke:gray;stroke-width:.264583;stroke-linejoin:round" transform="translate(-9.7123434,-411.68409)"/><path d="M13.492 455.084h130.75v5.602H13.492z" style="fill:#fff;stroke:gray;stroke-width:.264583;stroke-linejoin:round" transform="translate(-9.7123434,-411.68409)"/><text xml:space="preserve" style="font-size:16px;line-height:normal;font-family:&quot;Liberation Mono&quot;;-inkscape-font-specification:&quot;Liberation Mono&quot;;text-decoration-color:#000;white-space:pre;shape-inside:url(#m);display:inline;fill:#a00;stroke-width:1;-inkscape-stroke:none;stop-color:#000" transform="translate(-9.7123434,-411.68409) matrix(0.26458333,0,0,0.26458333,34.73095,-22.336799)"><tspan x="287.586" y="1820.078">D6</tspan></text><path d="M116.565 461.647v-7.693" style="fill:#e9ddaf;fill-opacity:1;stroke:#f55;stroke-width:.264584;stroke-linejoin:round;marker-start:url(#n);marker-end:url(#n)" transform="translate(-9.7123434,-411.68409)"/><path d="m21.955 462.01 24.636 31.571 2.385-6.511-19.87-25.06z" style="fill:#e9ddaf;fill-opacity:1;stroke:gray;stroke-width:.264583;stroke-linejoin:round" transform="translate(-9.7123434,-411.68409)"/><path d="M23.564 461.878h4.112l20.77 26.64-1.328 3.624z" style="fill:#fff;fill-opacity:1;stroke:gray;stroke-width:.264583;stroke-linejoin:round" transform="translate(-9.7123434,-411.68409)"/><path d="m134.382 461.916-24.637 31.57-2.385-6.51 19.87-25.06z" style="fill:#e9ddaf;fill-opacity:1;stroke:gray;stroke-width:.264583;stroke-linejoin:round" transform="translate(-9.7123434,-411.68409)"/><path d="M132.773 461.784h-4.112l-20.77 26.64 1.327 3.623z" style="fill:#fff;fill-opacity:1;stroke:gray;stroke-width:.264583;stroke-linejoin:round" transform="translate(-9.7123434,-411.68409)"/><path d="M13.492 428.029h9.939v25.864h-9.939zM46.659 428.029h9.939v25.864h-9.939zM99.88 428.029h9.939v25.864H99.88zM134.303 428.029h9.939v25.864h-9.939z" style="fill:#e9ddaf;fill-opacity:1;stroke:gray;stroke-width:.264583;stroke-linejoin:round" transform="translate(-9.7123434,-411.68409)"/><path d="M67.956 466.939v-2.155" style="fill:#e9ddaf;fill-opacity:1;stroke:#f55;stroke-width:.264584;stroke-linejoin:round;marker-start:url(#o);marker-end:url(#o)" transform="translate(-9.7123434,-411.68409)"/><text xml:space="preserve" style="font-size:16px;line-height:normal;font-family:&quot;Liberation Mono&quot;;-inkscape-font-specification:&quot;Liberation Mono&quot;;text-decoration-color:#000;white-space:pre;shape-inside:url(#p);display:inline;fill:#a00;stroke-width:1;-inkscape-stroke:none;stop-color:#000" transform="translate(-9.7123434,-411.68409) matrix(0.26458333,0,0,0.26458333,-24.831424,261.89295)"><tspan x="356.123" y="776.174">E5</tspan></text><path d="M43.372 511.671h62.703" style="fill:#b3b3b3;stroke:#ccc;stroke-width:.264582;stroke-linejoin:round" transform="translate(-9.7123434,-411.68409)"/><path d="M51.143 511.418s1.007-3.44.253-4.888c-.857-1.645-4.72-2.95-4.72-2.95" style="fill:none;stroke:#338000;stroke-width:.264583;stroke-linejoin:round;marker-end:url(#q)" transform="translate(-9.7123434,-411.68409)"/><text xml:space="preserve" style="font-size:16px;line-height:normal;font-family:&quot;Liberation Mono&quot;;-inkscape-font-specification:&quot;Liberation Mono&quot;;text-decoration-color:#000;white-space:pre;shape-inside:url(#r);display:inline;fill:#338000;stroke-width:1;-inkscape-stroke:none;stop-color:#000" transform="translate(-9.7123434,-411.68409) matrix(0.26458333,0,0,0.26458333,-6.0824529,181.63372)"><tspan x="216.285" y="1222.441">aInc</tspan></text><path d="M13.72 419.016h130.294" style="fill:#e9ddaf;fill-opacity:1;stroke:#f55;stroke-width:.264582;stroke-linejoin:round;marker-start:url(#s);marker-end:url(#s)" transform="translate(-9.7123434,-411.68409)"/><text xml:space="preserve" style="font-size:16px;line-height:normal;font-family:&quot;Liberation Mono&quot;;-inkscape-font-specification:&quot;Liberation Mono&quot;;text-decoration-color:#000;white-space:pre;shape-inside:url(#t);display:inline;fill:#a00;stroke-width:1;-inkscape-stroke:none;stop-color:#000" transform="translate(-9.7123434,-411.68409) matrix(0.26458333,0,0,0.26458333,3.7334201,214.20005)"><tspan x="273.941" y="769.166">L9</tspan></text><path d="M56.814 431.997h42.85" style="fill:#e9ddaf;fill-opacity:1;stroke:#f55;stroke-width:.264582;stroke-linejoin:round;marker-start:url(#u);marker-end:url(#u)" transform="translate(-9.7123434,-411.68409)"/><path d="M13.42 426.48h10.084" style="fill:#e9ddaf;fill-opacity:1;stroke:#f55;stroke-width:.264581;stroke-linejoin:round;marker-start:url(#v);marker-end:url(#v)" transform="translate(-9.7123434,-411.68409)"/><text xml:space="preserve" style="font-size:16px;line-height:normal;font-family:&quot;Liberation Mono&quot;;-inkscape-font-specification:&quot;Liberation Mono&quot;;text-decoration-color:#000;white-space:pre;shape-inside:url(#w);display:inline;fill:#a00;stroke-width:1;-inkscape-stroke:none;stop-color:#000" transform="translate(-9.7123434,-411.68409) matrix(0.26458333,0,0,0.26458333,3.1203911,227.1269)"><tspan x="273.941" y="769.166">L8</tspan></text><text xml:space="preserve" style="font-size:16px;line-height:normal;font-family:&quot;Liberation Mono&quot;;-inkscape-font-specification:&quot;Liberation Mono&quot;;text-decoration-color:#000;white-space:pre;shape-inside:url(#x);display:inline;fill:#a00;stroke-width:1;-inkscape-stroke:none;stop-color:#000" transform="translate(-9.7123434,-411.68409) matrix(0.26458333,0,0,0.26458333,-56.6644,222.04257)"><tspan x="273.941" y="769.166">W8</tspan></text><path d="M46.712 426.58h10.085" style="fill:#e9ddaf;fill-opacity:1;stroke:#f55;stroke-width:.264581;stroke-linejoin:round;marker-start:url(#y);marker-end:url(#y)" transform="translate(-9.7123434,-411.68409)"/><text xml:space="preserve" style="font-size:16px;line-height:normal;font-family:&quot;Liberation Mono&quot;;-inkscape-font-specification:&quot;Liberation Mono&quot;;text-decoration-color:#000;white-space:pre;shape-inside:url(#z);display:inline;fill:#a00;stroke-width:1;-inkscape-stroke:none;stop-color:#000" transform="translate(-9.7123434,-411.68409) matrix(0.26458333,0,0,0.26458333,-23.371569,222.1431)"><tspan x="273.941" y="769.166">W8</tspan></text><path d="M73.278 451.584v-2.156" style="fill:#e9ddaf;fill-opacity:1;stroke:#f55;stroke-width:.264584;stroke-linejoin:round;marker-start:url(#A);marker-end:url(#A)" transform="translate(-9.7123434,-411.68409)"/><path d="M125.804 453.498v-3.541" style="fill:#e9ddaf;fill-opacity:1;stroke:#f55;stroke-width:.264585;stroke-linejoin:round;marker-start:url(#B)" transform="translate(-9.7123434,-411.68409)"/><text xml:space="preserve" style="font-size:16px;line-height:normal;font-family:&quot;Liberation Mono&quot;;-inkscape-font-specification:&quot;Liberation Mono&quot;;text-decoration-color:#000;white-space:pre;shape-inside:url(#C);display:inline;fill:#a00;stroke-width:1;-inkscape-stroke:none;stop-color:#000" transform="translate(-9.7123434,-411.68409) matrix(0.26458333,0,0,0.26458333,-20.037875,246.53758)"><tspan x="356.123" y="776.174">E7</tspan></text><path d="M90.51 464.198v-12.106" style="fill:#e9ddaf;fill-opacity:1;stroke:#f55;stroke-width:.264584;stroke-linejoin:round;marker-start:url(#D);marker-end:url(#D)" transform="translate(-9.7123434,-411.68409)"/><text xml:space="preserve" style="font-size:16px;line-height:normal;font-family:&quot;Liberation Mono&quot;;-inkscape-font-specification:&quot;Liberation Mono&quot;;text-decoration-color:#000;white-space:pre;shape-inside:url(#E);display:inline;fill:#a00;stroke-width:1;-inkscape-stroke:none;stop-color:#000" transform="translate(-9.7123434,-411.68409) matrix(0.26458333,0,0,0.26458333,9.1955833,-22.020371)"><tspan x="287.586" y="1820.078">H6</tspan></text><path d="m113.023 501.336 5.447-1.854" style="fill:#e9ddaf;fill-opacity:1;stroke:#f55;stroke-width:.264583;stroke-linejoin:round;marker-start:url(#F)" transform="translate(-9.7123434,-411.68409)"/><path d="m109.515 502.523-5.447 1.855" style="fill:#e9ddaf;fill-opacity:1;stroke:#f55;stroke-width:.264583;stroke-linejoin:round;marker-start:url(#G)" transform="translate(-9.7123434,-411.68409)"/><text xml:space="preserve" style="font-size:16px;line-height:normal;font-family:&quot;Liberation Mono&quot;;-inkscape-font-specification:&quot;Liberation Mono&quot;;text-decoration-color:#000;white-space:pre;shape-inside:url(#H);display:inline;fill:#a00;stroke-width:1;-inkscape-stroke:none;stop-color:#000" transform="translate(-9.7123434,-411.68409) matrix(0.26458333,0,0,0.26458333,24.990519,294.5703)"><tspan x="352.301" y="789.553">E4</tspan></text><path d="M125.802 455.366v3.541" style="fill:#e9ddaf;fill-opacity:1;stroke:#f55;stroke-width:.264585;stroke-linejoin:round;marker-start:url(#I)" transform="translate(-9.7123434,-411.68409)"/><text xml:space="preserve" style="font-size:16px;line-height:normal;font-family:&quot;Liberation Mono&quot;;-inkscape-font-specification:&quot;Liberation Mono&quot;;text-decoration-color:#000;white-space:pre;shape-inside:url(#J);display:inline;fill:#a00;stroke-width:1;-inkscape-stroke:none;stop-color:#000" transform="translate(-9.7123434,-411.68409) matrix(0.26458333,0,0,0.26458333,25.931153,244.97258)"><tspan x="356.123" y="776.174">E6</tspan></text><path d="M64.873 511.231v-43.45" style="fill:#e9ddaf;fill-opacity:1;stroke:#f55;stroke-width:.264583;stroke-linejoin:round;marker-start:url(#K);marker-end:url(#K)" transform="translate(-9.7123434,-411.68409)"/><text xml:space="preserve" style="font-size:16px;line-height:normal;font-family:&quot;Liberation Mono&quot;;-inkscape-font-specification:&quot;Liberation Mono&quot;;text-decoration-color:#000;white-space:pre;shape-inside:url(#L);display:inline;fill:#a00;stroke-width:1;-inkscape-stroke:none;stop-color:#000" transform="translate(-9.7123434,-411.68409) matrix(0.26458333,0,0,0.26458333,-6.8818531,288.2446)"><tspan x="273.941" y="769.166">L4</tspan></text><path d="M72.395 446.975h11.333" style="fill:#e9ddaf;fill-opacity:1;stroke:#f55;stroke-width:.264584;stroke-linejoin:round;marker-start:url(#M);marker-end:url(#M)" transform="translate(-9.7123434,-411.68409)"/><text xml:space="preserve" style="font-size:16px;line-height:normal;font-family:&quot;Liberation Mono&quot;;-inkscape-font-specification:&quot;Liberation Mono&quot;;text-decoration-color:#000;white-space:pre;shape-inside:url(#N);display:inline;fill:#a00;stroke-width:1;-inkscape-stroke:none;stop-color:#000" transform="translate(-9.7123434,-411.68409) matrix(0.26458333,0,0,0.26458333,2.5584411,242.16362)"><tspan x="273.941" y="769.166">D7</tspan></text><path d="m133.623 457.994-41.634 53.601" style="fill:purple;stroke:purple;stroke-width:.264583;stroke-linejoin:round;marker-start:url(#O);marker-end:url(#O)" transform="translate(-9.7123434,-411.68409)"/><path d="M127.329 457.95h19.438" style="fill:#b3b3b3;stroke:#ccc;stroke-width:.264582;stroke-linejoin:round" transform="translate(-9.7123434,-411.68409)"/><text xml:space="preserve" style="font-size:16px;line-height:normal;font-family:&quot;Liberation Mono&quot;;-inkscape-font-specification:&quot;Liberation Mono&quot;;text-decoration-color:#000;white-space:pre;shape-inside:url(#P);fill:#999;stroke-width:1;-inkscape-stroke:none;stop-color:#000" transform="translate(-9.7123434,-411.68409) matrix(0.26458333,0,0,0.26458333,-0.75851307,7.2480138)"><tspan x="314.076" y="1895.508">TX4</tspan></text><path d="m33.794 473.13 1.401-1.294" style="fill:#e9ddaf;fill-opacity:1;stroke:#f55;stroke-width:.264583;stroke-linejoin:round;marker-end:url(#Q)" transform="translate(-9.7123434,-411.68409)"/><path d="M91.895 504.943s1.336-.12 1.966.06c.685.196 1.848 1.073 1.848 1.073" style="fill:none;stroke:#b3b3b3;stroke-width:.264583;stroke-linejoin:round;marker-end:url(#O)" transform="translate(-9.7123434,-411.68409)"/><text xml:space="preserve" style="font-size:16px;line-height:normal;font-family:&quot;Liberation Mono&quot;;-inkscape-font-specification:&quot;Liberation Mono&quot;;text-decoration-color:#000;white-space:pre;shape-inside:url(#R);fill:#999;stroke-width:1;-inkscape-stroke:none;stop-color:#000" transform="translate(-9.7123434,-411.68409) matrix(0.26458333,0,0,0.26458333,0.11918883,3.3968817)"><tspan x="348.895" y="1892.953">a4</tspan></text></svg>