<svg xmlns="http://www.w3.org/2000/svg" width="415.402" height="336.437" viewBox="0 0 109.909 89.016"><defs><path id="I" d="M223.436 542.958h42.323v26.69h-42.323z"/><path id="A" d="M275.005 485.034h32.621v26.692h-32.621z"/><path id="w" d="M242.008 320.355h36.073v27.177h-36.073z"/><path id="p" d="M145.591 487.365h70.099v45.93h-70.099z"/><path id="i" d="M187.651 205.984h52.693v33.891h-52.693z"/><path id="f" d="M58.236 363.845h90.051v41.525H58.236z"/><path id="c" d="M546.236 343.487h45.834v34.023h-45.834z"/><path id="d" d="M546.236 343.487h45.834v34.023h-45.834z"/><path id="g" d="M546.236 343.487h45.834v34.023h-45.834z"/><path id="k" d="M187.651 205.984h52.693v33.891h-52.693z"/><path id="m" d="M187.651 205.984h52.693v33.891h-52.693z"/><path id="q" d="M187.651 205.984h52.693v33.891h-52.693z"/><path id="s" d="M546.236 343.487h45.834v34.023h-45.834z"/><path id="t" d="M546.236 343.487h45.834v34.023h-45.834z"/><path id="z" d="M242.008 320.355h36.073v27.177h-36.073z"/><path id="C" d="M275.005 485.034h32.621v26.692h-32.621z"/><path id="E" d="M546.236 343.487h45.834v34.023h-45.834z"/><path id="G" d="M546.236 343.487h45.834v34.023h-45.834z"/><path id="K" d="M223.436 542.958h42.323v26.69h-42.323z"/><path id="M" d="M223.436 542.958h42.323v26.69h-42.323z"/><path id="O" d="M223.436 542.958h42.323v26.69h-42.323z"/><marker id="a" markerHeight="1" markerWidth="1" orient="auto-start-reverse" preserveAspectRatio="xMidYMid" refX="0" refY="0" style="overflow:visible" viewBox="0 0 1 1"><path d="M3-3 0 0l3 3" style="fill:none;stroke:context-stroke;stroke-width:1;stroke-linecap:butt" transform="rotate(180 .125 0)"/></marker><marker id="b" markerHeight="1" markerWidth="1" orient="auto-start-reverse" preserveAspectRatio="xMidYMid" refX="0" refY="0" style="overflow:visible" viewBox="0 0 1 1"><path d="M3-3 0 0l3 3" style="fill:none;stroke:context-stroke;stroke-width:1;stroke-linecap:butt" transform="rotate(180 .125 0)"/></marker><marker id="e" markerHeight="1" markerWidth="1" orient="auto-start-reverse" preserveAspectRatio="xMidYMid" refX="0" refY="0" style="overflow:visible" viewBox="0 0 1 1"><path d="M3-3 0 0l3 3" style="fill:none;stroke:context-stroke;stroke-width:1;stroke-linecap:butt" transform="rotate(180 .125 0)"/></marker><marker id="h" markerHeight="1" markerWidth="1" orient="auto-start-reverse" preserveAspectRatio="xMidYMid" refX="0" refY="0" style="overflow:visible" viewBox="0 0 1 1"><path d="M3-3 0 0l3 3" style="fill:none;stroke:context-stroke;stroke-width:1;stroke-linecap:butt" transform="rotate(180 .125 0)"/></marker><marker id="j" markerHeight="1" markerWidth="1" orient="auto-start-reverse" preserveAspectRatio="xMidYMid" refX="0" refY="0" style="overflow:visible" viewBox="0 0 1 1"><path d="M3-3 0 0l3 3" style="fill:none;stroke:context-stroke;stroke-width:1;stroke-linecap:butt" transform="rotate(180 .125 0)"/></marker><marker id="l" markerHeight="1" markerWidth="1" orient="auto-start-reverse" preserveAspectRatio="xMidYMid" refX="0" refY="0" style="overflow:visible" viewBox="0 0 1 1"><path d="M3-3 0 0l3 3" style="fill:none;stroke:context-stroke;stroke-width:1;stroke-linecap:butt" transform="rotate(180 .125 0)"/></marker><marker id="n" markerHeight="1" markerWidth="1" orient="auto-start-reverse" preserveAspectRatio="xMidYMid" refX="0" refY="0" style="overflow:visible" viewBox="0 0 1 1"><path d="M3-3 0 0l3 3" style="fill:none;stroke:context-stroke;stroke-width:1;stroke-linecap:butt" transform="rotate(180 .125 0)"/></marker><marker id="o" markerHeight="1" markerWidth="1" orient="auto-start-reverse" preserveAspectRatio="xMidYMid" refX="0" refY="0" style="overflow:visible" viewBox="0 0 1 1"><path d="M3-3 0 0l3 3" style="fill:none;stroke:context-stroke;stroke-width:1;stroke-linecap:butt" transform="rotate(180 .125 0)"/></marker><marker id="r" markerHeight="1" markerWidth="1" orient="auto-start-reverse" preserveAspectRatio="xMidYMid" refX="0" refY="0" style="overflow:visible" viewBox="0 0 1 1"><path d="M3-3 0 0l3 3" style="fill:none;stroke:context-stroke;stroke-width:1;stroke-linecap:butt" transform="rotate(180 .125 0)"/></marker><marker id="u" markerHeight="1" markerWidth="1" orient="auto-start-reverse" preserveAspectRatio="xMidYMid" refX="0" refY="0" style="overflow:visible" viewBox="0 0 1 1"><path d="M3-3 0 0l3 3" style="fill:none;stroke:context-stroke;stroke-width:1;stroke-linecap:butt" transform="rotate(180 .125 0)"/></marker><marker id="v" markerHeight="1" markerWidth="1" orient="auto-start-reverse" preserveAspectRatio="xMidYMid" refX="0" refY="0" style="overflow:visible" viewBox="0 0 1 1"><path d="M3-3 0 0l3 3" style="fill:none;stroke:context-stroke;stroke-width:1;stroke-linecap:butt" transform="rotate(180 .125 0)"/></marker><marker id="x" markerHeight="1" markerWidth="1" orient="auto-start-reverse" preserveAspectRatio="xMidYMid" refX="0" refY="0" style="overflow:visible" viewBox="0 0 1 1"><path d="M3-3 0 0l3 3" style="fill:none;stroke:context-stroke;stroke-width:1;stroke-linecap:butt" transform="rotate(180 .125 0)"/></marker><marker id="y" markerHeight="1" markerWidth="1" orient="auto-start-reverse" preserveAspectRatio="xMidYMid" refX="0" refY="0" style="overflow:visible" viewBox="0 0 1 1"><path d="M3-3 0 0l3 3" style="fill:none;stroke:context-stroke;stroke-width:1;stroke-linecap:butt" transform="rotate(180 .125 0)"/></marker><marker id="B" markerHeight="1" markerWidth="1" orient="auto-start-reverse" preserveAspectRatio="xMidYMid" refX="0" refY="0" style="overflow:visible" viewBox="0 0 1 1"><path d="M3-3 0 0l3 3" style="fill:none;stroke:context-stroke;stroke-width:1;stroke-linecap:butt" transform="rotate(180 .125 0)"/></marker><marker id="D" markerHeight="1" markerWidth="1" orient="auto-start-reverse" preserveAspectRatio="xMidYMid" refX="0" refY="0" style="overflow:visible" viewBox="0 0 1 1"><path d="M3-3 0 0l3 3" style="fill:none;stroke:context-stroke;stroke-width:1;stroke-linecap:butt" transform="rotate(180 .125 0)"/></marker><marker id="F" markerHeight="1" markerWidth="1" orient="auto-start-reverse" preserveAspectRatio="xMidYMid" refX="0" refY="0" style="overflow:visible" viewBox="0 0 1 1"><path d="M3-3 0 0l3 3" style="fill:none;stroke:context-stroke;stroke-width:1;stroke-linecap:butt" transform="rotate(180 .125 0)"/></marker><marker id="H" markerHeight="1" markerWidth="1" orient="auto-start-reverse" preserveAspectRatio="xMidYMid" refX="0" refY="0" style="overflow:visible" viewBox="0 0 1 1"><path d="M3-3 0 0l3 3" style="fill:none;stroke:context-stroke;stroke-width:1;stroke-linecap:butt" transform="rotate(180 .125 0)"/></marker><marker id="J" markerHeight="1" markerWidth="1" orient="auto-start-reverse" preserveAspectRatio="xMidYMid" refX="0" refY="0" style="overflow:visible" viewBox="0 0 1 1"><path d="M3-3 0 0l3 3" style="fill:none;stroke:context-stroke;stroke-width:1;stroke-linecap:butt" transform="rotate(180 .125 0)"/></marker><marker id="L" markerHeight="1" markerWidth="1" orient="auto-start-reverse" preserveAspectRatio="xMidYMid" refX="0" refY="0" style="overflow:visible" viewBox="0 0 1 1"><path d="M3-3 0 0l3 3" style="fill:none;stroke:context-stroke;stroke-width:1;stroke-linecap:butt" transform="rotate(180 .125 0)"/></marker><marker id="N" markerHeight="1" markerWidth="1" orient="auto-start-reverse" preserveAspectRatio="xMidYMid" refX="0" refY="0" style="overflow:visible" viewBox="0 0 1 1"><path d="M3-3 0 0l3 3" style="fill:none;stroke:context-stroke;stroke-width:1;stroke-linecap:butt" transform="rotate(180 .125 0)"/></marker></defs><path d="M32.198 56.495h109.644v88.751H32.198z" style="fill:#fff;stroke:#fff;stroke-width:.264583;stroke-linejoin:round" transform="translate(-32.065 -56.362)"/><g style="fill:#acf;stroke:#003380;stroke-width:1.10165"><path d="M-133.967 87.635h72.049v15.61h-72.049z" style="fill:#acf;stroke:#003380;stroke-width:.291476;stroke-linejoin:round" transform="matrix(0 -.99212 .83053 0 -5.211 -51.322)"/></g><path d="M53.502 93.936v15.61l46.218.016 9.133-15.548zM53.502 93.936v-15.61l46.218-.015 9.133 15.548z" style="fill:#59f;stroke:#003380;stroke-width:.264583;stroke-linejoin:round" transform="translate(-32.065 -56.362)"/><g style="fill:#acf;stroke:#003380;stroke-width:1.10165"><path d="M-133.967 87.635h72.049v15.61h-72.049z" style="fill:#acf;stroke:#003380;stroke-width:.291476;stroke-linejoin:round" transform="matrix(0 -.99212 .83053 0 7.754 -51.322)"/></g><path d="M47.226 86.131h6.277v15.61h-6.277z" style="fill:#b7c8b7;stroke:#374837;stroke-width:.264583;stroke-linejoin:round" transform="translate(-32.065 -56.362)"/><path d="M-115.838 63.723h6.277V99.72h-6.277z" style="fill:#b7c8b7;stroke:#374837;stroke-width:.264583;stroke-linejoin:round" transform="rotate(-90 -44.214 -12.148)"/><path d="m63.723 109.562 7.423.121V98.765l-7.423 3.045zM78.569 109.562l-7.423.121V98.765l7.423 3.045zM125.567 132.66l.122-7.423H114.77l3.045 7.423zM125.567 117.815l.122 7.422H114.77l3.045-7.422z" style="fill:#d5d5ff;stroke:#00a;stroke-width:.264583;stroke-linejoin:round" transform="translate(-32.065 -56.362)"/><path d="m116.42 93.804 9.401 15.875 4.865-.132v-15.61Z" style="fill:#59f;stroke:#003380;stroke-width:.264583;stroke-linejoin:round" transform="translate(-32.065 -56.362)"/><path d="m116.42 94.069 9.401-15.875 4.865.132v15.61Z" style="fill:#59f;stroke:#003380;stroke-width:.264583;stroke-linejoin:round" transform="translate(-32.065 -56.362)"/><path d="M73.708 71.225h12.965l.214 17.956-13.18-6.602Z" style="fill:#06f;stroke:#003380;stroke-width:.264583;stroke-linejoin:round" transform="translate(-32.065 -56.362)"/><path d="M99.638 71.225H86.673l-.215 17.956 13.18-6.602z" style="fill:#06f;stroke:#003380;stroke-width:.264583;stroke-linejoin:round" transform="translate(-32.065 -56.362)"/><path d="M90.762 103.288h10.391v3.834H90.762z" style="fill:#b7c4c8;stroke:#003380;stroke-width:.264583;stroke-linejoin:round" transform="translate(-32.065 -56.362)"/><path d="M-117.513 101.153h10.391v3.834h-10.391z" style="fill:#b7c4c8;stroke:#003380;stroke-width:.264583;stroke-linejoin:round" transform="rotate(-90 -44.214 -12.148)"/><path d="M132.803 78.326v31.22" style="fill:#b7c4c8;stroke:#f55;stroke-width:.264583;stroke-linejoin:round;marker-start:url(#a);marker-end:url(#a)" transform="translate(-32.065 -56.362)"/><path d="M99.638 64.354h25.93" style="fill:#b7c4c8;stroke:#f55;stroke-width:.264583;stroke-linejoin:round;marker-start:url(#a);marker-end:url(#a)" transform="translate(-32.065 -56.362)"/><path d="M73.334 69.33h25.93" style="fill:#b7c4c8;stroke:#f55;stroke-width:.264583;stroke-linejoin:round;marker-start:url(#b);marker-end:url(#b)" transform="translate(-32.065 -56.362)"/><path d="m90.762 103.288 5.196.078V96.4l-5.196 1.943zM101.153 103.288l-5.195.078V96.4l5.195 1.943zM104.987 107.122l-.078 5.196h6.966l-1.943-5.196z" style="fill:#00f;stroke:#00a;stroke-width:.264583;stroke-linejoin:round" transform="translate(-32.065 -56.362)"/><path d="m104.987 117.513-.078-5.196h6.966l-1.943 5.196z" style="fill:#00f;stroke:#00a;stroke-width:.264583;stroke-linejoin:round" transform="translate(-32.065 -56.362)"/><path d="M90.762 103.288v3.834h10.391v10.391h3.834v-10.391l-1.917-2.898-1.917-.936z" style="fill:#e2e3db;stroke:#676c53;stroke-width:.264583;stroke-linejoin:round" transform="translate(-32.065 -56.362)"/><text xml:space="preserve" style="font-size:16px;line-height:normal;font-family:&quot;Liberation Mono&quot;;-inkscape-font-specification:&quot;Liberation Mono&quot;;text-decoration-color:#000;white-space:pre;shape-inside:url(#c);display:inline;fill:#f55;stroke-width:1;-inkscape-stroke:none;stop-color:#000" transform="translate(-42.052 -55.536)scale(.26458)"><tspan x="546.236" y="357.723">WA</tspan></text><text xml:space="preserve" style="font-size:16px;line-height:normal;font-family:&quot;Liberation Mono&quot;;-inkscape-font-specification:&quot;Liberation Mono&quot;;text-decoration-color:#000;white-space:pre;shape-inside:url(#d);display:inline;fill:#f55;stroke-width:1;-inkscape-stroke:none;stop-color:#000" transform="translate(-66.449 -88.628)scale(.26458)"><tspan x="546.236" y="357.723">WB</tspan></text><path d="M44.58 86.27v15.598" style="fill:#b7c4c8;stroke:#f55;stroke-width:.264583;stroke-linejoin:round;marker-start:url(#e);marker-end:url(#e)" transform="translate(-32.065 -56.362)"/><text xml:space="preserve" style="font-size:16px;line-height:normal;font-family:&quot;Liberation Mono&quot;;-inkscape-font-specification:&quot;Liberation Mono&quot;;text-decoration-color:#000;white-space:pre;shape-inside:url(#f);display:inline;fill:#f55;stroke-width:1;-inkscape-stroke:none;stop-color:#000" transform="translate(-11.71 -60.644)scale(.26458)"><tspan x="58.236" y="378.082">WA2</tspan></text><text xml:space="preserve" style="font-size:16px;line-height:normal;font-family:&quot;Liberation Mono&quot;;-inkscape-font-specification:&quot;Liberation Mono&quot;;text-decoration-color:#000;white-space:pre;shape-inside:url(#g);display:inline;fill:#f55;stroke-width:1;-inkscape-stroke:none;stop-color:#000" transform="translate(-92.032 -83.442)scale(.26458)"><tspan x="546.236" y="357.723">WC</tspan></text><path d="M53.824 75.844h19.534" style="fill:#b7c4c8;stroke:#f55;stroke-width:.264583;stroke-linejoin:round;marker-start:url(#h);marker-end:url(#h)" transform="translate(-32.065 -56.362)"/><text xml:space="preserve" style="font-size:16px;line-height:normal;font-family:&quot;Liberation Mono&quot;;-inkscape-font-specification:&quot;Liberation Mono&quot;;text-decoration-color:#000;white-space:pre;shape-inside:url(#i);display:inline;fill:#f55;stroke-width:1;-inkscape-stroke:none;stop-color:#000" transform="translate(-20.366 -39.714)scale(.26458)"><tspan x="187.65" y="220.221">L1</tspan></text><path d="M47.173 83.873h6.118" style="fill:#b7c4c8;stroke:#f55;stroke-width:.264583;stroke-linejoin:round;marker-start:url(#j);marker-end:url(#j)" transform="translate(-32.065 -56.362)"/><text xml:space="preserve" style="font-size:16px;line-height:normal;font-family:&quot;Liberation Mono&quot;;-inkscape-font-specification:&quot;Liberation Mono&quot;;text-decoration-color:#000;white-space:pre;shape-inside:url(#k);display:inline;fill:#f55;stroke-width:1;-inkscape-stroke:none;stop-color:#000" transform="translate(-34.254 -32.344)scale(.26458)"><tspan x="187.65" y="220.221">S1</tspan></text><path d="M125.942 74.069h6.117" style="fill:#b7c4c8;stroke:#f55;stroke-width:.264583;stroke-linejoin:round;marker-start:url(#l);marker-end:url(#l)" transform="translate(-32.065 -56.362)"/><text xml:space="preserve" style="font-size:16px;line-height:normal;font-family:&quot;Liberation Mono&quot;;-inkscape-font-specification:&quot;Liberation Mono&quot;;text-decoration-color:#000;white-space:pre;shape-inside:url(#m);display:inline;fill:#f55;stroke-width:1;-inkscape-stroke:none;stop-color:#000" transform="translate(44.515 -42.148)scale(.26458)"><tspan x="187.65" y="220.221">L2</tspan></text><path d="M63.849 117.387H99" style="fill:#b7c4c8;stroke:#f55;stroke-width:.264583;stroke-linejoin:round;marker-start:url(#n);marker-end:url(#n)" transform="translate(-32.065 -56.362)"/><path d="M61.607 115.68v-6.118" style="fill:#b7c4c8;stroke:#f55;stroke-width:.264583;stroke-linejoin:round;marker-start:url(#o);marker-end:url(#o)" transform="translate(-32.065 -56.362)"/><text xml:space="preserve" style="font-size:16px;line-height:normal;font-family:&quot;Liberation Mono&quot;;-inkscape-font-specification:&quot;Liberation Mono&quot;;text-decoration-color:#000;white-space:pre;shape-inside:url(#p);display:inline;fill:#f55;stroke-width:1;-inkscape-stroke:none;stop-color:#000" transform="translate(-14.945 -75.104)scale(.26458)"><tspan x="145.592" y="501.602">S2</tspan></text><text xml:space="preserve" style="font-size:16px;line-height:normal;font-family:&quot;Liberation Mono&quot;;-inkscape-font-specification:&quot;Liberation Mono&quot;;text-decoration-color:#000;white-space:pre;shape-inside:url(#q);display:inline;fill:#f55;stroke-width:1;-inkscape-stroke:none;stop-color:#000" transform="translate(-2.973 6.963)scale(.26458)"><tspan x="187.65" y="220.221">L3</tspan></text><path d="M64.052 110.583H78.12" style="fill:#b7c4c8;stroke:#f55;stroke-width:.264583;stroke-linejoin:round;marker-start:url(#r);marker-end:url(#r)" transform="translate(-32.065 -56.362)"/><text xml:space="preserve" style="font-size:16px;line-height:normal;font-family:&quot;Liberation Mono&quot;;-inkscape-font-specification:&quot;Liberation Mono&quot;;text-decoration-color:#000;white-space:pre;shape-inside:url(#s);display:inline;fill:#f55;stroke-width:1;-inkscape-stroke:none;stop-color:#000" transform="translate(-107.763 -36.958)scale(.26458)"><tspan x="546.236" y="357.723">WD</tspan></text><text xml:space="preserve" style="font-size:16px;line-height:normal;font-family:&quot;Liberation Mono&quot;;-inkscape-font-specification:&quot;Liberation Mono&quot;;text-decoration-color:#000;white-space:pre;shape-inside:url(#t);display:inline;fill:#f55;stroke-width:1;-inkscape-stroke:none;stop-color:#000" transform="translate(-48.752 -24.745)scale(.26458)"><tspan x="546.236" y="357.723">WD</tspan></text><path d="M127.276 132.27v-14.066" style="fill:#b7c4c8;stroke:#f55;stroke-width:.264583;stroke-linejoin:round;marker-start:url(#u);marker-end:url(#u)" transform="translate(-32.065 -56.362)"/><path d="M75.93 77.926v-6.118" style="fill:#b7c4c8;stroke:#f55;stroke-width:.264583;stroke-linejoin:round;marker-start:url(#v);marker-end:url(#v)" transform="translate(-32.065 -56.362)"/><text xml:space="preserve" style="font-size:16px;line-height:normal;font-family:&quot;Liberation Mono&quot;;-inkscape-font-specification:&quot;Liberation Mono&quot;;text-decoration-color:#000;white-space:pre;shape-inside:url(#w);display:inline;fill:#f55;stroke-width:1;-inkscape-stroke:none;stop-color:#000" transform="translate(-19.436 -68.629)scale(.26458)"><tspan x="242.008" y="334.592">M1</tspan></text><path d="M123.362 78.165V66.797" style="fill:#b7c4c8;stroke:#f55;stroke-width:.264582;stroke-linejoin:round;marker-start:url(#x);marker-end:url(#x)" transform="translate(-32.065 -56.362)"/><path d="M113.89 132.745v-22.438" style="fill:#b7c4c8;stroke:#f55;stroke-width:.264583;stroke-linejoin:round;marker-start:url(#y);marker-end:url(#y)" transform="translate(-32.065 -56.362)"/><text xml:space="preserve" style="font-size:16px;line-height:normal;font-family:&quot;Liberation Mono&quot;;-inkscape-font-specification:&quot;Liberation Mono&quot;;text-decoration-color:#000;white-space:pre;shape-inside:url(#z);display:inline;fill:#f55;stroke-width:1;-inkscape-stroke:none;stop-color:#000" transform="translate(21.561 -71.015)scale(.26458)"><tspan x="242.008" y="334.592">M2</tspan></text><text xml:space="preserve" style="font-size:16px;line-height:normal;font-family:&quot;Liberation Mono&quot;;-inkscape-font-specification:&quot;Liberation Mono&quot;;text-decoration-color:#000;white-space:pre;shape-inside:url(#A);display:inline;fill:#f55;stroke-width:1;-inkscape-stroke:none;stop-color:#000" transform="translate(9.544 -71.536)scale(.26458)"><tspan x="275.006" y="499.27">M3</tspan></text><path d="M118.284 137.557v-4.575" style="fill:#b7c4c8;stroke:#f55;stroke-width:.264583;stroke-linejoin:round;marker-start:url(#B);marker-end:url(#B)" transform="translate(-32.065 -56.362)"/><text xml:space="preserve" style="font-size:16px;line-height:normal;font-family:&quot;Liberation Mono&quot;;-inkscape-font-specification:&quot;Liberation Mono&quot;;text-decoration-color:#000;white-space:pre;shape-inside:url(#C);display:inline;fill:#f55;stroke-width:1;-inkscape-stroke:none;stop-color:#000" transform="translate(14.36 -51.796)scale(.26458)"><tspan x="275.006" y="499.27">M4</tspan></text><path d="M90.82 104.386h10.275" style="fill:#b7c4c8;stroke:purple;stroke-width:.264583;stroke-linejoin:round;marker-start:url(#D);marker-end:url(#D)" transform="translate(-32.065 -56.362)"/><text xml:space="preserve" style="font-size:16px;line-height:normal;font-family:&quot;Liberation Mono&quot;;-inkscape-font-specification:&quot;Liberation Mono&quot;;text-decoration-color:#000;white-space:pre;shape-inside:url(#E);display:inline;fill:purple;stroke-width:1;-inkscape-stroke:none;stop-color:#000" transform="translate(-82.87 -43.117)scale(.26458)"><tspan x="546.236" y="357.723">WE</tspan></text><path d="M103.716 107.165v10.274" style="fill:#b7c4c8;stroke:#a40;stroke-width:.264583;stroke-linejoin:round;marker-start:url(#F);marker-end:url(#F)" transform="translate(-32.065 -56.362)"/><text xml:space="preserve" style="font-size:16px;line-height:normal;font-family:&quot;Liberation Mono&quot;;-inkscape-font-specification:&quot;Liberation Mono&quot;;text-decoration-color:#000;white-space:pre;shape-inside:url(#G);display:inline;fill:#a40;stroke-width:1;-inkscape-stroke:none;stop-color:#000" transform="translate(-78.107 -37.17)scale(.26458)"><tspan x="546.236" y="357.723">WE</tspan></text><path d="M89.136 94.109v9.216" style="fill:#b7c4c8;stroke:purple;stroke-width:.264583;stroke-linejoin:round;marker-start:url(#H);marker-end:url(#H)" transform="translate(-32.065 -56.362)"/><text xml:space="preserve" style="font-size:16px;line-height:normal;font-family:&quot;Liberation Mono&quot;;-inkscape-font-specification:&quot;Liberation Mono&quot;;text-decoration-color:#000;white-space:pre;shape-inside:url(#I);fill:purple;stroke-width:1;-inkscape-stroke:none;stop-color:#000" transform="translate(-10.174 -103.576)scale(.26458)"><tspan x="223.436" y="557.193">AE1</tspan></text><path d="M106.082 119.09h6.332" style="fill:#b7c4c8;stroke:#a40;stroke-width:.264583;stroke-linejoin:round;marker-start:url(#J);marker-end:url(#J)" transform="translate(-32.065 -56.362)"/><text xml:space="preserve" style="font-size:16px;line-height:normal;font-family:&quot;Liberation Mono&quot;;-inkscape-font-specification:&quot;Liberation Mono&quot;;text-decoration-color:#000;white-space:pre;shape-inside:url(#K);display:inline;fill:#a40;stroke-width:1;-inkscape-stroke:none;stop-color:#000" transform="translate(13.459 -80.386)scale(.26458)"><tspan x="223.436" y="557.193">AE2</tspan></text><path d="M101.652 97.942h10.569" style="fill:#b7c4c8;stroke:purple;stroke-width:.264583;stroke-linejoin:round;marker-start:url(#L);marker-end:url(#L)" transform="translate(-32.065 -56.362)"/><text xml:space="preserve" style="font-size:16px;line-height:normal;font-family:&quot;Liberation Mono&quot;;-inkscape-font-specification:&quot;Liberation Mono&quot;;text-decoration-color:#000;white-space:pre;shape-inside:url(#M);display:inline;fill:purple;stroke-width:1;-inkscape-stroke:none;stop-color:#000" transform="translate(9.672 -106.387)scale(.26458)"><tspan x="223.436" y="557.193">BE1</tspan></text><path d="M110.927 94.636v11.988" style="fill:#b7c4c8;stroke:#a40;stroke-width:.264583;stroke-linejoin:round;marker-start:url(#N);marker-end:url(#N)" transform="translate(-32.065 -56.362)"/><text xml:space="preserve" style="font-size:16px;line-height:normal;font-family:&quot;Liberation Mono&quot;;-inkscape-font-specification:&quot;Liberation Mono&quot;;text-decoration-color:#000;white-space:pre;shape-inside:url(#O);display:inline;fill:#a40;stroke-width:1;-inkscape-stroke:none;stop-color:#000" transform="translate(11.897 -99.282)scale(.26458)"><tspan x="223.436" y="557.193">BE2</tspan></text></svg>