<svg xmlns="http://www.w3.org/2000/svg" width="237.796" height="209.185" viewBox="0 0 62.917 55.347"><defs><marker id="a" markerHeight="1" markerWidth="1" orient="auto-start-reverse" preserveAspectRatio="xMidYMid" refX="0" refY="0" style="overflow:visible" viewBox="0 0 1 1"><path d="M3-3 0 0l3 3" style="fill:none;stroke:context-stroke;stroke-width:1;stroke-linecap:butt" transform="rotate(180,0.125,0)"/></marker><marker id="c" markerHeight="1" markerWidth="1" orient="auto-start-reverse" preserveAspectRatio="xMidYMid" refX="0" refY="0" style="overflow:visible" viewBox="0 0 1 1"><path d="M3-3 0 0l3 3" style="fill:none;stroke:context-stroke;stroke-width:1;stroke-linecap:butt" transform="rotate(180,0.125,0)"/></marker><marker id="e" markerHeight="1" markerWidth="1" orient="auto-start-reverse" preserveAspectRatio="xMidYMid" refX="0" refY="0" style="overflow:visible" viewBox="0 0 1 1"><path d="M3-3 0 0l3 3" style="fill:none;stroke:context-stroke;stroke-width:1;stroke-linecap:butt" transform="rotate(180,0.125,0)"/></marker><path id="b" d="M546.236 343.487h45.834v34.023h-45.834z"/><path id="d" d="M546.236 343.487h45.834v34.023h-45.834z"/><path id="f" d="M546.236 343.487h45.834v34.023h-45.834z"/></defs><path d="M53.502 181.186h62.652v55.082H53.502z" style="fill:#fff;stroke:#fff;stroke-width:.264583;stroke-linejoin:round" transform="translate(-53.37001,-181.05386)"/><path d="m60.852 213.168.162 14.015h38.208l.162-14.015L80.28 186.08z" style="fill:#f4e3d7;stroke:#a05a2c;stroke-width:.264584;stroke-linejoin:round" transform="translate(-53.37001,-181.05386)"/><path d="M60.993 229.261h37.988" style="fill:#b7c4c8;stroke:#f55;stroke-width:.264583;stroke-linejoin:round;marker-start:url(#a);marker-end:url(#a)" transform="translate(-53.37001,-181.05386)"/><text xml:space="preserve" style="font-size:16px;line-height:normal;font-family:&quot;Liberation Mono&quot;;-inkscape-font-specification:&quot;Liberation Mono&quot;;text-decoration-color:#000;white-space:pre;shape-inside:url(#b);display:inline;fill:#f55;stroke-width:1;-inkscape-stroke:none;stop-color:#000" transform="translate(-53.37001,-181.05386) matrix(0.26458333,0,0,0.26458333,-67.077432,139.34761)"><tspan x="546.236" y="357.723">WA</tspan></text><path d="M100.933 227.064v-13.821" style="fill:#b7c4c8;stroke:#f55;stroke-width:.264583;stroke-linejoin:round;marker-start:url(#c);marker-end:url(#c)" transform="translate(-53.37001,-181.05386)"/><text xml:space="preserve" style="font-size:16px;line-height:normal;font-family:&quot;Liberation Mono&quot;;-inkscape-font-specification:&quot;Liberation Mono&quot;;text-decoration-color:#000;white-space:pre;shape-inside:url(#d);display:inline;fill:#f55;stroke-width:1;-inkscape-stroke:none;stop-color:#000" transform="translate(-53.37001,-181.05386) matrix(0.26458333,0,0,0.26458333,-42.175596,127.48187)"><tspan x="546.236" y="357.723">HA1</tspan></text><path d="M103.034 212.323v-26.242" style="fill:#b7c4c8;stroke:#f55;stroke-width:.264584;stroke-linejoin:round;marker-start:url(#e);marker-end:url(#e)" transform="translate(-53.37001,-181.05386)"/><text xml:space="preserve" style="font-size:16px;line-height:normal;font-family:&quot;Liberation Mono&quot;;-inkscape-font-specification:&quot;Liberation Mono&quot;;text-decoration-color:#000;white-space:pre;shape-inside:url(#f);display:inline;fill:#f55;stroke-width:1;-inkscape-stroke:none;stop-color:#000" transform="translate(-53.37001,-181.05386) matrix(0.26458333,0,0,0.26458333,-39.820303,105.9489)"><tspan x="546.236" y="357.723">HA2</tspan></text></svg>