<svg xmlns="http://www.w3.org/2000/svg" width="559" height="585" viewBox="0 0 147.902 154.781"><defs><path id="C" d="M218.142 710.642h44.901v29.698h-44.901z"/><path id="B" d="M203.293 706.4h44.548v20.86h-44.548z"/><path id="y" d="M524.673 1016.112h55.861v45.962h-55.861z"/><path id="w" d="M-116.673 694.379h64.347v37.477h-64.347z"/><path id="v" d="M-186.676 708.521h57.276v38.184h-57.276z"/><path id="o" d="M544.472 973.686H600v45.962h-55.528z"/><path id="j" d="M66 985.5h45.5v29H66z"/><path id="h" d="M-49.5 866H0v30h-49.5z"/><path id="b" d="M55.861 1034.497h61.518v45.255H55.861z"/><path id="d" d="M55.861 1034.497h61.518v45.255H55.861z"/><path id="f" d="M55.861 1034.497h61.518v45.255H55.861z"/><path id="k" d="M-49.5 866H0v30h-49.5z"/><path id="l" d="M-49.5 866H0v30h-49.5z"/><path id="r" d="M544.472 973.686H600v45.962h-55.528z"/><path id="u" d="M544.472 973.686H600v45.962h-55.528z"/><path id="D" d="M359 423h99v39h-99z"/><marker id="a" markerHeight="1" markerWidth="1" orient="auto-start-reverse" preserveAspectRatio="xMidYMid" refX="0" refY="0" style="overflow:visible" viewBox="0 0 1 1"><path d="M3-3 0 0l3 3" style="fill:none;stroke:context-stroke;stroke-width:1;stroke-linecap:butt" transform="rotate(180 .125 0)"/></marker><marker id="c" markerHeight="1" markerWidth="1" orient="auto-start-reverse" preserveAspectRatio="xMidYMid" refX="0" refY="0" style="overflow:visible" viewBox="0 0 1 1"><path d="M3-3 0 0l3 3" style="fill:none;stroke:context-stroke;stroke-width:1;stroke-linecap:butt" transform="rotate(180 .125 0)"/></marker><marker id="e" markerHeight="1" markerWidth="1" orient="auto-start-reverse" preserveAspectRatio="xMidYMid" refX="0" refY="0" style="overflow:visible" viewBox="0 0 1 1"><path d="M3-3 0 0l3 3" style="fill:none;stroke:context-stroke;stroke-width:1;stroke-linecap:butt" transform="rotate(180 .125 0)"/></marker><marker id="i" markerHeight="1" markerWidth="1" orient="auto-start-reverse" preserveAspectRatio="xMidYMid" refX="0" refY="0" style="overflow:visible" viewBox="0 0 1 1"><path d="M3-3 0 0l3 3" style="fill:none;stroke:context-stroke;stroke-width:1;stroke-linecap:butt" transform="rotate(180 .125 0)"/></marker><marker id="g" markerHeight="1" markerWidth="1" orient="auto-start-reverse" preserveAspectRatio="xMidYMid" refX="0" refY="0" style="overflow:visible" viewBox="0 0 1 1"><path d="M3-3 0 0l3 3" style="fill:none;stroke:context-stroke;stroke-width:1;stroke-linecap:butt" transform="rotate(180 .125 0)"/></marker><marker id="m" markerHeight="1" markerWidth="1" orient="auto-start-reverse" preserveAspectRatio="xMidYMid" refX="0" refY="0" style="overflow:visible" viewBox="0 0 1 1"><path d="M3-3 0 0l3 3" style="fill:none;stroke:context-stroke;stroke-width:1;stroke-linecap:butt" transform="rotate(180 .125 0)"/></marker><marker id="n" markerHeight="1" markerWidth="1" orient="auto-start-reverse" preserveAspectRatio="xMidYMid" refX="0" refY="0" style="overflow:visible" viewBox="0 0 1 1"><path d="M3-3 0 0l3 3" style="fill:none;stroke:context-stroke;stroke-width:1;stroke-linecap:butt" transform="rotate(180 .125 0)"/></marker><marker id="p" markerHeight="1" markerWidth="1" orient="auto-start-reverse" preserveAspectRatio="xMidYMid" refX="0" refY="0" style="overflow:visible" viewBox="0 0 1 1"><path d="M3-3 0 0l3 3" style="fill:none;stroke:context-stroke;stroke-width:1;stroke-linecap:butt" transform="rotate(180 .125 0)"/></marker><marker id="q" markerHeight="1" markerWidth="1" orient="auto-start-reverse" preserveAspectRatio="xMidYMid" refX="0" refY="0" style="overflow:visible" viewBox="0 0 1 1"><path d="M3-3 0 0l3 3" style="fill:none;stroke:context-stroke;stroke-width:1;stroke-linecap:butt" transform="rotate(180 .125 0)"/></marker><marker id="s" markerHeight="1" markerWidth="1" orient="auto-start-reverse" preserveAspectRatio="xMidYMid" refX="0" refY="0" style="overflow:visible" viewBox="0 0 1 1"><path d="M3-3 0 0l3 3" style="fill:none;stroke:context-stroke;stroke-width:1;stroke-linecap:butt" transform="rotate(180 .125 0)"/></marker><marker id="t" markerHeight="1" markerWidth="1" orient="auto-start-reverse" preserveAspectRatio="xMidYMid" refX="0" refY="0" style="overflow:visible" viewBox="0 0 1 1"><path d="M3-3 0 0l3 3" style="fill:none;stroke:context-stroke;stroke-width:1;stroke-linecap:butt" transform="rotate(180 .125 0)"/></marker><marker id="x" markerHeight="1" markerWidth="1" orient="auto-start-reverse" preserveAspectRatio="xMidYMid" refX="0" refY="0" style="overflow:visible" viewBox="0 0 1 1"><path d="M3-3 0 0l3 3" style="fill:none;stroke:context-stroke;stroke-width:1;stroke-linecap:butt" transform="rotate(180 .125 0)"/></marker><marker id="z" markerHeight="1" markerWidth="1" orient="auto-start-reverse" preserveAspectRatio="xMidYMid" refX="0" refY="0" style="overflow:visible" viewBox="0 0 1 1"><path d="M3-3 0 0l3 3" style="fill:none;stroke:context-stroke;stroke-width:1;stroke-linecap:butt" transform="rotate(180 .125 0)"/></marker><marker id="A" markerHeight="1" markerWidth="1" orient="auto-start-reverse" preserveAspectRatio="xMidYMid" refX="0" refY="0" style="overflow:visible" viewBox="0 0 1 1"><path d="M3-3 0 0l3 3" style="fill:none;stroke:context-stroke;stroke-width:1;stroke-linecap:butt" transform="rotate(180 .125 0)"/></marker></defs><path d="M1.323 127.529H148.96v154.517H1.323z" style="opacity:1;fill:#fff;stroke:#fff;stroke-width:.264583;stroke-linejoin:round;stroke-dasharray:none" transform="translate(-1.19 -127.397)"/><path d="M17.025 198.965h122.169v16.277H17.025z" style="opacity:1;fill:#ffd5d5;stroke:#d40000;stroke-width:.264583;stroke-linejoin:round;stroke-dasharray:none" transform="translate(-1.19 -127.397)"/><path d="M17.025 202.52h122.169v9.167H17.025z" style="fill:#fff;stroke:#d40000;stroke-width:.264583;stroke-linejoin:round;stroke-dasharray:none" transform="translate(-1.19 -127.397)"/><path d="M22.846 159.863h4.116v94.48h-4.116zM129.257 159.863h4.116v94.48h-4.116zM26.962 171.089h102.295v11.225H26.962zM26.962 231.892h102.295v11.225H26.962z" style="fill:#faa;stroke:#d40000;stroke-width:.264582;stroke-linejoin:round;stroke-dasharray:none" transform="translate(-1.19 -127.397)"/><path d="M170 783V539.5h250v487H170Zm237 118.5v-111H184v222h223Zm0-237v-111H184v222h223Z" style="opacity:1;fill:#f6ffd5;stroke:#aad400;stroke-width:1;stroke-linejoin:round;stroke-dasharray:none" transform="translate(-1.19 -127.397)scale(.26458)"/><path d="M15.438 202.52v9.167" style="opacity:1;fill:#f6ffd5;stroke:#00f;stroke-width:.264583;stroke-linejoin:round;stroke-dasharray:none;marker-start:url(#a);marker-end:url(#a)" transform="translate(-1.19 -127.397)"/><text xml:space="preserve" style="font-size:16px;line-height:normal;font-family:&quot;Liberation Mono&quot;;-inkscape-font-specification:&quot;Liberation Mono&quot;;text-decoration-color:#000;white-space:pre;shape-inside:url(#b);display:inline;fill:#000;stroke-width:1;-inkscape-stroke:none;stop-color:#000" transform="translate(-6.314 -196.377)scale(.26458)"><tspan x="55.861" y="1048.735">D1</tspan></text><path d="M140.781 198.965v16.277" style="fill:#f6ffd5;stroke:#00f;stroke-width:.264583;stroke-linejoin:round;stroke-dasharray:none;marker-start:url(#c);marker-end:url(#c)" transform="translate(-1.19 -127.397)"/><text xml:space="preserve" style="font-size:16px;line-height:normal;font-family:&quot;Liberation Mono&quot;;-inkscape-font-specification:&quot;Liberation Mono&quot;;text-decoration-color:#000;white-space:pre;shape-inside:url(#d);display:inline;fill:#000;stroke-width:1;-inkscape-stroke:none;stop-color:#000" transform="translate(125.34 -196.713)scale(.26458)"><tspan x="55.861" y="1048.735">D2</tspan></text><path d="M7.505 159.863h15.34" style="opacity:1;fill:#f6ffd5;stroke:#ccc;stroke-width:.264583;stroke-linejoin:round;stroke-dasharray:none" transform="translate(-1.19 -127.397)"/><path d="M7.505 254.343h15.34" style="fill:#f6ffd5;stroke:#ccc;stroke-width:.264583;stroke-linejoin:round;stroke-dasharray:none" transform="translate(-1.19 -127.397)"/><path d="M7.505 159.879v94.028" style="fill:#f6ffd5;stroke:#00f;stroke-width:.264583;stroke-linejoin:round;stroke-dasharray:none;marker-start:url(#e);marker-end:url(#e)" transform="translate(-1.19 -127.397)"/><text xml:space="preserve" style="font-size:16px;line-height:normal;font-family:&quot;Liberation Mono&quot;;-inkscape-font-specification:&quot;Liberation Mono&quot;;text-decoration-color:#000;white-space:pre;shape-inside:url(#f);display:inline;fill:#000;stroke-width:1;-inkscape-stroke:none;stop-color:#000" transform="translate(-14.119 -196.108)scale(.26458)"><tspan x="55.861" y="1048.735">D5</tspan></text><path d="M17.025 216.829h5.82" style="opacity:1;fill:#f6ffd5;stroke:#00f;stroke-width:.264583;stroke-linejoin:round;stroke-dasharray:none;marker-start:url(#a);marker-end:url(#a)" transform="translate(-1.19 -127.397)"/><path d="M27.45 249.463h17.308" style="fill:#f6ffd5;stroke:#00f;stroke-width:.264583;stroke-linejoin:round;stroke-dasharray:none;marker-start:url(#g);marker-end:url(#g)" transform="translate(-1.19 -127.397)"/><text xml:space="preserve" style="font-size:16px;line-height:normal;font-family:&quot;Liberation Mono&quot;;-inkscape-font-specification:&quot;Liberation Mono&quot;;text-decoration-color:#000;white-space:pre;shape-inside:url(#h);fill:#000;stroke-width:1;-inkscape-stroke:none;stop-color:#000" transform="translate(28.84 -139.039)scale(.26458)"><tspan x="-49.5" y="880.236">G3</tspan></text><path d="M22.767 255.93h4.127" style="fill:#f6ffd5;stroke:#00f;stroke-width:.264583;stroke-linejoin:round;stroke-dasharray:none;marker-start:url(#i);marker-end:url(#i)" transform="translate(-1.19 -127.397)"/><text xml:space="preserve" style="font-size:16px;line-height:normal;font-family:&quot;Liberation Mono&quot;;-inkscape-font-specification:&quot;Liberation Mono&quot;;text-decoration-color:#000;white-space:pre;shape-inside:url(#j);fill:#000;stroke-width:1;-inkscape-stroke:none;stop-color:#000" transform="translate(3.704 -131.366)scale(.26458)"><tspan x="66" y="999.736">T1</tspan></text><text xml:space="preserve" style="font-size:16px;line-height:normal;font-family:&quot;Liberation Mono&quot;;-inkscape-font-specification:&quot;Liberation Mono&quot;;text-decoration-color:#000;white-space:pre;shape-inside:url(#k);display:inline;fill:#000;stroke-width:1;-inkscape-stroke:none;stop-color:#000" transform="translate(45.407 -107.033)scale(.26458)"><tspan x="-49.5" y="880.236">G2</tspan></text><text xml:space="preserve" style="font-size:16px;line-height:normal;font-family:&quot;Liberation Mono&quot;;-inkscape-font-specification:&quot;Liberation Mono&quot;;text-decoration-color:#000;white-space:pre;shape-inside:url(#l);display:inline;fill:#000;stroke-width:1;-inkscape-stroke:none;stop-color:#000" transform="translate(87.476 -82.294)scale(.26458)"><tspan x="-49.5" y="880.236">G1</tspan></text><path d="M44.847 273.711h66.445" style="fill:#f6ffd5;stroke:#00f;stroke-width:.264584;stroke-linejoin:round;stroke-dasharray:none;marker-start:url(#m);marker-end:url(#m)" transform="translate(-1.19 -127.397)"/><path d="M92.935 205.184v-10.799" style="opacity:1;fill:#f6ffd5;stroke:#00f;stroke-width:.264583;stroke-linejoin:round;stroke-dasharray:none;marker-start:url(#a)" transform="translate(-1.19 -127.397)"/><path d="M92.935 209.153v10.8" style="fill:#f6ffd5;stroke:#00f;stroke-width:.264583;stroke-linejoin:round;stroke-dasharray:none;marker-start:url(#n)" transform="translate(-1.19 -127.397)"/><text xml:space="preserve" style="font-size:16px;line-height:normal;font-family:&quot;Liberation Mono&quot;;-inkscape-font-specification:&quot;Liberation Mono&quot;;text-decoration-color:#000;white-space:pre;shape-inside:url(#o);fill:#000;stroke-width:1;-inkscape-stroke:none;stop-color:#000" transform="translate(-50.956 -168.37)scale(.26458)"><tspan x="544.473" y="987.922">W1</tspan></text><path d="M94.608 142.524v-10.8" style="fill:#f6ffd5;stroke:#00f;stroke-width:.264583;stroke-linejoin:round;stroke-dasharray:none;marker-start:url(#p)" transform="translate(-1.19 -127.397)"/><path d="M94.608 146.493v10.8" style="fill:#f6ffd5;stroke:#00f;stroke-width:.264583;stroke-linejoin:round;stroke-dasharray:none;marker-start:url(#q)" transform="translate(-1.19 -127.397)"/><text xml:space="preserve" style="font-size:16px;line-height:normal;font-family:&quot;Liberation Mono&quot;;-inkscape-font-specification:&quot;Liberation Mono&quot;;text-decoration-color:#000;white-space:pre;shape-inside:url(#r);display:inline;fill:#000;stroke-width:1;-inkscape-stroke:none;stop-color:#000" transform="translate(-49.812 -232.088)scale(.26458)"><tspan x="544.473" y="987.922">W3</tspan></text><path d="M107.263 165.76h-10.8" style="fill:#f6ffd5;stroke:#00f;stroke-width:.264583;stroke-linejoin:round;stroke-dasharray:none;marker-start:url(#s)" transform="translate(-1.19 -127.397)"/><path d="M111.107 165.76h5.498" style="fill:#f6ffd5;stroke:#00f;stroke-width:.264583;stroke-linejoin:round;stroke-dasharray:none;marker-start:url(#t)" transform="translate(-1.19 -127.397)"/><text xml:space="preserve" style="font-size:16px;line-height:normal;font-family:&quot;Liberation Mono&quot;;-inkscape-font-specification:&quot;Liberation Mono&quot;;text-decoration-color:#000;white-space:pre;shape-inside:url(#u);display:inline;fill:#000;stroke-width:1;-inkscape-stroke:none;stop-color:#000" transform="translate(-47.74 -224.185)scale(.26458)"><tspan x="544.473" y="987.922">W2</tspan></text><path d="m50.701 148.361 5.051 10.477" style="opacity:1;fill:#f6ffd5;stroke:#00f;stroke-width:.264583;stroke-linejoin:round;stroke-dasharray:none;marker-start:url(#a)" transform="translate(-1.19 -127.397)"/><path d="m43.217 142.562-9.354-3.742" style="opacity:1;fill:#f6ffd5;stroke:#00f;stroke-width:.264583;stroke-linejoin:round;stroke-dasharray:none;marker-start:url(#a)" transform="translate(-1.19 -127.397)"/><text xml:space="preserve" style="font-size:16px;line-height:normal;font-family:&quot;Liberation Mono&quot;;-inkscape-font-specification:&quot;Liberation Mono&quot;;text-decoration-color:#000;white-space:pre;shape-inside:url(#v);fill:#000;stroke-width:1;-inkscape-stroke:none;stop-color:#000" transform="translate(76.264 -178.66)scale(.26458)"><tspan x="-186.676" y="722.758">R7</tspan></text><text xml:space="preserve" style="font-size:16px;line-height:normal;font-family:&quot;Liberation Mono&quot;;-inkscape-font-specification:&quot;Liberation Mono&quot;;text-decoration-color:#000;white-space:pre;shape-inside:url(#w);fill:#000;stroke-width:1;-inkscape-stroke:none;stop-color:#000" transform="translate(85.057 -152.093)scale(.26458)"><tspan x="-116.672" y="708.615">R8</tspan></text><path d="M111.125 142.743h15.341M111.125 271.595h15.341" style="fill:#f6ffd5;stroke:#ccc;stroke-width:.264583;stroke-linejoin:round;stroke-dasharray:none" transform="translate(-1.19 -127.397)"/><path d="M118.796 142.743v128.852" style="fill:#f6ffd5;stroke:#00f;stroke-width:.264583;stroke-linejoin:round;stroke-dasharray:none;marker-start:url(#x);marker-end:url(#x)" transform="translate(-1.19 -127.397)"/><text xml:space="preserve" style="font-size:16px;line-height:normal;font-family:&quot;Liberation Mono&quot;;-inkscape-font-specification:&quot;Liberation Mono&quot;;text-decoration-color:#000;white-space:pre;shape-inside:url(#y);fill:#000;stroke-width:1;-inkscape-stroke:none;stop-color:#000" transform="translate(-20.648 -191.755)scale(.26458)"><tspan x="524.674" y="1030.35">L1</tspan></text><path d="M30.137 171.263v35.373" style="fill:#f6ffd5;stroke:#00f;stroke-width:.264583;stroke-linejoin:round;stroke-dasharray:none;marker-start:url(#z);marker-end:url(#z)" transform="translate(-1.19 -127.397)"/><path d="M35.672 171.317v10.807" style="fill:#f6ffd5;stroke:#00f;stroke-width:.264583;stroke-linejoin:round;stroke-dasharray:none;marker-start:url(#A);marker-end:url(#A)" transform="translate(-1.19 -127.397)"/><path d="M26.962 207.103h15.341" style="fill:#f6ffd5;stroke:#ccc;stroke-width:.264583;stroke-linejoin:round;stroke-dasharray:none" transform="translate(-1.19 -127.397)"/><text xml:space="preserve" style="font-size:16px;line-height:normal;font-family:&quot;Liberation Mono&quot;;-inkscape-font-specification:&quot;Liberation Mono&quot;;text-decoration-color:#000;white-space:pre;shape-inside:url(#B);fill:#999;stroke-width:1;-inkscape-stroke:none;stop-color:#000" transform="translate(-24.296 -127.023)scale(.26458)"><tspan x="203.293" y="720.637">R4</tspan></text><text xml:space="preserve" style="font-size:16px;line-height:normal;font-family:&quot;Liberation Mono&quot;;-inkscape-font-specification:&quot;Liberation Mono&quot;;text-decoration-color:#000;white-space:pre;shape-inside:url(#C);fill:#000;stroke-width:1;-inkscape-stroke:none;stop-color:#000" transform="translate(-22.8 -140.774)scale(.26458)"><tspan x="218.143" y="724.879">S3</tspan></text><text xml:space="preserve" style="font-size:16px;line-height:normal;font-family:&quot;Liberation Mono&quot;;-inkscape-font-specification:&quot;Liberation Mono&quot;;text-decoration-color:#000;white-space:pre;shape-inside:url(#D);display:inline;fill:#666;stroke-width:1;-inkscape-stroke:none;stop-color:#000" transform="translate(-86.705 -17.5)scale(.26458)"><tspan x="359" y="437.236">[d3_rod]</tspan></text></svg>