<svg xmlns="http://www.w3.org/2000/svg" width="515.445" height="761.406" viewBox="0 0 136.378 201.455"><defs><path id="T" d="M689.23 1352.333h144.153v33.335H689.23z"/><path id="S" d="M674.815 1304.583h124.332v58.562H674.815z"/><path id="R" d="M684.726 1269.445h145.955v48.652H684.726z"/><path id="Q" d="M411.867 986.843h81.864v54.769h-81.864z"/><path id="P" d="M320.128 1090.985h103.843v35.676H320.128z"/><path id="M" d="M44.914 1429.588h36.632v29.937H44.914z"/><path id="L" d="M223.662 905.234h38.065v21.064h-38.065z"/><path id="K" d="M187.174 889.468h47.75v31.308h-47.75z"/><path id="J" d="M186.174 897.576h26.227v18.019h-26.227z"/><path id="G" d="M349.57 1346.477h53.156v41.096H349.57z"/><path id="E" d="M33.786 1444.231h54.958v31.083H33.786z"/><path id="A" d="M71.352 1143.225h38.224v26.12H71.352z"/><path id="s" d="M489.271 1312.367h59.885v47.143h-59.885z"/><path id="r" d="M277.126 1485.013h77.723v44.595h-77.723z"/><path id="q" d="M438.942 922.479h70.078v43.912h-70.078z"/><path id="n" d="M148.438 601.077h29.942v25.483h-29.942z"/><path id="o" d="M135.696 640.894h35.357v29.624h-35.357z"/><path id="p" d="M145.571 690.904h35.676v29.624h-35.676z"/><path id="t" d="M489.271 1312.367h59.885v47.143h-59.885z"/><path id="w" d="M110.532 678.162h35.995v23.253h-35.995z"/><path id="x" d="M126.777 719.572h39.817v25.483h-39.817z"/><path id="z" d="M132.829 627.197h37.269v27.713h-37.269z"/><path id="C" d="M71.352 1143.225h38.224v26.12H71.352z"/><path id="O" d="M349.57 1346.477h53.156v41.096H349.57z"/><marker id="g" markerHeight="1" markerWidth="1" orient="auto-start-reverse" preserveAspectRatio="xMidYMid" refX="0" refY="0" style="overflow:visible" viewBox="0 0 1 1"><path d="M3-3 0 0l3 3" style="fill:none;stroke:context-stroke;stroke-width:1;stroke-linecap:butt" transform="rotate(180 .125 0)"/></marker><marker id="e" markerHeight="1" markerWidth="1" orient="auto-start-reverse" preserveAspectRatio="xMidYMid" refX="0" refY="0" style="overflow:visible" viewBox="0 0 1 1"><path d="M3-3 0 0l3 3" style="fill:none;stroke:context-stroke;stroke-width:1;stroke-linecap:butt" transform="rotate(180 .125 0)"/></marker><marker id="f" markerHeight="1" markerWidth="1" orient="auto-start-reverse" preserveAspectRatio="xMidYMid" refX="0" refY="0" style="overflow:visible" viewBox="0 0 1 1"><path d="M3-3 0 0l3 3" style="fill:none;stroke:context-stroke;stroke-width:1;stroke-linecap:butt" transform="rotate(180 .125 0)"/></marker><marker id="h" markerHeight="1" markerWidth="1" orient="auto-start-reverse" preserveAspectRatio="xMidYMid" refX="0" refY="0" style="overflow:visible" viewBox="0 0 1 1"><path d="M3-3 0 0l3 3" style="fill:none;stroke:context-stroke;stroke-width:1;stroke-linecap:butt" transform="rotate(180 .125 0)"/></marker><marker id="i" markerHeight="1" markerWidth="1" orient="auto-start-reverse" preserveAspectRatio="xMidYMid" refX="0" refY="0" style="overflow:visible" viewBox="0 0 1 1"><path d="M3-3 0 0l3 3" style="fill:none;stroke:context-stroke;stroke-width:1;stroke-linecap:butt" transform="rotate(180 .125 0)"/></marker><marker id="k" markerHeight="1" markerWidth="1" orient="auto-start-reverse" preserveAspectRatio="xMidYMid" refX="0" refY="0" style="overflow:visible" viewBox="0 0 1 1"><path d="M3-3 0 0l3 3" style="fill:none;stroke:context-stroke;stroke-width:1;stroke-linecap:butt" transform="rotate(180 .125 0)"/></marker><marker id="l" markerHeight="1" markerWidth="1" orient="auto-start-reverse" preserveAspectRatio="xMidYMid" refX="0" refY="0" style="overflow:visible" viewBox="0 0 1 1"><path d="M3-3 0 0l3 3" style="fill:none;stroke:context-stroke;stroke-width:1;stroke-linecap:butt" transform="rotate(180 .125 0)"/></marker><marker id="m" markerHeight="1" markerWidth="1" orient="auto-start-reverse" preserveAspectRatio="xMidYMid" refX="0" refY="0" style="overflow:visible" viewBox="0 0 1 1"><path d="M3-3 0 0l3 3" style="fill:none;stroke:context-stroke;stroke-width:1;stroke-linecap:butt" transform="rotate(180 .125 0)"/></marker><marker id="u" markerHeight="1" markerWidth="1" orient="auto-start-reverse" preserveAspectRatio="xMidYMid" refX="0" refY="0" style="overflow:visible" viewBox="0 0 1 1"><path d="M3-3 0 0l3 3" style="fill:none;stroke:context-stroke;stroke-width:1;stroke-linecap:butt" transform="rotate(180 .125 0)"/></marker><marker id="v" markerHeight="1" markerWidth="1" orient="auto-start-reverse" preserveAspectRatio="xMidYMid" refX="0" refY="0" style="overflow:visible" viewBox="0 0 1 1"><path d="M3-3 0 0l3 3" style="fill:none;stroke:context-stroke;stroke-width:1;stroke-linecap:butt" transform="rotate(180 .125 0)"/></marker><marker id="y" markerHeight="1" markerWidth="1" orient="auto-start-reverse" preserveAspectRatio="xMidYMid" refX="0" refY="0" style="overflow:visible" viewBox="0 0 1 1"><path d="M3-3 0 0l3 3" style="fill:none;stroke:context-stroke;stroke-width:1;stroke-linecap:butt" transform="rotate(180 .125 0)"/></marker><marker id="B" markerHeight="1" markerWidth="1" orient="auto-start-reverse" preserveAspectRatio="xMidYMid" refX="0" refY="0" style="overflow:visible" viewBox="0 0 1 1"><path d="M3-3 0 0l3 3" style="fill:none;stroke:context-stroke;stroke-width:1;stroke-linecap:butt" transform="rotate(180 .125 0)"/></marker><marker id="D" markerHeight="1" markerWidth="1" orient="auto-start-reverse" preserveAspectRatio="xMidYMid" refX="0" refY="0" style="overflow:visible" viewBox="0 0 1 1"><path d="M3-3 0 0l3 3" style="fill:none;stroke:context-stroke;stroke-width:1;stroke-linecap:butt" transform="rotate(180 .125 0)"/></marker><marker id="F" markerHeight="1" markerWidth="1" orient="auto-start-reverse" preserveAspectRatio="xMidYMid" refX="0" refY="0" style="overflow:visible" viewBox="0 0 1 1"><path d="M3-3 0 0l3 3" style="fill:none;stroke:context-stroke;stroke-width:1;stroke-linecap:butt" transform="rotate(180 .125 0)"/></marker><marker id="c" markerHeight="1" markerWidth="1" orient="auto-start-reverse" preserveAspectRatio="xMidYMid" refX="0" refY="0" style="overflow:visible" viewBox="0 0 1 1"><path d="M3-3 0 0l3 3" style="fill:none;stroke:context-stroke;stroke-width:1;stroke-linecap:butt" transform="rotate(180 .125 0)"/></marker><marker id="d" markerHeight="1" markerWidth="1" orient="auto-start-reverse" preserveAspectRatio="xMidYMid" refX="0" refY="0" style="overflow:visible" viewBox="0 0 1 1"><path d="M3-3 0 0l3 3" style="fill:none;stroke:context-stroke;stroke-width:1;stroke-linecap:butt" transform="rotate(180 .125 0)"/></marker><marker id="H" markerHeight="1" markerWidth="1" orient="auto-start-reverse" preserveAspectRatio="xMidYMid" refX="0" refY="0" style="overflow:visible" viewBox="0 0 1 1"><path d="M3-3 0 0l3 3" style="fill:none;stroke:context-stroke;stroke-width:1;stroke-linecap:butt" transform="rotate(180 .125 0)"/></marker><marker id="I" markerHeight="1" markerWidth="1" orient="auto-start-reverse" preserveAspectRatio="xMidYMid" refX="0" refY="0" style="overflow:visible" viewBox="0 0 1 1"><path d="M3-3 0 0l3 3" style="fill:none;stroke:context-stroke;stroke-width:1;stroke-linecap:butt" transform="rotate(180 .125 0)"/></marker><marker id="j" markerHeight="1" markerWidth="1" orient="auto-start-reverse" preserveAspectRatio="xMidYMid" refX="0" refY="0" style="overflow:visible" viewBox="0 0 1 1"><path d="M3-3 0 0l3 3" style="fill:none;stroke:context-stroke;stroke-width:1;stroke-linecap:butt" transform="rotate(180 .125 0)"/></marker><marker id="b" markerHeight="1" markerWidth="1" orient="auto-start-reverse" preserveAspectRatio="xMidYMid" refX="0" refY="0" style="overflow:visible" viewBox="0 0 1 1"><path d="M3-3 0 0l3 3" style="fill:none;stroke:context-stroke;stroke-width:1;stroke-linecap:butt" transform="rotate(180 .125 0)"/></marker><marker id="a" markerHeight="1" markerWidth="1" orient="auto-start-reverse" preserveAspectRatio="xMidYMid" refX="0" refY="0" style="overflow:visible" viewBox="0 0 1 1"><path d="M3-3 0 0l3 3" style="fill:none;stroke:context-stroke;stroke-width:1;stroke-linecap:butt" transform="rotate(180 .125 0)"/></marker><marker id="N" markerHeight="1" markerWidth="1" orient="auto-start-reverse" preserveAspectRatio="xMidYMid" refX="0" refY="0" style="overflow:visible" viewBox="0 0 1 1"><path d="M3-3 0 0l3 3" style="fill:none;stroke:context-stroke;stroke-width:1;stroke-linecap:butt" transform="rotate(180 .125 0)"/></marker></defs><g transform="translate(-9.164 -234.431)"><path d="M9.297 234.564h136.114v201.191H9.297z" style="fill:#fff;stroke:#fff;stroke-width:.264583;stroke-linejoin:round;stroke-dasharray:none"/><path d="M43.138 267.126V245.97M50.45 267.125V245.97" style="fill:#fea;stroke:#b3b3b3;stroke-width:.264583;stroke-linejoin:round"/><path d="M25.737 363.121v-8.428" style="fill:#fea;stroke:#666;stroke-width:.264583;stroke-linejoin:round;stroke-dasharray:none;marker-start:url(#a)"/><path d="M25.737 365v4.418" style="fill:#fea;stroke:#666;stroke-width:.264583;stroke-linejoin:round;stroke-dasharray:none;marker-start:url(#b)"/><path d="M47.885 255.11h-2.621" style="fill:#fea;stroke:#00f;stroke-width:.264583;stroke-linejoin:round;stroke-dasharray:none;marker-start:url(#c)"/><path d="M49.791 255.11h5.952" style="fill:#fea;stroke:#00f;stroke-width:.264583;stroke-linejoin:round;stroke-dasharray:none;marker-start:url(#d)"/><path d="m40.999 364.626-3.476 21.167v14.159h2.907v7.753h12.726v-7.753h2.908v-14.16l-3.476-21.166z" style="fill:#87de87;stroke:#008033;stroke-width:.264583;stroke-linejoin:round"/><path d="m42.369 364.626-3.184 21.167v12.571h2.75v9.341h9.717v-9.34h2.75v-12.572l-3.184-21.167z" style="fill:#ececec;stroke:#008033;stroke-width:.264583;stroke-linejoin:round"/><path d="M43.138 267.125h7.311v62.104h-7.311z" style="fill:#87de87;stroke:teal;stroke-width:.264583;stroke-linejoin:round"/><path d="M43.138 267.126v62.103l-.294 4.25-1.264 5.44-1.637 3.997-1.862 3.256v18.454h17.425v-18.454l-2.832-5.426-1.31-4.051-.73-4.087-.185-3.379v-62.103z" style="fill:#afe9af;stroke:teal;stroke-width:.264583;stroke-linejoin:round"/><path d="M45.316 291.206h3.517v1.12h-3.517zM45.316 319.523h2.843v1.12h-2.843zM45.316 347.877h2.955v1.12h-2.955zM43.138 267.125h7.311v1.12h-7.311zM38.081 363.507h17.425v1.12H38.081z" style="fill:#87de87;stroke:teal;stroke-width:.264582;stroke-linejoin:round"/><path d="M268.245-45.316h95.299v1.12h-95.299zM268.245-49.391h95.299v1.12h-95.299z" style="fill:#87de87;stroke:teal;stroke-width:.264582;stroke-linejoin:round" transform="rotate(90)"/><circle cx="46.871" cy="308.458" r="1.18" style="fill:#ffe6d5;stroke:#ffb380;stroke-width:.264583;stroke-linejoin:round"/><circle cx="46.871" cy="336.753" r="1.18" style="fill:#ffe6d5;stroke:#ffb380;stroke-width:.264583;stroke-linejoin:round"/><path d="M-184.175 240.387h1.507v20.01h-1.507zM-204.186 260.391h1.507v20.01h-1.507z" style="fill:#d5fff6;stroke:#ffb380;stroke-width:.264583;stroke-linejoin:round" transform="rotate(-45.01)"/><path d="M127.37 309.518h2.861v42.908h-2.861z" style="fill:#ffd5d5;stroke:red;stroke-width:.264583;stroke-linejoin:round"/><path d="M46.54 407.705v5.94" style="fill:#ffd5d5;stroke:#999;stroke-width:.264583;stroke-linejoin:round"/><path d="M53.156 407.705h74.636" style="fill:#ffd5d5;stroke:#e6e6e6;stroke-width:.264583;stroke-linejoin:round"/><path d="M127.37 407.705v-55.28" style="fill:#ffd5d5;stroke:#00f;stroke-width:.264583;stroke-linejoin:round;marker-start:url(#e);marker-end:url(#e)"/><path d="M127.37 407.705v7.009" style="fill:#ffd5d5;stroke:#999;stroke-width:.264583;stroke-linejoin:round"/><path d="M131.818 352.351v-42.833" style="fill:#ffd5d5;stroke:#00f;stroke-width:.264583;stroke-linejoin:round;marker-start:url(#f);marker-end:url(#f)"/><path d="m86.443 252.205-8.428 12.98" style="fill:#ffd5d5;stroke:#fc0;stroke-width:.264583;stroke-linejoin:round;marker-end:url(#g)"/><path d="m89.271 255.78-8.428 12.978" style="fill:#ffd5d5;stroke:#fc0;stroke-width:.264583;stroke-linejoin:round;marker-end:url(#h)"/><path d="m92.088 259.358-8.428 12.979" style="fill:#ffd5d5;stroke:#fc0;stroke-width:.264583;stroke-linejoin:round;marker-end:url(#i)"/><path d="M85.878 268.92H98.87" style="fill:#ffd5d5;stroke:#ccc;stroke-width:.264583;stroke-linejoin:round"/><path d="M92.374 268.92s-.111-2.646-.642-3.621c-.53-.976-2.183-2.032-2.183-2.032" style="fill:none;stroke:#00f;stroke-width:.264583;stroke-linejoin:round;marker-end:url(#g)"/><path d="M61.639 267.277 40.86 299.14M75.79 281.424l-20.778 31.861M61.639 295.572 40.86 327.433M75.79 309.718 55.012 341.58" style="fill:#ffd5d5;stroke:#fc0;stroke-width:.264583;stroke-linejoin:round"/><path d="m40.861 299.139 86.509 22.297M55.018 313.275l72.314 18.624" style="fill:none;stroke:#fea;stroke-width:.264583;stroke-linejoin:round"/><path d="m55.012 341.602 72.44-7.103" style="fill:#fea;stroke:#fea;stroke-width:.264583;stroke-linejoin:round"/><path d="m40.856 327.416 86.156-8.462" style="fill:#fea;stroke:#fea;stroke-width:.264584;stroke-linejoin:round"/><path d="M43.4 245.97h6.787" style="fill:#fea;stroke:#00f;stroke-width:.264583;stroke-linejoin:round;stroke-dasharray:none;marker-start:url(#j);marker-end:url(#j)"/><path d="M52.588 364.686h25.407M56.064 385.793h21.93M56.064 399.952h21.93M53.156 407.705h24.839" style="fill:#fea;stroke:#b3b3b3;stroke-width:.264583;stroke-linejoin:round"/><path d="M71.116 364.686v21.107" style="fill:#fea;stroke:#00f;stroke-width:.264583;stroke-linejoin:round;stroke-dasharray:none;marker-start:url(#k);marker-end:url(#k)"/><path d="M67.588 386.065v13.35" style="fill:#fea;stroke:#00f;stroke-width:.264583;stroke-linejoin:round;stroke-dasharray:none;marker-start:url(#l);marker-end:url(#l)"/><path d="M70.228 400.085v7.243" style="fill:#fea;stroke:#00f;stroke-width:.264583;stroke-linejoin:round;stroke-dasharray:none;marker-start:url(#m);marker-end:url(#m)"/><text xml:space="preserve" style="font-size:16px;line-height:normal;font-family:&quot;Liberation Mono&quot;;-inkscape-font-specification:&quot;Liberation Mono&quot;;text-decoration-color:#000;white-space:pre;shape-inside:url(#n);display:inline;fill:#000;stroke-width:1;-inkscape-stroke:none;stop-color:#000" transform="translate(32.02 242.232)scale(.26458)"><tspan x="148.438" y="615.313">H1</tspan></text><text xml:space="preserve" style="font-size:16px;line-height:normal;font-family:&quot;Liberation Mono&quot;;-inkscape-font-specification:&quot;Liberation Mono&quot;;text-decoration-color:#000;white-space:pre;shape-inside:url(#o);display:inline;fill:#000;stroke-width:1;-inkscape-stroke:none;stop-color:#000" transform="translate(32.02 220.74)scale(.26458)"><tspan x="135.695" y="655.131">H2</tspan></text><text xml:space="preserve" style="font-size:16px;line-height:normal;font-family:&quot;Liberation Mono&quot;;-inkscape-font-specification:&quot;Liberation Mono&quot;;text-decoration-color:#000;white-space:pre;shape-inside:url(#p);display:inline;fill:#000;stroke-width:1;-inkscape-stroke:none;stop-color:#000" transform="translate(33.285 189.979)scale(.26458)"><tspan x="145.57" y="705.141">H3</tspan></text><text xml:space="preserve" style="font-size:16px;line-height:normal;font-family:&quot;Liberation Mono&quot;;-inkscape-font-specification:&quot;Liberation Mono&quot;;text-decoration-color:#000;white-space:pre;shape-inside:url(#q);display:inline;fill:#666;stroke-width:1;-inkscape-stroke:none;stop-color:#000" transform="translate(-22.798 18.607)scale(.26458)"><tspan x="438.941" y="936.715">aSun</tspan></text><text xml:space="preserve" style="font-size:16px;line-height:normal;font-family:&quot;Liberation Mono&quot;;-inkscape-font-specification:&quot;Liberation Mono&quot;;text-decoration-color:#000;white-space:pre;shape-inside:url(#r);display:inline;fill:#000;stroke-width:1;-inkscape-stroke:none;stop-color:#000" transform="translate(11.771 19.43)scale(.26458)"><tspan x="277.127" y="1499.25">Lt</tspan></text><text xml:space="preserve" style="font-size:16px;line-height:normal;font-family:&quot;Liberation Mono&quot;;-inkscape-font-specification:&quot;Liberation Mono&quot;;text-decoration-color:#000;white-space:pre;shape-inside:url(#s);display:inline;fill:#000;stroke-width:1;-inkscape-stroke:none;stop-color:#000" transform="translate(-.702 29.876)scale(.26458)"><tspan x="489.271" y="1326.604">Ht1</tspan></text><text xml:space="preserve" style="font-size:16px;line-height:normal;font-family:&quot;Liberation Mono&quot;;-inkscape-font-specification:&quot;Liberation Mono&quot;;text-decoration-color:#000;white-space:pre;shape-inside:url(#t);display:inline;fill:#000;stroke-width:1;-inkscape-stroke:none;stop-color:#000" transform="translate(3.29 -19.669)scale(.26458)"><tspan x="489.271" y="1326.604">Ht2</tspan></text><path d="M37.523 399.952v29.523M56.064 399.952v29.523M40.43 407.705v15.35M53.156 407.705v15.35" style="fill:#fea;stroke:#ffd5d5;stroke-width:.264583;stroke-linejoin:round"/><path d="M40.43 420.937h12.726" style="fill:#fea;stroke:#00f;stroke-width:.264583;stroke-linejoin:round;stroke-dasharray:none;marker-start:url(#u);marker-end:url(#u)"/><path d="M37.632 427.174h18.202" style="fill:#fea;stroke:#00f;stroke-width:.264583;stroke-linejoin:round;stroke-dasharray:none;marker-start:url(#v);marker-end:url(#v)"/><text xml:space="preserve" style="font-size:16px;line-height:normal;font-family:&quot;Liberation Mono&quot;;-inkscape-font-specification:&quot;Liberation Mono&quot;;text-decoration-color:#000;white-space:pre;shape-inside:url(#w);display:inline;fill:#000;stroke-width:1;-inkscape-stroke:none;stop-color:#000" transform="translate(15.555 237.242)scale(.26458)"><tspan x="110.531" y="692.399">D1</tspan></text><text xml:space="preserve" style="font-size:16px;line-height:normal;font-family:&quot;Liberation Mono&quot;;-inkscape-font-specification:&quot;Liberation Mono&quot;;text-decoration-color:#000;white-space:pre;shape-inside:url(#x);display:inline;fill:#000;stroke-width:1;-inkscape-stroke:none;stop-color:#000" transform="translate(11.088 232.438)scale(.26458)"><tspan x="126.777" y="733.809">D2</tspan></text><path d="M46.793 412.223h80.577" style="fill:#ffd5d5;stroke:#00f;stroke-width:.264583;stroke-linejoin:round;marker-start:url(#g);marker-end:url(#g)"/><path d="M40.999 364.626v4.911M52.588 364.673v4.911" style="fill:#fea;stroke:#faa;stroke-width:.264583;stroke-linejoin:round"/><path d="M41.114 367.259h11.18" style="fill:#fea;stroke:#00f;stroke-width:.264583;stroke-linejoin:round;stroke-dasharray:none;marker-start:url(#y);marker-end:url(#y)"/><text xml:space="preserve" style="font-size:16px;line-height:normal;font-family:&quot;Liberation Mono&quot;;-inkscape-font-specification:&quot;Liberation Mono&quot;;text-decoration-color:#000;white-space:pre;shape-inside:url(#z);display:inline;fill:#000;stroke-width:1;-inkscape-stroke:none;stop-color:#000" transform="translate(8.742 201.265)scale(.26458)"><tspan x="132.83" y="641.434">D3</tspan></text><path d="M45.316 268.245v-8.386" style="fill:#fea;stroke:#b3b3b3;stroke-width:.264582;stroke-linejoin:round"/><path d="m25.644 286.058 14.151 14.146M25.644 314.352 39.795 328.5" style="fill:#fff;stroke:#b3b3b3;stroke-width:.264583;stroke-linejoin:round;stroke-dasharray:none"/><path d="M22.029 295.632H35.02" style="fill:#ffd5d5;stroke:#ccc;stroke-width:.264583;stroke-linejoin:round"/><path d="M28.402 295.314s-.403-1.606-.168-2.36c.267-.858 1.685-2.106 1.685-2.106" style="fill:#fff;stroke:#666;stroke-width:.264583;stroke-linejoin:round;stroke-dasharray:none;marker-end:url(#g)"/><text xml:space="preserve" style="font-size:16px;line-height:normal;font-family:&quot;Liberation Mono&quot;;-inkscape-font-specification:&quot;Liberation Mono&quot;;text-decoration-color:#000;white-space:pre;shape-inside:url(#A);display:inline;fill:#000;stroke-width:1;-inkscape-stroke:none;stop-color:#000" transform="translate(3.118 -12.389)scale(.26458)"><tspan x="71.352" y="1157.461">a2</tspan></text><path d="M19.783 321.684h12.992" style="fill:#ffd5d5;stroke:#ccc;stroke-width:.264583;stroke-linejoin:round"/><path d="M26.156 321.367s-.403-1.607-.168-2.36c.267-.859 1.685-2.107 1.685-2.107" style="fill:#fff;stroke:#666;stroke-width:.264583;stroke-linejoin:round;stroke-dasharray:none;marker-end:url(#B)"/><text xml:space="preserve" style="font-size:16px;line-height:normal;font-family:&quot;Liberation Mono&quot;;-inkscape-font-specification:&quot;Liberation Mono&quot;;text-decoration-color:#000;white-space:pre;shape-inside:url(#C);display:inline;fill:#000;stroke-width:1;-inkscape-stroke:none;stop-color:#000" transform="translate(.872 13.664)scale(.26458)"><tspan x="71.352" y="1157.461">a1</tspan></text><path d="M38.08 364.626v11.963M55.506 364.627v11.962" style="fill:#fea;stroke:#faa;stroke-width:.264583;stroke-linejoin:round"/><path d="M38.343 373.177h16.9" style="fill:#fea;stroke:#00f;stroke-width:.264584;stroke-linejoin:round;stroke-dasharray:none;marker-start:url(#D);marker-end:url(#D)"/><text xml:space="preserve" style="font-size:16px;line-height:normal;font-family:&quot;Liberation Mono&quot;;-inkscape-font-specification:&quot;Liberation Mono&quot;;text-decoration-color:#000;white-space:pre;shape-inside:url(#E);display:inline;fill:#000;stroke-width:1;-inkscape-stroke:none;stop-color:#000" transform="translate(35.518 -9.178)scale(.26458)"><tspan x="33.785" y="1458.467">W3</tspan></text><path d="M55.506 346.172h22.489" style="fill:#fea;stroke:#b3b3b3;stroke-width:.264583;stroke-linejoin:round"/><path d="M75.725 346.584v17.57" style="fill:#fea;stroke:#00f;stroke-width:.264583;stroke-linejoin:round;stroke-dasharray:none;marker-start:url(#F);marker-end:url(#F)"/><text xml:space="preserve" style="font-size:16px;line-height:normal;font-family:&quot;Liberation Mono&quot;;-inkscape-font-specification:&quot;Liberation Mono&quot;;text-decoration-color:#000;white-space:pre;shape-inside:url(#G);display:inline;fill:#000;stroke-width:1;-inkscape-stroke:none;stop-color:#000" transform="translate(-15.733 -3.218)scale(.26458)"><tspan x="349.57" y="1360.713">HW3</tspan></text><path d="M48.27 268.245v-14.96" style="fill:#fea;stroke:#b3b3b3;stroke-width:.264582;stroke-linejoin:round"/><path d="M49.39 268.245v-14.96" style="fill:#fea;stroke:#b3b3b3;stroke-width:.264583;stroke-linejoin:round"/><path d="M48.586 261.102h2.621" style="fill:#fea;stroke:#00f;stroke-width:.264583;stroke-linejoin:round;stroke-dasharray:none;marker-start:url(#H)"/><path d="M44.97 261.06H39.02" style="fill:#fea;stroke:#00f;stroke-width:.264583;stroke-linejoin:round;stroke-dasharray:none;marker-start:url(#I)"/><text xml:space="preserve" style="font-size:16px;line-height:normal;font-family:&quot;Liberation Mono&quot;;-inkscape-font-specification:&quot;Liberation Mono&quot;;text-decoration-color:#000;white-space:pre;shape-inside:url(#J);display:inline;fill:#000;stroke-width:1;-inkscape-stroke:none;stop-color:#000" transform="translate(-15.595 21.396)scale(.26458)"><tspan x="186.174" y="911.813">W4</tspan></text><text xml:space="preserve" style="font-size:16px;line-height:normal;font-family:&quot;Liberation Mono&quot;;-inkscape-font-specification:&quot;Liberation Mono&quot;;text-decoration-color:#000;white-space:pre;shape-inside:url(#K);display:inline;fill:#000;stroke-width:1;-inkscape-stroke:none;stop-color:#000" transform="translate(-5.136 5.84)scale(.26458)"><tspan x="187.174" y="903.703">W5</tspan></text><text xml:space="preserve" style="font-size:16px;line-height:normal;font-family:&quot;Liberation Mono&quot;;-inkscape-font-specification:&quot;Liberation Mono&quot;;text-decoration-color:#000;white-space:pre;shape-inside:url(#L);display:inline;fill:#000;stroke-width:1;-inkscape-stroke:none;stop-color:#000" transform="translate(-3.456 12.634)scale(.26458)"><tspan x="223.662" y="919.471">T2</tspan></text><path d="M24.627 364.626h13.454M24.627 363.507h13.454" style="fill:#fea;stroke:#b3b3b3;stroke-width:.264583;stroke-linejoin:round"/><text xml:space="preserve" style="font-size:16px;line-height:normal;font-family:&quot;Liberation Mono&quot;;-inkscape-font-specification:&quot;Liberation Mono&quot;;text-decoration-color:#000;white-space:pre;shape-inside:url(#M);display:inline;fill:#000;stroke-width:1;-inkscape-stroke:none;stop-color:#000" transform="translate(8.185 -22.081)scale(.26458)"><tspan x="44.914" y="1443.824">T2</tspan></text><path d="M50.45 329.229h27.545" style="fill:#fea;stroke:#b3b3b3;stroke-width:.264583;stroke-linejoin:round"/><path d="M75.725 329.61v16.185" style="fill:#fea;stroke:#00f;stroke-width:.264583;stroke-linejoin:round;stroke-dasharray:none;marker-start:url(#N);marker-end:url(#N)"/><text xml:space="preserve" style="font-size:16px;line-height:normal;font-family:&quot;Liberation Mono&quot;;-inkscape-font-specification:&quot;Liberation Mono&quot;;text-decoration-color:#000;white-space:pre;shape-inside:url(#O);display:inline;fill:#000;stroke-width:1;-inkscape-stroke:none;stop-color:#000" transform="translate(-15.733 -21.162)scale(.26458)"><tspan x="349.57" y="1360.713">HW53</tspan></text><path d="M81.077 251.995 79.56 262.95l6.49-3.96" style="fill:none;stroke:#d4aa00;stroke-width:.264583;stroke-linejoin:round"/><path d="M80.655 257.389s1.604-.112 2.191.337c.66.504 1.012 2.275 1.012 2.275" style="fill:none;stroke:#00f;stroke-width:.264583;stroke-linejoin:round;stroke-dasharray:none;marker-start:url(#g);marker-end:url(#g)"/><text xml:space="preserve" style="font-size:16px;line-height:normal;font-family:&quot;Liberation Mono&quot;;-inkscape-font-specification:&quot;Liberation Mono&quot;;text-decoration-color:#000;white-space:pre;shape-inside:url(#P);display:inline;fill:#000;stroke-width:1;-inkscape-stroke:none;stop-color:#000" transform="translate(-2.107 -36.324)scale(.26458)"><tspan x="320.129" y="1105.221">aSolidSun</tspan></text><text xml:space="preserve" style="font-size:16px;line-height:normal;font-family:&quot;Liberation Mono&quot;;-inkscape-font-specification:&quot;Liberation Mono&quot;;text-decoration-color:#000;white-space:pre;shape-inside:url(#Q);fill:#000;stroke-width:1;-inkscape-stroke:none;stop-color:#000" transform="translate(-3.118 -1.787)scale(.26458)"><tspan x="411.867" y="1001.078">aSunMax
</tspan><tspan x="411.867" y="1021.078">aSunMin</tspan></text><path d="M104.59 260.25v8.348" style="fill:none;stroke:#000;stroke-width:.264583;stroke-linejoin:round"/><text xml:space="preserve" style="font-size:16px;line-height:normal;font-family:&quot;Liberation Mono&quot;;-inkscape-font-specification:&quot;Liberation Mono&quot;;text-decoration-color:#000;white-space:pre;shape-inside:url(#R);fill:#000;stroke-width:1;-inkscape-stroke:none;stop-color:#000" transform="translate(-168.771 52.681)scale(.26458)"><tspan x="684.727" y="1283.682">[d3_foot]</tspan></text><text xml:space="preserve" style="font-size:16px;line-height:normal;font-family:&quot;Liberation Mono&quot;;-inkscape-font-specification:&quot;Liberation Mono&quot;;text-decoration-color:#000;white-space:pre;shape-inside:url(#S);fill:#000;stroke-width:1;-inkscape-stroke:none;stop-color:#000" transform="translate(-162.335 -72.705)scale(.26458)"><tspan x="674.814" y="1318.819">[d3_frame]</tspan></text><text xml:space="preserve" style="font-size:16px;line-height:normal;font-family:&quot;Liberation Mono&quot;;-inkscape-font-specification:&quot;Liberation Mono&quot;;text-decoration-color:#000;white-space:pre;shape-inside:url(#T);fill:#000;stroke-width:1;-inkscape-stroke:none;stop-color:#000" transform="translate(-172.109 -28.129)scale(.26458)"><tspan x="689.23" y="1366.57">[d3_mirrors]</tspan></text></g></svg>