<svg xmlns="http://www.w3.org/2000/svg" width="301.919" height="103.709" viewBox="0 0 79.883 27.44"><defs><marker id="b" markerHeight="1" markerWidth="1" orient="auto-start-reverse" preserveAspectRatio="xMidYMid" refX="0" refY="0" style="overflow:visible" viewBox="0 0 1 1"><path d="M3-3 0 0l3 3" style="fill:none;stroke:context-stroke;stroke-width:1;stroke-linecap:butt" transform="rotate(180 .125 0)"/></marker><marker id="c" markerHeight="1" markerWidth="1" orient="auto-start-reverse" preserveAspectRatio="xMidYMid" refX="0" refY="0" style="overflow:visible" viewBox="0 0 1 1"><path d="M3-3 0 0l3 3" style="fill:none;stroke:context-stroke;stroke-width:1;stroke-linecap:butt" transform="rotate(180 .125 0)"/></marker><marker id="g" markerHeight="1" markerWidth="1" orient="auto-start-reverse" preserveAspectRatio="xMidYMid" refX="0" refY="0" style="overflow:visible" viewBox="0 0 1 1"><path d="M3-3 0 0l3 3" style="fill:none;stroke:context-stroke;stroke-width:1;stroke-linecap:butt" transform="rotate(180 .125 0)"/></marker><marker id="h" markerHeight="1" markerWidth="1" orient="auto-start-reverse" preserveAspectRatio="xMidYMid" refX="0" refY="0" style="overflow:visible" viewBox="0 0 1 1"><path d="M3-3 0 0l3 3" style="fill:none;stroke:context-stroke;stroke-width:1;stroke-linecap:butt" transform="rotate(180 .125 0)"/></marker><path id="f" d="M427.053 539.672H471.2v35.588h-44.147z"/><path id="e" d="M438.315 551.835h41.894v29.281h-41.894z"/><path id="d" d="M416.692 594.63h55.859v37.39h-55.859z"/><path id="a" d="M387.861 316.235h35.588v25.677h-35.588z"/></defs><path d="M28.963 150.893h79.618v27.175H28.963z" style="fill:#fff;stroke:#fff;stroke-width:.264583;stroke-linejoin:round" transform="translate(-28.83 -150.76)"/><text xml:space="preserve" style="font-size:16px;line-height:normal;font-family:&quot;Liberation Mono&quot;;-inkscape-font-specification:&quot;Liberation Mono&quot;;text-decoration-color:#000;white-space:pre;shape-inside:url(#a);display:inline;fill:#000;stroke-width:1;-inkscape-stroke:none;stop-color:#000" transform="translate(-79.051 -73.753)scale(.26458)"><tspan x="387.861" y="330.471">S1</tspan></text><path d="M33.373 168.295h71.156v2.861H33.373z" style="fill:#cfa;stroke:#803300;stroke-width:.264583;stroke-linejoin:round" transform="translate(-28.83 -150.76)"/><path d="M61.561 159.236H76.34v9.058H61.561z" style="fill:#55d400;stroke:#338000;stroke-width:.264583;stroke-linejoin:round" transform="translate(-28.83 -150.76)"/><path d="M63.289 159.236h11.323v11.919H63.289z" style="fill:#fff;stroke:#338000;stroke-width:.264583;stroke-linejoin:round" transform="translate(-28.83 -150.76)"/><path d="M97.616 176.81v-5.126" style="fill:#fff;stroke:#f60;stroke-width:.264583;stroke-linejoin:round;marker-end:url(#b)" transform="translate(-28.83 -150.76)"/><path d="M97.483 162.64v5.125" style="fill:#fff;stroke:#f60;stroke-width:.264583;stroke-linejoin:round;marker-end:url(#c)" transform="translate(-28.83 -150.76)"/><text xml:space="preserve" style="font-size:16px;line-height:normal;font-family:&quot;Liberation Mono&quot;;-inkscape-font-specification:&quot;Liberation Mono&quot;;text-decoration-color:#000;white-space:pre;shape-inside:url(#d);fill:#000;stroke-width:1;-inkscape-stroke:none;stop-color:#000" transform="translate(-41.068 -148.158)scale(.26458)"><tspan x="416.691" y="608.867">H1</tspan></text><path d="M78.457 168.295v-9.059" style="fill:#fff;stroke:#f60;stroke-width:.264583;stroke-linejoin:round;marker-start:url(#b);marker-end:url(#b)" transform="translate(-28.83 -150.76)"/><text xml:space="preserve" style="font-size:16px;line-height:normal;font-family:&quot;Liberation Mono&quot;;-inkscape-font-specification:&quot;Liberation Mono&quot;;text-decoration-color:#000;white-space:pre;shape-inside:url(#e);fill:#000;stroke-width:1;-inkscape-stroke:none;stop-color:#000" transform="translate(-65.815 -135.71)scale(.26458)"><tspan x="438.314" y="566.07">H2</tspan></text><path d="M63.862 157.649h10.297" style="fill:#fff;stroke:#f60;stroke-width:.264583;stroke-linejoin:round;marker-start:url(#b);marker-end:url(#b)" transform="translate(-28.83 -150.76)"/><text xml:space="preserve" style="font-size:16px;line-height:normal;font-family:&quot;Liberation Mono&quot;;-inkscape-font-specification:&quot;Liberation Mono&quot;;text-decoration-color:#000;white-space:pre;shape-inside:url(#f);fill:#000;stroke-width:1;-inkscape-stroke:none;stop-color:#000" transform="translate(-74.6 -140.61)scale(.26458)"><tspan x="427.053" y="553.908">D1</tspan></text><path d="M57.964 163.497h3.272" style="fill:#fff;stroke:#f60;stroke-width:.264583;stroke-linejoin:round;marker-end:url(#g)" transform="translate(-28.83 -150.76)"/><path d="M67.008 163.364h-3.271" style="fill:#fff;stroke:#f60;stroke-width:.264583;stroke-linejoin:round;marker-end:url(#h)" transform="translate(-28.83 -150.76)"/><path d="M63.29 159.236v-6.674M74.612 159.236v-6.674" style="fill:#fff;stroke:#ccc;stroke-width:.264583;stroke-linejoin:round" transform="translate(-28.83 -150.76)"/></svg>