<svg xmlns="http://www.w3.org/2000/svg" width="342.47" height="676.296" viewBox="0 0 90.612 178.937"><defs><marker id="a" markerHeight="1" markerWidth="1" orient="auto-start-reverse" preserveAspectRatio="xMidYMid" refX="0" refY="0" style="overflow:visible" viewBox="0 0 1 1"><path d="M3-3 0 0l3 3" style="fill:none;stroke:context-stroke;stroke-width:1;stroke-linecap:butt" transform="rotate(180 .125 0)"/></marker><marker id="b" markerHeight="1" markerWidth="1" orient="auto-start-reverse" preserveAspectRatio="xMidYMid" refX="0" refY="0" style="overflow:visible" viewBox="0 0 1 1"><path d="M3-3 0 0l3 3" style="fill:none;stroke:context-stroke;stroke-width:1;stroke-linecap:butt" transform="rotate(180 .125 0)"/></marker><marker id="c" markerHeight="1" markerWidth="1" orient="auto-start-reverse" preserveAspectRatio="xMidYMid" refX="0" refY="0" style="overflow:visible" viewBox="0 0 1 1"><path d="M3-3 0 0l3 3" style="fill:none;stroke:context-stroke;stroke-width:1;stroke-linecap:butt" transform="rotate(180 .125 0)"/></marker><marker id="d" markerHeight="1" markerWidth="1" orient="auto-start-reverse" preserveAspectRatio="xMidYMid" refX="0" refY="0" style="overflow:visible" viewBox="0 0 1 1"><path d="M3-3 0 0l3 3" style="fill:none;stroke:context-stroke;stroke-width:1;stroke-linecap:butt" transform="rotate(180 .125 0)"/></marker><marker id="e" markerHeight="1" markerWidth="1" orient="auto-start-reverse" preserveAspectRatio="xMidYMid" refX="0" refY="0" style="overflow:visible" viewBox="0 0 1 1"><path d="M3-3 0 0l3 3" style="fill:none;stroke:context-stroke;stroke-width:1;stroke-linecap:butt" transform="rotate(180 .125 0)"/></marker><marker id="f" markerHeight="1" markerWidth="1" orient="auto-start-reverse" preserveAspectRatio="xMidYMid" refX="0" refY="0" style="overflow:visible" viewBox="0 0 1 1"><path d="M3-3 0 0l3 3" style="fill:none;stroke:context-stroke;stroke-width:1;stroke-linecap:butt" transform="rotate(180 .125 0)"/></marker><marker id="n" markerHeight="1" markerWidth="1" orient="auto-start-reverse" preserveAspectRatio="xMidYMid" refX="0" refY="0" style="overflow:visible" viewBox="0 0 1 1"><path d="M3-3 0 0l3 3" style="fill:none;stroke:context-stroke;stroke-width:1;stroke-linecap:butt" transform="rotate(180 .125 0)"/></marker><marker id="o" markerHeight="1" markerWidth="1" orient="auto-start-reverse" preserveAspectRatio="xMidYMid" refX="0" refY="0" style="overflow:visible" viewBox="0 0 1 1"><path d="M3-3 0 0l3 3" style="fill:none;stroke:context-stroke;stroke-width:1;stroke-linecap:butt" transform="rotate(180 .125 0)"/></marker><marker id="p" markerHeight="1" markerWidth="1" orient="auto-start-reverse" preserveAspectRatio="xMidYMid" refX="0" refY="0" style="overflow:visible" viewBox="0 0 1 1"><path d="M3-3 0 0l3 3" style="fill:none;stroke:context-stroke;stroke-width:1;stroke-linecap:butt" transform="rotate(180 .125 0)"/></marker><marker id="q" markerHeight="1" markerWidth="1" orient="auto-start-reverse" preserveAspectRatio="xMidYMid" refX="0" refY="0" style="overflow:visible" viewBox="0 0 1 1"><path d="M3-3 0 0l3 3" style="fill:none;stroke:context-stroke;stroke-width:1;stroke-linecap:butt" transform="rotate(180 .125 0)"/></marker><marker id="r" markerHeight="1" markerWidth="1" orient="auto-start-reverse" preserveAspectRatio="xMidYMid" refX="0" refY="0" style="overflow:visible" viewBox="0 0 1 1"><path d="M3-3 0 0l3 3" style="fill:none;stroke:context-stroke;stroke-width:1;stroke-linecap:butt" transform="rotate(180 .125 0)"/></marker><marker id="s" markerHeight="1" markerWidth="1" orient="auto-start-reverse" preserveAspectRatio="xMidYMid" refX="0" refY="0" style="overflow:visible" viewBox="0 0 1 1"><path d="M3-3 0 0l3 3" style="fill:none;stroke:context-stroke;stroke-width:1;stroke-linecap:butt" transform="rotate(180 .125 0)"/></marker><marker id="t" markerHeight="1" markerWidth="1" orient="auto-start-reverse" preserveAspectRatio="xMidYMid" refX="0" refY="0" style="overflow:visible" viewBox="0 0 1 1"><path d="M3-3 0 0l3 3" style="fill:none;stroke:context-stroke;stroke-width:1;stroke-linecap:butt" transform="rotate(180 .125 0)"/></marker><marker id="u" markerHeight="1" markerWidth="1" orient="auto-start-reverse" preserveAspectRatio="xMidYMid" refX="0" refY="0" style="overflow:visible" viewBox="0 0 1 1"><path d="M3-3 0 0l3 3" style="fill:none;stroke:context-stroke;stroke-width:1;stroke-linecap:butt" transform="rotate(180 .125 0)"/></marker><marker id="D" markerHeight="1" markerWidth="1" orient="auto-start-reverse" preserveAspectRatio="xMidYMid" refX="0" refY="0" style="overflow:visible" viewBox="0 0 1 1"><path d="M3-3 0 0l3 3" style="fill:none;stroke:context-stroke;stroke-width:1;stroke-linecap:butt" transform="rotate(180 .125 0)"/></marker><marker id="F" markerHeight="1" markerWidth="1" orient="auto-start-reverse" preserveAspectRatio="xMidYMid" refX="0" refY="0" style="overflow:visible" viewBox="0 0 1 1"><path d="M3-3 0 0l3 3" style="fill:none;stroke:context-stroke;stroke-width:1;stroke-linecap:butt" transform="rotate(180 .125 0)"/></marker><marker id="G" markerHeight="1" markerWidth="1" orient="auto-start-reverse" preserveAspectRatio="xMidYMid" refX="0" refY="0" style="overflow:visible" viewBox="0 0 1 1"><path d="M3-3 0 0l3 3" style="fill:none;stroke:context-stroke;stroke-width:1;stroke-linecap:butt" transform="rotate(180 .125 0)"/></marker><marker id="I" markerHeight="1" markerWidth="1" orient="auto-start-reverse" preserveAspectRatio="xMidYMid" refX="0" refY="0" style="overflow:visible" viewBox="0 0 1 1"><path d="M3-3 0 0l3 3" style="fill:none;stroke:context-stroke;stroke-width:1;stroke-linecap:butt" transform="rotate(180 .125 0)"/></marker><marker id="J" markerHeight="1" markerWidth="1" orient="auto-start-reverse" preserveAspectRatio="xMidYMid" refX="0" refY="0" style="overflow:visible" viewBox="0 0 1 1"><path d="M3-3 0 0l3 3" style="fill:none;stroke:context-stroke;stroke-width:1;stroke-linecap:butt" transform="rotate(180 .125 0)"/></marker><marker id="M" markerHeight="1" markerWidth="1" orient="auto-start-reverse" preserveAspectRatio="xMidYMid" refX="0" refY="0" style="overflow:visible" viewBox="0 0 1 1"><path d="M3-3 0 0l3 3" style="fill:none;stroke:context-stroke;stroke-width:1;stroke-linecap:butt" transform="rotate(180 .125 0)"/></marker><marker id="N" markerHeight="1" markerWidth="1" orient="auto-start-reverse" preserveAspectRatio="xMidYMid" refX="0" refY="0" style="overflow:visible" viewBox="0 0 1 1"><path d="M3-3 0 0l3 3" style="fill:none;stroke:context-stroke;stroke-width:1;stroke-linecap:butt" transform="rotate(180 .125 0)"/></marker><marker id="O" markerHeight="1" markerWidth="1" orient="auto-start-reverse" preserveAspectRatio="xMidYMid" refX="0" refY="0" style="overflow:visible" viewBox="0 0 1 1"><path d="M3-3 0 0l3 3" style="fill:none;stroke:context-stroke;stroke-width:1;stroke-linecap:butt" transform="rotate(180 .125 0)"/></marker><marker id="Q" markerHeight="1" markerWidth="1" orient="auto-start-reverse" preserveAspectRatio="xMidYMid" refX="0" refY="0" style="overflow:visible" viewBox="0 0 1 1"><path d="M3-3 0 0l3 3" style="fill:none;stroke:context-stroke;stroke-width:1;stroke-linecap:butt" transform="rotate(180 .125 0)"/></marker><path id="S" d="M112.125 315.35h61.159v45.232h-61.159z"/><path id="P" d="M135.368 524.806h28.155v19.596h-28.155z"/><path id="H" d="M411.511 401.15h27.704v22.749h-27.704z"/><path id="E" d="M31.854 418.874h54.47v33.446h-54.47z"/><path id="C" d="M404.859 120.088h41.41v26.438h-41.41z"/><path id="B" d="M432.253 232.212h61.477v30.579h-61.477z"/><path id="y" d="M459.01 489.908h36.313v28.987H459.01z"/><path id="v" d="M461.24 519.213h32.809v26.617H461.24z"/><path id="m" d="M132.829 627.197h37.269v27.713h-37.269z"/><path id="l" d="M126.777 719.572h39.817v25.483h-39.817z"/><path id="k" d="M110.532 678.162h35.995v23.253h-35.995z"/><path id="j" d="M145.571 690.904h35.676v29.624h-35.676z"/><path id="i" d="M135.696 640.894h35.357v29.624h-35.357z"/><path id="h" d="M148.438 601.077h29.942v25.483h-29.942z"/><path id="g" d="M146.845 651.986h33.446v29.361h-33.446z"/><path id="w" d="M461.24 519.213h32.809v26.617H461.24z"/><path id="x" d="M461.24 519.213h32.809v26.617H461.24z"/><path id="z" d="M461.24 519.213h32.809v26.617H461.24z"/><path id="A" d="M461.24 519.213h32.809v26.617H461.24z"/><path id="K" d="M411.511 401.15h27.704v22.749h-27.704z"/><path id="L" d="M411.511 401.15h27.704v22.749h-27.704z"/><path id="R" d="M135.368 524.806h28.155v19.596h-28.155z"/></defs><path d="M25.958 34.723h90.347v178.672H25.958z" style="fill:#fff;stroke:#fff;stroke-width:.264583;stroke-linejoin:round;stroke-dasharray:none" transform="translate(-25.826 -34.59)"/><path d="M53.404 72.342v69.207s.191 2.427.617 3.539a10.9 10.9 0 0 0 2.296 3.649c.856.888 1.919 1.579 3.034 2.046 1.081.454 3.429.688 3.429.688h15.971s2.216-.179 3.233-.609c1.337-.565 2.629-1.4 3.604-2.523 1.06-1.22 1.774-2.787 2.255-4.365.236-.775.284-2.425.284-2.425V72.342s-.127-3.15-.562-4.638c-.736-2.52-1.825-5.003-3.401-7.046-1.507-1.954-3.484-3.533-5.585-4.723-1.61-.91-3.425-1.39-5.217-1.759a10.3 10.3 0 0 0-2.596-.206c-1.997.104-4.014.415-5.906 1.095a15.2 15.2 0 0 0-4.115 2.274 19.6 19.6 0 0 0-4.019 4.195c-.962 1.364-1.675 2.925-2.27 4.508-.354.944-.588 1.941-.76 2.941-.189 1.107-.292 3.359-.292 3.359z" style="fill:#87de87;stroke:teal;stroke-width:.264583;stroke-linejoin:round" transform="translate(-25.826 -34.59)"/><path d="M62.665 150.229h16.197s1.34-.066 1.98-.256c.95-.281 1.902-.673 2.698-1.29 1.029-.8 1.905-1.859 2.551-3.024.443-.8.676-1.722.858-2.629.097-.485.12-1.48.12-1.48V72.341s-.023-1.665-.17-2.479c-.326-1.81-.733-3.658-1.57-5.274-1.194-2.308-2.79-4.488-4.788-6.054-2.095-1.641-4.65-2.66-7.2-3.229-1.534-.341-3.15-.295-4.702-.069a15.9 15.9 0 0 0-4.891 1.533 16.6 16.6 0 0 0-4.33 3.185c-1.265 1.298-2.316 2.85-3.149 4.493-.662 1.307-1.11 2.74-1.426 4.186-.264 1.211-.38 3.708-.38 3.708v69.207s.035 1.21.176 1.793c.257 1.057.617 2.118 1.2 3.02a9.3 9.3 0 0 0 2.492 2.556c.756.524 1.631.855 2.506 1.092.594.162 1.828.219 1.828.219z" style="fill:#d7f4d7;stroke:teal;stroke-width:.264583;stroke-linejoin:round" transform="translate(-25.826 -34.59)"/><path d="M56.738 141.55s.092 1.404.327 2.052c.324.896.811 1.756 1.456 2.43.614.644 1.396 1.121 2.205 1.444.613.244 1.939.345 1.939.345h16.202s1.511-.155 2.206-.451a6 6 0 0 0 1.922-1.321c.556-.573.976-1.294 1.32-2.03.157-.338.254-.705.33-1.073.093-.458.148-1.398.148-1.398V72.342s-.042-1.635-.19-2.433c-.247-1.341-.604-2.677-1.156-3.912a15.2 15.2 0 0 0-2.132-3.44 13.7 13.7 0 0 0-2.798-2.587c-1.207-.827-2.55-1.444-3.92-1.908-.784-.265-1.607-.405-2.428-.49a13.2 13.2 0 0 0-2.615-.019c-.93.089-1.861.258-2.753.55a15.3 15.3 0 0 0-3.246 1.506c-.813.5-1.572 1.107-2.26 1.783a15 15 0 0 0-2.109 2.57 16.5 16.5 0 0 0-1.58 3.242c-.312.851-.52 1.746-.669 2.645-.135.822-.199 2.493-.199 2.493z" style="fill:#fff;stroke:teal;stroke-width:.264583;stroke-linejoin:round" transform="translate(-25.826 -34.59)"/><path d="M53.404 122.477h34.723v2.24H53.404z" style="fill:#ffe6d5;stroke:#ffb380;stroke-width:.264582;stroke-linejoin:round" transform="translate(-25.826 -34.59)"/><path d="M61.311 113.592H80.22v20.01H61.311z" style="fill:#d5fff6;stroke:#ffb380;stroke-width:.264583;stroke-linejoin:round" transform="translate(-25.826 -34.59)"/><path d="M53.404 94.122h34.723v2.24H53.404z" style="fill:#ffe6d5;stroke:#ffb380;stroke-width:.264582;stroke-linejoin:round" transform="translate(-25.826 -34.59)"/><path d="M61.311 85.237H80.22v20.01H61.311z" style="fill:#d5fff6;stroke:#ffb380;stroke-width:.264583;stroke-linejoin:round" transform="translate(-25.826 -34.59)"/><path d="M53.404 78.05h34.723v1.12H53.404zM53.404 106.367h34.723v1.12H53.404zM53.404 134.721h34.723v1.12H53.404z" style="fill:#87de87;stroke:teal;stroke-width:.264582;stroke-linejoin:round" transform="translate(-25.826 -34.59)"/><path d="m64.971 151.47-3.476 21.167v14.159h2.908v7.754h12.726v-7.754h2.907v-14.159l-3.476-21.166Z" style="fill:#87de87;stroke:#008033;stroke-width:.264583;stroke-linejoin:round" transform="translate(-25.826 -34.59)"/><path d="m66.34 151.47-3.183 21.167v12.571h2.75v9.342h9.718v-9.342h2.75v-12.571l-3.185-21.166z" style="fill:#ececec;stroke:#008033;stroke-width:.264583;stroke-linejoin:round" transform="translate(-25.826 -34.59)"/><path d="M76.56 151.53h25.407M80.036 172.637h21.931M80.036 186.796h21.931M77.129 194.55h24.838" style="fill:#fea;stroke:#b3b3b3;stroke-width:.264583;stroke-linejoin:round" transform="translate(-25.826 -34.59)"/><path d="M61.495 186.796v21.93M80.036 186.796v21.93M64.403 194.55v7.94M64.971 143.53v7.94M77.129 194.55v7.94" style="fill:#fea;stroke:#ffd5d5;stroke-width:.264583;stroke-linejoin:round" transform="translate(-25.826 -34.59)"/><path d="M64.403 202.49h12.726" style="fill:#fea;stroke:#00f;stroke-width:.264583;stroke-linejoin:round;stroke-dasharray:none;marker-start:url(#a);marker-end:url(#a)" transform="translate(-25.826 -34.59)"/><path d="M61.604 208.727h18.202" style="fill:#fea;stroke:#00f;stroke-width:.264583;stroke-linejoin:round;stroke-dasharray:none;marker-start:url(#b);marker-end:url(#b)" transform="translate(-25.826 -34.59)"/><path d="M76.57 143.59v7.94" style="fill:#fea;stroke:#ffd5d5;stroke-width:.264583;stroke-linejoin:round" transform="translate(-25.826 -34.59)"/><path d="M64.988 143.53h11.18" style="fill:#fea;stroke:#00f;stroke-width:.264583;stroke-linejoin:round;stroke-dasharray:none;marker-start:url(#c);marker-end:url(#c)" transform="translate(-25.826 -34.59)"/><path d="M63.544 178.923h2.622" style="fill:#fea;stroke:#00f;stroke-width:.264583;stroke-linejoin:round;stroke-dasharray:none;marker-start:url(#a)" transform="translate(-25.826 -34.59)"/><path d="M61.11 178.923h-5.953" style="fill:#fea;stroke:#00f;stroke-width:.264583;stroke-linejoin:round;stroke-dasharray:none;marker-start:url(#d)" transform="translate(-25.826 -34.59)"/><path d="M101.967 151.53v21.107" style="fill:#fea;stroke:#00f;stroke-width:.264583;stroke-linejoin:round;stroke-dasharray:none;marker-start:url(#a);marker-end:url(#a)" transform="translate(-25.826 -34.59)"/><path d="M98.44 172.91v13.349" style="fill:#fea;stroke:#00f;stroke-width:.264583;stroke-linejoin:round;stroke-dasharray:none;marker-start:url(#e);marker-end:url(#e)" transform="translate(-25.826 -34.59)"/><path d="M101.08 186.93v7.243" style="fill:#fea;stroke:#00f;stroke-width:.264583;stroke-linejoin:round;stroke-dasharray:none;marker-start:url(#f);marker-end:url(#f)" transform="translate(-25.826 -34.59)"/><text xml:space="preserve" style="font-size:16px;line-height:normal;font-family:&quot;Liberation Mono&quot;;-inkscape-font-specification:&quot;Liberation Mono&quot;;text-decoration-color:#000;white-space:pre;shape-inside:url(#g);display:inline;fill:#000;stroke-width:1;-inkscape-stroke:none;stop-color:#000" transform="translate(-11.835 -33.074)scale(.26458)"><tspan x="146.846" y="666.223">T1</tspan></text><text xml:space="preserve" style="font-size:16px;line-height:normal;font-family:&quot;Liberation Mono&quot;;-inkscape-font-specification:&quot;Liberation Mono&quot;;text-decoration-color:#000;white-space:pre;shape-inside:url(#h);display:inline;fill:#000;stroke-width:1;-inkscape-stroke:none;stop-color:#000" transform="translate(37.047 -5.514)scale(.26458)"><tspan x="148.438" y="615.313">H1</tspan></text><text xml:space="preserve" style="font-size:16px;line-height:normal;font-family:&quot;Liberation Mono&quot;;-inkscape-font-specification:&quot;Liberation Mono&quot;;text-decoration-color:#000;white-space:pre;shape-inside:url(#i);display:inline;fill:#000;stroke-width:1;-inkscape-stroke:none;stop-color:#000" transform="translate(37.047 -27.006)scale(.26458)"><tspan x="135.695" y="655.131">H2</tspan></text><text xml:space="preserve" style="font-size:16px;line-height:normal;font-family:&quot;Liberation Mono&quot;;-inkscape-font-specification:&quot;Liberation Mono&quot;;text-decoration-color:#000;white-space:pre;shape-inside:url(#j);display:inline;fill:#000;stroke-width:1;-inkscape-stroke:none;stop-color:#000" transform="translate(38.31 -57.768)scale(.26458)"><tspan x="145.57" y="705.141">H3</tspan></text><text xml:space="preserve" style="font-size:16px;line-height:normal;font-family:&quot;Liberation Mono&quot;;-inkscape-font-specification:&quot;Liberation Mono&quot;;text-decoration-color:#000;white-space:pre;shape-inside:url(#k);display:inline;fill:#000;stroke-width:1;-inkscape-stroke:none;stop-color:#000" transform="translate(13.701 -15.796)scale(.26458)"><tspan x="110.531" y="692.399">D1</tspan></text><text xml:space="preserve" style="font-size:16px;line-height:normal;font-family:&quot;Liberation Mono&quot;;-inkscape-font-specification:&quot;Liberation Mono&quot;;text-decoration-color:#000;white-space:pre;shape-inside:url(#l);display:inline;fill:#000;stroke-width:1;-inkscape-stroke:none;stop-color:#000" transform="translate(9.234 -20.6)scale(.26458)"><tspan x="126.777" y="733.809">D2</tspan></text><text xml:space="preserve" style="font-size:16px;line-height:normal;font-family:&quot;Liberation Mono&quot;;-inkscape-font-specification:&quot;Liberation Mono&quot;;text-decoration-color:#000;white-space:pre;shape-inside:url(#m);display:inline;fill:#000;stroke-width:1;-inkscape-stroke:none;stop-color:#000" transform="translate(6.538 -61.813)scale(.26458)"><tspan x="132.83" y="641.434">D3</tspan></text><path d="M88.127 135.841h13.84M88.127 134.721h13.84M88.127 141.549h13.84M88.127 107.487h13.84M88.127 106.367h13.84M88.127 123.597h8.615M88.127 79.17h13.84M88.127 78.05h13.84M88.127 72.342h13.84" style="fill:#fea;stroke:#b3b3b3;stroke-width:.264583;stroke-linejoin:round" transform="translate(-25.826 -34.59)"/><path d="M71.33 53.957h30.637M53.404 72.342V41.705M88.127 72.342V41.705" style="fill:#fea;stroke:#b3b3b3;stroke-width:.264582;stroke-linejoin:round" transform="translate(-25.826 -34.59)"/><path d="M39.564 122.477h13.84M39.564 124.717h13.84" style="fill:#fea;stroke:#b3b3b3;stroke-width:.264583;stroke-linejoin:round" transform="translate(-25.826 -34.59)"/><path d="M96.964 141.663v9.5" style="fill:#fea;stroke:#00f;stroke-width:.264583;stroke-linejoin:round;stroke-dasharray:none;marker-start:url(#n);marker-end:url(#n)" transform="translate(-25.826 -34.59)"/><path d="M100.909 136.236v4.948" style="fill:#fea;stroke:#00f;stroke-width:.264583;stroke-linejoin:round;stroke-dasharray:none;marker-start:url(#o);marker-end:url(#o)" transform="translate(-25.826 -34.59)"/><path d="M100.909 107.873v26.453" style="fill:#fea;stroke:#00f;stroke-width:.264583;stroke-linejoin:round;stroke-dasharray:none;marker-start:url(#p);marker-end:url(#p)" transform="translate(-25.826 -34.59)"/><path d="M100.909 79.528v26.453" style="fill:#fea;stroke:#666;stroke-width:.264583;stroke-linejoin:round;stroke-dasharray:none;marker-start:url(#q);marker-end:url(#q)" transform="translate(-25.826 -34.59)"/><path d="M100.909 72.714v4.963" style="fill:#fea;stroke:#00f;stroke-width:.264583;stroke-linejoin:round;stroke-dasharray:none;marker-start:url(#r);marker-end:url(#r)" transform="translate(-25.826 -34.59)"/><path d="M100.909 54.36v17.588" style="fill:#fea;stroke:#666;stroke-width:.264582;stroke-linejoin:round;stroke-dasharray:none;marker-start:url(#s);marker-end:url(#s)" transform="translate(-25.826 -34.59)"/><path d="M53.79 45.184h33.95" style="fill:#fea;stroke:#00f;stroke-width:.264583;stroke-linejoin:round;stroke-dasharray:none;marker-start:url(#t);marker-end:url(#t)" transform="translate(-25.826 -34.59)"/><path d="M92.434 123.87v10.46" style="fill:#fea;stroke:#00f;stroke-width:.264583;stroke-linejoin:round;stroke-dasharray:none;marker-start:url(#u);marker-end:url(#u)" transform="translate(-25.826 -34.59)"/><text xml:space="preserve" style="font-size:16px;line-height:normal;font-family:&quot;Liberation Mono&quot;;-inkscape-font-specification:&quot;Liberation Mono&quot;;text-decoration-color:#000;white-space:pre;shape-inside:url(#v);display:inline;fill:#000;stroke-width:1;-inkscape-stroke:none;stop-color:#000" transform="translate(-50.351 -27.68)scale(.26458)"><tspan x="461.24" y="533.449">H4</tspan></text><text xml:space="preserve" style="font-size:16px;line-height:normal;font-family:&quot;Liberation Mono&quot;;-inkscape-font-specification:&quot;Liberation Mono&quot;;text-decoration-color:#000;white-space:pre;shape-inside:url(#w);display:inline;fill:#000;stroke-width:1;-inkscape-stroke:none;stop-color:#000" transform="translate(-45.666 -35.578)scale(.26458)"><tspan x="461.24" y="533.449">H5</tspan></text><text xml:space="preserve" style="font-size:16px;line-height:normal;font-family:&quot;Liberation Mono&quot;;-inkscape-font-specification:&quot;Liberation Mono&quot;;text-decoration-color:#000;white-space:pre;shape-inside:url(#x);display:inline;fill:#000;stroke-width:1;-inkscape-stroke:none;stop-color:#000" transform="translate(-45.945 -52.812)scale(.26458)"><tspan x="461.24" y="533.449">H6</tspan></text><text xml:space="preserve" style="font-size:16px;line-height:normal;font-family:&quot;Liberation Mono&quot;;-inkscape-font-specification:&quot;Liberation Mono&quot;;text-decoration-color:#000;white-space:pre;shape-inside:url(#y);display:inline;fill:#000;stroke-width:1;-inkscape-stroke:none;stop-color:#000" transform="translate(-54.565 -37.288)scale(.26458)"><tspan x="459.01" y="504.145">H8</tspan></text><text xml:space="preserve" style="font-size:16px;line-height:normal;font-family:&quot;Liberation Mono&quot;;-inkscape-font-specification:&quot;Liberation Mono&quot;;text-decoration-color:#000;white-space:pre;shape-inside:url(#z);display:inline;fill:#000;stroke-width:1;-inkscape-stroke:none;stop-color:#000" transform="translate(-46.249 -81.896)scale(.26458)"><tspan x="461.24" y="533.449">H6</tspan></text><text xml:space="preserve" style="font-size:16px;line-height:normal;font-family:&quot;Liberation Mono&quot;;-inkscape-font-specification:&quot;Liberation Mono&quot;;text-decoration-color:#000;white-space:pre;shape-inside:url(#A);display:inline;fill:#000;stroke-width:1;-inkscape-stroke:none;stop-color:#000" transform="translate(-45.936 -99.07)scale(.26458)"><tspan x="461.24" y="533.449">H7</tspan></text><text xml:space="preserve" style="font-size:16px;line-height:normal;font-family:&quot;Liberation Mono&quot;;-inkscape-font-specification:&quot;Liberation Mono&quot;;text-decoration-color:#000;white-space:pre;shape-inside:url(#B);display:inline;fill:#000;stroke-width:1;-inkscape-stroke:none;stop-color:#000" transform="translate(-38.299 -35.18)scale(.26458)"><tspan x="432.252" y="246.449">W1/2</tspan></text><text xml:space="preserve" style="font-size:16px;line-height:normal;font-family:&quot;Liberation Mono&quot;;-inkscape-font-specification:&quot;Liberation Mono&quot;;text-decoration-color:#000;white-space:pre;shape-inside:url(#C);display:inline;fill:#000;stroke-width:1;-inkscape-stroke:none;stop-color:#000" transform="translate(-63.667 -26.163)scale(.26458)"><tspan x="404.859" y="134.324">W1</tspan></text><path d="M42.392 122.036v-8.428" style="fill:#fea;stroke:#00f;stroke-width:.264583;stroke-linejoin:round;stroke-dasharray:none;marker-start:url(#a)" transform="translate(-25.826 -34.59)"/><path d="M42.327 124.973v4.419" style="fill:#fea;stroke:#00f;stroke-width:.264583;stroke-linejoin:round;stroke-dasharray:none;marker-start:url(#D)" transform="translate(-25.826 -34.59)"/><text xml:space="preserve" style="font-size:16px;line-height:normal;font-family:&quot;Liberation Mono&quot;;-inkscape-font-specification:&quot;Liberation Mono&quot;;text-decoration-color:#000;white-space:pre;shape-inside:url(#E);display:inline;fill:#000;stroke-width:1;-inkscape-stroke:none;stop-color:#000" transform="translate(1.986 -30.124)scale(.26458)"><tspan x="31.854" y="433.111">D8</tspan></text><path d="M91.7 105.965v-8.428" style="fill:#fea;stroke:#00f;stroke-width:.264583;stroke-linejoin:round;stroke-dasharray:none;marker-start:url(#F)" transform="translate(-25.826 -34.59)"/><path d="M91.634 107.844v4.418" style="fill:#fea;stroke:#00f;stroke-width:.264583;stroke-linejoin:round;stroke-dasharray:none;marker-start:url(#G)" transform="translate(-25.826 -34.59)"/><text xml:space="preserve" style="font-size:16px;line-height:normal;font-family:&quot;Liberation Mono&quot;;-inkscape-font-specification:&quot;Liberation Mono&quot;;text-decoration-color:#000;white-space:pre;shape-inside:url(#H);display:inline;fill:#000;stroke-width:1;-inkscape-stroke:none;stop-color:#000" transform="translate(-42.512 -41.802)scale(.26458)"><tspan x="411.512" y="415.387">T2</tspan></text><path d="M88.503 91.667h8.428" style="fill:#fea;stroke:#666;stroke-width:.264583;stroke-linejoin:round;stroke-dasharray:none;marker-start:url(#I)" transform="translate(-25.826 -34.59)"/><path d="M86.803 91.602h-4.419" style="fill:#fea;stroke:#666;stroke-width:.264583;stroke-linejoin:round;stroke-dasharray:none;marker-start:url(#J)" transform="translate(-25.826 -34.59)"/><text xml:space="preserve" style="font-size:16px;line-height:normal;font-family:&quot;Liberation Mono&quot;;-inkscape-font-specification:&quot;Liberation Mono&quot;;text-decoration-color:#000;white-space:pre;shape-inside:url(#K);display:inline;fill:#000;stroke-width:1;-inkscape-stroke:none;stop-color:#000" transform="translate(-43.556 -53.369)scale(.26458)"><tspan x="411.512" y="415.387">T2</tspan></text><text xml:space="preserve" style="font-size:16px;line-height:normal;font-family:&quot;Liberation Mono&quot;;-inkscape-font-specification:&quot;Liberation Mono&quot;;text-decoration-color:#000;white-space:pre;shape-inside:url(#L);display:inline;fill:#000;stroke-width:1;-inkscape-stroke:none;stop-color:#000" transform="translate(-43.913 -60.189)scale(.26458)"><tspan x="411.512" y="415.387">W2</tspan></text><path d="M87.335 84.718h8.428" style="fill:#fea;stroke:#00f;stroke-width:.264583;stroke-linejoin:round;stroke-dasharray:none;marker-start:url(#M)" transform="translate(-25.826 -34.59)"/><path d="M84.429 84.653h-2.84" style="fill:#fea;stroke:#00f;stroke-width:.264583;stroke-linejoin:round;stroke-dasharray:none;marker-start:url(#N)" transform="translate(-25.826 -34.59)"/><path d="M64.043 113.906v19.227" style="fill:#fea;stroke:#00f;stroke-width:.264583;stroke-linejoin:round;stroke-dasharray:none;marker-start:url(#O);marker-end:url(#O)" transform="translate(-25.826 -34.59)"/><text xml:space="preserve" style="font-size:16px;line-height:normal;font-family:&quot;Liberation Mono&quot;;-inkscape-font-specification:&quot;Liberation Mono&quot;;text-decoration-color:#000;white-space:pre;shape-inside:url(#P);fill:#000;stroke-width:1;-inkscape-stroke:none;stop-color:#000" transform="translate(2.66 -52.171)scale(.26458)"><tspan x="135.369" y="539.043">Hm</tspan></text><path d="M61.436 112.278h18.53" style="fill:#fea;stroke:#00f;stroke-width:.264583;stroke-linejoin:round;stroke-dasharray:none;marker-start:url(#Q);marker-end:url(#Q)" transform="translate(-25.826 -34.59)"/><text xml:space="preserve" style="font-size:16px;line-height:normal;font-family:&quot;Liberation Mono&quot;;-inkscape-font-specification:&quot;Liberation Mono&quot;;text-decoration-color:#000;white-space:pre;shape-inside:url(#R);display:inline;fill:#000;stroke-width:1;-inkscape-stroke:none;stop-color:#000" transform="translate(6.559 -65.551)scale(.26458)"><tspan x="135.369" y="539.043">Wm</tspan></text><text xml:space="preserve" style="font-size:16px;line-height:normal;font-family:&quot;Liberation Mono&quot;;-inkscape-font-specification:&quot;Liberation Mono&quot;;text-decoration-color:#000;white-space:pre;shape-inside:url(#S);fill:#000;stroke-width:1;-inkscape-stroke:none;stop-color:#000" transform="translate(-25.28 -34.106)scale(.26458)"><tspan x="112.125" y="329.586">N1</tspan></text><path d="m34.554 88.662 17.025 31.183" style="fill:#fea;stroke:#00f;stroke-width:.264583;stroke-linejoin:round;stroke-dasharray:none;marker-end:url(#a)" transform="translate(-25.826 -34.59)"/><path d="m35.27 87.93 16.815 6.463" style="fill:#fea;stroke:#00f;stroke-width:.264583;stroke-linejoin:round;stroke-dasharray:none;marker-end:url(#a)" transform="translate(-25.826 -34.59)"/></svg>