<svg xmlns="http://www.w3.org/2000/svg" width="472.433" height="434.209" viewBox="0 0 124.998 114.884"><defs><path id="k" d="M87.843 3830.41h44.147v45.949H87.843z"/><path id="g" d="M461.24 4028.202h67.53v47.78h-67.53z"/><path id="f" d="M458.691 3928.182h77.723v45.869h-77.723z"/><path id="e" d="M31.216 4198.163h63.483v46.006H31.216z"/><path id="d" d="M470.159 4168.357h78.36v59.885h-78.36z"/><path id="j" d="M31.216 4198.163h63.483v46.006H31.216z"/><marker id="c" markerHeight="1" markerWidth="1" orient="auto-start-reverse" preserveAspectRatio="xMidYMid" refX="0" refY="0" style="overflow:visible" viewBox="0 0 1 1"><path d="M3-3 0 0l3 3" style="fill:none;stroke:context-stroke;stroke-width:1;stroke-linecap:butt" transform="rotate(180 .125 0)"/></marker><marker id="a" markerHeight="1" markerWidth="1" orient="auto-start-reverse" preserveAspectRatio="xMidYMid" refX="0" refY="0" style="overflow:visible" viewBox="0 0 1 1"><path d="M3-3 0 0l3 3" style="fill:none;stroke:context-stroke;stroke-width:1;stroke-linecap:butt" transform="rotate(180 .125 0)"/></marker><marker id="b" markerHeight="1" markerWidth="1" orient="auto-start-reverse" preserveAspectRatio="xMidYMid" refX="0" refY="0" style="overflow:visible" viewBox="0 0 1 1"><path d="M3-3 0 0l3 3" style="fill:none;stroke:context-stroke;stroke-width:1;stroke-linecap:butt" transform="rotate(180 .125 0)"/></marker><marker id="h" markerHeight="1" markerWidth="1" orient="auto-start-reverse" preserveAspectRatio="xMidYMid" refX="0" refY="0" style="overflow:visible" viewBox="0 0 1 1"><path d="M3-3 0 0l3 3" style="fill:none;stroke:context-stroke;stroke-width:1;stroke-linecap:butt" transform="rotate(180 .125 0)"/></marker><marker id="i" markerHeight="1" markerWidth="1" orient="auto-start-reverse" preserveAspectRatio="xMidYMid" refX="0" refY="0" style="overflow:visible" viewBox="0 0 1 1"><path d="M3-3 0 0l3 3" style="fill:none;stroke:context-stroke;stroke-width:1;stroke-linecap:butt" transform="rotate(180 .125 0)"/></marker></defs><g transform="translate(-7.621 -1006.836)"><path d="M7.754 1006.968h124.733v114.62H7.754z" style="fill:#fff;stroke:#fff;stroke-width:.264583;stroke-linejoin:round"/><circle cx="68.098" cy="1065.964" r="44.668" style="fill:#0a4;stroke:green;stroke-width:.264583;stroke-linejoin:round"/><circle cx="68.098" cy="1065.964" r="34.386" style="fill:#5fd35f;stroke:green;stroke-width:.264583;stroke-linejoin:round"/><circle cx="68.098" cy="1065.964" r="29.498" style="fill:#e3f4d7;stroke:green;stroke-width:.264583;stroke-linejoin:round"/><circle cx="68.098" cy="1065.964" r="9.861" style="fill:#fff;stroke:green;stroke-width:.264583;stroke-linejoin:round"/><path d="M33.712 1065.964H12.338" style="fill:#fea;stroke:#00f;stroke-width:.264582;stroke-linejoin:round;stroke-dasharray:none;marker-start:url(#a)"/><path d="M38.6 1065.964h6.684" style="fill:#fea;stroke:#00f;stroke-width:.264582;stroke-linejoin:round;stroke-dasharray:none;marker-start:url(#b)"/><path d="m74.988 1073.018 31.54 37.746" style="fill:#fff;stroke:#00f;stroke-width:.264583;stroke-linejoin:round;marker-start:url(#c)"/><text xml:space="preserve" style="font-size:16px;line-height:normal;font-family:&quot;Liberation Mono&quot;;-inkscape-font-specification:&quot;Liberation Mono&quot;;text-decoration-color:#000;white-space:pre;shape-inside:url(#d);fill:#000;stroke-width:1;-inkscape-stroke:none;stop-color:#000" transform="translate(-16.013 6.993)scale(.26458)"><tspan x="470.158" y="4182.594">D4</tspan></text><text xml:space="preserve" style="font-size:16px;line-height:normal;font-family:&quot;Liberation Mono&quot;;-inkscape-font-specification:&quot;Liberation Mono&quot;;text-decoration-color:#000;white-space:pre;shape-inside:url(#e);fill:#000;stroke-width:1;-inkscape-stroke:none;stop-color:#000" transform="translate(2.697 -49.725)scale(.26458)"><tspan x="31.217" y="4212.399">T1</tspan></text><path d="m89.673 1038.994 23.935-20.901" style="fill:#fff;stroke:#00f;stroke-width:.264583;stroke-linejoin:round;marker-start:url(#c)"/><text xml:space="preserve" style="font-size:16px;line-height:normal;font-family:&quot;Liberation Mono&quot;;-inkscape-font-specification:&quot;Liberation Mono&quot;;text-decoration-color:#000;white-space:pre;shape-inside:url(#f);fill:#000;stroke-width:1;-inkscape-stroke:none;stop-color:#000" transform="translate(-9.44 -26.464)scale(.26458)"><tspan x="458.691" y="3942.418">D3</tspan></text><path d="m108.383 1045.737 14.159-6.574" style="fill:#fff;stroke:#00f;stroke-width:.264583;stroke-linejoin:round;marker-start:url(#c)"/><text xml:space="preserve" style="font-size:16px;line-height:normal;font-family:&quot;Liberation Mono&quot;;-inkscape-font-specification:&quot;Liberation Mono&quot;;text-decoration-color:#000;white-space:pre;shape-inside:url(#g);fill:#000;stroke-width:1;-inkscape-stroke:none;stop-color:#000" transform="translate(1.011 -29.16)scale(.26458)"><tspan x="461.24" y="4042.438">D2</tspan></text><path d="M1063.52-111.673h4.888v33.715h-4.888z" style="fill:#aade87;stroke:green;stroke-width:.264583;stroke-linejoin:round" transform="rotate(90)"/><path d="M83.899 1063.174v-12.657" style="fill:#fea;stroke:#00f;stroke-width:.264582;stroke-linejoin:round;stroke-dasharray:none;marker-start:url(#h)"/><path d="M83.899 1068.793v6.685" style="fill:#fea;stroke:#00f;stroke-width:.264582;stroke-linejoin:round;stroke-dasharray:none;marker-start:url(#i)"/><text xml:space="preserve" style="font-size:16px;line-height:normal;font-family:&quot;Liberation Mono&quot;;-inkscape-font-specification:&quot;Liberation Mono&quot;;text-decoration-color:#000;white-space:pre;shape-inside:url(#j);display:inline;fill:#000;stroke-width:1;-inkscape-stroke:none;stop-color:#000" transform="translate(76.37 -61.225)scale(.26458)"><tspan x="31.217" y="4212.399">T1</tspan></text><path d="M543.073 928.277h4.888v33.715h-4.888z" style="fill:#aade87;stroke:green;stroke-width:.264583;stroke-linejoin:round" transform="rotate(27.06)"/><path d="M-426.546-970.233h4.888v33.715h-4.888z" style="fill:#aade87;stroke:green;stroke-width:.264583;stroke-linejoin:round" transform="rotate(-27.06)scale(1 -1)"/><text xml:space="preserve" style="font-size:16px;line-height:normal;font-family:&quot;Liberation Mono&quot;;-inkscape-font-specification:&quot;Liberation Mono&quot;;text-decoration-color:#000;white-space:pre;shape-inside:url(#k);fill:#000;stroke-width:1;-inkscape-stroke:none;stop-color:#000" transform="scale(.26458)"><tspan x="87.844" y="3844.647">N2</tspan></text><path d="m29.44 1016.919 18.712 12.038" style="fill:#aade87;stroke:#00f;stroke-width:.264583;stroke-linejoin:round;marker-end:url(#c)"/><path d="m28.248 1018.35 32.18 59.832" style="fill:#aade87;stroke:#00f;stroke-width:.264583;stroke-linejoin:round;marker-end:url(#c)"/></g></svg>