<svg xmlns="http://www.w3.org/2000/svg" width="352.372" height="318.587" viewBox="0 0 93.232 84.293"><defs><path id="l" d="M234.699 435.161h47.3v28.831h-47.3z"/><path id="k" d="M413.088 358.58h39.192v26.128h-39.192z"/><path id="j" d="M387.861 316.235h35.588v25.677h-35.588z"/><path id="e" d="M76.131 236.951h45.048v33.335H76.131z"/><path id="d" d="M253.168 163.523h34.687v22.524h-34.687z"/><path id="c" d="M309.028 182.443h44.147v25.677h-44.147z"/><path id="b" d="M356.778 219.383h46.85v30.182h-46.85z"/><path id="a" d="M395.97 275.242h44.147v31.984H395.97z"/><marker id="f" markerHeight="1" markerWidth="1" orient="auto-start-reverse" preserveAspectRatio="xMidYMid" refX="0" refY="0" style="overflow:visible" viewBox="0 0 1 1"><path d="M3-3 0 0l3 3" style="fill:none;stroke:context-stroke;stroke-width:1;stroke-linecap:butt" transform="rotate(180 .125 0)"/></marker><marker id="g" markerHeight="1" markerWidth="1" orient="auto-start-reverse" preserveAspectRatio="xMidYMid" refX="0" refY="0" style="overflow:visible" viewBox="0 0 1 1"><path d="M3-3 0 0l3 3" style="fill:none;stroke:context-stroke;stroke-width:1;stroke-linecap:butt" transform="rotate(180 .125 0)"/></marker><marker id="i" markerHeight="1" markerWidth="1" orient="auto-start-reverse" preserveAspectRatio="xMidYMid" refX="0" refY="0" style="overflow:visible" viewBox="0 0 1 1"><path d="M3-3 0 0l3 3" style="fill:none;stroke:context-stroke;stroke-width:1;stroke-linecap:butt" transform="rotate(180 .125 0)"/></marker><marker id="h" markerHeight="1" markerWidth="1" orient="auto-start-reverse" preserveAspectRatio="xMidYMid" refX="0" refY="0" style="overflow:visible" viewBox="0 0 1 1"><path d="M3-3 0 0l3 3" style="fill:none;stroke:context-stroke;stroke-width:1;stroke-linecap:butt" transform="rotate(180 .125 0)"/></marker></defs><g transform="translate(-18.819 -40.988)"><path d="M18.951 41.12h92.967v84.028H18.951z" style="fill:#fff;stroke:#fff;stroke-width:.264583;stroke-linejoin:round"/><path d="m80.359 80.457-8.067-24.916s-1.259-2.058-2.15-2.842c-.683-.601-1.51-1.056-2.368-1.357-.619-.216-1.288-.299-1.943-.3a6.5 6.5 0 0 0-1.895.286c-.577.174-1.159.4-1.635.769-.996.771-2.413 2.91-2.413 2.91l-9.352 26.041-16.93 22.392s-1.45 2.735-1.509 4.232c-.044 1.116.373 2.238.874 3.237.266.53.66 1.002 1.1 1.4.632.572 1.366 1.06 2.16 1.373.727.285 1.523.453 2.302.426 1.073-.038 3.117-.805 3.117-.805l24.139-8.027 26.468 7.82s.86.05 1.284-.009c1.134-.158 2.315-.351 3.31-.916a5.8 5.8 0 0 0 2.052-1.96 7.36 7.36 0 0 0 1.074-3.56c.03-.983-.29-1.967-.675-2.87-.19-.445-.788-1.216-.788-1.216z" style="fill:#cfa;stroke:green;stroke-width:.264583;stroke-linejoin:round"/><circle cx="65.896" cy="88.91" r="10.25" style="fill:#55d400;stroke:#338000;stroke-width:.264583;stroke-linejoin:round"/><circle cx="66.031" cy="88.915" r="8.105" style="fill:#fff;stroke:#338000;stroke-width:.264583;stroke-linejoin:round"/><circle cx="65.921" cy="57.312" r="3.814" style="fill:#f9f9f9;stroke:#338000;stroke-width:.264583;stroke-linejoin:round"/><circle cx="65.789" cy="88.59" r="16.686" style="fill:none;stroke:#ccc;stroke-width:.264583;stroke-linejoin:round"/><circle cx="65.831" cy="57.478" r="6.436" style="fill:none;stroke:#ccc;stroke-width:.264583;stroke-linejoin:round"/><circle cx="93.631" cy="106.485" r="3.814" style="fill:#f9f9f9;stroke:#338000;stroke-width:.264583;stroke-linejoin:round"/><circle cx="93.541" cy="106.651" r="6.436" style="fill:none;stroke:#ccc;stroke-width:.264583;stroke-linejoin:round"/><circle cx="38.623" cy="107.505" r="3.814" style="fill:#f9f9f9;stroke:#338000;stroke-width:.264583;stroke-linejoin:round"/><circle cx="38.533" cy="107.672" r="6.436" style="fill:none;stroke:#ccc;stroke-width:.264583;stroke-linejoin:round"/><circle cx="65.837" cy="89.401" r="32.777" style="fill:none;stroke:#ccc;stroke-width:.264583;stroke-linejoin:round"/><text xml:space="preserve" style="font-size:16px;line-height:normal;font-family:&quot;Liberation Mono&quot;;-inkscape-font-specification:&quot;Liberation Mono&quot;;text-decoration-color:#000;white-space:pre;shape-inside:url(#a);fill:#000;stroke-width:1;-inkscape-stroke:none;stop-color:#000" transform="scale(.26458)"><tspan x="395.969" y="289.479">D1</tspan></text><text xml:space="preserve" style="font-size:16px;line-height:normal;font-family:&quot;Liberation Mono&quot;;-inkscape-font-specification:&quot;Liberation Mono&quot;;text-decoration-color:#000;white-space:pre;shape-inside:url(#b);fill:#000;stroke-width:1;-inkscape-stroke:none;stop-color:#000" transform="scale(.26458)"><tspan x="356.777" y="233.619">D3</tspan></text><text xml:space="preserve" style="font-size:16px;line-height:normal;font-family:&quot;Liberation Mono&quot;;-inkscape-font-specification:&quot;Liberation Mono&quot;;text-decoration-color:#000;white-space:pre;shape-inside:url(#c);fill:#000;stroke-width:1;-inkscape-stroke:none;stop-color:#000" transform="scale(.26458)"><tspan x="309.027" y="196.68">D4</tspan></text><text xml:space="preserve" style="font-size:16px;line-height:normal;font-family:&quot;Liberation Mono&quot;;-inkscape-font-specification:&quot;Liberation Mono&quot;;text-decoration-color:#000;white-space:pre;shape-inside:url(#d);fill:#000;stroke-width:1;-inkscape-stroke:none;stop-color:#000" transform="scale(.26458)"><tspan x="253.168" y="177.76">D5</tspan></text><text xml:space="preserve" style="font-size:16px;line-height:normal;font-family:&quot;Liberation Mono&quot;;-inkscape-font-specification:&quot;Liberation Mono&quot;;text-decoration-color:#000;white-space:pre;shape-inside:url(#e);fill:#000;stroke-width:1;-inkscape-stroke:none;stop-color:#000" transform="scale(.26458)"><tspan x="76.131" y="251.188">N1</tspan></text><path d="m72.034 93.969-4.149-3.915" style="fill:#f9f9f9;stroke:#f60;stroke-width:.264583;stroke-linejoin:round;marker-start:url(#f)"/><path d="m73.905 95.597 3.431 3.235" style="fill:#f9f9f9;stroke:#f60;stroke-width:.264583;stroke-linejoin:round;marker-start:url(#g)"/><path d="m89.079 101.79-4.149-3.915" style="fill:#f9f9f9;stroke:#f60;stroke-width:.264583;stroke-linejoin:round;marker-start:url(#h)"/><path d="m91.188 103.895 3.431 3.235" style="fill:#f9f9f9;stroke:#f60;stroke-width:.264583;stroke-linejoin:round;marker-start:url(#i)"/><path d="M103.813 76.042 74.255 86.174" style="fill:#f9f9f9;stroke:#f60;stroke-width:.264583;stroke-linejoin:round;marker-end:url(#f)"/><path d="M93.802 62.217 76.28 75.089" style="fill:#f9f9f9;stroke:#f60;stroke-width:.264583;stroke-linejoin:round;marker-end:url(#f)"/><path d="m82.717 52.8-3.337 6.08" style="fill:#f9f9f9;stroke:#f60;stroke-width:.264583;stroke-linejoin:round;marker-end:url(#f)"/><path d="m67.818 47.556-1.191 5.364" style="fill:#f9f9f9;stroke:#f60;stroke-width:.264583;stroke-linejoin:round;marker-end:url(#f)"/><path d="m54.588 64.481-28.247.954 13.945 27.77" style="fill:none;stroke:#f60;stroke-width:.264583;stroke-linejoin:round;marker-start:url(#f);marker-end:url(#f)"/><text xml:space="preserve" style="font-size:16px;line-height:normal;font-family:&quot;Liberation Mono&quot;;-inkscape-font-specification:&quot;Liberation Mono&quot;;text-decoration-color:#000;white-space:pre;shape-inside:url(#j);fill:#000;stroke-width:1;-inkscape-stroke:none;stop-color:#000" transform="translate(-39.69 4.41)scale(.26458)"><tspan x="387.861" y="330.471">S1</tspan></text><text xml:space="preserve" style="font-size:16px;line-height:normal;font-family:&quot;Liberation Mono&quot;;-inkscape-font-specification:&quot;Liberation Mono&quot;;text-decoration-color:#000;white-space:pre;shape-inside:url(#k);fill:#000;stroke-width:1;-inkscape-stroke:none;stop-color:#000" transform="translate(-23.48 .12)scale(.26458)"><tspan x="413.088" y="372.817">S5</tspan></text><text xml:space="preserve" style="font-size:16px;line-height:normal;font-family:&quot;Liberation Mono&quot;;-inkscape-font-specification:&quot;Liberation Mono&quot;;text-decoration-color:#000;white-space:pre;shape-inside:url(#l);fill:#000;stroke-width:1;-inkscape-stroke:none;stop-color:#000" transform="scale(.26458)"><tspan x="234.699" y="449.399">R3</tspan></text><path d="m64.839 114.898.953-8.343" style="fill:none;stroke:#f60;stroke-width:.264583;stroke-linejoin:round;marker-end:url(#f)"/></g></svg>