<svg xmlns="http://www.w3.org/2000/svg" width="461.388" height="365.771" viewBox="0 0 122.076 96.777"><defs><marker id="E" markerHeight="1" markerWidth="1" orient="auto-start-reverse" preserveAspectRatio="xMidYMid" refX="0" refY="0" style="overflow:visible" viewBox="0 0 1 1"><path d="M3-3 0 0l3 3" style="fill:none;stroke:context-stroke;stroke-width:1;stroke-linecap:butt" transform="rotate(180,0.125,0)"/></marker><marker id="f" markerHeight="1" markerWidth="1" orient="auto-start-reverse" preserveAspectRatio="xMidYMid" refX="0" refY="0" style="overflow:visible" viewBox="0 0 1 1"><path d="M3-3 0 0l3 3" style="fill:none;stroke:context-stroke;stroke-width:1;stroke-linecap:butt" transform="rotate(180,0.125,0)"/></marker><marker id="g" markerHeight="1" markerWidth="1" orient="auto-start-reverse" preserveAspectRatio="xMidYMid" refX="0" refY="0" style="overflow:visible" viewBox="0 0 1 1"><path d="M3-3 0 0l3 3" style="fill:none;stroke:context-stroke;stroke-width:1;stroke-linecap:butt" transform="rotate(180,0.125,0)"/></marker><marker id="i" markerHeight="1" markerWidth="1" orient="auto-start-reverse" preserveAspectRatio="xMidYMid" refX="0" refY="0" style="overflow:visible" viewBox="0 0 1 1"><path d="M3-3 0 0l3 3" style="fill:none;stroke:context-stroke;stroke-width:1;stroke-linecap:butt" transform="rotate(180,0.125,0)"/></marker><marker id="h" markerHeight="1" markerWidth="1" orient="auto-start-reverse" preserveAspectRatio="xMidYMid" refX="0" refY="0" style="overflow:visible" viewBox="0 0 1 1"><path d="M3-3 0 0l3 3" style="fill:none;stroke:context-stroke;stroke-width:1;stroke-linecap:butt" transform="rotate(180,0.125,0)"/></marker><marker id="l" markerHeight="1" markerWidth="1" orient="auto-start-reverse" preserveAspectRatio="xMidYMid" refX="0" refY="0" style="overflow:visible" viewBox="0 0 1 1"><path d="M3-3 0 0l3 3" style="fill:none;stroke:context-stroke;stroke-width:1;stroke-linecap:butt" transform="rotate(180,0.125,0)"/></marker><marker id="n" markerHeight="1" markerWidth="1" orient="auto-start-reverse" preserveAspectRatio="xMidYMid" refX="0" refY="0" style="overflow:visible" viewBox="0 0 1 1"><path d="M3-3 0 0l3 3" style="fill:none;stroke:context-stroke;stroke-width:1;stroke-linecap:butt" transform="rotate(180,0.125,0)"/></marker><marker id="p" markerHeight="1" markerWidth="1" orient="auto-start-reverse" preserveAspectRatio="xMidYMid" refX="0" refY="0" style="overflow:visible" viewBox="0 0 1 1"><path d="M3-3 0 0l3 3" style="fill:none;stroke:context-stroke;stroke-width:1;stroke-linecap:butt" transform="rotate(180,0.125,0)"/></marker><marker id="q" markerHeight="1" markerWidth="1" orient="auto-start-reverse" preserveAspectRatio="xMidYMid" refX="0" refY="0" style="overflow:visible" viewBox="0 0 1 1"><path d="M3-3 0 0l3 3" style="fill:none;stroke:context-stroke;stroke-width:1;stroke-linecap:butt" transform="rotate(180,0.125,0)"/></marker><marker id="r" markerHeight="1" markerWidth="1" orient="auto-start-reverse" preserveAspectRatio="xMidYMid" refX="0" refY="0" style="overflow:visible" viewBox="0 0 1 1"><path d="M3-3 0 0l3 3" style="fill:none;stroke:context-stroke;stroke-width:1;stroke-linecap:butt" transform="rotate(180,0.125,0)"/></marker><marker id="v" markerHeight="1" markerWidth="1" orient="auto-start-reverse" preserveAspectRatio="xMidYMid" refX="0" refY="0" style="overflow:visible" viewBox="0 0 1 1"><path d="M3-3 0 0l3 3" style="fill:none;stroke:context-stroke;stroke-width:1;stroke-linecap:butt" transform="rotate(180,0.125,0)"/></marker><marker id="w" markerHeight="1" markerWidth="1" orient="auto-start-reverse" preserveAspectRatio="xMidYMid" refX="0" refY="0" style="overflow:visible" viewBox="0 0 1 1"><path d="M3-3 0 0l3 3" style="fill:none;stroke:context-stroke;stroke-width:1;stroke-linecap:butt" transform="rotate(180,0.125,0)"/></marker><marker id="x" markerHeight="1" markerWidth="1" orient="auto-start-reverse" preserveAspectRatio="xMidYMid" refX="0" refY="0" style="overflow:visible" viewBox="0 0 1 1"><path d="M3-3 0 0l3 3" style="fill:none;stroke:context-stroke;stroke-width:1;stroke-linecap:butt" transform="rotate(180,0.125,0)"/></marker><marker id="A" markerHeight="1" markerWidth="1" orient="auto-start-reverse" preserveAspectRatio="xMidYMid" refX="0" refY="0" style="overflow:visible" viewBox="0 0 1 1"><path d="M3-3 0 0l3 3" style="fill:none;stroke:context-stroke;stroke-width:1;stroke-linecap:butt" transform="rotate(180,0.125,0)"/></marker><marker id="B" markerHeight="1" markerWidth="1" orient="auto-start-reverse" preserveAspectRatio="xMidYMid" refX="0" refY="0" style="overflow:visible" viewBox="0 0 1 1"><path d="M3-3 0 0l3 3" style="fill:none;stroke:context-stroke;stroke-width:1;stroke-linecap:butt" transform="rotate(180,0.125,0)"/></marker><marker id="F" markerHeight="1" markerWidth="1" orient="auto-start-reverse" preserveAspectRatio="xMidYMid" refX="0" refY="0" style="overflow:visible" viewBox="0 0 1 1"><path d="M3-3 0 0l3 3" style="fill:none;stroke:context-stroke;stroke-width:1;stroke-linecap:butt" transform="rotate(180,0.125,0)"/></marker><marker id="H" markerHeight="1" markerWidth="1" orient="auto-start-reverse" preserveAspectRatio="xMidYMid" refX="0" refY="0" style="overflow:visible" viewBox="0 0 1 1"><path d="M3-3 0 0l3 3" style="fill:none;stroke:context-stroke;stroke-width:1;stroke-linecap:butt" transform="rotate(180,0.125,0)"/></marker><marker id="J" markerHeight="1" markerWidth="1" orient="auto-start-reverse" preserveAspectRatio="xMidYMid" refX="0" refY="0" style="overflow:visible" viewBox="0 0 1 1"><path d="M3-3 0 0l3 3" style="fill:none;stroke:context-stroke;stroke-width:1;stroke-linecap:butt" transform="rotate(180,0.125,0)"/></marker><marker id="L" markerHeight="1" markerWidth="1" orient="auto-start-reverse" preserveAspectRatio="xMidYMid" refX="0" refY="0" style="overflow:visible" viewBox="0 0 1 1"><path d="M3-3 0 0l3 3" style="fill:none;stroke:context-stroke;stroke-width:1;stroke-linecap:butt" transform="rotate(180,0.125,0)"/></marker><marker id="O" markerHeight="1" markerWidth="1" orient="auto-start-reverse" preserveAspectRatio="xMidYMid" refX="0" refY="0" style="overflow:visible" viewBox="0 0 1 1"><path d="M3-3 0 0l3 3" style="fill:none;stroke:context-stroke;stroke-width:1;stroke-linecap:butt" transform="rotate(180,0.125,0)"/></marker><marker id="c" markerHeight="1" markerWidth="1" orient="auto-start-reverse" preserveAspectRatio="xMidYMid" refX="0" refY="0" style="overflow:visible" viewBox="0 0 1 1"><path d="M3-3 0 0l3 3" style="fill:none;stroke:context-stroke;stroke-width:1;stroke-linecap:butt" transform="rotate(180,0.125,0)"/></marker><marker id="d" markerHeight="1" markerWidth="1" orient="auto-start-reverse" preserveAspectRatio="xMidYMid" refX="0" refY="0" style="overflow:visible" viewBox="0 0 1 1"><path d="M3-3 0 0l3 3" style="fill:none;stroke:context-stroke;stroke-width:1;stroke-linecap:butt" transform="rotate(180,0.125,0)"/></marker><marker id="P" markerHeight="1" markerWidth="1" orient="auto-start-reverse" preserveAspectRatio="xMidYMid" refX="0" refY="0" style="overflow:visible" viewBox="0 0 1 1"><path d="M3-3 0 0l3 3" style="fill:none;stroke:context-stroke;stroke-width:1;stroke-linecap:butt" transform="rotate(180,0.125,0)"/></marker><path id="M" d="M437.434 1005.936h98.343v56.057h-98.343z"/><path id="G" d="M252.599 1086.525h57.973v26.12h-57.973z"/><path id="D" d="M344.018 1318.768h56.937v23.223h-56.937z"/><path id="C" d="M266.363 1315.234h51.854v23.89h-51.854z"/><path id="z" d="M508.701 1101.815H622.1v85.049H508.701z"/><path id="j" d="M272.764 1099.841h42.795v20.947h-42.795z"/><path id="k" d="M272.764 1099.841h42.795v20.947h-42.795z"/><path id="m" d="M57.211 631.119h48.652v27.93H57.211z"/><path id="o" d="M57.211 631.119h48.652v27.93H57.211z"/><path id="s" d="M479.566 634.474h50.195v32.291h-50.195z"/><path id="t" d="M276.143 935.642h54.508v27.93h-54.508z"/><path id="u" d="M479.566 634.474h50.195v32.291h-50.195z"/><path id="y" d="M329.497 450.312h55.231v24.557h-55.231z"/><path id="a" d="M139.6 614.001h56.808v23.425H139.6z"/><path id="e" d="M252.599 1086.525h57.973v26.12h-57.973z"/><path id="I" d="M57.211 631.119h48.652v27.93H57.211z"/><path id="K" d="M57.211 631.119h48.652v27.93H57.211z"/><path id="N" d="M437.434 1005.936h98.343v56.057h-98.343z"/><path id="b" d="M272.764 1099.841h42.795v20.947h-42.795z"/><path id="Q" d="M437.434 1005.936h98.343v56.057h-98.343z"/></defs><path d="M22.522 276.772h121.811v96.512H22.522z" style="fill:#fff;stroke:#fff;stroke-width:.264583;stroke-linejoin:round" transform="translate(-22.389646,-276.63943)"/><text xml:space="preserve" style="font-size:16px;line-height:normal;font-family:&quot;Liberation Mono&quot;;-inkscape-font-specification:&quot;Liberation Mono&quot;;text-decoration-color:#000;white-space:pre;shape-inside:url(#a);display:inline;fill:#338000;stroke-width:1;-inkscape-stroke:none;stop-color:#000" transform="translate(-22.389646,-276.63943) matrix(0.26458333,0,0,0.26458333,-12.980617,173.91722)"><tspan x="139.6" y="628.236">DW3/2</tspan></text><path d="M48.982 304.035h56.019v45.411H48.982z" style="fill:#fff;stroke:purple;stroke-width:.264583;stroke-linejoin:round" transform="translate(-22.389646,-276.63943)"/><text xml:space="preserve" style="font-size:16px;line-height:normal;font-family:&quot;Liberation Mono&quot;;-inkscape-font-specification:&quot;Liberation Mono&quot;;text-decoration-color:#000;white-space:pre;shape-inside:url(#b);display:inline;fill:#000;stroke-width:1;-inkscape-stroke:none;stop-color:#000" transform="translate(-22.389646,-276.63943) matrix(0.26458333,0,0,0.26458333,-10.477959,22.824313)"><tspan x="272.764" y="1114.076">Cf2</tspan></text><path d="m55.527 314.901-6.087-3.017" style="fill:#338000;stroke:#acf;stroke-width:.264583;stroke-linejoin:round;marker-start:url(#c)" transform="translate(-22.389646,-276.63943)"/><path d="m57.46 315.773 6.087 3.018" style="fill:#338000;stroke:#acf;stroke-width:.264583;stroke-linejoin:round;marker-start:url(#d)" transform="translate(-22.389646,-276.63943)"/><text xml:space="preserve" style="font-size:16px;line-height:normal;font-family:&quot;Liberation Mono&quot;;-inkscape-font-specification:&quot;Liberation Mono&quot;;text-decoration-color:#000;white-space:pre;shape-inside:url(#e);display:inline;fill:green;stroke-width:1;-inkscape-stroke:none;stop-color:#000" transform="translate(-22.389646,-276.63943) matrix(0.26458333,0,0,0.26458333,1.2522741,37.880461)"><tspan x="252.6" y="1100.762">DW1</tspan></text><path d="M48.982 331.926h15.971v17.521H48.982zM89.029 331.926H105v17.521H89.029z" style="fill:#fff;stroke:purple;stroke-width:.264583;stroke-linejoin:round" transform="translate(-22.389646,-276.63943)"/><path d="M-353.719 55.598h16.485v5.562h-16.485zM-347.33 61.161h3.706v3.793h-3.706z" style="fill:#ececec;stroke:#666;stroke-width:.264583;stroke-linejoin:round" transform="translate(-22.389646,-276.63943) rotate(-90)"/><path d="M-353.719-98.384h16.485v5.562h-16.485zM-347.33-92.822h3.706v3.793h-3.706z" style="fill:#ececec;stroke:#666;stroke-width:.264583;stroke-linejoin:round" transform="translate(-22.389646,-276.63943) matrix(0,-1,-1,0,0,0)"/><path d="M52.94 349.585q-7.959-11.036 0-24.617M101.296 349.495q7.959-10.973 0-24.476M92.497 306.43q-13.741-4.32-30.65 0" style="fill:#d7e3f4;stroke:#00f;stroke-width:.264583;stroke-linejoin:round" transform="translate(-22.389646,-276.63943)"/><path d="M78.008 303.807v-6.794" style="fill:#338000;stroke:#acf;stroke-width:.264583;stroke-linejoin:round;marker-start:url(#f)" transform="translate(-22.389646,-276.63943)"/><path d="M78.004 306.955v6.794" style="fill:#338000;stroke:#acf;stroke-width:.264583;stroke-linejoin:round;marker-start:url(#g)" transform="translate(-22.389646,-276.63943)"/><path d="M105.586 337.835h6.793" style="fill:#338000;stroke:#acf;stroke-width:.264583;stroke-linejoin:round;marker-start:url(#h)" transform="translate(-22.389646,-276.63943)"/><path d="M101.267 337.831h-6.794" style="fill:#338000;stroke:#acf;stroke-width:.264583;stroke-linejoin:round;marker-start:url(#i)" transform="translate(-22.389646,-276.63943)"/><text xml:space="preserve" style="font-size:16px;line-height:normal;font-family:&quot;Liberation Mono&quot;;-inkscape-font-specification:&quot;Liberation Mono&quot;;text-decoration-color:#000;white-space:pre;shape-inside:url(#j);display:inline;fill:#000;stroke-width:1;-inkscape-stroke:none;stop-color:#000" transform="translate(-22.389646,-276.63943) matrix(0.26458333,0,0,0.26458333,36.152465,42.340321)"><tspan x="272.764" y="1114.076">Cf1</tspan></text><text xml:space="preserve" style="font-size:16px;line-height:normal;font-family:&quot;Liberation Mono&quot;;-inkscape-font-specification:&quot;Liberation Mono&quot;;text-decoration-color:#000;white-space:pre;shape-inside:url(#k);display:inline;fill:#000;stroke-width:1;-inkscape-stroke:none;stop-color:#000" transform="translate(-22.389646,-276.63943) matrix(0.26458333,0,0,0.26458333,6.3640271,4.5142166)"><tspan x="272.764" y="1114.076">Cf3</tspan></text><path d="m93.207 305.88 4.152-10.117" style="fill:#338000;stroke:#ff80b2;stroke-width:.264583;stroke-linejoin:round;marker-start:url(#l)" transform="translate(-22.389646,-276.63943)"/><text xml:space="preserve" style="font-size:16px;line-height:normal;font-family:&quot;Liberation Mono&quot;;-inkscape-font-specification:&quot;Liberation Mono&quot;;text-decoration-color:#000;white-space:pre;shape-inside:url(#m);display:inline;fill:#000;stroke-width:1;-inkscape-stroke:none;stop-color:#000" transform="translate(-22.389646,-276.63943) matrix(0.26458333,0,0,0.26458333,78.65673,124.12305)"><tspan x="57.211" y="645.356">Rf3</tspan></text><path d="m61.357 306.089-4.151-10.117" style="fill:#338000;stroke:#ff80b2;stroke-width:.264583;stroke-linejoin:round;marker-start:url(#n)" transform="translate(-22.389646,-276.63943)"/><text xml:space="preserve" style="font-size:16px;line-height:normal;font-family:&quot;Liberation Mono&quot;;-inkscape-font-specification:&quot;Liberation Mono&quot;;text-decoration-color:#000;white-space:pre;shape-inside:url(#o);display:inline;fill:#000;stroke-width:1;-inkscape-stroke:none;stop-color:#000" transform="translate(-22.389646,-276.63943) matrix(0.26458333,0,0,0.26458333,38.278173,124.80885)"><tspan x="57.211" y="645.356">Rf3</tspan></text><path d="M48.982 349.579v16.353M64.953 349.446V365.8M89.03 349.446V365.8M105 349.446V365.8" style="fill:none;stroke:#b3b3b3;stroke-width:.264583;stroke-linejoin:round" transform="translate(-22.389646,-276.63943)"/><path d="M64.781 365.932H49.033" style="fill:#338000;stroke:#f55;stroke-width:.264583;stroke-linejoin:round;marker-start:url(#p);marker-end:url(#p)" transform="translate(-22.389646,-276.63943)"/><path d="M88.522 362.372H65.196" style="fill:#338000;stroke:#f55;stroke-width:.264582;stroke-linejoin:round;marker-start:url(#q);marker-end:url(#q)" transform="translate(-22.389646,-276.63943)"/><path d="M104.778 365.8H89.03" style="fill:#338000;stroke:#f55;stroke-width:.264583;stroke-linejoin:round;marker-start:url(#r);marker-end:url(#r)" transform="translate(-22.389646,-276.63943)"/><text xml:space="preserve" style="font-size:16px;line-height:normal;font-family:&quot;Liberation Mono&quot;;-inkscape-font-specification:&quot;Liberation Mono&quot;;text-decoration-color:#000;white-space:pre;shape-inside:url(#s);display:inline;fill:#000;stroke-width:1;-inkscape-stroke:none;stop-color:#000" transform="translate(-22.389646,-276.63943) matrix(0.26458333,0,0,0.26458333,-73.055099,198.21317)"><tspan x="479.566" y="648.711">Wt1</tspan></text><text xml:space="preserve" style="font-size:16px;line-height:normal;font-family:&quot;Liberation Mono&quot;;-inkscape-font-specification:&quot;Liberation Mono&quot;;text-decoration-color:#000;white-space:pre;shape-inside:url(#t);display:inline;fill:#000;stroke-width:1;-inkscape-stroke:none;stop-color:#000" transform="translate(-22.389646,-276.63943) matrix(0.26458333,0,0,0.26458333,0.20727146,115.12219)"><tspan x="276.143" y="949.879">Wt2</tspan></text><text xml:space="preserve" style="font-size:16px;line-height:normal;font-family:&quot;Liberation Mono&quot;;-inkscape-font-specification:&quot;Liberation Mono&quot;;text-decoration-color:#000;white-space:pre;shape-inside:url(#u);display:inline;fill:#000;stroke-width:1;-inkscape-stroke:none;stop-color:#000" transform="translate(-22.389646,-276.63943) matrix(0.26458333,0,0,0.26458333,-32.41235,197.86856)"><tspan x="479.566" y="648.711">Wt1</tspan></text><path d="M105 349.446h26.591M32.475 349.515h16.353M105 304.035h26.591" style="fill:none;stroke:#b3b3b3;stroke-width:.264583;stroke-linejoin:round" transform="translate(-22.389646,-276.63943)"/><path d="M131.408 304.266v44.564" style="fill:#338000;stroke:#f55;stroke-width:.264581;stroke-linejoin:round;marker-start:url(#v);marker-end:url(#v)" transform="translate(-22.389646,-276.63943)"/><path d="M32.628 331.926h16.354" style="fill:none;stroke:#b3b3b3;stroke-width:.264583;stroke-linejoin:round" transform="translate(-22.389646,-276.63943)"/><path d="M37.596 345.097v-13.09" style="fill:#338000;stroke:green;stroke-width:.264583;stroke-linejoin:round;marker-start:url(#w);marker-end:url(#w)" transform="translate(-22.389646,-276.63943)"/><path d="M32.475 345.477h23.123" style="fill:none;stroke:#b3b3b3;stroke-width:.264583;stroke-linejoin:round" transform="translate(-22.389646,-276.63943)"/><path d="M44.037 349.337v-3.506" style="fill:#338000;stroke:#d4aa00;stroke-width:.264583;stroke-linejoin:round;marker-start:url(#x);marker-end:url(#x)" transform="translate(-22.389646,-276.63943)"/><text xml:space="preserve" style="font-size:16px;line-height:normal;font-family:&quot;Liberation Mono&quot;;-inkscape-font-specification:&quot;Liberation Mono&quot;;text-decoration-color:#000;white-space:pre;shape-inside:url(#y);display:inline;fill:#000;stroke-width:1;-inkscape-stroke:none;stop-color:#000" transform="translate(-22.389646,-276.63943) matrix(0.26458333,0,0,0.26458333,-53.331095,225.90129)"><tspan x="329.498" y="464.549">HW1</tspan></text><text xml:space="preserve" style="font-size:16px;line-height:normal;font-family:&quot;Liberation Mono&quot;;-inkscape-font-specification:&quot;Liberation Mono&quot;;text-decoration-color:#000;white-space:pre;shape-inside:url(#z);display:inline;fill:#000;stroke-width:1;-inkscape-stroke:none;stop-color:#000" transform="translate(-22.389646,-276.63943) matrix(0.26458333,0,0,0.26458333,-2.4150145,28.149261)"><tspan x="508.701" y="1116.051">HF1
</tspan><tspan x="508.701" y="1136.051">+HF3
</tspan><tspan x="508.701" y="1156.051">+HF4</tspan></text><path d="M55.598 353.851v8.521M61.16 353.72v8.52" style="fill:none;stroke:#b3b3b3;stroke-width:.264583;stroke-linejoin:round" transform="translate(-22.389646,-276.63943)"/><path d="M61.064 358.112h-5.37" style="fill:#338000;stroke:teal;stroke-width:.264582;stroke-linejoin:round;marker-start:url(#A);marker-end:url(#A)" transform="translate(-22.389646,-276.63943)"/><path d="M64.953 356.855H61.49" style="fill:#338000;stroke:teal;stroke-width:.264582;stroke-linejoin:round;marker-start:url(#B);marker-end:url(#B)" transform="translate(-22.389646,-276.63943)"/><text xml:space="preserve" style="font-size:16px;line-height:normal;font-family:&quot;Liberation Mono&quot;;-inkscape-font-specification:&quot;Liberation Mono&quot;;text-decoration-color:#000;white-space:pre;shape-inside:url(#C);display:inline;fill:teal;stroke-width:1;-inkscape-stroke:none;stop-color:#000" transform="translate(-22.389646,-276.63943) matrix(0.26458333,0,0,0.26458333,-15.503235,10.029228)"><tspan x="266.363" y="1329.471">WW2</tspan></text><text xml:space="preserve" style="font-size:16px;line-height:normal;font-family:&quot;Liberation Mono&quot;;-inkscape-font-specification:&quot;Liberation Mono&quot;;text-decoration-color:#000;white-space:pre;shape-inside:url(#D);display:inline;fill:teal;stroke-width:1;-inkscape-stroke:none;stop-color:#000" transform="translate(-22.389646,-276.63943) matrix(0.26458333,0,0,0.26458333,-25.616742,5.3938706)"><tspan x="344.018" y="1333.004">WW1</tspan></text><path d="m60.6 336.948 1.855-10.282" style="fill:teal;stroke:green;stroke-width:.264583;stroke-linejoin:round;marker-start:url(#E)" transform="translate(-22.389646,-276.63943)"/><path d="m63.48 343.155 5.6-13.727" style="fill:teal;stroke:green;stroke-width:.264583;stroke-linejoin:round;marker-start:url(#F)" transform="translate(-22.389646,-276.63943)"/><text xml:space="preserve" style="font-size:16px;line-height:normal;font-family:&quot;Liberation Mono&quot;;-inkscape-font-specification:&quot;Liberation Mono&quot;;text-decoration-color:#000;white-space:pre;shape-inside:url(#G);display:inline;fill:green;stroke-width:1;-inkscape-stroke:none;stop-color:#000" transform="translate(-22.389646,-276.63943) matrix(0.26458333,0,0,0.26458333,-8.0023838,35.312995)"><tspan x="252.6" y="1100.762">DW2</tspan></text><path d="m52.84 349.446.1-24.478 8.906-18.539h30.65l8.8 18.59.036 24.427" style="fill:none;stroke:#ccc;stroke-width:.264583;stroke-linejoin:round" transform="translate(-22.389646,-276.63943)"/><path d="m51.47 325.177-9.868-5.491" style="fill:#338000;stroke:#ff80b2;stroke-width:.264583;stroke-linejoin:round;marker-start:url(#H)" transform="translate(-22.389646,-276.63943)"/><text xml:space="preserve" style="font-size:16px;line-height:normal;font-family:&quot;Liberation Mono&quot;;-inkscape-font-specification:&quot;Liberation Mono&quot;;text-decoration-color:#000;white-space:pre;shape-inside:url(#I);display:inline;fill:#000;stroke-width:1;-inkscape-stroke:none;stop-color:#000" transform="translate(-22.389646,-276.63943) matrix(0.26458333,0,0,0.26458333,18.576428,149.28665)"><tspan x="57.211" y="645.356">Rf2</tspan></text><path d="M52.94 324.968c.514-7.816 4.391-13.39 8.906-18.539M101.296 325.02c-.514-7.817-4.391-13.39-8.907-18.54" style="fill:#d7e3f4;stroke:#00f;stroke-width:.264583;stroke-linejoin:round" transform="translate(-22.389646,-276.63943)"/><path d="m51.646 350.509-13.11 9.902" style="fill:#338000;stroke:#ff80b2;stroke-width:.264582;stroke-linejoin:round;marker-start:url(#J)" transform="translate(-22.389646,-276.63943)"/><text xml:space="preserve" style="font-size:16px;line-height:normal;font-family:&quot;Liberation Mono&quot;;-inkscape-font-specification:&quot;Liberation Mono&quot;;text-decoration-color:#000;white-space:pre;shape-inside:url(#K);display:inline;fill:#000;stroke-width:1;-inkscape-stroke:none;stop-color:#000" transform="translate(-22.389646,-276.63943) matrix(0.26458333,0,0,0.26458333,15.361327,191.08723)"><tspan x="57.211" y="645.356">Rf1</tspan></text><path d="M62.07 280.985v25.338" style="fill:none;stroke:#b3b3b3;stroke-width:.264583;stroke-linejoin:round" transform="translate(-22.389646,-276.63943)"/><path d="M52.94 280.985v43.983" style="fill:none;stroke:#b3b3b3;stroke-width:.264584;stroke-linejoin:round" transform="translate(-22.389646,-276.63943)"/><path d="M61.676 286.635h-8.619" style="fill:#338000;stroke:#f55;stroke-width:.264583;stroke-linejoin:round;marker-start:url(#L);marker-end:url(#L)" transform="translate(-22.389646,-276.63943)"/><text xml:space="preserve" style="font-size:16px;line-height:normal;font-family:&quot;Liberation Mono&quot;;-inkscape-font-specification:&quot;Liberation Mono&quot;;text-decoration-color:#000;white-space:pre;shape-inside:url(#M);fill:#000;stroke-width:1;-inkscape-stroke:none;stop-color:#000" transform="translate(-22.389646,-276.63943) matrix(0.26458333,0,0,0.26458333,-62.031659,15.478669)"><tspan x="437.434" y="1020.172">Wf2</tspan></text><text xml:space="preserve" style="font-size:16px;line-height:normal;font-family:&quot;Liberation Mono&quot;;-inkscape-font-specification:&quot;Liberation Mono&quot;;text-decoration-color:#000;white-space:pre;shape-inside:url(#N);display:inline;fill:#000;stroke-width:1;-inkscape-stroke:none;stop-color:#000" transform="translate(-22.389646,-276.63943) matrix(0.26458333,0,0,0.26458333,4.5262018,68.916575)"><tspan x="437.434" y="1020.172">Wf1</tspan></text><path d="M101.428 325.16H121.6" style="fill:none;stroke:#b3b3b3;stroke-width:.264583;stroke-linejoin:round" transform="translate(-22.389646,-276.63943)"/><path d="M118.954 325.045v24.206" style="fill:#338000;stroke:#f55;stroke-width:.264581;stroke-linejoin:round;marker-start:url(#O);marker-end:url(#O)" transform="translate(-22.389646,-276.63943)"/><path d="m99.27 353.784 18.62 5.462" style="fill:#338000;stroke:teal;stroke-width:.264583;stroke-linejoin:round;marker-start:url(#P)" transform="translate(-22.389646,-276.63943)"/><text xml:space="preserve" style="font-size:16px;line-height:normal;font-family:&quot;Liberation Mono&quot;;-inkscape-font-specification:&quot;Liberation Mono&quot;;text-decoration-color:#000;white-space:pre;shape-inside:url(#Q);display:inline;fill:teal;stroke-width:1;-inkscape-stroke:none;stop-color:#000" transform="translate(-22.389646,-276.63943) matrix(0.26458333,0,0,0.26458333,2.6444557,90.726955)"><tspan x="437.434" y="1020.172">RW2</tspan></text></svg>