<svg xmlns="http://www.w3.org/2000/svg" width="584.557" height="443.127" viewBox="0 0 154.664 117.244"><defs><path id="Y" d="M329.497 450.312h55.231v24.557h-55.231z"/><path id="V" d="M285.408 574.001h61.796v36.313h-61.796z"/><path id="U" d="M196.855 560.623h60.522v39.498h-60.522z"/><path id="T" d="M235.716 271.392h68.804v37.587h-68.804z"/><path id="S" d="M286.682 293.053h45.869v33.128h-45.869z"/><path id="R" d="M212.145 268.207h50.966v32.491h-50.966z"/><path id="Q" d="M138.882 285.408h58.611v34.402h-58.611z"/><path id="I" d="M187.849 250.465h57.661v38.291h-57.661z"/><path id="A" d="M313.082 43.696h43.696v34.687h-43.696z"/><path id="z" d="M224.788 31.083h54.958v40.092h-54.958z"/><path id="y" d="M541.474 80.635h43.696v31.533h-43.696z"/><path id="x" d="M474.353 40.993h49.102v31.984h-49.102z"/><path id="w" d="M402.276 41.444h51.805v32.885h-51.805z"/><path id="v" d="M431.557 95.952h62.616v24.776h-62.616z"/><path id="s" d="M101.808 599.135H207.22v49.553H101.808z"/><path id="r" d="M257.673 583.819h78.383v46.85h-78.383z"/><path id="p" d="M115.322 550.483h74.779v56.76h-74.779z"/><path id="o" d="M255.466 355.486h41.728v26.757h-41.728z"/><path id="m" d="M240.813 440.853h39.498v26.12h-39.498z"/><path id="n" d="M240.813 440.853h39.498v26.12h-39.498z"/><path id="q" d="M115.322 550.483h74.779v56.76h-74.779z"/><path id="t" d="M101.808 599.135H207.22v49.553H101.808z"/><path id="u" d="M101.808 599.135H207.22v49.553H101.808z"/><path id="J" d="M187.849 250.465h57.661v38.291h-57.661z"/><path id="K" d="M187.849 250.465h57.661v38.291h-57.661z"/><path id="L" d="M187.849 250.465h57.661v38.291h-57.661z"/><marker id="a" markerHeight="1" markerWidth="1" orient="auto-start-reverse" preserveAspectRatio="xMidYMid" refX="0" refY="0" style="overflow:visible" viewBox="0 0 1 1"><path d="M3-3 0 0l3 3" style="fill:none;stroke:context-stroke;stroke-width:1;stroke-linecap:butt" transform="rotate(180 .125 0)"/></marker><marker id="b" markerHeight="1" markerWidth="1" orient="auto-start-reverse" preserveAspectRatio="xMidYMid" refX="0" refY="0" style="overflow:visible" viewBox="0 0 1 1"><path d="M3-3 0 0l3 3" style="fill:none;stroke:context-stroke;stroke-width:1;stroke-linecap:butt" transform="rotate(180 .125 0)"/></marker><marker id="c" markerHeight="1" markerWidth="1" orient="auto-start-reverse" preserveAspectRatio="xMidYMid" refX="0" refY="0" style="overflow:visible" viewBox="0 0 1 1"><path d="M3-3 0 0l3 3" style="fill:none;stroke:context-stroke;stroke-width:1;stroke-linecap:butt" transform="rotate(180 .125 0)"/></marker><marker id="d" markerHeight="1" markerWidth="1" orient="auto-start-reverse" preserveAspectRatio="xMidYMid" refX="0" refY="0" style="overflow:visible" viewBox="0 0 1 1"><path d="M3-3 0 0l3 3" style="fill:none;stroke:context-stroke;stroke-width:1;stroke-linecap:butt" transform="rotate(180 .125 0)"/></marker><marker id="e" markerHeight="1" markerWidth="1" orient="auto-start-reverse" preserveAspectRatio="xMidYMid" refX="0" refY="0" style="overflow:visible" viewBox="0 0 1 1"><path d="M3-3 0 0l3 3" style="fill:none;stroke:context-stroke;stroke-width:1;stroke-linecap:butt" transform="rotate(180 .125 0)"/></marker><marker id="f" markerHeight="1" markerWidth="1" orient="auto-start-reverse" preserveAspectRatio="xMidYMid" refX="0" refY="0" style="overflow:visible" viewBox="0 0 1 1"><path d="M3-3 0 0l3 3" style="fill:none;stroke:context-stroke;stroke-width:1;stroke-linecap:butt" transform="rotate(180 .125 0)"/></marker><marker id="g" markerHeight="1" markerWidth="1" orient="auto-start-reverse" preserveAspectRatio="xMidYMid" refX="0" refY="0" style="overflow:visible" viewBox="0 0 1 1"><path d="M3-3 0 0l3 3" style="fill:none;stroke:context-stroke;stroke-width:1;stroke-linecap:butt" transform="rotate(180 .125 0)"/></marker><marker id="h" markerHeight="1" markerWidth="1" orient="auto-start-reverse" preserveAspectRatio="xMidYMid" refX="0" refY="0" style="overflow:visible" viewBox="0 0 1 1"><path d="M3-3 0 0l3 3" style="fill:none;stroke:context-stroke;stroke-width:1;stroke-linecap:butt" transform="rotate(180 .125 0)"/></marker><marker id="i" markerHeight="1" markerWidth="1" orient="auto-start-reverse" preserveAspectRatio="xMidYMid" refX="0" refY="0" style="overflow:visible" viewBox="0 0 1 1"><path d="M3-3 0 0l3 3" style="fill:none;stroke:context-stroke;stroke-width:1;stroke-linecap:butt" transform="rotate(180 .125 0)"/></marker><marker id="j" markerHeight="1" markerWidth="1" orient="auto-start-reverse" preserveAspectRatio="xMidYMid" refX="0" refY="0" style="overflow:visible" viewBox="0 0 1 1"><path d="M3-3 0 0l3 3" style="fill:none;stroke:context-stroke;stroke-width:1;stroke-linecap:butt" transform="rotate(180 .125 0)"/></marker><marker id="k" markerHeight="1" markerWidth="1" orient="auto-start-reverse" preserveAspectRatio="xMidYMid" refX="0" refY="0" style="overflow:visible" viewBox="0 0 1 1"><path d="M3-3 0 0l3 3" style="fill:none;stroke:context-stroke;stroke-width:1;stroke-linecap:butt" transform="rotate(180 .125 0)"/></marker><marker id="l" markerHeight="1" markerWidth="1" orient="auto-start-reverse" preserveAspectRatio="xMidYMid" refX="0" refY="0" style="overflow:visible" viewBox="0 0 1 1"><path d="M3-3 0 0l3 3" style="fill:none;stroke:context-stroke;stroke-width:1;stroke-linecap:butt" transform="rotate(180 .125 0)"/></marker><marker id="B" markerHeight="1" markerWidth="1" orient="auto-start-reverse" preserveAspectRatio="xMidYMid" refX="0" refY="0" style="overflow:visible" viewBox="0 0 1 1"><path d="M3-3 0 0l3 3" style="fill:none;stroke:context-stroke;stroke-width:1;stroke-linecap:butt" transform="rotate(180 .125 0)"/></marker><marker id="C" markerHeight="1" markerWidth="1" orient="auto-start-reverse" preserveAspectRatio="xMidYMid" refX="0" refY="0" style="overflow:visible" viewBox="0 0 1 1"><path d="M3-3 0 0l3 3" style="fill:none;stroke:context-stroke;stroke-width:1;stroke-linecap:butt" transform="rotate(180 .125 0)"/></marker><marker id="D" markerHeight="1" markerWidth="1" orient="auto-start-reverse" preserveAspectRatio="xMidYMid" refX="0" refY="0" style="overflow:visible" viewBox="0 0 1 1"><path d="M3-3 0 0l3 3" style="fill:none;stroke:context-stroke;stroke-width:1;stroke-linecap:butt" transform="rotate(180 .125 0)"/></marker><marker id="E" markerHeight="1" markerWidth="1" orient="auto-start-reverse" preserveAspectRatio="xMidYMid" refX="0" refY="0" style="overflow:visible" viewBox="0 0 1 1"><path d="M3-3 0 0l3 3" style="fill:none;stroke:context-stroke;stroke-width:1;stroke-linecap:butt" transform="rotate(180 .125 0)"/></marker><marker id="F" markerHeight="1" markerWidth="1" orient="auto-start-reverse" preserveAspectRatio="xMidYMid" refX="0" refY="0" style="overflow:visible" viewBox="0 0 1 1"><path d="M3-3 0 0l3 3" style="fill:none;stroke:context-stroke;stroke-width:1;stroke-linecap:butt" transform="rotate(180 .125 0)"/></marker><marker id="G" markerHeight="1" markerWidth="1" orient="auto-start-reverse" preserveAspectRatio="xMidYMid" refX="0" refY="0" style="overflow:visible" viewBox="0 0 1 1"><path d="M3-3 0 0l3 3" style="fill:none;stroke:context-stroke;stroke-width:1;stroke-linecap:butt" transform="rotate(180 .125 0)"/></marker><marker id="H" markerHeight="1" markerWidth="1" orient="auto-start-reverse" preserveAspectRatio="xMidYMid" refX="0" refY="0" style="overflow:visible" viewBox="0 0 1 1"><path d="M3-3 0 0l3 3" style="fill:none;stroke:context-stroke;stroke-width:1;stroke-linecap:butt" transform="rotate(180 .125 0)"/></marker><marker id="M" markerHeight="1" markerWidth="1" orient="auto-start-reverse" preserveAspectRatio="xMidYMid" refX="0" refY="0" style="overflow:visible" viewBox="0 0 1 1"><path d="M3-3 0 0l3 3" style="fill:none;stroke:context-stroke;stroke-width:1;stroke-linecap:butt" transform="rotate(180 .125 0)"/></marker><marker id="N" markerHeight="1" markerWidth="1" orient="auto-start-reverse" preserveAspectRatio="xMidYMid" refX="0" refY="0" style="overflow:visible" viewBox="0 0 1 1"><path d="M3-3 0 0l3 3" style="fill:none;stroke:context-stroke;stroke-width:1;stroke-linecap:butt" transform="rotate(180 .125 0)"/></marker><marker id="O" markerHeight="1" markerWidth="1" orient="auto-start-reverse" preserveAspectRatio="xMidYMid" refX="0" refY="0" style="overflow:visible" viewBox="0 0 1 1"><path d="M3-3 0 0l3 3" style="fill:none;stroke:context-stroke;stroke-width:1;stroke-linecap:butt" transform="rotate(180 .125 0)"/></marker><marker id="P" markerHeight="1" markerWidth="1" orient="auto-start-reverse" preserveAspectRatio="xMidYMid" refX="0" refY="0" style="overflow:visible" viewBox="0 0 1 1"><path d="M3-3 0 0l3 3" style="fill:none;stroke:context-stroke;stroke-width:1;stroke-linecap:butt" transform="rotate(180 .125 0)"/></marker><marker id="X" markerHeight="1" markerWidth="1" orient="auto-start-reverse" preserveAspectRatio="xMidYMid" refX="0" refY="0" style="overflow:visible" viewBox="0 0 1 1"><path d="M3-3 0 0l3 3" style="fill:none;stroke:context-stroke;stroke-width:1;stroke-linecap:butt" transform="rotate(180 .125 0)"/></marker><marker id="W" markerHeight="1" markerWidth="1" orient="auto-start-reverse" preserveAspectRatio="xMidYMid" refX="0" refY="0" style="overflow:visible" viewBox="0 0 1 1"><path d="M3-3 0 0l3 3" style="fill:none;stroke:context-stroke;stroke-width:1;stroke-linecap:butt" transform="rotate(180 .125 0)"/></marker></defs><g transform="translate(-2.565 -20.432)"><path d="M2.697 20.564h154.4v116.98H2.697z" style="fill:#fff;stroke:#fff;stroke-width:.264583;stroke-linejoin:round"/><path d="M137.827 85.84c-9.773-7.012-20.217-12.01-31.893-13.312-3.06-6.877-5.394-13.82-15.201-20.085-16.623-3.482-33.416-4.74-50.67 0-9.718 6.246-13.59 14.618-16.394 23.377" style="fill:#d5e5ff;stroke:#00f;stroke-width:.264583;stroke-linejoin:round"/><path d="m137.951 105.125-16.247-.118s.268-1.597.21-2.396c-.157-2.128-.527-4.32-1.482-6.227-.967-1.932-2.356-3.773-4.147-4.98-2.38-1.602-5.332-2.75-8.197-2.619-3.587.163-7.401 1.638-9.921 4.196-1.46 1.482-2.645 3.423-3.267 5.478-.414 1.367-.599 2.752-.638 4.152-.024.834.24 2.49.24 2.49l-34.21-.016c.224-2.483.335-2.51.166-3.75-.277-2.03-.903-4.394-1.908-5.838-1.223-1.758-2.857-3.59-4.784-4.773-2.161-1.327-4.674-1.905-7.076-1.948-2.558-.045-5.315.783-7.574 2.26-1.494.976-2.701 2.291-3.738 3.628-2.195 2.829-3.234 6.952-2.437 10.46h-9.272V75.82l16.393-23.377h50.67l15.202 20.085 31.893 13.311Z" style="fill:#f9f9f9;stroke:purple;stroke-width:.264583;stroke-linejoin:round"/><path d="M150.848 72.528h-44.914" style="fill:none;stroke:#b3b3b3;stroke-width:.264583;stroke-linejoin:round"/><circle cx="-108.088" cy="102.611" r="13.826" style="fill:none;stroke:#e6e6e6;stroke-width:.264583;stroke-linejoin:round" transform="scale(-1 1)"/><circle cx="-46.69" cy="102.602" r="13.826" style="fill:none;stroke:#e6e6e6;stroke-width:.264583;stroke-linejoin:round" transform="scale(-1 1)"/><circle cx="-108.054" cy="102.502" r="10.965" style="fill:#f2f2f2;stroke:#666;stroke-width:.264583;stroke-linejoin:round" transform="scale(-1 1)"/><circle cx="-46.475" cy="102.602" r="10.965" style="fill:#f2f2f2;stroke:#666;stroke-width:.264583;stroke-linejoin:round" transform="scale(-1 1)"/><path d="M46.558 102.602v25.115M108.187 102.611v25.115M23.669 105.257v22.46M137.951 105.125v22.46" style="fill:none;stroke:#b3b3b3;stroke-width:.264583;stroke-linejoin:round"/><path d="m137.95 126.527-29.464.14" style="fill:none;stroke:#f55;stroke-width:.264583;stroke-linejoin:round;marker-start:url(#a);marker-end:url(#a)"/><path d="m107.8 127.197-60.854.141" style="fill:none;stroke:#f55;stroke-width:.264583;stroke-linejoin:round;marker-start:url(#b);marker-end:url(#b)"/><path d="m46.19 126.659-22.078.141" style="fill:none;stroke:#f55;stroke-width:.264583;stroke-linejoin:round;marker-start:url(#c);marker-end:url(#c)"/><path d="M23.669 105.125H10.647M23.669 75.82H10.647M150.973 105.125H137.95M150.848 85.84h-13.021M150.848 49.268H10.638" style="fill:none;stroke:#b3b3b3;stroke-width:.264583;stroke-linejoin:round"/><path d="m15.41 75.943.141 28.864" style="fill:none;stroke:#666;stroke-width:.264583;stroke-linejoin:round;marker-start:url(#d);marker-end:url(#d)"/><path d="m13.822 49.6.142 25.819" style="fill:none;stroke:#f55;stroke-width:.264583;stroke-linejoin:round;marker-start:url(#e);marker-end:url(#e)"/><path d="m144.656 85.84.141 18.899" style="fill:none;stroke:#f55;stroke-width:.264583;stroke-linejoin:round;marker-start:url(#f);marker-end:url(#f)"/><path d="m147.35 72.987.14 12.525" style="fill:none;stroke:#f55;stroke-width:.264583;stroke-linejoin:round;marker-start:url(#g);marker-end:url(#g)"/><path d="m144.267 49.662.14 22.663" style="fill:none;stroke:#f55;stroke-width:.264583;stroke-linejoin:round;marker-start:url(#h);marker-end:url(#h)"/><path d="M39.93 30.115v22.46" style="fill:none;stroke:#b3b3b3;stroke-width:.264583;stroke-linejoin:round"/><path d="M23.669 30.115v45.573" style="fill:none;stroke:#b3b3b3;stroke-width:.264584;stroke-linejoin:round"/><path d="m23.737 31.173 15.739-.141" style="fill:none;stroke:#f55;stroke-width:.264583;stroke-linejoin:round;marker-start:url(#i);marker-end:url(#i)"/><path d="M90.865 29.85v22.46" style="fill:none;stroke:#b3b3b3;stroke-width:.264583;stroke-linejoin:round"/><path d="m39.827 31.138 50.808-.142" style="fill:none;stroke:#666;stroke-width:.264583;stroke-linejoin:round;marker-start:url(#j);marker-end:url(#j)"/><path d="M106.066 29.85v42.81M137.827 29.85v55.99" style="fill:none;stroke:#b3b3b3;stroke-width:.264584;stroke-linejoin:round"/><path d="m91.158 31.134 14.505-.141" style="fill:none;stroke:#f55;stroke-width:.264583;stroke-linejoin:round;marker-start:url(#k);marker-end:url(#k)"/><path d="m106.103 33.037 31.598-.141" style="fill:none;stroke:#f55;stroke-width:.264583;stroke-linejoin:round;marker-start:url(#l);marker-end:url(#l)"/><circle cx="-108.319" cy="102.611" r="2.071" style="fill:none;stroke:#666;stroke-width:.264583;stroke-linejoin:round" transform="scale(-1 1)"/><circle cx="-46.475" cy="102.602" r="2.071" style="fill:none;stroke:#666;stroke-width:.264583;stroke-linejoin:round" transform="scale(-1 1)"/><path d="m48.292 104.085 11.546 13.232" style="fill:#f2f2f2;stroke:#338000;stroke-width:.264583;stroke-linejoin:round;marker-start:url(#a)"/><path d="m56.467 108.299 7.754 3.118" style="fill:#f2f2f2;stroke:#338000;stroke-width:.264583;stroke-linejoin:round;marker-start:url(#a)"/><path d="m60.512 99.702 5.142-1.601" style="fill:#f2f2f2;stroke:#338000;stroke-width:.264583;stroke-linejoin:round;marker-start:url(#a)"/><text xml:space="preserve" style="font-size:16px;line-height:normal;font-family:&quot;Liberation Mono&quot;;-inkscape-font-specification:&quot;Liberation Mono&quot;;text-decoration-color:#000;white-space:pre;shape-inside:url(#m);display:inline;fill:#338000;stroke-width:1;-inkscape-stroke:none;stop-color:#000" transform="translate(-3.287 -1.264)scale(.26458)"><tspan x="240.813" y="455.09">DW1</tspan></text><text xml:space="preserve" style="font-size:16px;line-height:normal;font-family:&quot;Liberation Mono&quot;;-inkscape-font-specification:&quot;Liberation Mono&quot;;text-decoration-color:#000;white-space:pre;shape-inside:url(#n);display:inline;fill:#338000;stroke-width:1;-inkscape-stroke:none;stop-color:#000" transform="translate(.78 -7.633)scale(.26458)"><tspan x="240.813" y="455.09">DW2</tspan></text><text xml:space="preserve" style="font-size:16px;line-height:normal;font-family:&quot;Liberation Mono&quot;;-inkscape-font-specification:&quot;Liberation Mono&quot;;text-decoration-color:#000;white-space:pre;shape-inside:url(#o);display:inline;fill:#338000;stroke-width:1;-inkscape-stroke:none;stop-color:#000" transform="translate(-.927 1.011)scale(.26458)"><tspan x="255.465" y="369.723">DW3</tspan></text><text xml:space="preserve" style="font-size:16px;line-height:normal;font-family:&quot;Liberation Mono&quot;;-inkscape-font-specification:&quot;Liberation Mono&quot;;text-decoration-color:#000;white-space:pre;shape-inside:url(#p);display:inline;fill:#000;stroke-width:1;-inkscape-stroke:none;stop-color:#000" transform="translate(.477 -17.878)scale(.26458)"><tspan x="115.322" y="564.721">LB1</tspan></text><text xml:space="preserve" style="font-size:16px;line-height:normal;font-family:&quot;Liberation Mono&quot;;-inkscape-font-specification:&quot;Liberation Mono&quot;;text-decoration-color:#000;white-space:pre;shape-inside:url(#q);display:inline;fill:#000;stroke-width:1;-inkscape-stroke:none;stop-color:#000" transform="translate(42.064 -17.109)scale(.26458)"><tspan x="115.322" y="564.721">LB2</tspan></text><text xml:space="preserve" style="font-size:16px;line-height:normal;font-family:&quot;Liberation Mono&quot;;-inkscape-font-specification:&quot;Liberation Mono&quot;;text-decoration-color:#000;white-space:pre;shape-inside:url(#r);display:inline;fill:#000;stroke-width:1;-inkscape-stroke:none;stop-color:#000" transform="translate(51.251 -26.698)scale(.26458)"><tspan x="257.674" y="598.055">LB3</tspan></text><text xml:space="preserve" style="font-size:16px;line-height:normal;font-family:&quot;Liberation Mono&quot;;-inkscape-font-specification:&quot;Liberation Mono&quot;;text-decoration-color:#000;white-space:pre;shape-inside:url(#s);display:inline;fill:#000;stroke-width:1;-inkscape-stroke:none;stop-color:#000" transform="translate(.954 -132.776)scale(.26458)"><tspan x="101.809" y="613.371">LT1</tspan></text><text xml:space="preserve" style="font-size:16px;line-height:normal;font-family:&quot;Liberation Mono&quot;;-inkscape-font-specification:&quot;Liberation Mono&quot;;text-decoration-color:#000;white-space:pre;shape-inside:url(#t);display:inline;fill:#000;stroke-width:1;-inkscape-stroke:none;stop-color:#000" transform="translate(35.408 -132.984)scale(.26458)"><tspan x="101.809" y="613.371">LT2</tspan></text><text xml:space="preserve" style="font-size:16px;line-height:normal;font-family:&quot;Liberation Mono&quot;;-inkscape-font-specification:&quot;Liberation Mono&quot;;text-decoration-color:#000;white-space:pre;shape-inside:url(#u);display:inline;fill:#000;stroke-width:1;-inkscape-stroke:none;stop-color:#000" transform="translate(67.94 -132.42)scale(.26458)"><tspan x="101.809" y="613.371">LT3</tspan></text><text xml:space="preserve" style="font-size:16px;line-height:normal;font-family:&quot;Liberation Mono&quot;;-inkscape-font-specification:&quot;Liberation Mono&quot;;text-decoration-color:#000;white-space:pre;shape-inside:url(#v);display:inline;fill:#000;stroke-width:1;-inkscape-stroke:none;stop-color:#000" transform="translate(3.933 2.622)scale(.26458)"><tspan x="431.557" y="110.188">LT4</tspan></text><text xml:space="preserve" style="font-size:16px;line-height:normal;font-family:&quot;Liberation Mono&quot;;-inkscape-font-specification:&quot;Liberation Mono&quot;;text-decoration-color:#000;white-space:pre;shape-inside:url(#w);display:inline;fill:#000;stroke-width:1;-inkscape-stroke:none;stop-color:#000" transform="translate(38.927 82.479)scale(.26458)"><tspan x="402.275" y="55.68">HF1</tspan></text><text xml:space="preserve" style="font-size:16px;line-height:normal;font-family:&quot;Liberation Mono&quot;;-inkscape-font-specification:&quot;Liberation Mono&quot;;text-decoration-color:#000;white-space:pre;shape-inside:url(#x);display:inline;fill:#000;stroke-width:1;-inkscape-stroke:none;stop-color:#000" transform="translate(22.646 65.792)scale(.26458)"><tspan x="474.354" y="55.231">HF4</tspan></text><text xml:space="preserve" style="font-size:16px;line-height:normal;font-family:&quot;Liberation Mono&quot;;-inkscape-font-specification:&quot;Liberation Mono&quot;;text-decoration-color:#000;white-space:pre;shape-inside:url(#y);display:inline;fill:#000;stroke-width:1;-inkscape-stroke:none;stop-color:#000" transform="translate(1.907 37.783)scale(.26458)"><tspan x="541.475" y="94.871">HF3</tspan></text><text xml:space="preserve" style="font-size:16px;line-height:normal;font-family:&quot;Liberation Mono&quot;;-inkscape-font-specification:&quot;Liberation Mono&quot;;text-decoration-color:#000;white-space:pre;shape-inside:url(#z);display:inline;fill:#000;stroke-width:1;-inkscape-stroke:none;stop-color:#000" transform="translate(-53.754 53.516)scale(.26458)"><tspan x="224.789" y="45.318">HB1</tspan></text><text xml:space="preserve" style="font-size:16px;line-height:normal;font-family:&quot;Liberation Mono&quot;;-inkscape-font-specification:&quot;Liberation Mono&quot;;text-decoration-color:#000;white-space:pre;shape-inside:url(#A);display:inline;fill:#000;stroke-width:1;-inkscape-stroke:none;stop-color:#000" transform="translate(-75.742 76.162)scale(.26458)"><tspan x="313.082" y="57.934">HB2</tspan></text><path d="M65.315 48.867v-6.793" style="fill:#338000;stroke:#acf;stroke-width:.264583;stroke-linejoin:round;marker-start:url(#a)"/><path d="M65.312 53.194v6.793" style="fill:#338000;stroke:#acf;stroke-width:.264583;stroke-linejoin:round;marker-start:url(#B)"/><path d="m100.176 60.222 5.49-4" style="fill:#338000;stroke:#acf;stroke-width:.264583;stroke-linejoin:round;marker-start:url(#C)"/><path d="m97.273 62.29-5.491 4" style="fill:#338000;stroke:#acf;stroke-width:.264583;stroke-linejoin:round;marker-start:url(#D)"/><path d="m30.886 60.24-5.311-4.237" style="fill:#338000;stroke:#acf;stroke-width:.264583;stroke-linejoin:round;marker-start:url(#E)"/><path d="m33.55 62.582 5.311 4.237" style="fill:#338000;stroke:#acf;stroke-width:.264583;stroke-linejoin:round;marker-start:url(#F)"/><path d="m122.732 76.539 3.11-6.04" style="fill:#338000;stroke:#acf;stroke-width:.264583;stroke-linejoin:round;marker-start:url(#G)"/><path d="m121.345 79.43-3.11 6.04" style="fill:#338000;stroke:#acf;stroke-width:.264583;stroke-linejoin:round;marker-start:url(#H)"/><text xml:space="preserve" style="font-size:16px;line-height:normal;font-family:&quot;Liberation Mono&quot;;-inkscape-font-specification:&quot;Liberation Mono&quot;;text-decoration-color:#000;white-space:pre;shape-inside:url(#I);display:inline;fill:#000;stroke-width:1;-inkscape-stroke:none;stop-color:#000" transform="translate(-24.553 -12.872)scale(.26458)"><tspan x="187.85" y="264.701">C1</tspan></text><text xml:space="preserve" style="font-size:16px;line-height:normal;font-family:&quot;Liberation Mono&quot;;-inkscape-font-specification:&quot;Liberation Mono&quot;;text-decoration-color:#000;white-space:pre;shape-inside:url(#J);display:inline;fill:#000;stroke-width:1;-inkscape-stroke:none;stop-color:#000" transform="translate(15.937 -24.607)scale(.26458)"><tspan x="187.85" y="264.701">C2</tspan></text><text xml:space="preserve" style="font-size:16px;line-height:normal;font-family:&quot;Liberation Mono&quot;;-inkscape-font-specification:&quot;Liberation Mono&quot;;text-decoration-color:#000;white-space:pre;shape-inside:url(#K);display:inline;fill:#000;stroke-width:1;-inkscape-stroke:none;stop-color:#000" transform="translate(49.568 -13.368)scale(.26458)"><tspan x="187.85" y="264.701">C3</tspan></text><text xml:space="preserve" style="font-size:16px;line-height:normal;font-family:&quot;Liberation Mono&quot;;-inkscape-font-specification:&quot;Liberation Mono&quot;;text-decoration-color:#000;white-space:pre;shape-inside:url(#L);display:inline;fill:#000;stroke-width:1;-inkscape-stroke:none;stop-color:#000" transform="translate(73.388 -.434)scale(.26458)"><tspan x="187.85" y="264.701">C4</tspan></text><path d="m136.948 106.205-4.172 5.72" style="fill:#338000;stroke:#ff80b2;stroke-width:.264583;stroke-linejoin:round;marker-start:url(#a)"/><path d="m136.71 86.65-8.344 2.86" style="fill:#338000;stroke:#ff80b2;stroke-width:.264583;stroke-linejoin:round;marker-start:url(#a)"/><path d="m106.912 71.394 7.39-9.893" style="fill:#338000;stroke:#ff80b2;stroke-width:.264583;stroke-linejoin:round;marker-start:url(#a)"/><path d="m22.516 105.962-4.171 5.721" style="fill:#338000;stroke:#ff80b2;stroke-width:.264583;stroke-linejoin:round;marker-start:url(#M)"/><path d="m24.678 75.972 5.803 2.34" style="fill:#338000;stroke:#ff80b2;stroke-width:.264583;stroke-linejoin:round;marker-start:url(#N)"/><path d="m39.115 51.323-4.172-5.72" style="fill:#338000;stroke:#ff80b2;stroke-width:.264583;stroke-linejoin:round;marker-start:url(#O)"/><path d="m91.53 51.853 4.17-5.72" style="fill:#338000;stroke:#ff80b2;stroke-width:.264583;stroke-linejoin:round;marker-start:url(#P)"/><path d="m23.693 478.229-2.859-4.493h-1.86v4.493h-1.492v-10.54h3.766q1.82 0 2.773.758.954.75.954 2.157 0 1.164-.735 1.96-.726.797-1.953 1l3.125 4.665zm-.218-7.602q0-1.742-2.375-1.742h-2.125v3.672h2.187q1.117 0 1.711-.5.602-.5.602-1.43m10.625 5.188q0 1.203-.914 1.89-.907.68-2.516.68-1.61 0-2.453-.5-.836-.508-1.094-1.594l1.242-.242q.149.672.633.984.492.305 1.672.305 2.11 0 2.11-1.336 0-.5-.384-.805-.382-.312-1.171-.507-2.063-.508-2.618-.797t-.851-.72q-.297-.437-.297-1.085 0-1.148.828-1.797.828-.648 2.399-.648 1.375 0 2.195.523.82.516 1.023 1.508l-1.265.156q-.086-.562-.555-.851-.469-.29-1.398-.29-1.915 0-1.915 1.18 0 .469.32.75.329.281 1.048.453l.93.243q1.273.312 1.827.617.563.304.883.765.32.454.32 1.118m2.546 2.414v-1.133h3.43v-7.977q-.289.61-1.375 1.063-1.078.453-2.125.453v-1.156q1.156 0 2.18-.508 1.031-.508 1.437-1.281h1.297v9.406h2.758v1.133z" aria-label="Rs1" style="font-size:16px;font-family:&quot;Liberation Mono&quot;;-inkscape-font-specification:&quot;Liberation Mono&quot;;white-space:pre" transform="translate(8.94 -11.204)scale(.26458)"/><text xml:space="preserve" style="font-size:16px;line-height:normal;font-family:&quot;Liberation Mono&quot;;-inkscape-font-specification:&quot;Liberation Mono&quot;;text-decoration-color:#000;white-space:pre;shape-inside:url(#Q);display:inline;fill:#000;stroke-width:1;-inkscape-stroke:none;stop-color:#000" transform="translate(-5.562 .674)scale(.26458)"><tspan x="138.881" y="299.645">Rs2</tspan></text><text xml:space="preserve" style="font-size:16px;line-height:normal;font-family:&quot;Liberation Mono&quot;;-inkscape-font-specification:&quot;Liberation Mono&quot;;text-decoration-color:#000;white-space:pre;shape-inside:url(#R);display:inline;fill:#000;stroke-width:1;-inkscape-stroke:none;stop-color:#000" transform="translate(-29.16 -28.992)scale(.26458)"><tspan x="212.145" y="282.443">Rs3</tspan></text><text xml:space="preserve" style="font-size:16px;line-height:normal;font-family:&quot;Liberation Mono&quot;;-inkscape-font-specification:&quot;Liberation Mono&quot;;text-decoration-color:#000;white-space:pre;shape-inside:url(#S);display:inline;fill:#000;stroke-width:1;-inkscape-stroke:none;stop-color:#000" transform="translate(18.036 -35.566)scale(.26458)"><tspan x="286.682" y="307.289">Rs4</tspan></text><text xml:space="preserve" style="font-size:16px;line-height:normal;font-family:&quot;Liberation Mono&quot;;-inkscape-font-specification:&quot;Liberation Mono&quot;;text-decoration-color:#000;white-space:pre;shape-inside:url(#T);display:inline;fill:#000;stroke-width:1;-inkscape-stroke:none;stop-color:#000" transform="translate(48.376 -14.833)scale(.26458)"><tspan x="235.717" y="285.629">Rs5</tspan></text><text xml:space="preserve" style="font-size:16px;line-height:normal;font-family:&quot;Liberation Mono&quot;;-inkscape-font-specification:&quot;Liberation Mono&quot;;text-decoration-color:#000;white-space:pre;shape-inside:url(#U);display:inline;fill:#000;stroke-width:1;-inkscape-stroke:none;stop-color:#000" transform="translate(68.435 -60.175)scale(.26458)"><tspan x="196.855" y="574.859">Rs6</tspan></text><text xml:space="preserve" style="font-size:16px;line-height:normal;font-family:&quot;Liberation Mono&quot;;-inkscape-font-specification:&quot;Liberation Mono&quot;;text-decoration-color:#000;white-space:pre;shape-inside:url(#V);display:inline;fill:#000;stroke-width:1;-inkscape-stroke:none;stop-color:#000" transform="translate(49.893 -39.948)scale(.26458)"><tspan x="285.408" y="588.238">Rs7</tspan></text><path d="M108.088 102.743H80.81" style="fill:none;stroke:#b3b3b3;stroke-width:.264583;stroke-linejoin:round"/><path d="M87.183 102.456v-6.793" style="fill:#338000;stroke:#d4aa00;stroke-width:.264583;stroke-linejoin:round;marker-start:url(#W)"/><path d="M87.18 105.724v6.794" style="fill:#338000;stroke:#d4aa00;stroke-width:.264583;stroke-linejoin:round;marker-start:url(#X)"/><text xml:space="preserve" style="font-size:16px;line-height:normal;font-family:&quot;Liberation Mono&quot;;-inkscape-font-specification:&quot;Liberation Mono&quot;;text-decoration-color:#000;white-space:pre;shape-inside:url(#Y);display:inline;fill:#000;stroke-width:1;-inkscape-stroke:none;stop-color:#000" transform="translate(-4.164 -6.35)scale(.26458)"><tspan x="329.498" y="464.549">HW1</tspan></text></g></svg>