<svg xmlns="http://www.w3.org/2000/svg" width="507.337" height="305.349" viewBox="0 0 134.233 80.79"><defs><marker id="v" markerHeight="1" markerWidth="1" orient="auto-start-reverse" preserveAspectRatio="xMidYMid" refX="0" refY="0" style="overflow:visible" viewBox="0 0 1 1"><path d="M3-3 0 0l3 3" style="fill:none;stroke:context-stroke;stroke-width:1;stroke-linecap:butt" transform="rotate(180 .125 0)"/></marker><marker id="c" markerHeight="1" markerWidth="1" orient="auto-start-reverse" preserveAspectRatio="xMidYMid" refX="0" refY="0" style="overflow:visible" viewBox="0 0 1 1"><path d="M3-3 0 0l3 3" style="fill:none;stroke:context-stroke;stroke-width:1;stroke-linecap:butt" transform="rotate(180 .125 0)"/></marker><marker id="d" markerHeight="1" markerWidth="1" orient="auto-start-reverse" preserveAspectRatio="xMidYMid" refX="0" refY="0" style="overflow:visible" viewBox="0 0 1 1"><path d="M3-3 0 0l3 3" style="fill:none;stroke:context-stroke;stroke-width:1;stroke-linecap:butt" transform="rotate(180 .125 0)"/></marker><marker id="e" markerHeight="1" markerWidth="1" orient="auto-start-reverse" preserveAspectRatio="xMidYMid" refX="0" refY="0" style="overflow:visible" viewBox="0 0 1 1"><path d="M3-3 0 0l3 3" style="fill:none;stroke:context-stroke;stroke-width:1;stroke-linecap:butt" transform="rotate(180 .125 0)"/></marker><marker id="f" markerHeight="1" markerWidth="1" orient="auto-start-reverse" preserveAspectRatio="xMidYMid" refX="0" refY="0" style="overflow:visible" viewBox="0 0 1 1"><path d="M3-3 0 0l3 3" style="fill:none;stroke:context-stroke;stroke-width:1;stroke-linecap:butt" transform="rotate(180 .125 0)"/></marker><marker id="g" markerHeight="1" markerWidth="1" orient="auto-start-reverse" preserveAspectRatio="xMidYMid" refX="0" refY="0" style="overflow:visible" viewBox="0 0 1 1"><path d="M3-3 0 0l3 3" style="fill:none;stroke:context-stroke;stroke-width:1;stroke-linecap:butt" transform="rotate(180 .125 0)"/></marker><marker id="h" markerHeight="1" markerWidth="1" orient="auto-start-reverse" preserveAspectRatio="xMidYMid" refX="0" refY="0" style="overflow:visible" viewBox="0 0 1 1"><path d="M3-3 0 0l3 3" style="fill:none;stroke:context-stroke;stroke-width:1;stroke-linecap:butt" transform="rotate(180 .125 0)"/></marker><marker id="l" markerHeight="1" markerWidth="1" orient="auto-start-reverse" preserveAspectRatio="xMidYMid" refX="0" refY="0" style="overflow:visible" viewBox="0 0 1 1"><path d="M3-3 0 0l3 3" style="fill:none;stroke:context-stroke;stroke-width:1;stroke-linecap:butt" transform="rotate(180 .125 0)"/></marker><marker id="m" markerHeight="1" markerWidth="1" orient="auto-start-reverse" preserveAspectRatio="xMidYMid" refX="0" refY="0" style="overflow:visible" viewBox="0 0 1 1"><path d="M3-3 0 0l3 3" style="fill:none;stroke:context-stroke;stroke-width:1;stroke-linecap:butt" transform="rotate(180 .125 0)"/></marker><marker id="p" markerHeight="1" markerWidth="1" orient="auto-start-reverse" preserveAspectRatio="xMidYMid" refX="0" refY="0" style="overflow:visible" viewBox="0 0 1 1"><path d="M3-3 0 0l3 3" style="fill:none;stroke:context-stroke;stroke-width:1;stroke-linecap:butt" transform="rotate(180 .125 0)"/></marker><marker id="q" markerHeight="1" markerWidth="1" orient="auto-start-reverse" preserveAspectRatio="xMidYMid" refX="0" refY="0" style="overflow:visible" viewBox="0 0 1 1"><path d="M3-3 0 0l3 3" style="fill:none;stroke:context-stroke;stroke-width:1;stroke-linecap:butt" transform="rotate(180 .125 0)"/></marker><marker id="r" markerHeight="1" markerWidth="1" orient="auto-start-reverse" preserveAspectRatio="xMidYMid" refX="0" refY="0" style="overflow:visible" viewBox="0 0 1 1"><path d="M3-3 0 0l3 3" style="fill:none;stroke:context-stroke;stroke-width:1;stroke-linecap:butt" transform="rotate(180 .125 0)"/></marker><marker id="x" markerHeight="1" markerWidth="1" orient="auto-start-reverse" preserveAspectRatio="xMidYMid" refX="0" refY="0" style="overflow:visible" viewBox="0 0 1 1"><path d="M3-3 0 0l3 3" style="fill:none;stroke:context-stroke;stroke-width:1;stroke-linecap:butt" transform="rotate(180 .125 0)"/></marker><marker id="y" markerHeight="1" markerWidth="1" orient="auto-start-reverse" preserveAspectRatio="xMidYMid" refX="0" refY="0" style="overflow:visible" viewBox="0 0 1 1"><path d="M3-3 0 0l3 3" style="fill:none;stroke:context-stroke;stroke-width:1;stroke-linecap:butt" transform="rotate(180 .125 0)"/></marker><marker id="G" markerHeight="1" markerWidth="1" orient="auto-start-reverse" preserveAspectRatio="xMidYMid" refX="0" refY="0" style="overflow:visible" viewBox="0 0 1 1"><path d="M3-3 0 0l3 3" style="fill:none;stroke:context-stroke;stroke-width:1;stroke-linecap:butt" transform="rotate(180 .125 0)"/></marker><marker id="b" markerHeight="1" markerWidth="1" orient="auto-start-reverse" preserveAspectRatio="xMidYMid" refX="0" refY="0" style="overflow:visible" viewBox="0 0 1 1"><path d="M3-3 0 0l3 3" style="fill:none;stroke:context-stroke;stroke-width:1;stroke-linecap:butt" transform="rotate(180 .125 0)"/></marker><marker id="D" markerHeight="1" markerWidth="1" orient="auto-start-reverse" preserveAspectRatio="xMidYMid" refX="0" refY="0" style="overflow:visible" viewBox="0 0 1 1"><path d="M3-3 0 0l3 3" style="fill:none;stroke:context-stroke;stroke-width:1;stroke-linecap:butt" transform="rotate(180 .125 0)"/></marker><marker id="E" markerHeight="1" markerWidth="1" orient="auto-start-reverse" preserveAspectRatio="xMidYMid" refX="0" refY="0" style="overflow:visible" viewBox="0 0 1 1"><path d="M3-3 0 0l3 3" style="fill:none;stroke:context-stroke;stroke-width:1;stroke-linecap:butt" transform="rotate(180 .125 0)"/></marker><path id="A" d="M276.143 935.642h54.508v27.93h-54.508z"/><path id="z" d="M479.566 634.474h50.195v32.291h-50.195z"/><path id="w" d="M139.6 614.001h56.808v23.425H139.6z"/><path id="n" d="M57.211 631.119h48.652v27.93H57.211z"/><path id="k" d="M492.822 769.415h55.859v29.281h-55.859z"/><path id="j" d="M445.973 707.25h63.517v32.434h-63.517z"/><path id="i" d="M387.861 654.544h64.418v28.831h-64.418z"/><path id="o" d="M57.211 631.119h48.652v27.93H57.211z"/><path id="s" d="M115.322 550.483h74.779v56.76h-74.779z"/><path id="t" d="M115.322 550.483h74.779v56.76h-74.779z"/><path id="u" d="M257.673 583.819h78.383v46.85h-78.383z"/><path id="B" d="M479.566 634.474h50.195v32.291h-50.195z"/><path id="a" d="M344.018 1318.768h56.937v23.223h-56.937z"/><path id="H" d="M344.018 1318.768h56.937v23.223h-56.937z"/><path id="F" d="M252.599 1086.525h57.973v26.12h-57.973z"/><path id="C" d="M252.599 1086.525h57.973v26.12h-57.973z"/></defs><path d="M10.974 163.767h133.968v80.526H10.974z" style="fill:#fff;stroke:#fff;stroke-width:.264583;stroke-linejoin:round" transform="translate(-10.842 -163.635)"/><text xml:space="preserve" style="font-size:16px;line-height:normal;font-family:&quot;Liberation Mono&quot;;-inkscape-font-specification:&quot;Liberation Mono&quot;;text-decoration-color:#000;white-space:pre;shape-inside:url(#a);display:inline;fill:teal;stroke-width:1;-inkscape-stroke:none;stop-color:#000" transform="translate(-5.262 -317.432)scale(.26458)"><tspan x="344.018" y="1333.004">WW1</tspan></text><path d="M96.863 190.185v4.955" style="fill:#338000;stroke:teal;stroke-width:.264582;stroke-linejoin:round;marker-start:url(#b);marker-end:url(#b)" transform="translate(-10.842 -163.635)"/><path d="M23.933 185.751h84.281v50.736H23.933z" style="fill:none;stroke:purple;stroke-width:.264583;stroke-linejoin:round" transform="translate(-10.842 -163.635)"/><path d="M35.534 185.751h19.553v13.485H35.534zM73.845 185.751h19.553v13.485H73.845zM35.575 223.003h19.553v13.485H35.575zM73.886 223.003h19.553v13.485H73.886z" style="fill:none;stroke:purple;stroke-width:.264583;stroke-linejoin:round" transform="translate(-10.842 -163.635)"/><path d="M37.068 189.881h16.485v5.562H37.068zM43.458 195.443h3.706v3.793h-3.706zM75.379 189.881h16.485v5.562H75.379zM81.769 195.444h3.706v3.793h-3.706z" style="fill:#ececec;stroke:#666;stroke-width:.264583;stroke-linejoin:round" transform="translate(-10.842 -163.635)"/><path d="M-53.594-232.358h16.485v5.562h-16.485zM-47.204-226.795h3.706v3.793h-3.706zM-91.905-232.358h16.485v5.562h-16.485zM-85.515-226.795h3.706v3.793h-3.706z" style="fill:#ececec;stroke:#666;stroke-width:.264583;stroke-linejoin:round" transform="matrix(-1 0 0 -1 -10.842 -163.635)"/><path d="M104.51 188.257q7.152 20.499 0 45.724M30.235 233.982q-12.912-20.499 0-45.724" style="fill:#d7e3f4;stroke:#00f;stroke-width:.264583;stroke-linejoin:round" transform="translate(-10.842 -163.635)"/><path d="M30.015 188.397q37.762-5.244 75.097 0M29.413 233.842q37.761 5.244 75.097 0" style="fill:#d7e3f4;stroke:#00f;stroke-width:.264583;stroke-linejoin:round" transform="translate(-10.842 -163.635)"/><path d="M66.362 185.412v-6.794" style="fill:#338000;stroke:#acf;stroke-width:.264583;stroke-linejoin:round;marker-start:url(#c)" transform="translate(-10.842 -163.635)"/><path d="M66.358 188.68v6.794" style="fill:#338000;stroke:#acf;stroke-width:.264583;stroke-linejoin:round;marker-start:url(#d)" transform="translate(-10.842 -163.635)"/><path d="M23.185 210.701h-6.794" style="fill:#338000;stroke:#acf;stroke-width:.264583;stroke-linejoin:round;marker-start:url(#e)" transform="translate(-10.842 -163.635)"/><path d="M30.686 210.704h6.794" style="fill:#338000;stroke:#acf;stroke-width:.264583;stroke-linejoin:round;marker-start:url(#f)" transform="translate(-10.842 -163.635)"/><path d="M104.357 210.342h-6.793" style="fill:#338000;stroke:#acf;stroke-width:.264583;stroke-linejoin:round;marker-start:url(#g)" transform="translate(-10.842 -163.635)"/><path d="M108.684 210.345h6.793" style="fill:#338000;stroke:#acf;stroke-width:.264583;stroke-linejoin:round;marker-start:url(#h)" transform="translate(-10.842 -163.635)"/><text xml:space="preserve" style="font-size:16px;line-height:normal;font-family:&quot;Liberation Mono&quot;;-inkscape-font-specification:&quot;Liberation Mono&quot;;text-decoration-color:#000;white-space:pre;shape-inside:url(#i);display:inline;fill:#000;stroke-width:1;-inkscape-stroke:none;stop-color:#000" transform="translate(-100.591 -131.335)scale(.26458)"><tspan x="387.861" y="668.779">Ct1</tspan></text><text xml:space="preserve" style="font-size:16px;line-height:normal;font-family:&quot;Liberation Mono&quot;;-inkscape-font-specification:&quot;Liberation Mono&quot;;text-decoration-color:#000;white-space:pre;shape-inside:url(#j);display:inline;fill:#000;stroke-width:1;-inkscape-stroke:none;stop-color:#000" transform="translate(-61.736 -173.885)scale(.26458)"><tspan x="445.973" y="721.486">Ct2</tspan></text><text xml:space="preserve" style="font-size:16px;line-height:normal;font-family:&quot;Liberation Mono&quot;;-inkscape-font-specification:&quot;Liberation Mono&quot;;text-decoration-color:#000;white-space:pre;shape-inside:url(#k);display:inline;fill:#000;stroke-width:1;-inkscape-stroke:none;stop-color:#000" transform="translate(-28.363 -161.966)scale(.26458)"><tspan x="492.822" y="783.652">Ct3</tspan></text><path d="m29.766 187.61-4.15-10.117" style="fill:#338000;stroke:#ff80b2;stroke-width:.264583;stroke-linejoin:round;marker-start:url(#l)" transform="translate(-10.842 -163.635)"/><path d="m105.424 187.388 4.152-10.117" style="fill:#338000;stroke:#ff80b2;stroke-width:.264583;stroke-linejoin:round;marker-start:url(#m)" transform="translate(-10.842 -163.635)"/><text xml:space="preserve" style="font-size:16px;line-height:normal;font-family:&quot;Liberation Mono&quot;;-inkscape-font-specification:&quot;Liberation Mono&quot;;text-decoration-color:#000;white-space:pre;shape-inside:url(#n);display:inline;fill:#000;stroke-width:1;-inkscape-stroke:none;stop-color:#000" transform="translate(-4.406 -157.675)scale(.26458)"><tspan x="57.211" y="645.356">Rt1</tspan></text><text xml:space="preserve" style="font-size:16px;line-height:normal;font-family:&quot;Liberation Mono&quot;;-inkscape-font-specification:&quot;Liberation Mono&quot;;text-decoration-color:#000;white-space:pre;shape-inside:url(#o);display:inline;fill:#000;stroke-width:1;-inkscape-stroke:none;stop-color:#000" transform="translate(80.032 -158.003)scale(.26458)"><tspan x="57.211" y="645.356">Rt2</tspan></text><path d="M45.31 199.236v10.303M83.621 199.236v10.303" style="fill:none;stroke:#b3b3b3;stroke-width:.264583;stroke-linejoin:round" transform="translate(-10.842 -163.635)"/><path d="m45.302 202.271-21.24.141" style="fill:none;stroke:#f55;stroke-width:.264583;stroke-linejoin:round;marker-start:url(#p);marker-end:url(#p)" transform="translate(-10.842 -163.635)"/><path d="m83.41 205.27-38.02.142" style="fill:none;stroke:#f55;stroke-width:.264583;stroke-linejoin:round;marker-start:url(#q);marker-end:url(#q)" transform="translate(-10.842 -163.635)"/><path d="m108.215 201.245-24.3.141" style="fill:none;stroke:#f55;stroke-width:.264583;stroke-linejoin:round;marker-start:url(#r);marker-end:url(#r)" transform="translate(-10.842 -163.635)"/><text xml:space="preserve" style="font-size:16px;line-height:normal;font-family:&quot;Liberation Mono&quot;;-inkscape-font-specification:&quot;Liberation Mono&quot;;text-decoration-color:#000;white-space:pre;shape-inside:url(#s);display:inline;fill:#000;stroke-width:1;-inkscape-stroke:none;stop-color:#000" transform="translate(-12.219 -107.064)scale(.26458)"><tspan x="115.322" y="564.721">LB1</tspan></text><text xml:space="preserve" style="font-size:16px;line-height:normal;font-family:&quot;Liberation Mono&quot;;-inkscape-font-specification:&quot;Liberation Mono&quot;;text-decoration-color:#000;white-space:pre;shape-inside:url(#t);display:inline;fill:#000;stroke-width:1;-inkscape-stroke:none;stop-color:#000" transform="translate(18.88 -108.302)scale(.26458)"><tspan x="115.322" y="564.721">LB2</tspan></text><text xml:space="preserve" style="font-size:16px;line-height:normal;font-family:&quot;Liberation Mono&quot;;-inkscape-font-specification:&quot;Liberation Mono&quot;;text-decoration-color:#000;white-space:pre;shape-inside:url(#u);display:inline;fill:#000;stroke-width:1;-inkscape-stroke:none;stop-color:#000" transform="translate(13.884 -116.699)scale(.26458)"><tspan x="257.674" y="598.055">LB3</tspan></text><path d="M35.534 169.266v16.353M55.087 169.715v16.354" style="fill:none;stroke:#b3b3b3;stroke-width:.264583;stroke-linejoin:round" transform="translate(-10.842 -163.635)"/><path d="M35.655 171.53h19.18" style="fill:#d7e3f4;stroke:#338000;stroke-width:.264583;stroke-linejoin:round;marker-start:url(#v);marker-end:url(#v)" transform="translate(-10.842 -163.635)"/><text xml:space="preserve" style="font-size:16px;line-height:normal;font-family:&quot;Liberation Mono&quot;;-inkscape-font-specification:&quot;Liberation Mono&quot;;text-decoration-color:#000;white-space:pre;shape-inside:url(#w);display:inline;fill:#338000;stroke-width:1;-inkscape-stroke:none;stop-color:#000" transform="translate(-6.343 -159.196)scale(.26458)"><tspan x="139.6" y="628.236">DW3</tspan></text><path d="M130.378 199.236H93.53M130.418 223.003H93.571M130.418 236.487h-22.071M130.418 185.751h-22.071" style="fill:none;stroke:#b3b3b3;stroke-width:.264583;stroke-linejoin:round" transform="translate(-10.842 -163.635)"/><path d="M127.773 185.74v13.121" style="fill:#338000;stroke:#f55;stroke-width:.264583;stroke-linejoin:round;marker-start:url(#v);marker-end:url(#v)" transform="translate(-10.842 -163.635)"/><path d="M128.302 223.003v13.12" style="fill:#338000;stroke:#f55;stroke-width:.264583;stroke-linejoin:round;marker-start:url(#x);marker-end:url(#x)" transform="translate(-10.842 -163.635)"/><path d="M129.547 199.556v22.873" style="fill:#338000;stroke:#f55;stroke-width:.264583;stroke-linejoin:round;marker-start:url(#y);marker-end:url(#y)" transform="translate(-10.842 -163.635)"/><text xml:space="preserve" style="font-size:16px;line-height:normal;font-family:&quot;Liberation Mono&quot;;-inkscape-font-specification:&quot;Liberation Mono&quot;;text-decoration-color:#000;white-space:pre;shape-inside:url(#z);display:inline;fill:#000;stroke-width:1;-inkscape-stroke:none;stop-color:#000" transform="translate(-7.862 -104.135)scale(.26458)"><tspan x="479.566" y="648.711">Wt1</tspan></text><text xml:space="preserve" style="font-size:16px;line-height:normal;font-family:&quot;Liberation Mono&quot;;-inkscape-font-specification:&quot;Liberation Mono&quot;;text-decoration-color:#000;white-space:pre;shape-inside:url(#A);display:inline;fill:#000;stroke-width:1;-inkscape-stroke:none;stop-color:#000" transform="translate(46.53 -203.074)scale(.26458)"><tspan x="276.143" y="949.879">Wt2</tspan></text><text xml:space="preserve" style="font-size:16px;line-height:normal;font-family:&quot;Liberation Mono&quot;;-inkscape-font-specification:&quot;Liberation Mono&quot;;text-decoration-color:#000;white-space:pre;shape-inside:url(#B);display:inline;fill:#000;stroke-width:1;-inkscape-stroke:none;stop-color:#000" transform="translate(-8.563 -141.64)scale(.26458)"><tspan x="479.566" y="648.711">Wt1</tspan></text><text xml:space="preserve" style="font-size:16px;line-height:normal;font-family:&quot;Liberation Mono&quot;;-inkscape-font-specification:&quot;Liberation Mono&quot;;text-decoration-color:#000;white-space:pre;shape-inside:url(#C);display:inline;fill:green;stroke-width:1;-inkscape-stroke:none;stop-color:#000" transform="translate(-9.318 -237.4)scale(.26458)"><tspan x="252.6" y="1100.762">DW1</tspan></text><path d="m75.075 228.474-7.253-4.103" style="fill:teal;stroke:green;stroke-width:.264583;stroke-linejoin:round;marker-start:url(#D)" transform="translate(-10.842 -163.635)"/><path d="m81.402 225.024-10.366-7.1" style="fill:teal;stroke:green;stroke-width:.264583;stroke-linejoin:round;marker-start:url(#E)" transform="translate(-10.842 -163.635)"/><text xml:space="preserve" style="font-size:16px;line-height:normal;font-family:&quot;Liberation Mono&quot;;-inkscape-font-specification:&quot;Liberation Mono&quot;;text-decoration-color:#000;white-space:pre;shape-inside:url(#F);display:inline;fill:green;stroke-width:1;-inkscape-stroke:none;stop-color:#000" transform="translate(-16.07 -231.087)scale(.26458)"><tspan x="252.6" y="1100.762">DW2</tspan></text><path d="M91.996 195.444h8.52M91.996 189.881h8.52" style="fill:none;stroke:#b3b3b3;stroke-width:.264583;stroke-linejoin:round" transform="translate(-10.842 -163.635)"/><path d="M95.476 195.8v3.079" style="fill:#338000;stroke:teal;stroke-width:.264582;stroke-linejoin:round;marker-start:url(#G);marker-end:url(#G)" transform="translate(-10.842 -163.635)"/><text xml:space="preserve" style="font-size:16px;line-height:normal;font-family:&quot;Liberation Mono&quot;;-inkscape-font-specification:&quot;Liberation Mono&quot;;text-decoration-color:#000;white-space:pre;shape-inside:url(#H);display:inline;fill:teal;stroke-width:1;-inkscape-stroke:none;stop-color:#000" transform="translate(-4.295 -322.15)scale(.26458)"><tspan x="344.018" y="1333.004">WW2</tspan></text></svg>