<svg xmlns="http://www.w3.org/2000/svg" width="581.215" height="604.64" viewBox="0 0 153.78 159.978"><defs><path id="u" d="M199.562 1907.322h46.85v33.786h-46.85z"/><path id="c" d="M453.631 84.69h50.904v41.444h-50.904z"/><path id="d" d="M495.004 159.268h119.132v37.587H495.004z"/><path id="e" d="M44.595 149.075h123.273v30.898H44.595z"/><path id="f" d="M230.62 91.42h131.237v38.861H230.62z"/><path id="g" d="M230.62 91.42h131.237v38.861H230.62z"/><path id="h" d="M92.694 95.242h102.568v29.624H92.694z"/><path id="i" d="M92.694 95.242h102.568v29.624H92.694z"/><path id="k" d="M136.015 326.818h108.621v25.801H136.015z"/><path id="l" d="M120.406 367.909h108.611v26.493H120.406z"/><path id="m" d="M67.572 656.796h118.025v62.166H67.572z"/><path id="n" d="M217.13 679.32h102.709v44.147H217.13z"/><path id="o" d="M41.444 601.838h55.859v36.939H41.444z"/><path id="p" d="M117.124 622.56h57.661v36.939h-57.661z"/><path id="q" d="M427.053 451.378h93.249v32.434h-93.249z"/><path id="r" d="M410.385 487.867h95.501v46.85h-95.501z"/><path id="s" d="M198.21 501.832h348.67v39.192H198.21z"/><path id="v" d="M114.036 129.963h52.24v33.765h-52.24z"/><marker id="t" markerHeight="1" markerWidth="1" orient="auto-start-reverse" preserveAspectRatio="xMidYMid" refX="0" refY="0" style="overflow:visible" viewBox="0 0 1 1"><path d="M3-3 0 0l3 3" style="fill:none;stroke:context-stroke;stroke-width:1;stroke-linecap:butt" transform="rotate(180 .125 0)"/></marker><marker id="a" markerHeight="1" markerWidth="1" orient="auto-start-reverse" preserveAspectRatio="xMidYMid" refX="0" refY="0" style="overflow:visible" viewBox="0 0 1 1"><path d="M3-3 0 0l3 3" style="fill:none;stroke:context-stroke;stroke-width:1;stroke-linecap:butt" transform="rotate(180 .125 0)"/></marker><marker id="b" markerHeight="1" markerWidth="1" orient="auto-start-reverse" preserveAspectRatio="xMidYMid" refX="0" refY="0" style="overflow:visible" viewBox="0 0 1 1"><path d="M3-3 0 0l3 3" style="fill:none;stroke:context-stroke;stroke-width:1;stroke-linecap:butt" transform="rotate(180 .125 0)"/></marker><marker id="j" markerHeight="1" markerWidth="1" orient="auto-start-reverse" preserveAspectRatio="xMidYMid" refX="0" refY="0" style="overflow:visible" viewBox="0 0 1 1"><path d="M3-3 0 0l3 3" style="fill:none;stroke:context-stroke;stroke-width:1;stroke-linecap:butt" transform="rotate(180 .125 0)"/></marker></defs><g transform="translate(-2.71 -414.834)"><path d="M2.842 414.966h153.515v159.713H2.842z" style="fill:#fff;stroke:#fff;stroke-width:.264583;stroke-linejoin:round;stroke-dasharray:none"/><path d="m87.733 490.035-40.28-58.115" style="fill:none;stroke:purple;stroke-width:.264583;stroke-linejoin:round"/><path d="m78.58 456.469-45.805 31.735M79.924 459.678 34.12 491.413M133.17 498.506l-58.115-40.28" style="fill:none;stroke:#e6e6e6;stroke-width:.264583;stroke-linejoin:round"/><path d="m94.008 510.15 40.28-58.114" style="fill:none;stroke:purple;stroke-width:.264583;stroke-linejoin:round"/><circle cx="78.501" cy="505.144" r="51.747" style="fill:none;stroke:green;stroke-width:.264583;stroke-linejoin:round"/><path d="M78.501 505.144v-70.626" style="fill:none;stroke:#00f;stroke-width:.264583;stroke-linejoin:round"/><path d="m78.501 505.144 19.722-66.412M78.5 505.11l-22.035-74.167" style="fill:none;stroke:#b3b3b3;stroke-width:.264583;stroke-linejoin:round"/><path d="m78.507 505.106 40.28-58.115" style="fill:none;stroke:purple;stroke-width:.264583;stroke-linejoin:round"/><circle cx="78.398" cy="505.144" r="39.946" style="fill:none;stroke:#aad400;stroke-width:.264583;stroke-linejoin:round"/><circle cx="78.398" cy="505.144" r="63.713" style="fill:none;stroke:#aad400;stroke-width:.264582;stroke-linejoin:round"/><path d="m78.507 505.106 57.31-44.162" style="fill:none;stroke:#b3b3b3;stroke-width:.264583;stroke-linejoin:round"/><path d="m78.507 505.106 67.812-25.576" style="fill:none;stroke:#00f;stroke-width:.264583;stroke-linejoin:round"/><path d="m78.26 505.069-40.28-58.116" style="fill:none;stroke:purple;stroke-width:.264583;stroke-linejoin:round"/><path d="M78.501 453.44v8.257" style="fill:none;stroke:#d4aa00;stroke-width:.264583;stroke-linejoin:round;marker-start:url(#a);marker-end:url(#a)"/><path d="M78.501 441.594v11.637" style="fill:#d4aa00;stroke:#d4aa00;stroke-width:.264582;stroke-linejoin:round;marker-start:url(#b);marker-end:url(#b)"/><text xml:space="preserve" style="font-size:16px;line-height:normal;font-family:&quot;Liberation Mono&quot;;-inkscape-font-specification:&quot;Liberation Mono&quot;;text-decoration-color:#000;white-space:pre;shape-inside:url(#c);display:inline;fill:#1a1a1a;stroke-width:1;-inkscape-stroke:none;stop-color:#000" transform="translate(.459 402.155)scale(.26458)"><tspan x="453.631" y="98.926">Nt</tspan></text><path d="m94.67 442.506 24.858-14.607" style="fill:#1a1a1a;stroke:#999;stroke-width:.264583;stroke-linejoin:round;marker-start:url(#a)"/><path d="m123.82 429.091.714 35.16" style="fill:#1a1a1a;stroke:#999;stroke-width:.264583;stroke-linejoin:round;marker-end:url(#a)"/><path d="M64.231 455.375s3.582-.9 5.4-1.213a49 49 0 0 1 5.279-.64c1.195-.074 2.394-.035 3.591-.007 2.245.052 4.498.066 6.729.32 1.71.197 3.39.595 5.08.927.994.195 2.002.339 2.974.626 1.434.424 2.813 1.02 4.187 1.611 2.188.94 4.363 1.924 6.45 3.071a44 44 0 0 1 4.196 2.64 58 58 0 0 1 4.847 3.832 47 47 0 0 1 3.342 3.267c1.03 1.107 2.932 3.463 2.932 3.463" style="fill:none;stroke:#f0f;stroke-width:.264583;stroke-linejoin:round;marker-start:url(#a);marker-end:url(#a)"/><text xml:space="preserve" style="font-size:16px;line-height:normal;font-family:&quot;Liberation Mono&quot;;-inkscape-font-specification:&quot;Liberation Mono&quot;;text-decoration-color:#000;white-space:pre;shape-inside:url(#d);display:inline;fill:#f0f;stroke-width:1;-inkscape-stroke:none;stop-color:#000" transform="translate(-1.564 401.227)scale(.26458)"><tspan x="495.004" y="173.504">module*Pi</tspan></text><path d="m113.808 466.535 16.946-18.364" style="fill:#f0f;stroke:#f0f;stroke-width:.264583;stroke-linejoin:round;marker-start:url(#a)"/><text xml:space="preserve" style="font-size:16px;line-height:normal;font-family:&quot;Liberation Mono&quot;;-inkscape-font-specification:&quot;Liberation Mono&quot;;text-decoration-color:#000;white-space:pre;shape-inside:url(#e);display:inline;fill:green;stroke-width:1;-inkscape-stroke:none;stop-color:#000" transform="translate(-5.61 407.717)scale(.26458)"><tspan x="44.596" y="163.311"><tspan style="font-weight:700;-inkscape-font-specification:&quot;Liberation Mono Bold&quot;">Dt</tspan>=module*Nt</tspan></text><path d="m10.235 452.554 28.992 17.361" style="fill:green;stroke:green;stroke-width:.264583;stroke-linejoin:round;marker-end:url(#a)"/><path d="M59.199 438.975s2.776-.644 4.173-.927c1.674-.34 3.346-.71 5.041-.927 2.305-.295 4.632-.422 6.955-.506 1.621-.059 3.245 0 4.868 0 1.854 0 3.712-.103 5.563 0 2.272.127 4.523.484 6.78.759 1.074.13 2.157.214 3.217.421.765.15 2.26.59 2.26.59" style="fill:none;stroke:#6c5d53;stroke-width:.264583;stroke-linejoin:round;marker-start:url(#a);marker-end:url(#a)"/><text xml:space="preserve" style="font-size:16px;line-height:normal;font-family:&quot;Liberation Mono&quot;;-inkscape-font-specification:&quot;Liberation Mono&quot;;text-decoration-color:#000;white-space:pre;shape-inside:url(#f);display:inline;fill:#6c5d53;stroke-width:1;-inkscape-stroke:none;stop-color:#000" transform="translate(-1.672 394.27)scale(.26458)"><tspan x="230.619" y="105.656">ati(%)</tspan></text><path d="m65.697 423.355 3.216 13.029" style="fill:#6c5d53;stroke:#6c5d53;stroke-width:.264582;stroke-linejoin:round;marker-end:url(#a)"/><circle cx="78.398" cy="505.144" r="42.98" style="fill:none;stroke:#aad400;stroke-width:.264583;stroke-linejoin:round"/><circle cx="78.398" cy="505.144" r="66.073" style="fill:none;stroke:#aad400;stroke-width:.264583;stroke-linejoin:round"/><path d="m78.504 505.145 26.538-73.805" style="fill:none;stroke:#b3b3b3;stroke-width:.264583;stroke-linejoin:round"/><path d="M57.55 433.501s5.149-1.052 7.747-1.43c3.322-.484 6.66-.917 10.012-1.073 2.898-.135 5.803-.01 8.701.12 2.627.117 5.253.307 7.866.595 2.195.243 4.4.474 6.556.954 1.742.388 5.125 1.55 5.125 1.55" style="fill:none;stroke:#ac9d93;stroke-width:.264583;stroke-linejoin:round;stroke-dasharray:none;marker-start:url(#a);marker-end:url(#a)"/><text xml:space="preserve" style="font-size:16px;line-height:normal;font-family:&quot;Liberation Mono&quot;;-inkscape-font-specification:&quot;Liberation Mono&quot;;text-decoration-color:#000;white-space:pre;shape-inside:url(#g);display:inline;fill:#ac9d93;stroke-width:1;-inkscape-stroke:none;stop-color:#000" transform="translate(24.555 395.404)scale(.26458)"><tspan x="230.619" y="105.656">ate(%)</tspan></text><path d="m92.353 424.562-.953 6.317" style="fill:none;stroke:#ac9d93;stroke-width:.264583;stroke-linejoin:round;stroke-dasharray:none;marker-end:url(#a)"/><text xml:space="preserve" style="font-size:16px;line-height:normal;font-family:&quot;Liberation Mono&quot;;-inkscape-font-specification:&quot;Liberation Mono&quot;;text-decoration-color:#000;white-space:pre;shape-inside:url(#h);display:inline;fill:#d4aa00;stroke-width:1;-inkscape-stroke:none;stop-color:#000" transform="translate(9.984 402.155)scale(.26458)"><tspan x="92.693" y="109.479">Ht*<tspan style="font-weight:700;-inkscape-font-specification:&quot;Liberation Mono Bold&quot;">ah</tspan></tspan></text><text xml:space="preserve" style="font-size:16px;line-height:normal;font-family:&quot;Liberation Mono&quot;;-inkscape-font-specification:&quot;Liberation Mono&quot;;text-decoration-color:#000;white-space:pre;shape-inside:url(#i);display:inline;fill:#d4aa00;stroke-width:1;-inkscape-stroke:none;stop-color:#000" transform="translate(8.975 410.483)scale(.26458)"><tspan x="92.693" y="109.479">Ht*<tspan style="font-weight:700;-inkscape-font-specification:&quot;Liberation Mono Bold&quot;">dh</tspan></tspan></text><path d="m45.97 439.912 31.688 17.698" style="fill:none;stroke:#d4aa00;stroke-width:.264583;stroke-linejoin:round;stroke-dasharray:none;marker-end:url(#a)"/><path d="m48.12 431.617 29.498 16.518" style="fill:none;stroke:#d4aa00;stroke-width:.264583;stroke-linejoin:round;stroke-dasharray:none;marker-end:url(#j)"/><path d="m45.154 477.84 2.384 1.787" style="fill:#d4aa00;stroke:#d4aa00;stroke-width:.264583;stroke-linejoin:round;stroke-dasharray:none;marker-start:url(#a);marker-end:url(#a)"/><path d="m13.353 494.862 1.855.337" style="fill:#d4aa00;stroke:#d4aa00;stroke-width:.264583;stroke-linejoin:round;stroke-dasharray:none;marker-start:url(#a);marker-end:url(#a)"/><text xml:space="preserve" style="font-size:16px;line-height:normal;font-family:&quot;Liberation Mono&quot;;-inkscape-font-specification:&quot;Liberation Mono&quot;;text-decoration-color:#000;white-space:pre;shape-inside:url(#k);display:inline;fill:#d4aa00;stroke-width:1;-inkscape-stroke:none;stop-color:#000" transform="translate(-18.718 386.226)scale(.26458)"><tspan x="136.016" y="341.055">Ht*<tspan style="font-weight:700;-inkscape-font-specification:&quot;Liberation Mono Bold&quot;">deh</tspan></tspan></text><text xml:space="preserve" style="font-size:16px;line-height:normal;font-family:&quot;Liberation Mono&quot;;-inkscape-font-specification:&quot;Liberation Mono&quot;;text-decoration-color:#000;white-space:pre;shape-inside:url(#l);display:inline;fill:#d4aa00;stroke-width:1;-inkscape-stroke:none;stop-color:#000" transform="translate(-20.521 384.54)scale(.26458)"><tspan x="120.406" y="382.145">Ht*<tspan style="font-weight:700;-inkscape-font-specification:&quot;Liberation Mono Bold&quot;">aeh</tspan></tspan></text><path d="m23.635 485.928-8.68 7.754" style="fill:#d4aa00;stroke:#d4aa00;stroke-width:.264583;stroke-linejoin:round;stroke-dasharray:none;marker-end:url(#a)"/><path d="m32.862 475.73 11.338 2.444" style="fill:#d4aa00;stroke:#d4aa00;stroke-width:.264583;stroke-linejoin:round;stroke-dasharray:none;marker-end:url(#a)"/><text xml:space="preserve" style="font-size:16px;line-height:normal;font-family:&quot;Liberation Mono&quot;;-inkscape-font-specification:&quot;Liberation Mono&quot;;text-decoration-color:#000;white-space:pre;shape-inside:url(#m);display:inline;fill:#000;stroke-width:1;-inkscape-stroke:none;stop-color:#000" transform="translate(61.989 298.146)scale(.26458)"><tspan x="67.572" y="671.033">Rdi</tspan></text><text xml:space="preserve" style="font-size:16px;line-height:normal;font-family:&quot;Liberation Mono&quot;;-inkscape-font-specification:&quot;Liberation Mono&quot;;text-decoration-color:#000;white-space:pre;shape-inside:url(#n);display:inline;fill:#000;stroke-width:1;-inkscape-stroke:none;stop-color:#000" transform="translate(38.36 301.56)scale(.26458)"><tspan x="217.131" y="693.557">Rde</tspan></text><text xml:space="preserve" style="font-size:16px;line-height:normal;font-family:&quot;Liberation Mono&quot;;-inkscape-font-specification:&quot;Liberation Mono&quot;;text-decoration-color:#000;white-space:pre;shape-inside:url(#o);display:inline;fill:#000;stroke-width:1;-inkscape-stroke:none;stop-color:#000" transform="translate(70.303 287.018)scale(.26458)"><tspan x="41.443" y="616.074">Rai</tspan></text><text xml:space="preserve" style="font-size:16px;line-height:normal;font-family:&quot;Liberation Mono&quot;;-inkscape-font-specification:&quot;Liberation Mono&quot;;text-decoration-color:#000;white-space:pre;shape-inside:url(#p);display:inline;fill:#000;stroke-width:1;-inkscape-stroke:none;stop-color:#000" transform="translate(79.838 274.742)scale(.26458)"><tspan x="117.125" y="636.797">Rae</tspan></text><path d="m89.135 448.638 10.012-2.86" style="fill:none;stroke:#000;stroke-width:.264583;stroke-linejoin:round;stroke-dasharray:none;marker-end:url(#a)"/><path d="m110.47 442.44-5.006 1.43" style="fill:none;stroke:#000;stroke-width:.264583;stroke-linejoin:round;stroke-dasharray:none;marker-end:url(#a)"/><path d="m83.057 472.595 2.86-5.363" style="fill:none;stroke:#000;stroke-width:.264583;stroke-linejoin:round;stroke-dasharray:none;marker-end:url(#a)"/><path d="m98.074 481.296-7.151-15.018" style="fill:none;stroke:#000;stroke-width:.264583;stroke-linejoin:round;stroke-dasharray:none;marker-end:url(#a)"/><text xml:space="preserve" style="font-size:16px;line-height:normal;font-family:&quot;Liberation Mono&quot;;-inkscape-font-specification:&quot;Liberation Mono&quot;;text-decoration-color:#000;white-space:pre;shape-inside:url(#q);display:inline;fill:#000;stroke-width:1;-inkscape-stroke:none;stop-color:#000" transform="translate(17.264 371.105)scale(.26458)"><tspan x="427.053" y="465.615">SnAai</tspan></text><text xml:space="preserve" style="font-size:16px;line-height:normal;font-family:&quot;Liberation Mono&quot;;-inkscape-font-specification:&quot;Liberation Mono&quot;;text-decoration-color:#000;white-space:pre;shape-inside:url(#r);display:inline;fill:#000;stroke-width:1;-inkscape-stroke:none;stop-color:#000" transform="translate(26.814 331.339)scale(.26458)"><tspan x="410.385" y="502.104">SnAae</tspan></text><path d="m140.267 465.145-4.529 4.886" style="fill:#fff;stroke:#000;stroke-width:.264583;stroke-linejoin:round;stroke-dasharray:none;marker-end:url(#a)"/><path d="m134.546 491.128 3.457-5.364" style="fill:#fff;stroke:#000;stroke-width:.264583;stroke-linejoin:round;stroke-dasharray:none;marker-end:url(#a)"/><text xml:space="preserve" style="font-size:16px;line-height:normal;font-family:&quot;Liberation Mono&quot;;-inkscape-font-specification:&quot;Liberation Mono&quot;;text-decoration-color:#000;white-space:pre;shape-inside:url(#s);display:inline;fill:#000;stroke-width:1;-inkscape-stroke:none;stop-color:#000" transform="translate(-11.937 384.692)scale(.26458)"><tspan x="198.211" y="516.068">teethStyle: [radial, adden, <tspan style="font-weight:700;-inkscape-font-specification:&quot;Liberation Mono Bold&quot;">deden</tspan>]</tspan></text><path d="m69.447 494.852 40.28-58.115M67.704 492.56l40.28-58.115" style="fill:none;stroke:purple;stroke-width:.264583;stroke-linejoin:round"/><path d="m134.897 495.639-58.115-40.28" style="fill:none;stroke:#e6e6e6;stroke-width:.264583;stroke-linejoin:round"/><path d="m49.463 476.755 19.786-13.587-14.065-20.024s4.088-1.562 6.317-2.145 4.667-.973 7.033-1.311c2.366-.339 4.782-.638 7.15-.716 2.37-.078 4.807.075 7.033.239s4.57.442 6.317.715 2.582.499 4.172.834c1.59.336 3.488.624 5.363 1.192 1.876.569 5.84 2.265 5.84 2.265l-13.825 20.739 23.48 16.328 13.826-19.904s1.28 1.398 2.145 2.503c.866 1.105 1.838 2.468 2.98 4.172s2.77 4.12 3.814 6.078c1.044 1.957 1.845 4.153 2.503 5.602s1.43 3.099 1.43 3.099" style="fill:none;stroke:teal;stroke-width:.529167;stroke-linejoin:round"/><path d="m50.774 480.212 20.382-14.065-14.422-20.977s3.238-1.14 5.244-1.668c2.006-.53 4.347-1.082 6.794-1.43 2.447-.35 5.301-.52 7.866-.597 2.566-.076 5.121-.066 7.51.12 2.387.185 4.524.497 6.793.953s5.211 1.305 6.794 1.788 2.741.953 2.741.953l-14.302 20.62 25.983 18.117 14.183-20.739s1.994 2.29 3.1 3.814c1.104 1.524 2.3 3.438 3.456 5.363s2.368 3.874 3.456 6.198 2.98 7.748 2.98 7.748" style="fill:none;stroke:red;stroke-width:.529167;stroke-linejoin:round"/><path d="M99.046 489.509s1.065 2.012 1.907 2.74c1.075.93 3.814 1.908 3.814 1.908" style="fill:none;stroke:#f60;stroke-width:.264583;stroke-linejoin:round;marker-end:url(#t)"/><text xml:space="preserve" style="font-size:16px;line-height:normal;font-family:&quot;Liberation Mono&quot;;-inkscape-font-specification:&quot;Liberation Mono&quot;;text-decoration-color:#000;white-space:pre;shape-inside:url(#u);display:inline;fill:#f60;stroke-width:1;-inkscape-stroke:none;stop-color:#000" transform="translate(47.556 -16.448)scale(.26458)"><tspan x="199.561" y="1921.559">aM</tspan></text><text xml:space="preserve" style="font-style:normal;font-variant:normal;font-weight:700;font-stretch:normal;font-size:16px;line-height:normal;font-family:&quot;Liberation Mono&quot;;-inkscape-font-specification:&quot;Liberation Mono Bold&quot;;text-decoration-color:#000;white-space:pre;shape-inside:url(#v);display:inline;fill:#d4aa00;stroke-width:1;-inkscape-stroke:none;stop-color:#000" transform="translate(5.827 385.85)scale(.26458)"><tspan x="114.035" y="143.993">Ht</tspan></text><path d="M34.819 419.898h7.754v5.562h-7.754z" style="fill:none;stroke:#d4aa00;stroke-width:.264583;stroke-linejoin:round"/></g></svg>