<svg xmlns="http://www.w3.org/2000/svg" width="581.215" height="604.64" viewBox="0 0 153.78 159.978"><defs><path id="v" d="M554.988 974.833h45.949v44.147h-45.949z"/><path id="d" d="M453.631 84.69h50.904v41.444h-50.904z"/><path id="e" d="M495.004 159.268h119.132v37.587H495.004z"/><path id="f" d="M44.595 149.075h123.273v30.898H44.595z"/><path id="g" d="M230.62 91.42h131.237v38.861H230.62z"/><path id="h" d="M230.62 91.42h131.237v38.861H230.62z"/><path id="i" d="M92.694 95.242h102.568v29.624H92.694z"/><path id="j" d="M92.694 95.242h102.568v29.624H92.694z"/><path id="l" d="M136.015 326.818h108.621v25.801H136.015z"/><path id="m" d="M120.406 367.909h108.611v26.493H120.406z"/><path id="n" d="M67.572 656.796h118.025v62.166H67.572z"/><path id="o" d="M217.13 679.32h102.709v44.147H217.13z"/><path id="p" d="M41.444 601.838h55.859v36.939H41.444z"/><path id="q" d="M117.124 622.56h57.661v36.939h-57.661z"/><path id="r" d="M265.331 485.615h96.402v34.236h-96.402z"/><path id="s" d="M324.794 512.643h84.239v31.533h-84.239z"/><path id="a" d="M198.21 501.832h348.67v39.192H198.21z"/><path id="w" d="M114.036 129.963h52.24v33.765h-52.24z"/><marker id="u" markerHeight="1" markerWidth="1" orient="auto-start-reverse" preserveAspectRatio="xMidYMid" refX="0" refY="0" style="overflow:visible" viewBox="0 0 1 1"><path d="M3-3 0 0l3 3" style="fill:none;stroke:context-stroke;stroke-width:1;stroke-linecap:butt" transform="rotate(180 .125 0)"/></marker><marker id="b" markerHeight="1" markerWidth="1" orient="auto-start-reverse" preserveAspectRatio="xMidYMid" refX="0" refY="0" style="overflow:visible" viewBox="0 0 1 1"><path d="M3-3 0 0l3 3" style="fill:none;stroke:context-stroke;stroke-width:1;stroke-linecap:butt" transform="rotate(180 .125 0)"/></marker><marker id="c" markerHeight="1" markerWidth="1" orient="auto-start-reverse" preserveAspectRatio="xMidYMid" refX="0" refY="0" style="overflow:visible" viewBox="0 0 1 1"><path d="M3-3 0 0l3 3" style="fill:none;stroke:context-stroke;stroke-width:1;stroke-linecap:butt" transform="rotate(180 .125 0)"/></marker><marker id="k" markerHeight="1" markerWidth="1" orient="auto-start-reverse" preserveAspectRatio="xMidYMid" refX="0" refY="0" style="overflow:visible" viewBox="0 0 1 1"><path d="M3-3 0 0l3 3" style="fill:none;stroke:context-stroke;stroke-width:1;stroke-linecap:butt" transform="rotate(180 .125 0)"/></marker><marker id="t" markerHeight="1" markerWidth="1" orient="auto-start-reverse" preserveAspectRatio="xMidYMid" refX="0" refY="0" style="overflow:visible" viewBox="0 0 1 1"><path d="M3-3 0 0l3 3" style="fill:none;stroke:context-stroke;stroke-width:1;stroke-linecap:butt" transform="rotate(180 .125 0)"/></marker></defs><g transform="translate(-2.359 -217.038)"><path d="M2.491 217.17h153.515v159.713H2.491z" style="fill:#fff;stroke:#fff;stroke-width:.264583;stroke-linejoin:round;stroke-dasharray:none"/><path d="m129.51 261.614 17.516 46.52M127.122 261.885l17.516 46.52" style="fill:none;stroke:#e6e6e6;stroke-width:.264583;stroke-linejoin:round"/><path d="m75.493 292.191 67.812-25.576M95.725 298.266V227.64M92.88 297.944v-70.626M63.377 299.586V228.96" style="fill:none;stroke:#00f;stroke-width:.264583;stroke-linejoin:round"/><text xml:space="preserve" style="font-size:16px;line-height:normal;font-family:&quot;Liberation Mono&quot;;-inkscape-font-specification:&quot;Liberation Mono&quot;;text-decoration-color:#000;white-space:pre;shape-inside:url(#a);display:inline;fill:#000;stroke-width:1;-inkscape-stroke:none;stop-color:#000" transform="translate(-19.865 190.07)scale(.26458)"><tspan x="198.211" y="516.068">teethStyle: [radial, <tspan style="font-weight:700;-inkscape-font-specification:&quot;Liberation Mono Bold&quot;">adden</tspan>, deden]</tspan></text><circle cx="78.15" cy="307.348" r="51.747" style="fill:none;stroke:green;stroke-width:.264583;stroke-linejoin:round"/><path d="M78.15 307.348v-70.626" style="fill:none;stroke:#00f;stroke-width:.264583;stroke-linejoin:round"/><path d="m78.16 307.354 23.195-78.054M78.145 307.316 54.8 228.763" style="fill:none;stroke:#b3b3b3;stroke-width:.264583;stroke-linejoin:round"/><path d="m78.155 307.31 40.28-58.115" style="fill:none;stroke:purple;stroke-width:.264583;stroke-linejoin:round"/><circle cx="78.046" cy="307.348" r="39.946" style="fill:none;stroke:#aad400;stroke-width:.264583;stroke-linejoin:round"/><circle cx="78.046" cy="307.348" r="63.713" style="fill:none;stroke:#aad400;stroke-width:.264582;stroke-linejoin:round"/><path d="m78.154 307.309 63.868-49.22" style="fill:none;stroke:#b3b3b3;stroke-width:.264583;stroke-linejoin:round"/><path d="m78.155 307.31 67.813-25.576" style="fill:none;stroke:#00f;stroke-width:.264583;stroke-linejoin:round"/><path d="m77.909 307.273-40.28-58.115" style="fill:none;stroke:purple;stroke-width:.264583;stroke-linejoin:round"/><path d="M78.15 255.645v8.256" style="fill:none;stroke:#d4aa00;stroke-width:.264583;stroke-linejoin:round;marker-start:url(#b);marker-end:url(#b)"/><path d="M78.15 243.798v11.637" style="fill:#d4aa00;stroke:#d4aa00;stroke-width:.264582;stroke-linejoin:round;marker-start:url(#c);marker-end:url(#c)"/><text xml:space="preserve" style="font-size:16px;line-height:normal;font-family:&quot;Liberation Mono&quot;;-inkscape-font-specification:&quot;Liberation Mono&quot;;text-decoration-color:#000;white-space:pre;shape-inside:url(#d);display:inline;fill:#1a1a1a;stroke-width:1;-inkscape-stroke:none;stop-color:#000" transform="translate(.107 204.359)scale(.26458)"><tspan x="453.631" y="98.926">Nt</tspan></text><path d="m93.582 251.516 28.46-19.98" style="fill:#1a1a1a;stroke:#999;stroke-width:.264583;stroke-linejoin:round;marker-start:url(#b)"/><path d="m123.467 231.295 3.558 40.451" style="fill:#1a1a1a;stroke:#999;stroke-width:.264583;stroke-linejoin:round;marker-end:url(#b)"/><path d="M63.88 257.58s3.582-.9 5.4-1.214a49 49 0 0 1 5.278-.64c1.195-.074 2.395-.035 3.592-.007 2.244.052 4.497.066 6.728.321 1.71.196 3.39.594 5.08.926.994.195 2.003.34 2.975.626 1.434.424 2.813 1.021 4.187 1.611 2.187.94 4.363 1.924 6.449 3.071a44 44 0 0 1 4.197 2.64 58 58 0 0 1 4.846 3.832 47 47 0 0 1 3.343 3.267c1.03 1.107 2.931 3.463 2.931 3.463" style="fill:none;stroke:#f0f;stroke-width:.264583;stroke-linejoin:round;marker-start:url(#b);marker-end:url(#b)"/><text xml:space="preserve" style="font-size:16px;line-height:normal;font-family:&quot;Liberation Mono&quot;;-inkscape-font-specification:&quot;Liberation Mono&quot;;text-decoration-color:#000;white-space:pre;shape-inside:url(#e);display:inline;fill:#f0f;stroke-width:1;-inkscape-stroke:none;stop-color:#000" transform="translate(-1.916 203.432)scale(.26458)"><tspan x="495.004" y="173.504">module*Pi</tspan></text><path d="m113.547 268.327 16.856-17.952" style="fill:#f0f;stroke:#f0f;stroke-width:.264583;stroke-linejoin:round;marker-start:url(#b)"/><text xml:space="preserve" style="font-size:16px;line-height:normal;font-family:&quot;Liberation Mono&quot;;-inkscape-font-specification:&quot;Liberation Mono&quot;;text-decoration-color:#000;white-space:pre;shape-inside:url(#f);display:inline;fill:green;stroke-width:1;-inkscape-stroke:none;stop-color:#000" transform="translate(-5.961 209.921)scale(.26458)"><tspan x="44.596" y="163.311"><tspan style="font-weight:700;-inkscape-font-specification:&quot;Liberation Mono Bold&quot;">Dt</tspan>=module*Nt</tspan></text><path d="m9.883 254.758 28.992 17.361" style="fill:green;stroke:green;stroke-width:.264583;stroke-linejoin:round;marker-end:url(#b)"/><text xml:space="preserve" style="font-size:16px;line-height:normal;font-family:&quot;Liberation Mono&quot;;-inkscape-font-specification:&quot;Liberation Mono&quot;;text-decoration-color:#000;white-space:pre;shape-inside:url(#g);display:inline;fill:#6c5d53;stroke-width:1;-inkscape-stroke:none;stop-color:#000" transform="translate(-2.024 196.474)scale(.26458)"><tspan x="230.619" y="105.656">ati(%)</tspan></text><path d="m65.346 225.628 3.215 8.748" style="fill:#6c5d53;stroke:#6c5d53;stroke-width:.264582;stroke-linejoin:round;marker-end:url(#b)"/><circle cx="78.046" cy="307.348" r="42.98" style="fill:none;stroke:#aad400;stroke-width:.264583;stroke-linejoin:round"/><circle cx="78.046" cy="307.348" r="66.073" style="fill:none;stroke:#aad400;stroke-width:.264583;stroke-linejoin:round"/><path d="m78.155 307.352 28.243-78.529" style="fill:none;stroke:#b3b3b3;stroke-width:.264583;stroke-linejoin:round"/><text xml:space="preserve" style="font-size:16px;line-height:normal;font-family:&quot;Liberation Mono&quot;;-inkscape-font-specification:&quot;Liberation Mono&quot;;text-decoration-color:#000;white-space:pre;shape-inside:url(#h);display:inline;fill:#ac9d93;stroke-width:1;-inkscape-stroke:none;stop-color:#000" transform="translate(22.616 193.904)scale(.26458)"><tspan x="230.619" y="105.656">ate(%)</tspan></text><path d="m90.414 223.062-.953 6.317" style="fill:none;stroke:#ac9d93;stroke-width:.264583;stroke-linejoin:round;stroke-dasharray:none;marker-end:url(#b)"/><text xml:space="preserve" style="font-size:16px;line-height:normal;font-family:&quot;Liberation Mono&quot;;-inkscape-font-specification:&quot;Liberation Mono&quot;;text-decoration-color:#000;white-space:pre;shape-inside:url(#i);display:inline;fill:#d4aa00;stroke-width:1;-inkscape-stroke:none;stop-color:#000" transform="translate(10.69 204.359)scale(.26458)"><tspan x="92.693" y="109.479">Ht*<tspan style="font-weight:700;-inkscape-font-specification:&quot;Liberation Mono Bold&quot;">ah</tspan></tspan></text><text xml:space="preserve" style="font-size:16px;line-height:normal;font-family:&quot;Liberation Mono&quot;;-inkscape-font-specification:&quot;Liberation Mono&quot;;text-decoration-color:#000;white-space:pre;shape-inside:url(#j);display:inline;fill:#d4aa00;stroke-width:1;-inkscape-stroke:none;stop-color:#000" transform="translate(7.565 212.687)scale(.26458)"><tspan x="92.693" y="109.479">Ht*<tspan style="font-weight:700;-inkscape-font-specification:&quot;Liberation Mono Bold&quot;">dh</tspan></tspan></text><path d="m45.618 242.116 31.689 17.698" style="fill:none;stroke:#d4aa00;stroke-width:.264583;stroke-linejoin:round;stroke-dasharray:none;marker-end:url(#b)"/><path d="m47.768 233.82 29.498 16.52" style="fill:none;stroke:#d4aa00;stroke-width:.264583;stroke-linejoin:round;stroke-dasharray:none;marker-end:url(#k)"/><path d="m44.803 280.044 2.384 1.787" style="fill:#d4aa00;stroke:#d4aa00;stroke-width:.264583;stroke-linejoin:round;stroke-dasharray:none;marker-start:url(#b);marker-end:url(#b)"/><path d="m13.002 297.066 1.854.337" style="fill:#d4aa00;stroke:#d4aa00;stroke-width:.264583;stroke-linejoin:round;stroke-dasharray:none;marker-start:url(#b);marker-end:url(#b)"/><text xml:space="preserve" style="font-size:16px;line-height:normal;font-family:&quot;Liberation Mono&quot;;-inkscape-font-specification:&quot;Liberation Mono&quot;;text-decoration-color:#000;white-space:pre;shape-inside:url(#l);display:inline;fill:#d4aa00;stroke-width:1;-inkscape-stroke:none;stop-color:#000" transform="translate(-19.6 188.43)scale(.26458)"><tspan x="136.016" y="341.055">Ht*<tspan style="font-weight:700;-inkscape-font-specification:&quot;Liberation Mono Bold&quot;">deh</tspan></tspan></text><text xml:space="preserve" style="font-size:16px;line-height:normal;font-family:&quot;Liberation Mono&quot;;-inkscape-font-specification:&quot;Liberation Mono&quot;;text-decoration-color:#000;white-space:pre;shape-inside:url(#m);display:inline;fill:#d4aa00;stroke-width:1;-inkscape-stroke:none;stop-color:#000" transform="translate(-19.815 186.744)scale(.26458)"><tspan x="120.406" y="382.145">Ht*<tspan style="font-weight:700;-inkscape-font-specification:&quot;Liberation Mono Bold&quot;">aeh</tspan></tspan></text><path d="m23.284 288.132-8.68 7.754" style="fill:#d4aa00;stroke:#d4aa00;stroke-width:.264583;stroke-linejoin:round;stroke-dasharray:none;marker-end:url(#b)"/><path d="m32.51 277.934 11.338 2.445" style="fill:#d4aa00;stroke:#d4aa00;stroke-width:.264583;stroke-linejoin:round;stroke-dasharray:none;marker-end:url(#b)"/><text xml:space="preserve" style="font-size:16px;line-height:normal;font-family:&quot;Liberation Mono&quot;;-inkscape-font-specification:&quot;Liberation Mono&quot;;text-decoration-color:#000;white-space:pre;shape-inside:url(#n);display:inline;fill:#000;stroke-width:1;-inkscape-stroke:none;stop-color:#000" transform="translate(61.637 100.35)scale(.26458)"><tspan x="67.572" y="671.033">Rdi</tspan></text><text xml:space="preserve" style="font-size:16px;line-height:normal;font-family:&quot;Liberation Mono&quot;;-inkscape-font-specification:&quot;Liberation Mono&quot;;text-decoration-color:#000;white-space:pre;shape-inside:url(#o);display:inline;fill:#000;stroke-width:1;-inkscape-stroke:none;stop-color:#000" transform="translate(38.01 103.763)scale(.26458)"><tspan x="217.131" y="693.557">Rde</tspan></text><text xml:space="preserve" style="font-size:16px;line-height:normal;font-family:&quot;Liberation Mono&quot;;-inkscape-font-specification:&quot;Liberation Mono&quot;;text-decoration-color:#000;white-space:pre;shape-inside:url(#p);display:inline;fill:#000;stroke-width:1;-inkscape-stroke:none;stop-color:#000" transform="translate(69.952 89.222)scale(.26458)"><tspan x="41.443" y="616.074">Rai</tspan></text><text xml:space="preserve" style="font-size:16px;line-height:normal;font-family:&quot;Liberation Mono&quot;;-inkscape-font-specification:&quot;Liberation Mono&quot;;text-decoration-color:#000;white-space:pre;shape-inside:url(#q);display:inline;fill:#000;stroke-width:1;-inkscape-stroke:none;stop-color:#000" transform="translate(75.02 68.012)scale(.26458)"><tspan x="117.125" y="636.797">Rae</tspan></text><path d="m88.784 250.842 3.079-3.849" style="fill:none;stroke:#000;stroke-width:.264583;stroke-linejoin:round;stroke-dasharray:none;marker-end:url(#b)"/><path d="m107.253 236.975-10.485 6.411" style="fill:none;stroke:#000;stroke-width:.264583;stroke-linejoin:round;stroke-dasharray:none;marker-end:url(#b)"/><path d="m82.705 274.8 9.19-4.248" style="fill:none;stroke:#000;stroke-width:.264583;stroke-linejoin:round;stroke-dasharray:none;marker-end:url(#b)"/><path d="m97.723 283.5-1.763-14.428" style="fill:none;stroke:#000;stroke-width:.264583;stroke-linejoin:round;stroke-dasharray:none;marker-end:url(#b)"/><text xml:space="preserve" style="font-size:16px;line-height:normal;font-family:&quot;Liberation Mono&quot;;-inkscape-font-specification:&quot;Liberation Mono&quot;;text-decoration-color:#000;white-space:pre;shape-inside:url(#r);display:inline;fill:#000;stroke-width:1;-inkscape-stroke:none;stop-color:#000" transform="translate(28.712 161.27)scale(.26458)"><tspan x="265.332" y="499.852">SnAdi</tspan></text><text xml:space="preserve" style="font-size:16px;line-height:normal;font-family:&quot;Liberation Mono&quot;;-inkscape-font-specification:&quot;Liberation Mono&quot;;text-decoration-color:#000;white-space:pre;shape-inside:url(#s);display:inline;fill:#000;stroke-width:1;-inkscape-stroke:none;stop-color:#000" transform="translate(30.62 143.273)scale(.26458)"><tspan x="324.795" y="526.879">SnAde</tspan></text><path d="m105.47 289.995-1.386-11.805" style="fill:#fff;stroke:#000;stroke-width:.264583;stroke-linejoin:round;stroke-dasharray:none;marker-end:url(#b)"/><path d="m108.523 275.983 7.912 3.88" style="fill:#fff;stroke:#000;stroke-width:.264583;stroke-linejoin:round;stroke-dasharray:none;marker-start:url(#b)"/><path d="M54.879 246.163h48.695M54.71 243.972h48.695" style="fill:none;stroke:#ececec;stroke-width:.264583;stroke-linejoin:round"/><path d="m48.713 275.846 3.709-2.95 4.214-2.781 4.382-2.444 2.107-.843.422-22.587 32.194-.084v24.104l2.781 1.264 3.203 1.938 3.708 2.782 3.456 3.118 1.601 1.601 22.587-8.343 6.91 18.457" style="fill:none;stroke:teal;stroke-width:.529167;stroke-linejoin:round"/><path d="M50.417 278.783s1.667-1.804 2.622-2.622c.955-.819 2.065-1.55 3.099-2.265s1.907-1.398 3.099-2.026 4.052-1.669 4.052-1.669v-23.823l29.619-.06-.06 24.002s2.448.98 3.814 1.669 3.038 1.58 4.35 2.503c1.313.922 2.487 2.018 3.517 2.98 1.03.961 2.68 2.755 2.68 2.755l23.524-8.935 7.032 18.117" style="fill:none;stroke:red;stroke-width:.529167;stroke-linejoin:round"/><path d="M57.562 236.671s2.94-.643 4.418-.927c1.773-.34 3.543-.71 5.339-.927 2.44-.294 4.903-.421 7.363-.505 1.717-.06 3.436 0 5.154 0 1.964 0 3.93-.104 5.891 0 2.405.126 4.789.484 7.18.758 1.136.13 2.282.215 3.405.422.81.149 2.393.59 2.393.59" style="fill:none;stroke:#6c5d53;stroke-width:.264583;stroke-linejoin:round;marker-start:url(#t);marker-end:url(#t)"/><path d="M56.168 231.872s5.432-1.052 8.174-1.43c3.504-.484 7.026-.917 10.564-1.073 3.057-.135 6.122-.01 9.18.12 2.772.117 5.542.306 8.3.595 2.315.243 4.642.474 6.916.954 1.838.387 5.408 1.55 5.408 1.55" style="fill:none;stroke:#ac9d93;stroke-width:.264583;stroke-linejoin:round;stroke-dasharray:none;marker-start:url(#t);marker-end:url(#t)"/><path d="M137.901 261.5s1.52 1.472 2.027 2.384c.506.912.953 2.98.953 2.98" style="fill:none;stroke:#f60;stroke-width:.264583;stroke-linejoin:round;marker-end:url(#u)"/><text xml:space="preserve" style="font-size:16px;line-height:normal;font-family:&quot;Liberation Mono&quot;;-inkscape-font-specification:&quot;Liberation Mono&quot;;text-decoration-color:#000;white-space:pre;shape-inside:url(#v);display:inline;fill:#f60;stroke-width:1;-inkscape-stroke:none;stop-color:#000" transform="translate(-6.317 2.622)scale(.26458)"><tspan x="554.988" y="989.07">aM</tspan></text><text xml:space="preserve" style="font-style:normal;font-variant:normal;font-weight:700;font-stretch:normal;font-size:16px;line-height:normal;font-family:&quot;Liberation Mono&quot;;-inkscape-font-specification:&quot;Liberation Mono Bold&quot;;text-decoration-color:#000;white-space:pre;shape-inside:url(#w);display:inline;fill:#d4aa00;stroke-width:1;-inkscape-stroke:none;stop-color:#000" transform="translate(1.858 187.62)scale(.26458)"><tspan x="114.035" y="143.993">Ht</tspan></text><path d="M30.85 221.669h7.754v5.562H30.85z" style="fill:none;stroke:#d4aa00;stroke-width:.264583;stroke-linejoin:round"/></g></svg>