<svg xmlns="http://www.w3.org/2000/svg" width="450.683" height="532.869" viewBox="0 0 119.243 140.988"><defs><path id="p" d="M-75.174 2742.592h47.143v43.321h-47.143z"/><path id="o" d="M52.24 2771.897h317.262v45.869H52.24z"/><path id="l" d="M117.124 2307.345h53.156v32.434h-53.156z"/><path id="k" d="M222.536 2263.199h70.274v40.543h-70.274z"/><path id="j" d="M150.459 2252.387h63.968v35.137h-63.968z"/><path id="i" d="M85.591 2271.307h69.374v51.354H85.591z"/><path id="h" d="M283.801 2761.427h69.374v40.543h-69.374z"/><path id="g" d="M429.755 2709.171h73.878v47.751h-73.878z"/><path id="f" d="M427.954 2768.634h64.869v51.354h-64.869z"/><path id="e" d="M382.005 2762.328h80.185v48.652h-80.185z"/><path id="d" d="M475.704 2365.907h57.661v56.76h-57.661z"/><path id="c" d="M437.864 2323.563h80.185v58.562h-80.185z"/><marker id="m" markerHeight="1" markerWidth="1" orient="auto-start-reverse" preserveAspectRatio="xMidYMid" refX="0" refY="0" style="overflow:visible" viewBox="0 0 1 1"><path d="M3-3 0 0l3 3" style="fill:none;stroke:context-stroke;stroke-width:1;stroke-linecap:butt" transform="rotate(180 .125 0)"/></marker><marker id="b" markerHeight="1" markerWidth="1" orient="auto-start-reverse" preserveAspectRatio="xMidYMid" refX="0" refY="0" style="overflow:visible" viewBox="0 0 1 1"><path d="M3-3 0 0l3 3" style="fill:none;stroke:context-stroke;stroke-width:1;stroke-linecap:butt" transform="rotate(180 .125 0)"/></marker><marker id="a" markerHeight="1" markerWidth="1" orient="auto-start-reverse" preserveAspectRatio="xMidYMid" refX="0" refY="0" style="overflow:visible" viewBox="0 0 1 1"><path d="M3-3 0 0l3 3" style="fill:none;stroke:context-stroke;stroke-width:1;stroke-linecap:butt" transform="rotate(180 .125 0)"/></marker><marker id="n" markerHeight="1" markerWidth="1" orient="auto-start-reverse" preserveAspectRatio="xMidYMid" refX="0" refY="0" style="overflow:visible" viewBox="0 0 1 1"><path d="M3-3 0 0l3 3" style="fill:none;stroke:context-stroke;stroke-width:1;stroke-linecap:butt" transform="rotate(180 .125 0)"/></marker></defs><g transform="translate(-13.436 -600.43)"><path d="M13.569 600.563h118.979v140.724H13.569z" style="fill:#fff;stroke:#fff;stroke-width:.264583;stroke-linejoin:round"/><path d="M70.404 613.677v-10.25" style="fill:#fff;stroke:#d4aa00;stroke-width:.264583;stroke-linejoin:round;marker-start:url(#a)"/><path d="M71.75 681.772v-10.25" style="fill:#fff;stroke:#d4aa00;stroke-width:.264583;stroke-linejoin:round;marker-start:url(#b)"/><path d="M242.807 2668.736c-3.468-1.136-12.388-4.583-19.82-7.66-31.729-13.138-35.35-15.096-45.705-24.718l-6.962-6.47 11.692-13.82c6.432-7.6 11.693-13.933 11.693-14.075 0-.14-4.468-5.659-9.93-12.262-5.46-6.603-10.891-14.054-12.068-16.557-3.08-6.55-6.123-23.046-7.38-39.994-.384-5.179-1.038-8.573-1.701-8.828-.593-.227-9.138.19-18.989.928-9.85.738-18.036 1.215-18.19 1.061s-.324-5.704-.376-12.335c-.078-9.718.293-13.598 1.914-20.02 4.789-18.982 14.951-38.712 25.01-48.558l4.36-4.27 16.863 11.252c9.274 6.188 17.227 11.251 17.672 11.251s3.17-2.94 6.056-6.532c11.697-14.567 18.569-20.636 29.646-26.182 9.249-4.63 15.423-6.115 28.205-6.782l11.435-.596 1.748-18.245 1.748-18.244 17.172.016c20.132.018 26.27 1.048 36.878 6.186 13.958 6.76 25.825 16.49 38.088 31.23l3.736 4.491-11.661 13.854-11.662 13.855 8.457 8.655c15.183 15.538 21.788 31.112 23.347 55.055l.264 4.054 20.142.243 20.142.242-.414 20.48c-.373 18.479-.645 21.352-2.786 29.417-2.757 10.39-6.104 17.93-11.5 25.909-3.958 5.85-13.126 16.057-14.424 16.057-.4 0-9.898-5.27-21.105-11.713s-20.733-11.712-21.168-11.712c-.436 0-2.446 2.833-4.469 6.296-4.604 7.884-7.883 11.077-16.807 16.369-20.143 11.946-25.949 13.731-43.088 13.251l-11.737-.328-.51 20.722c-.28 11.397-.584 20.823-.676 20.947-.09.124-3.916.207-8.5.185-6.166-.03-9.973-.577-14.64-2.105zm41.895-91.258c24.391-6.681 40.372-32.26 36.074-57.743-4.11-24.366-25.404-42.073-50.534-42.02-23.258.05-43.205 15.427-49.032 37.798-1.752 6.726-1.77 19.242-.035 25.898 4.264 16.373 17.814 30.541 34.239 35.803 8.578 2.748 19.848 2.85 29.288.264z" style="fill:#ffd5d5;stroke:#ffd5d5;stroke-width:.999997;stroke-linejoin:round" transform="scale(.26458)"/><path d="M243.708 2733.44c-22.98-3.116-44.296-9.652-64.793-19.866-63.931-31.858-106.766-93.839-114.132-165.146-1.415-13.695-.569-39.793 1.726-53.234 9.828-57.568 41.963-107.114 90.257-139.159 50.786-33.698 114.771-43.069 173.434-25.399 68.881 20.748 122.765 77.067 140.507 146.86 4.71 18.53 6.217 30.905 6.211 51.034-.007 25.879-3.955 48.414-12.487 71.277-27.204 72.899-91.898 124.135-168.884 133.751-12.776 1.597-39.654 1.535-51.839-.117zm29.281-61.065c0-4.628.266-14.561.591-22.073l.592-13.658 11.797-.019c14.455-.023 18.614-1.293 35.072-10.707 12.64-7.23 18.842-12.333 23.153-19.051 1.85-2.883 3.38-4.38 4.169-4.078.685.263 10.41 5.758 21.614 12.212 11.202 6.453 20.86 11.733 21.463 11.733 1.582 0 12.007-12.661 17.962-21.814 11.885-18.27 15.072-31.67 15.271-64.227l.127-20.722-21.255-.241-21.255-.242-1.078-8.768c-1.437-11.7-3.175-18.117-7.298-26.943-4.574-9.791-8.026-14.786-15.522-22.455l-6.25-6.394 11.778-13.993c6.478-7.697 11.778-14.371 11.778-14.833 0-1.274-7.248-9.601-17.217-19.78-9.24-9.435-19.102-16.711-30.084-22.196-12.08-6.032-13.73-6.305-40.664-6.735l-24.448-.39-.533 8.869c-.293 4.877-.781 13.572-1.085 19.322l-.551 10.453-10.18.582c-11.12.635-19.126 2.673-27.95 7.118-11.817 5.952-19.096 12.27-29.736 25.814-2.373 3.02-4.466 5.493-4.65 5.493s-8.225-5.271-17.87-11.713c-9.643-6.442-17.954-11.712-18.468-11.712-1.4 0-12.525 12.04-16.91 18.302-8.699 12.42-17.1 33.328-19.617 48.819-1.852 11.398-1.106 33.576 1.159 34.445.749.288 9.751-.047 20.005-.744l18.644-1.267 1.521 12.614c2.064 17.11 4.462 28.183 7.347 33.927 1.325 2.64 6.277 9.567 11.003 15.394l8.592 10.595-2.271 2.927c-1.25 1.61-6.563 7.994-11.808 14.188s-9.541 11.731-9.547 12.305c-.011 1.147 12.746 13.837 18.46 18.363 6.114 4.843 19.073 10.773 53.39 24.432 11.013 4.383 15.148 5.142 28.371 5.205l12.388.059z" style="fill:#e3f4d7;stroke:#e3f4d7;stroke-width:.999997;stroke-linejoin:round" transform="scale(.26458)"/><circle cx="71.571" cy="668.993" r="33.392" style="fill:none;stroke:green;stroke-width:.264583;stroke-linejoin:round"/><path d="M110.13 667.696H99.403s-.265-4.691-.953-6.913a23.3 23.3 0 0 0-3.337-6.675c-1.117-1.55-4.053-4.052-4.053-4.052l6.198-7.39s-1.848-2.278-2.86-3.337c-1.205-1.26-2.397-2.562-3.814-3.576-2.343-1.674-4.858-3.27-7.629-4.052-2.451-.693-5.081-.398-7.628-.477-1.43-.045-4.29 0-4.29 0l-.954 9.773s-4.685-.13-6.913.477c-2.4.655-4.698 1.827-6.674 3.338-2.37 1.811-5.96 6.674-5.96 6.674l-9.297-6.198s-2.403 2.406-3.337 3.814c-1.709 2.577-3.054 5.417-4.052 8.344a23.8 23.8 0 0 0-1.192 5.72c-.156 1.903.238 5.722.238 5.722l10.012-.715s.325 4.629.715 6.912c.344 2.014.569 4.108 1.43 5.96.791 1.7 2.18 3.053 3.338 4.53.765.976 2.383 2.86 2.383 2.86l-6.197 7.39s2.98 3.117 4.767 4.29c2.557 1.678 5.512 2.658 8.343 3.814 2.816 1.15 5.586 2.575 8.582 3.1 1.487.26 4.53 0 4.53 0l.238-11.205s4.983.529 7.39 0c2.222-.488 4.22-1.735 6.197-2.86 1.341-.763 2.747-1.508 3.814-2.622 1.037-1.083 2.384-3.814 2.384-3.814l11.204 6.436s2.027-1.8 2.86-2.86c1.322-1.683 2.512-3.51 3.337-5.483.885-2.116 1.348-4.404 1.67-6.675.31-2.204.198-4.449.237-6.675.022-1.191 0-3.575 0-3.575z" style="fill:none;stroke:red;stroke-width:.264583;stroke-linejoin:round"/><circle cx="71.571" cy="668.993" r="13.13" style="fill:none;stroke:red;stroke-width:.264583;stroke-linejoin:round"/><path d="M112.037 667.094h-11.255s-.318-4.563-1-6.724a24.8 24.8 0 0 0-3.502-7.003c-1.026-1.424-3.722-3.723-3.722-3.723l6.502-7.753s-2.289-2.747-3.53-4.03c-1.27-1.315-2.514-2.689-4.002-3.752-2.457-1.757-5.096-3.43-8.003-4.252-2.572-.727-5.332-.417-8.003-.5-1.853-.058-5.56 0-5.56 0l-.472 10.254s-4.557-.097-6.724.5a20.6 20.6 0 0 0-7.003 3.502c-2.284 1.755-5.723 6.474-5.723 6.474l-9.754-6.503s-2.907 2.85-4.031 4.53c-1.804 2.697-3.205 5.684-4.252 8.754a25.3 25.3 0 0 0-1.25 6.003c-.2 2.347.25 7.06.25 7.06l10.504-.75s.382 4.148.75 6.195c.38 2.11.597 4.31 1.501 6.253.83 1.784 2.304 3.19 3.502 4.752.64.837 1.971 2.472 1.971 2.472l-6.502 7.753s3.45 3.659 5.531 5.032c2.678 1.767 5.783 2.788 8.754 4.001 2.954 1.207 5.86 2.702 9.003 3.252 1.908.334 5.81 0 5.81 0l.251-11.755s4.515.478 6.695 0c2.332-.512 4.428-1.82 6.503-3.002 1.407-.8 2.844-1.619 4.001-2.75 1.02-.998 2.501-3.473 2.501-3.473l11.755 6.753s2.097-2.279 3.002-3.53c1.314-1.82 2.636-3.682 3.501-5.753.928-2.22 1.414-4.62 1.75-7.003.328-2.313.21-4.668.251-7.003.026-1.427 0-4.281 0-4.281z" style="fill:none;stroke:teal;stroke-width:.264583;stroke-linejoin:round"/><circle cx="71.571" cy="668.993" r="55.085" style="fill:none;stroke:teal;stroke-width:.264583;stroke-linejoin:round"/><circle cx="92.133" cy="669.484" r="3.456" style="fill:#fff;stroke:red;stroke-width:.264583;stroke-linejoin:round"/><circle cx="70.721" cy="648.24" r="3.456" style="fill:#fff;stroke:red;stroke-width:.264583;stroke-linejoin:round"/><circle cx="86.265" cy="654.199" r="3.456" style="fill:#fff;stroke:red;stroke-width:.264583;stroke-linejoin:round"/><circle cx="55.873" cy="654.677" r="3.456" style="fill:#fff;stroke:red;stroke-width:.264583;stroke-linejoin:round"/><circle cx="51.224" cy="667.83" r="3.456" style="fill:#fff;stroke:red;stroke-width:.264583;stroke-linejoin:round"/><circle cx="56.987" cy="683.403" r="3.456" style="fill:#fff;stroke:red;stroke-width:.264583;stroke-linejoin:round"/><circle cx="72.159" cy="689.85" r="3.456" style="fill:#fff;stroke:red;stroke-width:.264583;stroke-linejoin:round"/><circle cx="86.998" cy="682.828" r="3.456" style="fill:#fff;stroke:red;stroke-width:.264583;stroke-linejoin:round"/><circle cx="71.571" cy="668.993" r="20.997" style="fill:none;stroke:#ccc;stroke-width:.264583;stroke-linejoin:round"/><circle cx="117.383" cy="669.296" r="3.456" style="fill:#fff;stroke:teal;stroke-width:.264583;stroke-linejoin:round"/><circle cx="70.501" cy="622.264" r="3.456" style="fill:#fff;stroke:teal;stroke-width:.264583;stroke-linejoin:round"/><circle cx="97.19" cy="629.847" r="3.456" style="fill:#fff;stroke:teal;stroke-width:.264583;stroke-linejoin:round"/><circle cx="111.813" cy="646.958" r="3.456" style="fill:#fff;stroke:teal;stroke-width:.264583;stroke-linejoin:round"/><circle cx="72.052" cy="715.638" r="3.456" style="fill:#fff;stroke:teal;stroke-width:.264583;stroke-linejoin:round"/><circle cx="96.657" cy="707.934" r="3.456" style="fill:#fff;stroke:teal;stroke-width:.264583;stroke-linejoin:round"/><circle cx="113.011" cy="690.511" r="3.456" style="fill:#fff;stroke:teal;stroke-width:.264583;stroke-linejoin:round"/><circle cx="25.288" cy="669.898" r="3.456" style="fill:#fff;stroke:teal;stroke-width:.264583;stroke-linejoin:round"/><circle cx="31.861" cy="644.548" r="3.456" style="fill:#fff;stroke:teal;stroke-width:.264583;stroke-linejoin:round"/><circle cx="48.518" cy="628.85" r="3.456" style="fill:#fff;stroke:teal;stroke-width:.264583;stroke-linejoin:round"/><circle cx="31.655" cy="693.074" r="3.456" style="fill:#fff;stroke:teal;stroke-width:.264583;stroke-linejoin:round"/><circle cx="48.046" cy="709.689" r="3.456" style="fill:#fff;stroke:teal;stroke-width:.264583;stroke-linejoin:round"/><circle cx="71.571" cy="668.993" r="46.503" style="fill:none;stroke:#ccc;stroke-width:.264582;stroke-linejoin:round"/><text xml:space="preserve" style="font-size:16px;line-height:normal;font-family:&quot;Liberation Mono&quot;;-inkscape-font-specification:&quot;Liberation Mono&quot;;text-decoration-color:#000;white-space:pre;shape-inside:url(#c);display:inline;fill:green;stroke-width:1;-inkscape-stroke:none;stop-color:#000" transform="translate(-24.417 -4.383)scale(.26458)"><tspan x="437.863" y="2337.799">Dt</tspan></text><text xml:space="preserve" style="font-size:16px;line-height:normal;font-family:&quot;Liberation Mono&quot;;-inkscape-font-specification:&quot;Liberation Mono&quot;;text-decoration-color:#000;white-space:pre;shape-inside:url(#d);display:inline;fill:green;stroke-width:1;-inkscape-stroke:none;stop-color:#000" transform="translate(-3.54 5.225)scale(.26458)"><tspan x="475.705" y="2380.145">Nt</tspan></text><text xml:space="preserve" style="font-size:16px;line-height:normal;font-family:&quot;Liberation Mono&quot;;-inkscape-font-specification:&quot;Liberation Mono&quot;;text-decoration-color:#000;white-space:pre;shape-inside:url(#e);display:inline;fill:#d4aa00;stroke-width:1;-inkscape-stroke:none;stop-color:#000" transform="translate(-11.968 -4.551)scale(.26458)"><tspan x="382.004" y="2776.565">Di</tspan></text><text xml:space="preserve" style="font-size:16px;line-height:normal;font-family:&quot;Liberation Mono&quot;;-inkscape-font-specification:&quot;Liberation Mono&quot;;text-decoration-color:#000;white-space:pre;shape-inside:url(#f);display:inline;fill:#d4aa00;stroke-width:1;-inkscape-stroke:none;stop-color:#000" transform="translate(1.011 -20.058)scale(.26458)"><tspan x="427.953" y="2782.871">DTi</tspan></text><text xml:space="preserve" style="font-size:16px;line-height:normal;font-family:&quot;Liberation Mono&quot;;-inkscape-font-specification:&quot;Liberation Mono&quot;;text-decoration-color:#000;white-space:pre;shape-inside:url(#g);display:inline;fill:#d4aa00;stroke-width:1;-inkscape-stroke:none;stop-color:#000" transform="translate(-41.718 -45.68)scale(.26458)"><tspan x="429.756" y="2723.408">Ei</tspan></text><text xml:space="preserve" style="font-size:16px;line-height:normal;font-family:&quot;Liberation Mono&quot;;-inkscape-font-specification:&quot;Liberation Mono&quot;;text-decoration-color:#000;white-space:pre;shape-inside:url(#h);display:inline;fill:#d4aa00;stroke-width:1;-inkscape-stroke:none;stop-color:#000" transform="translate(-18.373 -4.383)scale(.26458)"><tspan x="283.801" y="2775.662">Ni</tspan></text><text xml:space="preserve" style="font-size:16px;line-height:normal;font-family:&quot;Liberation Mono&quot;;-inkscape-font-specification:&quot;Liberation Mono&quot;;text-decoration-color:#000;white-space:pre;shape-inside:url(#i);display:inline;fill:#d4aa00;stroke-width:1;-inkscape-stroke:none;stop-color:#000" transform="translate(2.191 14.833)scale(.26458)"><tspan x="85.59" y="2285.543">Ne</tspan></text><text xml:space="preserve" style="font-size:16px;line-height:normal;font-family:&quot;Liberation Mono&quot;;-inkscape-font-specification:&quot;Liberation Mono&quot;;text-decoration-color:#000;white-space:pre;shape-inside:url(#j);display:inline;fill:#d4aa00;stroke-width:1;-inkscape-stroke:none;stop-color:#000" transform="translate(5.225 10.03)scale(.26458)"><tspan x="150.459" y="2266.623">De</tspan></text><text xml:space="preserve" style="font-size:16px;line-height:normal;font-family:&quot;Liberation Mono&quot;;-inkscape-font-specification:&quot;Liberation Mono&quot;;text-decoration-color:#000;white-space:pre;shape-inside:url(#k);display:inline;fill:#d4aa00;stroke-width:1;-inkscape-stroke:none;stop-color:#000" transform="translate(-3.624 6.513)scale(.26458)"><tspan x="222.535" y="2277.436">DTe</tspan></text><text xml:space="preserve" style="font-size:16px;line-height:normal;font-family:&quot;Liberation Mono&quot;;-inkscape-font-specification:&quot;Liberation Mono&quot;;text-decoration-color:#000;white-space:pre;shape-inside:url(#l);display:inline;fill:#d4aa00;stroke-width:1;-inkscape-stroke:none;stop-color:#000" transform="translate(39.985 -6.237)scale(.26458)"><tspan x="117.125" y="2321.582">Ee</tspan></text><path d="M71.906 686.635v10.25" style="fill:#fff;stroke:#d4aa00;stroke-width:.264583;stroke-linejoin:round;marker-start:url(#m)"/><path d="M70.467 619v10.251" style="fill:#fff;stroke:#d4aa00;stroke-width:.264583;stroke-linejoin:round;marker-start:url(#n)"/><path d="m27.98 620.716 2.95 19.722" style="fill:#d4aa00;stroke:#d4aa00;stroke-width:.264583;stroke-linejoin:round;marker-end:url(#m)"/><path d="m28.992 620.21 15.845 6.827" style="fill:#d4aa00;stroke:#d4aa00;stroke-width:.264583;stroke-linejoin:round;marker-end:url(#m)"/><path d="m49.05 610.519 6.069 14.327" style="fill:#d4aa00;stroke:#d4aa00;stroke-width:.264583;stroke-linejoin:round;marker-end:url(#m)"/><path d="m59.923 609.676 7.922 9.692" style="fill:#d4aa00;stroke:#d4aa00;stroke-width:.264583;stroke-linejoin:round;marker-end:url(#m)"/><path d="m95.91 640.185 25.62-5.562" style="fill:#d4aa00;stroke:green;stroke-width:.264583;stroke-linejoin:round;marker-start:url(#m)"/><path d="m123.722 635.634-15.17 31.352" style="fill:#d4aa00;stroke:green;stroke-width:.264583;stroke-linejoin:round;marker-end:url(#m)"/><path d="M93.381 614.564 81.92 636.14" style="fill:green;stroke:green;stroke-width:.264583;stroke-linejoin:round;marker-end:url(#m)"/><path d="m58.827 726.318-1.18-38.768" style="fill:#d4aa00;stroke:#d4aa00;stroke-width:.264583;stroke-linejoin:round;marker-end:url(#m)"/><path d="m60.85 725.813 9.439-32.026" style="fill:#d4aa00;stroke:#d4aa00;stroke-width:.264583;stroke-linejoin:round;marker-end:url(#m)"/><path d="M91.527 726.487 79.644 688.73" style="fill:#d4aa00;stroke:#d4aa00;stroke-width:.264583;stroke-linejoin:round;marker-end:url(#m)"/><path d="m116.137 712.497-25.79-27.56" style="fill:#d4aa00;stroke:#d4aa00;stroke-width:.264583;stroke-linejoin:round;marker-end:url(#m)"/><text xml:space="preserve" style="font-size:16px;line-height:normal;font-family:&quot;Liberation Mono&quot;;-inkscape-font-specification:&quot;Liberation Mono&quot;;text-decoration-color:#000;white-space:pre;shape-inside:url(#o);display:inline;fill:#d45500;stroke-width:1;-inkscape-stroke:none;stop-color:#000" transform="translate(3.034 .89)scale(.26458)"><tspan x="52.24" y="2786.133">make3D: [both, intern, extern]</tspan></text><path d="m20.058 726.318 5.731-9.439" style="fill:#a80;stroke:#d45500;stroke-width:.264583;stroke-linejoin:round;marker-end:url(#m)"/><text xml:space="preserve" style="font-size:16px;line-height:normal;font-family:&quot;Liberation Mono&quot;;-inkscape-font-specification:&quot;Liberation Mono&quot;;text-decoration-color:#000;white-space:pre;shape-inside:url(#p);fill:#d45500;stroke-width:1;-inkscape-stroke:none;stop-color:#000" transform="translate(43.488 -4.551)scale(.26458)"><tspan x="-75.174" y="2756.828">Th</tspan></text></g></svg>