<svg xmlns="http://www.w3.org/2000/svg" width="581.215" height="604.64" viewBox="0 0 153.78 159.978"><defs><path id="v" d="M114.036 129.963h52.24v33.765h-52.24z"/><path id="u" d="M198.21 501.832h348.67v39.192H198.21z"/><path id="t" d="M410.385 487.867h95.501v46.85h-95.501z"/><path id="s" d="M427.053 451.378h93.249v32.434h-93.249z"/><path id="r" d="M324.794 512.643h84.239v31.533h-84.239z"/><path id="q" d="M265.331 485.615h96.402v34.236h-96.402z"/><path id="p" d="M117.124 622.56h57.661v36.939h-57.661z"/><path id="o" d="M41.444 601.838h55.859v36.939H41.444z"/><path id="n" d="M217.13 679.32h102.709v44.147H217.13z"/><path id="m" d="M67.572 656.796h118.025v62.166H67.572z"/><path id="l" d="M120.406 367.909h108.611v26.493H120.406z"/><path id="k" d="M136.015 326.818h108.621v25.801H136.015z"/><path id="h" d="M92.694 95.242h102.568v29.624H92.694z"/><path id="f" d="M230.62 91.42h131.237v38.861H230.62z"/><path id="e" d="M44.595 149.075h123.273v30.898H44.595z"/><path id="d" d="M495.004 159.268h119.132v37.587H495.004z"/><path id="c" d="M453.631 84.69h50.904v41.444h-50.904z"/><path id="g" d="M230.62 91.42h131.237v38.861H230.62z"/><path id="i" d="M92.694 95.242h102.568v29.624H92.694z"/><marker id="a" markerHeight="1" markerWidth="1" orient="auto-start-reverse" preserveAspectRatio="xMidYMid" refX="0" refY="0" style="overflow:visible" viewBox="0 0 1 1"><path d="M3-3 0 0l3 3" style="fill:none;stroke:context-stroke;stroke-width:1;stroke-linecap:butt" transform="rotate(180 .125 0)"/></marker><marker id="b" markerHeight="1" markerWidth="1" orient="auto-start-reverse" preserveAspectRatio="xMidYMid" refX="0" refY="0" style="overflow:visible" viewBox="0 0 1 1"><path d="M3-3 0 0l3 3" style="fill:none;stroke:context-stroke;stroke-width:1;stroke-linecap:butt" transform="rotate(180 .125 0)"/></marker><marker id="j" markerHeight="1" markerWidth="1" orient="auto-start-reverse" preserveAspectRatio="xMidYMid" refX="0" refY="0" style="overflow:visible" viewBox="0 0 1 1"><path d="M3-3 0 0l3 3" style="fill:none;stroke:context-stroke;stroke-width:1;stroke-linecap:butt" transform="rotate(180 .125 0)"/></marker></defs><g transform="translate(-2.251 -30.142)"><path d="M2.384 30.274h153.515v159.713H2.384z" style="fill:#fff;stroke:#fff;stroke-width:.264583;stroke-linejoin:round;stroke-dasharray:none"/><circle cx="78.043" cy="120.452" r="51.747" style="fill:none;stroke:green;stroke-width:.264583;stroke-linejoin:round"/><path d="M78.043 120.452V49.826" style="fill:none;stroke:#00f;stroke-width:.264583;stroke-linejoin:round"/><path d="m78.043 120.452 19.72-66.412M78.041 120.418 56.006 46.25" style="fill:none;stroke:#b3b3b3;stroke-width:.264583;stroke-linejoin:round"/><path d="m78.048 120.414 40.28-58.115" style="fill:none;stroke:purple;stroke-width:.264583;stroke-linejoin:round"/><circle cx="77.939" cy="120.452" r="39.946" style="fill:none;stroke:#aad400;stroke-width:.264583;stroke-linejoin:round"/><circle cx="77.939" cy="120.452" r="63.713" style="fill:none;stroke:#aad400;stroke-width:.264582;stroke-linejoin:round"/><path d="m78.048 120.414 57.31-44.162" style="fill:none;stroke:#b3b3b3;stroke-width:.264583;stroke-linejoin:round"/><path d="m78.048 120.414 67.813-25.576" style="fill:none;stroke:#00f;stroke-width:.264583;stroke-linejoin:round"/><path d="m77.802 120.376-40.28-58.115" style="fill:none;stroke:purple;stroke-width:.264583;stroke-linejoin:round"/><path d="M78.043 68.748v8.256" style="fill:none;stroke:#d4aa00;stroke-width:.264583;stroke-linejoin:round;marker-start:url(#a);marker-end:url(#a)"/><path d="M78.043 56.902v11.637" style="fill:#d4aa00;stroke:#d4aa00;stroke-width:.264582;stroke-linejoin:round;marker-start:url(#b);marker-end:url(#b)"/><text xml:space="preserve" style="font-size:16px;line-height:normal;font-family:&quot;Liberation Mono&quot;;-inkscape-font-specification:&quot;Liberation Mono&quot;;text-decoration-color:#000;white-space:pre;shape-inside:url(#c);display:inline;fill:#1a1a1a;stroke-width:1;-inkscape-stroke:none;stop-color:#000" transform="translate(0 17.463)scale(.26458)"><tspan x="453.631" y="98.926">Nt</tspan></text><path d="m93.138 57.456 25.932-14.249" style="fill:#1a1a1a;stroke:#999;stroke-width:.264583;stroke-linejoin:round;marker-start:url(#a)"/><path d="m123.36 44.4 1.788 38.259" style="fill:#1a1a1a;stroke:#999;stroke-width:.264583;stroke-linejoin:round;marker-end:url(#a)"/><path d="M63.772 70.683s3.583-.9 5.4-1.213a49 49 0 0 1 5.28-.641c1.194-.073 2.394-.034 3.59-.006 2.245.051 4.498.065 6.729.32 1.71.196 3.39.595 5.08.926.994.196 2.003.34 2.974.627 1.435.424 2.814 1.02 4.188 1.61 2.187.94 4.363 1.924 6.449 3.072a44 44 0 0 1 4.197 2.64 58 58 0 0 1 4.846 3.831 47 47 0 0 1 3.343 3.267c1.03 1.107 2.931 3.463 2.931 3.463" style="fill:none;stroke:#f0f;stroke-width:.264583;stroke-linejoin:round;marker-start:url(#a);marker-end:url(#a)"/><text xml:space="preserve" style="font-size:16px;line-height:normal;font-family:&quot;Liberation Mono&quot;;-inkscape-font-specification:&quot;Liberation Mono&quot;;text-decoration-color:#000;white-space:pre;shape-inside:url(#d);display:inline;fill:#f0f;stroke-width:1;-inkscape-stroke:none;stop-color:#000" transform="translate(-2.023 16.535)scale(.26458)"><tspan x="495.004" y="173.504">module*Pi</tspan></text><path d="m113.946 81.009 16.35-17.53" style="fill:#f0f;stroke:#f0f;stroke-width:.264583;stroke-linejoin:round;marker-start:url(#a)"/><text xml:space="preserve" style="font-size:16px;line-height:normal;font-family:&quot;Liberation Mono&quot;;-inkscape-font-specification:&quot;Liberation Mono&quot;;text-decoration-color:#000;white-space:pre;shape-inside:url(#e);display:inline;fill:green;stroke-width:1;-inkscape-stroke:none;stop-color:#000" transform="translate(-6.068 23.025)scale(.26458)"><tspan x="44.596" y="163.311"><tspan style="font-weight:700;-inkscape-font-specification:&quot;Liberation Mono Bold&quot;">Dt</tspan>=module*Nt</tspan></text><path d="m9.776 67.861 28.992 17.362" style="fill:green;stroke:green;stroke-width:.264583;stroke-linejoin:round;marker-end:url(#a)"/><path d="M58.74 54.283s2.776-.644 4.173-.927c1.674-.34 3.346-.71 5.042-.927 2.304-.295 4.631-.422 6.954-.506 1.622-.059 3.246 0 4.868 0 1.855 0 3.712-.103 5.564 0 2.271.127 4.523.484 6.78.759 1.074.13 2.156.214 3.217.42.765.15 2.26.59 2.26.59" style="fill:none;stroke:#6c5d53;stroke-width:.264583;stroke-linejoin:round;marker-start:url(#a);marker-end:url(#a)"/><text xml:space="preserve" style="font-size:16px;line-height:normal;font-family:&quot;Liberation Mono&quot;;-inkscape-font-specification:&quot;Liberation Mono&quot;;text-decoration-color:#000;white-space:pre;shape-inside:url(#f);display:inline;fill:#6c5d53;stroke-width:1;-inkscape-stroke:none;stop-color:#000" transform="translate(-2.131 9.577)scale(.26458)"><tspan x="230.619" y="105.656">ati(%)</tspan></text><path d="m65.239 38.663 3.215 13.029" style="fill:#6c5d53;stroke:#6c5d53;stroke-width:.264582;stroke-linejoin:round;marker-end:url(#a)"/><circle cx="77.939" cy="120.452" r="42.98" style="fill:none;stroke:#aad400;stroke-width:.264583;stroke-linejoin:round"/><circle cx="77.939" cy="120.452" r="66.073" style="fill:none;stroke:#aad400;stroke-width:.264583;stroke-linejoin:round"/><path d="m78.045 120.453 26.539-73.805" style="fill:none;stroke:#b3b3b3;stroke-width:.264583;stroke-linejoin:round"/><path d="M57.091 48.81s5.15-1.053 7.748-1.431c3.321-.484 6.659-.917 10.012-1.073 2.897-.135 5.803-.01 8.7.12 2.627.117 5.253.307 7.867.595 2.195.243 4.4.474 6.555.954 1.742.388 5.125 1.55 5.125 1.55" style="fill:none;stroke:#ac9d93;stroke-width:.264583;stroke-linejoin:round;stroke-dasharray:none;marker-start:url(#a);marker-end:url(#a)"/><text xml:space="preserve" style="font-size:16px;line-height:normal;font-family:&quot;Liberation Mono&quot;;-inkscape-font-specification:&quot;Liberation Mono&quot;;text-decoration-color:#000;white-space:pre;shape-inside:url(#g);display:inline;fill:#ac9d93;stroke-width:1;-inkscape-stroke:none;stop-color:#000" transform="translate(24.097 10.712)scale(.26458)"><tspan x="230.619" y="105.656">ate(%)</tspan></text><path d="m91.895 39.87-.954 6.317" style="fill:none;stroke:#ac9d93;stroke-width:.264583;stroke-linejoin:round;stroke-dasharray:none;marker-end:url(#a)"/><path d="M50.483 87.246s2.427-1.752 3.667-2.59c.885-.6 1.76-1.223 2.693-1.744 1.726-.962 3.51-1.832 5.355-2.539 1.15-.44 3.54-1.051 3.54-1.051l-6.411-22.267s3.427-.902 5.155-1.291c1.255-.283 2.513-.56 3.784-.76 1.704-.268 3.42-.484 5.141-.589 1.508-.092 3.022-.065 4.532-.036 2.425.046 4.855.092 7.267.335 1.81.183 3.603.524 5.394.843 1.128.2 2.257.405 3.371.674 1.505.363 3.015.73 4.467 1.264.696.256 2.023.927 2.023.927l-7.838 21.576s2.612 1.005 3.877 1.601c1.353.637 2.69 1.32 3.96 2.107 1.439.89 2.812 1.89 4.13 2.95 1.21.972 2.331 2.05 3.456 3.118.893.848 1.791 1.695 2.613 2.613.48.536 1.348 1.685 1.348 1.685l18.373-13.906s1.37 1.782 2.023 2.697c.727 1.022 1.451 2.049 2.107 3.119.996 1.626 1.898 3.31 2.77 5.007.72 1.4 1.436 2.807 2.034 4.263.586 1.43 1.517 4.383 1.517 4.383" style="fill:none;stroke:teal;stroke-width:.529167;stroke-linejoin:round;stroke-dasharray:none"/><path d="M52.03 90.047s3.152-2.47 4.729-3.464a37.5 37.5 0 0 1 4.692-2.516c1.642-.742 5.143-1.917 5.143-1.917l-6.679-22.799s3.053-.867 4.934-1.253a68 68 0 0 1 6.351-1.002 65 65 0 0 1 6.74-.357c2.264 0 4.533.118 6.83.367 2.297.25 5.02.778 6.928 1.136 1.91.358 4.533.96 4.533.96L89.42 82.19s3.171 1.017 5.052 1.896c1.881.88 4.375 2.246 6.143 3.478a44 44 0 0 1 4.692 3.792c1.293 1.199 2.235 2.36 3 3.142.763.78 1.377 1.537 1.377 1.537l18.696-14.407s2.143 2.813 3.153 4.37a59 59 0 0 1 2.887 4.969 71 71 0 0 1 2.66 5.785c.751 1.858 1.869 5.335 1.869 5.335" style="fill:none;stroke:red;stroke-width:.529167;stroke-linejoin:round"/><text xml:space="preserve" style="font-size:16px;line-height:normal;font-family:&quot;Liberation Mono&quot;;-inkscape-font-specification:&quot;Liberation Mono&quot;;text-decoration-color:#000;white-space:pre;shape-inside:url(#h);display:inline;fill:#d4aa00;stroke-width:1;-inkscape-stroke:none;stop-color:#000" transform="translate(11.642 17.463)scale(.26458)"><tspan x="92.693" y="109.479">Ht*<tspan style="font-weight:700;-inkscape-font-specification:&quot;Liberation Mono Bold&quot;">ah</tspan></tspan></text><text xml:space="preserve" style="font-size:16px;line-height:normal;font-family:&quot;Liberation Mono&quot;;-inkscape-font-specification:&quot;Liberation Mono&quot;;text-decoration-color:#000;white-space:pre;shape-inside:url(#i);display:inline;fill:#d4aa00;stroke-width:1;-inkscape-stroke:none;stop-color:#000" transform="translate(9.575 25.791)scale(.26458)"><tspan x="92.693" y="109.479">Ht*<tspan style="font-weight:700;-inkscape-font-specification:&quot;Liberation Mono Bold&quot;">dh</tspan></tspan></text><path d="M45.51 55.22 77.2 72.918" style="fill:none;stroke:#d4aa00;stroke-width:.264583;stroke-linejoin:round;stroke-dasharray:none;marker-end:url(#a)"/><path d="m47.661 46.924 29.498 16.52" style="fill:none;stroke:#d4aa00;stroke-width:.264583;stroke-linejoin:round;stroke-dasharray:none;marker-end:url(#j)"/><path d="m44.696 93.147 2.384 1.788" style="fill:#d4aa00;stroke:#d4aa00;stroke-width:.264583;stroke-linejoin:round;stroke-dasharray:none;marker-start:url(#a);marker-end:url(#a)"/><path d="m12.895 110.17 1.854.337" style="fill:#d4aa00;stroke:#d4aa00;stroke-width:.264583;stroke-linejoin:round;stroke-dasharray:none;marker-start:url(#a);marker-end:url(#a)"/><text xml:space="preserve" style="font-size:16px;line-height:normal;font-family:&quot;Liberation Mono&quot;;-inkscape-font-specification:&quot;Liberation Mono&quot;;text-decoration-color:#000;white-space:pre;shape-inside:url(#k);display:inline;fill:#d4aa00;stroke-width:1;-inkscape-stroke:none;stop-color:#000" transform="translate(-19.177 1.534)scale(.26458)"><tspan x="136.016" y="341.055">Ht*<tspan style="font-weight:700;-inkscape-font-specification:&quot;Liberation Mono Bold&quot;">deh</tspan></tspan></text><text xml:space="preserve" style="font-size:16px;line-height:normal;font-family:&quot;Liberation Mono&quot;;-inkscape-font-specification:&quot;Liberation Mono&quot;;text-decoration-color:#000;white-space:pre;shape-inside:url(#l);display:inline;fill:#d4aa00;stroke-width:1;-inkscape-stroke:none;stop-color:#000" transform="translate(-20.45 -.152)scale(.26458)"><tspan x="120.406" y="382.145">Ht*<tspan style="font-weight:700;-inkscape-font-specification:&quot;Liberation Mono Bold&quot;">aeh</tspan></tspan></text><path d="m23.177 101.236-8.681 7.754" style="fill:#d4aa00;stroke:#d4aa00;stroke-width:.264583;stroke-linejoin:round;stroke-dasharray:none;marker-end:url(#a)"/><path d="m32.403 91.038 11.338 2.444" style="fill:#d4aa00;stroke:#d4aa00;stroke-width:.264583;stroke-linejoin:round;stroke-dasharray:none;marker-end:url(#a)"/><text xml:space="preserve" style="font-size:16px;line-height:normal;font-family:&quot;Liberation Mono&quot;;-inkscape-font-specification:&quot;Liberation Mono&quot;;text-decoration-color:#000;white-space:pre;shape-inside:url(#m);display:inline;fill:#000;stroke-width:1;-inkscape-stroke:none;stop-color:#000" transform="translate(61.53 -86.546)scale(.26458)"><tspan x="67.572" y="671.033">Rdi</tspan></text><text xml:space="preserve" style="font-size:16px;line-height:normal;font-family:&quot;Liberation Mono&quot;;-inkscape-font-specification:&quot;Liberation Mono&quot;;text-decoration-color:#000;white-space:pre;shape-inside:url(#n);display:inline;fill:#000;stroke-width:1;-inkscape-stroke:none;stop-color:#000" transform="translate(37.902 -83.133)scale(.26458)"><tspan x="217.131" y="693.557">Rde</tspan></text><text xml:space="preserve" style="font-size:16px;line-height:normal;font-family:&quot;Liberation Mono&quot;;-inkscape-font-specification:&quot;Liberation Mono&quot;;text-decoration-color:#000;white-space:pre;shape-inside:url(#o);display:inline;fill:#000;stroke-width:1;-inkscape-stroke:none;stop-color:#000" transform="translate(69.845 -97.674)scale(.26458)"><tspan x="41.443" y="616.074">Rai</tspan></text><text xml:space="preserve" style="font-size:16px;line-height:normal;font-family:&quot;Liberation Mono&quot;;-inkscape-font-specification:&quot;Liberation Mono&quot;;text-decoration-color:#000;white-space:pre;shape-inside:url(#p);display:inline;fill:#000;stroke-width:1;-inkscape-stroke:none;stop-color:#000" transform="translate(79.38 -109.95)scale(.26458)"><tspan x="117.125" y="636.797">Rae</tspan></text><path d="m88.676 63.946 6.198-3.933" style="fill:none;stroke:#000;stroke-width:.264583;stroke-linejoin:round;stroke-dasharray:none;marker-end:url(#a)"/><path d="m110.011 57.748-8.462.596" style="fill:none;stroke:#000;stroke-width:.264583;stroke-linejoin:round;stroke-dasharray:none;marker-end:url(#a)"/><path d="m82.598 87.903 5.483-5.006" style="fill:none;stroke:#000;stroke-width:.264583;stroke-linejoin:round;stroke-dasharray:none;marker-end:url(#a)"/><path d="m97.616 96.604-4.291-15.018" style="fill:none;stroke:#000;stroke-width:.264583;stroke-linejoin:round;stroke-dasharray:none;marker-end:url(#a)"/><text xml:space="preserve" style="font-size:16px;line-height:normal;font-family:&quot;Liberation Mono&quot;;-inkscape-font-specification:&quot;Liberation Mono&quot;;text-decoration-color:#000;white-space:pre;shape-inside:url(#q);display:inline;fill:#000;stroke-width:1;-inkscape-stroke:none;stop-color:#000" transform="translate(28.605 -25.626)scale(.26458)"><tspan x="265.332" y="499.852">SnAdi</tspan></text><text xml:space="preserve" style="font-size:16px;line-height:normal;font-family:&quot;Liberation Mono&quot;;-inkscape-font-specification:&quot;Liberation Mono&quot;;text-decoration-color:#000;white-space:pre;shape-inside:url(#r);display:inline;fill:#000;stroke-width:1;-inkscape-stroke:none;stop-color:#000" transform="translate(30.512 -43.623)scale(.26458)"><tspan x="324.795" y="526.879">SnAde</tspan></text><text xml:space="preserve" style="font-size:16px;line-height:normal;font-family:&quot;Liberation Mono&quot;;-inkscape-font-specification:&quot;Liberation Mono&quot;;text-decoration-color:#000;white-space:pre;shape-inside:url(#s);display:inline;fill:#000;stroke-width:1;-inkscape-stroke:none;stop-color:#000" transform="translate(16.806 -13.588)scale(.26458)"><tspan x="427.053" y="465.615">SnAai</tspan></text><text xml:space="preserve" style="font-size:16px;line-height:normal;font-family:&quot;Liberation Mono&quot;;-inkscape-font-specification:&quot;Liberation Mono&quot;;text-decoration-color:#000;white-space:pre;shape-inside:url(#t);display:inline;fill:#000;stroke-width:1;-inkscape-stroke:none;stop-color:#000" transform="translate(26.355 -53.353)scale(.26458)"><tspan x="410.385" y="502.104">SnAae</tspan></text><path d="m105.363 103.098 1.311-8.939" style="fill:#fff;stroke:#000;stroke-width:.264583;stroke-linejoin:round;stroke-dasharray:none;marker-end:url(#a)"/><path d="m110.607 90.941 5.721 2.026" style="fill:#fff;stroke:#000;stroke-width:.264583;stroke-linejoin:round;stroke-dasharray:none;marker-start:url(#a)"/><path d="m139.808 80.452-4.529 4.887" style="fill:#fff;stroke:#000;stroke-width:.264583;stroke-linejoin:round;stroke-dasharray:none;marker-end:url(#a)"/><path d="m134.087 106.436 3.457-5.364" style="fill:#fff;stroke:#000;stroke-width:.264583;stroke-linejoin:round;stroke-dasharray:none;marker-end:url(#a)"/><text xml:space="preserve" style="font-size:16px;line-height:normal;font-family:&quot;Liberation Mono&quot;;-inkscape-font-specification:&quot;Liberation Mono&quot;;text-decoration-color:#000;white-space:pre;shape-inside:url(#u);display:inline;fill:#000;stroke-width:1;-inkscape-stroke:none;stop-color:#000" transform="translate(-12.396)scale(.26458)"><tspan x="198.211" y="516.068">teethStyle: [<tspan style="font-weight:700;-inkscape-font-specification:&quot;Liberation Mono Bold&quot;">radial</tspan>, adden, deden]</tspan></text><text xml:space="preserve" style="font-style:normal;font-variant:normal;font-weight:700;font-stretch:normal;font-size:16px;line-height:normal;font-family:&quot;Liberation Mono&quot;;-inkscape-font-specification:&quot;Liberation Mono Bold&quot;;text-decoration-color:#000;white-space:pre;shape-inside:url(#v);fill:#d4aa00;stroke-width:1;-inkscape-stroke:none;stop-color:#000" transform="scale(.26458)"><tspan x="114.035" y="143.993">Ht</tspan></text><path d="M28.992 34.049h7.754v5.562h-7.754z" style="fill:none;stroke:#d4aa00;stroke-width:.264583;stroke-linejoin:round"/></g></svg>