<svg xmlns="http://www.w3.org/2000/svg" width="457.784" height="382.104" viewBox="0 0 121.122 101.098"><defs><marker id="c" markerHeight="1" markerWidth="1" orient="auto-start-reverse" preserveAspectRatio="xMidYMid" refX="0" refY="0" style="overflow:visible" viewBox="0 0 1 1"><path d="M3-3 0 0l3 3" style="fill:none;stroke:context-stroke;stroke-width:1;stroke-linecap:butt" transform="rotate(180 .125 0)"/></marker><marker id="b" markerHeight="1" markerWidth="1" orient="auto-start-reverse" preserveAspectRatio="xMidYMid" refX="0" refY="0" style="overflow:visible" viewBox="0 0 1 1"><path d="M3-3 0 0l3 3" style="fill:none;stroke:context-stroke;stroke-width:1;stroke-linecap:butt" transform="rotate(180 .125 0)"/></marker><marker id="d" markerHeight="1" markerWidth="1" orient="auto-start-reverse" preserveAspectRatio="xMidYMid" refX="0" refY="0" style="overflow:visible" viewBox="0 0 1 1"><path d="M3-3 0 0l3 3" style="fill:none;stroke:context-stroke;stroke-width:1;stroke-linecap:butt" transform="rotate(180 .125 0)"/></marker><marker id="f" markerHeight="1" markerWidth="1" orient="auto-start-reverse" preserveAspectRatio="xMidYMid" refX="0" refY="0" style="overflow:visible" viewBox="0 0 1 1"><path d="M3-3 0 0l3 3" style="fill:none;stroke:context-stroke;stroke-width:1;stroke-linecap:butt" transform="rotate(180 .125 0)"/></marker><marker id="h" markerHeight="1" markerWidth="1" orient="auto-start-reverse" preserveAspectRatio="xMidYMid" refX="0" refY="0" style="overflow:visible" viewBox="0 0 1 1"><path d="M3-3 0 0l3 3" style="fill:none;stroke:context-stroke;stroke-width:1;stroke-linecap:butt" transform="rotate(180 .125 0)"/></marker><marker id="i" markerHeight="1" markerWidth="1" orient="auto-start-reverse" preserveAspectRatio="xMidYMid" refX="0" refY="0" style="overflow:visible" viewBox="0 0 1 1"><path d="M3-3 0 0l3 3" style="fill:none;stroke:context-stroke;stroke-width:1;stroke-linecap:butt" transform="rotate(180 .125 0)"/></marker><marker id="k" markerHeight="1" markerWidth="1" orient="auto-start-reverse" preserveAspectRatio="xMidYMid" refX="0" refY="0" style="overflow:visible" viewBox="0 0 1 1"><path d="M3-3 0 0l3 3" style="fill:none;stroke:context-stroke;stroke-width:1;stroke-linecap:butt" transform="rotate(180 .125 0)"/></marker><marker id="m" markerHeight="1" markerWidth="1" orient="auto-start-reverse" preserveAspectRatio="xMidYMid" refX="0" refY="0" style="overflow:visible" viewBox="0 0 1 1"><path d="M3-3 0 0l3 3" style="fill:none;stroke:context-stroke;stroke-width:1;stroke-linecap:butt" transform="rotate(180 .125 0)"/></marker><path id="a" d="M229.275 527.96h111.099v67.572H229.275z"/><path id="e" d="M229.275 527.96h111.099v67.572H229.275z"/><path id="g" d="M229.275 527.96h111.099v67.572H229.275z"/><path id="j" d="M229.275 527.96h121.46v64.869h-121.46z"/><path id="l" d="M229.275 527.96h121.46v64.869h-121.46z"/><path id="n" d="M229.275 527.96h111.099v67.572H229.275z"/></defs><g transform="translate(-29.665 -255.647)"><path d="M29.797 255.779h120.857v100.834H29.797z" style="fill:#fff;stroke:#fff;stroke-width:.264583;stroke-linejoin:round"/><path d="M101.309 270.984v11.976l-7.39-.05s-1.906-.242-2.752-.658c-.674-.332-1.24-.867-1.752-1.416-.392-.422-.76-.887-.985-1.417-.324-.766-.469-1.616-.477-2.447-.007-.677.146-1.354.348-2 .134-.427.313-.848.567-1.216a6.6 6.6 0 0 1 1.56-1.6 6.3 6.3 0 0 1 1.836-.889c.533-.162 1.655-.233 1.655-.233z" style="fill:#ffe6d5;stroke:#000;stroke-width:.264583;stroke-linejoin:round"/><path d="M86.53 270.984v11.976l7.39-.05s1.905-.242 2.751-.658c.675-.332 1.24-.867 1.752-1.416.392-.422.761-.887.985-1.417.324-.766.47-1.616.477-2.447.007-.677-.145-1.354-.348-2a4.5 4.5 0 0 0-.567-1.216 6.6 6.6 0 0 0-1.56-1.6 6.3 6.3 0 0 0-1.836-.889c-.533-.162-1.655-.233-1.655-.233z" style="fill:#c8ab37;stroke:#000;stroke-width:.264583;stroke-linejoin:round"/><path d="M-268.481 78.061h1.416v29.138h-1.416z" style="fill:#c8ab37;stroke:#000;stroke-width:.264584;stroke-linejoin:round" transform="rotate(-90)"/><path d="M-272.4 78.061h1.416v2.893h-1.416z" style="fill:#c8ab37;stroke:#000;stroke-width:.264583;stroke-linejoin:round" transform="rotate(-90)"/><path d="M-273.816 79.507h1.416v5.576h-1.416z" style="fill:teal;stroke:#000;stroke-width:.264583;stroke-linejoin:round" transform="rotate(-90)"/><path d="M-275.233 78.061h1.416v2.893h-1.416zM-272.4 83.636h1.416v2.893h-1.416zM-275.233 83.636h1.416v2.893h-1.416z" style="fill:#c8ab37;stroke:#000;stroke-width:.264583;stroke-linejoin:round" transform="rotate(-90)"/><path d="M86.53 270.984h1.423v11.976H86.53z" style="fill:none;stroke:#ccc;stroke-width:.264583;stroke-linejoin:round"/><path d="M-280.127 78.061h1.416v2.893h-1.416z" style="fill:#c8ab37;stroke:#000;stroke-width:.264583;stroke-linejoin:round" transform="rotate(-90)"/><path d="M-281.544 79.507h1.416v5.576h-1.416z" style="fill:teal;stroke:#000;stroke-width:.264583;stroke-linejoin:round" transform="rotate(-90)"/><path d="M-282.96 78.061h1.416v2.893h-1.416zM-280.127 83.636h1.416v2.893h-1.416zM-282.96 83.636h1.416v2.893h-1.416z" style="fill:#c8ab37;stroke:#000;stroke-width:.264583;stroke-linejoin:round" transform="rotate(-90)"/><path d="M-287.437 78.061h1.416v29.138h-1.416z" style="fill:#c8ab37;stroke:#000;stroke-width:.264584;stroke-linejoin:round" transform="rotate(-90)"/><ellipse cx="93.919" cy="276.972" rx="5.966" ry="5.937" style="fill:none;stroke:#ccc;stroke-width:.264583;stroke-linejoin:round"/><rect width="2.665" height="1.58" x="101.332" y="276.182" ry="0" style="fill:#666;stroke:#000;stroke-width:.264583;stroke-linejoin:round"/><rect width="5.145" height="10.35" x="102.053" y="271.797" ry="1.416" style="fill:#666;stroke:#000;stroke-width:.264583;stroke-linejoin:round"/><path d="M46.273 270.984v11.976l7.39-.05s1.906-.242 2.752-.658c.674-.332 1.24-.867 1.752-1.416.392-.422.76-.887.985-1.417.324-.766.469-1.616.477-2.447.007-.677-.145-1.354-.348-2a4.5 4.5 0 0 0-.567-1.216 6.6 6.6 0 0 0-1.56-1.6 6.3 6.3 0 0 0-1.836-.889c-.533-.162-1.655-.233-1.655-.233z" style="fill:#ffe6d5;stroke:#000;stroke-width:.264583;stroke-linejoin:round"/><path d="M61.053 270.984v11.976l-7.39-.05s-1.906-.242-2.752-.658c-.675-.332-1.24-.867-1.752-1.416-.392-.422-.761-.887-.985-1.417-.324-.766-.469-1.616-.477-2.447-.007-.677.145-1.354.348-2 .134-.427.313-.848.567-1.216a6.6 6.6 0 0 1 1.56-1.6 6.3 6.3 0 0 1 1.836-.889c.533-.162 1.655-.233 1.655-.233z" style="fill:#c8ab37;stroke:#000;stroke-width:.264583;stroke-linejoin:round"/><path d="M-268.481-69.522h1.416v29.138h-1.416z" style="fill:#c8ab37;stroke:#000;stroke-width:.264584;stroke-linejoin:round" transform="rotate(90)scale(-1 1)"/><path d="M-272.4-69.522h1.416v2.893h-1.416z" style="fill:#c8ab37;stroke:#000;stroke-width:.264583;stroke-linejoin:round" transform="rotate(90)scale(-1 1)"/><path d="M-273.816-68.075h1.416v5.576h-1.416z" style="fill:teal;stroke:#000;stroke-width:.264583;stroke-linejoin:round" transform="rotate(90)scale(-1 1)"/><path d="M-275.233-69.522h1.416v2.893h-1.416zM-272.4-63.946h1.416v2.893h-1.416zM-275.233-63.946h1.416v2.893h-1.416z" style="fill:#c8ab37;stroke:#000;stroke-width:.264583;stroke-linejoin:round" transform="rotate(90)scale(-1 1)"/><path d="M-61.053 270.984h1.423v11.976h-1.423z" style="fill:none;stroke:#ccc;stroke-width:.264583;stroke-linejoin:round" transform="scale(-1 1)"/><path d="M-280.127-69.522h1.416v2.893h-1.416z" style="fill:#c8ab37;stroke:#000;stroke-width:.264583;stroke-linejoin:round" transform="rotate(90)scale(-1 1)"/><path d="M-281.544-68.075h1.416v5.576h-1.416z" style="fill:teal;stroke:#000;stroke-width:.264583;stroke-linejoin:round" transform="rotate(90)scale(-1 1)"/><path d="M-282.96-69.522h1.416v2.893h-1.416zM-280.127-63.946h1.416v2.893h-1.416zM-282.96-63.946h1.416v2.893h-1.416z" style="fill:#c8ab37;stroke:#000;stroke-width:.264583;stroke-linejoin:round" transform="rotate(90)scale(-1 1)"/><path d="M-287.437-69.522h1.416v29.138h-1.416z" style="fill:#c8ab37;stroke:#000;stroke-width:.264584;stroke-linejoin:round" transform="rotate(90)scale(-1 1)"/><ellipse cx="-53.663" cy="276.972" rx="5.966" ry="5.937" style="fill:none;stroke:#ccc;stroke-width:.264583;stroke-linejoin:round" transform="scale(-1 1)"/><rect width="2.665" height="1.58" x="-46.25" y="276.182" ry="0" style="fill:#666;stroke:#000;stroke-width:.264583;stroke-linejoin:round" transform="scale(-1 1)"/><rect width="5.145" height="10.35" x="-45.529" y="271.797" ry="1.416" style="fill:#666;stroke:#000;stroke-width:.264583;stroke-linejoin:round" transform="scale(-1 1)"/><path d="M101.309 289.94v11.976l-7.39-.05s-1.906-.242-2.752-.658c-.674-.331-1.24-.867-1.752-1.416-.392-.421-.76-.887-.985-1.416-.324-.766-.469-1.617-.477-2.448-.007-.676.146-1.354.348-2 .134-.426.313-.848.567-1.216a6.6 6.6 0 0 1 1.56-1.599 6.3 6.3 0 0 1 1.836-.89c.533-.161 1.655-.232 1.655-.232z" style="fill:#ffe6d5;stroke:#000;stroke-width:.264583;stroke-linejoin:round"/><path d="M86.53 289.94v11.976l7.39-.05s1.905-.242 2.751-.658c.675-.331 1.24-.867 1.752-1.416.392-.421.761-.887.985-1.416.324-.766.47-1.617.477-2.448.007-.676-.145-1.354-.348-2a4.5 4.5 0 0 0-.567-1.216 6.6 6.6 0 0 0-1.56-1.599 6.3 6.3 0 0 0-1.836-.89c-.533-.161-1.655-.232-1.655-.232zM69.522 286.021h1.423v20.373h-1.423z" style="fill:#c8ab37;stroke:#000;stroke-width:.264583;stroke-linejoin:round"/><path d="M70.945 286.021h5.693v20.373h-5.693z" style="fill:#fff6d5;stroke:#000;stroke-width:.264584;stroke-linejoin:round"/><path d="M76.637 286.021h1.423v20.373h-1.423z" style="fill:#c8ab37;stroke:#000;stroke-width:.264583;stroke-linejoin:round"/><path d="M-287.437 78.061h1.416v29.138h-1.416z" style="fill:#c8ab37;stroke:#000;stroke-width:.264584;stroke-linejoin:round" transform="rotate(-90)"/><path d="M-291.356 78.061h1.416v2.893h-1.416z" style="fill:#c8ab37;stroke:#000;stroke-width:.264583;stroke-linejoin:round" transform="rotate(-90)"/><path d="M-292.773 79.507h1.416v5.576h-1.416z" style="fill:teal;stroke:#000;stroke-width:.264583;stroke-linejoin:round" transform="rotate(-90)"/><path d="M-294.189 78.061h1.416v2.893h-1.416zM-291.356 83.636h1.416v2.893h-1.416zM-294.189 83.636h1.416v2.893h-1.416z" style="fill:#c8ab37;stroke:#000;stroke-width:.264583;stroke-linejoin:round" transform="rotate(-90)"/><path d="M86.53 289.94h1.423v11.976H86.53z" style="fill:none;stroke:#ccc;stroke-width:.264583;stroke-linejoin:round"/><path d="M-299.084 78.061h1.416v2.893h-1.416z" style="fill:#c8ab37;stroke:#000;stroke-width:.264583;stroke-linejoin:round" transform="rotate(-90)"/><path d="M-300.5 79.507h1.416v5.576h-1.416z" style="fill:teal;stroke:#000;stroke-width:.264583;stroke-linejoin:round" transform="rotate(-90)"/><path d="M-301.916 78.061h1.416v2.893h-1.416zM-299.084 83.636h1.416v2.893h-1.416zM-301.916 83.636h1.416v2.893h-1.416z" style="fill:#c8ab37;stroke:#000;stroke-width:.264583;stroke-linejoin:round" transform="rotate(-90)"/><path d="M-306.394 78.061h1.416v29.138h-1.416z" style="fill:#c8ab37;stroke:#000;stroke-width:.264584;stroke-linejoin:round" transform="rotate(-90)"/><ellipse cx="93.919" cy="295.928" rx="5.966" ry="5.937" style="fill:none;stroke:#ccc;stroke-width:.264583;stroke-linejoin:round"/><rect width="2.665" height="1.58" x="101.332" y="295.138" ry="0" style="fill:#666;stroke:#000;stroke-width:.264583;stroke-linejoin:round"/><rect width="5.145" height="10.35" x="102.053" y="290.753" ry="1.416" style="fill:#666;stroke:#000;stroke-width:.264583;stroke-linejoin:round"/><path d="M46.273 289.94v11.976l7.39-.05s1.906-.242 2.752-.658c.674-.331 1.24-.867 1.752-1.416.392-.421.76-.887.985-1.416.324-.766.469-1.617.477-2.448.007-.676-.145-1.354-.348-2a4.5 4.5 0 0 0-.567-1.216 6.6 6.6 0 0 0-1.56-1.599 6.3 6.3 0 0 0-1.836-.89c-.533-.161-1.655-.232-1.655-.232z" style="fill:#ffe6d5;stroke:#000;stroke-width:.264583;stroke-linejoin:round"/><path d="M61.053 289.94v11.976l-7.39-.05s-1.906-.242-2.752-.658c-.675-.331-1.24-.867-1.752-1.416-.392-.421-.761-.887-.985-1.416-.324-.766-.469-1.617-.477-2.448-.007-.676.145-1.354.348-2 .134-.426.313-.848.567-1.216a6.6 6.6 0 0 1 1.56-1.599 6.3 6.3 0 0 1 1.836-.89c.533-.161 1.655-.232 1.655-.232z" style="fill:#c8ab37;stroke:#000;stroke-width:.264583;stroke-linejoin:round"/><path d="M-287.437-69.522h1.416v29.138h-1.416z" style="fill:#c8ab37;stroke:#000;stroke-width:.264584;stroke-linejoin:round" transform="rotate(90)scale(-1 1)"/><path d="M-291.356-69.522h1.416v2.893h-1.416z" style="fill:#c8ab37;stroke:#000;stroke-width:.264583;stroke-linejoin:round" transform="rotate(90)scale(-1 1)"/><path d="M-292.773-68.075h1.416v5.576h-1.416z" style="fill:teal;stroke:#000;stroke-width:.264583;stroke-linejoin:round" transform="rotate(90)scale(-1 1)"/><path d="M-294.189-69.522h1.416v2.893h-1.416zM-291.356-63.946h1.416v2.893h-1.416zM-294.189-63.946h1.416v2.893h-1.416z" style="fill:#c8ab37;stroke:#000;stroke-width:.264583;stroke-linejoin:round" transform="rotate(90)scale(-1 1)"/><path d="M-61.053 289.94h1.423v11.976h-1.423z" style="fill:none;stroke:#ccc;stroke-width:.264583;stroke-linejoin:round" transform="scale(-1 1)"/><path d="M-299.084-69.522h1.416v2.893h-1.416z" style="fill:#c8ab37;stroke:#000;stroke-width:.264583;stroke-linejoin:round" transform="rotate(90)scale(-1 1)"/><path d="M-300.5-68.075h1.416v5.576h-1.416z" style="fill:teal;stroke:#000;stroke-width:.264583;stroke-linejoin:round" transform="rotate(90)scale(-1 1)"/><path d="M-301.916-69.522h1.416v2.893h-1.416zM-299.084-63.946h1.416v2.893h-1.416zM-301.916-63.946h1.416v2.893h-1.416z" style="fill:#c8ab37;stroke:#000;stroke-width:.264583;stroke-linejoin:round" transform="rotate(90)scale(-1 1)"/><path d="M-306.394-69.522h1.416v29.138h-1.416z" style="fill:#c8ab37;stroke:#000;stroke-width:.264584;stroke-linejoin:round" transform="rotate(90)scale(-1 1)"/><ellipse cx="-53.663" cy="295.928" rx="5.966" ry="5.937" style="fill:none;stroke:#ccc;stroke-width:.264583;stroke-linejoin:round" transform="scale(-1 1)"/><rect width="2.665" height="1.58" x="-46.25" y="295.138" ry="0" style="fill:#666;stroke:#000;stroke-width:.264583;stroke-linejoin:round" transform="scale(-1 1)"/><rect width="5.145" height="10.35" x="-45.529" y="290.753" ry="1.416" style="fill:#666;stroke:#000;stroke-width:.264583;stroke-linejoin:round" transform="scale(-1 1)"/><path d="M101.309 308.896v11.977l-7.39-.05s-1.906-.242-2.752-.658c-.674-.332-1.24-.867-1.752-1.417-.392-.42-.76-.887-.985-1.416-.324-.766-.469-1.616-.477-2.447-.007-.677.146-1.355.348-2 .134-.427.313-.848.567-1.216a6.6 6.6 0 0 1 1.56-1.6 6.3 6.3 0 0 1 1.836-.889c.533-.162 1.655-.233 1.655-.233z" style="fill:#ffe6d5;stroke:#000;stroke-width:.264583;stroke-linejoin:round"/><path d="M86.53 308.896v11.977l7.39-.05s1.905-.242 2.751-.658c.675-.332 1.24-.867 1.752-1.417.392-.42.761-.887.985-1.416.324-.766.47-1.616.477-2.447.007-.677-.145-1.355-.348-2a4.5 4.5 0 0 0-.567-1.216 6.6 6.6 0 0 0-1.56-1.6 6.3 6.3 0 0 0-1.836-.889c-.533-.162-1.655-.233-1.655-.233zM69.522 304.977h1.423v20.373h-1.423z" style="fill:#c8ab37;stroke:#000;stroke-width:.264583;stroke-linejoin:round"/><path d="M70.945 304.977h5.693v20.373h-5.693z" style="fill:#fff6d5;stroke:#000;stroke-width:.264584;stroke-linejoin:round"/><path d="M76.637 304.977h1.423v20.373h-1.423z" style="fill:#c8ab37;stroke:#000;stroke-width:.264583;stroke-linejoin:round"/><path d="M-306.394 78.061h1.416v29.138h-1.416z" style="fill:#c8ab37;stroke:#000;stroke-width:.264584;stroke-linejoin:round" transform="rotate(-90)"/><path d="M-310.313 78.061h1.416v2.893h-1.416z" style="fill:#c8ab37;stroke:#000;stroke-width:.264583;stroke-linejoin:round" transform="rotate(-90)"/><path d="M-311.729 79.507h1.416v5.576h-1.416z" style="fill:teal;stroke:#000;stroke-width:.264583;stroke-linejoin:round" transform="rotate(-90)"/><path d="M-313.145 78.061h1.416v2.893h-1.416zM-310.313 83.636h1.416v2.893h-1.416zM-313.145 83.636h1.416v2.893h-1.416z" style="fill:#c8ab37;stroke:#000;stroke-width:.264583;stroke-linejoin:round" transform="rotate(-90)"/><path d="M86.53 308.896h1.423v11.976H86.53z" style="fill:none;stroke:#ccc;stroke-width:.264583;stroke-linejoin:round"/><path d="M-318.04 78.061h1.416v2.893h-1.416z" style="fill:#c8ab37;stroke:#000;stroke-width:.264583;stroke-linejoin:round" transform="rotate(-90)"/><path d="M-319.457 79.507h1.416v5.576h-1.416z" style="fill:teal;stroke:#000;stroke-width:.264583;stroke-linejoin:round" transform="rotate(-90)"/><path d="M-320.873 78.061h1.416v2.893h-1.416zM-318.04 83.636h1.416v2.893h-1.416zM-320.873 83.636h1.416v2.893h-1.416z" style="fill:#c8ab37;stroke:#000;stroke-width:.264583;stroke-linejoin:round" transform="rotate(-90)"/><path d="M-325.35 78.061h1.416v29.138h-1.416z" style="fill:#c8ab37;stroke:#000;stroke-width:.264584;stroke-linejoin:round" transform="rotate(-90)"/><ellipse cx="93.919" cy="314.885" rx="5.966" ry="5.937" style="fill:none;stroke:#ccc;stroke-width:.264583;stroke-linejoin:round"/><rect width="2.665" height="1.58" x="101.332" y="314.095" ry="0" style="fill:#666;stroke:#000;stroke-width:.264583;stroke-linejoin:round"/><rect width="5.145" height="10.35" x="102.053" y="309.71" ry="1.416" style="fill:#666;stroke:#000;stroke-width:.264583;stroke-linejoin:round"/><path d="M46.273 308.896v11.977l7.39-.05s1.906-.242 2.752-.658c.674-.332 1.24-.867 1.752-1.417.392-.42.76-.887.985-1.416.324-.766.469-1.616.477-2.447.007-.677-.145-1.355-.348-2a4.5 4.5 0 0 0-.567-1.216 6.6 6.6 0 0 0-1.56-1.6 6.3 6.3 0 0 0-1.836-.889c-.533-.162-1.655-.233-1.655-.233z" style="fill:#ffe6d5;stroke:#000;stroke-width:.264583;stroke-linejoin:round"/><path d="M61.053 308.896v11.977l-7.39-.05s-1.906-.242-2.752-.658c-.675-.332-1.24-.867-1.752-1.417-.392-.42-.761-.887-.985-1.416-.324-.766-.469-1.616-.477-2.447-.007-.677.145-1.355.348-2 .134-.427.313-.848.567-1.216a6.6 6.6 0 0 1 1.56-1.6 6.3 6.3 0 0 1 1.836-.889c.533-.162 1.655-.233 1.655-.233z" style="fill:#c8ab37;stroke:#000;stroke-width:.264583;stroke-linejoin:round"/><path d="M-306.394-69.522h1.416v29.138h-1.416z" style="fill:#c8ab37;stroke:#000;stroke-width:.264584;stroke-linejoin:round" transform="rotate(90)scale(-1 1)"/><path d="M-310.313-69.522h1.416v2.893h-1.416z" style="fill:#c8ab37;stroke:#000;stroke-width:.264583;stroke-linejoin:round" transform="rotate(90)scale(-1 1)"/><path d="M-311.729-68.075h1.416v5.576h-1.416z" style="fill:teal;stroke:#000;stroke-width:.264583;stroke-linejoin:round" transform="rotate(90)scale(-1 1)"/><path d="M-313.145-69.522h1.416v2.893h-1.416zM-310.313-63.946h1.416v2.893h-1.416zM-313.145-63.946h1.416v2.893h-1.416z" style="fill:#c8ab37;stroke:#000;stroke-width:.264583;stroke-linejoin:round" transform="rotate(90)scale(-1 1)"/><path d="M-61.053 308.896h1.423v11.976h-1.423z" style="fill:none;stroke:#ccc;stroke-width:.264583;stroke-linejoin:round" transform="scale(-1 1)"/><path d="M-318.04-69.522h1.416v2.893h-1.416z" style="fill:#c8ab37;stroke:#000;stroke-width:.264583;stroke-linejoin:round" transform="rotate(90)scale(-1 1)"/><path d="M-319.457-68.075h1.416v5.576h-1.416z" style="fill:teal;stroke:#000;stroke-width:.264583;stroke-linejoin:round" transform="rotate(90)scale(-1 1)"/><path d="M-320.873-69.522h1.416v2.893h-1.416zM-318.04-63.946h1.416v2.893h-1.416zM-320.873-63.946h1.416v2.893h-1.416z" style="fill:#c8ab37;stroke:#000;stroke-width:.264583;stroke-linejoin:round" transform="rotate(90)scale(-1 1)"/><path d="M-325.35-69.522h1.416v29.138h-1.416z" style="fill:#c8ab37;stroke:#000;stroke-width:.264584;stroke-linejoin:round" transform="rotate(90)scale(-1 1)"/><ellipse cx="-53.663" cy="314.885" rx="5.966" ry="5.937" style="fill:none;stroke:#ccc;stroke-width:.264583;stroke-linejoin:round" transform="scale(-1 1)"/><rect width="2.665" height="1.58" x="-46.25" y="314.095" ry="0" style="fill:#666;stroke:#000;stroke-width:.264583;stroke-linejoin:round" transform="scale(-1 1)"/><rect width="5.145" height="10.35" x="-45.529" y="309.71" ry="1.416" style="fill:#666;stroke:#000;stroke-width:.264583;stroke-linejoin:round" transform="scale(-1 1)"/><path d="M101.309 327.853v11.976l-7.39-.05s-1.906-.242-2.752-.658c-.674-.332-1.24-.867-1.752-1.416-.392-.422-.76-.887-.985-1.417-.324-.765-.469-1.616-.477-2.447-.007-.677.146-1.354.348-2 .134-.427.313-.848.567-1.216a6.6 6.6 0 0 1 1.56-1.6 6.3 6.3 0 0 1 1.836-.889c.533-.162 1.655-.233 1.655-.233z" style="fill:#ffe6d5;stroke:#000;stroke-width:.264583;stroke-linejoin:round"/><path d="M86.53 327.853v11.976l7.39-.05s1.905-.242 2.751-.658c.675-.332 1.24-.867 1.752-1.416.392-.422.761-.887.985-1.417.324-.765.47-1.616.477-2.447.007-.677-.145-1.354-.348-2a4.5 4.5 0 0 0-.567-1.216 6.6 6.6 0 0 0-1.56-1.6 6.3 6.3 0 0 0-1.836-.889c-.533-.162-1.655-.233-1.655-.233zM69.522 323.934h1.423v20.373h-1.423z" style="fill:#c8ab37;stroke:#000;stroke-width:.264583;stroke-linejoin:round"/><path d="M70.945 323.934h5.693v20.373h-5.693z" style="fill:#fff6d5;stroke:#000;stroke-width:.264584;stroke-linejoin:round"/><path d="M76.637 323.934h1.423v20.373h-1.423z" style="fill:#c8ab37;stroke:#000;stroke-width:.264583;stroke-linejoin:round"/><path d="M-325.35 78.061h1.416v29.138h-1.416z" style="fill:#c8ab37;stroke:#000;stroke-width:.264584;stroke-linejoin:round" transform="rotate(-90)"/><path d="M-329.269 78.061h1.416v2.893h-1.416z" style="fill:#c8ab37;stroke:#000;stroke-width:.264583;stroke-linejoin:round" transform="rotate(-90)"/><path d="M-330.685 79.507h1.416v5.576h-1.416z" style="fill:teal;stroke:#000;stroke-width:.264583;stroke-linejoin:round" transform="rotate(-90)"/><path d="M-332.102 78.061h1.416v2.893h-1.416zM-329.269 83.636h1.416v2.893h-1.416zM-332.102 83.636h1.416v2.893h-1.416z" style="fill:#c8ab37;stroke:#000;stroke-width:.264583;stroke-linejoin:round" transform="rotate(-90)"/><path d="M86.53 327.853h1.423v11.976H86.53z" style="fill:none;stroke:#ccc;stroke-width:.264583;stroke-linejoin:round"/><path d="M-336.997 78.061h1.416v2.893h-1.416z" style="fill:#c8ab37;stroke:#000;stroke-width:.264583;stroke-linejoin:round" transform="rotate(-90)"/><path d="M-338.413 79.507h1.416v5.576h-1.416z" style="fill:teal;stroke:#000;stroke-width:.264583;stroke-linejoin:round" transform="rotate(-90)"/><path d="M-339.829 78.061h1.416v2.893h-1.416zM-336.997 83.636h1.416v2.893h-1.416zM-339.829 83.636h1.416v2.893h-1.416z" style="fill:#c8ab37;stroke:#000;stroke-width:.264583;stroke-linejoin:round" transform="rotate(-90)"/><path d="M-344.306 78.061h1.416v29.138h-1.416z" style="fill:#c8ab37;stroke:#000;stroke-width:.264584;stroke-linejoin:round" transform="rotate(-90)"/><ellipse cx="93.919" cy="333.841" rx="5.966" ry="5.937" style="fill:none;stroke:#ccc;stroke-width:.264583;stroke-linejoin:round"/><rect width="2.665" height="1.58" x="101.332" y="333.051" ry="0" style="fill:#666;stroke:#000;stroke-width:.264583;stroke-linejoin:round"/><rect width="5.145" height="10.35" x="102.053" y="328.666" ry="1.416" style="fill:#666;stroke:#000;stroke-width:.264583;stroke-linejoin:round"/><path d="M46.273 327.853v11.976l7.39-.05s1.906-.242 2.752-.658c.674-.332 1.24-.867 1.752-1.416.392-.422.76-.887.985-1.417.324-.765.469-1.616.477-2.447.007-.677-.145-1.354-.348-2a4.5 4.5 0 0 0-.567-1.216 6.6 6.6 0 0 0-1.56-1.6 6.3 6.3 0 0 0-1.836-.889c-.533-.162-1.655-.233-1.655-.233z" style="fill:#ffe6d5;stroke:#000;stroke-width:.264583;stroke-linejoin:round"/><path d="M61.053 327.853v11.976l-7.39-.05s-1.906-.242-2.752-.658c-.675-.332-1.24-.867-1.752-1.416-.392-.422-.761-.887-.985-1.417-.324-.765-.469-1.616-.477-2.447-.007-.677.145-1.354.348-2 .134-.427.313-.848.567-1.216a6.6 6.6 0 0 1 1.56-1.6 6.3 6.3 0 0 1 1.836-.889c.533-.162 1.655-.233 1.655-.233z" style="fill:#c8ab37;stroke:#000;stroke-width:.264583;stroke-linejoin:round"/><path d="M-325.35-69.522h1.416v29.138h-1.416z" style="fill:#c8ab37;stroke:#000;stroke-width:.264584;stroke-linejoin:round" transform="rotate(90)scale(-1 1)"/><path d="M-329.269-69.522h1.416v2.893h-1.416z" style="fill:#c8ab37;stroke:#000;stroke-width:.264583;stroke-linejoin:round" transform="rotate(90)scale(-1 1)"/><path d="M-330.685-68.075h1.416v5.576h-1.416z" style="fill:teal;stroke:#000;stroke-width:.264583;stroke-linejoin:round" transform="rotate(90)scale(-1 1)"/><path d="M-332.102-69.522h1.416v2.893h-1.416zM-329.269-63.946h1.416v2.893h-1.416zM-332.102-63.946h1.416v2.893h-1.416z" style="fill:#c8ab37;stroke:#000;stroke-width:.264583;stroke-linejoin:round" transform="rotate(90)scale(-1 1)"/><path d="M-61.053 327.853h1.423v11.976h-1.423z" style="fill:none;stroke:#ccc;stroke-width:.264583;stroke-linejoin:round" transform="scale(-1 1)"/><path d="M-336.997-69.522h1.416v2.893h-1.416z" style="fill:#c8ab37;stroke:#000;stroke-width:.264583;stroke-linejoin:round" transform="rotate(90)scale(-1 1)"/><path d="M-338.413-68.075h1.416v5.576h-1.416z" style="fill:teal;stroke:#000;stroke-width:.264583;stroke-linejoin:round" transform="rotate(90)scale(-1 1)"/><path d="M-339.829-69.522h1.416v2.893h-1.416zM-336.997-63.946h1.416v2.893h-1.416zM-339.829-63.946h1.416v2.893h-1.416z" style="fill:#c8ab37;stroke:#000;stroke-width:.264583;stroke-linejoin:round" transform="rotate(90)scale(-1 1)"/><path d="M-344.306-69.522h1.416v29.138h-1.416z" style="fill:#c8ab37;stroke:#000;stroke-width:.264584;stroke-linejoin:round" transform="rotate(90)scale(-1 1)"/><ellipse cx="-53.663" cy="333.841" rx="5.966" ry="5.937" style="fill:none;stroke:#ccc;stroke-width:.264583;stroke-linejoin:round" transform="scale(-1 1)"/><rect width="2.665" height="1.58" x="-46.25" y="333.051" ry="0" style="fill:#666;stroke:#000;stroke-width:.264583;stroke-linejoin:round" transform="scale(-1 1)"/><rect width="5.145" height="10.35" x="-45.529" y="328.666" ry="1.416" style="fill:#666;stroke:#000;stroke-width:.264583;stroke-linejoin:round" transform="scale(-1 1)"/><path d="M70.945 267.065h5.693v77.242h-5.693z" style="fill:#fff6d5;stroke:#000;stroke-width:.264584;stroke-linejoin:round"/><path d="M69.522 267.065h1.423v77.242h-1.423zM76.637 267.065h1.423v77.242h-1.423z" style="fill:#c8ab37;stroke:#000;stroke-width:.264582;stroke-linejoin:round"/><text xml:space="preserve" style="font-size:16px;line-height:normal;font-family:&quot;Liberation Mono&quot;;-inkscape-font-specification:&quot;Liberation Mono&quot;;text-decoration-color:#000;white-space:pre;shape-inside:url(#a);display:inline;fill:#d40000;stroke-width:1;-inkscape-stroke:none;stop-color:#000" transform="translate(11.418 120.566)scale(.26458)"><tspan x="229.275" y="542.195">W1</tspan></text><path d="m116.932 266.932-7.628 10.962" style="fill:#ffe6d5;stroke:#f55;stroke-width:.264583;stroke-linejoin:round;marker-end:url(#b)"/><path d="M40.388 265.477h66.686" style="fill:#ffe6d5;stroke:#f55;stroke-width:.264583;stroke-linejoin:round;marker-start:url(#c);marker-end:url(#c)"/><path d="m117.647 267.898-9.058 25.086" style="fill:#ffe6d5;stroke:#f55;stroke-width:.264583;stroke-linejoin:round;marker-end:url(#d)"/><text xml:space="preserve" style="font-size:16px;line-height:normal;font-family:&quot;Liberation Mono&quot;;-inkscape-font-specification:&quot;Liberation Mono&quot;;text-decoration-color:#000;white-space:pre;shape-inside:url(#e);display:inline;fill:#d40000;stroke-width:1;-inkscape-stroke:none;stop-color:#000" transform="translate(56.378 123.4)scale(.26458)"><tspan x="229.275" y="542.195">N1</tspan></text><path d="M38.796 268.86v16.777" style="fill:#ffe6d5;stroke:#f55;stroke-width:.264583;stroke-linejoin:round;marker-start:url(#f);marker-end:url(#f)"/><text xml:space="preserve" style="font-size:16px;line-height:normal;font-family:&quot;Liberation Mono&quot;;-inkscape-font-specification:&quot;Liberation Mono&quot;;text-decoration-color:#000;white-space:pre;shape-inside:url(#g);display:inline;fill:#d40000;stroke-width:1;-inkscape-stroke:none;stop-color:#000" transform="translate(-27.705 133.988)scale(.26458)"><tspan x="229.275" y="542.195">L1</tspan></text><path d="m115.563 313.103-7.509-7.274" style="fill:#ffe6d5;stroke:#f55;stroke-width:.264583;stroke-linejoin:round;marker-end:url(#h)"/><path d="m115.11 316.515-7.508 7.274" style="fill:#ffe6d5;stroke:#f55;stroke-width:.264583;stroke-linejoin:round;marker-end:url(#i)"/><text xml:space="preserve" style="font-size:16px;line-height:normal;font-family:&quot;Liberation Mono&quot;;-inkscape-font-specification:&quot;Liberation Mono&quot;;text-decoration-color:#000;white-space:pre;shape-inside:url(#j);display:inline;fill:#d40000;stroke-width:1;-inkscape-stroke:none;stop-color:#000" transform="translate(55.007 169.956)scale(.26458)"><tspan x="229.275" y="542.195">triangleInt:
</tspan><tspan x="229.275" y="562.195">[On, Off]</tspan></text><path d="m115.505 335.415-7.51 7.274" style="fill:#ffe6d5;stroke:#f55;stroke-width:.264583;stroke-linejoin:round;marker-end:url(#k)"/><text xml:space="preserve" style="font-size:16px;line-height:normal;font-family:&quot;Liberation Mono&quot;;-inkscape-font-specification:&quot;Liberation Mono&quot;;text-decoration-color:#000;white-space:pre;shape-inside:url(#l);display:inline;fill:#d40000;stroke-width:1;-inkscape-stroke:none;stop-color:#000" transform="translate(54.613 190.57)scale(.26458)"><tspan x="229.275" y="542.195">triangleExt:
</tspan><tspan x="229.275" y="562.195">[On, Off]</tspan></text><path d="M69.642 345.715h8.037" style="fill:#ffe6d5;stroke:#f55;stroke-width:.264583;stroke-linejoin:round;marker-start:url(#m);marker-end:url(#m)"/><text xml:space="preserve" style="font-size:16px;line-height:normal;font-family:&quot;Liberation Mono&quot;;-inkscape-font-specification:&quot;Liberation Mono&quot;;text-decoration-color:#000;white-space:pre;shape-inside:url(#n);display:inline;fill:#d40000;stroke-width:1;-inkscape-stroke:none;stop-color:#000" transform="translate(10.608 206.367)scale(.26458)"><tspan x="229.275" y="542.195">W2</tspan></text></g></svg>