<svg xmlns="http://www.w3.org/2000/svg" width="567.356" height="345.019" viewBox="0 0 150.113 91.286"><defs><marker id="d" markerHeight="1" markerWidth="1" orient="auto-start-reverse" preserveAspectRatio="xMidYMid" refX="0" refY="0" style="overflow:visible" viewBox="0 0 1 1"><path d="M3-3 0 0l3 3" style="fill:none;stroke:context-stroke;stroke-width:1;stroke-linecap:butt" transform="rotate(180 .125 0)"/></marker><marker id="e" markerHeight="1" markerWidth="1" orient="auto-start-reverse" preserveAspectRatio="xMidYMid" refX="0" refY="0" style="overflow:visible" viewBox="0 0 1 1"><path d="M3-3 0 0l3 3" style="fill:none;stroke:context-stroke;stroke-width:1;stroke-linecap:butt" transform="rotate(180 .125 0)"/></marker><marker id="g" markerHeight="1" markerWidth="1" orient="auto-start-reverse" preserveAspectRatio="xMidYMid" refX="0" refY="0" style="overflow:visible" viewBox="0 0 1 1"><path d="M3-3 0 0l3 3" style="fill:none;stroke:context-stroke;stroke-width:1;stroke-linecap:butt" transform="rotate(180 .125 0)"/></marker><marker id="i" markerHeight="1" markerWidth="1" orient="auto-start-reverse" preserveAspectRatio="xMidYMid" refX="0" refY="0" style="overflow:visible" viewBox="0 0 1 1"><path d="M3-3 0 0l3 3" style="fill:none;stroke:context-stroke;stroke-width:1;stroke-linecap:butt" transform="rotate(180 .125 0)"/></marker><marker id="o" markerHeight="1" markerWidth="1" orient="auto-start-reverse" preserveAspectRatio="xMidYMid" refX="0" refY="0" style="overflow:visible" viewBox="0 0 1 1"><path d="M3-3 0 0l3 3" style="fill:none;stroke:context-stroke;stroke-width:1;stroke-linecap:butt" transform="rotate(180 .125 0)"/></marker><marker id="q" markerHeight="1" markerWidth="1" orient="auto-start-reverse" preserveAspectRatio="xMidYMid" refX="0" refY="0" style="overflow:visible" viewBox="0 0 1 1"><path d="M3-3 0 0l3 3" style="fill:none;stroke:context-stroke;stroke-width:1;stroke-linecap:butt" transform="rotate(180 .125 0)"/></marker><marker id="l" markerHeight="1" markerWidth="1" orient="auto-start-reverse" preserveAspectRatio="xMidYMid" refX="0" refY="0" style="overflow:visible" viewBox="0 0 1 1"><path d="M3-3 0 0l3 3" style="fill:none;stroke:context-stroke;stroke-width:1;stroke-linecap:butt" transform="rotate(180 .125 0)"/></marker><marker id="n" markerHeight="1" markerWidth="1" orient="auto-start-reverse" preserveAspectRatio="xMidYMid" refX="0" refY="0" style="overflow:visible" viewBox="0 0 1 1"><path d="M3-3 0 0l3 3" style="fill:none;stroke:context-stroke;stroke-width:1;stroke-linecap:butt" transform="rotate(180 .125 0)"/></marker><marker id="r" markerHeight="1" markerWidth="1" orient="auto-start-reverse" preserveAspectRatio="xMidYMid" refX="0" refY="0" style="overflow:visible" viewBox="0 0 1 1"><path d="M3-3 0 0l3 3" style="fill:none;stroke:context-stroke;stroke-width:1;stroke-linecap:butt" transform="rotate(180 .125 0)"/></marker><marker id="t" markerHeight="1" markerWidth="1" orient="auto-start-reverse" preserveAspectRatio="xMidYMid" refX="0" refY="0" style="overflow:visible" viewBox="0 0 1 1"><path d="M3-3 0 0l3 3" style="fill:none;stroke:context-stroke;stroke-width:1;stroke-linecap:butt" transform="rotate(180 .125 0)"/></marker><marker id="u" markerHeight="1" markerWidth="1" orient="auto-start-reverse" preserveAspectRatio="xMidYMid" refX="0" refY="0" style="overflow:visible" viewBox="0 0 1 1"><path d="M3-3 0 0l3 3" style="fill:none;stroke:context-stroke;stroke-width:1;stroke-linecap:butt" transform="rotate(180 .125 0)"/></marker><marker id="x" markerHeight="1" markerWidth="1" orient="auto-start-reverse" preserveAspectRatio="xMidYMid" refX="0" refY="0" style="overflow:visible" viewBox="0 0 1 1"><path d="M3-3 0 0l3 3" style="fill:none;stroke:context-stroke;stroke-width:1;stroke-linecap:butt" transform="rotate(180 .125 0)"/></marker><marker id="b" markerHeight="1" markerWidth="1" orient="auto-start-reverse" preserveAspectRatio="xMidYMid" refX="0" refY="0" style="overflow:visible" viewBox="0 0 1 1"><path d="M3-3 0 0l3 3" style="fill:none;stroke:context-stroke;stroke-width:1;stroke-linecap:butt" transform="rotate(180 .125 0)"/></marker><marker id="z" markerHeight="1" markerWidth="1" orient="auto-start-reverse" preserveAspectRatio="xMidYMid" refX="0" refY="0" style="overflow:visible" viewBox="0 0 1 1"><path d="M3-3 0 0l3 3" style="fill:none;stroke:context-stroke;stroke-width:1;stroke-linecap:butt" transform="rotate(180 .125 0)"/></marker><path id="c" d="M229.275 527.96h111.099v67.572H229.275z"/><path id="f" d="M229.275 527.96h111.099v67.572H229.275z"/><path id="h" d="M229.275 527.96h111.099v67.572H229.275z"/><path id="j" d="M229.275 527.96h111.099v67.572H229.275z"/><path id="p" d="M229.275 527.96h111.099v67.572H229.275z"/><path id="k" d="M229.275 527.96h111.099v67.572H229.275z"/><path id="m" d="M229.275 527.96h111.099v67.572H229.275z"/><path id="s" d="M229.275 527.96h111.099v67.572H229.275z"/><path id="w" d="M229.275 527.96h111.099v67.572H229.275z"/><path id="v" d="M229.275 527.96h111.099v67.572H229.275z"/><path id="y" d="M229.275 527.96h111.099v67.572H229.275z"/><path id="a" d="M229.275 527.96h111.099v67.572H229.275z"/></defs><g transform="translate(-3.188 -559.313)"><path d="M3.32 559.445h149.848v91.022H3.32z" style="fill:#fff;stroke:#fff;stroke-width:.264583;stroke-linejoin:round"/><text xml:space="preserve" style="font-size:16px;line-height:normal;font-family:&quot;Liberation Mono&quot;;-inkscape-font-specification:&quot;Liberation Mono&quot;;text-decoration-color:#000;white-space:pre;shape-inside:url(#a);display:inline;fill:#d40000;stroke-width:1;-inkscape-stroke:none;stop-color:#000" transform="translate(-27.13 457.026)scale(.26458)"><tspan x="229.275" y="542.195">E3</tspan></text><path d="m38.124 600.876 4.479 8.564" style="fill:#ffe6d5;stroke:#f55;stroke-width:.264583;stroke-linejoin:round;marker-end:url(#b)"/><text xml:space="preserve" style="font-size:16px;line-height:normal;font-family:&quot;Liberation Mono&quot;;-inkscape-font-specification:&quot;Liberation Mono&quot;;text-decoration-color:#000;white-space:pre;shape-inside:url(#c);display:inline;fill:#d40000;stroke-width:1;-inkscape-stroke:none;stop-color:#000" transform="translate(-56.42 480.715)scale(.26458)"><tspan x="229.275" y="542.195">Dwheel</tspan></text><path d="M20.558 638.622v-31.929" style="fill:#ffe6d5;stroke:#f55;stroke-width:.264583;stroke-linejoin:round;marker-start:url(#d);marker-end:url(#d)"/><path d="m119.272 568.992-93.183.191 93.374 23.707z" style="fill:#fff6d5;stroke:#000;stroke-width:.264583;stroke-linejoin:round"/><path d="M66.678 589.347h5.342v24.78h-5.342z" style="fill:#a40;stroke:#000;stroke-width:.264583;stroke-linejoin:round"/><path d="M111.38 590.725s.066-1.261.33-1.817c.342-.717.883-1.382 1.553-1.81.592-.378 1.327-.601 2.03-.572.904.037 1.824.4 2.544.95.473.36.806.902 1.044 1.448.202.464.33.984.296 1.489-.055.833-.32 1.692-.806 2.37-.388.543-.979.943-1.585 1.218-.463.21-.986.292-1.494.299-.363.006-1.075-.184-1.075-.184L94.13 609.19s-.015.986-.138 1.458c-.09.347-.235.684-.434.982-.292.438-.641.867-1.088 1.146-.656.409-1.44.676-2.213.692a3.7 3.7 0 0 1-1.94-.52 4.25 4.25 0 0 1-1.526-1.61 3.5 3.5 0 0 1-.419-1.757c.026-.77.269-1.56.687-2.207.34-.525.851-.951 1.404-1.24a3.9 3.9 0 0 1 1.794-.44c.327 0 .954.232.954.232zM110.739 575.142s.066-1.261.33-1.817c.342-.717.883-1.382 1.553-1.81.592-.378 1.327-.601 2.03-.572.904.037 1.824.4 2.544.95.473.36.806.902 1.044 1.448.202.464.33.984.296 1.489-.054.833-.32 1.692-.806 2.37-.388.543-.979.943-1.585 1.218-.462.21-.986.292-1.493.299-.364.006-1.076-.184-1.076-.184l-20.087 15.074s-.015.986-.137 1.458c-.09.347-.236.684-.435.982-.292.438-.64.867-1.088 1.146-.656.409-1.44.676-2.213.692a3.7 3.7 0 0 1-1.94-.52 4.25 4.25 0 0 1-1.525-1.61 3.5 3.5 0 0 1-.42-1.757c.026-.77.269-1.56.687-2.207.34-.525.851-.951 1.405-1.24a3.9 3.9 0 0 1 1.793-.44c.327 0 .954.233.954.233z" style="fill:teal;stroke:#000;stroke-width:.264583;stroke-linejoin:round"/><path d="m82.754 591.595 7.721-.007s2.167.37 2.246 2.55-2.306 2.612-2.306 2.612h-4.59l-.135 10.084h4.674s2.389.25 2.245 2.551-2.306 2.612-2.306 2.612l-7.549.066z" style="fill:#8a0;stroke:#000;stroke-width:.264583;stroke-linejoin:round"/><ellipse cx="89.878" cy="609.506" rx="1.396" ry="1.397" style="fill:#fff;stroke:#000;stroke-width:.264582;stroke-linejoin:round"/><ellipse cx="89.99" cy="594.26" rx="1.396" ry="1.397" style="fill:#fff;stroke:#000;stroke-width:.264582;stroke-linejoin:round"/><path d="M-594.692-82.754h3.098v25.074h-3.098zM-612.063-82.754h3.098v25.074h-3.098z" style="fill:#8a0;stroke:#000;stroke-width:.264583;stroke-linejoin:round" transform="rotate(90)scale(-1 1)"/><path d="M-80.614 595.559h36.824V608.1h-36.824z" style="fill:purple;stroke:#000;stroke-width:.264583;stroke-linejoin:round" transform="scale(-1 1)"/><path d="m43.864 608.1-.265 18.642h4.452l9.45-18.643z" style="fill:purple;stroke:#000;stroke-width:.264583;stroke-linejoin:round"/><rect width="18.134" height="4.982" x="-53.375" y="620.235" ry="0" style="fill:#666;stroke:#000;stroke-width:.264582;stroke-linejoin:round" transform="scale(-1 1)"/><rect width="16.138" height="32.64" x="-41.338" y="606.406" ry="4.466" style="fill:#666;stroke:#000;stroke-width:.264583;stroke-linejoin:round" transform="scale(-1 1)"/><path d="M26.089 565.782h117.805v3.401l.38 23.707h-24.811l-.19-23.898-93.184.191z" style="fill:#c8ab37;stroke:#000;stroke-width:.264583;stroke-linejoin:round"/><path d="M122.521 569.183h18.695v20.826h-18.695z" style="fill:#fff;stroke:#000;stroke-width:.264583;stroke-linejoin:round"/><path d="M119.448 592.87h-4.59s-2.305-.54-2.306-2.613c-.001-1.983 2.246-2.55 2.246-2.55h4.674z" style="fill:#c8ab37;stroke:#000;stroke-width:.264583;stroke-linejoin:round"/><ellipse cx="-114.98" cy="590.379" rx="1.396" ry="1.397" style="fill:#fff;stroke:#000;stroke-width:.264582;stroke-linejoin:round" transform="scale(-1 1)"/><path d="M119.337 577.623h-4.59s-2.305-.54-2.307-2.612c-.001-1.984 2.246-2.551 2.246-2.551h4.674z" style="fill:#c8ab37;stroke:#000;stroke-width:.264583;stroke-linejoin:round"/><ellipse cx="-114.868" cy="575.132" rx="1.396" ry="1.397" style="fill:#fff;stroke:#000;stroke-width:.264582;stroke-linejoin:round" transform="scale(-1 1)"/><path d="M19.67 639.174h112.597M20.967 622.726h112.597" style="fill:#fff;stroke:#e6e6e6;stroke-width:.264583;stroke-linejoin:round"/><path d="M81.734 622.512v-10.235" style="fill:#ffe6d5;stroke:#f55;stroke-width:.264583;stroke-linejoin:round;marker-start:url(#e);marker-end:url(#e)"/><text xml:space="preserve" style="font-size:16px;line-height:normal;font-family:&quot;Liberation Mono&quot;;-inkscape-font-specification:&quot;Liberation Mono&quot;;text-decoration-color:#000;white-space:pre;shape-inside:url(#f);display:inline;fill:#d40000;stroke-width:1;-inkscape-stroke:none;stop-color:#000" transform="translate(22.191 475.326)scale(.26458)"><tspan x="229.275" y="542.195">Z1</tspan></text><path d="M146.011 592.67v-26.79" style="fill:#ffe6d5;stroke:#f55;stroke-width:.264583;stroke-linejoin:round;marker-start:url(#g);marker-end:url(#g)"/><text xml:space="preserve" style="font-size:16px;line-height:normal;font-family:&quot;Liberation Mono&quot;;-inkscape-font-specification:&quot;Liberation Mono&quot;;text-decoration-color:#000;white-space:pre;shape-inside:url(#h);display:inline;fill:#d40000;stroke-width:1;-inkscape-stroke:none;stop-color:#000" transform="translate(86.183 437.214)scale(.26458)"><tspan x="229.275" y="542.195">H1</tspan></text><path d="M124.955 592.672v-20.091" style="fill:#ffe6d5;stroke:#f55;stroke-width:.264582;stroke-linejoin:round;marker-start:url(#i);marker-end:url(#i)"/><path d="M117.023 572.46h10.732" style="fill:#fff;stroke:#e6e6e6;stroke-width:.264584;stroke-linejoin:round"/><text xml:space="preserve" style="font-size:16px;line-height:normal;font-family:&quot;Liberation Mono&quot;;-inkscape-font-specification:&quot;Liberation Mono&quot;;text-decoration-color:#000;white-space:pre;shape-inside:url(#j);display:inline;fill:#d40000;stroke-width:1;-inkscape-stroke:none;stop-color:#000" transform="translate(65.029 439.17)scale(.26458)"><tspan x="229.275" y="542.195">Z2</tspan></text><text xml:space="preserve" style="font-size:16px;line-height:normal;font-family:&quot;Liberation Mono&quot;;-inkscape-font-specification:&quot;Liberation Mono&quot;;text-decoration-color:#000;white-space:pre;shape-inside:url(#k);display:inline;fill:#d40000;stroke-width:1;-inkscape-stroke:none;stop-color:#000" transform="translate(-36.63 443.91)scale(.26458)"><tspan x="229.275" y="542.195">Dsteering</tspan></text><path d="m47.07 586.824 17.94 3.15" style="fill:#ffe6d5;stroke:#f55;stroke-width:.264583;stroke-linejoin:round;marker-end:url(#l)"/><text xml:space="preserve" style="font-size:16px;line-height:normal;font-family:&quot;Liberation Mono&quot;;-inkscape-font-specification:&quot;Liberation Mono&quot;;text-decoration-color:#000;white-space:pre;shape-inside:url(#m);display:inline;fill:#d40000;stroke-width:1;-inkscape-stroke:none;stop-color:#000" transform="translate(-27.767 448.65)scale(.26458)"><tspan x="229.275" y="542.195">E1</tspan></text><path d="m38.528 591.488 17.94 3.15" style="fill:#ffe6d5;stroke:#f55;stroke-width:.264583;stroke-linejoin:round;marker-end:url(#n)"/><path d="M86.494 611.948h51.85" style="fill:#fff;stroke:#e6e6e6;stroke-width:.264583;stroke-linejoin:round"/><path d="m128.998 610.52-9.535-16.572" style="fill:#ffe6d5;stroke:#f55;stroke-width:.264583;stroke-linejoin:round;marker-end:url(#o)"/><text xml:space="preserve" style="font-size:16px;line-height:normal;font-family:&quot;Liberation Mono&quot;;-inkscape-font-specification:&quot;Liberation Mono&quot;;text-decoration-color:#000;white-space:pre;shape-inside:url(#p);display:inline;fill:#d40000;stroke-width:1;-inkscape-stroke:none;stop-color:#000" transform="translate(67.272 470.83)scale(.26458)"><tspan x="229.275" y="542.195">E2</tspan></text><path d="m127.452 611.956-40.719-14.211" style="fill:#ffe6d5;stroke:#f55;stroke-width:.264583;stroke-linejoin:round;marker-end:url(#q)"/><path d="M137.322 611.566v-18.312" style="fill:#ffe6d5;stroke:#ccc;stroke-width:.264582;stroke-linejoin:round;marker-start:url(#r);marker-end:url(#r)"/><text xml:space="preserve" style="font-size:16px;line-height:normal;font-family:&quot;Liberation Mono&quot;;-inkscape-font-specification:&quot;Liberation Mono&quot;;text-decoration-color:#000;white-space:pre;shape-inside:url(#s);display:inline;fill:#ccc;stroke-width:1;-inkscape-stroke:none;stop-color:#000" transform="translate(77.607 460.254)scale(.26458)"><tspan x="229.275" y="542.195">Z3</tspan></text><path d="m59.588 628.088-5.658-3.761" style="fill:#ffe6d5;stroke:#f55;stroke-width:.264583;stroke-linejoin:round;marker-end:url(#t)"/><path d="M41.16 641.352H25.494" style="fill:#ffe6d5;stroke:#f55;stroke-width:.264583;stroke-linejoin:round;marker-start:url(#u);marker-end:url(#u)"/><text xml:space="preserve" style="font-size:16px;line-height:normal;font-family:&quot;Liberation Mono&quot;;-inkscape-font-specification:&quot;Liberation Mono&quot;;text-decoration-color:#000;white-space:pre;shape-inside:url(#v);display:inline;fill:#d40000;stroke-width:1;-inkscape-stroke:none;stop-color:#000" transform="translate(-34.684 502.566)scale(.26458)"><tspan x="229.275" y="542.195">Lwheel</tspan></text><path d="M69.348 614.128v31.936M43.599 626.875v19.189" style="fill:#fff;stroke:#e6e6e6;stroke-width:.264583;stroke-linejoin:round"/><text xml:space="preserve" style="font-size:16px;line-height:normal;font-family:&quot;Liberation Mono&quot;;-inkscape-font-specification:&quot;Liberation Mono&quot;;text-decoration-color:#000;white-space:pre;shape-inside:url(#w);display:inline;fill:#d40000;stroke-width:1;-inkscape-stroke:none;stop-color:#000" transform="translate(-.664 486.284)scale(.26458)"><tspan x="229.275" y="542.195">Daxis</tspan></text><path d="M68.817 643.127H44.13" style="fill:#ffe6d5;stroke:#f55;stroke-width:.264582;stroke-linejoin:round;marker-start:url(#x);marker-end:url(#x)"/><text xml:space="preserve" style="font-size:16px;line-height:normal;font-family:&quot;Liberation Mono&quot;;-inkscape-font-specification:&quot;Liberation Mono&quot;;text-decoration-color:#000;white-space:pre;shape-inside:url(#y);display:inline;fill:#d40000;stroke-width:1;-inkscape-stroke:none;stop-color:#000" transform="translate(-12.258 503.87)scale(.26458)"><tspan x="229.275" y="542.195">Lmotor</tspan></text><path d="m127.623 612.897-45.797-11.734" style="fill:#ffe6d5;stroke:#f55;stroke-width:.264583;stroke-linejoin:round;marker-end:url(#z)"/></g></svg>