<svg xmlns="http://www.w3.org/2000/svg" width="575.809" height="145.153" viewBox="0 0 152.35 38.405"><defs><marker id="a" markerHeight="1" markerWidth="1" orient="auto-start-reverse" preserveAspectRatio="xMidYMid" refX="0" refY="0" style="overflow:visible" viewBox="0 0 1 1"><path d="M3-3 0 0l3 3" style="fill:none;stroke:context-stroke;stroke-width:1;stroke-linecap:butt" transform="rotate(180 .125 0)"/></marker><marker id="d" markerHeight="1" markerWidth="1" orient="auto-start-reverse" preserveAspectRatio="xMidYMid" refX="0" refY="0" style="overflow:visible" viewBox="0 0 1 1"><path d="M3-3 0 0l3 3" style="fill:none;stroke:context-stroke;stroke-width:1;stroke-linecap:butt" transform="rotate(180 .125 0)"/></marker><marker id="e" markerHeight="1" markerWidth="1" orient="auto-start-reverse" preserveAspectRatio="xMidYMid" refX="0" refY="0" style="overflow:visible" viewBox="0 0 1 1"><path d="M3-3 0 0l3 3" style="fill:none;stroke:context-stroke;stroke-width:1;stroke-linecap:butt" transform="rotate(180 .125 0)"/></marker><marker id="g" markerHeight="1" markerWidth="1" orient="auto-start-reverse" preserveAspectRatio="xMidYMid" refX="0" refY="0" style="overflow:visible" viewBox="0 0 1 1"><path d="M3-3 0 0l3 3" style="fill:none;stroke:context-stroke;stroke-width:1;stroke-linecap:butt" transform="rotate(180 .125 0)"/></marker><marker id="h" markerHeight="1" markerWidth="1" orient="auto-start-reverse" preserveAspectRatio="xMidYMid" refX="0" refY="0" style="overflow:visible" viewBox="0 0 1 1"><path d="M3-3 0 0l3 3" style="fill:none;stroke:context-stroke;stroke-width:1;stroke-linecap:butt" transform="rotate(180 .125 0)"/></marker><path id="b" d="M229.275 527.96h111.099v67.572H229.275z"/><path id="c" d="M229.275 527.96h111.099v67.572H229.275z"/><path id="f" d="M229.275 527.96h111.099v67.572H229.275z"/><path id="i" d="M229.275 527.96h111.099v67.572H229.275z"/></defs><g transform="translate(-4.397 -375.79)"><path d="M4.529 375.922h152.085v38.14H4.529z" style="fill:#fff;stroke:#fff;stroke-width:.264583;stroke-linejoin:round"/><path d="m70.63 387.508-64.691.132 64.823 18.036zM88.12 387.772l64.691-.132-64.823 18.036z" style="fill:#fff6d5;stroke:#000;stroke-width:.264583;stroke-linejoin:round"/><path d="M5.939 385.28H152.81v2.36l-64.691.132-.132 17.904H70.762l-.132-18.168-64.691.132z" style="fill:#c8ab37;stroke:#000;stroke-width:.264583;stroke-linejoin:round"/><path d="M72.885 387.64h12.979v15.507H72.885z" style="fill:#fff;stroke:#000;stroke-width:.264583;stroke-linejoin:round"/><path d="M88.072 404.2h3.186s1.6-.373 1.602-1.811c0-1.376-1.56-1.77-1.56-1.77h-3.244z" style="fill:#c8ab37;stroke:#000;stroke-width:.264583;stroke-linejoin:round"/><circle cx="91.174" cy="402.473" r=".969" style="fill:#fff;stroke:#000;stroke-width:.264582;stroke-linejoin:round"/><path d="M88.15 393.623h3.186s1.6-.374 1.601-1.812c.001-1.377-1.559-1.77-1.559-1.77h-3.245z" style="fill:#c8ab37;stroke:#000;stroke-width:.264583;stroke-linejoin:round"/><circle cx="91.252" cy="391.895" r=".969" style="fill:#fff;stroke:#000;stroke-width:.264582;stroke-linejoin:round"/><path d="M70.752 404.074h-3.186s-1.6-.374-1.601-1.812c-.001-1.377 1.559-1.77 1.559-1.77h3.245z" style="fill:#c8ab37;stroke:#000;stroke-width:.264583;stroke-linejoin:round"/><circle cx="-67.65" cy="402.346" r=".969" style="fill:#fff;stroke:#000;stroke-width:.264582;stroke-linejoin:round" transform="scale(-1 1)"/><path d="M70.675 393.495h-3.187s-1.6-.373-1.601-1.812c-.001-1.376 1.56-1.77 1.56-1.77h3.244z" style="fill:#c8ab37;stroke:#000;stroke-width:.264583;stroke-linejoin:round"/><circle cx="-67.573" cy="391.768" r=".969" style="fill:#fff;stroke:#000;stroke-width:.264582;stroke-linejoin:round" transform="scale(-1 1)"/><path d="M71.156 407.21h16.442" style="fill:#ffe6d5;stroke:#f55;stroke-width:.264583;stroke-linejoin:round;marker-start:url(#a);marker-end:url(#a)"/><text xml:space="preserve" style="font-size:16px;line-height:normal;font-family:&quot;Liberation Mono&quot;;-inkscape-font-specification:&quot;Liberation Mono&quot;;text-decoration-color:#000;white-space:pre;shape-inside:url(#b);display:inline;fill:#d40000;stroke-width:1;-inkscape-stroke:none;stop-color:#000" transform="translate(16.959 267.988)scale(.26458)"><tspan x="229.275" y="542.195">W2</tspan></text><text xml:space="preserve" style="font-size:16px;line-height:normal;font-family:&quot;Liberation Mono&quot;;-inkscape-font-specification:&quot;Liberation Mono&quot;;text-decoration-color:#000;white-space:pre;shape-inside:url(#c);display:inline;fill:#d40000;stroke-width:1;-inkscape-stroke:none;stop-color:#000" transform="translate(16.911 238.888)scale(.26458)"><tspan x="229.275" y="542.195">W1</tspan></text><path d="M6.203 383.163h146.344" style="fill:#ffe6d5;stroke:#f55;stroke-width:.264584;stroke-linejoin:round;marker-start:url(#d);marker-end:url(#d)"/><path d="M96.308 405.122v-19.288" style="fill:#ffe6d5;stroke:#f55;stroke-width:.264583;stroke-linejoin:round;marker-start:url(#e);marker-end:url(#e)"/><text xml:space="preserve" style="font-size:16px;line-height:normal;font-family:&quot;Liberation Mono&quot;;-inkscape-font-specification:&quot;Liberation Mono&quot;;text-decoration-color:#000;white-space:pre;shape-inside:url(#f);display:inline;fill:#d40000;stroke-width:1;-inkscape-stroke:none;stop-color:#000" transform="translate(36.538 252.657)scale(.26458)"><tspan x="229.275" y="542.195">H1</tspan></text><path d="M87.988 405.676h14.074" style="fill:#d40000;stroke:#b3b3b3;stroke-width:.264583;stroke-linejoin:round"/><path d="M78.904 397.593h-5.571" style="fill:#ffe6d5;stroke:#f55;stroke-width:.264583;stroke-linejoin:round;marker-end:url(#g)"/><path d="M64.62 397.687h5.57" style="fill:#ffe6d5;stroke:#f55;stroke-width:.264583;stroke-linejoin:round;marker-end:url(#h)"/><text xml:space="preserve" style="font-size:16px;line-height:normal;font-family:&quot;Liberation Mono&quot;;-inkscape-font-specification:&quot;Liberation Mono&quot;;text-decoration-color:#000;white-space:pre;shape-inside:url(#i);display:inline;fill:#d40000;stroke-width:1;-inkscape-stroke:none;stop-color:#000" transform="translate(13.932 253.42)scale(.26458)"><tspan x="229.275" y="542.195">T1</tspan></text></g></svg>