<svg xmlns="http://www.w3.org/2000/svg" width="326.245" height="205.517" viewBox="0 0 86.319 54.376"><defs><marker id="b" markerHeight="1" markerWidth="1" orient="auto-start-reverse" preserveAspectRatio="xMidYMid" refX="0" refY="0" style="overflow:visible" viewBox="0 0 1 1"><path d="M3-3 0 0l3 3" style="fill:none;stroke:context-stroke;stroke-width:1;stroke-linecap:butt" transform="rotate(180 .125 0)"/></marker><marker id="c" markerHeight="1" markerWidth="1" orient="auto-start-reverse" preserveAspectRatio="xMidYMid" refX="0" refY="0" style="overflow:visible" viewBox="0 0 1 1"><path d="M3-3 0 0l3 3" style="fill:none;stroke:context-stroke;stroke-width:1;stroke-linecap:butt" transform="rotate(180 .125 0)"/></marker><marker id="e" markerHeight="1" markerWidth="1" orient="auto-start-reverse" preserveAspectRatio="xMidYMid" refX="0" refY="0" style="overflow:visible" viewBox="0 0 1 1"><path d="M3-3 0 0l3 3" style="fill:none;stroke:context-stroke;stroke-width:1;stroke-linecap:butt" transform="rotate(180 .125 0)"/></marker><marker id="g" markerHeight="1" markerWidth="1" orient="auto-start-reverse" preserveAspectRatio="xMidYMid" refX="0" refY="0" style="overflow:visible" viewBox="0 0 1 1"><path d="M3-3 0 0l3 3" style="fill:none;stroke:context-stroke;stroke-width:1;stroke-linecap:butt" transform="rotate(180 .125 0)"/></marker><marker id="h" markerHeight="1" markerWidth="1" orient="auto-start-reverse" preserveAspectRatio="xMidYMid" refX="0" refY="0" style="overflow:visible" viewBox="0 0 1 1"><path d="M3-3 0 0l3 3" style="fill:none;stroke:context-stroke;stroke-width:1;stroke-linecap:butt" transform="rotate(180 .125 0)"/></marker><path id="a" d="M229.275 527.96h111.099v67.572H229.275z"/><path id="d" d="M229.275 527.96h111.099v67.572H229.275z"/><path id="f" d="M229.275 527.96h111.099v67.572H229.275z"/><path id="i" d="M229.275 527.96h111.099v67.572H229.275z"/></defs><g transform="translate(-25.374 -461.128)"><path d="M25.506 461.261h86.054v54.112H25.506z" style="fill:#fff;stroke:#fff;stroke-width:.264583;stroke-linejoin:round"/><path d="M49.978 483.101s-1.87-3.398-3.314-4.63c-1.311-1.12-2.973-1.82-4.624-2.313a7.3 7.3 0 0 0-2.606-.305c-1.954.144-3.952.596-5.674 1.53-1.337.723-2.566 1.768-3.399 3.04-1.294 1.974-2.17 4.364-2.22 6.724-.044 2.051.655 4.144 1.678 5.924.802 1.395 1.98 2.634 3.353 3.473 1.86 1.138 4.081 1.875 6.262 1.896 2.044.02 4.128-.65 5.902-1.665 1.392-.797 2.512-2.047 3.473-3.332.507-.677 1.17-2.251 1.17-2.251h33.595s1.182 2.481 2.11 3.466c1.044 1.106 2.366 1.968 3.75 2.598 1.466.666 3.074 1.188 4.684 1.184a11.6 11.6 0 0 0 5.475-1.416c1.601-.88 3.046-2.187 4.006-3.742 1.12-1.814 1.842-4.003 1.812-6.135-.032-2.332-.909-4.687-2.166-6.65-.784-1.226-1.934-2.253-3.202-2.965-1.79-1.004-3.872-1.673-5.925-1.679-2.008-.006-4.043.644-5.805 1.606-1.245.68-2.285 1.728-3.171 2.834-.67.837-1.568 2.808-1.568 2.808H49.978" style="fill:teal;stroke:#000;stroke-width:.264583;stroke-linejoin:round"/><text xml:space="preserve" style="font-size:16px;line-height:normal;font-family:&quot;Liberation Mono&quot;;-inkscape-font-specification:&quot;Liberation Mono&quot;;text-decoration-color:#000;white-space:pre;shape-inside:url(#a);display:inline;fill:#d40000;stroke-width:1;-inkscape-stroke:none;stop-color:#000" transform="translate(3.364 366.445)scale(.26458)"><tspan x="229.275" y="542.195">L2</tspan></text><circle cx="39.434" cy="486.904" r="4.551" style="fill:#fff;stroke:#000;stroke-width:.264583;stroke-linejoin:round"/><circle cx="94.118" cy="486.904" r="4.551" style="fill:#fff;stroke:#000;stroke-width:.264583;stroke-linejoin:round"/><path d="M39.434 486.005v24.87M93.986 486.904v24.87" style="fill:teal;stroke:#999;stroke-width:.264583;stroke-linejoin:round"/><path d="M40.006 510.875h53.54" style="fill:#ffe6d5;stroke:#f55;stroke-width:.264583;stroke-linejoin:round;marker-start:url(#b);marker-end:url(#b)"/><path d="m51.254 472.775-8.123 10.333" style="fill:#ffe6d5;stroke:#f55;stroke-width:.264583;stroke-linejoin:round;marker-end:url(#c)"/><text xml:space="preserve" style="font-size:16px;line-height:normal;font-family:&quot;Liberation Mono&quot;;-inkscape-font-specification:&quot;Liberation Mono&quot;;text-decoration-color:#000;white-space:pre;shape-inside:url(#d);display:inline;fill:#d40000;stroke-width:1;-inkscape-stroke:none;stop-color:#000" transform="translate(-9.304 329.237)scale(.26458)"><tspan x="229.275" y="542.195">D1</tspan></text><path d="m46.338 467.87-4.196 7.705" style="fill:#ffe6d5;stroke:#f55;stroke-width:.264583;stroke-linejoin:round;marker-end:url(#e)"/><text xml:space="preserve" style="font-size:16px;line-height:normal;font-family:&quot;Liberation Mono&quot;;-inkscape-font-specification:&quot;Liberation Mono&quot;;text-decoration-color:#000;white-space:pre;shape-inside:url(#f);display:inline;fill:#d40000;stroke-width:1;-inkscape-stroke:none;stop-color:#000" transform="translate(-15.448 323.712)scale(.26458)"><tspan x="229.275" y="542.195">D2</tspan></text><path d="M76.094 496.62v-5.082" style="fill:#ffe6d5;stroke:#f55;stroke-width:.264583;stroke-linejoin:round;marker-end:url(#g)"/><path d="M76.11 477.607v5.082" style="fill:#ffe6d5;stroke:#f55;stroke-width:.264583;stroke-linejoin:round;marker-end:url(#h)"/><text xml:space="preserve" style="font-size:16px;line-height:normal;font-family:&quot;Liberation Mono&quot;;-inkscape-font-specification:&quot;Liberation Mono&quot;;text-decoration-color:#000;white-space:pre;shape-inside:url(#i);display:inline;fill:#d40000;stroke-width:1;-inkscape-stroke:none;stop-color:#000" transform="translate(13.644 333.265)scale(.26458)"><tspan x="229.275" y="542.195">W3</tspan></text></g></svg>