<svg xmlns="http://www.w3.org/2000/svg" width="543.785" height="229.072" viewBox="0 0 143.876 60.609"><defs><marker id="a" markerHeight="1" markerWidth="1" orient="auto-start-reverse" preserveAspectRatio="xMidYMid" refX="0" refY="0" style="overflow:visible" viewBox="0 0 1 1"><path d="M3-3 0 0l3 3" style="fill:none;stroke:context-stroke;stroke-width:1;stroke-linecap:butt" transform="rotate(180 .125 0)"/></marker><marker id="c" markerHeight="1" markerWidth="1" orient="auto-start-reverse" preserveAspectRatio="xMidYMid" refX="0" refY="0" style="overflow:visible" viewBox="0 0 1 1"><path d="M3-3 0 0l3 3" style="fill:none;stroke:context-stroke;stroke-width:1;stroke-linecap:butt" transform="rotate(180 .125 0)"/></marker><marker id="e" markerHeight="1" markerWidth="1" orient="auto-start-reverse" preserveAspectRatio="xMidYMid" refX="0" refY="0" style="overflow:visible" viewBox="0 0 1 1"><path d="M3-3 0 0l3 3" style="fill:none;stroke:context-stroke;stroke-width:1;stroke-linecap:butt" transform="rotate(180 .125 0)"/></marker><marker id="f" markerHeight="1" markerWidth="1" orient="auto-start-reverse" preserveAspectRatio="xMidYMid" refX="0" refY="0" style="overflow:visible" viewBox="0 0 1 1"><path d="M3-3 0 0l3 3" style="fill:none;stroke:context-stroke;stroke-width:1;stroke-linecap:butt" transform="rotate(180 .125 0)"/></marker><marker id="i" markerHeight="1" markerWidth="1" orient="auto-start-reverse" preserveAspectRatio="xMidYMid" refX="0" refY="0" style="overflow:visible" viewBox="0 0 1 1"><path d="M3-3 0 0l3 3" style="fill:none;stroke:context-stroke;stroke-width:1;stroke-linecap:butt" transform="rotate(180 .125 0)"/></marker><marker id="k" markerHeight="1" markerWidth="1" orient="auto-start-reverse" preserveAspectRatio="xMidYMid" refX="0" refY="0" style="overflow:visible" viewBox="0 0 1 1"><path d="M3-3 0 0l3 3" style="fill:none;stroke:context-stroke;stroke-width:1;stroke-linecap:butt" transform="rotate(180 .125 0)"/></marker><marker id="l" markerHeight="1" markerWidth="1" orient="auto-start-reverse" preserveAspectRatio="xMidYMid" refX="0" refY="0" style="overflow:visible" viewBox="0 0 1 1"><path d="M3-3 0 0l3 3" style="fill:none;stroke:context-stroke;stroke-width:1;stroke-linecap:butt" transform="rotate(180 .125 0)"/></marker><marker id="n" markerHeight="1" markerWidth="1" orient="auto-start-reverse" preserveAspectRatio="xMidYMid" refX="0" refY="0" style="overflow:visible" viewBox="0 0 1 1"><path d="M3-3 0 0l3 3" style="fill:none;stroke:context-stroke;stroke-width:1;stroke-linecap:butt" transform="rotate(180 .125 0)"/></marker><marker id="h" markerHeight="1" markerWidth="1" orient="auto-start-reverse" preserveAspectRatio="xMidYMid" refX="0" refY="0" style="overflow:visible" viewBox="0 0 1 1"><path d="M3-3 0 0l3 3" style="fill:none;stroke:context-stroke;stroke-width:1;stroke-linecap:butt" transform="rotate(180 .125 0)"/></marker><marker id="q" markerHeight="1" markerWidth="1" orient="auto-start-reverse" preserveAspectRatio="xMidYMid" refX="0" refY="0" style="overflow:visible" viewBox="0 0 1 1"><path d="M3-3 0 0l3 3" style="fill:none;stroke:context-stroke;stroke-width:1;stroke-linecap:butt" transform="rotate(180 .125 0)"/></marker><path id="b" d="M229.275 527.96h111.099v67.572H229.275z"/><path id="d" d="M229.275 527.96h111.099v67.572H229.275z"/><path id="g" d="M229.275 527.96h111.099v67.572H229.275z"/><path id="j" d="M229.275 527.96h111.099v67.572H229.275z"/><path id="m" d="M229.275 527.96h111.099v67.572H229.275z"/><path id="o" d="M229.275 527.96h111.099v67.572H229.275z"/><path id="p" d="M229.275 527.96h111.099v67.572H229.275z"/></defs><g transform="translate(-3.913 -156.964)"><path d="M4.045 157.096h143.612v60.344H4.045z" style="fill:#fff;stroke:#fff;stroke-width:.264583;stroke-linejoin:round"/><path d="M123.873 174.782v22.925l-14.084-.098s-3.634-.462-5.246-1.258c-1.285-.635-2.364-1.66-3.338-2.71-.747-.807-1.451-1.699-1.878-2.712-.618-1.466-.894-3.094-.91-4.685-.013-1.295.278-2.592.665-3.828.255-.816.595-1.623 1.08-2.328a12.6 12.6 0 0 1 2.974-3.06c1.05-.76 2.258-1.324 3.499-1.703 1.015-.31 3.154-.446 3.154-.446z" style="fill:#ffe6d5;stroke:#000;stroke-width:.264583;stroke-linejoin:round"/><path d="M95.704 174.782v22.925l14.085-.098s3.633-.462 5.245-1.258c1.286-.635 2.364-1.66 3.339-2.71.747-.807 1.45-1.699 1.878-2.712.617-1.466.894-3.094.91-4.685.012-1.295-.278-2.592-.665-3.828-.255-.816-.595-1.623-1.08-2.328a12.6 12.6 0 0 0-2.974-3.06c-1.051-.76-2.259-1.324-3.499-1.703-1.015-.31-3.154-.446-3.154-.446zM63.287 167.281H66v38.996h-2.713z" style="fill:#c8ab37;stroke:#000;stroke-width:.264583;stroke-linejoin:round"/><path d="M66 167.281h10.85v38.996H66z" style="fill:#fff6d5;stroke:#000;stroke-width:.264584;stroke-linejoin:round"/><path d="M76.85 167.281h2.713v38.996H76.85z" style="fill:#c8ab37;stroke:#000;stroke-width:.264583;stroke-linejoin:round"/><path d="M-169.992 79.563h2.711v55.536h-2.711z" style="fill:#c8ab37;stroke:#000;stroke-width:.264584;stroke-linejoin:round" transform="rotate(-90)"/><path d="M-177.493 79.563h2.711v5.515h-2.711z" style="fill:#c8ab37;stroke:#000;stroke-width:.264583;stroke-linejoin:round" transform="rotate(-90)"/><path d="M-180.204 82.32h2.711v10.627h-2.711z" style="fill:teal;stroke:#000;stroke-width:.264583;stroke-linejoin:round" transform="rotate(-90)"/><path d="M-182.915 79.563h2.711v5.515h-2.711zM-177.493 90.19h2.711v5.515h-2.711zM-182.915 90.19h2.711v5.515h-2.711z" style="fill:#c8ab37;stroke:#000;stroke-width:.264583;stroke-linejoin:round" transform="rotate(-90)"/><path d="M95.704 174.782h2.713v22.924h-2.713z" style="fill:none;stroke:#ccc;stroke-width:.264583;stroke-linejoin:round"/><path d="M-192.285 79.563h2.711v5.515h-2.711z" style="fill:#c8ab37;stroke:#000;stroke-width:.264583;stroke-linejoin:round" transform="rotate(-90)"/><path d="M-194.996 82.32h2.711v10.627h-2.711z" style="fill:teal;stroke:#000;stroke-width:.264583;stroke-linejoin:round" transform="rotate(-90)"/><path d="M-197.707 79.563h2.711v5.515h-2.711zM-192.285 90.19h2.711v5.515h-2.711zM-197.707 90.19h2.711v5.515h-2.711z" style="fill:#c8ab37;stroke:#000;stroke-width:.264583;stroke-linejoin:round" transform="rotate(-90)"/><path d="M-206.277 79.563h2.711v55.536h-2.711z" style="fill:#c8ab37;stroke:#000;stroke-width:.264584;stroke-linejoin:round" transform="rotate(-90)"/><ellipse cx="109.789" cy="186.244" rx="11.372" ry="11.365" style="fill:none;stroke:#ccc;stroke-width:.264583;stroke-linejoin:round"/><rect width="5.079" height="3.024" x="123.918" y="184.733" ry="0" style="fill:#666;stroke:#000;stroke-width:.264583;stroke-linejoin:round"/><rect width="9.807" height="19.811" x="125.292" y="176.339" ry="2.711" style="fill:#666;stroke:#000;stroke-width:.264583;stroke-linejoin:round"/><path d="M18.977 174.782v22.925l14.084-.098s3.634-.462 5.246-1.258c1.285-.635 2.364-1.66 3.338-2.71.747-.807 1.451-1.699 1.878-2.712.618-1.466.894-3.094.91-4.685.013-1.295-.278-2.592-.665-3.828-.255-.816-.595-1.623-1.08-2.328a12.6 12.6 0 0 0-2.974-3.06c-1.05-.76-2.258-1.324-3.498-1.703-1.016-.31-3.155-.446-3.155-.446z" style="fill:#ffe6d5;stroke:#000;stroke-width:.264583;stroke-linejoin:round"/><path d="M47.146 174.782v22.925l-14.085-.098s-3.633-.462-5.245-1.258c-1.286-.635-2.364-1.66-3.339-2.71-.747-.807-1.45-1.699-1.877-2.712-.618-1.466-.895-3.094-.91-4.685-.013-1.295.277-2.592.664-3.828.256-.816.595-1.623 1.08-2.328a12.6 12.6 0 0 1 2.974-3.06c1.051-.76 2.259-1.324 3.5-1.703 1.015-.31 3.153-.446 3.153-.446z" style="fill:#c8ab37;stroke:#000;stroke-width:.264583;stroke-linejoin:round"/><path d="M-169.992-63.287h2.711v55.536h-2.711z" style="fill:#c8ab37;stroke:#000;stroke-width:.264584;stroke-linejoin:round" transform="rotate(90)scale(-1 1)"/><path d="M-177.493-63.287h2.711v5.515h-2.711z" style="fill:#c8ab37;stroke:#000;stroke-width:.264583;stroke-linejoin:round" transform="rotate(90)scale(-1 1)"/><path d="M-180.204-60.53h2.711v10.627h-2.711z" style="fill:teal;stroke:#000;stroke-width:.264583;stroke-linejoin:round" transform="rotate(90)scale(-1 1)"/><path d="M-182.915-63.287h2.711v5.515h-2.711zM-177.493-52.66h2.711v5.515h-2.711zM-182.915-52.66h2.711v5.515h-2.711z" style="fill:#c8ab37;stroke:#000;stroke-width:.264583;stroke-linejoin:round" transform="rotate(90)scale(-1 1)"/><path d="M-47.146 174.782h2.713v22.924h-2.713z" style="fill:none;stroke:#ccc;stroke-width:.264583;stroke-linejoin:round" transform="scale(-1 1)"/><path d="M-192.285-63.287h2.711v5.515h-2.711z" style="fill:#c8ab37;stroke:#000;stroke-width:.264583;stroke-linejoin:round" transform="rotate(90)scale(-1 1)"/><path d="M-194.996-60.53h2.711v10.627h-2.711z" style="fill:teal;stroke:#000;stroke-width:.264583;stroke-linejoin:round" transform="rotate(90)scale(-1 1)"/><path d="M-197.707-63.287h2.711v5.515h-2.711zM-192.285-52.66h2.711v5.515h-2.711zM-197.707-52.66h2.711v5.515h-2.711z" style="fill:#c8ab37;stroke:#000;stroke-width:.264583;stroke-linejoin:round" transform="rotate(90)scale(-1 1)"/><path d="M-206.277-63.287h2.711v55.536h-2.711z" style="fill:#c8ab37;stroke:#000;stroke-width:.264584;stroke-linejoin:round" transform="rotate(90)scale(-1 1)"/><ellipse cx="-33.061" cy="186.244" rx="11.372" ry="11.365" style="fill:none;stroke:#ccc;stroke-width:.264583;stroke-linejoin:round" transform="scale(-1 1)"/><rect width="5.079" height="3.024" x="-18.932" y="184.733" ry="0" style="fill:#666;stroke:#000;stroke-width:.264583;stroke-linejoin:round" transform="scale(-1 1)"/><rect width="9.807" height="19.811" x="-17.558" y="176.339" ry="2.711" style="fill:#666;stroke:#000;stroke-width:.264583;stroke-linejoin:round" transform="scale(-1 1)"/><path d="M7.718 165.164h127.414" style="fill:#ffe6d5;stroke:#f55;stroke-width:.264583;stroke-linejoin:round;marker-start:url(#a);marker-end:url(#a)"/><text xml:space="preserve" style="font-size:16px;line-height:normal;font-family:&quot;Liberation Mono&quot;;-inkscape-font-specification:&quot;Liberation Mono&quot;;text-decoration-color:#000;white-space:pre;shape-inside:url(#b);display:inline;fill:#d40000;stroke-width:1;-inkscape-stroke:none;stop-color:#000" transform="translate(8.325 19.724)scale(.26458)"><tspan x="229.275" y="542.195">W1</tspan></text><path d="M137.215 169.992v33.287" style="fill:#ffe6d5;stroke:#f55;stroke-width:.264583;stroke-linejoin:round;marker-start:url(#c);marker-end:url(#c)"/><text xml:space="preserve" style="font-size:16px;line-height:normal;font-family:&quot;Liberation Mono&quot;;-inkscape-font-specification:&quot;Liberation Mono&quot;;text-decoration-color:#000;white-space:pre;shape-inside:url(#d);display:inline;fill:#d40000;stroke-width:1;-inkscape-stroke:none;stop-color:#000" transform="translate(76.952 44.574)scale(.26458)"><tspan x="229.275" y="542.195">L1</tspan></text><path d="M88.016 197.839v5.571" style="fill:#ffe6d5;stroke:#f55;stroke-width:.264583;stroke-linejoin:round;marker-end:url(#e)"/><path d="M88.016 212.234v-5.572" style="fill:#ffe6d5;stroke:#f55;stroke-width:.264583;stroke-linejoin:round;marker-end:url(#f)"/><text xml:space="preserve" style="font-size:16px;line-height:normal;font-family:&quot;Liberation Mono&quot;;-inkscape-font-specification:&quot;Liberation Mono&quot;;text-decoration-color:#000;white-space:pre;shape-inside:url(#g);display:inline;fill:#d40000;stroke-width:1;-inkscape-stroke:none;stop-color:#000" transform="translate(28.312 68.92)scale(.26458)"><tspan x="229.275" y="542.195">T1</tspan></text><path d="m41.505 211.605 9.535-16.57" style="fill:#ffe6d5;stroke:#f55;stroke-width:.264583;stroke-linejoin:round;marker-end:url(#h)"/><path d="M63.664 208.393h15.517" style="fill:#ffe6d5;stroke:#f55;stroke-width:.264583;stroke-linejoin:round;marker-start:url(#i);marker-end:url(#i)"/><text xml:space="preserve" style="font-size:16px;line-height:normal;font-family:&quot;Liberation Mono&quot;;-inkscape-font-specification:&quot;Liberation Mono&quot;;text-decoration-color:#000;white-space:pre;shape-inside:url(#j);display:inline;fill:#d40000;stroke-width:1;-inkscape-stroke:none;stop-color:#000" transform="translate(9.557 68.613)scale(.26458)"><tspan x="229.275" y="542.195">W2</tspan></text><path d="M72.012 201.35h-5.571" style="fill:#ffe6d5;stroke:#f55;stroke-width:.264583;stroke-linejoin:round;marker-end:url(#k)"/><path d="M57.618 201.35h5.571" style="fill:#ffe6d5;stroke:#f55;stroke-width:.264583;stroke-linejoin:round;marker-end:url(#l)"/><text xml:space="preserve" style="font-size:16px;line-height:normal;font-family:&quot;Liberation Mono&quot;;-inkscape-font-specification:&quot;Liberation Mono&quot;;text-decoration-color:#000;white-space:pre;shape-inside:url(#m);display:inline;fill:#d40000;stroke-width:1;-inkscape-stroke:none;stop-color:#000" transform="translate(7.04 57.177)scale(.26458)"><tspan x="229.275" y="542.195">T1</tspan></text><path d="M23.92 175.21v22.02" style="fill:#ffe6d5;stroke:#f55;stroke-width:.264583;stroke-linejoin:round;marker-start:url(#n);marker-end:url(#n)"/><text xml:space="preserve" style="font-size:16px;line-height:normal;font-family:&quot;Liberation Mono&quot;;-inkscape-font-specification:&quot;Liberation Mono&quot;;text-decoration-color:#000;white-space:pre;shape-inside:url(#o);display:inline;fill:#d40000;stroke-width:1;-inkscape-stroke:none;stop-color:#000" transform="translate(-36.075 43.523)scale(.26458)"><tspan x="229.275" y="542.195">F1</tspan></text><text xml:space="preserve" style="font-size:16px;line-height:normal;font-family:&quot;Liberation Mono&quot;;-inkscape-font-specification:&quot;Liberation Mono&quot;;text-decoration-color:#000;white-space:pre;shape-inside:url(#p);display:inline;fill:#d40000;stroke-width:1;-inkscape-stroke:none;stop-color:#000" transform="translate(-24.551 69.94)scale(.26458)"><tspan x="229.275" y="542.195">E1</tspan></text><path d="m41.661 212.595 17.64-17.405" style="fill:#ffe6d5;stroke:#f55;stroke-width:.264583;stroke-linejoin:round;marker-end:url(#q)"/></g></svg>