<svg xmlns="http://www.w3.org/2000/svg" width="583.283" height="279.344" viewBox="0 0 154.327 73.91"><defs><path id="h" d="M229.275 527.96h111.099v67.572H229.275z"/><path id="e" d="M125.683 442.819h63.968v28.831h-63.968z"/><path id="b" d="M295.063 394.618h31.308v22.524h-31.308z"/><path id="d" d="M295.063 394.618h31.308v22.524h-31.308z"/><path id="g" d="M125.683 442.819h63.968v28.831h-63.968z"/><path id="i" d="M229.275 527.96h537.251v74.779H229.275z"/><marker id="a" markerHeight="1" markerWidth="1" orient="auto-start-reverse" preserveAspectRatio="xMidYMid" refX="0" refY="0" style="overflow:visible" viewBox="0 0 1 1"><path d="M3-3 0 0l3 3" style="fill:none;stroke:context-stroke;stroke-width:1;stroke-linecap:butt" transform="rotate(180 .125 0)"/></marker><marker id="c" markerHeight="1" markerWidth="1" orient="auto-start-reverse" preserveAspectRatio="xMidYMid" refX="0" refY="0" style="overflow:visible" viewBox="0 0 1 1"><path d="M3-3 0 0l3 3" style="fill:none;stroke:context-stroke;stroke-width:1;stroke-linecap:butt" transform="rotate(180 .125 0)"/></marker><marker id="f" markerHeight="1" markerWidth="1" orient="auto-start-reverse" preserveAspectRatio="xMidYMid" refX="0" refY="0" style="overflow:visible" viewBox="0 0 1 1"><path d="M3-3 0 0l3 3" style="fill:none;stroke:context-stroke;stroke-width:1;stroke-linecap:butt" transform="rotate(180 .125 0)"/></marker></defs><g transform="translate(-1.89 -51.63)"><path d="M2.023 51.762h154.062v73.645H2.023z" style="fill:#fff;stroke:#fff;stroke-width:.264583;stroke-linejoin:round"/><path d="m69.382 72.348-64.691.132 64.823 18.036ZM86.872 72.612l64.691-.132L86.74 90.516Z" style="fill:#fff6d5;stroke:#000;stroke-width:.264583;stroke-linejoin:round"/><path d="M119.659 86.867h3.708v17.193h-3.708zM32.869 86.47h3.708v17.193h-3.708z" style="fill:#a40;stroke:#000;stroke-width:.264583;stroke-linejoin:round"/><path d="M63.903 87.426s.046-.875.23-1.26c.237-.498.612-.96 1.077-1.256a2.5 2.5 0 0 1 1.409-.397c.628.025 1.267.278 1.766.659.329.25.56.626.725 1.005.14.321.229.682.206 1.033-.038.578-.222 1.174-.56 1.645-.27.375-.68.653-1.1.844-.321.146-.685.203-1.037.208-.253.004-.747-.128-.747-.128l-13.945 10.459s-.01.684-.095 1.011c-.063.24-.164.475-.302.681-.202.304-.445.602-.755.795-.456.284-1 .47-1.537.48a2.6 2.6 0 0 1-1.347-.36 2.95 2.95 0 0 1-1.058-1.117 2.43 2.43 0 0 1-.291-1.22 3.06 3.06 0 0 1 .477-1.53c.235-.364.59-.66.974-.861a2.7 2.7 0 0 1 1.245-.305c.228 0 .663.161.663.161zM63.458 76.614s.046-.874.23-1.26c.237-.498.612-.959 1.077-1.256a2.5 2.5 0 0 1 1.41-.397c.627.026 1.266.278 1.765.659.329.25.56.626.725 1.005.14.322.23.683.206 1.033-.038.578-.222 1.174-.56 1.645-.27.376-.68.654-1.1.845-.321.145-.685.202-1.037.207-.252.004-.747-.128-.747-.128l-13.945 10.46s-.01.683-.095 1.01c-.063.24-.164.475-.302.682-.202.304-.445.601-.755.795-.455.283-1 .469-1.536.48a2.6 2.6 0 0 1-1.348-.36 2.95 2.95 0 0 1-1.058-1.118 2.43 2.43 0 0 1-.291-1.219 3.06 3.06 0 0 1 .477-1.531c.235-.364.59-.66.974-.861A2.7 2.7 0 0 1 48.794 87c.227 0 .662.162.662.162z" style="fill:teal;stroke:#000;stroke-width:.264583;stroke-linejoin:round"/><path d="m44.03 88.03 5.36-.005s1.505.257 1.56 1.77c.054 1.512-1.602 1.812-1.602 1.812h-3.187l-.093 6.996h3.244s1.66.173 1.56 1.77-1.602 1.812-1.602 1.812l-5.24.046z" style="fill:#8a0;stroke:#000;stroke-width:.264583;stroke-linejoin:round"/><circle cx="48.975" cy="100.457" r=".969" style="fill:#fff;stroke:#000;stroke-width:.264582;stroke-linejoin:round"/><circle cx="49.053" cy="89.879" r=".969" style="fill:#fff;stroke:#000;stroke-width:.264582;stroke-linejoin:round"/><path d="M-90.179-44.03h2.149v13.78h-2.149zM-102.231-44.03h2.149v13.78h-2.149z" style="fill:#8a0;stroke:#000;stroke-width:.264583;stroke-linejoin:round" transform="rotate(90)scale(-1 1)"/><path d="M-39.267 90.78h22.288v8.701h-22.288z" style="fill:purple;stroke:#000;stroke-width:.264583;stroke-linejoin:round" transform="scale(-1 1)"/><path d="m17.03 99.48-.183 12.936h3.09L26.5 99.48z" style="fill:purple;stroke:#000;stroke-width:.264583;stroke-linejoin:round"/><rect width="5.802" height="3.456" x="-16.847" y="107.901" ry="0" style="fill:#666;stroke:#000;stroke-width:.264583;stroke-linejoin:round" transform="scale(-1 1)"/><rect width="11.204" height="22.646" x="-15.277" y="98.306" ry="3.099" style="fill:#666;stroke:#000;stroke-width:.264583;stroke-linejoin:round" transform="scale(-1 1)"/><path d="M92.471 87.763s-.046-.875-.23-1.26c-.237-.498-.612-.959-1.077-1.256a2.5 2.5 0 0 0-1.41-.397c-.627.026-1.266.278-1.765.659-.329.25-.56.626-.725 1.005-.14.322-.23.682-.206 1.033.038.578.222 1.174.56 1.645.27.376.68.653 1.1.844.321.146.684.203 1.037.208.252.004.747-.128.747-.128l13.945 10.459s.01.684.095 1.011c.063.24.164.475.302.682.202.304.445.601.755.794.455.284 1 .47 1.536.48.465.01.948-.122 1.348-.36a2.95 2.95 0 0 0 1.058-1.117c.2-.368.305-.802.291-1.219a3.06 3.06 0 0 0-.477-1.531 2.6 2.6 0 0 0-.975-.861 2.7 2.7 0 0 0-1.245-.305c-.227 0-.662.161-.662.161zM92.916 76.952s-.046-.875-.23-1.26c-.237-.499-.612-.96-1.077-1.256a2.5 2.5 0 0 0-1.41-.398c-.627.026-1.266.278-1.765.659-.329.25-.56.626-.725 1.005-.14.322-.23.683-.206 1.033.038.578.222 1.174.56 1.645.27.376.679.654 1.1.845.321.145.684.202 1.037.207.252.004.747-.128.747-.128l13.945 10.46s.01.683.095 1.01c.063.24.164.475.301.682.203.304.446.602.756.795.455.283 1 .47 1.536.48.465.01.948-.123 1.348-.36a2.95 2.95 0 0 0 1.058-1.118c.2-.367.305-.801.291-1.219a3.06 3.06 0 0 0-.477-1.531 2.6 2.6 0 0 0-.975-.861 2.7 2.7 0 0 0-1.245-.305c-.227 0-.662.162-.662.162z" style="fill:teal;stroke:#000;stroke-width:.264583;stroke-linejoin:round"/><path d="M4.69 70.12h146.873v2.36l-64.691.132-.133 17.904H69.514l-.132-18.168-64.691.132Z" style="fill:#c8ab37;stroke:#000;stroke-width:.264583;stroke-linejoin:round"/><path d="M71.637 72.48h12.979v15.507H71.637z" style="fill:#fff;stroke:#000;stroke-width:.264583;stroke-linejoin:round"/><path d="M86.824 89.041h3.186s1.6-.374 1.602-1.812c0-1.376-1.56-1.77-1.56-1.77h-3.244z" style="fill:#c8ab37;stroke:#000;stroke-width:.264583;stroke-linejoin:round"/><circle cx="89.926" cy="87.313" r=".969" style="fill:#fff;stroke:#000;stroke-width:.264582;stroke-linejoin:round"/><path d="M86.901 78.463h3.187s1.6-.374 1.601-1.812c.001-1.376-1.559-1.77-1.559-1.77h-3.245z" style="fill:#c8ab37;stroke:#000;stroke-width:.264583;stroke-linejoin:round"/><circle cx="90.004" cy="76.735" r=".969" style="fill:#fff;stroke:#000;stroke-width:.264582;stroke-linejoin:round"/><path d="M69.504 88.914h-3.186s-1.6-.374-1.602-1.812c0-1.376 1.56-1.77 1.56-1.77h3.244z" style="fill:#c8ab37;stroke:#000;stroke-width:.264583;stroke-linejoin:round"/><circle cx="-66.402" cy="87.186" r=".969" style="fill:#fff;stroke:#000;stroke-width:.264582;stroke-linejoin:round" transform="scale(-1 1)"/><path d="M69.427 78.336H66.24s-1.6-.374-1.601-1.812c-.001-1.377 1.559-1.77 1.559-1.77h3.245z" style="fill:#c8ab37;stroke:#000;stroke-width:.264583;stroke-linejoin:round"/><circle cx="-66.324" cy="76.608" r=".969" style="fill:#fff;stroke:#000;stroke-width:.264582;stroke-linejoin:round" transform="scale(-1 1)"/><path d="m112.344 88.367-5.36-.005s-1.505.257-1.56 1.77c-.054 1.512 1.602 1.811 1.602 1.811h3.186l.094 6.997h-3.245s-1.658.173-1.559 1.77c.1 1.596 1.602 1.812 1.602 1.812l5.24.046z" style="fill:#8a0;stroke:#000;stroke-width:.264583;stroke-linejoin:round"/><circle cx="-107.399" cy="100.794" r=".969" style="fill:#fff;stroke:#000;stroke-width:.264582;stroke-linejoin:round" transform="scale(-1 1)"/><circle cx="-107.321" cy="90.216" r=".969" style="fill:#fff;stroke:#000;stroke-width:.264582;stroke-linejoin:round" transform="scale(-1 1)"/><path d="M-90.516 112.344h2.149v13.78h-2.149zM-102.568 112.344h2.149v13.78h-2.149z" style="fill:#8a0;stroke:#000;stroke-width:.264583;stroke-linejoin:round" transform="rotate(-90)"/><path d="M117.107 91.117h22.288v8.701h-22.288z" style="fill:purple;stroke:#000;stroke-width:.264583;stroke-linejoin:round"/><path d="m139.343 99.818.184 12.935h-3.091l-6.56-12.935z" style="fill:purple;stroke:#000;stroke-width:.264583;stroke-linejoin:round"/><rect width="5.802" height="3.456" x="139.527" y="108.238" ry="0" style="fill:#666;stroke:#000;stroke-width:.264583;stroke-linejoin:round"/><rect width="11.204" height="22.646" x="141.096" y="98.643" ry="3.099" style="fill:#666;stroke:#000;stroke-width:.264583;stroke-linejoin:round"/><path d="M87.842 99.403h14.66" style="fill:#a40;stroke:#666;stroke-width:.264583;stroke-linejoin:round"/><path d="M95.351 99.106s-.342-1.29-.179-1.908c.186-.703 1.252-1.787 1.252-1.787" style="fill:none;stroke:#000;stroke-width:.264583;stroke-linejoin:round;marker-end:url(#a)"/><text xml:space="preserve" style="font-size:16px;line-height:normal;font-family:&quot;Liberation Mono&quot;;-inkscape-font-specification:&quot;Liberation Mono&quot;;text-decoration-color:#000;white-space:pre;shape-inside:url(#b);display:inline;fill:#000;stroke-width:1;-inkscape-stroke:none;stop-color:#000" transform="translate(8.737 -10.012)scale(.26458)"><tspan x="295.063" y="408.856">a21</tspan></text><path d="M69.302 98.608h-14.66" style="fill:#a40;stroke:#666;stroke-width:.264583;stroke-linejoin:round"/><path d="M61.793 98.31s.342-1.29.18-1.907c-.187-.703-1.252-1.788-1.252-1.788" style="fill:none;stroke:#000;stroke-width:.264583;stroke-linejoin:round;marker-end:url(#c)"/><text xml:space="preserve" style="font-size:16px;line-height:normal;font-family:&quot;Liberation Mono&quot;;-inkscape-font-specification:&quot;Liberation Mono&quot;;text-decoration-color:#000;white-space:pre;shape-inside:url(#d);display:inline;fill:#000;stroke-width:1;-inkscape-stroke:none;stop-color:#000" transform="translate(-15.081 -10.646)scale(.26458)"><tspan x="295.063" y="408.856">a11</tspan></text><path d="M30.632 105.601s-2.137.857-2.146 1.788c-.007.789 1.065 1.234 1.788 1.55 1.318.576 2.858.61 4.29.476 1.49-.138 3.046-.483 4.292-1.31.517-.344 1.27-.815 1.191-1.431-.087-.678-1.668-1.192-1.668-1.192" style="fill:none;stroke:#000;stroke-width:.264583;stroke-linejoin:round;marker-start:url(#a);marker-end:url(#a)"/><text xml:space="preserve" style="font-size:16px;line-height:normal;font-family:&quot;Liberation Mono&quot;;-inkscape-font-specification:&quot;Liberation Mono&quot;;text-decoration-color:#000;white-space:pre;shape-inside:url(#e);display:inline;fill:#000;stroke-width:1;-inkscape-stroke:none;stop-color:#000" transform="translate(-2.951 -7.986)scale(.26458)"><tspan x="125.684" y="457.057">w11</tspan></text><path d="M118.203 105.601s-2.136.857-2.145 1.788c-.008.789 1.065 1.233 1.788 1.55 1.318.576 2.858.61 4.29.476 1.49-.139 3.046-.483 4.291-1.31.517-.344 1.271-.816 1.192-1.431-.087-.678-1.668-1.192-1.668-1.192" style="fill:none;stroke:#000;stroke-width:.264583;stroke-linejoin:round;marker-start:url(#f);marker-end:url(#f)"/><text xml:space="preserve" style="font-size:16px;line-height:normal;font-family:&quot;Liberation Mono&quot;;-inkscape-font-specification:&quot;Liberation Mono&quot;;text-decoration-color:#000;white-space:pre;shape-inside:url(#g);display:inline;fill:#000;stroke-width:1;-inkscape-stroke:none;stop-color:#000" transform="translate(84.62 -7.986)scale(.26458)"><tspan x="125.684" y="457.057">w21</tspan></text><path d="M4.69 68.004h146.873" style="fill:#ffe6d5;stroke:#f55;stroke-width:.264583;stroke-linejoin:round;marker-start:url(#a);marker-end:url(#a)"/><text xml:space="preserve" style="font-size:16px;line-height:normal;font-family:&quot;Liberation Mono&quot;;-inkscape-font-specification:&quot;Liberation Mono&quot;;text-decoration-color:#000;white-space:pre;shape-inside:url(#h);display:inline;fill:#d40000;stroke-width:1;-inkscape-stroke:none;stop-color:#000" transform="translate(13.882 -77.437)scale(.26458)"><tspan x="229.275" y="542.195">W1</tspan></text><text xml:space="preserve" style="font-size:16px;line-height:normal;font-family:&quot;Liberation Mono&quot;;-inkscape-font-specification:&quot;Liberation Mono&quot;;text-decoration-color:#000;white-space:pre;shape-inside:url(#i);display:inline;fill:#d40000;stroke-width:1;-inkscape-stroke:none;stop-color:#000" transform="translate(-50.984 -83.963)scale(.26458)"><tspan x="229.275" y="542.195">gen3d: [all, platform, bone, hand, motor, wheel]</tspan></text></g></svg>