<svg xmlns="http://www.w3.org/2000/svg" width="519.049" height="243.357" viewBox="0 0 137.332 64.388"><defs><path id="o" d="M282.9 536.969h53.156v51.354H282.9z"/><path id="n" d="M214.427 366.238h34.462v24.101h-34.462z"/><path id="m" d="M291.684 246.862h32.209v21.848h-32.209z"/><path id="l" d="M363.131 223.931h28.35v29.305h-28.35z"/><path id="k" d="M304.839 220.745h32.809v25.483h-32.809z"/><path id="j" d="M212.782 191.44h47.78v32.491h-47.78z"/><path id="h" d="M324.588 372.05h41.41v23.572h-41.41z"/><path id="g" d="M272.029 379.057h24.745v22.297h-24.745z"/><path id="i" d="M324.588 372.05h41.41v23.572h-41.41z"/><marker id="a" markerHeight="1" markerWidth="1" orient="auto-start-reverse" preserveAspectRatio="xMidYMid" refX="0" refY="0" style="overflow:visible" viewBox="0 0 1 1"><path d="M3-3 0 0l3 3" style="fill:none;stroke:context-stroke;stroke-width:1;stroke-linecap:butt" transform="rotate(180 .125 0)"/></marker><marker id="b" markerHeight="1" markerWidth="1" orient="auto-start-reverse" preserveAspectRatio="xMidYMid" refX="0" refY="0" style="overflow:visible" viewBox="0 0 1 1"><path d="M3-3 0 0l3 3" style="fill:none;stroke:context-stroke;stroke-width:1;stroke-linecap:butt" transform="rotate(180 .125 0)"/></marker><marker id="c" markerHeight="1" markerWidth="1" orient="auto-start-reverse" preserveAspectRatio="xMidYMid" refX="0" refY="0" style="overflow:visible" viewBox="0 0 1 1"><path d="M3-3 0 0l3 3" style="fill:none;stroke:context-stroke;stroke-width:1;stroke-linecap:butt" transform="rotate(180 .125 0)"/></marker><marker id="d" markerHeight="1" markerWidth="1" orient="auto-start-reverse" preserveAspectRatio="xMidYMid" refX="0" refY="0" style="overflow:visible" viewBox="0 0 1 1"><path d="M3-3 0 0l3 3" style="fill:none;stroke:context-stroke;stroke-width:1;stroke-linecap:butt" transform="rotate(180 .125 0)"/></marker><marker id="e" markerHeight="1" markerWidth="1" orient="auto-start-reverse" preserveAspectRatio="xMidYMid" refX="0" refY="0" style="overflow:visible" viewBox="0 0 1 1"><path d="M3-3 0 0l3 3" style="fill:none;stroke:context-stroke;stroke-width:1;stroke-linecap:butt" transform="rotate(180 .125 0)"/></marker><marker id="f" markerHeight="1" markerWidth="1" orient="auto-start-reverse" preserveAspectRatio="xMidYMid" refX="0" refY="0" style="overflow:visible" viewBox="0 0 1 1"><path d="M3-3 0 0l3 3" style="fill:none;stroke:context-stroke;stroke-width:1;stroke-linecap:butt" transform="rotate(180 .125 0)"/></marker></defs><g transform="translate(-7.257 -50.88)"><path d="M7.39 51.013h137.067v64.124H7.39z" style="fill:#fff;stroke:#fff;stroke-width:.264583;stroke-linejoin:round"/><path d="M44.668 73.323s-1.445-2.394-2.348-3.453c-1.117-1.31-2.316-2.602-3.759-3.541-1.708-1.113-3.666-1.853-5.637-2.375-1.335-.353-2.735-.566-4.114-.492-2.609.14-5.273.648-7.637 1.76-2.09.984-3.958 2.493-5.503 4.21-1.453 1.615-2.648 3.524-3.394 5.565a15.4 15.4 0 0 0-.912 5.911c.128 2.808.804 5.656 2.038 8.182.894 1.832 2.244 3.462 3.77 4.815a18 18 0 0 0 5.516 3.34c1.94.734 4.049 1.158 6.122 1.109a19.5 19.5 0 0 0 7.634-1.76c1.994-.92 3.758-2.352 5.29-3.925 1.188-1.218 2.934-4.176 2.934-4.176h64.22s1.78 2.85 2.898 4.093c.932 1.036 1.97 2.002 3.137 2.765a19 19 0 0 0 4.982 2.317c1.563.463 3.212.727 4.842.686 2.213-.056 4.481-.4 6.519-1.264a19.1 19.1 0 0 0 6.463-4.527c1.518-1.633 2.655-3.653 3.432-5.743.696-1.875 1.07-3.912 1.032-5.912-.047-2.438-.486-4.95-1.534-7.152-1.26-2.647-3.25-4.988-5.51-6.854-1.362-1.124-3.01-1.91-4.683-2.476a18.8 18.8 0 0 0-5.719-.964c-1.588-.024-3.203.18-4.72.65-2.12.66-4.149 1.696-5.95 2.994-1.175.846-2.159 1.945-3.079 3.063-.803.976-2.11 3.154-2.11 3.154z" style="fill:#d5d5ff;stroke:#00f;stroke-width:.264583;stroke-linejoin:round"/><path d="M44.668 73.323h64.221v15.17H44.668z" style="fill:none;stroke:#ccc;stroke-width:.264583;stroke-linejoin:round"/><circle cx="28.81" cy="80.908" r="17.446" style="fill:none;stroke:#ccc;stroke-width:.264583;stroke-linejoin:round"/><circle cx="124.747" cy="80.908" r="17.446" style="fill:none;stroke:#ccc;stroke-width:.264583;stroke-linejoin:round"/><circle cx="28.81" cy="80.908" r="9.692" style="fill:#fff;stroke:teal;stroke-width:.264583;stroke-linejoin:round"/><circle cx="124.747" cy="80.908" r="9.692" style="fill:#fff;stroke:teal;stroke-width:.264583;stroke-linejoin:round"/><circle cx="56.13" cy="80.908" r="3.961" style="fill:#fff;stroke:#ccc;stroke-width:.264583;stroke-linejoin:round"/><circle cx="69.966" cy="80.908" r="3.961" style="fill:#fff;stroke:#ccc;stroke-width:.264583;stroke-linejoin:round"/><circle cx="97.427" cy="80.908" r="3.961" style="fill:#fff;stroke:#ccc;stroke-width:.264583;stroke-linejoin:round"/><path d="M46.255 80.908h5.914" style="fill:none;stroke:purple;stroke-width:.264583;stroke-linejoin:round;marker-start:url(#a);marker-end:url(#a)"/><path d="M60.091 80.908h5.913" style="fill:none;stroke:purple;stroke-width:.264583;stroke-linejoin:round;marker-start:url(#b);marker-end:url(#b)"/><path d="M101.388 80.908h5.913" style="fill:none;stroke:purple;stroke-width:.264583;stroke-linejoin:round;marker-start:url(#c);marker-end:url(#c)"/><path d="M28.942 80.908v26.97M124.615 80.908v26.97" style="fill:none;stroke:#666;stroke-width:.264583;stroke-linejoin:round"/><path d="M69.888 84.79v-7.764" style="fill:none;stroke:teal;stroke-width:.264583;stroke-linejoin:round;marker-start:url(#d);marker-end:url(#d)"/><path d="M69.888 76.555v-3.117" style="fill:none;stroke:teal;stroke-width:.264583;stroke-linejoin:round;marker-start:url(#e);marker-end:url(#e)"/><path d="M69.888 88.372v-3.117" style="fill:none;stroke:teal;stroke-width:.264583;stroke-linejoin:round;marker-start:url(#f);marker-end:url(#f)"/><path d="M28.942 107.877h95.673" style="fill:none;stroke:#ff7f2a;stroke-width:.264583;stroke-linejoin:round;marker-start:url(#a);marker-end:url(#a)"/><path d="M34.892 72.649 47.87 61.27" style="fill:none;stroke:#ff7f2a;stroke-width:.264583;stroke-linejoin:round;marker-start:url(#a)"/><path d="m35.65 64.305 5.984-6.995" style="fill:none;stroke:#ff7f2a;stroke-width:.264583;stroke-linejoin:round;marker-start:url(#a)"/><path d="m44.752 72.312 8.26-7.67" style="fill:none;stroke:#ff7f2a;stroke-width:.264583;stroke-linejoin:round;marker-start:url(#a)"/><path d="M84.171 73.323v15.17" style="fill:none;stroke:#ff7f2a;stroke-width:.264583;stroke-linejoin:round;marker-start:url(#a);marker-end:url(#a)"/><text xml:space="preserve" style="font-size:16px;line-height:normal;font-family:&quot;Liberation Mono&quot;;-inkscape-font-specification:&quot;Liberation Mono&quot;;text-decoration-color:#000;white-space:pre;shape-inside:url(#g);display:inline;fill:#000;stroke-width:1;-inkscape-stroke:none;stop-color:#000" transform="translate(2.558 2.444)scale(.26458)"><tspan x="272.029" y="393.293">L1</tspan></text><text xml:space="preserve" style="font-size:16px;line-height:normal;font-family:&quot;Liberation Mono&quot;;-inkscape-font-specification:&quot;Liberation Mono&quot;;text-decoration-color:#000;white-space:pre;shape-inside:url(#h);display:inline;fill:#000;stroke-width:1;-inkscape-stroke:none;stop-color:#000" transform="translate(-.8 -19.974)scale(.26458)"><tspan x="324.588" y="386.285">W1</tspan></text><text xml:space="preserve" style="font-size:16px;line-height:normal;font-family:&quot;Liberation Mono&quot;;-inkscape-font-specification:&quot;Liberation Mono&quot;;text-decoration-color:#000;white-space:pre;shape-inside:url(#i);display:inline;fill:purple;stroke-width:1;-inkscape-stroke:none;stop-color:#000" transform="translate(-25.228 -22.237)scale(.26458)"><tspan x="324.588" y="386.285">W2</tspan></text><text xml:space="preserve" style="font-size:16px;line-height:normal;font-family:&quot;Liberation Mono&quot;;-inkscape-font-specification:&quot;Liberation Mono&quot;;text-decoration-color:#000;white-space:pre;shape-inside:url(#j);display:inline;fill:#000;stroke-width:1;-inkscape-stroke:none;stop-color:#000" transform="translate(-8.344 6.405)scale(.26458)"><tspan x="212.781" y="205.676">D1</tspan></text><text xml:space="preserve" style="font-size:16px;line-height:normal;font-family:&quot;Liberation Mono&quot;;-inkscape-font-specification:&quot;Liberation Mono&quot;;text-decoration-color:#000;white-space:pre;shape-inside:url(#k);display:inline;fill:#000;stroke-width:1;-inkscape-stroke:none;stop-color:#000" transform="translate(-39.696 -5.394)scale(.26458)"><tspan x="304.838" y="234.983">D2</tspan></text><text xml:space="preserve" style="font-size:16px;line-height:normal;font-family:&quot;Liberation Mono&quot;;-inkscape-font-specification:&quot;Liberation Mono&quot;;text-decoration-color:#000;white-space:pre;shape-inside:url(#l);display:inline;fill:#000;stroke-width:1;-inkscape-stroke:none;stop-color:#000" transform="translate(-42.645 2.613)scale(.26458)"><tspan x="363.131" y="238.166">R3</tspan></text><path d="m70.679 74.791 4.827-7.33" style="fill:purple;stroke:#4a0;stroke-width:.264583;stroke-linejoin:round;marker-start:url(#a)"/><path d="m70.5 80.87 5.364-12.932" style="fill:purple;stroke:#4a0;stroke-width:.264583;stroke-linejoin:round;marker-start:url(#a)"/><text xml:space="preserve" style="font-size:16px;line-height:normal;font-family:&quot;Liberation Mono&quot;;-inkscape-font-specification:&quot;Liberation Mono&quot;;text-decoration-color:#000;white-space:pre;shape-inside:url(#m);fill:#000;stroke-width:1;-inkscape-stroke:none;stop-color:#000" transform="translate(-1.073 -1.669)scale(.26458)"><tspan x="291.684" y="261.098">P2</tspan></text><path d="m56.913 85.399 2.264 10.012" style="fill:purple;stroke:#ccc;stroke-width:.264583;stroke-linejoin:round;marker-start:url(#a)"/><path d="m67.46 84.684-6.555 10.429" style="fill:purple;stroke:#ccc;stroke-width:.264583;stroke-linejoin:round;marker-start:url(#a)"/><text xml:space="preserve" style="font-size:16px;line-height:normal;font-family:&quot;Liberation Mono&quot;;-inkscape-font-specification:&quot;Liberation Mono&quot;;text-decoration-color:#000;white-space:pre;shape-inside:url(#n);fill:#b3b3b3;stroke-width:1;-inkscape-stroke:none;stop-color:#000" transform="translate(.894 -1.37)scale(.26458)"><tspan x="214.428" y="380.475">N2</tspan></text><path d="m130.154 109.415 5.96-8.581" style="fill:#fff;stroke:teal;stroke-width:.264583;stroke-linejoin:round;marker-end:url(#a)"/><text xml:space="preserve" style="font-size:16px;line-height:normal;font-family:&quot;Liberation Mono&quot;;-inkscape-font-specification:&quot;Liberation Mono&quot;;text-decoration-color:#000;white-space:pre;shape-inside:url(#o);fill:teal;stroke-width:1;-inkscape-stroke:none;stop-color:#000" transform="translate(58.64 -36.949)scale(.26458)"><tspan x="282.9" y="551.205">T1</tspan></text><path d="M44.668 73.323s-1.445-2.394-2.348-3.453c-1.117-1.31-2.316-2.602-3.759-3.541-1.708-1.113-3.666-1.853-5.637-2.375-1.335-.353-2.735-.566-4.114-.492-2.609.14-5.273.648-7.637 1.76-2.09.984-3.958 2.493-5.503 4.21-1.453 1.615-2.648 3.524-3.394 5.565a15.4 15.4 0 0 0-.912 5.911c.128 2.808.804 5.656 2.038 8.182.894 1.832 2.244 3.462 3.77 4.815a18 18 0 0 0 5.516 3.34c1.94.734 4.049 1.158 6.122 1.109a19.5 19.5 0 0 0 7.634-1.76c1.994-.92 3.758-2.352 5.29-3.925 1.188-1.218 2.934-4.176 2.934-4.176h64.22s1.78 2.85 2.898 4.093c.932 1.036 1.97 2.002 3.137 2.765a19 19 0 0 0 4.982 2.317c1.563.463 3.212.727 4.842.686 2.213-.056 4.481-.4 6.519-1.264a19.1 19.1 0 0 0 6.463-4.527c1.518-1.633 2.655-3.653 3.432-5.743.696-1.875 1.07-3.912 1.032-5.912-.047-2.438-.486-4.95-1.534-7.152-1.26-2.647-3.25-4.988-5.51-6.854-1.362-1.124-3.01-1.91-4.683-2.476a18.8 18.8 0 0 0-5.719-.964c-1.588-.024-3.203.18-4.72.65-2.12.66-4.149 1.696-5.95 2.994-1.175.846-2.159 1.945-3.079 3.063-.803.976-2.11 3.154-2.11 3.154z" style="fill:none;stroke:#00f;stroke-width:.264583;stroke-linejoin:round"/></g></svg>