<svg xmlns="http://www.w3.org/2000/svg" width="470.914" height="313.439" viewBox="0 0 124.596 82.931"><defs><marker id="a" markerHeight="1" markerWidth="1" orient="auto-start-reverse" preserveAspectRatio="xMidYMid" refX="0" refY="0" style="overflow:visible" viewBox="0 0 1 1"><path d="M3-3 0 0l3 3" style="fill:none;stroke:context-stroke;stroke-width:1;stroke-linecap:butt" transform="rotate(180 .125 0)"/></marker><marker id="b" markerHeight="1" markerWidth="1" orient="auto-start-reverse" preserveAspectRatio="xMidYMid" refX="0" refY="0" style="overflow:visible" viewBox="0 0 1 1"><path d="M3-3 0 0l3 3" style="fill:none;stroke:context-stroke;stroke-width:1;stroke-linecap:round" transform="rotate(180 .125 0)"/></marker><marker id="c" markerHeight="1" markerWidth="1" orient="auto-start-reverse" preserveAspectRatio="xMidYMid" refX="0" refY="0" style="overflow:visible" viewBox="0 0 1 1"><path d="M3-3 0 0l3 3" style="fill:none;stroke:context-stroke;stroke-width:1;stroke-linecap:butt" transform="rotate(180 .125 0)"/></marker><marker id="d" markerHeight="1" markerWidth="1" orient="auto-start-reverse" preserveAspectRatio="xMidYMid" refX="0" refY="0" style="overflow:visible" viewBox="0 0 1 1"><path d="M3-3 0 0l3 3" style="fill:none;stroke:context-stroke;stroke-width:1;stroke-linecap:round" transform="rotate(180 .125 0)"/></marker><marker id="e" markerHeight="1" markerWidth="1" orient="auto-start-reverse" preserveAspectRatio="xMidYMid" refX="0" refY="0" style="overflow:visible" viewBox="0 0 1 1"><path d="M3-3 0 0l3 3" style="fill:none;stroke:context-stroke;stroke-width:1;stroke-linecap:butt" transform="rotate(180 .125 0)"/></marker><marker id="f" markerHeight="1" markerWidth="1" orient="auto-start-reverse" preserveAspectRatio="xMidYMid" refX="0" refY="0" style="overflow:visible" viewBox="0 0 1 1"><path d="M3-3 0 0l3 3" style="fill:none;stroke:context-stroke;stroke-width:1;stroke-linecap:round" transform="rotate(180 .125 0)"/></marker><marker id="m" markerHeight="1" markerWidth="1" orient="auto-start-reverse" preserveAspectRatio="xMidYMid" refX="0" refY="0" style="overflow:visible" viewBox="0 0 1 1"><path d="M3-3 0 0l3 3" style="fill:none;stroke:context-stroke;stroke-width:1;stroke-linecap:butt" transform="rotate(180 .125 0)"/></marker><marker id="n" markerHeight="1" markerWidth="1" orient="auto-start-reverse" preserveAspectRatio="xMidYMid" refX="0" refY="0" style="overflow:visible" viewBox="0 0 1 1"><path d="M3-3 0 0l3 3" style="fill:none;stroke:context-stroke;stroke-width:1;stroke-linecap:round" transform="rotate(180 .125 0)"/></marker><marker id="p" markerHeight="1" markerWidth="1" orient="auto-start-reverse" preserveAspectRatio="xMidYMid" refX="0" refY="0" style="overflow:visible" viewBox="0 0 1 1"><path d="M3-3 0 0l3 3" style="fill:none;stroke:context-stroke;stroke-width:1;stroke-linecap:butt" transform="rotate(180 .125 0)"/></marker><marker id="q" markerHeight="1" markerWidth="1" orient="auto-start-reverse" preserveAspectRatio="xMidYMid" refX="0" refY="0" style="overflow:visible" viewBox="0 0 1 1"><path d="M3-3 0 0l3 3" style="fill:none;stroke:context-stroke;stroke-width:1;stroke-linecap:round" transform="rotate(180 .125 0)"/></marker><marker id="r" markerHeight="1" markerWidth="1" orient="auto-start-reverse" preserveAspectRatio="xMidYMid" refX="0" refY="0" style="overflow:visible" viewBox="0 0 1 1"><path d="M3-3 0 0l3 3" style="fill:none;stroke:context-stroke;stroke-width:1;stroke-linecap:butt" transform="rotate(180 .125 0)"/></marker><marker id="s" markerHeight="1" markerWidth="1" orient="auto-start-reverse" preserveAspectRatio="xMidYMid" refX="0" refY="0" style="overflow:visible" viewBox="0 0 1 1"><path d="M3-3 0 0l3 3" style="fill:none;stroke:context-stroke;stroke-width:1;stroke-linecap:round" transform="rotate(180 .125 0)"/></marker><marker id="w" markerHeight="1" markerWidth="1" orient="auto-start-reverse" preserveAspectRatio="xMidYMid" refX="0" refY="0" style="overflow:visible" viewBox="0 0 1 1"><path d="M3-3 0 0l3 3" style="fill:none;stroke:context-stroke;stroke-width:1;stroke-linecap:round" transform="rotate(180 .125 0)"/></marker><marker id="y" markerHeight="1" markerWidth="1" orient="auto-start-reverse" preserveAspectRatio="xMidYMid" refX="0" refY="0" style="overflow:visible" viewBox="0 0 1 1"><path d="M3-3 0 0l3 3" style="fill:none;stroke:context-stroke;stroke-width:1;stroke-linecap:round" transform="rotate(180 .125 0)"/></marker><path id="g" d="M267.584 418.944h37.39v31.984h-37.39z"/><path id="h" d="M208.459 417.142h37.587v30.632h-37.587z"/><path id="i" d="M208.459 417.142h37.587v30.632h-37.587z"/><path id="j" d="M400.474 168.407h34.687v30.704h-34.687z"/><path id="k" d="M253.619 424.8h45.782v26.128h-45.782z"/><path id="l" d="M528.41 400.7h85.133v81.203H528.41z"/><path id="o" d="M208.459 417.142h37.587v30.632h-37.587z"/><path id="t" d="M178.389 411.736h38.741v24.551h-38.741z"/><path id="u" d="M187.173 418.719h27.704v20.271h-27.704z"/><path id="v" d="M62.616 255.195h156.609v32.789H62.616z"/><path id="x" d="M179.74 295.063h119.602v113.52H179.74z"/><path id="z" d="M184.751 416.963h39.18v22.935h-39.18z"/></defs><g transform="translate(-24.899 -188.365)"><path d="M25.031 188.497h124.331v82.666H25.031z" style="fill:#fff;stroke:#fff;stroke-width:.264583;stroke-linejoin:round;stroke-dasharray:none"/><path d="M38.557 252.095h80.102v-4.607l-7.573-13.367H46.17l-7.745 13.367z" style="fill:#d7eef4;stroke:#5fbcd3;stroke-width:.264583;stroke-linejoin:round"/><path d="M119.079 261.815h13.116" style="fill:purple;stroke:#ccc;stroke-width:.264584;stroke-linejoin:round"/><path d="M64.063 230.123h14.479" style="fill:purple;stroke:#e6e6e6;stroke-width:.264583;stroke-linejoin:round"/><circle cx="78.542" cy="219.335" r="10.788" style="fill:none;stroke:#d4aa00;stroke-width:.264583;stroke-linejoin:round"/><circle cx="78.542" cy="219.335" r="20.733" style="fill:none;stroke:#e6e6e6;stroke-width:.264583;stroke-linejoin:round"/><path d="M38.425 247.488h80.234v14.327H38.425z" style="fill:none;stroke:#e6e6e6;stroke-width:.264583;stroke-linejoin:round"/><path d="M78.542 198.603h18.77" style="fill:purple;stroke:#e6e6e6;stroke-width:.264583;stroke-linejoin:round"/><path d="M38.425 261.815v-14.327l21.106-36.426s2.657-4.806 4.626-6.657c2.21-2.077 4.932-3.67 7.776-4.72 2.094-.774 4.377-1.078 6.609-1.082 2.179-.004 4.378.368 6.454 1.03 1.868.595 3.641 1.518 5.272 2.605 1.324.882 2.53 1.956 3.6 3.134 1.103 1.217 2.862 4.012 2.862 4.012l21.929 38.104v14.327z" style="fill:none;stroke:#d4aa00;stroke-width:.264583;stroke-linejoin:round"/><path d="M92.83 220.286v26.921" style="fill:none;stroke:teal;stroke-width:.264584;stroke-linejoin:round;marker-start:url(#a);marker-end:url(#b)"/><path d="M92.83 247.521v10.008" style="fill:none;stroke:teal;stroke-width:.264584;stroke-linejoin:round;marker-start:url(#c);marker-end:url(#d)"/><path d="M92.83 198.96v20.499" style="fill:none;stroke:teal;stroke-width:.264583;stroke-linejoin:round;marker-start:url(#e);marker-end:url(#f)"/><text xml:space="preserve" style="font-size:16px;line-height:normal;font-family:&quot;Liberation Mono&quot;;-inkscape-font-specification:&quot;Liberation Mono&quot;;text-decoration-color:#000;white-space:pre;shape-inside:url(#g);display:inline;fill:teal;stroke-width:1;-inkscape-stroke:none;stop-color:#000" transform="translate(22.622 91.095)scale(.26458)"><tspan x="267.584" y="433.18">R2</tspan></text><text xml:space="preserve" style="font-size:16px;line-height:normal;font-family:&quot;Liberation Mono&quot;;-inkscape-font-specification:&quot;Liberation Mono&quot;;text-decoration-color:#000;white-space:pre;shape-inside:url(#h);display:inline;fill:teal;stroke-width:1;-inkscape-stroke:none;stop-color:#000" transform="translate(38.027 141.721)scale(.26458)"><tspan x="208.459" y="431.379">H1</tspan></text><text xml:space="preserve" style="font-size:16px;line-height:normal;font-family:&quot;Liberation Mono&quot;;-inkscape-font-specification:&quot;Liberation Mono&quot;;text-decoration-color:#000;white-space:pre;shape-inside:url(#i);display:inline;fill:teal;stroke-width:1;-inkscape-stroke:none;stop-color:#000" transform="translate(38.266 119.06)scale(.26458)"><tspan x="208.459" y="431.379">H2</tspan></text><text xml:space="preserve" style="font-size:16px;line-height:normal;font-family:&quot;Liberation Mono&quot;;-inkscape-font-specification:&quot;Liberation Mono&quot;;text-decoration-color:#000;white-space:pre;shape-inside:url(#j);display:inline;fill:purple;stroke-width:1;-inkscape-stroke:none;stop-color:#000" transform="translate(2.522 158.317)scale(.26458)"><tspan x="400.475" y="182.645">D1</tspan></text><path d="m109.315 207.304-19.785 8.7" style="fill:purple;stroke:purple;stroke-width:.264583;stroke-linejoin:round;marker-end:url(#b)"/><path d="M38.899 264.461h79.377" style="fill:#b3b3b3;stroke:#b3b3b3;stroke-width:.264583;stroke-linejoin:round;marker-start:url(#b);marker-end:url(#b)"/><rect width="8.284" height="2.086" x="65.721" y="250.013" ry="1.043" style="fill:#fff;stroke:#5fbcd3;stroke-width:.264583;stroke-linejoin:round"/><text xml:space="preserve" style="font-size:16px;line-height:normal;font-family:&quot;Liberation Mono&quot;;-inkscape-font-specification:&quot;Liberation Mono&quot;;text-decoration-color:#000;white-space:pre;shape-inside:url(#k);display:inline;fill:#666;stroke-width:1;-inkscape-stroke:none;stop-color:#000" transform="translate(8.755 152.715)scale(.26458)"><tspan x="253.619" y="439.037">Li</tspan></text><path d="M118.837 257.891h13.347" style="fill:purple;stroke:#ccc;stroke-width:.264583;stroke-linejoin:round"/><path d="m119.347 260.356 6.55-4.579 3.45-17.76" style="fill:none;stroke:#4a0;stroke-width:.264583;stroke-linejoin:round;stroke-dasharray:none;marker-start:url(#b)"/><path d="M126.425 216.858v20.524" style="fill:purple;stroke:#4a0;stroke-width:.264584;stroke-linejoin:round;stroke-dasharray:none"/><text xml:space="preserve" style="font-size:16px;line-height:normal;font-family:&quot;Liberation Mono&quot;;-inkscape-font-specification:&quot;Liberation Mono&quot;;text-decoration-color:#000;white-space:pre;shape-inside:url(#l);display:inline;fill:#4a0;stroke-width:1;-inkscape-stroke:none;stop-color:#000" transform="translate(-13.129 110.8)scale(.26458)"><tspan x="528.41" y="414.936">Jangle
</tspan><tspan x="528.41" y="434.936">Jradius
</tspan><tspan x="528.41" y="454.936">Jneutral
</tspan><tspan x="528.41" y="474.936">Jmark
</tspan></text><path d="M38.425 257.855h80.234v3.96H38.425z" style="fill:none;stroke:#d4aa00;stroke-width:.264583;stroke-linejoin:round"/><path d="M78.542 196.873v64.942M78.542 219.874h18.77" style="fill:purple;stroke:#e6e6e6;stroke-width:.264583;stroke-linejoin:round"/><path d="M131.247 258.02v3.39" style="fill:#b3b3b3;stroke:#b3b3b3;stroke-width:.264584;stroke-linejoin:round;marker-start:url(#m);marker-end:url(#n)"/><text xml:space="preserve" style="font-size:16px;line-height:normal;font-family:&quot;Liberation Mono&quot;;-inkscape-font-specification:&quot;Liberation Mono&quot;;text-decoration-color:#000;white-space:pre;shape-inside:url(#o);display:inline;fill:#b3b3b3;stroke-width:1;-inkscape-stroke:none;stop-color:#000" transform="translate(77.119 147.027)scale(.26458)"><tspan x="208.459" y="431.379">H0</tspan></text><path d="M66.696 230.509v3.39" style="fill:#b3b3b3;stroke:#2c89a0;stroke-width:.264584;stroke-linejoin:round;marker-start:url(#p);marker-end:url(#q)"/><path d="M66.696 252.345v5.223" style="fill:#b3b3b3;stroke:#2c89a0;stroke-width:.264585;stroke-linejoin:round;marker-start:url(#r);marker-end:url(#s)"/><text xml:space="preserve" style="font-size:16px;line-height:normal;font-family:&quot;Liberation Mono&quot;;-inkscape-font-specification:&quot;Liberation Mono&quot;;text-decoration-color:#000;white-space:pre;shape-inside:url(#t);display:inline;fill:#2c89a0;stroke-width:1;-inkscape-stroke:none;stop-color:#000" transform="translate(12.713 143.836)scale(.26458)"><tspan x="178.389" y="425.973">E1</tspan></text><text xml:space="preserve" style="font-size:16px;line-height:normal;font-family:&quot;Liberation Mono&quot;;-inkscape-font-specification:&quot;Liberation Mono&quot;;text-decoration-color:#000;white-space:pre;shape-inside:url(#u);display:inline;fill:#2c89a0;stroke-width:1;-inkscape-stroke:none;stop-color:#000" transform="translate(10.686 118.806)scale(.26458)"><tspan x="187.174" y="432.955">E2</tspan></text><text xml:space="preserve" style="font-size:16px;line-height:normal;font-family:&quot;Liberation Mono&quot;;-inkscape-font-specification:&quot;Liberation Mono&quot;;text-decoration-color:#000;white-space:pre;shape-inside:url(#v);display:inline;fill:#918a6f;stroke-width:1;-inkscape-stroke:none;stop-color:#000" transform="translate(91.29 128.299)scale(.26458)"><tspan x="62.617" y="269.432">spring:[On,Off]</tspan></text><path d="m120.52 200.439-17.587 33.027" style="fill:#8dd35f;stroke:#918a6f;stroke-width:.264582;stroke-linejoin:round;stroke-dasharray:none;marker-end:url(#w)"/><rect width="8.284" height="2.086" x="47.337" y="249.966" ry="1.043" style="fill:#fff;stroke:#5fbcd3;stroke-width:.264583;stroke-linejoin:round"/><rect width="8.284" height="2.086" x="56.472" y="249.987" ry="1.043" style="fill:#fff;stroke:#5fbcd3;stroke-width:.264583;stroke-linejoin:round"/><rect width="8.284" height="2.086" x="51.833" y="246.924" ry="1.043" style="fill:#fff;stroke:#5fbcd3;stroke-width:.264583;stroke-linejoin:round"/><rect width="8.284" height="2.086" x="61.016" y="247.003" ry="1.043" style="fill:#fff;stroke:#5fbcd3;stroke-width:.264583;stroke-linejoin:round"/><text xml:space="preserve" style="font-size:16px;line-height:normal;font-family:&quot;Liberation Mono&quot;;-inkscape-font-specification:&quot;Liberation Mono&quot;;text-decoration-color:#000;white-space:pre;shape-inside:url(#x);display:inline;fill:#2c89a0;stroke-width:1;-inkscape-stroke:none;stop-color:#000" transform="translate(-17.118 115.457)scale(.26458)"><tspan x="179.74" y="309.299">sNx
</tspan><tspan x="179.74" y="329.299"><tspan style="fill:#999">sNy</tspan>
</tspan><tspan x="179.74" y="349.299">smEy
</tspan><tspan x="179.74" y="369.299">shEy
</tspan><tspan x="179.74" y="389.299">shPr
</tspan></text><path d="M29.425 194.505v24.347" style="fill:#2c89a0;stroke:#5fbcd3;stroke-width:.264582;stroke-linejoin:round"/><path d="m40.616 216.976 12.474 28.992" style="fill:#2c89a0;stroke:#5fbcd3;stroke-width:.264583;stroke-linejoin:round;marker-end:url(#b)"/><path d="M59.998 243.031v4.959M61.214 243.082v4.958" style="fill:purple;stroke:#ccc;stroke-width:.264582;stroke-linejoin:round"/><path d="M66.406 243.44h-4.804" style="fill:#2c89a0;stroke:#5fbcd3;stroke-width:.264583;stroke-linejoin:round;stroke-dasharray:none;marker-end:url(#b)"/><path d="M54.856 243.458h4.804" style="fill:#2c89a0;stroke:#5fbcd3;stroke-width:.264583;stroke-linejoin:round;stroke-dasharray:none;marker-end:url(#y)"/><text xml:space="preserve" style="font-size:16px;line-height:normal;font-family:&quot;Liberation Mono&quot;;-inkscape-font-specification:&quot;Liberation Mono&quot;;text-decoration-color:#000;white-space:pre;shape-inside:url(#z);display:inline;fill:#2c89a0;stroke-width:1;-inkscape-stroke:none;stop-color:#000" transform="translate(14.237 128.651)scale(.26458)"><tspan x="184.75" y="431.199">smEx</tspan></text></g></svg>