<svg xmlns="http://www.w3.org/2000/svg" width="392.941" height="326.91" viewBox="0 0 103.966 86.495"><defs><path id="w" d="M44.147 365.788h198.661v45.949H44.147z"/><path id="d" d="M254.069 322.091h45.048v45.048h-45.048z"/><path id="b" d="M45.723 250.465h24.776v18.92H45.723z"/><path id="a" d="M234.672 209.923h32.461v23.741h-32.461z"/><path id="f" d="M203.841 231.771h46.174v24.776h-46.174z"/><path id="h" d="M45.723 250.465h24.776v18.92H45.723z"/><path id="k" d="M45.723 250.465h24.776v18.92H45.723z"/><path id="l" d="M45.723 250.465h24.776v18.92H45.723z"/><path id="n" d="M45.723 250.465h24.776v18.92H45.723z"/><path id="p" d="M45.723 250.465h24.776v18.92H45.723z"/><path id="r" d="M45.723 250.465h24.776v18.92H45.723z"/><path id="t" d="M45.723 250.465h30.744v24.776H45.723z"/><path id="v" d="M45.723 250.465h24.776v18.92H45.723z"/><path id="x" d="M44.147 365.788h198.661v45.949H44.147z"/><marker id="c" markerHeight="1" markerWidth="1" orient="auto-start-reverse" preserveAspectRatio="xMidYMid" refX="0" refY="0" style="overflow:visible" viewBox="0 0 1 1"><path d="M3-3 0 0l3 3" style="fill:none;stroke:context-stroke;stroke-width:1;stroke-linecap:butt" transform="rotate(180 .125 0)"/></marker><marker id="e" markerHeight="1" markerWidth="1" orient="auto-start-reverse" preserveAspectRatio="xMidYMid" refX="0" refY="0" style="overflow:visible" viewBox="0 0 1 1"><path d="M3-3 0 0l3 3" style="fill:none;stroke:context-stroke;stroke-width:1;stroke-linecap:butt" transform="rotate(180 .125 0)"/></marker><marker id="g" markerHeight="1" markerWidth="1" orient="auto-start-reverse" preserveAspectRatio="xMidYMid" refX="0" refY="0" style="overflow:visible" viewBox="0 0 1 1"><path d="M3-3 0 0l3 3" style="fill:none;stroke:context-stroke;stroke-width:1;stroke-linecap:butt" transform="rotate(180 .125 0)"/></marker><marker id="i" markerHeight="1" markerWidth="1" orient="auto-start-reverse" preserveAspectRatio="xMidYMid" refX="0" refY="0" style="overflow:visible" viewBox="0 0 1 1"><path d="M3-3 0 0l3 3" style="fill:none;stroke:context-stroke;stroke-width:1;stroke-linecap:butt" transform="rotate(180 .125 0)"/></marker><marker id="j" markerHeight="1" markerWidth="1" orient="auto-start-reverse" preserveAspectRatio="xMidYMid" refX="0" refY="0" style="overflow:visible" viewBox="0 0 1 1"><path d="M3-3 0 0l3 3" style="fill:none;stroke:context-stroke;stroke-width:1;stroke-linecap:butt" transform="rotate(180 .125 0)"/></marker><marker id="m" markerHeight="1" markerWidth="1" orient="auto-start-reverse" preserveAspectRatio="xMidYMid" refX="0" refY="0" style="overflow:visible" viewBox="0 0 1 1"><path d="M3-3 0 0l3 3" style="fill:none;stroke:context-stroke;stroke-width:1;stroke-linecap:butt" transform="rotate(180 .125 0)"/></marker><marker id="o" markerHeight="1" markerWidth="1" orient="auto-start-reverse" preserveAspectRatio="xMidYMid" refX="0" refY="0" style="overflow:visible" viewBox="0 0 1 1"><path d="M3-3 0 0l3 3" style="fill:none;stroke:context-stroke;stroke-width:1;stroke-linecap:butt" transform="rotate(180 .125 0)"/></marker><marker id="q" markerHeight="1" markerWidth="1" orient="auto-start-reverse" preserveAspectRatio="xMidYMid" refX="0" refY="0" style="overflow:visible" viewBox="0 0 1 1"><path d="M3-3 0 0l3 3" style="fill:none;stroke:context-stroke;stroke-width:1;stroke-linecap:butt" transform="rotate(180 .125 0)"/></marker><marker id="s" markerHeight="1" markerWidth="1" orient="auto-start-reverse" preserveAspectRatio="xMidYMid" refX="0" refY="0" style="overflow:visible" viewBox="0 0 1 1"><path d="M3-3 0 0l3 3" style="fill:none;stroke:context-stroke;stroke-width:1;stroke-linecap:butt" transform="rotate(180 .125 0)"/></marker><marker id="u" markerHeight="1" markerWidth="1" orient="auto-start-reverse" preserveAspectRatio="xMidYMid" refX="0" refY="0" style="overflow:visible" viewBox="0 0 1 1"><path d="M3-3 0 0l3 3" style="fill:none;stroke:context-stroke;stroke-width:1;stroke-linecap:butt" transform="rotate(180 .125 0)"/></marker></defs><path d="M8.448 89.335h103.701v86.23H8.448z" style="fill:#fff;stroke:#fff;stroke-width:.264583;stroke-linejoin:round" transform="translate(-8.315 -89.203)"/><path d="M16.014 114.756h16.384" style="fill:none;stroke:#ccc;stroke-width:.264583;stroke-linejoin:round" transform="translate(-8.315 -89.203)"/><path d="M26.439 114.756h5.959v34.446h-5.959z" style="fill:#fff6d5;stroke:#000;stroke-width:.264583;stroke-linejoin:round" transform="translate(-8.315 -89.203)"/><text xml:space="preserve" style="font-size:16px;line-height:normal;font-family:&quot;Liberation Mono&quot;;-inkscape-font-specification:&quot;Liberation Mono&quot;;text-decoration-color:#000;white-space:pre;shape-inside:url(#a);display:inline;fill:purple;stroke-width:1;-inkscape-stroke:none;stop-color:#000" transform="translate(-60.717 -14.821)scale(.26458)"><tspan x="234.672" y="224.158">S1</tspan></text><text xml:space="preserve" style="font-size:16px;line-height:normal;font-family:&quot;Liberation Mono&quot;;-inkscape-font-specification:&quot;Liberation Mono&quot;;text-decoration-color:#000;white-space:pre;shape-inside:url(#b);display:inline;fill:purple;stroke-width:1;-inkscape-stroke:none;stop-color:#000" transform="translate(-9.974 -40.168)scale(.26458)"><tspan x="45.723" y="264.701">E1</tspan></text><path d="M32.398 131.98v-17.224h4.491l.083 6.45c.07 5.422.111 6.506.263 6.8.451.872 1.087 1.063 1.618.487.73-.793.696-.531.697-5.27 0-2.395.035-5.28.078-6.41l.078-2.057h4.611v34.446h-4.491l-.079-3.059a304 304 0 0 1-.079-6.444v-3.386l-.351-.511c-.414-.602-.933-.87-1.303-.672-.135.072-.376.358-.537.636l-.292.504-.086 6.466-.086 6.466h-4.615z" style="fill:#fff6d5;stroke:#000;stroke-width:.264583;stroke-linejoin:round" transform="translate(-8.315 -89.203)"/><path d="M114.756-47.862h5.9v3.545h-5.9zM143.302-47.862h5.9v3.545h-5.9z" style="fill:#eef4d7;stroke:#000;stroke-width:.264583;stroke-linejoin:round" transform="rotate(90 40.444 -48.759)"/><path d="M47.862 131.98v-17.224h4.491l.083 6.45c.07 5.422.111 6.506.264 6.8.45.872 1.086 1.063 1.617.487.731-.793.696-.531.697-5.27 0-2.395.035-5.28.078-6.41l.078-2.057h4.611v34.446H55.29l-.079-3.059a304 304 0 0 1-.078-6.444v-3.386l-.352-.511c-.414-.602-.933-.87-1.302-.672-.135.072-.377.358-.538.636l-.292.504-.086 6.466-.085 6.466h-4.616z" style="fill:#fff6d5;stroke:#000;stroke-width:.264583;stroke-linejoin:round" transform="translate(-8.315 -89.203)"/><path d="M114.756-63.326h5.9v3.545h-5.9zM143.302-63.326h5.9v3.545h-5.9z" style="fill:#eef4d7;stroke:#000;stroke-width:.264583;stroke-linejoin:round" transform="rotate(90 40.444 -48.759)"/><path d="M63.326 131.98v-17.224h4.491l.083 6.45c.07 5.422.112 6.506.264 6.8.45.872 1.087 1.063 1.618.487.73-.793.696-.531.696-5.27 0-2.395.036-5.28.078-6.41l.078-2.057h4.611v34.446h-4.491l-.078-3.059a304 304 0 0 1-.08-6.444v-3.386l-.35-.511c-.415-.602-.934-.87-1.303-.672-.135.072-.377.358-.538.636l-.292.504-.085 6.466-.086 6.466h-4.616zM78.791 114.756h4.611v34.446h-4.611z" style="fill:#fff6d5;stroke:#000;stroke-width:.264583;stroke-linejoin:round" transform="translate(-8.315 -89.203)"/><path d="M114.756-78.791h5.9v3.545h-5.9zM143.302-78.791h5.9v3.545h-5.9z" style="fill:#eef4d7;stroke:#000;stroke-width:.264583;stroke-linejoin:round" transform="rotate(90 40.444 -48.759)"/><path d="m38.498 114.302 12.038-12.157" style="fill:#fff6d5;stroke:#000;stroke-width:.264583;stroke-linejoin:round;marker-start:url(#c)" transform="translate(-8.315 -89.203)"/><path d="m46.245 113.587 5.125-10.012" style="fill:#fff6d5;stroke:#000;stroke-width:.264583;stroke-linejoin:round;marker-start:url(#c)" transform="translate(-8.315 -89.203)"/><path d="m53.635 114.66-1.073-10.847" style="fill:#fff6d5;stroke:#000;stroke-width:.264583;stroke-linejoin:round;marker-start:url(#c)" transform="translate(-8.315 -89.203)"/><path d="m61.501 113.945-7.27-10.608" style="fill:#fff6d5;stroke:#000;stroke-width:.264583;stroke-linejoin:round;marker-start:url(#c)" transform="translate(-8.315 -89.203)"/><path d="m68.891 114.421-13.826-11.919" style="fill:#fff6d5;stroke:#000;stroke-width:.264583;stroke-linejoin:round;marker-start:url(#c)" transform="translate(-8.315 -89.203)"/><path d="m75.804 113.587-18.95-12.038" style="fill:#fff6d5;stroke:#000;stroke-width:.264583;stroke-linejoin:round;marker-start:url(#c)" transform="translate(-8.315 -89.203)"/><text xml:space="preserve" style="font-size:16px;line-height:normal;font-family:&quot;Liberation Mono&quot;;-inkscape-font-specification:&quot;Liberation Mono&quot;;text-decoration-color:#000;white-space:pre;shape-inside:url(#d);display:inline;fill:#000;stroke-width:1;-inkscape-stroke:none;stop-color:#000" transform="translate(-24.406 -76.45)scale(.26458)"><tspan x="254.068" y="336.328">N1</tspan></text><path d="M16.014 129.097h22.343M16.014 134.847h22.343" style="fill:none;stroke:#ccc;stroke-width:.264583;stroke-linejoin:round" transform="translate(-8.315 -89.203)"/><path d="M16.901 129.453v5.067" style="fill:#fff6d5;stroke:purple;stroke-width:.264583;stroke-linejoin:round;marker-start:url(#c);marker-end:url(#c)" transform="translate(-8.315 -89.203)"/><path d="M16.014 120.656h28.303" style="fill:none;stroke:#ccc;stroke-width:.264583;stroke-linejoin:round" transform="translate(-8.315 -89.203)"/><path d="M16.71 115.142v5.067" style="fill:#fff6d5;stroke:purple;stroke-width:.264583;stroke-linejoin:round;marker-start:url(#e);marker-end:url(#e)" transform="translate(-8.315 -89.203)"/><path d="M92.007 114.756h8.108M91.874 149.202h8.109" style="fill:none;stroke:#ccc;stroke-width:.264583;stroke-linejoin:round" transform="translate(-8.315 -89.203)"/><path d="M100.115 115.14v33.667" style="fill:#fff6d5;stroke:purple;stroke-width:.264583;stroke-linejoin:round;marker-start:url(#c);marker-end:url(#c)" transform="translate(-8.315 -89.203)"/><text xml:space="preserve" style="font-size:16px;line-height:normal;font-family:&quot;Liberation Mono&quot;;-inkscape-font-specification:&quot;Liberation Mono&quot;;text-decoration-color:#000;white-space:pre;shape-inside:url(#f);display:inline;fill:purple;stroke-width:1;-inkscape-stroke:none;stop-color:#000" transform="translate(38.419 -21.986)scale(.26458)"><tspan x="203.842" y="246.008">D1</tspan></text><path d="M86.047 114.756h5.959v34.446h-5.959z" style="fill:#fff6d5;stroke:#000;stroke-width:.264583;stroke-linejoin:round" transform="translate(-8.315 -89.203)"/><path d="M26.439 161.234v-11.9" style="fill:none;stroke:#ccc;stroke-width:.264583;stroke-linejoin:round" transform="translate(-8.315 -89.203)"/><path d="M32.398 167.218v-17.884" style="fill:none;stroke:#ccc;stroke-width:.264582;stroke-linejoin:round" transform="translate(-8.315 -89.203)"/><path d="M26.831 154.526h5.192" style="fill:#fff6d5;stroke:purple;stroke-width:.264583;stroke-linejoin:round;marker-start:url(#g);marker-end:url(#g)" transform="translate(-8.315 -89.203)"/><text xml:space="preserve" style="font-size:16px;line-height:normal;font-family:&quot;Liberation Mono&quot;;-inkscape-font-specification:&quot;Liberation Mono&quot;;text-decoration-color:#000;white-space:pre;shape-inside:url(#h);display:inline;fill:purple;stroke-width:1;-inkscape-stroke:none;stop-color:#000" transform="translate(6.808 -.19)scale(.26458)"><tspan x="45.723" y="264.701">W1</tspan></text><path d="M37.013 169.716v-20.514M39.826 169.716v-20.514" style="fill:none;stroke:#ccc;stroke-width:.264583;stroke-linejoin:round" transform="translate(-8.315 -89.203)"/><path d="M37.26 168.47h2.456" style="fill:#fff6d5;stroke:purple;stroke-width:.264583;stroke-linejoin:round;marker-start:url(#i);marker-end:url(#i)" transform="translate(-8.315 -89.203)"/><path d="M32.765 162.097h3.93" style="fill:#fff6d5;stroke:purple;stroke-width:.264583;stroke-linejoin:round;marker-start:url(#j);marker-end:url(#j)" transform="translate(-8.315 -89.203)"/><text xml:space="preserve" style="font-size:16px;line-height:normal;font-family:&quot;Liberation Mono&quot;;-inkscape-font-specification:&quot;Liberation Mono&quot;;text-decoration-color:#000;white-space:pre;shape-inside:url(#k);display:inline;fill:purple;stroke-width:1;-inkscape-stroke:none;stop-color:#000" transform="translate(12.116 6.883)scale(.26458)"><tspan x="45.723" y="264.701">W2</tspan></text><text xml:space="preserve" style="font-size:16px;line-height:normal;font-family:&quot;Liberation Mono&quot;;-inkscape-font-specification:&quot;Liberation Mono&quot;;text-decoration-color:#000;white-space:pre;shape-inside:url(#l);display:inline;fill:purple;stroke-width:1;-inkscape-stroke:none;stop-color:#000" transform="translate(16.126 13.395)scale(.26458)"><tspan x="45.723" y="264.701">W3</tspan></text><path d="M44.317 169.356v-20.022" style="fill:none;stroke:#ccc;stroke-width:.264582;stroke-linejoin:round" transform="translate(-8.315 -89.203)"/><path d="M40.018 158.069h3.929" style="fill:#fff6d5;stroke:#666;stroke-width:.264583;stroke-linejoin:round;marker-start:url(#m);marker-end:url(#m)" transform="translate(-8.315 -89.203)"/><text xml:space="preserve" style="font-size:16px;line-height:normal;font-family:&quot;Liberation Mono&quot;;-inkscape-font-specification:&quot;Liberation Mono&quot;;text-decoration-color:#000;white-space:pre;shape-inside:url(#n);display:inline;fill:#666;stroke-width:1;-inkscape-stroke:none;stop-color:#000" transform="translate(19.368 2.854)scale(.26458)"><tspan x="45.723" y="264.701">W2</tspan></text><path d="M47.862 169.356v-20.154" style="fill:none;stroke:#ccc;stroke-width:.264583;stroke-linejoin:round" transform="translate(-8.315 -89.203)"/><path d="M44.73 168.811h2.72" style="fill:#fff6d5;stroke:#666;stroke-width:.264583;stroke-linejoin:round;marker-start:url(#o);marker-end:url(#o)" transform="translate(-8.315 -89.203)"/><text xml:space="preserve" style="font-size:16px;line-height:normal;font-family:&quot;Liberation Mono&quot;;-inkscape-font-specification:&quot;Liberation Mono&quot;;text-decoration-color:#000;white-space:pre;shape-inside:url(#p);display:inline;fill:#666;stroke-width:1;-inkscape-stroke:none;stop-color:#000" transform="translate(23.568 13.737)scale(.26458)"><tspan x="45.723" y="264.701">W3</tspan></text><path d="M83.401 114.756h2.646v34.446h-2.646z" style="fill:#fff6d5;stroke:#000;stroke-width:.264583;stroke-linejoin:round" transform="translate(-8.315 -89.203)"/><path d="M86.047 164.705v-15.37" style="fill:none;stroke:#ccc;stroke-width:.264584;stroke-linejoin:round" transform="translate(-8.315 -89.203)"/><path d="M92.007 158.412v-9.078" style="fill:none;stroke:#ccc;stroke-width:.264582;stroke-linejoin:round" transform="translate(-8.315 -89.203)"/><path d="M86.431 155.284h5.192" style="fill:#fff6d5;stroke:#666;stroke-width:.264583;stroke-linejoin:round;marker-start:url(#q);marker-end:url(#q)" transform="translate(-8.315 -89.203)"/><text xml:space="preserve" style="font-size:16px;line-height:normal;font-family:&quot;Liberation Mono&quot;;-inkscape-font-specification:&quot;Liberation Mono&quot;;text-decoration-color:#000;white-space:pre;shape-inside:url(#r);display:inline;fill:#666;stroke-width:1;-inkscape-stroke:none;stop-color:#000" transform="translate(66.408 .568)scale(.26458)"><tspan x="45.723" y="264.701">W1</tspan></text><path d="M83.401 164.705v-15.37" style="fill:none;stroke:#ccc;stroke-width:.264584;stroke-linejoin:round" transform="translate(-8.315 -89.203)"/><path d="M83.527 163.306h2.53" style="fill:#fff6d5;stroke:purple;stroke-width:.264583;stroke-linejoin:round;marker-start:url(#s);marker-end:url(#s)" transform="translate(-8.315 -89.203)"/><text xml:space="preserve" style="font-size:16px;line-height:normal;font-family:&quot;Liberation Mono&quot;;-inkscape-font-specification:&quot;Liberation Mono&quot;;text-decoration-color:#000;white-space:pre;shape-inside:url(#t);display:inline;fill:purple;stroke-width:1;-inkscape-stroke:none;stop-color:#000" transform="translate(60.712 8.59)scale(.26458)"><tspan x="45.723" y="264.701">W1b</tspan></text><path d="M78.79 158.412v-9.078" style="fill:none;stroke:#ccc;stroke-width:.264582;stroke-linejoin:round" transform="translate(-8.315 -89.203)"/><path d="M79.16 155.284h3.929" style="fill:#fff6d5;stroke:#666;stroke-width:.264583;stroke-linejoin:round;marker-start:url(#u);marker-end:url(#u)" transform="translate(-8.315 -89.203)"/><text xml:space="preserve" style="font-size:16px;line-height:normal;font-family:&quot;Liberation Mono&quot;;-inkscape-font-specification:&quot;Liberation Mono&quot;;text-decoration-color:#000;white-space:pre;shape-inside:url(#v);display:inline;fill:#666;stroke-width:1;-inkscape-stroke:none;stop-color:#000" transform="translate(58.51 .07)scale(.26458)"><tspan x="45.723" y="264.701">W2</tspan></text><text xml:space="preserve" style="font-size:16px;line-height:normal;font-family:&quot;Liberation Mono&quot;;-inkscape-font-specification:&quot;Liberation Mono&quot;;text-decoration-color:#000;white-space:pre;shape-inside:url(#w);fill:green;stroke-width:1;-inkscape-stroke:none;stop-color:#000" transform="translate(-10.46 -95.043)scale(.26458)"><tspan x="44.146" y="380.024">leftCaps:[ext,int]</tspan></text><text xml:space="preserve" style="font-size:16px;line-height:normal;font-family:&quot;Liberation Mono&quot;;-inkscape-font-specification:&quot;Liberation Mono&quot;;text-decoration-color:#000;white-space:pre;shape-inside:url(#x);display:inline;fill:green;stroke-width:1;-inkscape-stroke:none;stop-color:#000" transform="translate(42.776 -91.022)scale(.26458)"><tspan x="44.146" y="380.024">rightCaps:[ext,int]</tspan></text><path d="M26.46 113.349h5.483" style="fill:#666;stroke:green;stroke-width:.264583;stroke-linejoin:round" transform="translate(-8.315 -89.203)"/><path d="M83.172 113.11h8.82" style="fill:#666;stroke:green;stroke-width:.264584;stroke-linejoin:round" transform="translate(-8.315 -89.203)"/><path d="m20.62 95.828 8.7 16.805" style="fill:green;stroke:green;stroke-width:.264583;stroke-linejoin:round;marker-end:url(#c)" transform="translate(-8.315 -89.203)"/><path d="m85.22 99.761 2.026 12.753" style="fill:green;stroke:green;stroke-width:.264583;stroke-linejoin:round;marker-end:url(#c)" transform="translate(-8.315 -89.203)"/></svg>