<svg xmlns="http://www.w3.org/2000/svg" width="509.139" height="345.165" viewBox="0 0 134.71 91.325"><defs><marker id="b" markerHeight="1" markerWidth="1" orient="auto-start-reverse" preserveAspectRatio="xMidYMid" refX="0" refY="0" style="overflow:visible" viewBox="0 0 1 1"><path d="M3-3 0 0l3 3" style="fill:none;stroke:context-stroke;stroke-width:1;stroke-linecap:round" transform="rotate(180 .125 0)"/></marker><marker id="a" markerHeight="1" markerWidth="1" orient="auto-start-reverse" preserveAspectRatio="xMidYMid" refX="0" refY="0" style="overflow:visible" viewBox="0 0 1 1"><path d="M3-3 0 0l3 3" style="fill:none;stroke:context-stroke;stroke-width:1;stroke-linecap:butt" transform="rotate(180 .125 0)"/></marker><marker id="c" markerHeight="1" markerWidth="1" orient="auto-start-reverse" preserveAspectRatio="xMidYMid" refX="0" refY="0" style="overflow:visible" viewBox="0 0 1 1"><path d="M3-3 0 0l3 3" style="fill:none;stroke:context-stroke;stroke-width:1;stroke-linecap:butt" transform="rotate(180 .125 0)"/></marker><marker id="d" markerHeight="1" markerWidth="1" orient="auto-start-reverse" preserveAspectRatio="xMidYMid" refX="0" refY="0" style="overflow:visible" viewBox="0 0 1 1"><path d="M3-3 0 0l3 3" style="fill:none;stroke:context-stroke;stroke-width:1;stroke-linecap:round" transform="rotate(180 .125 0)"/></marker><marker id="e" markerHeight="1" markerWidth="1" orient="auto-start-reverse" preserveAspectRatio="xMidYMid" refX="0" refY="0" style="overflow:visible" viewBox="0 0 1 1"><path d="M3-3 0 0l3 3" style="fill:none;stroke:context-stroke;stroke-width:1;stroke-linecap:butt" transform="rotate(180 .125 0)"/></marker><marker id="f" markerHeight="1" markerWidth="1" orient="auto-start-reverse" preserveAspectRatio="xMidYMid" refX="0" refY="0" style="overflow:visible" viewBox="0 0 1 1"><path d="M3-3 0 0l3 3" style="fill:none;stroke:context-stroke;stroke-width:1;stroke-linecap:round" transform="rotate(180 .125 0)"/></marker><marker id="l" markerHeight="1" markerWidth="1" orient="auto-start-reverse" preserveAspectRatio="xMidYMid" refX="0" refY="0" style="overflow:visible" viewBox="0 0 1 1"><path d="M3-3 0 0l3 3" style="fill:none;stroke:context-stroke;stroke-width:1;stroke-linecap:round" transform="rotate(180 .125 0)"/></marker><marker id="n" markerHeight="1" markerWidth="1" orient="auto-start-reverse" preserveAspectRatio="xMidYMid" refX="0" refY="0" style="overflow:visible" viewBox="0 0 1 1"><path d="M3-3 0 0l3 3" style="fill:none;stroke:context-stroke;stroke-width:1;stroke-linecap:round" transform="rotate(180 .125 0)"/></marker><marker id="o" markerHeight="1" markerWidth="1" orient="auto-start-reverse" preserveAspectRatio="xMidYMid" refX="0" refY="0" style="overflow:visible" viewBox="0 0 1 1"><path d="M3-3 0 0l3 3" style="fill:none;stroke:context-stroke;stroke-width:1;stroke-linecap:round" transform="rotate(180 .125 0)"/></marker><marker id="r" markerHeight="1" markerWidth="1" orient="auto-start-reverse" preserveAspectRatio="xMidYMid" refX="0" refY="0" style="overflow:visible" viewBox="0 0 1 1"><path d="M3-3 0 0l3 3" style="fill:none;stroke:context-stroke;stroke-width:1;stroke-linecap:round" transform="rotate(180 .125 0)"/></marker><marker id="t" markerHeight="1" markerWidth="1" orient="auto-start-reverse" preserveAspectRatio="xMidYMid" refX="0" refY="0" style="overflow:visible" viewBox="0 0 1 1"><path d="M3-3 0 0l3 3" style="fill:none;stroke:context-stroke;stroke-width:1;stroke-linecap:round" transform="rotate(180 .125 0)"/></marker><marker id="u" markerHeight="1" markerWidth="1" orient="auto-start-reverse" preserveAspectRatio="xMidYMid" refX="0" refY="0" style="overflow:visible" viewBox="0 0 1 1"><path d="M3-3 0 0l3 3" style="fill:none;stroke:context-stroke;stroke-width:1;stroke-linecap:round" transform="rotate(180 .125 0)"/></marker><marker id="y" markerHeight="1" markerWidth="1" orient="auto-start-reverse" preserveAspectRatio="xMidYMid" refX="0" refY="0" style="overflow:visible" viewBox="0 0 1 1"><path d="M3-3 0 0l3 3" style="fill:none;stroke:context-stroke;stroke-width:1;stroke-linecap:butt" transform="rotate(180 .125 0)"/></marker><marker id="z" markerHeight="1" markerWidth="1" orient="auto-start-reverse" preserveAspectRatio="xMidYMid" refX="0" refY="0" style="overflow:visible" viewBox="0 0 1 1"><path d="M3-3 0 0l3 3" style="fill:none;stroke:context-stroke;stroke-width:1;stroke-linecap:round" transform="rotate(180 .125 0)"/></marker><marker id="B" markerHeight="1" markerWidth="1" orient="auto-start-reverse" preserveAspectRatio="xMidYMid" refX="0" refY="0" style="overflow:visible" viewBox="0 0 1 1"><path d="M3-3 0 0l3 3" style="fill:none;stroke:context-stroke;stroke-width:1;stroke-linecap:butt" transform="rotate(180 .125 0)"/></marker><marker id="C" markerHeight="1" markerWidth="1" orient="auto-start-reverse" preserveAspectRatio="xMidYMid" refX="0" refY="0" style="overflow:visible" viewBox="0 0 1 1"><path d="M3-3 0 0l3 3" style="fill:none;stroke:context-stroke;stroke-width:1;stroke-linecap:round" transform="rotate(180 .125 0)"/></marker><marker id="D" markerHeight="1" markerWidth="1" orient="auto-start-reverse" preserveAspectRatio="xMidYMid" refX="0" refY="0" style="overflow:visible" viewBox="0 0 1 1"><path d="M3-3 0 0l3 3" style="fill:none;stroke:context-stroke;stroke-width:1;stroke-linecap:butt" transform="rotate(180 .125 0)"/></marker><marker id="E" markerHeight="1" markerWidth="1" orient="auto-start-reverse" preserveAspectRatio="xMidYMid" refX="0" refY="0" style="overflow:visible" viewBox="0 0 1 1"><path d="M3-3 0 0l3 3" style="fill:none;stroke:context-stroke;stroke-width:1;stroke-linecap:round" transform="rotate(180 .125 0)"/></marker><marker id="I" markerHeight="1" markerWidth="1" orient="auto-start-reverse" preserveAspectRatio="xMidYMid" refX="0" refY="0" style="overflow:visible" viewBox="0 0 1 1"><path d="M3-3 0 0l3 3" style="fill:none;stroke:context-stroke;stroke-width:1;stroke-linecap:round" transform="rotate(180 .125 0)"/></marker><marker id="K" markerHeight="1" markerWidth="1" orient="auto-start-reverse" preserveAspectRatio="xMidYMid" refX="0" refY="0" style="overflow:visible" viewBox="0 0 1 1"><path d="M3-3 0 0l3 3" style="fill:none;stroke:context-stroke;stroke-width:1;stroke-linecap:round" transform="rotate(180 .125 0)"/></marker><path id="N" d="M93.649 286.682h38.224v35.676H93.649z"/><path id="M" d="M236.501 58.562h111.718V94.15H236.501z"/><path id="L" d="M184.751 416.963h39.18v22.935h-39.18z"/><path id="J" d="M179.74 295.063h119.602v113.52H179.74z"/><path id="G" d="M187.173 418.719h27.704v20.271h-27.704z"/><path id="F" d="M178.389 411.736h38.741v24.551h-38.741z"/><path id="x" d="M62.616 255.195h109.466v42.345H62.616z"/><path id="w" d="M106.313 440.792h38.065v28.38h-38.065z"/><path id="v" d="M36.714 428.855h32.868v23.875H36.714z"/><path id="s" d="M483.696 300.698h38.702v25.324h-38.702z"/><path id="q" d="M528.41 400.7h85.133v81.203H528.41z"/><path id="p" d="M521.284 397.673h24.209v19.45h-24.209z"/><path id="m" d="M430.656 426.602h42.263v28.38h-42.263z"/><path id="k" d="M253.619 424.8h45.782v26.128h-45.782z"/><path id="j" d="M400.474 168.407h34.687v30.704h-34.687z"/><path id="h" d="M208.459 417.142h37.587v30.632h-37.587z"/><path id="g" d="M267.584 418.944h37.39v31.984h-37.39z"/><path id="i" d="M208.459 417.142h37.587v30.632h-37.587z"/><path id="A" d="M208.459 417.142h37.587v30.632h-37.587z"/><path id="H" d="M62.616 255.195h156.609v32.789H62.616z"/></defs><g transform="translate(-12.263 -27.52)"><path d="M12.396 27.652h134.445v91.06H12.396z" style="fill:#fff;stroke:#fff;stroke-width:.264583;stroke-linejoin:round;stroke-dasharray:none"/><path d="M125.127 103.498v10.559" style="fill:purple;stroke:#ccc;stroke-width:.264583;stroke-linejoin:round"/><circle cx="76.02" cy="61.018" r="26.811" style="fill:none;stroke:#ffd5d5;stroke-width:.264583;stroke-linejoin:round"/><path d="M36.035 93.778h80.102V89.17l-7.573-13.366H43.648L35.903 89.17z" style="fill:#d7eef4;stroke:#5fbcd3;stroke-width:.264583;stroke-linejoin:round"/><path d="M131.139 103.498h8.06M116.287 99.574h15.91M61.54 71.806h14.48" style="fill:purple;stroke:#e6e6e6;stroke-width:.264583;stroke-linejoin:round"/><circle cx="76.02" cy="61.018" r="10.788" style="fill:none;stroke:#d4aa00;stroke-width:.264583;stroke-linejoin:round"/><circle cx="76.02" cy="61.018" r="20.733" style="fill:none;stroke:#e6e6e6;stroke-width:.264583;stroke-linejoin:round"/><path d="M20.901 100.632h15.002v2.865H20.901z" style="fill:none;stroke:#e6e6e6;stroke-width:.264582;stroke-linejoin:round"/><path d="M35.903 89.17h80.234v14.327H35.903z" style="fill:none;stroke:#e6e6e6;stroke-width:.264583;stroke-linejoin:round"/><path d="M76.02 40.285h18.77" style="fill:purple;stroke:#e6e6e6;stroke-width:.264583;stroke-linejoin:round"/><path d="M35.903 103.498V89.17l21.106-36.425s2.657-4.807 4.626-6.658c2.21-2.077 4.932-3.67 7.776-4.72 2.094-.774 4.377-1.077 6.609-1.082 2.179-.004 4.378.369 6.454 1.03 1.868.596 3.641 1.519 5.272 2.605 1.324.882 2.53 1.957 3.6 3.135 1.103 1.216 2.862 4.011 2.862 4.011l21.929 38.104v14.328z" style="fill:none;stroke:#d4aa00;stroke-width:.264583;stroke-linejoin:round"/><path d="M122.385 100.632h5.483v2.865h-5.483zM24.076 100.632h5.483v2.865h-5.483z" style="fill:none;stroke:#fea;stroke-width:.264583;stroke-linejoin:round"/><path d="M116.137 100.632h15.002v2.865h-15.002z" style="fill:none;stroke:#e6e6e6;stroke-width:.264582;stroke-linejoin:round"/><path d="M-99.574 16.977h7.135v2.865h-7.135z" style="fill:none;stroke:#e6e6e6;stroke-width:.264582;stroke-linejoin:round" transform="rotate(-90)"/><path d="M16.977 92.439h2.866v7.135s.119.585.32.781c.19.183.738.277.738.277h15.002v2.866H20.901s-.86.058-1.264-.066a4.2 4.2 0 0 1-1.77-1.075c-.404-.422-.687-.974-.843-1.538-.11-.4-.047-1.245-.047-1.245z" style="fill:none;stroke:#d4aa00;stroke-width:.264583;stroke-linejoin:round"/><path d="M-99.574-135.062h7.135v2.865h-7.135z" style="fill:none;stroke:#e6e6e6;stroke-width:.264582;stroke-linejoin:round" transform="rotate(90)scale(-1 1)"/><path d="M135.062 92.439h-2.865v7.135s-.119.585-.321.781c-.189.183-.737.277-.737.277h-15.002v2.866h15.002s.86.058 1.264-.066a4.2 4.2 0 0 0 1.77-1.075c.404-.422.687-.974.842-1.538.11-.4.047-1.245.047-1.245z" style="fill:none;stroke:#d4aa00;stroke-width:.264583;stroke-linejoin:round"/><path d="M90.307 61.97v26.92" style="fill:none;stroke:teal;stroke-width:.264584;stroke-linejoin:round;marker-start:url(#a);marker-end:url(#aRounded)"/><path d="M90.307 89.204V99.21" style="fill:none;stroke:teal;stroke-width:.264584;stroke-linejoin:round;marker-start:url(#c);marker-end:url(#d)"/><path d="M90.307 40.643v20.499" style="fill:none;stroke:teal;stroke-width:.264583;stroke-linejoin:round;marker-start:url(#e);marker-end:url(#f)"/><text xml:space="preserve" style="font-size:16px;line-height:normal;font-family:&quot;Liberation Mono&quot;;-inkscape-font-specification:&quot;Liberation Mono&quot;;text-decoration-color:#000;white-space:pre;shape-inside:url(#g);display:inline;fill:teal;stroke-width:1;-inkscape-stroke:none;stop-color:#000" transform="translate(20.1 -67.222)scale(.26458)"><tspan x="267.584" y="433.18">R2</tspan></text><text xml:space="preserve" style="font-size:16px;line-height:normal;font-family:&quot;Liberation Mono&quot;;-inkscape-font-specification:&quot;Liberation Mono&quot;;text-decoration-color:#000;white-space:pre;shape-inside:url(#h);display:inline;fill:teal;stroke-width:1;-inkscape-stroke:none;stop-color:#000" transform="translate(35.505 -16.596)scale(.26458)"><tspan x="208.459" y="431.379">H1</tspan></text><text xml:space="preserve" style="font-size:16px;line-height:normal;font-family:&quot;Liberation Mono&quot;;-inkscape-font-specification:&quot;Liberation Mono&quot;;text-decoration-color:#000;white-space:pre;shape-inside:url(#i);display:inline;fill:teal;stroke-width:1;-inkscape-stroke:none;stop-color:#000" transform="translate(35.744 -39.258)scale(.26458)"><tspan x="208.459" y="431.379">H2</tspan></text><text xml:space="preserve" style="font-size:16px;line-height:normal;font-family:&quot;Liberation Mono&quot;;-inkscape-font-specification:&quot;Liberation Mono&quot;;text-decoration-color:#000;white-space:pre;shape-inside:url(#j);display:inline;fill:purple;stroke-width:1;-inkscape-stroke:none;stop-color:#000" transform="scale(.26458)"><tspan x="400.475" y="182.645">D1</tspan></text><path d="m106.793 48.987-19.785 8.7" style="fill:purple;stroke:purple;stroke-width:.264583;stroke-linejoin:round;marker-end:url(#b)"/><path d="M36.377 106.144h79.377" style="fill:purple;stroke:purple;stroke-width:.264583;stroke-linejoin:round;marker-start:url(#b);marker-end:url(#b)"/><rect width="8.284" height="2.086" x="63.199" y="91.696" ry="1.043" style="fill:#fff;stroke:#5fbcd3;stroke-width:.264583;stroke-linejoin:round"/><text xml:space="preserve" style="font-size:16px;line-height:normal;font-family:&quot;Liberation Mono&quot;;-inkscape-font-specification:&quot;Liberation Mono&quot;;text-decoration-color:#000;white-space:pre;shape-inside:url(#k);display:inline;fill:purple;stroke-width:1;-inkscape-stroke:none;stop-color:#000" transform="translate(6.233 -5.602)scale(.26458)"><tspan x="253.619" y="439.037">L1</tspan></text><path d="M116.508 106.144h14.333" style="fill:purple;stroke:purple;stroke-width:.264583;stroke-linejoin:round;marker-start:url(#l);marker-end:url(#l)"/><text xml:space="preserve" style="font-size:16px;line-height:normal;font-family:&quot;Liberation Mono&quot;;-inkscape-font-specification:&quot;Liberation Mono&quot;;text-decoration-color:#000;white-space:pre;shape-inside:url(#m);display:inline;fill:purple;stroke-width:1;-inkscape-stroke:none;stop-color:#000" transform="translate(5.802 -7.018)scale(.26458)"><tspan x="430.656" y="440.838">L2</tspan></text><path d="M138.237 99.295v-6.578" style="fill:purple;stroke:purple;stroke-width:.264583;stroke-linejoin:round;marker-start:url(#n);marker-end:url(#n)"/><path d="M127.1 88.345h4.711" style="fill:purple;stroke:#4a0;stroke-width:.264583;stroke-linejoin:round;marker-end:url(#o)"/><path d="M116.137 103.63v3.993M131.139 103.63v3.993M135.195 99.574h3.992M135.062 92.439h3.993" style="fill:purple;stroke:#ccc;stroke-width:.264583;stroke-linejoin:round"/><text xml:space="preserve" style="font-size:16px;line-height:normal;font-family:&quot;Liberation Mono&quot;;-inkscape-font-specification:&quot;Liberation Mono&quot;;text-decoration-color:#000;white-space:pre;shape-inside:url(#p);display:inline;fill:purple;stroke-width:1;-inkscape-stroke:none;stop-color:#000" transform="translate(1.98 -11.562)scale(.26458)"><tspan x="521.283" y="411.91">A2</tspan></text><path d="m131.406 99.463-13.767-23.182" style="fill:purple;stroke:#4a0;stroke-width:.264583;stroke-linejoin:round;stroke-dasharray:none;marker-start:url(#b)"/><path d="M116.15 55.423v20.524" style="fill:purple;stroke:#4a0;stroke-width:.264584;stroke-linejoin:round;stroke-dasharray:none"/><text xml:space="preserve" style="font-size:16px;line-height:normal;font-family:&quot;Liberation Mono&quot;;-inkscape-font-specification:&quot;Liberation Mono&quot;;text-decoration-color:#000;white-space:pre;shape-inside:url(#q);display:inline;fill:#4a0;stroke-width:1;-inkscape-stroke:none;stop-color:#000" transform="translate(-23.404 -50.635)scale(.26458)"><tspan x="528.41" y="414.936">Jangle
</tspan><tspan x="528.41" y="434.936">Jradius
</tspan><tspan x="528.41" y="454.936">Jneutral
</tspan><tspan x="528.41" y="474.936">Jmark
</tspan></text><path d="M132.197 92.306v-3.992M135.062 92.306v-3.992" style="fill:purple;stroke:#ccc;stroke-width:.264583;stroke-linejoin:round"/><path d="M140.153 88.44h-4.711" style="fill:purple;stroke:#4a0;stroke-width:.264583;stroke-linejoin:round;marker-end:url(#r)"/><text xml:space="preserve" style="font-size:16px;line-height:normal;font-family:&quot;Liberation Mono&quot;;-inkscape-font-specification:&quot;Liberation Mono&quot;;text-decoration-color:#000;white-space:pre;shape-inside:url(#s);display:inline;fill:#4a0;stroke-width:1;-inkscape-stroke:none;stop-color:#000" transform="translate(3.203 2.992)scale(.26458)"><tspan x="483.697" y="314.934">Th</tspan></text><path d="M35.903 103.498v5.52M26.818 103.498v10.559" style="fill:purple;stroke:#ccc;stroke-width:.264582;stroke-linejoin:round"/><path d="M27.22 113.13h97.509" style="fill:purple;stroke:#00f;stroke-width:.264583;stroke-linejoin:round;marker-start:url(#t);marker-end:url(#t)"/><path d="M24.076 92.455v8.045M29.559 92.455v8.045" style="fill:purple;stroke:#ccc;stroke-width:.264582;stroke-linejoin:round"/><path d="M24.462 92.852h4.728" style="fill:purple;stroke:#00f;stroke-width:.264583;stroke-linejoin:round;marker-start:url(#u);marker-end:url(#u)"/><text xml:space="preserve" style="font-size:16px;line-height:normal;font-family:&quot;Liberation Mono&quot;;-inkscape-font-specification:&quot;Liberation Mono&quot;;text-decoration-color:#000;white-space:pre;shape-inside:url(#v);display:inline;fill:#00f;stroke-width:1;-inkscape-stroke:none;stop-color:#000" transform="translate(14.72 -25.745)scale(.26458)"><tspan x="36.715" y="443.092">D3</tspan></text><text xml:space="preserve" style="font-size:16px;line-height:normal;font-family:&quot;Liberation Mono&quot;;-inkscape-font-specification:&quot;Liberation Mono&quot;;text-decoration-color:#000;white-space:pre;shape-inside:url(#w);display:inline;fill:#00f;stroke-width:1;-inkscape-stroke:none;stop-color:#000" transform="translate(45.272 -3.739)scale(.26458)"><tspan x="106.313" y="455.029">P3</tspan></text><path d="M15.018 90.166h5.959v16.329h-5.959z" style="fill:none;stroke:#918a6f;stroke-width:.264583;stroke-linejoin:round;stroke-dasharray:none"/><text xml:space="preserve" style="font-size:16px;line-height:normal;font-family:&quot;Liberation Mono&quot;;-inkscape-font-specification:&quot;Liberation Mono&quot;;text-decoration-color:#000;white-space:pre;shape-inside:url(#x);display:inline;fill:#918a6f;stroke-width:1;-inkscape-stroke:none;stop-color:#000" transform="translate(-3.724 -.514)scale(.26458)"><tspan x="62.617" y="269.432">B2:[On,Off]</tspan></text><path d="m16.751 71.971 1.247 17.659" style="fill:#8dd35f;stroke:#918a6f;stroke-width:.264583;stroke-linejoin:round;stroke-dasharray:none;marker-end:url(#b)"/><path d="M35.903 99.538h80.234v3.96H35.903z" style="fill:none;stroke:#d4aa00;stroke-width:.264583;stroke-linejoin:round"/><path d="M76.02 38.556v64.942M76.02 61.557h18.77" style="fill:purple;stroke:#e6e6e6;stroke-width:.264583;stroke-linejoin:round"/><path d="M138.25 99.703v3.39" style="fill:#b3b3b3;stroke:#b3b3b3;stroke-width:.264584;stroke-linejoin:round;marker-start:url(#y);marker-end:url(#z)"/><text xml:space="preserve" style="font-size:16px;line-height:normal;font-family:&quot;Liberation Mono&quot;;-inkscape-font-specification:&quot;Liberation Mono&quot;;text-decoration-color:#000;white-space:pre;shape-inside:url(#A);display:inline;fill:#b3b3b3;stroke-width:1;-inkscape-stroke:none;stop-color:#000" transform="translate(84.122 -11.29)scale(.26458)"><tspan x="208.459" y="431.379">H0</tspan></text><path d="M64.174 72.191v3.39" style="fill:#b3b3b3;stroke:#2c89a0;stroke-width:.264584;stroke-linejoin:round;marker-start:url(#B);marker-end:url(#C)"/><path d="M64.174 94.028v5.223" style="fill:#b3b3b3;stroke:#2c89a0;stroke-width:.264585;stroke-linejoin:round;marker-start:url(#D);marker-end:url(#E)"/><text xml:space="preserve" style="font-size:16px;line-height:normal;font-family:&quot;Liberation Mono&quot;;-inkscape-font-specification:&quot;Liberation Mono&quot;;text-decoration-color:#000;white-space:pre;shape-inside:url(#F);display:inline;fill:#2c89a0;stroke-width:1;-inkscape-stroke:none;stop-color:#000" transform="translate(10.19 -14.481)scale(.26458)"><tspan x="178.389" y="425.973">E1</tspan></text><text xml:space="preserve" style="font-size:16px;line-height:normal;font-family:&quot;Liberation Mono&quot;;-inkscape-font-specification:&quot;Liberation Mono&quot;;text-decoration-color:#000;white-space:pre;shape-inside:url(#G);display:inline;fill:#2c89a0;stroke-width:1;-inkscape-stroke:none;stop-color:#000" transform="translate(8.164 -39.511)scale(.26458)"><tspan x="187.174" y="432.955">E2</tspan></text><text xml:space="preserve" style="font-size:16px;line-height:normal;font-family:&quot;Liberation Mono&quot;;-inkscape-font-specification:&quot;Liberation Mono&quot;;text-decoration-color:#000;white-space:pre;shape-inside:url(#H);display:inline;fill:#918a6f;stroke-width:1;-inkscape-stroke:none;stop-color:#000" transform="translate(88.767 -30.019)scale(.26458)"><tspan x="62.617" y="269.432">spring:[On,Off]</tspan></text><path d="m117.997 42.122-17.586 33.027" style="fill:#8dd35f;stroke:#918a6f;stroke-width:.264582;stroke-linejoin:round;stroke-dasharray:none;marker-end:url(#I)"/><rect width="8.284" height="2.086" x="44.815" y="91.649" ry="1.043" style="fill:#fff;stroke:#5fbcd3;stroke-width:.264583;stroke-linejoin:round"/><rect width="8.284" height="2.086" x="53.95" y="91.67" ry="1.043" style="fill:#fff;stroke:#5fbcd3;stroke-width:.264583;stroke-linejoin:round"/><rect width="8.284" height="2.086" x="49.311" y="88.607" ry="1.043" style="fill:#fff;stroke:#5fbcd3;stroke-width:.264583;stroke-linejoin:round"/><rect width="8.284" height="2.086" x="58.494" y="88.685" ry="1.043" style="fill:#fff;stroke:#5fbcd3;stroke-width:.264583;stroke-linejoin:round"/><text xml:space="preserve" style="font-size:16px;line-height:normal;font-family:&quot;Liberation Mono&quot;;-inkscape-font-specification:&quot;Liberation Mono&quot;;text-decoration-color:#000;white-space:pre;shape-inside:url(#J);display:inline;fill:#2c89a0;stroke-width:1;-inkscape-stroke:none;stop-color:#000" transform="translate(-19.64 -42.86)scale(.26458)"><tspan x="179.74" y="309.299">sNx
</tspan><tspan x="179.74" y="329.299"><tspan style="fill:#999">sNy</tspan>
</tspan><tspan x="179.74" y="349.299">smEy
</tspan><tspan x="179.74" y="369.299">shEy
</tspan><tspan x="179.74" y="389.299">shPr
</tspan></text><path d="M26.903 36.188v24.347" style="fill:#2c89a0;stroke:#5fbcd3;stroke-width:.264582;stroke-linejoin:round"/><path d="M38.094 58.658 50.568 87.65" style="fill:#2c89a0;stroke:#5fbcd3;stroke-width:.264583;stroke-linejoin:round;marker-end:url(#b)"/><path d="M57.476 84.714v4.958M58.692 84.765v4.958" style="fill:purple;stroke:#ccc;stroke-width:.264582;stroke-linejoin:round"/><path d="M63.884 85.122H59.08" style="fill:#2c89a0;stroke:#5fbcd3;stroke-width:.264583;stroke-linejoin:round;stroke-dasharray:none;marker-end:url(#b)"/><path d="M52.334 85.14h4.804" style="fill:#2c89a0;stroke:#5fbcd3;stroke-width:.264583;stroke-linejoin:round;stroke-dasharray:none;marker-end:url(#K)"/><text xml:space="preserve" style="font-size:16px;line-height:normal;font-family:&quot;Liberation Mono&quot;;-inkscape-font-specification:&quot;Liberation Mono&quot;;text-decoration-color:#000;white-space:pre;shape-inside:url(#L);display:inline;fill:#2c89a0;stroke-width:1;-inkscape-stroke:none;stop-color:#000" transform="translate(11.715 -29.666)scale(.26458)"><tspan x="184.75" y="431.199">smEx</tspan></text><text xml:space="preserve" style="font-size:16px;line-height:normal;font-family:&quot;Liberation Mono&quot;;-inkscape-font-specification:&quot;Liberation Mono&quot;;text-decoration-color:#000;white-space:pre;shape-inside:url(#M);display:inline;fill:#faa;stroke-width:1;-inkscape-stroke:none;stop-color:#000" transform="translate(-22.765 14.66)scale(.26458)"><tspan x="236.5" y="72.799">Dbearing</tspan></text><path d="m52.443 34.922 4.648 6.198" style="fill:#faa;stroke:#faa;stroke-width:.264583;stroke-linejoin:round;stroke-dasharray:none;marker-end:url(#b)"/><text xml:space="preserve" style="font-size:16px;line-height:normal;font-family:&quot;Liberation Mono&quot;;-inkscape-font-specification:&quot;Liberation Mono&quot;;text-decoration-color:#000;white-space:pre;shape-inside:url(#N);display:inline;fill:#a40;stroke-width:1;-inkscape-stroke:none;stop-color:#000" transform="scale(.26458)"><tspan x="93.65" y="300.918">Rc1</tspan></text><path d="m31.183 80.57 4.046 7.08" style="fill:#fff;stroke:#a40;stroke-width:.264583;stroke-linejoin:round;marker-end:url(#b)"/></g></svg>