<svg xmlns="http://www.w3.org/2000/svg" width="324.893" height="234.798" viewBox="0 0 85.961 62.124"><defs><path id="a" d="M203.841 231.771h46.174v24.776h-46.174z"/><path id="d" d="M174.558 591.202h89.19v155.445h-89.19z"/><path id="e" d="M174.558 591.202h89.19v155.445h-89.19z"/><path id="f" d="M174.558 591.202h89.19v155.445h-89.19z"/><marker id="b" markerHeight="1" markerWidth="1" orient="auto-start-reverse" preserveAspectRatio="xMidYMid" refX="0" refY="0" style="overflow:visible" viewBox="0 0 1 1"><path d="M3-3 0 0l3 3" style="fill:none;stroke:context-stroke;stroke-width:1;stroke-linecap:butt" transform="rotate(180 .125 0)"/></marker><marker id="c" markerHeight="1" markerWidth="1" orient="auto-start-reverse" preserveAspectRatio="xMidYMid" refX="0" refY="0" style="overflow:visible" viewBox="0 0 1 1"><path d="M3-3 0 0l3 3" style="fill:none;stroke:context-stroke;stroke-width:1;stroke-linecap:butt" transform="rotate(180 .125 0)"/></marker></defs><g transform="translate(-48.735 -198.913)"><path d="M48.867 199.045h85.697v61.859H48.867z" style="fill:#fff;stroke:#fff;stroke-width:.264583;stroke-linejoin:round"/><circle cx="69.771" cy="238.82" r="17.53" style="fill:#fff6d5;stroke:#1a1a1a;stroke-width:.264584;stroke-linejoin:round"/><path d="M78.475 238.54H76.06s-.068-.979-.215-1.442a5.3 5.3 0 0 0-.751-1.503c-.22-.305-.799-.798-.799-.798l1.396-1.664s-.492-.589-.758-.864c-.273-.282-.54-.577-.859-.805-.527-.377-1.093-.736-1.717-.912-.552-.156-1.144-.09-1.718-.108-.397-.012-1.193 0-1.193 0l-.101 2.2s-.978-.02-1.443.107c-.54.15-1.059.41-1.503.752-.49.376-1.228 1.389-1.228 1.389l-2.093-1.396s-.624.612-.865.973a8 8 0 0 0-.912 1.878c-.142.415-.232.85-.269 1.287-.043.504.054 1.515.054 1.515l2.254-.16s.082.889.161 1.328c.082.453.128.925.322 1.342.178.382.495.684.752 1.02.137.179.423.53.423.53l-1.396 1.663s.74.785 1.187 1.08c.575.378 1.241.598 1.879.858.634.259 1.257.58 1.932.697.41.072 1.247 0 1.247 0l.053-2.522s.97.103 1.437 0c.5-.11.95-.39 1.395-.643.302-.172.61-.348.86-.59.218-.215.536-.746.536-.746l2.522 1.45s.45-.49.644-.758c.283-.39.566-.79.752-1.234.199-.477.303-.992.376-1.503.07-.496.044-1.001.053-1.502.006-.306 0-.919 0-.919z" style="fill:#fff;stroke:teal;stroke-width:.264583;stroke-linejoin:round"/><text xml:space="preserve" style="font-size:16px;line-height:normal;font-family:&quot;Liberation Mono&quot;;-inkscape-font-specification:&quot;Liberation Mono&quot;;text-decoration-color:#000;white-space:pre;shape-inside:url(#a);display:inline;fill:purple;stroke-width:1;-inkscape-stroke:none;stop-color:#000" transform="translate(34.144 189.756)scale(.26458)"><tspan x="203.842" y="246.008">D1</tspan></text><path d="m83.402 250.445 4.436 2.6" style="fill:purple;stroke:purple;stroke-width:.264583;stroke-linejoin:round;marker-start:url(#b)"/><path d="m76.135 232.546 15.86-12.598" style="fill:#3771c8;stroke:#3771c8;stroke-width:.264583;stroke-linejoin:round;marker-start:url(#c)"/><text xml:space="preserve" style="font-size:16px;line-height:normal;font-family:&quot;Liberation Mono&quot;;-inkscape-font-specification:&quot;Liberation Mono&quot;;text-decoration-color:#000;white-space:pre;shape-inside:url(#d);display:inline;fill:#2c5aa0;stroke-width:1;-inkscape-stroke:none;stop-color:#000" transform="translate(47.38 50.799)scale(.26458)"><tspan x="174.557" y="605.44">Dt
</tspan><tspan x="174.557" y="625.44">Nt
</tspan><tspan x="174.557" y="645.44">Ht</tspan></text><path d="M102.27 204.03v25.432" style="fill:#3771c8;stroke:#3771c8;stroke-width:.264583;stroke-linejoin:round"/><text xml:space="preserve" style="font-size:16px;line-height:normal;font-family:&quot;Liberation Mono&quot;;-inkscape-font-specification:&quot;Liberation Mono&quot;;text-decoration-color:#000;white-space:pre;shape-inside:url(#e);display:inline;fill:#2c5aa0;stroke-width:1;-inkscape-stroke:none;stop-color:#000" transform="translate(57.218 47.784)scale(.26458)"><tspan x="174.557" y="605.44">ate
</tspan><tspan x="174.557" y="625.44">dh
</tspan><tspan x="174.557" y="645.44">ah
</tspan><tspan x="174.557" y="665.44">aeh
</tspan><tspan x="174.557" y="685.44">aM</tspan></text><path d="M115.002 204.04v25.432" style="fill:#3771c8;stroke:#3771c8;stroke-width:.264583;stroke-linejoin:round"/><text xml:space="preserve" style="font-size:16px;line-height:normal;font-family:&quot;Liberation Mono&quot;;-inkscape-font-specification:&quot;Liberation Mono&quot;;text-decoration-color:#000;white-space:pre;shape-inside:url(#f);display:inline;fill:#2c5aa0;stroke-width:1;-inkscape-stroke:none;stop-color:#000" transform="translate(69.95 50.44)scale(.26458)"><tspan x="174.557" y="605.44">SnAde
</tspan><tspan x="174.557" y="625.44">SnAae
</tspan><tspan x="174.557" y="645.44">Rde
</tspan><tspan x="174.557" y="665.44">Rae</tspan></text><path d="M92.549 202.691h38.263v28.486H92.549z" style="fill:none;stroke:#2c5aa0;stroke-width:.264583;stroke-linejoin:round"/></g></svg>