<svg xmlns="http://www.w3.org/2000/svg" width="545.177" height="228.942" viewBox="0 0 144.245 60.574"><defs><marker id="j" markerHeight="1" markerWidth="1" orient="auto-start-reverse" preserveAspectRatio="xMidYMid" refX="0" refY="0" style="overflow:visible" viewBox="0 0 1 1"><path d="M3-3 0 0l3 3" style="fill:none;stroke:context-stroke;stroke-width:1;stroke-linecap:round" transform="rotate(180 .125 0)"/></marker><marker id="a" markerHeight="1" markerWidth="1" orient="auto-start-reverse" preserveAspectRatio="xMidYMid" refX="0" refY="0" style="overflow:visible" viewBox="0 0 1 1"><path d="M3-3 0 0l3 3" style="fill:none;stroke:context-stroke;stroke-width:1;stroke-linecap:round" transform="rotate(180 .125 0)"/></marker><marker id="c" markerHeight="1" markerWidth="1" orient="auto-start-reverse" preserveAspectRatio="xMidYMid" refX="0" refY="0" style="overflow:visible" viewBox="0 0 1 1"><path d="M3-3 0 0l3 3" style="fill:none;stroke:context-stroke;stroke-width:1;stroke-linecap:round" transform="rotate(180 .125 0)"/></marker><marker id="d" markerHeight="1" markerWidth="1" orient="auto-start-reverse" preserveAspectRatio="xMidYMid" refX="0" refY="0" style="overflow:visible" viewBox="0 0 1 1"><path d="M3-3 0 0l3 3" style="fill:none;stroke:context-stroke;stroke-width:1;stroke-linecap:round" transform="rotate(180 .125 0)"/></marker><marker id="f" markerHeight="1" markerWidth="1" orient="auto-start-reverse" preserveAspectRatio="xMidYMid" refX="0" refY="0" style="overflow:visible" viewBox="0 0 1 1"><path d="M3-3 0 0l3 3" style="fill:none;stroke:context-stroke;stroke-width:1;stroke-linecap:round" transform="rotate(180 .125 0)"/></marker><marker id="g" markerHeight="1" markerWidth="1" orient="auto-start-reverse" preserveAspectRatio="xMidYMid" refX="0" refY="0" style="overflow:visible" viewBox="0 0 1 1"><path d="M3-3 0 0l3 3" style="fill:none;stroke:context-stroke;stroke-width:1;stroke-linecap:round" transform="rotate(180 .125 0)"/></marker><marker id="k" markerHeight="1" markerWidth="1" orient="auto-start-reverse" preserveAspectRatio="xMidYMid" refX="0" refY="0" style="overflow:visible" viewBox="0 0 1 1"><path d="M3-3 0 0l3 3" style="fill:none;stroke:context-stroke;stroke-width:1;stroke-linecap:round" transform="rotate(180 .125 0)"/></marker><marker id="l" markerHeight="1" markerWidth="1" orient="auto-start-reverse" preserveAspectRatio="xMidYMid" refX="0" refY="0" style="overflow:visible" viewBox="0 0 1 1"><path d="M3-3 0 0l3 3" style="fill:none;stroke:context-stroke;stroke-width:1;stroke-linecap:round" transform="rotate(180 .125 0)"/></marker><marker id="n" markerHeight="1" markerWidth="1" orient="auto-start-reverse" preserveAspectRatio="xMidYMid" refX="0" refY="0" style="overflow:visible" viewBox="0 0 1 1"><path d="M3-3 0 0l3 3" style="fill:none;stroke:context-stroke;stroke-width:1;stroke-linecap:round" transform="rotate(180 .125 0)"/></marker><marker id="p" markerHeight="1" markerWidth="1" orient="auto-start-reverse" preserveAspectRatio="xMidYMid" refX="0" refY="0" style="overflow:visible" viewBox="0 0 1 1"><path d="M3-3 0 0l3 3" style="fill:none;stroke:context-stroke;stroke-width:1;stroke-linecap:round" transform="rotate(180 .125 0)"/></marker><marker id="q" markerHeight="1" markerWidth="1" orient="auto-start-reverse" preserveAspectRatio="xMidYMid" refX="0" refY="0" style="overflow:visible" viewBox="0 0 1 1"><path d="M3-3 0 0l3 3" style="fill:none;stroke:context-stroke;stroke-width:1;stroke-linecap:round" transform="rotate(180 .125 0)"/></marker><path id="b" d="M253.619 424.8h45.782v26.128h-45.782z"/><path id="e" d="M184.751 416.963h54.456v21.911h-54.456z"/><path id="h" d="M184.751 416.963h39.18v22.935h-39.18z"/><path id="i" d="M358.671 530.043h107.028v64.344H358.671z"/><path id="m" d="M358.671 530.043h107.028v64.344H358.671z"/><path id="o" d="M495.323 614.774h62.114v22.616h-62.114z"/><path id="r" d="M21.623 797.796h64.418v28.831H21.623z"/><path id="s" d="M21.623 797.796h64.418v28.831H21.623z"/></defs><g transform="translate(-2.975 -441.87)"><path d="M3.107 442.003h143.98v60.31H3.107z" style="fill:#fff;stroke:#fff;stroke-width:.264583;stroke-linejoin:round;stroke-dasharray:none"/><rect width="100.124" height="25.802" x="25.617" y="462.118" ry="0" style="fill:#d7eef4;stroke:#5fbcd3;stroke-width:.264583;stroke-linejoin:round;stroke-dasharray:none"/><rect width="29.092" height="6.668" x="28.745" y="481.354" ry="1.846" style="fill:#fff;stroke:#5fbcd3;stroke-width:.264583;stroke-linejoin:round"/><rect width="29.092" height="6.668" x="61.359" y="481.232" ry="1.846" style="fill:#fff;stroke:#5fbcd3;stroke-width:.264583;stroke-linejoin:round"/><rect width="29.092" height="6.668" x="93.186" y="481.193" ry="1.846" style="fill:#fff;stroke:#5fbcd3;stroke-width:.264583;stroke-linejoin:round"/><rect width="29.092" height="6.668" x="44.666" y="471.816" ry="1.846" style="fill:#fff;stroke:#5fbcd3;stroke-width:.264583;stroke-linejoin:round"/><rect width="29.092" height="6.668" x="77.154" y="471.986" ry="1.846" style="fill:#fff;stroke:#5fbcd3;stroke-width:.264583;stroke-linejoin:round"/><rect width="12.524" height="6.668" x="28.745" y="471.816" ry="1.846" style="fill:#fff;stroke:#5fbcd3;stroke-width:.264583;stroke-linejoin:round"/><rect width="12.524" height="6.668" x="109.599" y="471.685" ry="1.846" style="fill:#fff;stroke:#5fbcd3;stroke-width:.264583;stroke-linejoin:round"/><rect width="29.092" height="6.668" x="28.731" y="462.09" ry="1.846" style="fill:#fff;stroke:#5fbcd3;stroke-width:.264583;stroke-linejoin:round"/><rect width="29.092" height="6.668" x="61.451" y="462.074" ry="1.846" style="fill:#fff;stroke:#5fbcd3;stroke-width:.264583;stroke-linejoin:round"/><rect width="29.092" height="6.668" x="93.279" y="462.034" ry="1.846" style="fill:#fff;stroke:#5fbcd3;stroke-width:.264583;stroke-linejoin:round"/><path d="M25.617 487.92v8.045M125.74 488.053v8.045" style="fill:purple;stroke:#ccc;stroke-width:.264582;stroke-linejoin:round"/><path d="M26.067 495.04h99.675" style="fill:purple;stroke:purple;stroke-width:.264583;stroke-linejoin:round;marker-start:url(#a);marker-end:url(#a)"/><text xml:space="preserve" style="font-size:16px;line-height:normal;font-family:&quot;Liberation Mono&quot;;-inkscape-font-specification:&quot;Liberation Mono&quot;;text-decoration-color:#000;white-space:pre;shape-inside:url(#b);display:inline;fill:purple;stroke-width:1;-inkscape-stroke:none;stop-color:#000" transform="translate(7.235 383.041)scale(.26458)"><tspan x="253.619" y="439.037">L1</tspan></text><path d="M25.617 453.94v8.046M28.731 453.94v11.484M57.995 453.94v11.484M61.213 453.924v11.484" style="fill:purple;stroke:#ccc;stroke-width:.264582;stroke-linejoin:round"/><path d="M33.953 454.298h-4.804" style="fill:#2c89a0;stroke:#5fbcd3;stroke-width:.264583;stroke-linejoin:round;stroke-dasharray:none;marker-end:url(#c)"/><path d="M20.575 454.358h4.804" style="fill:#2c89a0;stroke:#5fbcd3;stroke-width:.264583;stroke-linejoin:round;stroke-dasharray:none;marker-end:url(#d)"/><text xml:space="preserve" style="font-size:16px;line-height:normal;font-family:&quot;Liberation Mono&quot;;-inkscape-font-specification:&quot;Liberation Mono&quot;;text-decoration-color:#000;white-space:pre;shape-inside:url(#e);display:inline;fill:#2c89a0;stroke-width:1;-inkscape-stroke:none;stop-color:#000" transform="translate(-18.757 339.167)scale(.26458)"><tspan x="184.75" y="431.199">smExS</tspan></text><path d="M66.31 454.3h-4.804" style="fill:#2c89a0;stroke:#5fbcd3;stroke-width:.264583;stroke-linejoin:round;stroke-dasharray:none;marker-end:url(#f)"/><path d="M52.932 454.36h4.804" style="fill:#2c89a0;stroke:#5fbcd3;stroke-width:.264583;stroke-linejoin:round;stroke-dasharray:none;marker-end:url(#g)"/><text xml:space="preserve" style="font-size:16px;line-height:normal;font-family:&quot;Liberation Mono&quot;;-inkscape-font-specification:&quot;Liberation Mono&quot;;text-decoration-color:#000;white-space:pre;shape-inside:url(#h);display:inline;fill:#2c89a0;stroke-width:1;-inkscape-stroke:none;stop-color:#000" transform="translate(13.601 339.168)scale(.26458)"><tspan x="184.75" y="431.199">smEx</tspan></text><text xml:space="preserve" style="font-size:16px;line-height:normal;font-family:&quot;Liberation Mono&quot;;-inkscape-font-specification:&quot;Liberation Mono&quot;;text-decoration-color:#000;white-space:pre;shape-inside:url(#i);display:inline;fill:#2c89a0;stroke-width:1;-inkscape-stroke:none;stop-color:#000" transform="translate(-11.803 303.723)scale(.26458)"><tspan x="358.672" y="544.279">sNx=2</tspan></text><path d="m85.118 448.852-22.755 12.136" style="fill:#2c89a0;stroke:#5fbcd3;stroke-width:.264583;stroke-linejoin:round;stroke-dasharray:none;marker-end:url(#j)"/><path d="m86.804 448.683 4.214 12.474" style="fill:#2c89a0;stroke:#5fbcd3;stroke-width:.264583;stroke-linejoin:round;stroke-dasharray:none;marker-end:url(#j)"/><path d="m131.817 471.28-10.788-.673" style="fill:#2c89a0;stroke:#5fbcd3;stroke-width:.264583;stroke-linejoin:round;stroke-dasharray:none;marker-end:url(#k)"/><path d="m131.369 473.509-10.45 6.068" style="fill:#2c89a0;stroke:#5fbcd3;stroke-width:.264583;stroke-linejoin:round;stroke-dasharray:none;marker-end:url(#l)"/><text xml:space="preserve" style="font-size:16px;line-height:normal;font-family:&quot;Liberation Mono&quot;;-inkscape-font-specification:&quot;Liberation Mono&quot;;text-decoration-color:#000;white-space:pre;shape-inside:url(#m);display:inline;fill:#999;stroke-width:1;-inkscape-stroke:none;stop-color:#000" transform="translate(37.267 329.365)scale(.26458)"><tspan x="358.672" y="544.279">sNy=2</tspan></text><path d="M119.68 468.668h17.131M119.472 462.113h17.13M122.363 464.032h9.292M122.48 466.884h9.293" style="fill:purple;stroke:#ccc;stroke-width:.264581;stroke-linejoin:round"/><path d="M131.387 464.275v2.276" style="fill:#2c89a0;stroke:#2c89a0;stroke-width:.264583;stroke-linejoin:round;stroke-dasharray:none;marker-start:url(#j);marker-end:url(#j)"/><path d="M133.14 462.225v6.14" style="fill:#2c89a0;stroke:#2c89a0;stroke-width:.264582;stroke-linejoin:round;stroke-dasharray:none;marker-start:url(#n);marker-end:url(#n)"/><text xml:space="preserve" style="font-size:16px;line-height:normal;font-family:&quot;Liberation Mono&quot;;-inkscape-font-specification:&quot;Liberation Mono&quot;;text-decoration-color:#000;white-space:pre;shape-inside:url(#o);display:inline;fill:#2c89a0;stroke-width:1;-inkscape-stroke:none;stop-color:#000" transform="translate(2.946 300.436)scale(.26458)"><tspan x="495.322" y="629.01">shPr</tspan></text><path d="M13.82 487.918h17.13" style="fill:purple;stroke:#ccc;stroke-width:.264581;stroke-linejoin:round"/><path d="M8.69 481.33h22.38M15.52 478.478h15.368" style="fill:purple;stroke:#ccc;stroke-width:.26458;stroke-linejoin:round"/><path d="M19.548 481.73v6.14" style="fill:#2c89a0;stroke:#2c89a0;stroke-width:.264582;stroke-linejoin:round;stroke-dasharray:none;marker-start:url(#p);marker-end:url(#p)"/><path d="M16.647 478.6v2.52" style="fill:#2c89a0;stroke:#2c89a0;stroke-width:.264582;stroke-linejoin:round;stroke-dasharray:none;marker-start:url(#q);marker-end:url(#q)"/><text xml:space="preserve" style="font-size:16px;line-height:normal;font-family:&quot;Liberation Mono&quot;;-inkscape-font-specification:&quot;Liberation Mono&quot;;text-decoration-color:#000;white-space:pre;shape-inside:url(#r);display:inline;fill:#2c89a0;stroke-width:1;-inkscape-stroke:none;stop-color:#000" transform="translate(2.468 270.967)scale(.26458)"><tspan x="21.623" y="812.031">shEy</tspan></text><text xml:space="preserve" style="font-size:16px;line-height:normal;font-family:&quot;Liberation Mono&quot;;-inkscape-font-specification:&quot;Liberation Mono&quot;;text-decoration-color:#000;white-space:pre;shape-inside:url(#s);display:inline;fill:#2c89a0;stroke-width:1;-inkscape-stroke:none;stop-color:#000" transform="translate(-.106 265.013)scale(.26458)"><tspan x="21.623" y="812.031">smEy</tspan></text></g></svg>