<svg xmlns="http://www.w3.org/2000/svg" width="380.302" height="372.193" viewBox="0 0 100.622 98.476"><defs><path id="s" d="M74.779 666.707h59.463v54.057H74.779z"/><path id="r" d="M352.724 513.094H509.04v40.092H352.724z"/><path id="k" d="M412.185 530.043h60.522v44.595h-60.522z"/><path id="j" d="M229.983 554.889h54.151v39.498h-54.151z"/><path id="i" d="M386.702 549.793h56.699v43.958h-56.699z"/><path id="h" d="M530.68 467.61h39.498v36.95H530.68z"/><path id="g" d="M491.182 454.232h52.877v58.611h-52.877z"/><path id="f" d="M437.668 510.931h64.981v46.506h-64.981z"/><path id="e" d="M397.533 531.955h45.232v40.135h-45.232z"/><path id="d" d="M422.378 463.151h52.24v51.603h-52.24z"/><path id="c" d="M437.031 472.707h46.506v45.869h-46.506z"/><path id="b" d="M450.409 272.667h46.506v51.603h-46.506z"/><path id="a" d="M461.877 388.613h51.603v48.417h-51.603z"/><marker id="l" markerHeight="1" markerWidth="1" orient="auto-start-reverse" preserveAspectRatio="xMidYMid" refX="0" refY="0" style="overflow:visible" viewBox="0 0 1 1"><path d="M3-3 0 0l3 3" style="fill:none;stroke:context-stroke;stroke-width:1;stroke-linecap:butt" transform="rotate(180 .125 0)"/></marker><marker id="m" markerHeight="1" markerWidth="1" orient="auto-start-reverse" preserveAspectRatio="xMidYMid" refX="0" refY="0" style="overflow:visible" viewBox="0 0 1 1"><path d="M3-3 0 0l3 3" style="fill:none;stroke:context-stroke;stroke-width:1;stroke-linecap:butt" transform="rotate(180 .125 0)"/></marker><marker id="o" markerHeight="1" markerWidth="1" orient="auto-start-reverse" preserveAspectRatio="xMidYMid" refX="0" refY="0" style="overflow:visible" viewBox="0 0 1 1"><path d="M3-3 0 0l3 3" style="fill:none;stroke:context-stroke;stroke-width:1;stroke-linecap:butt" transform="rotate(180 .125 0)"/></marker><marker id="n" markerHeight="1" markerWidth="1" orient="auto-start-reverse" preserveAspectRatio="xMidYMid" refX="0" refY="0" style="overflow:visible" viewBox="0 0 1 1"><path d="M3-3 0 0l3 3" style="fill:none;stroke:context-stroke;stroke-width:1;stroke-linecap:butt" transform="rotate(180 .125 0)"/></marker><marker id="q" markerHeight="1" markerWidth="1" orient="auto-start-reverse" preserveAspectRatio="xMidYMid" refX="0" refY="0" style="overflow:visible" viewBox="0 0 1 1"><path d="M3-3 0 0l3 3" style="fill:none;stroke:context-stroke;stroke-width:1;stroke-linecap:butt" transform="rotate(180 .125 0)"/></marker><marker id="p" markerHeight="1" markerWidth="1" orient="auto-start-reverse" preserveAspectRatio="xMidYMid" refX="0" refY="0" style="overflow:visible" viewBox="0 0 1 1"><path d="M3-3 0 0l3 3" style="fill:none;stroke:context-stroke;stroke-width:1;stroke-linecap:butt" transform="rotate(180 .125 0)"/></marker></defs><g transform="translate(-26.566 -47.543)"><path d="M26.698 47.676h100.357v98.212H26.698z" style="fill:#fff;stroke:#fff;stroke-width:.264583;stroke-linejoin:round;stroke-dasharray:none"/><circle cx="70.542" cy="95.788" r="41.195" style="fill:#ffb380;stroke:#ffb380;stroke-width:.264583;stroke-linejoin:round"/><circle cx="70.542" cy="95.788" r="35.903" style="fill:#fff;stroke:#ffb380;stroke-width:.264583;stroke-linejoin:round"/><path d="M34.738 95.03H54.61v1.517H34.738z" style="fill:#ffb380;stroke:#ffb380;stroke-width:.264583;stroke-linejoin:round"/><circle cx="70.542" cy="95.788" r="15.932" style="fill:#ffb380;stroke:#ffb380;stroke-width:.264583;stroke-linejoin:round"/><circle cx="70.542" cy="95.788" r="10.641" style="fill:#fff;stroke:#ffb380;stroke-width:.264583;stroke-linejoin:round"/><circle cx="109.224" cy="95.788" r="1.728" style="fill:#fff;stroke:#a00;stroke-width:.264583;stroke-linejoin:round"/><circle cx="70.253" cy="57.376" r="1.728" style="fill:#fff;stroke:#a00;stroke-width:.264583;stroke-linejoin:round"/><circle cx="31.988" cy="96.858" r="1.728" style="fill:#fff;stroke:#a00;stroke-width:.264583;stroke-linejoin:round"/><circle cx="70.549" cy="134.444" r="1.728" style="fill:#fff;stroke:#a00;stroke-width:.264583;stroke-linejoin:round"/><circle cx="98.558" cy="69.228" r="1.728" style="fill:#fff;stroke:#a00;stroke-width:.264583;stroke-linejoin:round"/><circle cx="42.983" cy="69.186" r="1.728" style="fill:#fff;stroke:#a00;stroke-width:.264583;stroke-linejoin:round"/><circle cx="43.266" cy="123.12" r="1.728" style="fill:#fff;stroke:#a00;stroke-width:.264583;stroke-linejoin:round"/><circle cx="100.382" cy="120.308" r="1.728" style="fill:#fff;stroke:#a00;stroke-width:.264583;stroke-linejoin:round"/><circle cx="83.596" cy="95.845" r="1.728" style="fill:#fff;stroke:#a00;stroke-width:.264583;stroke-linejoin:round"/><circle cx="76.903" cy="84.258" r="1.728" style="fill:#fff;stroke:#a00;stroke-width:.264583;stroke-linejoin:round"/><circle cx="63.283" cy="84.657" r="1.728" style="fill:#fff;stroke:#a00;stroke-width:.264583;stroke-linejoin:round"/><circle cx="57.387" cy="96.031" r="1.728" style="fill:#fff;stroke:#a00;stroke-width:.264583;stroke-linejoin:round"/><circle cx="63.405" cy="107.099" r="1.728" style="fill:#fff;stroke:#a00;stroke-width:.264583;stroke-linejoin:round"/><circle cx="77.646" cy="106.769" r="1.728" style="fill:#fff;stroke:#a00;stroke-width:.264583;stroke-linejoin:round"/><path d="M86.474 95.03h19.872v1.517H86.474z" style="fill:#ffb380;stroke:#ffb380;stroke-width:.264583;stroke-linejoin:round"/><path d="M-79.856 69.783h19.872V71.3h-19.872z" style="fill:#ffb380;stroke:#ffb380;stroke-width:.264583;stroke-linejoin:round" transform="rotate(-90)"/><path d="M111.721-71.3h19.872v1.517h-19.872z" style="fill:#ffb380;stroke:#ffb380;stroke-width:.264583;stroke-linejoin:round" transform="rotate(90)"/><circle cx="70.542" cy="95.639" r="38.817" style="fill:none;stroke:gray;stroke-width:.264583;stroke-linejoin:round"/><circle cx="70.542" cy="95.866" r="13.364" style="fill:none;stroke:gray;stroke-width:.264583;stroke-linejoin:round"/><text xml:space="preserve" style="font-size:16px;line-height:normal;font-family:&quot;Liberation Mono&quot;;-inkscape-font-specification:&quot;Liberation Mono&quot;;text-decoration-color:#000;white-space:pre;shape-inside:url(#a);display:inline;fill:#00f;stroke-width:1;-inkscape-stroke:none;stop-color:#000" transform="translate(-50.399 -10.956)scale(.26458)"><tspan x="461.877" y="402.85">D1</tspan></text><text xml:space="preserve" style="font-size:16px;line-height:normal;font-family:&quot;Liberation Mono&quot;;-inkscape-font-specification:&quot;Liberation Mono&quot;;text-decoration-color:#000;white-space:pre;shape-inside:url(#b);display:inline;fill:#00f;stroke-width:1;-inkscape-stroke:none;stop-color:#000" transform="translate(-6.742 3.371)scale(.26458)"><tspan x="450.41" y="286.902">D2</tspan></text><text xml:space="preserve" style="font-size:16px;line-height:normal;font-family:&quot;Liberation Mono&quot;;-inkscape-font-specification:&quot;Liberation Mono&quot;;text-decoration-color:#000;white-space:pre;shape-inside:url(#c);display:inline;fill:#00f;stroke-width:1;-inkscape-stroke:none;stop-color:#000" transform="translate(-51.41 -28.486)scale(.26458)"><tspan x="437.031" y="486.943">N1</tspan></text><text xml:space="preserve" style="font-size:16px;line-height:normal;font-family:&quot;Liberation Mono&quot;;-inkscape-font-specification:&quot;Liberation Mono&quot;;text-decoration-color:#000;white-space:pre;shape-inside:url(#d);display:inline;fill:#00f;stroke-width:1;-inkscape-stroke:none;stop-color:#000" transform="translate(-22.418 -71.637)scale(.26458)"><tspan x="422.379" y="477.387">N2</tspan></text><text xml:space="preserve" style="font-size:16px;line-height:normal;font-family:&quot;Liberation Mono&quot;;-inkscape-font-specification:&quot;Liberation Mono&quot;;text-decoration-color:#000;white-space:pre;shape-inside:url(#e);display:inline;fill:#00f;stroke-width:1;-inkscape-stroke:none;stop-color:#000" transform="translate(-21.407 -32.7)scale(.26458)"><tspan x="397.533" y="546.192">T1</tspan></text><text xml:space="preserve" style="font-size:16px;line-height:normal;font-family:&quot;Liberation Mono&quot;;-inkscape-font-specification:&quot;Liberation Mono&quot;;text-decoration-color:#000;white-space:pre;shape-inside:url(#f);display:inline;fill:#00f;stroke-width:1;-inkscape-stroke:none;stop-color:#000" transform="translate(-8.934 -13.485)scale(.26458)"><tspan x="437.668" y="525.168">T2</tspan></text><text xml:space="preserve" style="font-size:16px;line-height:normal;font-family:&quot;Liberation Mono&quot;;-inkscape-font-specification:&quot;Liberation Mono&quot;;text-decoration-color:#000;white-space:pre;shape-inside:url(#g);display:inline;fill:#00f;stroke-width:1;-inkscape-stroke:none;stop-color:#000" transform="translate(-48.756 -44.12)scale(.26458)"><tspan x="491.182" y="468.469">E1</tspan></text><text xml:space="preserve" style="font-size:16px;line-height:normal;font-family:&quot;Liberation Mono&quot;;-inkscape-font-specification:&quot;Liberation Mono&quot;;text-decoration-color:#000;white-space:pre;shape-inside:url(#h);display:inline;fill:#00f;stroke-width:1;-inkscape-stroke:none;stop-color:#000" transform="translate(-104.863 -64.643)scale(.26458)"><tspan x="530.68" y="481.846">E2</tspan></text><text xml:space="preserve" style="font-size:16px;line-height:normal;font-family:&quot;Liberation Mono&quot;;-inkscape-font-specification:&quot;Liberation Mono&quot;;text-decoration-color:#000;white-space:pre;shape-inside:url(#i);display:inline;fill:#00f;stroke-width:1;-inkscape-stroke:none;stop-color:#000" transform="translate(-8.596 -44.415)scale(.26458)"><tspan x="386.703" y="564.029">E3</tspan></text><text xml:space="preserve" style="font-size:16px;line-height:normal;font-family:&quot;Liberation Mono&quot;;-inkscape-font-specification:&quot;Liberation Mono&quot;;text-decoration-color:#000;white-space:pre;shape-inside:url(#j);display:inline;fill:#00f;stroke-width:1;-inkscape-stroke:none;stop-color:#000" transform="translate(-11.968 -36.409)scale(.26458)"><tspan x="229.982" y="569.125">N3</tspan></text><text xml:space="preserve" style="font-size:16px;line-height:normal;font-family:&quot;Liberation Mono&quot;;-inkscape-font-specification:&quot;Liberation Mono&quot;;text-decoration-color:#000;white-space:pre;shape-inside:url(#k);display:inline;fill:#00f;stroke-width:1;-inkscape-stroke:none;stop-color:#000" transform="translate(-65.4 -55.624)scale(.26458)"><tspan x="412.186" y="544.279">R3</tspan></text><path d="m73.491 55.119 14.665-2.192" style="fill:#00f;stroke:#00f;stroke-width:.264583;stroke-linejoin:round;marker-start:url(#l)"/><path d="m92.539 55.287 5.225 10.956" style="fill:#00f;stroke:#00f;stroke-width:.264583;stroke-linejoin:round;stroke-dasharray:none;marker-end:url(#l)"/><path d="m65.906 101.304-1.18 3.54" style="fill:#00f;stroke:#00f;stroke-width:.264583;stroke-linejoin:round;stroke-dasharray:none;marker-end:url(#l)"/><path d="m69.109 101.135 6.574 4.045" style="fill:#00f;stroke:#00f;stroke-width:.264583;stroke-linejoin:round;stroke-dasharray:none;marker-end:url(#l)"/><path d="m63.547 98.101-3.877-1.348" style="fill:#00f;stroke:#00f;stroke-width:.264583;stroke-linejoin:round;stroke-dasharray:none;marker-end:url(#l)"/><path d="m77.2 92.876 4.214-3.034" style="fill:#00f;stroke:#00f;stroke-width:.264583;stroke-linejoin:round;stroke-dasharray:none;marker-end:url(#l)"/><path d="m111.754 77.705-4.382 2.192" style="fill:#00f;stroke:#00f;stroke-width:.264583;stroke-linejoin:round;stroke-dasharray:none;marker-end:url(#l)"/><path d="m83.436 110.743-4.214-2.697" style="fill:#00f;stroke:#00f;stroke-width:.264583;stroke-linejoin:round;stroke-dasharray:none;marker-end:url(#l)"/><path d="m106.023 123.89-4.045-2.528" style="fill:#00f;stroke:#00f;stroke-width:.264583;stroke-linejoin:round;stroke-dasharray:none;marker-end:url(#l)"/><path d="m35.734 93.887 7.248-5.73" style="fill:#00f;stroke:#00f;stroke-width:.264583;stroke-linejoin:round;stroke-dasharray:none;marker-start:url(#l)"/><path d="m53.264 93.718-4.55-5.393" style="fill:#00f;stroke:#00f;stroke-width:.264583;stroke-linejoin:round;stroke-dasharray:none;marker-start:url(#l)"/><path d="m48.882 109.563-1.517-11.462" style="fill:#00f;stroke:#00f;stroke-width:.264583;stroke-linejoin:round;stroke-dasharray:none;marker-end:url(#l)"/><path d="m53.939 114.62 14.833 5.73" style="fill:#00f;stroke:#00f;stroke-width:.264583;stroke-linejoin:round;stroke-dasharray:none;marker-end:url(#l)"/><path d="M94.898 96.753v4.55" style="fill:#00f;stroke:#00f;stroke-width:.264583;stroke-linejoin:round;stroke-dasharray:none;marker-start:url(#l)"/><path d="M94.848 94.783v-4.551" style="fill:#00f;stroke:#00f;stroke-width:.264583;stroke-linejoin:round;stroke-dasharray:none;marker-start:url(#m)"/><path d="m41.675 68.007 2.89 3.515" style="fill:#00f;stroke:#00f;stroke-width:.264583;stroke-linejoin:round;stroke-dasharray:none;marker-start:url(#n)"/><path d="m40.723 67.023-2.89-3.516" style="fill:#00f;stroke:#00f;stroke-width:.264583;stroke-linejoin:round;stroke-dasharray:none;marker-start:url(#o)"/><path d="m77.736 82.869-2.26 3.95" style="fill:#00f;stroke:#00f;stroke-width:.264583;stroke-linejoin:round;stroke-dasharray:none;marker-start:url(#p)"/><path d="m78.436 81.537 2.26-3.95" style="fill:#00f;stroke:#00f;stroke-width:.264583;stroke-linejoin:round;stroke-dasharray:none;marker-start:url(#q)"/><text xml:space="preserve" style="font-size:16px;line-height:normal;font-family:&quot;Liberation Mono&quot;;-inkscape-font-specification:&quot;Liberation Mono&quot;;text-decoration-color:#000;white-space:pre;shape-inside:url(#r);display:inline;fill:#00f;stroke-width:1;-inkscape-stroke:none;stop-color:#000" transform="translate(-11.204 2.622)scale(.26458)"><tspan x="352.725" y="527.33">Ring2: [On, Off]</tspan></text><path d="m92.49 137.901-2.145-5.363" style="fill:#00f;stroke:#00f;stroke-width:.264583;stroke-linejoin:round;stroke-dasharray:none;marker-end:url(#l)"/><path d="m29.082 137.067 5.244-10.012" style="fill:#fff;stroke:green;stroke-width:.264583;stroke-linejoin:round;marker-end:url(#l)"/><text xml:space="preserve" style="font-size:16px;line-height:normal;font-family:&quot;Liberation Mono&quot;;-inkscape-font-specification:&quot;Liberation Mono&quot;;text-decoration-color:#000;white-space:pre;shape-inside:url(#s);display:inline;fill:green;stroke-width:1;-inkscape-stroke:none;stop-color:#000" transform="translate(14.303 -44.577)scale(.26458)"><tspan x="74.779" y="680.943">Th</tspan></text></g></svg>