<svg xmlns="http://www.w3.org/2000/svg" width="504.286" height="550.062" viewBox="0 0 133.426 145.537"><defs><path id="k" d="M312.181 518.95h45.949v26.578h-45.949z"/><path id="j" d="M543.74 114.991h24.846v28.668H543.74z"/><path id="i" d="M169.78 186.662h38.543v37.906H169.78z"/><path id="h" d="M355.486 143.66h27.713v26.757h-27.713z"/><path id="f" d="M365.042 128.37h40.975v33.658h-40.975z"/><path id="e" d="M330.548 119.769h54.243v42.258h-54.243z"/><path id="g" d="M365.042 128.37h40.975v33.658h-40.975z"/><marker id="b" markerHeight="1" markerWidth="1" orient="auto-start-reverse" preserveAspectRatio="xMidYMid" refX="0" refY="0" style="overflow:visible" viewBox="0 0 1 1"><path d="M3-3 0 0l3 3" style="fill:none;stroke:context-stroke;stroke-width:1;stroke-linecap:butt" transform="rotate(180 .125 0)"/></marker><marker id="a" markerHeight="1" markerWidth="1" orient="auto-start-reverse" preserveAspectRatio="xMidYMid" refX="0" refY="0" style="overflow:visible" viewBox="0 0 1 1"><path d="M3-3 0 0l3 3" style="fill:none;stroke:context-stroke;stroke-width:1;stroke-linecap:butt" transform="rotate(180 .125 0)"/></marker><marker id="c" markerHeight="1" markerWidth="1" orient="auto-start-reverse" preserveAspectRatio="xMidYMid" refX="0" refY="0" style="overflow:visible" viewBox="0 0 1 1"><path d="M3-3 0 0l3 3" style="fill:none;stroke:context-stroke;stroke-width:1;stroke-linecap:butt" transform="rotate(180 .125 0)"/></marker><marker id="d" markerHeight="1" markerWidth="1" orient="auto-start-reverse" preserveAspectRatio="xMidYMid" refX="0" refY="0" style="overflow:visible" viewBox="0 0 1 1"><path d="M3-3 0 0l3 3" style="fill:none;stroke:context-stroke;stroke-width:1;stroke-linecap:butt" transform="rotate(180 .125 0)"/></marker></defs><g transform="translate(-11.33 -49.111)"><path d="M11.462 49.244h133.161v145.273H11.462z" style="fill:#fff;stroke:#fff;stroke-width:.264583;stroke-linejoin:round"/><path d="M125.991-16.325h35.715v10.619h-35.715z" style="fill:#f6ffd5;stroke:teal;stroke-width:.264583;stroke-linejoin:round" transform="rotate(42.296)skewX(.002)"/><path d="M57.94 68.721h36.695v10.805H57.94z" style="fill:#f6ffd5;stroke:teal;stroke-width:.264583;stroke-linejoin:round"/><path d="M125.833-5.894h35.837v3.447h-35.837z" style="fill:#eef4d7;stroke:teal;stroke-width:.264585;stroke-linejoin:round" transform="matrix(.7389 .67382 -.67743 .73559 0 0)"/><path d="M57.94 79.526h36.695v3.531H57.94z" style="fill:#eef4d7;stroke:teal;stroke-width:.264583;stroke-linejoin:round"/><path d="M52.959 65.15h46.783v3.531H52.959z" style="fill:#eef4d7;stroke:teal;stroke-width:.264584;stroke-linejoin:round"/><path d="M119.949-19.948h46.784v3.531h-46.784z" style="fill:#eef4d7;stroke:teal;stroke-width:.264584;stroke-linejoin:round" transform="rotate(42.326)skewX(.002)"/><ellipse cx="76.351" cy="129.463" rx="55.484" ry="55.486" style="fill:none;stroke:#faa;stroke-width:.264583;stroke-linejoin:round"/><path d="M66.15 82.8v-3.263" style="fill:none;stroke:purple;stroke-width:.264583;stroke-linejoin:round;marker-start:url(#a);marker-end:url(#a)"/><ellipse cx="76.351" cy="129.463" rx="49.935" ry="49.938" style="fill:none;stroke:#999;stroke-width:.264583;stroke-linejoin:round"/><ellipse cx="76.351" cy="129.463" rx="60.78" ry="60.783" style="fill:none;stroke:#999;stroke-width:.264583;stroke-linejoin:round"/><path d="m76.443 129.427 25.472-65.826M76.443 129.427 50.97 63.601M76.393 129.374l64.788-32.705" style="fill:none;stroke:#999;stroke-width:.264583;stroke-linejoin:round"/><path d="M76.35 79.526V68.68" style="fill:none;stroke:purple;stroke-width:.264583;stroke-linejoin:round;marker-start:url(#b);marker-end:url(#b)"/><path d="M54.973 68.432V65.17" style="fill:none;stroke:#999;stroke-width:.264583;stroke-linejoin:round;marker-start:url(#c);marker-end:url(#c)"/><path d="m44.067 84.21-9.809-12.127" style="fill:none;stroke:purple;stroke-width:.264583;stroke-linejoin:round;marker-start:url(#b)"/><path d="m94.31 61.476 7.187-6.81" style="fill:none;stroke:purple;stroke-width:.264583;stroke-linejoin:round;marker-start:url(#b)"/><path d="m106.163 66.268-2.648-10.845" style="fill:none;stroke:purple;stroke-width:.264583;stroke-linejoin:round;marker-start:url(#b)"/><ellipse cx="60.749" cy="71.329" rx="1.18" ry="1.24" style="fill:#fff;stroke:green;stroke-width:.264583;stroke-linejoin:round"/><ellipse cx="60.749" cy="76.765" rx="1.18" ry="1.24" style="fill:#fff;stroke:green;stroke-width:.264583;stroke-linejoin:round"/><ellipse cx="91.931" cy="71.329" rx="1.18" ry="1.24" style="fill:#fff;stroke:green;stroke-width:.264583;stroke-linejoin:round"/><ellipse cx="91.931" cy="76.765" rx="1.18" ry="1.24" style="fill:#fff;stroke:green;stroke-width:.264583;stroke-linejoin:round"/><ellipse cx="128.676" cy="-13.946" rx="1.18" ry="1.24" style="fill:#fff;stroke:green;stroke-width:.264583;stroke-linejoin:round" transform="rotate(42.296)skewX(.002)"/><ellipse cx="128.676" cy="-8.51" rx="1.18" ry="1.24" style="fill:#fff;stroke:green;stroke-width:.264583;stroke-linejoin:round" transform="rotate(42.296)skewX(.002)"/><ellipse cx="159.3" cy="-13.973" rx="1.18" ry="1.24" style="fill:#fff;stroke:green;stroke-width:.264583;stroke-linejoin:round" transform="rotate(42.296)skewX(.002)"/><ellipse cx="159.3" cy="-8.536" rx="1.18" ry="1.24" style="fill:#fff;stroke:green;stroke-width:.264583;stroke-linejoin:round" transform="rotate(42.296)skewX(.002)"/><path d="M125.961-11.032h35.716v5.284h-35.716z" style="fill:none;stroke:teal;stroke-width:.264583;stroke-linejoin:round" transform="rotate(42.296)skewX(.002)"/><path d="m61.595 69.815 5.548-9.395" style="fill:none;stroke:#b3b3b3;stroke-width:.264583;stroke-linejoin:round;marker-start:url(#d)"/><text xml:space="preserve" style="font-size:16px;line-height:normal;font-family:&quot;Liberation Mono&quot;;-inkscape-font-specification:&quot;Liberation Mono&quot;;text-decoration-color:#000;white-space:pre;shape-inside:url(#e);fill:purple;stroke-width:1;-inkscape-stroke:none;stop-color:#000" transform="translate(-10.703 39.893)scale(.26458)"><tspan x="330.547" y="134.006">W2</tspan></text><text xml:space="preserve" style="font-size:16px;line-height:normal;font-family:&quot;Liberation Mono&quot;;-inkscape-font-specification:&quot;Liberation Mono&quot;;text-decoration-color:#000;white-space:pre;shape-inside:url(#f);fill:purple;stroke-width:1;-inkscape-stroke:none;stop-color:#000" transform="translate(-28.74 45.239)scale(.26458)"><tspan x="365.041" y="142.606">Th</tspan></text><text xml:space="preserve" style="font-size:16px;line-height:normal;font-family:&quot;Liberation Mono&quot;;-inkscape-font-specification:&quot;Liberation Mono&quot;;text-decoration-color:#000;white-space:pre;shape-inside:url(#g);display:inline;fill:#999;stroke-width:1;-inkscape-stroke:none;stop-color:#000" transform="translate(-40.768 30.957)scale(.26458)"><tspan x="365.041" y="142.606">Th</tspan></text><text xml:space="preserve" style="font-size:16px;line-height:normal;font-family:&quot;Liberation Mono&quot;;-inkscape-font-specification:&quot;Liberation Mono&quot;;text-decoration-color:#000;white-space:pre;shape-inside:url(#h);fill:#999;stroke-width:1;-inkscape-stroke:none;stop-color:#000" transform="translate(-27.138 18.12)scale(.26458)"><tspan x="355.486" y="157.897">D3</tspan></text><text xml:space="preserve" style="font-size:16px;line-height:normal;font-family:&quot;Liberation Mono&quot;;-inkscape-font-specification:&quot;Liberation Mono&quot;;text-decoration-color:#000;white-space:pre;shape-inside:url(#i);fill:purple;stroke-width:1;-inkscape-stroke:none;stop-color:#000" transform="translate(-15.255 18.036)scale(.26458)"><tspan x="169.779" y="200.899">D5</tspan></text><text xml:space="preserve" style="font-size:16px;line-height:normal;font-family:&quot;Liberation Mono&quot;;-inkscape-font-specification:&quot;Liberation Mono&quot;;text-decoration-color:#000;white-space:pre;shape-inside:url(#j);fill:purple;stroke-width:1;-inkscape-stroke:none;stop-color:#000" transform="translate(-41.802 20.143)scale(.26458)"><tspan x="543.74" y="129.229">N5</tspan></text><path d="M85.2 124.484s-.597-2.787-1.605-3.656c-.77-.664-2.942-.803-2.942-.803" style="fill:none;stroke:#999;stroke-width:.264583;stroke-linejoin:round;marker-end:url(#b)"/><text xml:space="preserve" style="font-size:16px;line-height:normal;font-family:&quot;Liberation Mono&quot;;-inkscape-font-specification:&quot;Liberation Mono&quot;;text-decoration-color:#000;white-space:pre;shape-inside:url(#k);fill:#999;stroke-width:1;-inkscape-stroke:none;stop-color:#000" transform="translate(2.065 -22.196)scale(.26458)"><tspan x="312.182" y="533.186">a5</tspan></text></g></svg>