<svg xmlns="http://www.w3.org/2000/svg" width="433.458" height="483.912" viewBox="0 0 114.686 128.035"><defs><path id="e" d="M164.875 420.777h127.936v68.441H164.875z"/><path id="d" d="M241.131 460.603h31.216v27.394h-31.216z"/><path id="b" d="M353.398 156.082h50.568v41.41h-50.568z"/><path id="a" d="M113.399 290.505h64.164v37.864h-64.164z"/><marker id="c" markerHeight="1" markerWidth="1" orient="auto-start-reverse" preserveAspectRatio="xMidYMid" refX="0" refY="0" style="overflow:visible" viewBox="0 0 1 1"><path d="M3-3 0 0l3 3" style="fill:none;stroke:context-stroke;stroke-width:1;stroke-linecap:butt" transform="rotate(180 .125 0)"/></marker></defs><g transform="translate(-17.27 -38.008)"><path d="M17.402 38.14h114.421v127.77H17.402z" style="fill:#fff;stroke:#fff;stroke-width:.264583;stroke-linejoin:round;stroke-dasharray:none"/><circle cx="75.177" cy="110.443" r="36.746" style="fill:none;stroke:#b3b3b3;stroke-width:.264583;stroke-linejoin:round"/><path d="M75.177 110.443 56.973 67.461M75.177 110.443l18.204-42.982M75.177 110.443l46.354-18.204M59.838 68.506h30.678v5.192H59.838z" style="fill:none;stroke:#999;stroke-width:.264583;stroke-linejoin:round"/><path d="M116.221-18.928h30.678v5.192h-30.678z" style="fill:none;stroke:#999;stroke-width:.264583;stroke-linejoin:round" transform="rotate(45.842)"/><circle cx="75.177" cy="57.146" r="6.068" style="fill:none;stroke:purple;stroke-width:.264583;stroke-linejoin:round"/><circle cx="75.177" cy="57.146" r="9.608" style="fill:none;stroke:#999;stroke-width:.264583;stroke-linejoin:round"/><path d="M59.838 68.506v5.192h30.678v-5.192l-6.942-16.03s-1.027-1.606-1.723-2.242c-.948-.867-2.057-1.597-3.253-2.066-1.08-.424-2.262-.61-3.42-.63-.942-.016-1.893.143-2.794.415-.872.263-1.704.673-2.475 1.158-.818.515-1.62 1.098-2.245 1.834-.411.485-.95 1.653-.95 1.653zM94.531 70.074l-3.733 3.607 21.316 22.062 3.734-3.608 6.704-16.13s.44-1.855.415-2.797c-.035-1.285-.28-2.59-.774-3.776-.446-1.07-1.134-2.05-1.925-2.897-.642-.688-1.417-1.261-2.239-1.72-.795-.445-1.668-.758-2.553-.976-.938-.23-1.914-.402-2.879-.34-.634.041-1.848.465-1.848.465z" style="fill:none;stroke:purple;stroke-width:.264583;stroke-linejoin:round"/><circle cx="113.083" cy="73.414" r="6.068" style="fill:none;stroke:purple;stroke-width:.264583;stroke-linejoin:round"/><text xml:space="preserve" style="font-size:16px;line-height:normal;font-family:&quot;Liberation Mono&quot;;-inkscape-font-specification:&quot;Liberation Mono&quot;;text-decoration-color:#000;white-space:pre;shape-inside:url(#a);display:inline;fill:#00f;stroke-width:1;-inkscape-stroke:none;stop-color:#000" transform="translate(-2.86 -20.977)scale(.26458)"><tspan x="113.398" y="304.74">D5</tspan></text><text xml:space="preserve" style="font-size:16px;line-height:normal;font-family:&quot;Liberation Mono&quot;;-inkscape-font-specification:&quot;Liberation Mono&quot;;text-decoration-color:#000;white-space:pre;shape-inside:url(#b);display:inline;fill:#00f;stroke-width:1;-inkscape-stroke:none;stop-color:#000" transform="scale(.26458)"><tspan x="353.398" y="170.318">N5</tspan></text><path d="m32.368 60.268 9.945 6.068" style="fill:none;stroke:#00f;stroke-width:.264583;stroke-linejoin:round;stroke-dasharray:none;marker-end:url(#c)"/><path d="m89.237 61.548 6.336-15.532" style="fill:#00f;stroke:#00f;stroke-width:.264583;stroke-linejoin:round;stroke-dasharray:none;marker-start:url(#c)"/><path d="m100.28 66.662-3.19-20.646" style="fill:#00f;stroke:#00f;stroke-width:.264583;stroke-linejoin:round;stroke-dasharray:none;marker-start:url(#c)"/><path d="M83.015 107.119s-.233-2.188-.927-2.95c-.78-.857-3.203-1.348-3.203-1.348" style="fill:none;stroke:#999;stroke-width:.264583;stroke-linejoin:round;stroke-dasharray:none;marker-end:url(#c)"/><text xml:space="preserve" style="font-size:16px;line-height:normal;font-family:&quot;Liberation Mono&quot;;-inkscape-font-specification:&quot;Liberation Mono&quot;;text-decoration-color:#000;white-space:pre;shape-inside:url(#d);display:inline;fill:#999;stroke-width:1;-inkscape-stroke:none;stop-color:#000" transform="translate(18.794 -21.997)scale(.26458)"><tspan x="241.131" y="474.84">a5</tspan></text><circle cx="75.177" cy="110.443" r="53.671" style="fill:none;stroke:#00f;stroke-width:.264584;stroke-linejoin:round"/><path d="M111.923 110.443h16.925" style="fill:#999;stroke:green;stroke-width:.264583;stroke-linejoin:round;marker-start:url(#c);marker-end:url(#c)"/><text xml:space="preserve" style="font-size:16px;line-height:normal;font-family:&quot;Liberation Mono&quot;;-inkscape-font-specification:&quot;Liberation Mono&quot;;text-decoration-color:#000;white-space:pre;shape-inside:url(#e);fill:green;stroke-width:1;-inkscape-stroke:none;stop-color:#000" transform="translate(67.342 -7.66)scale(.26458)"><tspan x="164.875" y="435.014">H0+H1+H2</tspan></text></g></svg>