<svg xmlns="http://www.w3.org/2000/svg" width="541.573" height="656.895" viewBox="0 0 143.291 173.804"><defs><path id="A" d="M324.344 694.636h177.488v55.859H324.344z"/><path id="x" d="M77.723 853.676h103.206v81.545H77.723z"/><path id="w" d="M174.558 591.202h89.19v155.445h-89.19z"/><path id="v" d="M38.224 519.85h68.804v86.005H38.224z"/><path id="u" d="M400.718 577.824h50.329v40.773h-50.329z"/><path id="t" d="M421.741 570.816h45.869v38.861h-45.869z"/><path id="s" d="M447.224 554.252h39.498v41.41h-39.498z"/><path id="r" d="M231.257 458.691h35.039v35.039h-35.039z"/><path id="p" d="M167.127 81.536h36.038v25.227h-36.038z"/><path id="o" d="M165.325 72.527h34.687v29.732h-34.687z"/><path id="n" d="M234.699 63.067h50.003v31.984h-50.003z"/><path id="m" d="M148.658 80.185h59.013v37.84h-59.013z"/><path id="l" d="M505.436 147.757h70.274v45.498h-70.274z"/><path id="k" d="M498.228 114.421h45.498v36.489h-45.498z"/><path id="j" d="M154.514 68.022h55.409v30.182h-55.409z"/><path id="i" d="M174.335 70.274h64.418v29.281h-64.418z"/><path id="h" d="M154.063 81.536h44.597v28.831h-44.597z"/><path id="g" d="M173.884 67.121h45.048V94.6h-45.048z"/><path id="f" d="M519.213 159.268H548.2v26.12h-28.987z"/><path id="y" d="M174.558 591.202h89.19v155.445h-89.19z"/><path id="z" d="M174.558 591.202h89.19v155.445h-89.19z"/><marker id="a" markerHeight="1" markerWidth="1" orient="auto-start-reverse" preserveAspectRatio="xMidYMid" refX="0" refY="0" style="overflow:visible" viewBox="0 0 1 1"><path d="M3-3 0 0l3 3" style="fill:none;stroke:context-stroke;stroke-width:1;stroke-linecap:butt" transform="rotate(180 .125 0)"/></marker><marker id="b" markerHeight="1" markerWidth="1" orient="auto-start-reverse" preserveAspectRatio="xMidYMid" refX="0" refY="0" style="overflow:visible" viewBox="0 0 1 1"><path d="M3-3 0 0l3 3" style="fill:none;stroke:context-stroke;stroke-width:1;stroke-linecap:butt" transform="rotate(180 .125 0)"/></marker><marker id="c" markerHeight="1" markerWidth="1" orient="auto-start-reverse" preserveAspectRatio="xMidYMid" refX="0" refY="0" style="overflow:visible" viewBox="0 0 1 1"><path d="M3-3 0 0l3 3" style="fill:none;stroke:context-stroke;stroke-width:1;stroke-linecap:butt" transform="rotate(180 .125 0)"/></marker><marker id="d" markerHeight="1" markerWidth="1" orient="auto-start-reverse" preserveAspectRatio="xMidYMid" refX="0" refY="0" style="overflow:visible" viewBox="0 0 1 1"><path d="M3-3 0 0l3 3" style="fill:none;stroke:context-stroke;stroke-width:1;stroke-linecap:butt" transform="rotate(180 .125 0)"/></marker><marker id="e" markerHeight="1" markerWidth="1" orient="auto-start-reverse" preserveAspectRatio="xMidYMid" refX="0" refY="0" style="overflow:visible" viewBox="0 0 1 1"><path d="M3-3 0 0l3 3" style="fill:none;stroke:context-stroke;stroke-width:1;stroke-linecap:butt" transform="rotate(180 .125 0)"/></marker><marker id="q" markerHeight="1" markerWidth="1" orient="auto-start-reverse" preserveAspectRatio="xMidYMid" refX="0" refY="0" style="overflow:visible" viewBox="0 0 1 1"><path d="M3-3 0 0l3 3" style="fill:none;stroke:context-stroke;stroke-width:1;stroke-linecap:butt" transform="rotate(180 .125 0)"/></marker></defs><g transform="translate(-9.88 -31.334)"><path d="M10.012 31.466h143.027v173.539H10.012z" style="fill:#fff;stroke:#fff;stroke-width:.264583;stroke-linejoin:round"/><path d="M74.25 122.497a13.51 13.51 0 0 1-9.819-5.327c-2.372-3.158-3.238-7.036-2.438-10.913.41-1.983 1.393-4.043 2.718-5.69 1.546-1.923 3.778-3.473 6.168-4.285 5.484-1.863 11.594.043 15.086 4.705.502.672.849 1.236 1.267 2.066a13.4 13.4 0 0 1 .579 10.682 13.3 13.3 0 0 1-2.997 4.716 12.7 12.7 0 0 1-2.262 1.87 13.4 13.4 0 0 1-8.302 2.176zm1.83-1.979c1.482-.11 2.355-.366 4.006-1.176.85-.417 1.57-.855 2.319-1.411.92-.683 1.284-.99 1.284-1.079 0-.05-.354-.484-.86-1.057l-.86-.973.335-.406c.852-1.028 1.452-2.13 1.678-3.084.096-.404.235-1.45.279-2.095l.03-.432h.194c.107 0 .627.022 1.155.048.71.037.973.037 1.008.002.074-.074-.031-1.44-.16-2.072-.331-1.632-.88-2.96-1.782-4.306-.612-.914-.71-1.046-.785-1.046-.035 0-.453.352-.93.781l-.869.782-.328-.314a14 14 0 0 0-1.44-1.169c-.55-.373-1.541-.78-2.32-.951-.404-.09-1.451-.099-2.053-.02-.195.026-.362.04-.37.032a48 48 0 0 1-.076-1.665c-.033-.908-.071-1.669-.085-1.691-.038-.062-.324-.05-1.015.044-1.47.199-2.138.345-2.999.657-1.229.446-2.58 1.207-3.445 1.94-.443.375-1.41 1.323-1.41 1.381 0 .025.444.49.987 1.033l.987.986-.337.383c-.425.483-.678.861-.839 1.252-.163.394-.523 1.606-.78 2.628-.111.44-.218.812-.238.825s-.644.048-1.39.078c-.744.029-1.379.063-1.41.075-.042.016-.056.126-.056.428.001.956.143 2.724.277 3.456.174.951.634 1.753 2.052 3.577.246.316.361.432.43.432.06 0 .393-.261.942-.738l.85-.738.444.39c.832.729 1.527 1.155 2.695 1.656 1.068.457 1.697.608 2.929.702l.674.05v.15c0 .083-.021.692-.049 1.355-.027.663-.037 1.237-.023 1.275.033.085.45.093 1.355.025z" style="fill:#efa;stroke:#efa;stroke-width:.264583;stroke-linejoin:round"/><path d="m83.119 92.696 9.713-19.462s.401-2.005.022-2.853c-.279-.624-.894-1.106-1.535-1.299-.758-.228-1.67-.116-2.396.27-.767.407-1.747 1.991-1.747 1.991l-6.59 13.203s-.398.633-.683.866c-.436.355-.958.639-1.508.755-.561.119-1.195.153-1.718-.082-.647-.29-1.222-.862-1.49-1.518-.289-.71.003-2.299.003-2.299l6.094-12.21s.219-1.558.002-2.27c-.146-.479-.43-.952-.837-1.217-.538-.35-1.25-.395-1.9-.348-.666.047-1.408.18-1.928.635-.297.26-.533 1.067-.533 1.067l-8.566 17.163s-.98 1.725-1.843 2.014c-.388.13-.82-.094-1.208-.224-.373-.125-.77-.256-1.056-.527-.492-.467-.835-1.114-1-1.771-.129-.51.032-1.575.032-1.575l5.851-11.724s.43-.969.418-1.482a3.37 3.37 0 0 0-.629-1.871c-.213-.291-.523-.558-.875-.637-.847-.19-1.804.051-2.557.481-.596.34-1.356 1.546-1.356 1.546l-1.789 3.445s-1.07 1.708-1.61 2.06-1.124.489-1.898.28-1.401-1.173-1.401-1.173l-3.55-6.203M83.037 125.795l9.512 19.56s1.345 1.54 2.248 1.757c.665.16 1.422-.035 1.966-.426.643-.462 1.11-1.254 1.246-2.063.144-.857-.514-2.6-.514-2.6l-6.453-13.27s-.26-.702-.27-1.07c-.016-.562.077-1.149.32-1.656.248-.517.607-1.04 1.112-1.312.624-.336 1.428-.443 2.111-.255.74.203 1.822 1.402 1.822 1.402l5.967 12.273s1.102 1.123 1.799 1.385c.468.176 1.016.24 1.475.077.605-.213 1.075-.75 1.434-1.293.368-.557.715-1.227.67-1.917-.024-.393-.52-1.072-.52-1.072l-8.389-17.25s-.77-1.829-.473-2.69c.133-.386.574-.592.913-.82.327-.22.673-.455 1.062-.516.67-.106 1.391.016 2.014.285.481.209 1.229.985 1.229.985l5.73 11.785s.506.931.92 1.234a3.37 3.37 0 0 0 1.867.642c.36.008.761-.076 1.039-.307.666-.555 1.058-1.461 1.176-2.32.094-.68-.4-2.017-.4-2.017l-1.64-3.518s-.704-1.889-.654-2.531.299-1.19.935-1.676c.636-.487 1.785-.396 1.785-.396l7.08.964" style="fill:none;stroke:#df5;stroke-width:1.5875;stroke-linejoin:round"/><circle cx="129.453" cy="109.542" r="4.72" style="fill:none;stroke:#8a0;stroke-width:.264583;stroke-linejoin:round"/><circle cx="73.437" cy="55.212" r="4.72" style="fill:none;stroke:#8a0;stroke-width:.264583;stroke-linejoin:round"/><circle cx="20.883" cy="107.117" r="4.72" style="fill:none;stroke:#8a0;stroke-width:.264583;stroke-linejoin:round"/><circle cx="77.279" cy="162.832" r="4.72" style="fill:none;stroke:#8a0;stroke-width:.264583;stroke-linejoin:round"/><circle cx="37.133" cy="70.326" r="4.72" style="fill:none;stroke:#8a0;stroke-width:.264583;stroke-linejoin:round"/><circle cx="113.403" cy="70.456" r="4.72" style="fill:none;stroke:#8a0;stroke-width:.264583;stroke-linejoin:round"/><circle cx="114.51" cy="146.533" r="4.72" style="fill:none;stroke:#8a0;stroke-width:.264583;stroke-linejoin:round"/><circle cx="35.351" cy="144.826" r="4.72" style="fill:none;stroke:#8a0;stroke-width:.264583;stroke-linejoin:round"/><circle cx="75.177" cy="108.868" r="61.692" style="fill:none;stroke:#8a0;stroke-width:.264583;stroke-linejoin:round"/><circle cx="75.177" cy="108.868" r="46.522" style="fill:none;stroke:#8a0;stroke-width:.264583;stroke-linejoin:round"/><path d="M70.222 170.032c-22.754-1.75-43.097-16.66-51.829-37.986-8.489-20.733-4.932-44.505 9.268-61.946 2.313-2.842 7.458-7.843 10.328-10.04 17.986-13.772 42.996-16.416 63.31-6.693 16.325 7.813 28.277 22.048 33.04 39.352 5.899 21.43-.396 44.468-16.393 59.995-10.714 10.4-23.523 16.185-38.386 17.336-4.625.359-4.432.359-9.338-.018zm10.208-3.37c1.913-1.787 2.374-4.302 1.154-6.302-1.982-3.251-6.951-3.258-8.636-.012-1.2 2.312-.44 5.39 1.655 6.706 1.54.967 4.593.762 5.827-.391zm2.526-11.643c6.42-1.091 12.405-3.443 17.788-6.988 10.67-7.028 17.622-17.284 20.336-29.997 1.045-4.895 1.045-13.436 0-18.331-1.985-9.3-6.155-17.13-12.588-23.636-9.106-9.21-20.331-13.89-33.315-13.89-13 0-24.157 4.656-33.315 13.903-6.438 6.502-10.6 14.312-12.587 23.623-1.045 4.895-1.045 13.436 0 18.331 2.832 13.268 10.678 24.322 22.155 31.212 4.26 2.558 10.554 4.857 15.825 5.78 3.78.662 11.785.658 15.7-.007zm34.008-4.211c1.608-.904 2.432-2.313 2.432-4.16 0-2.933-1.929-4.971-4.744-5.014-1.994-.03-3.605.858-4.46 2.458-2.372 4.434 2.405 9.17 6.772 6.716zm-79.202-1.61c1.676-.898 2.837-3.247 2.523-5.105-.308-1.82-1.864-3.59-3.557-4.046-3.486-.939-6.765 1.898-6.29 5.442.469 3.49 4.204 5.382 7.324 3.71zm94.422-35.533c1.321-.882 2.325-2.662 2.325-4.123 0-1.46-1.004-3.24-2.325-4.123-2.4-1.603-5.89-.663-7.197 1.939-1.66 3.302.722 7.073 4.466 7.073 1.087 0 1.946-.24 2.731-.766zm-109.13-2.062c1.702-.711 2.699-2.346 2.719-4.458.028-2.95-1.928-4.928-4.872-4.928-1.895 0-2.944.558-4.193 2.23-.964 1.291-.962 4.176.003 5.492 1.414 1.928 4.054 2.62 6.342 1.664zm16.365-36.868c1.525-.778 2.39-2.015 2.623-3.749.647-4.83-5.393-7.598-8.602-3.943-1.462 1.665-1.696 3.529-.689 5.484 1.327 2.578 4.125 3.504 6.668 2.208zm76.726-.09c1.53-.945 2.3-2.704 2.1-4.794-.228-2.364-1.855-3.991-4.22-4.219-3.224-.31-5.473 1.653-5.473 4.777 0 1.96.718 3.399 2.123 4.255 1.454.887 4.02.878 5.47-.019zM75.84 59.565c1.564-.79 2.5-2.484 2.5-4.526 0-2.76-2.1-4.717-5.063-4.717-3.59 0-5.894 3.861-4.252 7.13 1.237 2.462 4.263 3.4 6.815 2.112z" style="fill:#efa;stroke:#efa;stroke-width:.264583;stroke-linejoin:round"/><circle cx="75.177" cy="108.523" r="54.276" style="fill:none;stroke:#ccc;stroke-width:.264583;stroke-linejoin:round"/><circle cx="91.242" cy="109.308" r="1.397" style="fill:none;stroke:#8a0;stroke-width:.264583;stroke-linejoin:round"/><circle cx="74.656" cy="93.222" r="1.397" style="fill:none;stroke:#8a0;stroke-width:.264583;stroke-linejoin:round"/><circle cx="59.096" cy="108.59" r="1.397" style="fill:none;stroke:#8a0;stroke-width:.264583;stroke-linejoin:round"/><circle cx="75.794" cy="125.086" r="1.397" style="fill:none;stroke:#8a0;stroke-width:.264583;stroke-linejoin:round"/><circle cx="63.907" cy="97.697" r="1.397" style="fill:none;stroke:#8a0;stroke-width:.264583;stroke-linejoin:round"/><circle cx="86.49" cy="97.736" r="1.397" style="fill:none;stroke:#8a0;stroke-width:.264583;stroke-linejoin:round"/><circle cx="86.817" cy="120.261" r="1.397" style="fill:none;stroke:#8a0;stroke-width:.264583;stroke-linejoin:round"/><circle cx="63.38" cy="119.755" r="1.397" style="fill:none;stroke:#8a0;stroke-width:.264583;stroke-linejoin:round"/><circle cx="75.172" cy="109.109" r="18.266" style="fill:none;stroke:#8a0;stroke-width:.264583;stroke-linejoin:round"/><circle cx="75.172" cy="109.109" r="13.774" style="fill:none;stroke:#8a0;stroke-width:.264583;stroke-linejoin:round"/><path d="M73.704 127.218c-6.737-.518-12.76-4.933-15.345-11.247-2.514-6.138-1.46-13.177 2.744-18.341.685-.841 2.208-2.322 3.058-2.973 5.325-4.077 12.73-4.86 18.745-1.981 4.833 2.313 8.372 6.528 9.782 11.651 1.747 6.345-.117 13.166-4.853 17.764-3.173 3.08-6.965 4.792-11.366 5.133-1.37.106-1.312.106-2.765-.006zm3.023-.997c.566-.53.703-1.274.342-1.866-.587-.963-2.059-.965-2.557-.004-.356.684-.13 1.595.49 1.985.455.286 1.36.226 1.725-.116zm.748-3.448a13.7 13.7 0 0 0 5.266-2.069c3.16-2.08 5.218-5.117 6.022-8.881.309-1.45.309-3.979 0-5.428-.588-2.753-1.823-5.072-3.727-6.998-2.697-2.727-6.02-4.113-9.864-4.113-3.85 0-7.153 1.379-9.864 4.117-1.907 1.925-3.139 4.237-3.727 6.994-.31 1.45-.31 3.978 0 5.428.838 3.928 3.161 7.2 6.56 9.241 1.261.757 3.124 1.438 4.685 1.711 1.12.196 3.49.195 4.649-.002zm10.069-1.247c.476-.267.72-.684.72-1.231 0-.869-.571-1.472-1.404-1.485-.591-.009-1.068.254-1.321.728-.702 1.313.712 2.715 2.005 1.988zm-23.45-.476c.496-.266.84-.962.747-1.512-.091-.539-.552-1.063-1.054-1.198-1.032-.278-2.003.562-1.862 1.612a1.468 1.468 0 0 0 2.169 1.098zm27.956-10.52c.392-.262.689-.79.689-1.222s-.297-.96-.689-1.22c-.71-.475-1.743-.197-2.13.574-.492.977.213 2.094 1.322 2.094.322 0 .576-.072.808-.227zm-32.311-.611c.504-.211.799-.695.805-1.32.008-.874-.571-1.46-1.443-1.46-.56 0-.871.166-1.241.66-.286.383-.285 1.237 0 1.627.42.57 1.201.776 1.879.493zm4.845-10.917c.452-.23.708-.596.777-1.11.192-1.43-1.597-2.25-2.547-1.167-.433.493-.502 1.045-.204 1.624.393.763 1.221 1.037 1.974.653zm22.718-.026c.453-.28.68-.8.621-1.42-.067-.7-.549-1.181-1.25-1.249-.954-.091-1.62.49-1.62 1.415 0 .58.213 1.006.629 1.26.43.262 1.19.26 1.62-.007zM75.368 94.51c.463-.234.74-.736.74-1.34 0-.818-.621-1.397-1.499-1.397-1.063 0-1.745 1.143-1.259 2.11.366.73 1.262 1.008 2.018.627z" style="fill:#efa;stroke:#efa;stroke-width:.264583;stroke-linejoin:round"/><circle cx="75.172" cy="109.006" r="16.07" style="fill:none;stroke:#ccc;stroke-width:.264583;stroke-linejoin:round"/><path d="M75.172 108.936h75.478M75.172 108.936l48.665-68.008" style="fill:#efa;stroke:#ccc;stroke-width:.264583;stroke-linejoin:round"/><path d="M93.438 109.113h21.75s1.974-.537 2.563-1.254c.434-.529.59-1.294.477-1.954-.134-.78-.642-1.547-1.31-2.023-.708-.505-2.563-.675-2.563-.675H99.599s-.745-.073-1.08-.225c-.512-.231-1-.571-1.35-1.011-.356-.45-.67-1.001-.693-1.574-.03-.708.226-1.478.693-2.01.506-.576 2.058-1.025 2.058-1.025h13.647s1.491-.5 2.031-1.012c.364-.345.66-.81.715-1.293.073-.637-.205-1.295-.536-1.855-.34-.574-.79-1.18-1.43-1.442-.365-.149-1.192 0-1.192 0H93.28s-1.981-.107-2.625-.75c-.29-.289-.282-.775-.34-1.18-.054-.39-.114-.804 0-1.18.199-.649.624-1.245 1.138-1.687.399-.342 1.424-.674 1.424-.674h13.103s1.06-.047 1.513-.288a3.37 3.37 0 0 0 1.393-1.398c.165-.321.265-.718.179-1.068-.207-.842-.851-1.591-1.572-2.073-.57-.381-1.99-.522-1.99-.522l-3.88-.063s-2.007-.194-2.563-.52c-.556-.325-.939-.788-1.098-1.573s.424-1.778.424-1.778l3.964-5.947" style="fill:none;stroke:#aad400;stroke-width:1.5875;stroke-linejoin:round"/><circle cx="75.177" cy="109.052" r="22.81" style="fill:none;stroke:#ccc;stroke-width:.264583;stroke-linejoin:round"/><circle cx="75.177" cy="109.052" r="43.072" style="fill:none;stroke:#ccc;stroke-width:.264582;stroke-linejoin:round"/><path d="m75.172 108.936 35.357-72.298M75.172 108.936l70 12.326" style="fill:none;stroke:#ccc;stroke-width:.264583;stroke-linejoin:round"/><circle cx="115.077" cy="106.237" r="2.801" style="fill:none;stroke:#666;stroke-width:.264583;stroke-linejoin:round"/><path d="M106.436 45.338s5.602 2.909 8.462 4.887 5.82 4.607 8.582 7.032c2.762 2.426 5.39 4.418 7.985 7.51 2.595 3.09 5.344 7.5 7.27 11.084 1.928 3.583 3.582 6.857 4.41 10.25.83 3.393 1.792 6.714 2.013 9.535s.291 5.26.357 7.39-.119 5.602-.119 5.602" style="fill:none;stroke:purple;stroke-width:.264583;stroke-linejoin:round;marker-start:url(#a);marker-end:url(#a)"/><path d="M110.13 37.71s3.94 1.248 5.722 2.265c1.966 1.123 5.363 4.171 5.363 4.171" style="fill:none;stroke:purple;stroke-width:.264583;stroke-linejoin:round;marker-start:url(#a);marker-end:url(#a)"/><circle cx="100.73" cy="78.239" r="2.801" style="fill:none;stroke:#666;stroke-width:.264583;stroke-linejoin:round"/><circle cx="99.259" cy="100.304" r="2.801" style="fill:none;stroke:#666;stroke-width:.264583;stroke-linejoin:round"/><circle cx="112.568" cy="94.509" r="2.801" style="fill:none;stroke:#666;stroke-width:.264583;stroke-linejoin:round"/><circle cx="93.09" cy="89.314" r="2.801" style="fill:none;stroke:#666;stroke-width:.264583;stroke-linejoin:round"/><circle cx="106.156" cy="83.615" r="2.801" style="fill:none;stroke:#666;stroke-width:.264583;stroke-linejoin:round"/><circle cx="101.557" cy="100.292" r="2.801" style="fill:none;stroke:#666;stroke-width:.264583;stroke-linejoin:round"/><path d="M98.977 102.257a2.77 2.77 0 0 1-1.49-1.329c-.169-.34-.183-.413-.157-.81.022-.348.069-.513.23-.815.232-.436.475-.619 1.185-.89.783-.298.77-.298.522.005-.832 1.016-.877 2.592-.103 3.61.259.34.229.378-.187.23z" style="fill:#668000;stroke:#668000;stroke-width:.264583;stroke-linejoin:round"/><circle cx="102.821" cy="77.272" r="3.278" style="fill:none;stroke:#666;stroke-width:.264583;stroke-linejoin:round"/><path d="M99.873 79.763c-.49-.127-.774-.338-.954-.708-.255-.523-.143-1.146.33-1.842l.154-.228v.389c0 .766.312 1.569.836 2.157.353.395.325.413-.366.232z" style="fill:#668000;stroke:#668000;stroke-width:.264583;stroke-linejoin:round"/><path d="m78.455 90.77.686-3.835" style="fill:#668000;stroke:#803300;stroke-width:.264583;stroke-linejoin:round;marker-start:url(#a);marker-end:url(#a)"/><path d="m82.858 66.46.617-3.093" style="fill:#668000;stroke:#803300;stroke-width:.264583;stroke-linejoin:round;marker-start:url(#b);marker-end:url(#b)"/><path d="M110.359 108.184v-2.856" style="fill:#668000;stroke:#f0f;stroke-width:.264583;stroke-linejoin:round;marker-start:url(#a)"/><path d="M110.407 110.212v4.045" style="fill:#668000;stroke:#f0f;stroke-width:.264583;stroke-linejoin:round;marker-start:url(#c)"/><path d="M99.038 100.232h2.855" style="fill:#668000;stroke:#f0f;stroke-width:.264583;stroke-linejoin:round;marker-start:url(#d)"/><path d="M97.01 100.28h-4.045" style="fill:#668000;stroke:#f0f;stroke-width:.264583;stroke-linejoin:round;marker-start:url(#e)"/><path d="m94.223 110.47 4.264.994" style="fill:#668000;stroke:#00f;stroke-width:.264583;stroke-linejoin:round;marker-start:url(#a)"/><path d="m100.693 70.685-5.426 4.757" style="fill:#668000;stroke:#00f;stroke-width:.264583;stroke-linejoin:round;marker-start:url(#a)"/><path d="m110.636 83.376 22.02-3.078" style="fill:#668000;stroke:#00f;stroke-width:.264583;stroke-linejoin:round;marker-start:url(#a)"/><path d="m115.89 92.088 17.524-9.515" style="fill:#668000;stroke:#00f;stroke-width:.264583;stroke-linejoin:round;marker-start:url(#a)"/><text xml:space="preserve" style="font-size:16px;line-height:normal;font-family:&quot;Liberation Mono&quot;;-inkscape-font-specification:&quot;Liberation Mono&quot;;text-decoration-color:#000;white-space:pre;shape-inside:url(#f);display:inline;fill:#00f;stroke-width:1;-inkscape-stroke:none;stop-color:#000" transform="translate(-4.214 36.135)scale(.26458)"><tspan x="519.213" y="173.504">Nk</tspan></text><text xml:space="preserve" style="font-size:16px;line-height:normal;font-family:&quot;Liberation Mono&quot;;-inkscape-font-specification:&quot;Liberation Mono&quot;;text-decoration-color:#000;white-space:pre;shape-inside:url(#g);display:inline;fill:#f0f;stroke-width:1;-inkscape-stroke:none;stop-color:#000" transform="translate(64.958 92.775)scale(.26458)"><tspan x="173.885" y="81.358">Wk</tspan></text><text xml:space="preserve" style="font-size:16px;line-height:normal;font-family:&quot;Liberation Mono&quot;;-inkscape-font-specification:&quot;Liberation Mono&quot;;text-decoration-color:#000;white-space:pre;shape-inside:url(#h);display:inline;fill:#f0f;stroke-width:1;-inkscape-stroke:none;stop-color:#000" transform="translate(50.06 74.063)scale(.26458)"><tspan x="154.063" y="95.774">Wc</tspan></text><text xml:space="preserve" style="font-size:16px;line-height:normal;font-family:&quot;Liberation Mono&quot;;-inkscape-font-specification:&quot;Liberation Mono&quot;;text-decoration-color:#000;white-space:pre;shape-inside:url(#i);display:inline;fill:#00f;stroke-width:1;-inkscape-stroke:none;stop-color:#000" transform="translate(52.472 90.75)scale(.26458)"><tspan x="174.334" y="84.512">Rrsi</tspan></text><text xml:space="preserve" style="font-size:16px;line-height:normal;font-family:&quot;Liberation Mono&quot;;-inkscape-font-specification:&quot;Liberation Mono&quot;;text-decoration-color:#000;white-space:pre;shape-inside:url(#j);display:inline;fill:#00f;stroke-width:1;-inkscape-stroke:none;stop-color:#000" transform="translate(45.387 56.9)scale(.26458)"><tspan x="154.514" y="82.258">Rrse</tspan></text><text xml:space="preserve" style="font-size:16px;line-height:normal;font-family:&quot;Liberation Mono&quot;;-inkscape-font-specification:&quot;Liberation Mono&quot;;text-decoration-color:#000;white-space:pre;shape-inside:url(#k);display:inline;fill:purple;stroke-width:1;-inkscape-stroke:none;stop-color:#000" transform="translate(-16.329 4.814)scale(.26458)"><tspan x="498.229" y="128.658">aEs</tspan></text><text xml:space="preserve" style="font-size:16px;line-height:normal;font-family:&quot;Liberation Mono&quot;;-inkscape-font-specification:&quot;Liberation Mono&quot;;text-decoration-color:#000;white-space:pre;shape-inside:url(#l);display:inline;fill:purple;stroke-width:1;-inkscape-stroke:none;stop-color:#000" transform="translate(1.311 25.434)scale(.26458)"><tspan x="505.436" y="161.992">Ns</tspan></text><text xml:space="preserve" style="font-size:16px;line-height:normal;font-family:&quot;Liberation Mono&quot;;-inkscape-font-specification:&quot;Liberation Mono&quot;;text-decoration-color:#000;white-space:pre;shape-inside:url(#m);display:inline;fill:purple;stroke-width:1;-inkscape-stroke:none;stop-color:#000" transform="translate(30.99 64.885)scale(.26458)"><tspan x="148.658" y="94.422">Esi</tspan></text><text xml:space="preserve" style="font-size:16px;line-height:normal;font-family:&quot;Liberation Mono&quot;;-inkscape-font-specification:&quot;Liberation Mono&quot;;text-decoration-color:#000;white-space:pre;shape-inside:url(#n);display:inline;fill:purple;stroke-width:1;-inkscape-stroke:none;stop-color:#000" transform="translate(12.396 45.696)scale(.26458)"><tspan x="234.699" y="77.303">Ese</tspan></text><path d="m96.066 89.08 3.218-.119" style="fill:purple;stroke:#b3b3b3;stroke-width:.264583;stroke-linejoin:round;marker-start:url(#a)"/><text xml:space="preserve" style="font-size:16px;line-height:normal;font-family:&quot;Liberation Mono&quot;;-inkscape-font-specification:&quot;Liberation Mono&quot;;text-decoration-color:#000;white-space:pre;shape-inside:url(#o);display:inline;fill:#b3b3b3;stroke-width:1;-inkscape-stroke:none;stop-color:#000" transform="translate(55.661 67.388)scale(.26458)"><tspan x="165.326" y="86.764">Dk</tspan></text><path d="M108.104 98.377v3.576" style="fill:#b3b3b3;stroke:#b3b3b3;stroke-width:.264583;stroke-linejoin:round;marker-start:url(#a);marker-end:url(#a)"/><text xml:space="preserve" style="font-size:16px;line-height:normal;font-family:&quot;Liberation Mono&quot;;-inkscape-font-specification:&quot;Liberation Mono&quot;;text-decoration-color:#000;white-space:pre;shape-inside:url(#p);display:inline;fill:#b3b3b3;stroke-width:1;-inkscape-stroke:none;stop-color:#000" transform="translate(65.077 76.447)scale(.26458)"><tspan x="167.127" y="95.774">Ek</tspan></text><circle cx="75.177" cy="109.052" r="10.176" style="fill:none;stroke:green;stroke-width:.264583;stroke-linejoin:round"/><path d="m75.447 100.761-.12-3.456s-2.009.213-2.98.476c-.74.201-1.459.49-2.145.835-.67.336-1.311.737-1.907 1.192-.559.426-1.55 1.43-1.55 1.43l2.027 2.026s-.795.82-1.073 1.311c-.29.514-.421 1.105-.596 1.669-.23.746-.596 2.264-.596 2.264l-2.86.12s.036 1.592.119 2.383c.067.64.1 1.298.305 1.907.173.513.477.975.768 1.43.427.67 1.43 1.908 1.43 1.908l1.788-1.55s.917.843 1.43 1.192c.412.28.858.508 1.311.715.618.283 1.246.56 1.907.715.739.175 2.265.239 2.265.239l-.12 2.86s1.768-.04 2.623-.238c.87-.201 1.696-.572 2.503-.953.579-.274 1.133-.602 1.668-.954.664-.436 1.907-1.43 1.907-1.43l-1.787-2.026s.853-.993 1.191-1.55c.342-.562.653-1.156.835-1.788.266-.923.357-2.86.357-2.86l2.384.119s-.036-1.038-.12-1.55a12.173 12.173 0 0 0-1.311-3.814c-.343-.628-1.191-1.788-1.191-1.788l-1.788 1.61s-.54-.535-.834-.775c-.474-.388-.944-.796-1.49-1.073-.69-.349-1.439-.616-2.205-.715-.71-.092-2.145.12-2.145.12z" style="fill:none;stroke:#8a0;stroke-width:.264583;stroke-linejoin:round"/><path d="M77.2 158.256v6.237" style="fill:none;stroke:#d45500;stroke-width:.264583;stroke-linejoin:round;marker-start:url(#a)"/><path d="M77.288 154.748v-6.237" style="fill:none;stroke:#d45500;stroke-width:.264583;stroke-linejoin:round;marker-start:url(#q)"/><text xml:space="preserve" style="font-size:16px;line-height:normal;font-family:&quot;Liberation Mono&quot;;-inkscape-font-specification:&quot;Liberation Mono&quot;;text-decoration-color:#000;white-space:pre;shape-inside:url(#r);display:inline;fill:#d45500;stroke-width:1;-inkscape-stroke:none;stop-color:#000" transform="translate(16.519 24.589)scale(.26458)"><tspan x="231.258" y="472.928">Ee</tspan></text><path d="m123.385 133.983 11.293 8.26" style="fill:#d45500;stroke:#d45500;stroke-width:.264583;stroke-linejoin:round;marker-start:url(#a)"/><text xml:space="preserve" style="font-size:16px;line-height:normal;font-family:&quot;Liberation Mono&quot;;-inkscape-font-specification:&quot;Liberation Mono&quot;;text-decoration-color:#000;white-space:pre;shape-inside:url(#s);display:inline;fill:#d45500;stroke-width:1;-inkscape-stroke:none;stop-color:#000" transform="translate(16.687 -6.257)scale(.26458)"><tspan x="447.225" y="568.488">De</tspan></text><path d="m118.328 150.334 4.888 6.068" style="fill:#a40;stroke:#d45500;stroke-width:.264583;stroke-linejoin:round;marker-start:url(#a)"/><text xml:space="preserve" style="font-size:16px;line-height:normal;font-family:&quot;Liberation Mono&quot;;-inkscape-font-specification:&quot;Liberation Mono&quot;;text-decoration-color:#000;white-space:pre;shape-inside:url(#t);display:inline;fill:#d45500;stroke-width:1;-inkscape-stroke:none;stop-color:#000" transform="translate(11.125 5.373)scale(.26458)"><tspan x="421.742" y="585.053">DTe</tspan></text><path d="m82.425 164.493 28.318 2.36" style="fill:#a40;stroke:#d45500;stroke-width:.264583;stroke-linejoin:round;marker-start:url(#a)"/><path d="m114.283 151.682-1.012 12.642" style="fill:#a40;stroke:#d45500;stroke-width:.264583;stroke-linejoin:round;marker-start:url(#a)"/><text xml:space="preserve" style="font-size:16px;line-height:normal;font-family:&quot;Liberation Mono&quot;;-inkscape-font-specification:&quot;Liberation Mono&quot;;text-decoration-color:#000;white-space:pre;shape-inside:url(#u);display:inline;fill:#d45500;stroke-width:1;-inkscape-stroke:none;stop-color:#000" transform="translate(5.731 11.947)scale(.26458)"><tspan x="400.719" y="592.061">Ne</tspan></text><path d="m66.918 123.364-34.892 37.757" style="fill:#37abc8;stroke:#37abc8;stroke-width:.264583;stroke-linejoin:round;marker-start:url(#a)"/><path d="M31.183 159.099v21.07" style="fill:#37abc8;stroke:#37abc8;stroke-width:.264582;stroke-linejoin:round"/><text xml:space="preserve" style="font-size:16px;line-height:normal;font-family:&quot;Liberation Mono&quot;;-inkscape-font-specification:&quot;Liberation Mono&quot;;text-align:end;text-decoration-color:#000;white-space:pre;shape-inside:url(#v);display:inline;fill:#37abc8;stroke-width:1;-inkscape-stroke:none;stop-color:#000" transform="translate(1.517 21.386)scale(.26458)"><tspan x="87.824" y="534.086">Di
</tspan><tspan x="87.824" y="554.086">Ni
</tspan><tspan x="78.223" y="574.086">DTi
</tspan><tspan x="87.824" y="594.086">Ei</tspan></text><path d="m73.323 119.825-27.644 53.433" style="fill:#3771c8;stroke:#3771c8;stroke-width:.264583;stroke-linejoin:round;marker-start:url(#a)"/><text xml:space="preserve" style="font-size:16px;line-height:normal;font-family:&quot;Liberation Mono&quot;;-inkscape-font-specification:&quot;Liberation Mono&quot;;text-decoration-color:#000;white-space:pre;shape-inside:url(#w);display:inline;fill:#2c5aa0;stroke-width:1;-inkscape-stroke:none;stop-color:#000" transform="translate(-3.704 22.225)scale(.26458)"><tspan x="174.557" y="605.44">Dt
</tspan><tspan x="174.557" y="625.44">Nt
</tspan><tspan x="174.557" y="645.44">Ht</tspan></text><path d="m12.81 157.096 7.754-9.439" style="fill:#3771c8;stroke:#d4aa00;stroke-width:.264583;stroke-linejoin:round;marker-end:url(#a)"/><text xml:space="preserve" style="font-size:16px;line-height:normal;font-family:&quot;Liberation Mono&quot;;-inkscape-font-specification:&quot;Liberation Mono&quot;;text-decoration-color:#000;white-space:pre;shape-inside:url(#x);display:inline;fill:#d4aa00;stroke-width:1;-inkscape-stroke:none;stop-color:#000" transform="translate(-3.371 -73.323)scale(.26458)"><tspan x="77.723" y="867.912">Th</tspan></text><path d="M51.187 175.456v25.432" style="fill:#3771c8;stroke:#3771c8;stroke-width:.264583;stroke-linejoin:round"/><text xml:space="preserve" style="font-size:16px;line-height:normal;font-family:&quot;Liberation Mono&quot;;-inkscape-font-specification:&quot;Liberation Mono&quot;;text-decoration-color:#000;white-space:pre;shape-inside:url(#y);display:inline;fill:#2c5aa0;stroke-width:1;-inkscape-stroke:none;stop-color:#000" transform="translate(6.134 19.21)scale(.26458)"><tspan x="174.557" y="605.44">ate
</tspan><tspan x="174.557" y="625.44">dh
</tspan><tspan x="174.557" y="645.44">ah
</tspan><tspan x="174.557" y="665.44">aeh
</tspan><tspan x="174.557" y="685.44">aM</tspan></text><path d="M63.918 175.466v25.432" style="fill:#3771c8;stroke:#3771c8;stroke-width:.264583;stroke-linejoin:round"/><text xml:space="preserve" style="font-size:16px;line-height:normal;font-family:&quot;Liberation Mono&quot;;-inkscape-font-specification:&quot;Liberation Mono&quot;;text-decoration-color:#000;white-space:pre;shape-inside:url(#z);display:inline;fill:#2c5aa0;stroke-width:1;-inkscape-stroke:none;stop-color:#000" transform="translate(18.866 21.865)scale(.26458)"><tspan x="174.557" y="605.44">SnAde
</tspan><tspan x="174.557" y="625.44">SnAae
</tspan><tspan x="174.557" y="645.44">Rde
</tspan><tspan x="174.557" y="665.44">Rae</tspan></text><path d="M41.465 174.117h38.263v28.486H41.465z" style="fill:none;stroke:#2c5aa0;stroke-width:.264583;stroke-linejoin:round"/><text xml:space="preserve" style="font-size:16px;line-height:normal;font-family:&quot;Liberation Mono&quot;;-inkscape-font-specification:&quot;Liberation Mono&quot;;text-decoration-color:#000;white-space:pre;shape-inside:url(#A);fill:#2c5aa0;stroke-width:1;-inkscape-stroke:none;stop-color:#000" transform="scale(.26458)"><tspan x="324.344" y="708.873">Teeth: [On, Off]</tspan></text></g></svg>