<svg xmlns="http://www.w3.org/2000/svg" width="541.573" height="656.895" viewBox="0 0 143.291 173.804"><defs><path id="z" d="M152.261 133.792h169.83v33.786h-169.83z"/><path id="y" d="M261.277 515.346h245.961v25.677H261.277z"/><path id="d" d="M519.213 159.268H548.2v26.12h-28.987z"/><path id="e" d="M173.884 67.121h45.048V94.6h-45.048z"/><path id="f" d="M174.335 70.274h64.418v29.281h-64.418z"/><path id="g" d="M154.514 68.022h55.409v30.182h-55.409z"/><path id="h" d="M498.228 114.421h45.498v36.489h-45.498z"/><path id="i" d="M505.436 147.757h70.274v45.498h-70.274z"/><path id="j" d="M148.658 80.185h59.013v37.84h-59.013z"/><path id="k" d="M234.699 63.067h50.003v31.984h-50.003z"/><path id="l" d="M165.325 72.527h34.687v29.732h-34.687z"/><path id="m" d="M167.127 81.536h36.038v25.227h-36.038z"/><path id="o" d="M231.257 458.691h35.039v35.039h-35.039z"/><path id="p" d="M447.224 554.252h39.498v41.41h-39.498z"/><path id="q" d="M421.741 570.816h45.869v38.861h-45.869z"/><path id="r" d="M400.718 577.824h50.329v40.773h-50.329z"/><path id="s" d="M38.224 519.85h68.804v86.005H38.224z"/><path id="t" d="M174.558 591.202h89.19v155.445h-89.19z"/><path id="u" d="M77.723 853.676h103.206v81.545H77.723z"/><path id="v" d="M174.558 591.202h89.19v155.445h-89.19z"/><path id="w" d="M174.558 591.202h89.19v155.445h-89.19z"/><path id="x" d="M324.344 694.636h177.488v55.859H324.344z"/><marker id="a" markerHeight="1" markerWidth="1" orient="auto-start-reverse" preserveAspectRatio="xMidYMid" refX="0" refY="0" style="overflow:visible" viewBox="0 0 1 1"><path d="M3-3 0 0l3 3" style="fill:none;stroke:context-stroke;stroke-width:1;stroke-linecap:butt" transform="rotate(180 .125 0)"/></marker><marker id="b" markerHeight="1" markerWidth="1" orient="auto-start-reverse" preserveAspectRatio="xMidYMid" refX="0" refY="0" style="overflow:visible" viewBox="0 0 1 1"><path d="M3-3 0 0l3 3" style="fill:none;stroke:context-stroke;stroke-width:1;stroke-linecap:butt" transform="rotate(180 .125 0)"/></marker><marker id="c" markerHeight="1" markerWidth="1" orient="auto-start-reverse" preserveAspectRatio="xMidYMid" refX="0" refY="0" style="overflow:visible" viewBox="0 0 1 1"><path d="M3-3 0 0l3 3" style="fill:none;stroke:context-stroke;stroke-width:1;stroke-linecap:butt" transform="rotate(180 .125 0)"/></marker><marker id="n" markerHeight="1" markerWidth="1" orient="auto-start-reverse" preserveAspectRatio="xMidYMid" refX="0" refY="0" style="overflow:visible" viewBox="0 0 1 1"><path d="M3-3 0 0l3 3" style="fill:none;stroke:context-stroke;stroke-width:1;stroke-linecap:butt" transform="rotate(180 .125 0)"/></marker></defs><g transform="translate(-9.184 -31.89)"><path d="M9.316 32.022h143.027v173.539H9.316z" style="fill:#fff;stroke:#fff;stroke-width:.264583;stroke-linejoin:round"/><path d="m92.567 112.826 4.202.906s1.454.73 1.974 1.33c.46.53.841 1.198.918 1.896.076.699-.486 2.052-.486 2.052l-11.568 14.402s-.706 1.348-.75 2.086c-.033.552.084 1.145.371 1.618.385.635.994 1.196 1.693 1.446.757.272 1.656.227 2.413-.044.731-.262 1.828-1.447 1.828-1.447l13.76-19.04s.533-.748.888-1.03c.422-.335.907-.635 1.434-.75.582-.128 1.233-.132 1.786.09.782.316 1.488.93 1.908 1.661.226.394.256.884.255 1.338a3.8 3.8 0 0 1-.29 1.489c-.135.311-.592.829-.592.829l-19.328 22.935s-.838 1.422-.948 2.219c-.073.528.205 1.586.205 1.586l1.701 3.165M65.898 93.378l-1.966-3.823s-.358-1.587-.225-2.368c.119-.693.393-1.411.884-1.913.491-.503 1.894-.926 1.894-.926l18.471-.197s1.49-.31 2.09-.744c.447-.325.83-.791 1.014-1.313.247-.7.294-1.528.044-2.227-.27-.757-.875-1.423-1.565-1.836-.667-.4-2.278-.495-2.278-.495L60.813 78.98s-.916.062-1.359-.034c-.527-.114-1.066-.298-1.49-.632-.468-.37-.884-.87-1.063-1.438a3.97 3.97 0 0 1 .073-2.528c.16-.425.52-.759.872-1.046.392-.32.85-.58 1.335-.72.326-.094 1.016-.07 1.016-.07l29.991.389s1.631-.255 2.317-.675c.454-.279 1.095-1.166 1.095-1.166l1.367-3.323M92.791 109.479l4.299-.085s1.566-.438 2.19-.927c.554-.432 1.056-1.015 1.265-1.685s-.084-2.107-.084-2.107l-8.597-16.35s-.435-1.46-.337-2.192c.073-.548.302-1.107.674-1.517.5-.55 1.205-.983 1.939-1.095.795-.122 1.668.094 2.36.505.667.398 1.517 1.77 1.517 1.77l9.86 21.323s.38.836.675 1.18c.35.41.769.797 1.264 1.011.547.237 1.185.366 1.77.253a3.97 3.97 0 0 0 2.19-1.264c.298-.343.42-.819.507-1.264a3.8 3.8 0 0 0 0-1.517c-.072-.332-.422-.928-.422-.928l-14.58-26.21s-.55-1.557-.506-2.36c.03-.532.506-1.517.506-1.517l2.275-2.781" style="fill:none;stroke:#aad400;stroke-width:1.5875;stroke-linejoin:round"/><path d="M73.554 123.053a13.51 13.51 0 0 1-9.819-5.327c-2.371-3.158-3.238-7.036-2.438-10.914.41-1.982 1.394-4.042 2.718-5.69 1.546-1.923 3.778-3.473 6.168-4.285 5.484-1.863 11.594.043 15.086 4.706.503.671.849 1.236 1.267 2.066a13.4 13.4 0 0 1 .58 10.682 13.3 13.3 0 0 1-2.998 4.715 12.7 12.7 0 0 1-2.262 1.87 13.4 13.4 0 0 1-8.302 2.177zm1.83-1.98c1.482-.11 2.355-.366 4.007-1.175.85-.417 1.569-.855 2.318-1.411.92-.684 1.284-.99 1.284-1.079 0-.05-.354-.485-.86-1.057l-.86-.974.335-.405c.852-1.029 1.452-2.131 1.678-3.084.096-.404.235-1.45.279-2.095l.03-.432h.194c.107 0 .627.021 1.155.048.71.036.973.037 1.008.002.074-.074-.031-1.44-.16-2.073-.33-1.631-.88-2.96-1.782-4.305-.612-.915-.71-1.046-.785-1.046-.034 0-.453.351-.93.781l-.868.782-.329-.314a14 14 0 0 0-1.44-1.17c-.55-.373-1.54-.78-2.319-.95-.404-.09-1.452-.1-2.054-.02-.195.026-.362.04-.37.032a48 48 0 0 1-.075-1.666c-.033-.907-.072-1.668-.086-1.69-.038-.063-.324-.05-1.015.043-1.47.2-2.138.346-2.998.658-1.23.446-2.581 1.206-3.446 1.94-.442.375-1.41 1.323-1.41 1.381 0 .025.444.49.987 1.032l.987.987-.336.382c-.425.484-.679.862-.84 1.253-.163.394-.522 1.606-.78 2.628-.111.44-.218.811-.238.825s-.644.048-1.389.077c-.745.03-1.38.064-1.41.075-.043.017-.057.127-.057.429.002.956.143 2.724.277 3.456.174.951.634 1.752 2.053 3.576.246.316.36.432.429.432.06 0 .393-.26.942-.737l.85-.738.444.39c.832.728 1.527 1.155 2.695 1.655 1.068.458 1.698.609 2.93.702l.673.051v.15c0 .082-.021.692-.049 1.355-.027.663-.037 1.236-.022 1.275.032.085.448.092 1.354.025z" style="fill:#efa;stroke:#efa;stroke-width:.264583;stroke-linejoin:round"/><circle cx="128.757" cy="110.098" r="4.72" style="fill:none;stroke:#8a0;stroke-width:.264583;stroke-linejoin:round"/><circle cx="72.741" cy="55.768" r="4.72" style="fill:none;stroke:#8a0;stroke-width:.264583;stroke-linejoin:round"/><circle cx="20.187" cy="107.673" r="4.72" style="fill:none;stroke:#8a0;stroke-width:.264583;stroke-linejoin:round"/><circle cx="76.583" cy="163.388" r="4.72" style="fill:none;stroke:#8a0;stroke-width:.264583;stroke-linejoin:round"/><circle cx="36.437" cy="70.882" r="4.72" style="fill:none;stroke:#8a0;stroke-width:.264583;stroke-linejoin:round"/><circle cx="112.707" cy="71.012" r="4.72" style="fill:none;stroke:#8a0;stroke-width:.264583;stroke-linejoin:round"/><circle cx="113.814" cy="147.089" r="4.72" style="fill:none;stroke:#8a0;stroke-width:.264583;stroke-linejoin:round"/><circle cx="34.655" cy="145.382" r="4.72" style="fill:none;stroke:#8a0;stroke-width:.264583;stroke-linejoin:round"/><circle cx="74.481" cy="109.424" r="61.692" style="fill:none;stroke:#8a0;stroke-width:.264583;stroke-linejoin:round"/><circle cx="74.481" cy="109.424" r="46.522" style="fill:none;stroke:#8a0;stroke-width:.264583;stroke-linejoin:round"/><path d="M69.526 170.587c-22.753-1.75-43.097-16.66-51.829-37.986-8.489-20.732-4.932-44.505 9.268-61.946 2.313-2.841 7.458-7.843 10.328-10.04 17.986-13.77 42.997-16.415 63.31-6.693 16.325 7.814 28.277 22.049 33.04 39.353 5.899 21.43-.396 44.467-16.393 59.995-10.714 10.4-23.522 16.184-38.386 17.336-4.625.358-4.432.359-9.338-.019zm10.208-3.369c1.913-1.787 2.374-4.302 1.154-6.302-1.982-3.251-6.951-3.258-8.636-.012-1.2 2.311-.44 5.39 1.656 6.706 1.538.967 4.592.761 5.826-.392zm2.526-11.643c6.42-1.092 12.405-3.443 17.788-6.988 10.67-7.028 17.622-17.284 20.336-29.997 1.045-4.896 1.045-13.436 0-18.332-1.985-9.299-6.155-17.129-12.588-23.635-9.106-9.21-20.33-13.89-33.315-13.89-13 0-24.157 4.656-33.314 13.903-6.439 6.501-10.6 14.311-12.588 23.622-1.045 4.896-1.045 13.436 0 18.332 2.832 13.268 10.678 24.322 22.155 31.212 4.26 2.558 10.555 4.857 15.825 5.78 3.78.662 11.785.658 15.7-.007zm34.008-4.212c1.609-.904 2.432-2.312 2.432-4.16 0-2.932-1.929-4.97-4.743-5.013-1.995-.03-3.606.857-4.462 2.457-2.37 4.435 2.406 9.17 6.773 6.716zm-79.201-1.609c1.675-.898 2.836-3.248 2.522-5.105-.307-1.82-1.864-3.59-3.557-4.047-3.486-.938-6.765 1.899-6.29 5.443.469 3.49 4.205 5.382 7.325 3.709zm94.421-35.533c1.321-.882 2.325-2.662 2.325-4.123 0-1.46-1.004-3.24-2.325-4.123-2.4-1.604-5.89-.664-7.197 1.939-1.66 3.302.722 7.072 4.466 7.072 1.088 0 1.946-.24 2.731-.765zm-109.13-2.062c1.702-.711 2.7-2.346 2.719-4.458.028-2.95-1.928-4.929-4.872-4.929-1.895 0-2.944.558-4.193 2.23-.964 1.292-.962 4.177.003 5.493 1.414 1.927 4.054 2.62 6.342 1.664zM38.722 75.29c1.525-.777 2.39-2.014 2.623-3.748.648-4.83-5.393-7.598-8.602-3.943-1.462 1.664-1.696 3.528-.689 5.484 1.328 2.578 4.125 3.504 6.668 2.207zm76.727-.089c1.53-.945 2.3-2.704 2.098-4.794-.227-2.364-1.854-3.992-4.219-4.219-3.224-.31-5.473 1.653-5.473 4.777 0 1.96.718 3.398 2.123 4.255 1.454.887 4.02.878 5.47-.019zM75.144 60.12c1.565-.79 2.501-2.484 2.501-4.525 0-2.761-2.1-4.717-5.063-4.717-3.591 0-5.894 3.861-4.253 7.129 1.238 2.462 4.263 3.4 6.815 2.113z" style="fill:#efa;stroke:#efa;stroke-width:.264583;stroke-linejoin:round"/><circle cx="74.481" cy="109.079" r="54.276" style="fill:none;stroke:#ccc;stroke-width:.264583;stroke-linejoin:round"/><circle cx="90.546" cy="109.864" r="1.397" style="fill:none;stroke:#8a0;stroke-width:.264583;stroke-linejoin:round"/><circle cx="73.961" cy="93.778" r="1.397" style="fill:none;stroke:#8a0;stroke-width:.264583;stroke-linejoin:round"/><circle cx="58.4" cy="109.146" r="1.397" style="fill:none;stroke:#8a0;stroke-width:.264583;stroke-linejoin:round"/><circle cx="75.098" cy="125.642" r="1.397" style="fill:none;stroke:#8a0;stroke-width:.264583;stroke-linejoin:round"/><circle cx="63.212" cy="98.253" r="1.397" style="fill:none;stroke:#8a0;stroke-width:.264583;stroke-linejoin:round"/><circle cx="85.794" cy="98.291" r="1.397" style="fill:none;stroke:#8a0;stroke-width:.264583;stroke-linejoin:round"/><circle cx="86.122" cy="120.816" r="1.397" style="fill:none;stroke:#8a0;stroke-width:.264583;stroke-linejoin:round"/><circle cx="62.684" cy="120.311" r="1.397" style="fill:none;stroke:#8a0;stroke-width:.264583;stroke-linejoin:round"/><circle cx="74.476" cy="109.664" r="18.266" style="fill:none;stroke:#8a0;stroke-width:.264583;stroke-linejoin:round"/><circle cx="74.476" cy="109.664" r="13.774" style="fill:none;stroke:#8a0;stroke-width:.264583;stroke-linejoin:round"/><path d="M73.009 127.774c-6.737-.518-12.76-4.933-15.346-11.247-2.513-6.139-1.46-13.177 2.744-18.341.685-.842 2.208-2.323 3.058-2.973 5.325-4.077 12.73-4.86 18.745-1.982 4.834 2.314 8.372 6.528 9.783 11.652 1.746 6.345-.118 13.166-4.854 17.764-3.172 3.079-6.965 4.792-11.366 5.132-1.369.107-1.312.107-2.764-.006zm3.022-.998c.566-.529.703-1.274.342-1.866-.587-.962-2.058-.964-2.557-.004-.356.685-.13 1.596.49 1.986.456.286 1.36.225 1.725-.116zm.748-3.447a13.7 13.7 0 0 0 5.267-2.07c3.159-2.08 5.217-5.116 6.02-8.88.31-1.45.31-3.979 0-5.428-.587-2.754-1.822-5.072-3.726-6.998-2.696-2.727-6.02-4.113-9.864-4.113-3.85 0-7.153 1.379-9.864 4.116-1.906 1.925-3.139 4.238-3.727 6.995-.31 1.45-.31 3.978 0 5.427.838 3.929 3.162 7.202 6.56 9.242 1.261.757 3.125 1.438 4.685 1.711 1.12.196 3.49.195 4.649-.002zm10.07-1.247c.475-.268.72-.685.72-1.232 0-.868-.572-1.471-1.405-1.484-.59-.009-1.068.254-1.321.728-.702 1.312.712 2.715 2.005 1.988zm-23.451-.476c.496-.266.84-.962.747-1.512-.091-.539-.552-1.063-1.053-1.198-1.033-.278-2.003.562-1.863 1.611a1.468 1.468 0 0 0 2.169 1.099zm27.957-10.521c.39-.261.688-.788.688-1.22 0-.433-.297-.96-.688-1.222-.711-.475-1.744-.196-2.131.574-.492.978.213 2.094 1.322 2.094.322 0 .576-.07.809-.226zm-32.312-.61c.504-.211.8-.695.805-1.32.008-.874-.57-1.46-1.442-1.46-.562 0-.872.165-1.242.66-.285.383-.285 1.237.001 1.627.419.57 1.2.775 1.878.492zm4.845-10.917c.452-.23.708-.596.777-1.11.192-1.43-1.597-2.25-2.547-1.167-.433.493-.502 1.044-.204 1.623.393.764 1.221 1.038 1.974.654zm22.718-.026c.453-.28.68-.801.621-1.42-.067-.7-.549-1.182-1.249-1.249-.955-.092-1.62.49-1.62 1.414 0 .58.212 1.006.628 1.26.43.263 1.19.26 1.62-.006zm-11.934-4.466c.463-.233.74-.735.74-1.34 0-.817-.621-1.396-1.499-1.396-1.063 0-1.745 1.143-1.259 2.11.367.73 1.262 1.007 2.018.626z" style="fill:#efa;stroke:#efa;stroke-width:.264583;stroke-linejoin:round"/><circle cx="74.476" cy="109.562" r="16.07" style="fill:none;stroke:#ccc;stroke-width:.264583;stroke-linejoin:round"/><path d="M74.476 109.492h75.478M74.476 109.492l48.665-68.008" style="fill:#efa;stroke:#ccc;stroke-width:.264583;stroke-linejoin:round"/><circle cx="74.481" cy="109.608" r="22.81" style="fill:none;stroke:#ccc;stroke-width:.264583;stroke-linejoin:round"/><circle cx="74.481" cy="109.608" r="43.072" style="fill:none;stroke:#ccc;stroke-width:.264582;stroke-linejoin:round"/><path d="m74.476 109.492 35.358-72.299M74.476 109.492l70 12.325" style="fill:none;stroke:#ccc;stroke-width:.264583;stroke-linejoin:round"/><ellipse cx="111.052" cy="106.284" rx="3.26" ry="3.277" style="fill:none;stroke:#666;stroke-width:.264583;stroke-linejoin:round"/><path d="M105.74 45.894s5.602 2.909 8.462 4.887 5.82 4.606 8.582 7.032c2.762 2.425 5.39 4.417 7.985 7.509 2.596 3.091 5.344 7.5 7.271 11.084s3.58 6.857 4.41 10.25c.83 3.394 1.791 6.715 2.012 9.536.22 2.82.292 5.26.357 7.39.066 2.128-.119 5.601-.119 5.601" style="fill:none;stroke:purple;stroke-width:.264583;stroke-linejoin:round;marker-start:url(#a);marker-end:url(#a)"/><path d="M109.435 38.266s3.94 1.247 5.72 2.265c1.967 1.123 5.364 4.171 5.364 4.171" style="fill:none;stroke:purple;stroke-width:.264583;stroke-linejoin:round;marker-start:url(#a);marker-end:url(#a)"/><ellipse cx="97.334" cy="106.039" rx="3.26" ry="3.277" style="fill:none;stroke:#666;stroke-width:.264583;stroke-linejoin:round"/><path d="m77.76 91.325.686-3.834" style="fill:#668000;stroke:#803300;stroke-width:.264583;stroke-linejoin:round;marker-start:url(#a);marker-end:url(#a)"/><path d="m82.162 67.016.617-3.094" style="fill:#668000;stroke:#803300;stroke-width:.264583;stroke-linejoin:round;marker-start:url(#b);marker-end:url(#b)"/><path d="m109.793 99.162-1.846.92" style="fill:#668000;stroke:#f0f;stroke-width:.264583;stroke-linejoin:round;marker-start:url(#a)"/><path d="m111.57 98.276 3.595-1.854" style="fill:#668000;stroke:#f0f;stroke-width:.264583;stroke-linejoin:round;marker-start:url(#c)"/><path d="m93.468 110.958 4.323 1.07" style="fill:#668000;stroke:#00f;stroke-width:.264583;stroke-linejoin:round;marker-start:url(#a)"/><path d="m100.057 71.479-8.384-1.594" style="fill:#668000;stroke:#00f;stroke-width:.264583;stroke-linejoin:round;marker-start:url(#a)"/><path d="m102.484 92.944 29.472-12.084" style="fill:#668000;stroke:#00f;stroke-width:.264583;stroke-linejoin:round;marker-start:url(#a)"/><path d="m109.31 94.115 22.743-12.532" style="fill:#668000;stroke:#00f;stroke-width:.264583;stroke-linejoin:round;marker-start:url(#a)"/><text xml:space="preserve" style="font-size:16px;line-height:normal;font-family:&quot;Liberation Mono&quot;;-inkscape-font-specification:&quot;Liberation Mono&quot;;text-decoration-color:#000;white-space:pre;shape-inside:url(#d);display:inline;fill:#00f;stroke-width:1;-inkscape-stroke:none;stop-color:#000" transform="translate(-4.91 35.737)scale(.26458)"><tspan x="519.213" y="173.504">Nk</tspan></text><text xml:space="preserve" style="font-size:16px;line-height:normal;font-family:&quot;Liberation Mono&quot;;-inkscape-font-specification:&quot;Liberation Mono&quot;;text-decoration-color:#000;white-space:pre;shape-inside:url(#e);display:inline;fill:#f0f;stroke-width:1;-inkscape-stroke:none;stop-color:#000" transform="translate(67.809 79.029)scale(.26458)"><tspan x="173.885" y="81.358">Wk</tspan></text><text xml:space="preserve" style="font-size:16px;line-height:normal;font-family:&quot;Liberation Mono&quot;;-inkscape-font-specification:&quot;Liberation Mono&quot;;text-decoration-color:#000;white-space:pre;shape-inside:url(#f);display:inline;fill:#00f;stroke-width:1;-inkscape-stroke:none;stop-color:#000" transform="translate(51.716 91.2)scale(.26458)"><tspan x="174.334" y="84.512">Rrsi</tspan></text><text xml:space="preserve" style="font-size:16px;line-height:normal;font-family:&quot;Liberation Mono&quot;;-inkscape-font-specification:&quot;Liberation Mono&quot;;text-decoration-color:#000;white-space:pre;shape-inside:url(#g);display:inline;fill:#00f;stroke-width:1;-inkscape-stroke:none;stop-color:#000" transform="translate(40.475 49.282)scale(.26458)"><tspan x="154.514" y="82.258">Rrse</tspan></text><text xml:space="preserve" style="font-size:16px;line-height:normal;font-family:&quot;Liberation Mono&quot;;-inkscape-font-specification:&quot;Liberation Mono&quot;;text-decoration-color:#000;white-space:pre;shape-inside:url(#h);display:inline;fill:purple;stroke-width:1;-inkscape-stroke:none;stop-color:#000" transform="translate(-17.025 5.37)scale(.26458)"><tspan x="498.229" y="128.658">aEs</tspan></text><text xml:space="preserve" style="font-size:16px;line-height:normal;font-family:&quot;Liberation Mono&quot;;-inkscape-font-specification:&quot;Liberation Mono&quot;;text-decoration-color:#000;white-space:pre;shape-inside:url(#i);display:inline;fill:purple;stroke-width:1;-inkscape-stroke:none;stop-color:#000" transform="translate(.615 25.99)scale(.26458)"><tspan x="505.436" y="161.992">Ns</tspan></text><text xml:space="preserve" style="font-size:16px;line-height:normal;font-family:&quot;Liberation Mono&quot;;-inkscape-font-specification:&quot;Liberation Mono&quot;;text-decoration-color:#000;white-space:pre;shape-inside:url(#j);display:inline;fill:purple;stroke-width:1;-inkscape-stroke:none;stop-color:#000" transform="translate(30.293 65.441)scale(.26458)"><tspan x="148.658" y="94.422">Esi</tspan></text><text xml:space="preserve" style="font-size:16px;line-height:normal;font-family:&quot;Liberation Mono&quot;;-inkscape-font-specification:&quot;Liberation Mono&quot;;text-decoration-color:#000;white-space:pre;shape-inside:url(#k);display:inline;fill:purple;stroke-width:1;-inkscape-stroke:none;stop-color:#000" transform="translate(11.7 46.252)scale(.26458)"><tspan x="234.699" y="77.303">Ese</tspan></text><path d="m113.115 109.005 1.43 2.324" style="fill:purple;stroke:#999;stroke-width:.264583;stroke-linejoin:round;marker-start:url(#a)"/><text xml:space="preserve" style="font-size:16px;line-height:normal;font-family:&quot;Liberation Mono&quot;;-inkscape-font-specification:&quot;Liberation Mono&quot;;text-decoration-color:#000;white-space:pre;shape-inside:url(#l);display:inline;fill:#b3b3b3;stroke-width:1;-inkscape-stroke:none;stop-color:#000" transform="translate(68.777 91.603)scale(.26458)"><tspan x="165.326" y="86.764">Dk</tspan></text><path d="m101.236 95.143-3.692 1.779" style="fill:#b3b3b3;stroke:#b3b3b3;stroke-width:.264583;stroke-linejoin:round;marker-start:url(#a);marker-end:url(#a)"/><text xml:space="preserve" style="font-size:16px;line-height:normal;font-family:&quot;Liberation Mono&quot;;-inkscape-font-specification:&quot;Liberation Mono&quot;;text-decoration-color:#000;white-space:pre;shape-inside:url(#m);display:inline;fill:#b3b3b3;stroke-width:1;-inkscape-stroke:none;stop-color:#000" transform="translate(51.495 69.076)scale(.26458)"><tspan x="167.127" y="95.774">Ek</tspan></text><circle cx="74.481" cy="109.608" r="10.176" style="fill:none;stroke:green;stroke-width:.264583;stroke-linejoin:round"/><path d="m74.75 101.317-.118-3.457s-2.01.214-2.98.477c-.74.2-1.46.49-2.146.834-.67.336-1.31.737-1.907 1.192-.558.427-1.55 1.43-1.55 1.43l2.027 2.027s-.795.82-1.073 1.31c-.29.515-.42 1.105-.595 1.67-.231.745-.596 2.264-.596 2.264l-2.861.12s.036 1.592.12 2.383c.066.64.098 1.297.304 1.907.173.513.477.974.768 1.43.427.67 1.43 1.907 1.43 1.907l1.788-1.549s.917.843 1.43 1.192c.412.28.859.508 1.311.715.618.282 1.247.56 1.907.715.74.175 2.265.239 2.265.239l-.12 2.86s1.768-.04 2.623-.238c.87-.201 1.696-.572 2.503-.954.58-.274 1.133-.601 1.669-.953.664-.437 1.907-1.43 1.907-1.43l-1.788-2.027s.853-.992 1.192-1.55c.341-.561.652-1.155.834-1.787.266-.923.358-2.86.358-2.86l2.383.119s-.036-1.039-.119-1.55a12.173 12.173 0 0 0-1.311-3.814c-.343-.628-1.192-1.788-1.192-1.788l-1.788 1.61s-.54-.535-.834-.775c-.473-.388-.944-.797-1.49-1.073-.69-.35-1.439-.616-2.205-.715-.71-.093-2.145.119-2.145.119z" style="fill:none;stroke:#8a0;stroke-width:.264583;stroke-linejoin:round"/><path d="M76.504 158.812v6.236" style="fill:none;stroke:#d45500;stroke-width:.264583;stroke-linejoin:round;marker-start:url(#a)"/><path d="M76.592 155.303v-6.236" style="fill:none;stroke:#d45500;stroke-width:.264583;stroke-linejoin:round;marker-start:url(#n)"/><text xml:space="preserve" style="font-size:16px;line-height:normal;font-family:&quot;Liberation Mono&quot;;-inkscape-font-specification:&quot;Liberation Mono&quot;;text-decoration-color:#000;white-space:pre;shape-inside:url(#o);display:inline;fill:#d45500;stroke-width:1;-inkscape-stroke:none;stop-color:#000" transform="translate(15.823 25.145)scale(.26458)"><tspan x="231.258" y="472.928">Ee</tspan></text><path d="m122.689 134.54 11.293 8.259" style="fill:#d45500;stroke:#d45500;stroke-width:.264583;stroke-linejoin:round;marker-start:url(#a)"/><text xml:space="preserve" style="font-size:16px;line-height:normal;font-family:&quot;Liberation Mono&quot;;-inkscape-font-specification:&quot;Liberation Mono&quot;;text-decoration-color:#000;white-space:pre;shape-inside:url(#p);display:inline;fill:#d45500;stroke-width:1;-inkscape-stroke:none;stop-color:#000" transform="translate(15.991 -5.702)scale(.26458)"><tspan x="447.225" y="568.488">De</tspan></text><path d="m117.632 150.89 4.888 6.067" style="fill:#a40;stroke:#d45500;stroke-width:.264583;stroke-linejoin:round;marker-start:url(#a)"/><text xml:space="preserve" style="font-size:16px;line-height:normal;font-family:&quot;Liberation Mono&quot;;-inkscape-font-specification:&quot;Liberation Mono&quot;;text-decoration-color:#000;white-space:pre;shape-inside:url(#q);display:inline;fill:#d45500;stroke-width:1;-inkscape-stroke:none;stop-color:#000" transform="translate(10.43 5.929)scale(.26458)"><tspan x="421.742" y="585.053">DTe</tspan></text><path d="m81.73 165.048 28.317 2.36" style="fill:#a40;stroke:#d45500;stroke-width:.264583;stroke-linejoin:round;marker-start:url(#a)"/><path d="m113.587 152.238-1.012 12.642" style="fill:#a40;stroke:#d45500;stroke-width:.264583;stroke-linejoin:round;marker-start:url(#a)"/><text xml:space="preserve" style="font-size:16px;line-height:normal;font-family:&quot;Liberation Mono&quot;;-inkscape-font-specification:&quot;Liberation Mono&quot;;text-decoration-color:#000;white-space:pre;shape-inside:url(#r);display:inline;fill:#d45500;stroke-width:1;-inkscape-stroke:none;stop-color:#000" transform="translate(5.035 12.503)scale(.26458)"><tspan x="400.719" y="592.061">Ne</tspan></text><path d="M66.222 123.92 31.33 161.677" style="fill:#37abc8;stroke:#37abc8;stroke-width:.264583;stroke-linejoin:round;marker-start:url(#a)"/><path d="M30.488 159.654v21.07" style="fill:#37abc8;stroke:#37abc8;stroke-width:.264582;stroke-linejoin:round"/><text xml:space="preserve" style="font-size:16px;line-height:normal;font-family:&quot;Liberation Mono&quot;;-inkscape-font-specification:&quot;Liberation Mono&quot;;text-align:end;text-decoration-color:#000;white-space:pre;shape-inside:url(#s);display:inline;fill:#37abc8;stroke-width:1;-inkscape-stroke:none;stop-color:#000" transform="translate(.821 21.942)scale(.26458)"><tspan x="87.824" y="534.086">Di
</tspan><tspan x="87.824" y="554.086">Ni
</tspan><tspan x="78.223" y="574.086">DTi
</tspan><tspan x="87.824" y="594.086">Ei</tspan></text><path d="m72.627 120.38-27.643 53.433" style="fill:#3771c8;stroke:#3771c8;stroke-width:.264583;stroke-linejoin:round;marker-start:url(#a)"/><text xml:space="preserve" style="font-size:16px;line-height:normal;font-family:&quot;Liberation Mono&quot;;-inkscape-font-specification:&quot;Liberation Mono&quot;;text-decoration-color:#000;white-space:pre;shape-inside:url(#t);display:inline;fill:#2c5aa0;stroke-width:1;-inkscape-stroke:none;stop-color:#000" transform="translate(-4.4 22.78)scale(.26458)"><tspan x="174.557" y="605.44">Dt
</tspan><tspan x="174.557" y="625.44">Nt
</tspan><tspan x="174.557" y="645.44">Ht</tspan></text><path d="m12.115 157.652 7.753-9.44" style="fill:#3771c8;stroke:#d4aa00;stroke-width:.264583;stroke-linejoin:round;marker-end:url(#a)"/><text xml:space="preserve" style="font-size:16px;line-height:normal;font-family:&quot;Liberation Mono&quot;;-inkscape-font-specification:&quot;Liberation Mono&quot;;text-decoration-color:#000;white-space:pre;shape-inside:url(#u);display:inline;fill:#d4aa00;stroke-width:1;-inkscape-stroke:none;stop-color:#000" transform="translate(-4.067 -72.767)scale(.26458)"><tspan x="77.723" y="867.912">Th</tspan></text><path d="M50.49 176.012v25.432" style="fill:#3771c8;stroke:#3771c8;stroke-width:.264583;stroke-linejoin:round"/><text xml:space="preserve" style="font-size:16px;line-height:normal;font-family:&quot;Liberation Mono&quot;;-inkscape-font-specification:&quot;Liberation Mono&quot;;text-decoration-color:#000;white-space:pre;shape-inside:url(#v);display:inline;fill:#2c5aa0;stroke-width:1;-inkscape-stroke:none;stop-color:#000" transform="translate(5.439 19.766)scale(.26458)"><tspan x="174.557" y="605.44">ate
</tspan><tspan x="174.557" y="625.44">dh
</tspan><tspan x="174.557" y="645.44">ah
</tspan><tspan x="174.557" y="665.44">aeh
</tspan><tspan x="174.557" y="685.44">aM</tspan></text><path d="M63.222 176.021v25.433" style="fill:#3771c8;stroke:#3771c8;stroke-width:.264583;stroke-linejoin:round"/><text xml:space="preserve" style="font-size:16px;line-height:normal;font-family:&quot;Liberation Mono&quot;;-inkscape-font-specification:&quot;Liberation Mono&quot;;text-decoration-color:#000;white-space:pre;shape-inside:url(#w);display:inline;fill:#2c5aa0;stroke-width:1;-inkscape-stroke:none;stop-color:#000" transform="translate(18.17 22.421)scale(.26458)"><tspan x="174.557" y="605.44">SnAde
</tspan><tspan x="174.557" y="625.44">SnAae
</tspan><tspan x="174.557" y="645.44">Rde
</tspan><tspan x="174.557" y="665.44">Rae</tspan></text><path d="M40.77 174.672h38.263v28.486H40.77z" style="fill:none;stroke:#2c5aa0;stroke-width:.264583;stroke-linejoin:round"/><text xml:space="preserve" style="font-size:16px;line-height:normal;font-family:&quot;Liberation Mono&quot;;-inkscape-font-specification:&quot;Liberation Mono&quot;;text-decoration-color:#000;white-space:pre;shape-inside:url(#x);display:inline;fill:#2c5aa0;stroke-width:1;-inkscape-stroke:none;stop-color:#000" transform="translate(-.696 .556)scale(.26458)"><tspan x="324.344" y="708.873">Teeth: [On, Off]</tspan></text><ellipse cx="94.755" cy="86.873" rx="3.26" ry="3.277" style="fill:none;stroke:#666;stroke-width:.264583;stroke-linejoin:round"/><ellipse cx="102.071" cy="76.629" rx="3.26" ry="3.277" style="fill:none;stroke:#666;stroke-width:.264583;stroke-linejoin:round"/><text xml:space="preserve" style="font-size:16px;line-height:normal;font-family:&quot;Liberation Mono&quot;;-inkscape-font-specification:&quot;Liberation Mono&quot;;text-decoration-color:#000;white-space:pre;shape-inside:url(#y);fill:navy;stroke-width:1;-inkscape-stroke:none;stop-color:#000" transform="translate(-26.58 1.192)scale(.26458)"><tspan x="261.277" y="529.582">zig:[<tspan style="font-weight:700;-inkscape-font-specification:&quot;Liberation Mono Bold&quot;">alt</tspan>,one,two]</tspan></text><path d="m72.944 138.736 8.581-11.204" style="fill:navy;stroke:navy;stroke-width:.264583;stroke-linejoin:round;marker-end:url(#a)"/><text xml:space="preserve" style="font-size:16px;line-height:normal;font-family:&quot;Liberation Mono&quot;;-inkscape-font-specification:&quot;Liberation Mono&quot;;text-decoration-color:#000;white-space:pre;shape-inside:url(#z);fill:navy;stroke-width:1;-inkscape-stroke:none;stop-color:#000" transform="translate(0 3.695)scale(.26458)"><tspan x="152.262" y="148.027">zag:[<tspan style="font-weight:700;-inkscape-font-specification:&quot;Liberation Mono Bold&quot;">stroke</tspan>,arc]</tspan></text><path d="m60.19 43.742 7.628 29.32" style="fill:navy;stroke:navy;stroke-width:.264583;stroke-linejoin:round;marker-end:url(#a)"/></g></svg>