<svg xmlns="http://www.w3.org/2000/svg" width="545.177" height="228.942" viewBox="0 0 144.245 60.574"><defs><marker id="j" markerHeight="1" markerWidth="1" orient="auto-start-reverse" preserveAspectRatio="xMidYMid" refX="0" refY="0" style="overflow:visible" viewBox="0 0 1 1"><path d="M3-3 0 0l3 3" style="fill:none;stroke:context-stroke;stroke-width:1;stroke-linecap:round" transform="rotate(180 .125 0)"/></marker><marker id="a" markerHeight="1" markerWidth="1" orient="auto-start-reverse" preserveAspectRatio="xMidYMid" refX="0" refY="0" style="overflow:visible" viewBox="0 0 1 1"><path d="M3-3 0 0l3 3" style="fill:none;stroke:context-stroke;stroke-width:1;stroke-linecap:round" transform="rotate(180 .125 0)"/></marker><marker id="c" markerHeight="1" markerWidth="1" orient="auto-start-reverse" preserveAspectRatio="xMidYMid" refX="0" refY="0" style="overflow:visible" viewBox="0 0 1 1"><path d="M3-3 0 0l3 3" style="fill:none;stroke:context-stroke;stroke-width:1;stroke-linecap:round" transform="rotate(180 .125 0)"/></marker><marker id="d" markerHeight="1" markerWidth="1" orient="auto-start-reverse" preserveAspectRatio="xMidYMid" refX="0" refY="0" style="overflow:visible" viewBox="0 0 1 1"><path d="M3-3 0 0l3 3" style="fill:none;stroke:context-stroke;stroke-width:1;stroke-linecap:round" transform="rotate(180 .125 0)"/></marker><marker id="f" markerHeight="1" markerWidth="1" orient="auto-start-reverse" preserveAspectRatio="xMidYMid" refX="0" refY="0" style="overflow:visible" viewBox="0 0 1 1"><path d="M3-3 0 0l3 3" style="fill:none;stroke:context-stroke;stroke-width:1;stroke-linecap:round" transform="rotate(180 .125 0)"/></marker><marker id="g" markerHeight="1" markerWidth="1" orient="auto-start-reverse" preserveAspectRatio="xMidYMid" refX="0" refY="0" style="overflow:visible" viewBox="0 0 1 1"><path d="M3-3 0 0l3 3" style="fill:none;stroke:context-stroke;stroke-width:1;stroke-linecap:round" transform="rotate(180 .125 0)"/></marker><marker id="k" markerHeight="1" markerWidth="1" orient="auto-start-reverse" preserveAspectRatio="xMidYMid" refX="0" refY="0" style="overflow:visible" viewBox="0 0 1 1"><path d="M3-3 0 0l3 3" style="fill:none;stroke:context-stroke;stroke-width:1;stroke-linecap:round" transform="rotate(180 .125 0)"/></marker><marker id="l" markerHeight="1" markerWidth="1" orient="auto-start-reverse" preserveAspectRatio="xMidYMid" refX="0" refY="0" style="overflow:visible" viewBox="0 0 1 1"><path d="M3-3 0 0l3 3" style="fill:none;stroke:context-stroke;stroke-width:1;stroke-linecap:round" transform="rotate(180 .125 0)"/></marker><marker id="n" markerHeight="1" markerWidth="1" orient="auto-start-reverse" preserveAspectRatio="xMidYMid" refX="0" refY="0" style="overflow:visible" viewBox="0 0 1 1"><path d="M3-3 0 0l3 3" style="fill:none;stroke:context-stroke;stroke-width:1;stroke-linecap:round" transform="rotate(180 .125 0)"/></marker><marker id="p" markerHeight="1" markerWidth="1" orient="auto-start-reverse" preserveAspectRatio="xMidYMid" refX="0" refY="0" style="overflow:visible" viewBox="0 0 1 1"><path d="M3-3 0 0l3 3" style="fill:none;stroke:context-stroke;stroke-width:1;stroke-linecap:round" transform="rotate(180 .125 0)"/></marker><marker id="q" markerHeight="1" markerWidth="1" orient="auto-start-reverse" preserveAspectRatio="xMidYMid" refX="0" refY="0" style="overflow:visible" viewBox="0 0 1 1"><path d="M3-3 0 0l3 3" style="fill:none;stroke:context-stroke;stroke-width:1;stroke-linecap:round" transform="rotate(180 .125 0)"/></marker><path id="r" d="M21.623 797.796h64.418v28.831H21.623z"/><path id="o" d="M495.323 614.774h62.114v22.616h-62.114z"/><path id="i" d="M358.671 530.043h107.028v64.344H358.671z"/><path id="b" d="M253.619 424.8h45.782v26.128h-45.782z"/><path id="e" d="M184.751 416.963h54.456v21.911h-54.456z"/><path id="h" d="M184.751 416.963h39.18v22.935h-39.18z"/><path id="m" d="M358.671 530.043h107.028v64.344H358.671z"/><path id="s" d="M21.623 797.796h64.418v28.831H21.623z"/></defs><g transform="translate(-4.159 -150.284)"><path d="M4.291 150.416h143.98v60.31H4.291z" style="fill:#fff;stroke:#fff;stroke-width:.264583;stroke-linejoin:round;stroke-dasharray:none"/><rect width="100.124" height="25.802" x="26.801" y="170.531" ry="0" style="fill:#d7eef4;stroke:#5fbcd3;stroke-width:.264583;stroke-linejoin:round;stroke-dasharray:none"/><rect width="29.092" height="6.668" x="29.929" y="189.768" ry="1.846" style="fill:#fff;stroke:#5fbcd3;stroke-width:.264583;stroke-linejoin:round"/><rect width="29.092" height="6.668" x="62.542" y="189.645" ry="1.846" style="fill:#fff;stroke:#5fbcd3;stroke-width:.264583;stroke-linejoin:round"/><rect width="29.092" height="6.668" x="94.37" y="189.606" ry="1.846" style="fill:#fff;stroke:#5fbcd3;stroke-width:.264583;stroke-linejoin:round"/><rect width="29.092" height="6.668" x="45.85" y="180.229" ry="1.846" style="fill:#fff;stroke:#5fbcd3;stroke-width:.264583;stroke-linejoin:round"/><rect width="29.092" height="6.668" x="78.338" y="180.399" ry="1.846" style="fill:#fff;stroke:#5fbcd3;stroke-width:.264583;stroke-linejoin:round"/><rect width="12.524" height="6.668" x="29.929" y="180.229" ry="1.846" style="fill:#fff;stroke:#5fbcd3;stroke-width:.264583;stroke-linejoin:round"/><rect width="12.524" height="6.668" x="110.783" y="180.098" ry="1.846" style="fill:#fff;stroke:#5fbcd3;stroke-width:.264583;stroke-linejoin:round"/><rect width="29.092" height="6.668" x="29.915" y="170.503" ry="1.846" style="fill:#fff;stroke:#5fbcd3;stroke-width:.264583;stroke-linejoin:round"/><rect width="29.092" height="6.668" x="62.635" y="170.487" ry="1.846" style="fill:#fff;stroke:#5fbcd3;stroke-width:.264583;stroke-linejoin:round"/><rect width="29.092" height="6.668" x="94.463" y="170.448" ry="1.846" style="fill:#fff;stroke:#5fbcd3;stroke-width:.264583;stroke-linejoin:round"/><path d="M26.8 196.333v8.046M126.925 196.466v8.045" style="fill:purple;stroke:#ccc;stroke-width:.264582;stroke-linejoin:round"/><path d="M27.251 203.453h99.674" style="fill:purple;stroke:purple;stroke-width:.264583;stroke-linejoin:round;marker-start:url(#a);marker-end:url(#a)"/><text xml:space="preserve" style="font-size:16px;line-height:normal;font-family:&quot;Liberation Mono&quot;;-inkscape-font-specification:&quot;Liberation Mono&quot;;text-decoration-color:#000;white-space:pre;shape-inside:url(#b);display:inline;fill:purple;stroke-width:1;-inkscape-stroke:none;stop-color:#000" transform="translate(8.42 91.454)scale(.26458)"><tspan x="253.619" y="439.037">L1</tspan></text><path d="M26.8 162.354v8.045M29.915 162.354v11.483M59.179 162.354v11.483M62.396 162.337v11.484" style="fill:purple;stroke:#ccc;stroke-width:.264582;stroke-linejoin:round"/><path d="M35.136 162.711h-4.804" style="fill:#2c89a0;stroke:#5fbcd3;stroke-width:.264583;stroke-linejoin:round;stroke-dasharray:none;marker-end:url(#c)"/><path d="M21.759 162.77h4.803" style="fill:#2c89a0;stroke:#5fbcd3;stroke-width:.264583;stroke-linejoin:round;stroke-dasharray:none;marker-end:url(#d)"/><text xml:space="preserve" style="font-size:16px;line-height:normal;font-family:&quot;Liberation Mono&quot;;-inkscape-font-specification:&quot;Liberation Mono&quot;;text-decoration-color:#000;white-space:pre;shape-inside:url(#e);display:inline;fill:#2c89a0;stroke-width:1;-inkscape-stroke:none;stop-color:#000" transform="translate(-17.573 47.58)scale(.26458)"><tspan x="184.75" y="431.199">smExS</tspan></text><path d="M67.494 162.713H62.69" style="fill:#2c89a0;stroke:#5fbcd3;stroke-width:.264583;stroke-linejoin:round;stroke-dasharray:none;marker-end:url(#f)"/><path d="M54.116 162.772h4.804" style="fill:#2c89a0;stroke:#5fbcd3;stroke-width:.264583;stroke-linejoin:round;stroke-dasharray:none;marker-end:url(#g)"/><text xml:space="preserve" style="font-size:16px;line-height:normal;font-family:&quot;Liberation Mono&quot;;-inkscape-font-specification:&quot;Liberation Mono&quot;;text-decoration-color:#000;white-space:pre;shape-inside:url(#h);display:inline;fill:#2c89a0;stroke-width:1;-inkscape-stroke:none;stop-color:#000" transform="translate(14.785 47.581)scale(.26458)"><tspan x="184.75" y="431.199">smEx</tspan></text><text xml:space="preserve" style="font-size:16px;line-height:normal;font-family:&quot;Liberation Mono&quot;;-inkscape-font-specification:&quot;Liberation Mono&quot;;text-decoration-color:#000;white-space:pre;shape-inside:url(#i);display:inline;fill:#2c89a0;stroke-width:1;-inkscape-stroke:none;stop-color:#000" transform="translate(-10.62 12.136)scale(.26458)"><tspan x="358.672" y="544.279">sNx=2</tspan></text><path d="m86.302 157.265-22.755 12.136" style="fill:#2c89a0;stroke:#5fbcd3;stroke-width:.264583;stroke-linejoin:round;stroke-dasharray:none;marker-end:url(#j)"/><path d="M87.988 157.096 92.2 169.57" style="fill:#2c89a0;stroke:#5fbcd3;stroke-width:.264583;stroke-linejoin:round;stroke-dasharray:none;marker-end:url(#j)"/><path d="m133 179.694-10.787-.674" style="fill:#2c89a0;stroke:#5fbcd3;stroke-width:.264583;stroke-linejoin:round;stroke-dasharray:none;marker-end:url(#k)"/><path d="m132.553 181.922-10.451 6.068" style="fill:#2c89a0;stroke:#5fbcd3;stroke-width:.264583;stroke-linejoin:round;stroke-dasharray:none;marker-end:url(#l)"/><text xml:space="preserve" style="font-size:16px;line-height:normal;font-family:&quot;Liberation Mono&quot;;-inkscape-font-specification:&quot;Liberation Mono&quot;;text-decoration-color:#000;white-space:pre;shape-inside:url(#m);display:inline;fill:#999;stroke-width:1;-inkscape-stroke:none;stop-color:#000" transform="translate(38.45 37.779)scale(.26458)"><tspan x="358.672" y="544.279">sNy=2</tspan></text><path d="M120.864 177.081h17.13M120.656 170.526h17.13M123.547 172.445h9.292M123.664 175.297h9.292" style="fill:purple;stroke:#ccc;stroke-width:.264581;stroke-linejoin:round"/><path d="M132.571 172.688v2.276" style="fill:#2c89a0;stroke:#2c89a0;stroke-width:.264583;stroke-linejoin:round;stroke-dasharray:none;marker-start:url(#j);marker-end:url(#j)"/><path d="M134.323 170.638v6.14" style="fill:#2c89a0;stroke:#2c89a0;stroke-width:.264582;stroke-linejoin:round;stroke-dasharray:none;marker-start:url(#n);marker-end:url(#n)"/><text xml:space="preserve" style="font-size:16px;line-height:normal;font-family:&quot;Liberation Mono&quot;;-inkscape-font-specification:&quot;Liberation Mono&quot;;text-decoration-color:#000;white-space:pre;shape-inside:url(#o);display:inline;fill:#2c89a0;stroke-width:1;-inkscape-stroke:none;stop-color:#000" transform="translate(4.13 8.85)scale(.26458)"><tspan x="495.322" y="629.01">shPr</tspan></text><path d="M15.003 196.331h17.13" style="fill:purple;stroke:#ccc;stroke-width:.264581;stroke-linejoin:round"/><path d="M9.873 189.742h22.38M16.704 186.891h15.368" style="fill:purple;stroke:#ccc;stroke-width:.26458;stroke-linejoin:round"/><path d="M20.732 190.143v6.14" style="fill:#2c89a0;stroke:#2c89a0;stroke-width:.264582;stroke-linejoin:round;stroke-dasharray:none;marker-start:url(#p);marker-end:url(#p)"/><path d="M17.83 187.014v2.518" style="fill:#2c89a0;stroke:#2c89a0;stroke-width:.264582;stroke-linejoin:round;stroke-dasharray:none;marker-start:url(#q);marker-end:url(#q)"/><text xml:space="preserve" style="font-size:16px;line-height:normal;font-family:&quot;Liberation Mono&quot;;-inkscape-font-specification:&quot;Liberation Mono&quot;;text-decoration-color:#000;white-space:pre;shape-inside:url(#r);display:inline;fill:#2c89a0;stroke-width:1;-inkscape-stroke:none;stop-color:#000" transform="translate(3.652 -20.62)scale(.26458)"><tspan x="21.623" y="812.031">shEy</tspan></text><text xml:space="preserve" style="font-size:16px;line-height:normal;font-family:&quot;Liberation Mono&quot;;-inkscape-font-specification:&quot;Liberation Mono&quot;;text-decoration-color:#000;white-space:pre;shape-inside:url(#s);display:inline;fill:#2c89a0;stroke-width:1;-inkscape-stroke:none;stop-color:#000" transform="translate(1.077 -26.574)scale(.26458)"><tspan x="21.623" y="812.031">smEy</tspan></text></g></svg>