<svg xmlns="http://www.w3.org/2000/svg" width="390.616" height="345.408" viewBox="0 0 103.35 91.389"><defs><path id="F" d="M388.5 1799H440v34h-51.5z"/><path id="E" d="M299.5 1793.5h63v34h-63z"/><path id="D" d="M193 1798h73v28.5h-73z"/><path id="C" d="M111 1790.5h46v31.5h-46z"/><path id="v" d="M348.242 1801.001h35v31.466h-35z"/><path id="d" d="M483.696 300.698h38.702v25.324h-38.702z"/><path id="f" d="M220.745 1209.798H278.4v30.579h-57.655z"/><path id="i" d="M483.696 300.698h38.702v25.324h-38.702z"/><path id="k" d="M220.745 1209.798H278.4v30.579h-57.655z"/><path id="l" d="M106.313 440.792h38.065v28.38h-38.065z"/><path id="m" d="M106.313 440.792h38.065v28.38h-38.065z"/><path id="o" d="M106.313 440.792h38.065v28.38h-38.065z"/><path id="q" d="M220.745 1209.798H278.4v30.579h-57.655z"/><path id="s" d="M220.745 1209.798H278.4v30.579h-57.655z"/><path id="x" d="M267.584 418.944h37.39v31.984h-37.39z"/><path id="y" d="M93.649 286.682h38.224v35.676H93.649z"/><path id="A" d="M528.41 400.7h85.133v81.203H528.41z"/><marker id="g" markerHeight="1" markerWidth="1" orient="auto-start-reverse" preserveAspectRatio="xMidYMid" refX="0" refY="0" style="overflow:visible" viewBox="0 0 1 1"><path d="M3-3 0 0l3 3" style="fill:none;stroke:context-stroke;stroke-width:1;stroke-linecap:round" transform="rotate(180 .125 0)"/></marker><marker id="a" markerHeight="1" markerWidth="1" orient="auto-start-reverse" preserveAspectRatio="xMidYMid" refX="0" refY="0" style="overflow:visible" viewBox="0 0 1 1"><path d="M3-3 0 0l3 3" style="fill:none;stroke:context-stroke;stroke-width:1;stroke-linecap:round" transform="rotate(180 .125 0)"/></marker><marker id="b" markerHeight="1" markerWidth="1" orient="auto-start-reverse" preserveAspectRatio="xMidYMid" refX="0" refY="0" style="overflow:visible" viewBox="0 0 1 1"><path d="M3-3 0 0l3 3" style="fill:none;stroke:context-stroke;stroke-width:1;stroke-linecap:round" transform="rotate(180 .125 0)"/></marker><marker id="c" markerHeight="1" markerWidth="1" orient="auto-start-reverse" preserveAspectRatio="xMidYMid" refX="0" refY="0" style="overflow:visible" viewBox="0 0 1 1"><path d="M3-3 0 0l3 3" style="fill:none;stroke:context-stroke;stroke-width:1;stroke-linecap:round" transform="rotate(180 .125 0)"/></marker><marker id="e" markerHeight="1" markerWidth="1" orient="auto-start-reverse" preserveAspectRatio="xMidYMid" refX="0" refY="0" style="overflow:visible" viewBox="0 0 1 1"><path d="M3-3 0 0l3 3" style="fill:none;stroke:context-stroke;stroke-width:1;stroke-linecap:round" transform="rotate(180 .125 0)"/></marker><marker id="j" markerHeight="1" markerWidth="1" orient="auto-start-reverse" preserveAspectRatio="xMidYMid" refX="0" refY="0" style="overflow:visible" viewBox="0 0 1 1"><path d="M3-3 0 0l3 3" style="fill:none;stroke:context-stroke;stroke-width:1;stroke-linecap:round" transform="rotate(180 .125 0)"/></marker><marker id="n" markerHeight="1" markerWidth="1" orient="auto-start-reverse" preserveAspectRatio="xMidYMid" refX="0" refY="0" style="overflow:visible" viewBox="0 0 1 1"><path d="M3-3 0 0l3 3" style="fill:none;stroke:context-stroke;stroke-width:1;stroke-linecap:round" transform="rotate(180 .125 0)"/></marker><marker id="p" markerHeight="1" markerWidth="1" orient="auto-start-reverse" preserveAspectRatio="xMidYMid" refX="0" refY="0" style="overflow:visible" viewBox="0 0 1 1"><path d="M3-3 0 0l3 3" style="fill:none;stroke:context-stroke;stroke-width:1;stroke-linecap:round" transform="rotate(180 .125 0)"/></marker><marker id="r" markerHeight="1" markerWidth="1" orient="auto-start-reverse" preserveAspectRatio="xMidYMid" refX="0" refY="0" style="overflow:visible" viewBox="0 0 1 1"><path d="M3-3 0 0l3 3" style="fill:none;stroke:context-stroke;stroke-width:1;stroke-linecap:round" transform="rotate(180 .125 0)"/></marker><marker id="t" markerHeight="1" markerWidth="1" orient="auto-start-reverse" preserveAspectRatio="xMidYMid" refX="0" refY="0" style="overflow:visible" viewBox="0 0 1 1"><path d="M3-3 0 0l3 3" style="fill:none;stroke:context-stroke;stroke-width:1;stroke-linecap:round" transform="rotate(180 .125 0)"/></marker><marker id="u" markerHeight="1" markerWidth="1" orient="auto-start-reverse" preserveAspectRatio="xMidYMid" refX="0" refY="0" style="overflow:visible" viewBox="0 0 1 1"><path d="M3-3 0 0l3 3" style="fill:none;stroke:context-stroke;stroke-width:1;stroke-linecap:round" transform="rotate(180 .125 0)"/></marker><marker id="w" markerHeight="1" markerWidth="1" orient="auto-start-reverse" preserveAspectRatio="xMidYMid" refX="0" refY="0" style="overflow:visible" viewBox="0 0 1 1"><path d="M3-3 0 0l3 3" style="fill:none;stroke:context-stroke;stroke-width:1;stroke-linecap:round" transform="rotate(180 .125 0)"/></marker><marker id="z" markerHeight="1" markerWidth="1" orient="auto-start-reverse" preserveAspectRatio="xMidYMid" refX="0" refY="0" style="overflow:visible" viewBox="0 0 1 1"><path d="M3-3 0 0l3 3" style="fill:none;stroke:context-stroke;stroke-width:1;stroke-linecap:round" transform="rotate(180 .125 0)"/></marker><marker id="B" markerHeight="1" markerWidth="1" orient="auto-start-reverse" preserveAspectRatio="xMidYMid" refX="0" refY="0" style="overflow:visible" viewBox="0 0 1 1"><path d="M3-3 0 0l3 3" style="fill:none;stroke:context-stroke;stroke-width:1;stroke-linecap:round" transform="rotate(180 .125 0)"/></marker><marker id="G" markerHeight="1" markerWidth="1" orient="auto-start-reverse" preserveAspectRatio="xMidYMid" refX="0" refY="0" style="overflow:visible" viewBox="0 0 1 1"><path d="M3-3 0 0l3 3" style="fill:none;stroke:context-stroke;stroke-width:1;stroke-linecap:round" transform="rotate(180 .125 0)"/></marker><marker id="H" markerHeight="1" markerWidth="1" orient="auto-start-reverse" preserveAspectRatio="xMidYMid" refX="0" refY="0" style="overflow:visible" viewBox="0 0 1 1"><path d="M3-3 0 0l3 3" style="fill:none;stroke:context-stroke;stroke-width:1;stroke-linecap:round" transform="rotate(180 .125 0)"/></marker></defs><g transform="translate(-18.202 -376.839)"><path d="M18.335 376.971h103.086v91.125H18.335z" style="fill:#fff;stroke:#fff;stroke-width:.264583;stroke-linejoin:round;stroke-dasharray:none"/><path d="M-446.041 107.382h31.32v5.55h-31.32z" style="fill:none;stroke:#b3b3b3;stroke-width:.264585;stroke-linejoin:round" transform="rotate(-90)"/><path d="M-99.209-422.179h44.978v5.55h-44.978z" style="fill:none;stroke:#b3b3b3;stroke-width:.264585;stroke-linejoin:round" transform="scale(-1)"/><path d="M54.232 438.583H99.21v5.55H54.232z" style="fill:none;stroke:#b3b3b3;stroke-width:.264585;stroke-linejoin:round"/><path d="M-419.747 67.309h3.117v18.823h-3.117z" style="fill:none;stroke:#fea;stroke-width:.264583;stroke-linejoin:round" transform="rotate(-90)"/><path d="M-99.209-419.747h44.978v3.117h-44.978z" style="fill:none;stroke:#d4aa00;stroke-width:.264584;stroke-linejoin:round" transform="scale(-1)"/><path d="M441.016-86.132h3.117v18.823h-3.117z" style="fill:none;stroke:#fea;stroke-width:.264583;stroke-linejoin:round" transform="rotate(90)"/><path d="M54.232 441.016H99.21v3.117H54.232z" style="fill:none;stroke:#d4aa00;stroke-width:.264584;stroke-linejoin:round"/><path d="M-101.267-438.583h49.094v16.404h-49.094z" style="fill:none;stroke:#d4aa00;stroke-width:.264585;stroke-linejoin:round" transform="scale(-1)"/><path d="M-446.041 101.267h31.32v6.115h-31.32z" style="fill:none;stroke:#d4aa00;stroke-width:.264585;stroke-linejoin:round" transform="rotate(-90)"/><path d="M-446.041 109.814h31.32v3.117h-31.32z" style="fill:none;stroke:#d4aa00;stroke-width:.264584;stroke-linejoin:round" transform="rotate(-90)"/><path d="M414.721-46.059h31.32v5.55h-31.32z" style="fill:none;stroke:#b3b3b3;stroke-width:.264585;stroke-linejoin:round" transform="rotate(90)"/><path d="M414.721-43.627h31.32v3.117h-31.32z" style="fill:none;stroke:#d4aa00;stroke-width:.264584;stroke-linejoin:round" transform="rotate(90)"/><path d="M-446.041 46.059h31.32v6.115h-31.32z" style="fill:none;stroke:#d4aa00;stroke-width:.264585;stroke-linejoin:round" transform="rotate(-90)"/><path d="M46.06 414.721h6.114v7.458h49.093v-7.458h6.115v31.32h-6.115v-7.458H52.174v7.458h-6.115z" style="fill:#fff;stroke:#d4aa00;stroke-width:.264583;stroke-linejoin:round"/><circle cx="49.116" cy="418.984" r="1.558" style="fill:none;stroke:#d4aa00;stroke-width:.264583;stroke-linejoin:round"/><path d="M49.116 403.281v15.673M104.324 403.281v15.673" style="fill:purple;stroke:#ccc;stroke-width:.264582;stroke-linejoin:round"/><circle cx="104.324" cy="418.925" r="1.558" style="fill:none;stroke:#d4aa00;stroke-width:.264583;stroke-linejoin:round"/><path d="M49.236 403.281h54.765" style="fill:purple;stroke:#00f;stroke-width:.264582;stroke-linejoin:round;marker-start:url(#a);marker-end:url(#a)"/><path d="M106.307 410.628h3.202" style="fill:purple;stroke:#4a0;stroke-width:.264583;stroke-linejoin:round;marker-end:url(#b)"/><path d="M109.814 414.589v-3.993M112.931 414.589v-3.993" style="fill:purple;stroke:#ccc;stroke-width:.264583;stroke-linejoin:round"/><path d="M118.022 410.722h-4.711" style="fill:purple;stroke:#4a0;stroke-width:.264583;stroke-linejoin:round;marker-end:url(#c)"/><text xml:space="preserve" style="font-size:16px;line-height:normal;font-family:&quot;Liberation Mono&quot;;-inkscape-font-specification:&quot;Liberation Mono&quot;;text-decoration-color:#000;white-space:pre;shape-inside:url(#d);display:inline;fill:#4a0;stroke-width:1;-inkscape-stroke:none;stop-color:#000" transform="translate(-19.18 325.274)scale(.26458)"><tspan x="483.697" y="314.934">Th</tspan></text><path d="M91.213 422.557v15.769" style="fill:purple;stroke:purple;stroke-width:.264583;stroke-linejoin:round;marker-start:url(#e);marker-end:url(#e)"/><text xml:space="preserve" style="font-size:16px;line-height:normal;font-family:&quot;Liberation Mono&quot;;-inkscape-font-specification:&quot;Liberation Mono&quot;;text-decoration-color:#000;white-space:pre;shape-inside:url(#f);display:inline;fill:purple;stroke-width:1;-inkscape-stroke:none;stop-color:#000" transform="translate(33.819 107.916)scale(.26458)"><tspan x="220.746" y="1224.035">W1</tspan></text><circle cx="49.249" cy="441.588" r="1.558" style="fill:none;stroke:#d4aa00;stroke-width:.264583;stroke-linejoin:round"/><circle cx="104.457" cy="441.528" r="1.558" style="fill:none;stroke:#d4aa00;stroke-width:.264583;stroke-linejoin:round"/><path d="M56.449 416.849v2.679" style="fill:purple;stroke:#4a0;stroke-width:.264583;stroke-linejoin:round;stroke-dasharray:none;marker-start:url(#g);marker-end:url(#g-1-7-3-3-6-5)"/><text xml:space="preserve" style="font-size:16px;line-height:normal;font-family:&quot;Liberation Mono&quot;;-inkscape-font-specification:&quot;Liberation Mono&quot;;text-decoration-color:#000;white-space:pre;shape-inside:url(#i);display:inline;fill:#4a0;stroke-width:1;-inkscape-stroke:none;stop-color:#000" transform="translate(-73.662 332.796)scale(.26458)"><tspan x="483.697" y="314.934">Th</tspan></text><path d="M40.377 414.721H24.704M40.51 446.041H24.836" style="fill:purple;stroke:#ccc;stroke-width:.264582;stroke-linejoin:round"/><path d="M25.63 414.847v30.81" style="fill:purple;stroke:purple;stroke-width:.264584;stroke-linejoin:round;marker-start:url(#j);marker-end:url(#j)"/><text xml:space="preserve" style="font-size:16px;line-height:normal;font-family:&quot;Liberation Mono&quot;;-inkscape-font-specification:&quot;Liberation Mono&quot;;text-decoration-color:#000;white-space:pre;shape-inside:url(#k);display:inline;fill:purple;stroke-width:1;-inkscape-stroke:none;stop-color:#000" transform="translate(-38.578 107.976)scale(.26458)"><tspan x="220.746" y="1224.035">W3</tspan></text><text xml:space="preserve" style="font-size:16px;line-height:normal;font-family:&quot;Liberation Mono&quot;;-inkscape-font-specification:&quot;Liberation Mono&quot;;text-decoration-color:#000;white-space:pre;shape-inside:url(#l);display:inline;fill:#00f;stroke-width:1;-inkscape-stroke:none;stop-color:#000" transform="translate(46.38 281.962)scale(.26458)"><tspan x="106.313" y="455.029">P3</tspan></text><path d="M33.443 418.954h15.673M33.575 441.455H49.25" style="fill:purple;stroke:#ccc;stroke-width:.264582;stroke-linejoin:round"/><text xml:space="preserve" style="font-size:16px;line-height:normal;font-family:&quot;Liberation Mono&quot;;-inkscape-font-specification:&quot;Liberation Mono&quot;;text-decoration-color:#000;white-space:pre;shape-inside:url(#m);display:inline;fill:#00f;stroke-width:1;-inkscape-stroke:none;stop-color:#000" transform="translate(16.017 332.473)scale(.26458)"><tspan x="106.313" y="455.029">D3</tspan></text><path d="m48.065 443.587-1.216 6.361" style="fill:#fff;stroke:#00f;stroke-width:.264583;stroke-linejoin:round;stroke-dasharray:none;marker-start:url(#g)"/><path d="M33.575 419.336v21.742" style="fill:purple;stroke:#00f;stroke-width:.264582;stroke-linejoin:round;marker-start:url(#n);marker-end:url(#n)"/><text xml:space="preserve" style="font-size:16px;line-height:normal;font-family:&quot;Liberation Mono&quot;;-inkscape-font-specification:&quot;Liberation Mono&quot;;text-decoration-color:#000;white-space:pre;shape-inside:url(#o);display:inline;fill:#00f;stroke-width:1;-inkscape-stroke:none;stop-color:#000" transform="translate(.007 311.382)scale(.26458)"><tspan x="106.313" y="455.029">P4</tspan></text><path d="M54.232 444.133v15.673M99.21 444.133v17.548" style="fill:purple;stroke:#ccc;stroke-width:.264582;stroke-linejoin:round"/><path d="M54.613 459.806h44.273" style="fill:purple;stroke:purple;stroke-width:.264583;stroke-linejoin:round;marker-start:url(#p);marker-end:url(#p)"/><text xml:space="preserve" style="font-size:16px;line-height:normal;font-family:&quot;Liberation Mono&quot;;-inkscape-font-specification:&quot;Liberation Mono&quot;;text-decoration-color:#000;white-space:pre;shape-inside:url(#q);display:inline;fill:purple;stroke-width:1;-inkscape-stroke:none;stop-color:#000" transform="translate(16.008 139.905)scale(.26458)"><tspan x="220.746" y="1224.035">L1</tspan></text><path d="M107.382 446.041v15.674M101.267 446.174v11.463" style="fill:purple;stroke:#ccc;stroke-width:.264582;stroke-linejoin:round"/><path d="M99.467 459.806h7.656" style="fill:purple;stroke:purple;stroke-width:.264583;stroke-linejoin:round;marker-start:url(#r);marker-end:url(#r)"/><text xml:space="preserve" style="font-size:16px;line-height:normal;font-family:&quot;Liberation Mono&quot;;-inkscape-font-specification:&quot;Liberation Mono&quot;;text-decoration-color:#000;white-space:pre;shape-inside:url(#s);display:inline;fill:purple;stroke-width:1;-inkscape-stroke:none;stop-color:#000" transform="translate(42.504 140.753)scale(.26458)"><tspan x="220.746" y="1224.035">L2</tspan></text><path d="M104.855 454.551h-3.202" style="fill:purple;stroke:#4a0;stroke-width:.264583;stroke-linejoin:round;marker-end:url(#t)"/><path d="M95.754 454.551h3.202" style="fill:purple;stroke:#4a0;stroke-width:.264583;stroke-linejoin:round;marker-end:url(#u)"/><text xml:space="preserve" style="font-size:16px;line-height:normal;font-family:&quot;Liberation Mono&quot;;-inkscape-font-specification:&quot;Liberation Mono&quot;;text-decoration-color:#000;white-space:pre;shape-inside:url(#v);display:inline;fill:#4a0;stroke-width:1;-inkscape-stroke:none;stop-color:#000" transform="translate(-.824 -26.383)scale(.26458)"><tspan x="348.242" y="1815.236">E3</tspan></text><path d="M67.309 444.265v10.341M86.132 444.265v10.341" style="fill:purple;stroke:#ccc;stroke-width:.264582;stroke-linejoin:round"/><path d="M67.698 453.68h17.998" style="fill:purple;stroke:purple;stroke-width:.264582;stroke-linejoin:round;marker-start:url(#w);marker-end:url(#w)"/><text xml:space="preserve" style="font-size:16px;line-height:normal;font-family:&quot;Liberation Mono&quot;;-inkscape-font-specification:&quot;Liberation Mono&quot;;text-decoration-color:#000;white-space:pre;shape-inside:url(#x);display:inline;fill:purple;stroke-width:1;-inkscape-stroke:none;stop-color:#000" transform="translate(4.144 342.609)scale(.26458)"><tspan x="267.584" y="433.18">D1</tspan></text><text xml:space="preserve" style="font-size:16px;line-height:normal;font-family:&quot;Liberation Mono&quot;;-inkscape-font-specification:&quot;Liberation Mono&quot;;text-decoration-color:#000;white-space:pre;shape-inside:url(#y);display:inline;fill:#a40;stroke-width:1;-inkscape-stroke:none;stop-color:#000" transform="translate(30.17 349.819)scale(.26458)"><tspan x="93.65" y="300.918">Rc3</tspan></text><path d="m56.67 430.53-4.045 7.08" style="fill:#fff;stroke:#a40;stroke-width:.264583;stroke-linejoin:round;marker-end:url(#z)"/><path d="M26.556 379.931v20.524" style="fill:purple;stroke:#4a0;stroke-width:.264584;stroke-linejoin:round;stroke-dasharray:none"/><text xml:space="preserve" style="font-size:16px;line-height:normal;font-family:&quot;Liberation Mono&quot;;-inkscape-font-specification:&quot;Liberation Mono&quot;;text-decoration-color:#000;white-space:pre;shape-inside:url(#A);display:inline;fill:#4a0;stroke-width:1;-inkscape-stroke:none;stop-color:#000" transform="translate(-112.998 273.874)scale(.26458)"><tspan x="528.41" y="414.936">Jangle
</tspan><tspan x="528.41" y="434.936">Jradius
</tspan><tspan x="528.41" y="454.936">Jneutral
</tspan><tspan x="528.41" y="474.936">Jmark
</tspan></text><path d="M44.457 413.947 32.702 400.57" style="fill:#ccc;stroke:#4a0;stroke-width:.264583;stroke-linejoin:round;marker-start:url(#B)"/><text xml:space="preserve" style="font-size:16px;line-height:normal;font-family:&quot;Liberation Mono&quot;;-inkscape-font-specification:&quot;Liberation Mono&quot;;text-align:center;text-decoration-color:#000;white-space:pre;shape-inside:url(#C);fill:#000;stroke-width:1;-inkscape-stroke:none;stop-color:#000" transform="translate(37.306 -40.481)scale(.26458)"><tspan x="124.398" y="1804.736">J1</tspan></text><text xml:space="preserve" style="font-size:16px;line-height:normal;font-family:&quot;Liberation Mono&quot;;-inkscape-font-specification:&quot;Liberation Mono&quot;;text-align:center;text-decoration-color:#000;white-space:pre;shape-inside:url(#D);fill:#000;stroke-width:1;-inkscape-stroke:none;stop-color:#000" transform="translate(14.287 -53.181)scale(.26458)"><tspan x="219.898" y="1812.236">J2</tspan></text><text xml:space="preserve" style="font-size:16px;line-height:normal;font-family:&quot;Liberation Mono&quot;;-inkscape-font-specification:&quot;Liberation Mono&quot;;text-align:center;text-decoration-color:#000;white-space:pre;shape-inside:url(#E);fill:#000;stroke-width:1;-inkscape-stroke:none;stop-color:#000" transform="translate(-37.968 -46.699)scale(.26458)"><tspan x="321.398" y="1807.736">J3</tspan></text><text xml:space="preserve" style="font-size:16px;line-height:normal;font-family:&quot;Liberation Mono&quot;;-inkscape-font-specification:&quot;Liberation Mono&quot;;text-align:center;text-decoration-color:#000;white-space:pre;shape-inside:url(#F);fill:#000;stroke-width:1;-inkscape-stroke:none;stop-color:#000" transform="translate(-6.35 -47.89)scale(.26458)"><tspan x="404.648" y="1813.236">J4</tspan></text><path d="M72.893 437.489v2.116" style="fill:none;stroke:#000;stroke-width:.264583;stroke-linejoin:round;marker-end:url(#g)"/><path d="M74.877 423.201v-2.381" style="fill:none;stroke:#000;stroke-width:.264583;stroke-linejoin:round;marker-end:url(#g)"/><path d="M47.884 430.075h-2.5" style="fill:none;stroke:#000;stroke-width:.264583;stroke-linejoin:round;marker-end:url(#G)"/><path d="M105.833 430.61h2.501" style="fill:none;stroke:#000;stroke-width:.264583;stroke-linejoin:round;marker-end:url(#H)"/></g></svg>