<svg xmlns="http://www.w3.org/2000/svg" width="470.914" height="326.053" viewBox="0 0 124.596 86.268"><defs><marker id="b" markerHeight="1" markerWidth="1" orient="auto-start-reverse" preserveAspectRatio="xMidYMid" refX="0" refY="0" style="overflow:visible" viewBox="0 0 1 1"><path d="M3-3 0 0l3 3" style="fill:none;stroke:context-stroke;stroke-width:1;stroke-linecap:butt" transform="rotate(180 .125 0)"/></marker><marker id="c" markerHeight="1" markerWidth="1" orient="auto-start-reverse" preserveAspectRatio="xMidYMid" refX="0" refY="0" style="overflow:visible" viewBox="0 0 1 1"><path d="M3-3 0 0l3 3" style="fill:none;stroke:context-stroke;stroke-width:1;stroke-linecap:round" transform="rotate(180 .125 0)"/></marker><marker id="d" markerHeight="1" markerWidth="1" orient="auto-start-reverse" preserveAspectRatio="xMidYMid" refX="0" refY="0" style="overflow:visible" viewBox="0 0 1 1"><path d="M3-3 0 0l3 3" style="fill:none;stroke:context-stroke;stroke-width:1;stroke-linecap:butt" transform="rotate(180 .125 0)"/></marker><marker id="e" markerHeight="1" markerWidth="1" orient="auto-start-reverse" preserveAspectRatio="xMidYMid" refX="0" refY="0" style="overflow:visible" viewBox="0 0 1 1"><path d="M3-3 0 0l3 3" style="fill:none;stroke:context-stroke;stroke-width:1;stroke-linecap:round" transform="rotate(180 .125 0)"/></marker><marker id="f" markerHeight="1" markerWidth="1" orient="auto-start-reverse" preserveAspectRatio="xMidYMid" refX="0" refY="0" style="overflow:visible" viewBox="0 0 1 1"><path d="M3-3 0 0l3 3" style="fill:none;stroke:context-stroke;stroke-width:1;stroke-linecap:butt" transform="rotate(180 .125 0)"/></marker><marker id="g" markerHeight="1" markerWidth="1" orient="auto-start-reverse" preserveAspectRatio="xMidYMid" refX="0" refY="0" style="overflow:visible" viewBox="0 0 1 1"><path d="M3-3 0 0l3 3" style="fill:none;stroke:context-stroke;stroke-width:1;stroke-linecap:round" transform="rotate(180 .125 0)"/></marker><marker id="n" markerHeight="1" markerWidth="1" orient="auto-start-reverse" preserveAspectRatio="xMidYMid" refX="0" refY="0" style="overflow:visible" viewBox="0 0 1 1"><path d="M3-3 0 0l3 3" style="fill:none;stroke:context-stroke;stroke-width:1;stroke-linecap:butt" transform="rotate(180 .125 0)"/></marker><marker id="o" markerHeight="1" markerWidth="1" orient="auto-start-reverse" preserveAspectRatio="xMidYMid" refX="0" refY="0" style="overflow:visible" viewBox="0 0 1 1"><path d="M3-3 0 0l3 3" style="fill:none;stroke:context-stroke;stroke-width:1;stroke-linecap:round" transform="rotate(180 .125 0)"/></marker><marker id="q" markerHeight="1" markerWidth="1" orient="auto-start-reverse" preserveAspectRatio="xMidYMid" refX="0" refY="0" style="overflow:visible" viewBox="0 0 1 1"><path d="M3-3 0 0l3 3" style="fill:none;stroke:context-stroke;stroke-width:1;stroke-linecap:butt" transform="rotate(180 .125 0)"/></marker><marker id="r" markerHeight="1" markerWidth="1" orient="auto-start-reverse" preserveAspectRatio="xMidYMid" refX="0" refY="0" style="overflow:visible" viewBox="0 0 1 1"><path d="M3-3 0 0l3 3" style="fill:none;stroke:context-stroke;stroke-width:1;stroke-linecap:round" transform="rotate(180 .125 0)"/></marker><marker id="s" markerHeight="1" markerWidth="1" orient="auto-start-reverse" preserveAspectRatio="xMidYMid" refX="0" refY="0" style="overflow:visible" viewBox="0 0 1 1"><path d="M3-3 0 0l3 3" style="fill:none;stroke:context-stroke;stroke-width:1;stroke-linecap:butt" transform="rotate(180 .125 0)"/></marker><marker id="t" markerHeight="1" markerWidth="1" orient="auto-start-reverse" preserveAspectRatio="xMidYMid" refX="0" refY="0" style="overflow:visible" viewBox="0 0 1 1"><path d="M3-3 0 0l3 3" style="fill:none;stroke:context-stroke;stroke-width:1;stroke-linecap:round" transform="rotate(180 .125 0)"/></marker><marker id="x" markerHeight="1" markerWidth="1" orient="auto-start-reverse" preserveAspectRatio="xMidYMid" refX="0" refY="0" style="overflow:visible" viewBox="0 0 1 1"><path d="M3-3 0 0l3 3" style="fill:none;stroke:context-stroke;stroke-width:1;stroke-linecap:round" transform="rotate(180 .125 0)"/></marker><marker id="z" markerHeight="1" markerWidth="1" orient="auto-start-reverse" preserveAspectRatio="xMidYMid" refX="0" refY="0" style="overflow:visible" viewBox="0 0 1 1"><path d="M3-3 0 0l3 3" style="fill:none;stroke:context-stroke;stroke-width:1;stroke-linecap:round" transform="rotate(180 .125 0)"/></marker><path id="h" d="M267.584 418.944h37.39v31.984h-37.39z"/><path id="i" d="M208.459 417.142h37.587v30.632h-37.587z"/><path id="j" d="M208.459 417.142h37.587v30.632h-37.587z"/><path id="k" d="M400.474 168.407h34.687v30.704h-34.687z"/><path id="l" d="M253.619 424.8h45.782v26.128h-45.782z"/><path id="m" d="M528.41 400.7h85.133v81.203H528.41z"/><path id="p" d="M208.459 417.142h37.587v30.632h-37.587z"/><path id="u" d="M178.389 411.736h38.741v24.551h-38.741z"/><path id="v" d="M187.173 418.719h27.704v20.271h-27.704z"/><path id="w" d="M62.616 255.195h156.609v32.789H62.616z"/><path id="y" d="M179.74 295.063h119.602v113.52H179.74z"/><path id="A" d="M184.751 416.963h39.18v22.935h-39.18z"/><path id="a" d="M253.619 424.8h45.782v26.128h-45.782z"/></defs><g transform="translate(-21.193 -321.635)"><path d="M21.325 321.767h124.331v86.004H21.325z" style="fill:#fff;stroke:#fff;stroke-width:.264583;stroke-linejoin:round;stroke-dasharray:none"/><text xml:space="preserve" style="font-size:16px;line-height:normal;font-family:&quot;Liberation Mono&quot;;-inkscape-font-specification:&quot;Liberation Mono&quot;;text-decoration-color:#000;white-space:pre;shape-inside:url(#a);display:inline;fill:#666;stroke-width:1;-inkscape-stroke:none;stop-color:#000" transform="translate(5.115 290.042)scale(.26458)"><tspan x="253.619" y="439.037">Le</tspan></text><path d="M34.851 385.365h80.102v-4.608l-7.572-13.366H42.464l-7.745 13.366z" style="fill:#d7eef4;stroke:#5fbcd3;stroke-width:.264583;stroke-linejoin:round"/><path d="M115.373 395.085h13.116" style="fill:purple;stroke:#ccc;stroke-width:.264584;stroke-linejoin:round"/><path d="M60.357 363.393h14.48" style="fill:purple;stroke:#e6e6e6;stroke-width:.264583;stroke-linejoin:round"/><circle cx="74.836" cy="352.605" r="10.788" style="fill:none;stroke:#d4aa00;stroke-width:.264583;stroke-linejoin:round"/><circle cx="74.836" cy="352.605" r="20.733" style="fill:none;stroke:#e6e6e6;stroke-width:.264583;stroke-linejoin:round"/><path d="M34.719 380.757h80.234v14.327H34.719z" style="fill:none;stroke:#e6e6e6;stroke-width:.264583;stroke-linejoin:round"/><path d="M74.836 331.872h18.77" style="fill:purple;stroke:#e6e6e6;stroke-width:.264583;stroke-linejoin:round"/><path d="M34.72 395.085v-14.328l21.106-36.425s2.657-4.807 4.626-6.658c2.209-2.077 4.931-3.67 7.776-4.72 2.093-.774 4.376-1.077 6.608-1.082 2.179-.004 4.379.369 6.454 1.03 1.868.596 3.641 1.518 5.273 2.605 1.324.882 2.53 1.957 3.599 3.135 1.104 1.216 2.862 4.011 2.862 4.011l21.929 38.104v14.328z" style="fill:none;stroke:#d4aa00;stroke-width:.264583;stroke-linejoin:round"/><path d="M89.124 353.556v26.92" style="fill:none;stroke:teal;stroke-width:.264584;stroke-linejoin:round;marker-start:url(#b);marker-end:url(#c)"/><path d="M89.124 380.79v10.008" style="fill:none;stroke:teal;stroke-width:.264584;stroke-linejoin:round;marker-start:url(#d);marker-end:url(#e)"/><path d="M89.124 332.23v20.499" style="fill:none;stroke:teal;stroke-width:.264583;stroke-linejoin:round;marker-start:url(#f);marker-end:url(#g)"/><text xml:space="preserve" style="font-size:16px;line-height:normal;font-family:&quot;Liberation Mono&quot;;-inkscape-font-specification:&quot;Liberation Mono&quot;;text-decoration-color:#000;white-space:pre;shape-inside:url(#h);display:inline;fill:teal;stroke-width:1;-inkscape-stroke:none;stop-color:#000" transform="translate(18.917 224.364)scale(.26458)"><tspan x="267.584" y="433.18">R2</tspan></text><text xml:space="preserve" style="font-size:16px;line-height:normal;font-family:&quot;Liberation Mono&quot;;-inkscape-font-specification:&quot;Liberation Mono&quot;;text-decoration-color:#000;white-space:pre;shape-inside:url(#i);display:inline;fill:teal;stroke-width:1;-inkscape-stroke:none;stop-color:#000" transform="translate(34.322 274.99)scale(.26458)"><tspan x="208.459" y="431.379">H1</tspan></text><text xml:space="preserve" style="font-size:16px;line-height:normal;font-family:&quot;Liberation Mono&quot;;-inkscape-font-specification:&quot;Liberation Mono&quot;;text-decoration-color:#000;white-space:pre;shape-inside:url(#j);display:inline;fill:teal;stroke-width:1;-inkscape-stroke:none;stop-color:#000" transform="translate(34.56 252.329)scale(.26458)"><tspan x="208.459" y="431.379">H2</tspan></text><text xml:space="preserve" style="font-size:16px;line-height:normal;font-family:&quot;Liberation Mono&quot;;-inkscape-font-specification:&quot;Liberation Mono&quot;;text-decoration-color:#000;white-space:pre;shape-inside:url(#k);display:inline;fill:purple;stroke-width:1;-inkscape-stroke:none;stop-color:#000" transform="translate(-1.184 291.587)scale(.26458)"><tspan x="400.475" y="182.645">D1</tspan></text><path d="m105.61 340.574-19.786 8.7" style="fill:purple;stroke:purple;stroke-width:.264583;stroke-linejoin:round;marker-end:url(#c)"/><path d="M35.193 397.73h79.377" style="fill:#b3b3b3;stroke:#b3b3b3;stroke-width:.264583;stroke-linejoin:round;marker-start:url(#c);marker-end:url(#c)"/><rect width="8.284" height="2.086" x="62.015" y="383.283" ry="1.043" style="fill:#fff;stroke:#5fbcd3;stroke-width:.264583;stroke-linejoin:round"/><text xml:space="preserve" style="font-size:16px;line-height:normal;font-family:&quot;Liberation Mono&quot;;-inkscape-font-specification:&quot;Liberation Mono&quot;;text-decoration-color:#000;white-space:pre;shape-inside:url(#l);display:inline;fill:#666;stroke-width:1;-inkscape-stroke:none;stop-color:#000" transform="translate(5.05 285.985)scale(.26458)"><tspan x="253.619" y="439.037">Li</tspan></text><path d="M115.13 391.16h13.349" style="fill:purple;stroke:#ccc;stroke-width:.264583;stroke-linejoin:round"/><path d="m115.642 393.625 6.55-4.578 3.45-17.761" style="fill:none;stroke:#4a0;stroke-width:.264583;stroke-linejoin:round;stroke-dasharray:none;marker-start:url(#c)"/><path d="M122.72 350.128v20.524" style="fill:purple;stroke:#4a0;stroke-width:.264584;stroke-linejoin:round;stroke-dasharray:none"/><text xml:space="preserve" style="font-size:16px;line-height:normal;font-family:&quot;Liberation Mono&quot;;-inkscape-font-specification:&quot;Liberation Mono&quot;;text-decoration-color:#000;white-space:pre;shape-inside:url(#m);display:inline;fill:#4a0;stroke-width:1;-inkscape-stroke:none;stop-color:#000" transform="translate(-16.834 244.07)scale(.26458)"><tspan x="528.41" y="414.936"><tspan style="fill:#999">Jangle</tspan>
</tspan><tspan x="528.41" y="434.936">Jradius
</tspan><tspan x="528.41" y="454.936">Jneutral
</tspan><tspan x="528.41" y="474.936">Jmark
</tspan></text><path d="M34.719 391.125h80.234v3.96H34.719z" style="fill:none;stroke:#d4aa00;stroke-width:.264583;stroke-linejoin:round"/><path d="M74.836 330.143v64.942M74.836 353.144h18.77" style="fill:purple;stroke:#e6e6e6;stroke-width:.264583;stroke-linejoin:round"/><path d="M127.54 391.29v3.39" style="fill:#b3b3b3;stroke:#b3b3b3;stroke-width:.264584;stroke-linejoin:round;marker-start:url(#n);marker-end:url(#o)"/><text xml:space="preserve" style="font-size:16px;line-height:normal;font-family:&quot;Liberation Mono&quot;;-inkscape-font-specification:&quot;Liberation Mono&quot;;text-decoration-color:#000;white-space:pre;shape-inside:url(#p);display:inline;fill:#b3b3b3;stroke-width:1;-inkscape-stroke:none;stop-color:#000" transform="translate(73.413 280.296)scale(.26458)"><tspan x="208.459" y="431.379">H0</tspan></text><path d="M62.99 363.778v3.39" style="fill:#b3b3b3;stroke:#2c89a0;stroke-width:.264584;stroke-linejoin:round;marker-start:url(#q);marker-end:url(#r)"/><path d="M62.99 385.615v5.223" style="fill:#b3b3b3;stroke:#2c89a0;stroke-width:.264585;stroke-linejoin:round;marker-start:url(#s);marker-end:url(#t)"/><text xml:space="preserve" style="font-size:16px;line-height:normal;font-family:&quot;Liberation Mono&quot;;-inkscape-font-specification:&quot;Liberation Mono&quot;;text-decoration-color:#000;white-space:pre;shape-inside:url(#u);display:inline;fill:#2c89a0;stroke-width:1;-inkscape-stroke:none;stop-color:#000" transform="translate(9.007 277.105)scale(.26458)"><tspan x="178.389" y="425.973">E1</tspan></text><text xml:space="preserve" style="font-size:16px;line-height:normal;font-family:&quot;Liberation Mono&quot;;-inkscape-font-specification:&quot;Liberation Mono&quot;;text-decoration-color:#000;white-space:pre;shape-inside:url(#v);display:inline;fill:#2c89a0;stroke-width:1;-inkscape-stroke:none;stop-color:#000" transform="translate(6.98 252.076)scale(.26458)"><tspan x="187.174" y="432.955">E2</tspan></text><text xml:space="preserve" style="font-size:16px;line-height:normal;font-family:&quot;Liberation Mono&quot;;-inkscape-font-specification:&quot;Liberation Mono&quot;;text-decoration-color:#000;white-space:pre;shape-inside:url(#w);display:inline;fill:#918a6f;stroke-width:1;-inkscape-stroke:none;stop-color:#000" transform="translate(87.584 261.568)scale(.26458)"><tspan x="62.617" y="269.432">spring:[On,Off]</tspan></text><path d="m116.813 333.709-17.586 33.027" style="fill:#8dd35f;stroke:#918a6f;stroke-width:.264582;stroke-linejoin:round;stroke-dasharray:none;marker-end:url(#x)"/><rect width="8.284" height="2.086" x="43.631" y="383.236" ry="1.043" style="fill:#fff;stroke:#5fbcd3;stroke-width:.264583;stroke-linejoin:round"/><rect width="8.284" height="2.086" x="52.767" y="383.257" ry="1.043" style="fill:#fff;stroke:#5fbcd3;stroke-width:.264583;stroke-linejoin:round"/><rect width="8.284" height="2.086" x="48.128" y="380.194" ry="1.043" style="fill:#fff;stroke:#5fbcd3;stroke-width:.264583;stroke-linejoin:round"/><rect width="8.284" height="2.086" x="57.31" y="380.272" ry="1.043" style="fill:#fff;stroke:#5fbcd3;stroke-width:.264583;stroke-linejoin:round"/><text xml:space="preserve" style="font-size:16px;line-height:normal;font-family:&quot;Liberation Mono&quot;;-inkscape-font-specification:&quot;Liberation Mono&quot;;text-decoration-color:#000;white-space:pre;shape-inside:url(#y);display:inline;fill:#2c89a0;stroke-width:1;-inkscape-stroke:none;stop-color:#000" transform="translate(-20.824 248.727)scale(.26458)"><tspan x="179.74" y="309.299">sNx
</tspan><tspan x="179.74" y="329.299"><tspan style="fill:#999">sNy</tspan>
</tspan><tspan x="179.74" y="349.299">smEy
</tspan><tspan x="179.74" y="369.299">shEy
</tspan><tspan x="179.74" y="389.299">shPr
</tspan></text><path d="M25.72 327.775v24.346" style="fill:#2c89a0;stroke:#5fbcd3;stroke-width:.264582;stroke-linejoin:round"/><path d="m36.91 350.245 12.474 28.992" style="fill:#2c89a0;stroke:#5fbcd3;stroke-width:.264583;stroke-linejoin:round;marker-end:url(#c)"/><path d="M56.293 376.3v4.96M57.508 376.351v4.959" style="fill:purple;stroke:#ccc;stroke-width:.264582;stroke-linejoin:round"/><path d="M62.7 376.709h-4.804" style="fill:#2c89a0;stroke:#5fbcd3;stroke-width:.264583;stroke-linejoin:round;stroke-dasharray:none;marker-end:url(#c)"/><path d="M51.15 376.727h4.804" style="fill:#2c89a0;stroke:#5fbcd3;stroke-width:.264583;stroke-linejoin:round;stroke-dasharray:none;marker-end:url(#z)"/><text xml:space="preserve" style="font-size:16px;line-height:normal;font-family:&quot;Liberation Mono&quot;;-inkscape-font-specification:&quot;Liberation Mono&quot;;text-decoration-color:#000;white-space:pre;shape-inside:url(#A);display:inline;fill:#2c89a0;stroke-width:1;-inkscape-stroke:none;stop-color:#000" transform="translate(10.531 261.92)scale(.26458)"><tspan x="184.75" y="431.199">smEx</tspan></text></g></svg>