<svg xmlns="http://www.w3.org/2000/svg" width="345.779" height="380.716" viewBox="0 0 91.487 100.731"><defs><marker id="x" markerHeight="1" markerWidth="1" orient="auto-start-reverse" preserveAspectRatio="xMidYMid" refX="0" refY="0" style="overflow:visible" viewBox="0 0 1 1"><path d="M3-3 0 0l3 3" style="fill:none;stroke:context-stroke;stroke-width:1;stroke-linecap:round" transform="rotate(180 .125 0)"/></marker><marker id="a" markerHeight="1" markerWidth="1" orient="auto-start-reverse" preserveAspectRatio="xMidYMid" refX="0" refY="0" style="overflow:visible" viewBox="0 0 1 1"><path d="M3-3 0 0l3 3" style="fill:none;stroke:context-stroke;stroke-width:1;stroke-linecap:round" transform="rotate(180 .125 0)"/></marker><marker id="c" markerHeight="1" markerWidth="1" orient="auto-start-reverse" preserveAspectRatio="xMidYMid" refX="0" refY="0" style="overflow:visible" viewBox="0 0 1 1"><path d="M3-3 0 0l3 3" style="fill:none;stroke:context-stroke;stroke-width:1;stroke-linecap:round" transform="rotate(180 .125 0)"/></marker><marker id="e" markerHeight="1" markerWidth="1" orient="auto-start-reverse" preserveAspectRatio="xMidYMid" refX="0" refY="0" style="overflow:visible" viewBox="0 0 1 1"><path d="M3-3 0 0l3 3" style="fill:none;stroke:context-stroke;stroke-width:1;stroke-linecap:round" transform="rotate(180 .125 0)"/></marker><marker id="f" markerHeight="1" markerWidth="1" orient="auto-start-reverse" preserveAspectRatio="xMidYMid" refX="0" refY="0" style="overflow:visible" viewBox="0 0 1 1"><path d="M3-3 0 0l3 3" style="fill:none;stroke:context-stroke;stroke-width:1;stroke-linecap:round" transform="rotate(180 .125 0)"/></marker><marker id="h" markerHeight="1" markerWidth="1" orient="auto-start-reverse" preserveAspectRatio="xMidYMid" refX="0" refY="0" style="overflow:visible" viewBox="0 0 1 1"><path d="M3-3 0 0l3 3" style="fill:none;stroke:context-stroke;stroke-width:1;stroke-linecap:butt" transform="rotate(180 .125 0)"/></marker><marker id="i" markerHeight="1" markerWidth="1" orient="auto-start-reverse" preserveAspectRatio="xMidYMid" refX="0" refY="0" style="overflow:visible" viewBox="0 0 1 1"><path d="M3-3 0 0l3 3" style="fill:none;stroke:context-stroke;stroke-width:1;stroke-linecap:round" transform="rotate(180 .125 0)"/></marker><marker id="k" markerHeight="1" markerWidth="1" orient="auto-start-reverse" preserveAspectRatio="xMidYMid" refX="0" refY="0" style="overflow:visible" viewBox="0 0 1 1"><path d="M3-3 0 0l3 3" style="fill:none;stroke:context-stroke;stroke-width:1;stroke-linecap:butt" transform="rotate(180 .125 0)"/></marker><marker id="l" markerHeight="1" markerWidth="1" orient="auto-start-reverse" preserveAspectRatio="xMidYMid" refX="0" refY="0" style="overflow:visible" viewBox="0 0 1 1"><path d="M3-3 0 0l3 3" style="fill:none;stroke:context-stroke;stroke-width:1;stroke-linecap:round" transform="rotate(180 .125 0)"/></marker><marker id="n" markerHeight="1" markerWidth="1" orient="auto-start-reverse" preserveAspectRatio="xMidYMid" refX="0" refY="0" style="overflow:visible" viewBox="0 0 1 1"><path d="M3-3 0 0l3 3" style="fill:none;stroke:context-stroke;stroke-width:1;stroke-linecap:butt" transform="rotate(180 .125 0)"/></marker><marker id="o" markerHeight="1" markerWidth="1" orient="auto-start-reverse" preserveAspectRatio="xMidYMid" refX="0" refY="0" style="overflow:visible" viewBox="0 0 1 1"><path d="M3-3 0 0l3 3" style="fill:none;stroke:context-stroke;stroke-width:1;stroke-linecap:round" transform="rotate(180 .125 0)"/></marker><marker id="q" markerHeight="1" markerWidth="1" orient="auto-start-reverse" preserveAspectRatio="xMidYMid" refX="0" refY="0" style="overflow:visible" viewBox="0 0 1 1"><path d="M3-3 0 0l3 3" style="fill:none;stroke:context-stroke;stroke-width:1;stroke-linecap:butt" transform="rotate(180 .125 0)"/></marker><marker id="r" markerHeight="1" markerWidth="1" orient="auto-start-reverse" preserveAspectRatio="xMidYMid" refX="0" refY="0" style="overflow:visible" viewBox="0 0 1 1"><path d="M3-3 0 0l3 3" style="fill:none;stroke:context-stroke;stroke-width:1;stroke-linecap:round" transform="rotate(180 .125 0)"/></marker><marker id="t" markerHeight="1" markerWidth="1" orient="auto-start-reverse" preserveAspectRatio="xMidYMid" refX="0" refY="0" style="overflow:visible" viewBox="0 0 1 1"><path d="M3-3 0 0l3 3" style="fill:none;stroke:context-stroke;stroke-width:1;stroke-linecap:butt" transform="rotate(180 .125 0)"/></marker><marker id="u" markerHeight="1" markerWidth="1" orient="auto-start-reverse" preserveAspectRatio="xMidYMid" refX="0" refY="0" style="overflow:visible" viewBox="0 0 1 1"><path d="M3-3 0 0l3 3" style="fill:none;stroke:context-stroke;stroke-width:1;stroke-linecap:round" transform="rotate(180 .125 0)"/></marker><path id="b" d="M220.745 1209.798H278.4v30.579h-57.655z"/><path id="d" d="M270.512 870.773h40.543v29.957h-40.543z"/><path id="g" d="M483.696 300.698h38.702v25.324h-38.702z"/><path id="j" d="M267.584 418.944h37.39v31.984h-37.39z"/><path id="m" d="M267.584 418.944h37.39v31.984h-37.39z"/><path id="p" d="M267.584 418.944h37.39v31.984h-37.39z"/><path id="s" d="M267.584 418.944h37.39v31.984h-37.39z"/><path id="v" d="M208.459 417.142h37.587v30.632h-37.587z"/><path id="w" d="M528.41 400.7h85.133v81.203H528.41z"/></defs><path d="M38.008 516.98h91.223v100.467H38.008z" style="fill:#fff;stroke:#fff;stroke-width:.264583;stroke-linejoin:round" transform="translate(-37.876 -516.847)"/><path d="M55.175 539.572h3.117v11.714h-3.117z" style="fill:none;stroke:#fea;stroke-width:.264583;stroke-linejoin:round" transform="translate(-37.876 -516.847)"/><path d="M566.793-58.292h15.676v3.117h-15.676z" style="fill:none;stroke:#d4aa00;stroke-width:.264583;stroke-linejoin:round" transform="rotate(90 239.486 -277.362)"/><path d="M530.048-58.292h36.746v3.117h-36.746z" style="fill:none;stroke:#d4aa00;stroke-width:.264583;stroke-linejoin:round" transform="rotate(90 239.486 -277.362)"/><path d="M-91.484-587.174h31.605v3.117h-31.605z" style="fill:none;stroke:#d4aa00;stroke-width:.264584;stroke-linejoin:round" transform="matrix(-1 0 0 -1 -37.876 -516.847)"/><path d="M58.292 582.47s.096.927.405 1.229c.294.288 1.183.358 1.183.358v3.117s-1.435.017-2.11-.188c-.644-.196-1.314-.475-1.77-.97-.386-.418-.561-1.006-.698-1.559-.16-.644-.127-1.988-.127-1.988z" style="fill:none;stroke:#b3b3b3;stroke-width:.264583;stroke-linejoin:round" transform="translate(-37.876 -516.847)"/><path d="M93.072 539.572h3.117v11.714h-3.117z" style="fill:none;stroke:#fea;stroke-width:.264583;stroke-linejoin:round" transform="translate(-37.876 -516.847)"/><path d="M566.793-96.189h15.676v3.117h-15.676z" style="fill:none;stroke:#d4aa00;stroke-width:.264583;stroke-linejoin:round" transform="rotate(90 239.486 -277.362)"/><path d="M530.048-96.189h36.746v3.117h-36.746z" style="fill:none;stroke:#d4aa00;stroke-width:.264583;stroke-linejoin:round" transform="rotate(90 239.486 -277.362)"/><path d="M93.072 582.47s-.096.927-.405 1.229c-.295.288-1.183.358-1.183.358v3.117s1.435.017 2.11-.188c.644-.196 1.314-.475 1.77-.97.386-.418.561-1.006.698-1.559.16-.644.127-1.988.127-1.988z" style="fill:none;stroke:#b3b3b3;stroke-width:.264583;stroke-linejoin:round" transform="translate(-37.876 -516.847)"/><path d="M59.88 587.174v5.66M91.484 587.307v5.659" style="fill:purple;stroke:#ccc;stroke-width:.264582;stroke-linejoin:round" transform="translate(-37.876 -516.847)"/><path d="M60.24 590.004h31.016" style="fill:purple;stroke:#b3b3b3;stroke-width:.264583;stroke-linejoin:round;marker-start:url(#a);marker-end:url(#a)" transform="translate(-37.876 -516.847)"/><text xml:space="preserve" style="font-size:16px;line-height:normal;font-family:&quot;Liberation Mono&quot;;-inkscape-font-specification:&quot;Liberation Mono&quot;;text-decoration-color:#000;white-space:pre;shape-inside:url(#b);display:inline;fill:#b3b3b3;stroke-width:1;-inkscape-stroke:none;stop-color:#000" transform="translate(-22.204 -246.92)scale(.26458)"><tspan x="220.746" y="1224.035">W1</tspan></text><path d="M58.733 531.635h33.93" style="fill:purple;stroke:purple;stroke-width:.264583;stroke-linejoin:round;marker-start:url(#c);marker-end:url(#c)" transform="translate(-37.876 -516.847)"/><text xml:space="preserve" style="font-size:16px;line-height:normal;font-family:&quot;Liberation Mono&quot;;-inkscape-font-specification:&quot;Liberation Mono&quot;;text-decoration-color:#000;white-space:pre;shape-inside:url(#d);display:inline;fill:purple;stroke-width:1;-inkscape-stroke:none;stop-color:#000" transform="translate(-36.199 -220.076)scale(.26458)"><tspan x="270.512" y="885.01">W2</tspan></text><path d="M87.975 525.954h4.711" style="fill:purple;stroke:#4a0;stroke-width:.264583;stroke-linejoin:round;marker-end:url(#e)" transform="translate(-37.876 -516.847)"/><path d="M96.19 530.048h8.037M93.072 529.915v-3.992M96.19 529.915v-3.992" style="fill:purple;stroke:#ccc;stroke-width:.264583;stroke-linejoin:round" transform="translate(-37.876 -516.847)"/><path d="M101.28 526.049h-4.712" style="fill:purple;stroke:#4a0;stroke-width:.264583;stroke-linejoin:round;marker-end:url(#f)" transform="translate(-37.876 -516.847)"/><text xml:space="preserve" style="font-size:16px;line-height:normal;font-family:&quot;Liberation Mono&quot;;-inkscape-font-specification:&quot;Liberation Mono&quot;;text-decoration-color:#000;white-space:pre;shape-inside:url(#g);display:inline;fill:#4a0;stroke-width:1;-inkscape-stroke:none;stop-color:#000" transform="translate(-73.798 -76.247)scale(.26458)"><tspan x="483.697" y="314.934">Th</tspan></text><path d="M96.19 545.43h8.037M96.321 566.793h8.039M47.004 539.572h8.038M47.004 551.286h8.038" style="fill:purple;stroke:#ccc;stroke-width:.264583;stroke-linejoin:round" transform="translate(-37.876 -516.847)"/><path d="M103.17 530.429v14.688" style="fill:none;stroke:teal;stroke-width:.264583;stroke-linejoin:round;marker-start:url(#h);marker-end:url(#i)" transform="translate(-37.876 -516.847)"/><text xml:space="preserve" style="font-size:16px;line-height:normal;font-family:&quot;Liberation Mono&quot;;-inkscape-font-specification:&quot;Liberation Mono&quot;;text-decoration-color:#000;white-space:pre;shape-inside:url(#j);display:inline;fill:teal;stroke-width:1;-inkscape-stroke:none;stop-color:#000" transform="translate(-4.683 -92.968)scale(.26458)"><tspan x="267.584" y="433.18">R2</tspan></text><path d="M103.301 545.941v20.34" style="fill:none;stroke:teal;stroke-width:.264583;stroke-linejoin:round;marker-start:url(#k);marker-end:url(#l)" transform="translate(-37.876 -516.847)"/><text xml:space="preserve" style="font-size:16px;line-height:normal;font-family:&quot;Liberation Mono&quot;;-inkscape-font-specification:&quot;Liberation Mono&quot;;text-decoration-color:#000;white-space:pre;shape-inside:url(#m);display:inline;fill:teal;stroke-width:1;-inkscape-stroke:none;stop-color:#000" transform="translate(-4.65 -74.621)scale(.26458)"><tspan x="267.584" y="433.18">H2</tspan></text><path d="M103.434 567.112v14.996" style="fill:none;stroke:teal;stroke-width:.264583;stroke-linejoin:round;marker-start:url(#n);marker-end:url(#o)" transform="translate(-37.876 -516.847)"/><text xml:space="preserve" style="font-size:16px;line-height:normal;font-family:&quot;Liberation Mono&quot;;-inkscape-font-specification:&quot;Liberation Mono&quot;;text-decoration-color:#000;white-space:pre;shape-inside:url(#p);display:inline;fill:teal;stroke-width:1;-inkscape-stroke:none;stop-color:#000" transform="translate(-4.65 -57.34)scale(.26458)"><tspan x="267.584" y="433.18">H1</tspan></text><path d="M47.93 539.892v11.075" style="fill:none;stroke:purple;stroke-width:.264583;stroke-linejoin:round;marker-start:url(#q);marker-end:url(#r)" transform="translate(-37.876 -516.847)"/><text xml:space="preserve" style="font-size:16px;line-height:normal;font-family:&quot;Liberation Mono&quot;;-inkscape-font-specification:&quot;Liberation Mono&quot;;text-decoration-color:#000;white-space:pre;shape-inside:url(#s);display:inline;fill:purple;stroke-width:1;-inkscape-stroke:none;stop-color:#000" transform="translate(-66.708 -84.636)scale(.26458)"><tspan x="267.584" y="433.18">D1</tspan></text><path d="M96.252 582.47h8.038M93.676 587.174h10.482" style="fill:purple;stroke:#ccc;stroke-width:.264583;stroke-linejoin:round" transform="translate(-37.876 -516.847)"/><path d="M103.364 582.771v4.102" style="fill:none;stroke:#b3b3b3;stroke-width:.264583;stroke-linejoin:round;marker-start:url(#t);marker-end:url(#u)" transform="translate(-37.876 -516.847)"/><text xml:space="preserve" style="font-size:16px;line-height:normal;font-family:&quot;Liberation Mono&quot;;-inkscape-font-specification:&quot;Liberation Mono&quot;;text-decoration-color:#000;white-space:pre;shape-inside:url(#v);display:inline;fill:#b3b3b3;stroke-width:1;-inkscape-stroke:none;stop-color:#000" transform="translate(11.312 -44.766)scale(.26458)"><tspan x="208.459" y="431.379">H0</tspan></text><path d="M101.361 594.118v20.524" style="fill:purple;stroke:#4a0;stroke-width:.264584;stroke-linejoin:round;stroke-dasharray:none" transform="translate(-37.876 -516.847)"/><text xml:space="preserve" style="font-size:16px;line-height:normal;font-family:&quot;Liberation Mono&quot;;-inkscape-font-specification:&quot;Liberation Mono&quot;;text-decoration-color:#000;white-space:pre;shape-inside:url(#w);display:inline;fill:#4a0;stroke-width:1;-inkscape-stroke:none;stop-color:#000" transform="translate(-76.068 -28.787)scale(.26458)"><tspan x="528.41" y="414.936"><tspan style="fill:#999">Jangle</tspan>
</tspan><tspan x="528.41" y="434.936">Jradius
</tspan><tspan x="528.41" y="454.936">Jneutral
</tspan><tspan x="528.41" y="474.936">Jmark
</tspan></text><path d="m96.692 585.643 5.11 8.07" style="fill:#ccc;stroke:#4a0;stroke-width:.264583;stroke-linejoin:round;marker-start:url(#x)" transform="translate(-37.876 -516.847)"/></svg>