<svg xmlns="http://www.w3.org/2000/svg" width="216.779" height="164.523" viewBox="0 0 57.356 43.53"><defs><path id="d" d="M234.672 209.923h32.461v23.741h-32.461z"/><path id="c" d="M203.841 231.771h46.174v24.776h-46.174z"/><path id="b" d="M45.723 250.465h24.776v18.92H45.723z"/><marker id="a" markerHeight="1" markerWidth="1" orient="auto-start-reverse" preserveAspectRatio="xMidYMid" refX="0" refY="0" style="overflow:visible" viewBox="0 0 1 1"><path d="M3-3 0 0l3 3" style="fill:none;stroke:context-stroke;stroke-width:1;stroke-linecap:butt" transform="rotate(180 .125 0)"/></marker></defs><g transform="translate(-15.243 -25.612)"><path d="M15.375 25.745h57.091v43.266H15.375z" style="fill:#fff;stroke:#fff;stroke-width:.264583;stroke-linejoin:round"/><circle cx="37.926" cy="46.354" r="17.53" style="fill:#fff6d5;stroke:#1a1a1a;stroke-width:.264584;stroke-linejoin:round"/><circle cx="37.926" cy="46.354" r="11.631" style="fill:#fff;stroke:#1a1a1a;stroke-width:.264583;stroke-linejoin:round"/><path d="M37.926 46.354h26.463M17.302 46.354h20.624M49.493 44.58h13.485M49.493 48.126h13.485" style="fill:none;stroke:#ccc;stroke-width:.264583;stroke-linejoin:round"/><path d="M62.978 44.58v3.546" style="fill:purple;stroke:purple;stroke-width:.264583;stroke-linejoin:round;marker-start:url(#a);marker-end:url(#a)"/><path d="m45.712 37.714 3.976-4.4" style="fill:none;stroke:purple;stroke-width:.264583;stroke-linejoin:round;marker-start:url(#a);marker-end:url(#a)"/><text xml:space="preserve" style="font-size:16px;line-height:normal;font-family:&quot;Liberation Mono&quot;;-inkscape-font-specification:&quot;Liberation Mono&quot;;text-decoration-color:#000;white-space:pre;shape-inside:url(#b);fill:purple;stroke-width:1;-inkscape-stroke:none;stop-color:#000" transform="translate(38.026 -37.306)scale(.26458)"><tspan x="45.723" y="264.701">E1</tspan></text><text xml:space="preserve" style="font-size:16px;line-height:normal;font-family:&quot;Liberation Mono&quot;;-inkscape-font-specification:&quot;Liberation Mono&quot;;text-decoration-color:#000;white-space:pre;shape-inside:url(#c);fill:purple;stroke-width:1;-inkscape-stroke:none;stop-color:#000" transform="scale(.26458)"><tspan x="203.842" y="246.008">D1</tspan></text><path d="m49.258 60.688 4.437 2.601" style="fill:purple;stroke:purple;stroke-width:.264583;stroke-linejoin:round;marker-start:url(#a)"/><text xml:space="preserve" style="font-size:16px;line-height:normal;font-family:&quot;Liberation Mono&quot;;-inkscape-font-specification:&quot;Liberation Mono&quot;;text-decoration-color:#000;white-space:pre;shape-inside:url(#d);fill:purple;stroke-width:1;-inkscape-stroke:none;stop-color:#000" transform="translate(2.086 -11.62)scale(.26458)"><tspan x="234.672" y="224.158">S1</tspan></text><path d="M187.648 179.774c.166-2 .166-7.16 0-9.158l-.13-1.553h21.18l.126.916c.164 1.189.164 9.243 0 10.432l-.126.915h-21.18zM77.855 180.41c-.16-.62-.159-8.761.001-10.431l.134-1.394h21.348l-.089.358c-.048.197-.174 1.326-.278 2.509-.182 2.053-.108 7.625.117 8.879l.092.518H77.968Z" style="fill:#eef4d7;stroke:#eef4d7;stroke-width:1;stroke-linejoin:round" transform="scale(.26458)"/><path d="M49.493 44.58h5.9M49.493 48.126h5.9M20.473 44.449h5.9M20.473 47.994h5.9" style="fill:none;stroke:navy;stroke-width:.264583;stroke-linejoin:round"/></g></svg>