<svg xmlns="http://www.w3.org/2000/svg" width="484.661" height="380.716" viewBox="0 0 128.233 100.731"><defs><marker id="I" markerHeight="1" markerWidth="1" orient="auto-start-reverse" preserveAspectRatio="xMidYMid" refX="0" refY="0" style="overflow:visible" viewBox="0 0 1 1"><path d="M3-3 0 0l3 3" style="fill:none;stroke:context-stroke;stroke-width:1;stroke-linecap:round" transform="rotate(180 .125 0)"/></marker><marker id="c" markerHeight="1" markerWidth="1" orient="auto-start-reverse" preserveAspectRatio="xMidYMid" refX="0" refY="0" style="overflow:visible" viewBox="0 0 1 1"><path d="M3-3 0 0l3 3" style="fill:none;stroke:context-stroke;stroke-width:1;stroke-linecap:round" transform="rotate(180 .125 0)"/></marker><marker id="e" markerHeight="1" markerWidth="1" orient="auto-start-reverse" preserveAspectRatio="xMidYMid" refX="0" refY="0" style="overflow:visible" viewBox="0 0 1 1"><path d="M3-3 0 0l3 3" style="fill:none;stroke:context-stroke;stroke-width:1;stroke-linecap:round" transform="rotate(180 .125 0)"/></marker><marker id="g" markerHeight="1" markerWidth="1" orient="auto-start-reverse" preserveAspectRatio="xMidYMid" refX="0" refY="0" style="overflow:visible" viewBox="0 0 1 1"><path d="M3-3 0 0l3 3" style="fill:none;stroke:context-stroke;stroke-width:1;stroke-linecap:round" transform="rotate(180 .125 0)"/></marker><marker id="i" markerHeight="1" markerWidth="1" orient="auto-start-reverse" preserveAspectRatio="xMidYMid" refX="0" refY="0" style="overflow:visible" viewBox="0 0 1 1"><path d="M3-3 0 0l3 3" style="fill:none;stroke:context-stroke;stroke-width:1;stroke-linecap:round" transform="rotate(180 .125 0)"/></marker><marker id="k" markerHeight="1" markerWidth="1" orient="auto-start-reverse" preserveAspectRatio="xMidYMid" refX="0" refY="0" style="overflow:visible" viewBox="0 0 1 1"><path d="M3-3 0 0l3 3" style="fill:none;stroke:context-stroke;stroke-width:1;stroke-linecap:round" transform="rotate(180 .125 0)"/></marker><marker id="l" markerHeight="1" markerWidth="1" orient="auto-start-reverse" preserveAspectRatio="xMidYMid" refX="0" refY="0" style="overflow:visible" viewBox="0 0 1 1"><path d="M3-3 0 0l3 3" style="fill:none;stroke:context-stroke;stroke-width:1;stroke-linecap:round" transform="rotate(180 .125 0)"/></marker><marker id="n" markerHeight="1" markerWidth="1" orient="auto-start-reverse" preserveAspectRatio="xMidYMid" refX="0" refY="0" style="overflow:visible" viewBox="0 0 1 1"><path d="M3-3 0 0l3 3" style="fill:none;stroke:context-stroke;stroke-width:1;stroke-linecap:round" transform="rotate(180 .125 0)"/></marker><marker id="p" markerHeight="1" markerWidth="1" orient="auto-start-reverse" preserveAspectRatio="xMidYMid" refX="0" refY="0" style="overflow:visible" viewBox="0 0 1 1"><path d="M3-3 0 0l3 3" style="fill:none;stroke:context-stroke;stroke-width:1;stroke-linecap:butt" transform="rotate(180 .125 0)"/></marker><marker id="q" markerHeight="1" markerWidth="1" orient="auto-start-reverse" preserveAspectRatio="xMidYMid" refX="0" refY="0" style="overflow:visible" viewBox="0 0 1 1"><path d="M3-3 0 0l3 3" style="fill:none;stroke:context-stroke;stroke-width:1;stroke-linecap:round" transform="rotate(180 .125 0)"/></marker><marker id="s" markerHeight="1" markerWidth="1" orient="auto-start-reverse" preserveAspectRatio="xMidYMid" refX="0" refY="0" style="overflow:visible" viewBox="0 0 1 1"><path d="M3-3 0 0l3 3" style="fill:none;stroke:context-stroke;stroke-width:1;stroke-linecap:butt" transform="rotate(180 .125 0)"/></marker><marker id="t" markerHeight="1" markerWidth="1" orient="auto-start-reverse" preserveAspectRatio="xMidYMid" refX="0" refY="0" style="overflow:visible" viewBox="0 0 1 1"><path d="M3-3 0 0l3 3" style="fill:none;stroke:context-stroke;stroke-width:1;stroke-linecap:round" transform="rotate(180 .125 0)"/></marker><marker id="v" markerHeight="1" markerWidth="1" orient="auto-start-reverse" preserveAspectRatio="xMidYMid" refX="0" refY="0" style="overflow:visible" viewBox="0 0 1 1"><path d="M3-3 0 0l3 3" style="fill:none;stroke:context-stroke;stroke-width:1;stroke-linecap:butt" transform="rotate(180 .125 0)"/></marker><marker id="w" markerHeight="1" markerWidth="1" orient="auto-start-reverse" preserveAspectRatio="xMidYMid" refX="0" refY="0" style="overflow:visible" viewBox="0 0 1 1"><path d="M3-3 0 0l3 3" style="fill:none;stroke:context-stroke;stroke-width:1;stroke-linecap:round" transform="rotate(180 .125 0)"/></marker><marker id="y" markerHeight="1" markerWidth="1" orient="auto-start-reverse" preserveAspectRatio="xMidYMid" refX="0" refY="0" style="overflow:visible" viewBox="0 0 1 1"><path d="M3-3 0 0l3 3" style="fill:none;stroke:context-stroke;stroke-width:1;stroke-linecap:butt" transform="rotate(180 .125 0)"/></marker><marker id="z" markerHeight="1" markerWidth="1" orient="auto-start-reverse" preserveAspectRatio="xMidYMid" refX="0" refY="0" style="overflow:visible" viewBox="0 0 1 1"><path d="M3-3 0 0l3 3" style="fill:none;stroke:context-stroke;stroke-width:1;stroke-linecap:round" transform="rotate(180 .125 0)"/></marker><marker id="B" markerHeight="1" markerWidth="1" orient="auto-start-reverse" preserveAspectRatio="xMidYMid" refX="0" refY="0" style="overflow:visible" viewBox="0 0 1 1"><path d="M3-3 0 0l3 3" style="fill:none;stroke:context-stroke;stroke-width:1;stroke-linecap:butt" transform="rotate(180 .125 0)"/></marker><marker id="C" markerHeight="1" markerWidth="1" orient="auto-start-reverse" preserveAspectRatio="xMidYMid" refX="0" refY="0" style="overflow:visible" viewBox="0 0 1 1"><path d="M3-3 0 0l3 3" style="fill:none;stroke:context-stroke;stroke-width:1;stroke-linecap:round" transform="rotate(180 .125 0)"/></marker><marker id="D" markerHeight="1" markerWidth="1" orient="auto-start-reverse" preserveAspectRatio="xMidYMid" refX="0" refY="0" style="overflow:visible" viewBox="0 0 1 1"><path d="M3-3 0 0l3 3" style="fill:none;stroke:context-stroke;stroke-width:1;stroke-linecap:butt" transform="rotate(180 .125 0)"/></marker><marker id="E" markerHeight="1" markerWidth="1" orient="auto-start-reverse" preserveAspectRatio="xMidYMid" refX="0" refY="0" style="overflow:visible" viewBox="0 0 1 1"><path d="M3-3 0 0l3 3" style="fill:none;stroke:context-stroke;stroke-width:1;stroke-linecap:round" transform="rotate(180 .125 0)"/></marker><marker id="b" markerHeight="1" markerWidth="1" orient="auto-start-reverse" preserveAspectRatio="xMidYMid" refX="0" refY="0" style="overflow:visible" viewBox="0 0 1 1"><path d="M3-3 0 0l3 3" style="fill:none;stroke:context-stroke;stroke-width:1;stroke-linecap:round" transform="rotate(180 .125 0)"/></marker><path id="j" d="M270.512 870.773h40.543v29.957h-40.543z"/><path id="h" d="M220.745 1209.798H278.4v30.579h-57.655z"/><path id="d" d="M106.313 440.792h38.065v28.38h-38.065z"/><path id="f" d="M106.313 440.792h38.065v28.38h-38.065z"/><path id="m" d="M483.696 300.698h38.702v25.324h-38.702z"/><path id="o" d="M220.745 1209.798H278.4v30.579h-57.655z"/><path id="r" d="M267.584 418.944h37.39v31.984h-37.39z"/><path id="u" d="M267.584 418.944h37.39v31.984h-37.39z"/><path id="x" d="M267.584 418.944h37.39v31.984h-37.39z"/><path id="A" d="M267.584 418.944h37.39v31.984h-37.39z"/><path id="F" d="M521.284 397.673h24.209v19.45h-24.209z"/><path id="G" d="M208.459 417.142h37.587v30.632h-37.587z"/><path id="H" d="M528.41 400.7h85.133v81.203H528.41z"/><path id="a" d="M93.649 286.682h38.224v35.676H93.649z"/></defs><path d="M24.696 227.5h127.969v100.467H24.696z" style="fill:#fff;stroke:#fff;stroke-width:.264583;stroke-linejoin:round" transform="translate(-24.563 -227.368)"/><text xml:space="preserve" style="font-size:16px;line-height:normal;font-family:&quot;Liberation Mono&quot;;-inkscape-font-specification:&quot;Liberation Mono&quot;;text-decoration-color:#000;white-space:pre;shape-inside:url(#a);display:inline;fill:#a40;stroke-width:1;-inkscape-stroke:none;stop-color:#000" transform="translate(-15.505 -31.953)scale(.26458)"><tspan x="93.65" y="300.918">Rc2</tspan></text><path d="m35.558 276.127-4.045 7.08" style="fill:#fff;stroke:#a40;stroke-width:.264583;stroke-linejoin:round;marker-end:url(#b)" transform="translate(-24.563 -227.368)"/><path d="M292.47-117.412h3.117v7.922h-3.117zM292.47-44.242h3.117v7.922h-3.117z" style="fill:none;stroke:#fea;stroke-width:.264583;stroke-linejoin:round" transform="rotate(90 101.402 -125.965)"/><path d="M56.358 247.986h3.117V259.7h-3.117z" style="fill:none;stroke:#fea;stroke-width:.264583;stroke-linejoin:round" transform="translate(-24.563 -227.368)"/><path d="M275.206-59.476h15.676v3.117h-15.676z" style="fill:none;stroke:#d4aa00;stroke-width:.264583;stroke-linejoin:round" transform="rotate(90 101.402 -125.965)"/><path d="M238.461-59.476h36.746v3.117h-36.746z" style="fill:none;stroke:#d4aa00;stroke-width:.264583;stroke-linejoin:round" transform="rotate(90 101.402 -125.965)"/><path d="M-92.668-295.587h31.605v3.117h-31.605z" style="fill:none;stroke:#d4aa00;stroke-width:.264584;stroke-linejoin:round" transform="matrix(-1 0 0 -1 -24.563 -227.368)"/><path d="M59.476 290.882s.096.928.404 1.23c.295.288 1.183.358 1.183.358v3.117s-1.434.017-2.11-.188c-.643-.196-1.313-.475-1.77-.97-.386-.418-.56-1.006-.697-1.559-.16-.644-.128-1.988-.128-1.988z" style="fill:none;stroke:#b3b3b3;stroke-width:.264583;stroke-linejoin:round" transform="translate(-24.563 -227.368)"/><path d="M94.256 247.986h3.117V259.7h-3.117z" style="fill:none;stroke:#fea;stroke-width:.264583;stroke-linejoin:round" transform="translate(-24.563 -227.368)"/><path d="M275.206-97.373h15.676v3.117h-15.676z" style="fill:none;stroke:#d4aa00;stroke-width:.264583;stroke-linejoin:round" transform="rotate(90 101.402 -125.965)"/><path d="M238.461-97.373h36.746v3.117h-36.746z" style="fill:none;stroke:#d4aa00;stroke-width:.264583;stroke-linejoin:round" transform="rotate(90 101.402 -125.965)"/><path d="M94.256 290.882s-.096.928-.405 1.23c-.295.288-1.183.358-1.183.358v3.117s1.435.017 2.11-.188c.644-.196 1.314-.475 1.77-.97.386-.418.561-1.006.698-1.559.16-.644.127-1.988.127-1.988z" style="fill:none;stroke:#b3b3b3;stroke-width:.264583;stroke-linejoin:round" transform="translate(-24.563 -227.368)"/><path d="M-122.704-295.587h91.676v3.117h-91.676z" style="fill:none;stroke:#d4aa00;stroke-width:.264584;stroke-linejoin:round" transform="matrix(-1 0 0 -1 -24.563 -227.368)"/><path d="M-122.704-295.587h91.676v4.705h-91.676z" style="fill:none;stroke:#d4aa00;stroke-width:.264584;stroke-linejoin:round" transform="matrix(-1 0 0 -1 -24.563 -227.368)"/><path d="M-122.704-290.883h91.676v6.896h-91.676z" style="fill:none;stroke:#d4aa00;stroke-width:.264584;stroke-linejoin:round" transform="matrix(-1 0 0 -1 -24.563 -227.368)"/><path d="M113.45 295.587v11.319M40.28 295.587v11.319M36.32 295.72v15.673M44.242 295.72v15.673" style="fill:purple;stroke:#ccc;stroke-width:.264582;stroke-linejoin:round" transform="translate(-24.563 -227.368)"/><path d="M36.683 311.393h7.183" style="fill:purple;stroke:#00f;stroke-width:.264583;stroke-linejoin:round;marker-start:url(#c);marker-end:url(#c)" transform="translate(-24.563 -227.368)"/><text xml:space="preserve" style="font-size:16px;line-height:normal;font-family:&quot;Liberation Mono&quot;;-inkscape-font-specification:&quot;Liberation Mono&quot;;text-decoration-color:#000;white-space:pre;shape-inside:url(#d);display:inline;fill:#00f;stroke-width:1;-inkscape-stroke:none;stop-color:#000" transform="translate(-14.658 -32.285)scale(.26458)"><tspan x="106.313" y="455.029">D3</tspan></text><path d="M40.677 306.41h72.377" style="fill:purple;stroke:#00f;stroke-width:.264582;stroke-linejoin:round;marker-start:url(#e);marker-end:url(#e)" transform="translate(-24.563 -227.368)"/><text xml:space="preserve" style="font-size:16px;line-height:normal;font-family:&quot;Liberation Mono&quot;;-inkscape-font-specification:&quot;Liberation Mono&quot;;text-decoration-color:#000;white-space:pre;shape-inside:url(#f);display:inline;fill:#00f;stroke-width:1;-inkscape-stroke:none;stop-color:#000" transform="translate(21.6 -37.74)scale(.26458)"><tspan x="106.313" y="455.029">P4</tspan></text><path d="M61.063 295.587v5.66M92.668 295.72v5.659" style="fill:purple;stroke:#ccc;stroke-width:.264582;stroke-linejoin:round" transform="translate(-24.563 -227.368)"/><path d="M61.425 298.417H92.44" style="fill:purple;stroke:purple;stroke-width:.264583;stroke-linejoin:round;marker-start:url(#g);marker-end:url(#g)" transform="translate(-24.563 -227.368)"/><text xml:space="preserve" style="font-size:16px;line-height:normal;font-family:&quot;Liberation Mono&quot;;-inkscape-font-specification:&quot;Liberation Mono&quot;;text-decoration-color:#000;white-space:pre;shape-inside:url(#h);display:inline;fill:purple;stroke-width:1;-inkscape-stroke:none;stop-color:#000" transform="translate(-7.708 -249.027)scale(.26458)"><tspan x="220.746" y="1224.035">W1</tspan></text><path d="M59.917 240.048h33.929" style="fill:purple;stroke:#ccc;stroke-width:.264583;stroke-linejoin:round;marker-start:url(#i);marker-end:url(#i)" transform="translate(-24.563 -227.368)"/><text xml:space="preserve" style="font-size:16px;line-height:normal;font-family:&quot;Liberation Mono&quot;;-inkscape-font-specification:&quot;Liberation Mono&quot;;text-decoration-color:#000;white-space:pre;shape-inside:url(#j);display:inline;fill:#ccc;stroke-width:1;-inkscape-stroke:none;stop-color:#000" transform="translate(-21.703 -222.183)scale(.26458)"><tspan x="270.512" y="885.01">W2</tspan></text><path d="M89.159 234.367h4.711" style="fill:purple;stroke:#4a0;stroke-width:.264583;stroke-linejoin:round;marker-end:url(#k)" transform="translate(-24.563 -227.368)"/><path d="M97.373 238.46h8.038M94.256 238.328v-3.992M97.373 238.328v-3.992" style="fill:purple;stroke:#ccc;stroke-width:.264583;stroke-linejoin:round" transform="translate(-24.563 -227.368)"/><path d="M102.464 234.462h-4.712" style="fill:purple;stroke:#4a0;stroke-width:.264583;stroke-linejoin:round;marker-end:url(#l)" transform="translate(-24.563 -227.368)"/><text xml:space="preserve" style="font-size:16px;line-height:normal;font-family:&quot;Liberation Mono&quot;;-inkscape-font-specification:&quot;Liberation Mono&quot;;text-decoration-color:#000;white-space:pre;shape-inside:url(#m);display:inline;fill:#4a0;stroke-width:1;-inkscape-stroke:none;stop-color:#000" transform="translate(-59.302 -78.354)scale(.26458)"><tspan x="483.697" y="314.934">Th</tspan></text><path d="M97.373 253.842h8.038M97.505 275.206h8.039" style="fill:purple;stroke:#ccc;stroke-width:.264583;stroke-linejoin:round" transform="translate(-24.563 -227.368)"/><path d="M31.028 295.587v27.354M122.704 295.72v27.353" style="fill:purple;stroke:#ccc;stroke-width:.264581;stroke-linejoin:round" transform="translate(-24.563 -227.368)"/><path d="M31.516 318.145h90.754" style="fill:purple;stroke:purple;stroke-width:.264583;stroke-linejoin:round;marker-start:url(#n);marker-end:url(#n)" transform="translate(-24.563 -227.368)"/><text xml:space="preserve" style="font-size:16px;line-height:normal;font-family:&quot;Liberation Mono&quot;;-inkscape-font-specification:&quot;Liberation Mono&quot;;text-decoration-color:#000;white-space:pre;shape-inside:url(#o);display:inline;fill:purple;stroke-width:1;-inkscape-stroke:none;stop-color:#000" transform="translate(-8.542 -228.653)scale(.26458)"><tspan x="220.746" y="1224.035">W3</tspan></text><path d="M48.188 247.986h8.038M48.188 259.7h8.038M122.836 283.987h8.038" style="fill:purple;stroke:#ccc;stroke-width:.264583;stroke-linejoin:round" transform="translate(-24.563 -227.368)"/><path d="M104.353 238.842v14.689" style="fill:none;stroke:teal;stroke-width:.264583;stroke-linejoin:round;marker-start:url(#p);marker-end:url(#q)" transform="translate(-24.563 -227.368)"/><text xml:space="preserve" style="font-size:16px;line-height:normal;font-family:&quot;Liberation Mono&quot;;-inkscape-font-specification:&quot;Liberation Mono&quot;;text-decoration-color:#000;white-space:pre;shape-inside:url(#r);display:inline;fill:teal;stroke-width:1;-inkscape-stroke:none;stop-color:#000" transform="translate(9.813 -95.075)scale(.26458)"><tspan x="267.584" y="433.18">R2</tspan></text><path d="M104.485 254.354v20.34" style="fill:none;stroke:teal;stroke-width:.264583;stroke-linejoin:round;marker-start:url(#s);marker-end:url(#t)" transform="translate(-24.563 -227.368)"/><text xml:space="preserve" style="font-size:16px;line-height:normal;font-family:&quot;Liberation Mono&quot;;-inkscape-font-specification:&quot;Liberation Mono&quot;;text-decoration-color:#000;white-space:pre;shape-inside:url(#u);display:inline;fill:teal;stroke-width:1;-inkscape-stroke:none;stop-color:#000" transform="translate(9.847 -76.728)scale(.26458)"><tspan x="267.584" y="433.18">H2</tspan></text><path d="M104.617 275.525v14.996" style="fill:none;stroke:teal;stroke-width:.264583;stroke-linejoin:round;marker-start:url(#v);marker-end:url(#w)" transform="translate(-24.563 -227.368)"/><text xml:space="preserve" style="font-size:16px;line-height:normal;font-family:&quot;Liberation Mono&quot;;-inkscape-font-specification:&quot;Liberation Mono&quot;;text-decoration-color:#000;white-space:pre;shape-inside:url(#x);display:inline;fill:teal;stroke-width:1;-inkscape-stroke:none;stop-color:#000" transform="translate(9.847 -59.448)scale(.26458)"><tspan x="267.584" y="433.18">H1</tspan></text><path d="M49.114 248.305v11.075" style="fill:none;stroke:purple;stroke-width:.264583;stroke-linejoin:round;marker-start:url(#y);marker-end:url(#z)" transform="translate(-24.563 -227.368)"/><text xml:space="preserve" style="font-size:16px;line-height:normal;font-family:&quot;Liberation Mono&quot;;-inkscape-font-specification:&quot;Liberation Mono&quot;;text-decoration-color:#000;white-space:pre;shape-inside:url(#A);display:inline;fill:purple;stroke-width:1;-inkscape-stroke:none;stop-color:#000" transform="translate(-52.212 -86.743)scale(.26458)"><tspan x="267.584" y="433.18">D1</tspan></text><path d="M122.836 290.883h8.038M122.704 295.587h8.038" style="fill:purple;stroke:#ccc;stroke-width:.264583;stroke-linejoin:round" transform="translate(-24.563 -227.368)"/><path d="M129.948 284.361v6.142" style="fill:none;stroke:purple;stroke-width:.264583;stroke-linejoin:round;marker-start:url(#B);marker-end:url(#C)" transform="translate(-24.563 -227.368)"/><path d="M129.948 291.184v4.102" style="fill:none;stroke:#b3b3b3;stroke-width:.264583;stroke-linejoin:round;marker-start:url(#D);marker-end:url(#E)" transform="translate(-24.563 -227.368)"/><text xml:space="preserve" style="font-size:16px;line-height:normal;font-family:&quot;Liberation Mono&quot;;-inkscape-font-specification:&quot;Liberation Mono&quot;;text-decoration-color:#000;white-space:pre;shape-inside:url(#F);display:inline;fill:purple;stroke-width:1;-inkscape-stroke:none;stop-color:#000" transform="translate(-32.149 -47.501)scale(.26458)"><tspan x="521.283" y="411.91">A2</tspan></text><text xml:space="preserve" style="font-size:16px;line-height:normal;font-family:&quot;Liberation Mono&quot;;-inkscape-font-specification:&quot;Liberation Mono&quot;;text-decoration-color:#000;white-space:pre;shape-inside:url(#G);display:inline;fill:#b3b3b3;stroke-width:1;-inkscape-stroke:none;stop-color:#000" transform="translate(51.208 -46.873)scale(.26458)"><tspan x="208.459" y="431.379">H0</tspan></text><path d="M128.474 302.531v20.524" style="fill:purple;stroke:#4a0;stroke-width:.264584;stroke-linejoin:round;stroke-dasharray:none" transform="translate(-24.563 -227.368)"/><text xml:space="preserve" style="font-size:16px;line-height:normal;font-family:&quot;Liberation Mono&quot;;-inkscape-font-specification:&quot;Liberation Mono&quot;;text-decoration-color:#000;white-space:pre;shape-inside:url(#H);display:inline;fill:#4a0;stroke-width:1;-inkscape-stroke:none;stop-color:#000" transform="translate(-35.643 -30.894)scale(.26458)"><tspan x="528.41" y="414.936">Jangle
</tspan><tspan x="528.41" y="434.936">Jradius
</tspan><tspan x="528.41" y="454.936">Jneutral
</tspan><tspan x="528.41" y="474.936">Jmark
</tspan></text><path d="m97.286 294.478 30.308 10.85" style="fill:#ccc;stroke:#4a0;stroke-width:.264583;stroke-linejoin:round;marker-start:url(#I)" transform="translate(-24.563 -227.368)"/></svg>