<svg xmlns="http://www.w3.org/2000/svg" width="600" height="3000" viewBox="0 0 158.75 793.75"><defs><path id="s" d="M61.796 675.296h24.527v22.935H61.796z"/><path id="r" d="M491.819 730.402h26.438v23.572h-26.438z"/><path id="q" d="M442.446 720.846h35.357v29.305h-35.357z"/><path id="p" d="M378.42 729.765h45.869v32.809H378.42z"/><path id="o" d="M458.373 707.662h36.632v29.429h-36.632z"/><path id="n" d="M384.791 703.964h48.417v35.357h-48.417z"/><path id="g" d="M341.47 541.511h41.41v31.854h-41.41z"/><path id="f" d="M428.749 531.317h47.143v36.95h-47.143z"/><path id="e" d="M461.24 479.078h36.95v31.216h-36.95z"/><path id="d" d="M368.864 479.078h70.715v43.321h-70.715z"/><path id="c" d="M271.392 489.908h66.255v43.958h-66.255z"/><path id="a" d="M24.209 25.483h214.056v49.692H24.209z"/><path id="i" d="M461.24 479.078h36.95v31.216h-36.95z"/><marker id="b" markerHeight="1" markerWidth="1" orient="auto-start-reverse" preserveAspectRatio="xMidYMid" refX="0" refY="0" style="overflow:visible" viewBox="0 0 1 1"><path d="M3-3 0 0l3 3" style="fill:none;stroke:context-stroke;stroke-width:1;stroke-linecap:butt" transform="rotate(180 .125 0)"/></marker><marker id="h" markerHeight="1" markerWidth="1" orient="auto-start-reverse" preserveAspectRatio="xMidYMid" refX="0" refY="0" style="overflow:visible" viewBox="0 0 1 1"><path d="M3-3 0 0l3 3" style="fill:none;stroke:context-stroke;stroke-width:1;stroke-linecap:butt" transform="rotate(180 .125 0)"/></marker><marker id="j" markerHeight="1" markerWidth="1" orient="auto-start-reverse" preserveAspectRatio="xMidYMid" refX="0" refY="0" style="overflow:visible" viewBox="0 0 1 1"><path d="M3-3 0 0l3 3" style="fill:none;stroke:context-stroke;stroke-width:1;stroke-linecap:butt" transform="rotate(180 .125 0)"/></marker><marker id="k" markerHeight="1" markerWidth="1" orient="auto-start-reverse" preserveAspectRatio="xMidYMid" refX="0" refY="0" style="overflow:visible" viewBox="0 0 1 1"><path d="M3-3 0 0l3 3" style="fill:none;stroke:context-stroke;stroke-width:1;stroke-linecap:butt" transform="rotate(180 .125 0)"/></marker><marker id="l" markerHeight="1" markerWidth="1" orient="auto-start-reverse" preserveAspectRatio="xMidYMid" refX="0" refY="0" style="overflow:visible" viewBox="0 0 1 1"><path d="M3-3 0 0l3 3" style="fill:none;stroke:context-stroke;stroke-width:1;stroke-linecap:butt" transform="rotate(180 .125 0)"/></marker><marker id="m" markerHeight="1" markerWidth="1" orient="auto-start-reverse" preserveAspectRatio="xMidYMid" refX="0" refY="0" style="overflow:visible" viewBox="0 0 1 1"><path d="M3-3 0 0l3 3" style="fill:none;stroke:context-stroke;stroke-width:1;stroke-linecap:butt" transform="rotate(180 .125 0)"/></marker></defs><path d="M17.878 157.806h70.798v57.687H17.878zM25.621 52.422h88.662v56.804H25.621z" style="fill:#fff;stroke:#fff;stroke-width:.264583;stroke-linejoin:round"/><text xml:space="preserve" style="font-size:16px;line-height:normal;font-family:&quot;Liberation Mono&quot;;-inkscape-font-specification:&quot;Liberation Mono&quot;;text-decoration-color:#000;white-space:pre;shape-inside:url(#a);fill:#000;stroke-width:1;-inkscape-stroke:none;stop-color:#000" transform="scale(.26458)"><tspan x="24.209" y="39.719">src_triangle.svg</tspan></text><path d="M42.14 97.09h54.613L69.54 56.299Z" style="fill:#fff;stroke:#338000;stroke-width:.264583;stroke-linejoin:round"/><path d="M42.14 99.736h54.613" style="fill:#fff;stroke:navy;stroke-width:.264583;stroke-linejoin:round;stroke-dasharray:none;marker-start:url(#b);marker-end:url(#b)"/><path d="m72.186 54.711 27.212 40.791" style="fill:#fff;stroke:navy;stroke-width:.264583;stroke-linejoin:round;stroke-dasharray:none;marker-start:url(#b);marker-end:url(#b)"/><path d="m40.023 95.502 27.4-40.791" style="fill:#fff;stroke:navy;stroke-width:.264583;stroke-linejoin:round;stroke-dasharray:none;marker-start:url(#b);marker-end:url(#b)"/><circle cx="69.446" cy="82.088" r="6.574" style="fill:#fff;stroke:#338000;stroke-width:.264583;stroke-linejoin:round;stroke-dasharray:none"/><path d="m41.128 97.427-6.405 5.73" style="fill:#fff;stroke:navy;stroke-width:.264583;stroke-linejoin:round;stroke-dasharray:none;marker-start:url(#b)"/><path d="m74.334 87.988 31.015 13.653" style="fill:#fff;stroke:navy;stroke-width:.264583;stroke-linejoin:round;stroke-dasharray:none;marker-start:url(#b)"/><text xml:space="preserve" style="font-size:16px;line-height:normal;font-family:&quot;Liberation Mono&quot;;-inkscape-font-specification:&quot;Liberation Mono&quot;;text-decoration-color:#000;white-space:pre;shape-inside:url(#c);fill:#000;stroke-width:1;-inkscape-stroke:none;stop-color:#000" transform="translate(34.386 -29.33)scale(.26458)"><tspan x="271.393" y="504.145">Di</tspan></text><text xml:space="preserve" style="font-size:16px;line-height:normal;font-family:&quot;Liberation Mono&quot;;-inkscape-font-specification:&quot;Liberation Mono&quot;;text-decoration-color:#000;white-space:pre;shape-inside:url(#d);fill:#000;stroke-width:1;-inkscape-stroke:none;stop-color:#000" transform="translate(-49.556 -56.13)scale(.26458)"><tspan x="368.865" y="493.315">W1</tspan></text><text xml:space="preserve" style="font-size:16px;line-height:normal;font-family:&quot;Liberation Mono&quot;;-inkscape-font-specification:&quot;Liberation Mono&quot;;text-decoration-color:#000;white-space:pre;shape-inside:url(#e);fill:#000;stroke-width:1;-inkscape-stroke:none;stop-color:#000" transform="translate(-54.613 -26.295)scale(.26458)"><tspan x="461.24" y="493.315">W1</tspan></text><text xml:space="preserve" style="font-size:16px;line-height:normal;font-family:&quot;Liberation Mono&quot;;-inkscape-font-specification:&quot;Liberation Mono&quot;;text-decoration-color:#000;white-space:pre;shape-inside:url(#f);fill:#000;stroke-width:1;-inkscape-stroke:none;stop-color:#000" transform="translate(-26.97 -69.952)scale(.26458)"><tspan x="428.75" y="545.555">W1</tspan></text><text xml:space="preserve" style="font-size:16px;line-height:normal;font-family:&quot;Liberation Mono&quot;;-inkscape-font-specification:&quot;Liberation Mono&quot;;text-decoration-color:#000;white-space:pre;shape-inside:url(#g);fill:#000;stroke-width:1;-inkscape-stroke:none;stop-color:#000" transform="translate(-61.692 -40.791)scale(.26458)"><tspan x="341.471" y="555.746">R1</tspan></text><path d="M41.971 194.011H77.2v10.619H41.971zM41.971 178.1H77.2v10.619H41.971zM41.971 162.189H77.2v10.619H41.971z" style="fill:#e3f4d7;stroke:#338000;stroke-width:.264583;stroke-linejoin:round"/><path d="M41.881 207.276h35.287" style="fill:#fff;stroke:navy;stroke-width:.264583;stroke-linejoin:round;stroke-dasharray:none;marker-start:url(#h);marker-end:url(#h)"/><text xml:space="preserve" style="font-size:16px;line-height:normal;font-family:&quot;Liberation Mono&quot;;-inkscape-font-specification:&quot;Liberation Mono&quot;;text-decoration-color:#000;white-space:pre;shape-inside:url(#i);display:inline;fill:#000;stroke-width:1;-inkscape-stroke:none;stop-color:#000" transform="translate(-64.886 80.757)scale(.26458)"><tspan x="461.24" y="493.315">W1</tspan></text><path d="M79.846 194.01v10.62" style="fill:#e3f4d7;stroke:navy;stroke-width:.264583;stroke-linejoin:round;marker-start:url(#b);marker-end:url(#b)"/><path d="M79.846 178.1v10.62" style="fill:#e3f4d7;stroke:navy;stroke-width:.264583;stroke-linejoin:round;marker-start:url(#j);marker-end:url(#j)"/><path d="M79.846 162.19v10.618" style="fill:#e3f4d7;stroke:navy;stroke-width:.264583;stroke-linejoin:round;marker-start:url(#k);marker-end:url(#k)"/><path d="M68.507 189.113v4.504" style="fill:#e3f4d7;stroke:navy;stroke-width:.264583;stroke-linejoin:round;marker-start:url(#l);marker-end:url(#l)"/><path d="M68.336 173.155v4.504" style="fill:#e3f4d7;stroke:navy;stroke-width:.264583;stroke-linejoin:round;marker-start:url(#m);marker-end:url(#m)"/><text xml:space="preserve" style="font-size:16px;line-height:normal;font-family:&quot;Liberation Mono&quot;;-inkscape-font-specification:&quot;Liberation Mono&quot;;text-decoration-color:#000;white-space:pre;shape-inside:url(#n);fill:#000;stroke-width:1;-inkscape-stroke:none;stop-color:#000" transform="translate(-32.116 3.118)scale(.26458)"><tspan x="384.791" y="718.201">E1</tspan></text><text xml:space="preserve" style="font-size:16px;line-height:normal;font-family:&quot;Liberation Mono&quot;;-inkscape-font-specification:&quot;Liberation Mono&quot;;text-decoration-color:#000;white-space:pre;shape-inside:url(#o);fill:#000;stroke-width:1;-inkscape-stroke:none;stop-color:#000" transform="translate(-51.584 -14.075)scale(.26458)"><tspan x="458.373" y="721.899">E1</tspan></text><text xml:space="preserve" style="font-size:16px;line-height:normal;font-family:&quot;Liberation Mono&quot;;-inkscape-font-specification:&quot;Liberation Mono&quot;;text-decoration-color:#000;white-space:pre;shape-inside:url(#p);fill:#000;stroke-width:1;-inkscape-stroke:none;stop-color:#000" transform="translate(-19.469 3.793)scale(.26458)"><tspan x="378.42" y="744.002">T1</tspan></text><text xml:space="preserve" style="font-size:16px;line-height:normal;font-family:&quot;Liberation Mono&quot;;-inkscape-font-specification:&quot;Liberation Mono&quot;;text-decoration-color:#000;white-space:pre;shape-inside:url(#q);fill:#000;stroke-width:1;-inkscape-stroke:none;stop-color:#000" transform="translate(-36.746 -10.03)scale(.26458)"><tspan x="442.445" y="735.082">T1</tspan></text><text xml:space="preserve" style="font-size:16px;line-height:normal;font-family:&quot;Liberation Mono&quot;;-inkscape-font-specification:&quot;Liberation Mono&quot;;text-decoration-color:#000;white-space:pre;shape-inside:url(#r);fill:#000;stroke-width:1;-inkscape-stroke:none;stop-color:#000" transform="translate(-49.809 -28.402)scale(.26458)"><tspan x="491.818" y="744.639">T1</tspan></text><path d="m41.297 169.486-15.592 10.787" style="fill:#e3f4d7;stroke:navy;stroke-width:.264583;stroke-linejoin:round;marker-start:url(#b)"/><path d="m40.96 181.537-14.665-.42" style="fill:#e3f4d7;stroke:navy;stroke-width:.264583;stroke-linejoin:round;marker-start:url(#b)"/><path d="M41.128 198.309 25.874 182.38" style="fill:#e3f4d7;stroke:navy;stroke-width:.264583;stroke-linejoin:round;marker-start:url(#b)"/><text xml:space="preserve" style="font-size:16px;line-height:normal;font-family:&quot;Liberation Mono&quot;;-inkscape-font-specification:&quot;Liberation Mono&quot;;text-decoration-color:#000;white-space:pre;shape-inside:url(#s);fill:#000;stroke-width:1;-inkscape-stroke:none;stop-color:#000" transform="translate(4.233)scale(.26458)"><tspan x="61.797" y="689.531">N1</tspan></text></svg>