<svg xmlns="http://www.w3.org/2000/svg" width="600" height="3000" viewBox="0 0 158.75 793.75"><defs><path id="P" d="M223.436 542.958h42.323v26.69h-42.323z"/><path id="B" d="M275.005 485.034h32.621v26.692h-32.621z"/><path id="x" d="M242.008 320.355h36.073v27.177h-36.073z"/><path id="q" d="M145.591 487.365h70.099v45.93h-70.099z"/><path id="j" d="M187.651 205.984h52.693v33.891h-52.693z"/><path id="g" d="M58.236 363.846h90.051v41.525H58.236z"/><path id="d" d="M546.236 343.487h45.834v34.023h-45.834z"/><path id="a" d="M20.491 15.098h246.966v85.198H20.491z"/><path id="e" d="M546.236 343.487h45.834v34.023h-45.834z"/><path id="h" d="M546.236 343.487h45.834v34.023h-45.834z"/><path id="l" d="M187.651 205.984h52.693v33.891h-52.693z"/><path id="n" d="M187.651 205.984h52.693v33.891h-52.693z"/><path id="r" d="M187.651 205.984h52.693v33.891h-52.693z"/><path id="t" d="M546.236 343.487h45.834v34.023h-45.834z"/><path id="u" d="M546.236 343.487h45.834v34.023h-45.834z"/><path id="A" d="M242.008 320.355h36.073v27.177h-36.073z"/><path id="D" d="M275.005 485.034h32.621v26.692h-32.621z"/><path id="F" d="M546.236 343.487h45.834v34.023h-45.834z"/><path id="H" d="M546.236 343.487h45.834v34.023h-45.834z"/><path id="J" d="M546.236 343.487h45.834v34.023h-45.834z"/><path id="L" d="M546.236 343.487h45.834v34.023h-45.834z"/><path id="N" d="M546.236 343.487h45.834v34.023h-45.834z"/><path id="R" d="M223.436 542.958h42.323v26.69h-42.323z"/><path id="T" d="M223.436 542.958h42.323v26.69h-42.323z"/><path id="V" d="M223.436 542.958h42.323v26.69h-42.323z"/><marker id="b" markerHeight="1" markerWidth="1" orient="auto-start-reverse" preserveAspectRatio="xMidYMid" refX="0" refY="0" style="overflow:visible" viewBox="0 0 1 1"><path d="M3-3 0 0l3 3" style="fill:none;stroke:context-stroke;stroke-width:1;stroke-linecap:butt" transform="rotate(180 .125 0)"/></marker><marker id="c" markerHeight="1" markerWidth="1" orient="auto-start-reverse" preserveAspectRatio="xMidYMid" refX="0" refY="0" style="overflow:visible" viewBox="0 0 1 1"><path d="M3-3 0 0l3 3" style="fill:none;stroke:context-stroke;stroke-width:1;stroke-linecap:butt" transform="rotate(180 .125 0)"/></marker><marker id="f" markerHeight="1" markerWidth="1" orient="auto-start-reverse" preserveAspectRatio="xMidYMid" refX="0" refY="0" style="overflow:visible" viewBox="0 0 1 1"><path d="M3-3 0 0l3 3" style="fill:none;stroke:context-stroke;stroke-width:1;stroke-linecap:butt" transform="rotate(180 .125 0)"/></marker><marker id="i" markerHeight="1" markerWidth="1" orient="auto-start-reverse" preserveAspectRatio="xMidYMid" refX="0" refY="0" style="overflow:visible" viewBox="0 0 1 1"><path d="M3-3 0 0l3 3" style="fill:none;stroke:context-stroke;stroke-width:1;stroke-linecap:butt" transform="rotate(180 .125 0)"/></marker><marker id="k" markerHeight="1" markerWidth="1" orient="auto-start-reverse" preserveAspectRatio="xMidYMid" refX="0" refY="0" style="overflow:visible" viewBox="0 0 1 1"><path d="M3-3 0 0l3 3" style="fill:none;stroke:context-stroke;stroke-width:1;stroke-linecap:butt" transform="rotate(180 .125 0)"/></marker><marker id="m" markerHeight="1" markerWidth="1" orient="auto-start-reverse" preserveAspectRatio="xMidYMid" refX="0" refY="0" style="overflow:visible" viewBox="0 0 1 1"><path d="M3-3 0 0l3 3" style="fill:none;stroke:context-stroke;stroke-width:1;stroke-linecap:butt" transform="rotate(180 .125 0)"/></marker><marker id="o" markerHeight="1" markerWidth="1" orient="auto-start-reverse" preserveAspectRatio="xMidYMid" refX="0" refY="0" style="overflow:visible" viewBox="0 0 1 1"><path d="M3-3 0 0l3 3" style="fill:none;stroke:context-stroke;stroke-width:1;stroke-linecap:butt" transform="rotate(180 .125 0)"/></marker><marker id="p" markerHeight="1" markerWidth="1" orient="auto-start-reverse" preserveAspectRatio="xMidYMid" refX="0" refY="0" style="overflow:visible" viewBox="0 0 1 1"><path d="M3-3 0 0l3 3" style="fill:none;stroke:context-stroke;stroke-width:1;stroke-linecap:butt" transform="rotate(180 .125 0)"/></marker><marker id="s" markerHeight="1" markerWidth="1" orient="auto-start-reverse" preserveAspectRatio="xMidYMid" refX="0" refY="0" style="overflow:visible" viewBox="0 0 1 1"><path d="M3-3 0 0l3 3" style="fill:none;stroke:context-stroke;stroke-width:1;stroke-linecap:butt" transform="rotate(180 .125 0)"/></marker><marker id="v" markerHeight="1" markerWidth="1" orient="auto-start-reverse" preserveAspectRatio="xMidYMid" refX="0" refY="0" style="overflow:visible" viewBox="0 0 1 1"><path d="M3-3 0 0l3 3" style="fill:none;stroke:context-stroke;stroke-width:1;stroke-linecap:butt" transform="rotate(180 .125 0)"/></marker><marker id="w" markerHeight="1" markerWidth="1" orient="auto-start-reverse" preserveAspectRatio="xMidYMid" refX="0" refY="0" style="overflow:visible" viewBox="0 0 1 1"><path d="M3-3 0 0l3 3" style="fill:none;stroke:context-stroke;stroke-width:1;stroke-linecap:butt" transform="rotate(180 .125 0)"/></marker><marker id="y" markerHeight="1" markerWidth="1" orient="auto-start-reverse" preserveAspectRatio="xMidYMid" refX="0" refY="0" style="overflow:visible" viewBox="0 0 1 1"><path d="M3-3 0 0l3 3" style="fill:none;stroke:context-stroke;stroke-width:1;stroke-linecap:butt" transform="rotate(180 .125 0)"/></marker><marker id="z" markerHeight="1" markerWidth="1" orient="auto-start-reverse" preserveAspectRatio="xMidYMid" refX="0" refY="0" style="overflow:visible" viewBox="0 0 1 1"><path d="M3-3 0 0l3 3" style="fill:none;stroke:context-stroke;stroke-width:1;stroke-linecap:butt" transform="rotate(180 .125 0)"/></marker><marker id="C" markerHeight="1" markerWidth="1" orient="auto-start-reverse" preserveAspectRatio="xMidYMid" refX="0" refY="0" style="overflow:visible" viewBox="0 0 1 1"><path d="M3-3 0 0l3 3" style="fill:none;stroke:context-stroke;stroke-width:1;stroke-linecap:butt" transform="rotate(180 .125 0)"/></marker><marker id="E" markerHeight="1" markerWidth="1" orient="auto-start-reverse" preserveAspectRatio="xMidYMid" refX="0" refY="0" style="overflow:visible" viewBox="0 0 1 1"><path d="M3-3 0 0l3 3" style="fill:none;stroke:context-stroke;stroke-width:1;stroke-linecap:butt" transform="rotate(180 .125 0)"/></marker><marker id="G" markerHeight="1" markerWidth="1" orient="auto-start-reverse" preserveAspectRatio="xMidYMid" refX="0" refY="0" style="overflow:visible" viewBox="0 0 1 1"><path d="M3-3 0 0l3 3" style="fill:none;stroke:context-stroke;stroke-width:1;stroke-linecap:butt" transform="rotate(180 .125 0)"/></marker><marker id="I" markerHeight="1" markerWidth="1" orient="auto-start-reverse" preserveAspectRatio="xMidYMid" refX="0" refY="0" style="overflow:visible" viewBox="0 0 1 1"><path d="M3-3 0 0l3 3" style="fill:none;stroke:context-stroke;stroke-width:1;stroke-linecap:butt" transform="rotate(180 .125 0)"/></marker><marker id="K" markerHeight="1" markerWidth="1" orient="auto-start-reverse" preserveAspectRatio="xMidYMid" refX="0" refY="0" style="overflow:visible" viewBox="0 0 1 1"><path d="M3-3 0 0l3 3" style="fill:none;stroke:context-stroke;stroke-width:1;stroke-linecap:butt" transform="rotate(180 .125 0)"/></marker><marker id="M" markerHeight="1" markerWidth="1" orient="auto-start-reverse" preserveAspectRatio="xMidYMid" refX="0" refY="0" style="overflow:visible" viewBox="0 0 1 1"><path d="M3-3 0 0l3 3" style="fill:none;stroke:context-stroke;stroke-width:1;stroke-linecap:butt" transform="rotate(180 .125 0)"/></marker><marker id="O" markerHeight="1" markerWidth="1" orient="auto-start-reverse" preserveAspectRatio="xMidYMid" refX="0" refY="0" style="overflow:visible" viewBox="0 0 1 1"><path d="M3-3 0 0l3 3" style="fill:none;stroke:context-stroke;stroke-width:1;stroke-linecap:butt" transform="rotate(180 .125 0)"/></marker><marker id="Q" markerHeight="1" markerWidth="1" orient="auto-start-reverse" preserveAspectRatio="xMidYMid" refX="0" refY="0" style="overflow:visible" viewBox="0 0 1 1"><path d="M3-3 0 0l3 3" style="fill:none;stroke:context-stroke;stroke-width:1;stroke-linecap:butt" transform="rotate(180 .125 0)"/></marker><marker id="S" markerHeight="1" markerWidth="1" orient="auto-start-reverse" preserveAspectRatio="xMidYMid" refX="0" refY="0" style="overflow:visible" viewBox="0 0 1 1"><path d="M3-3 0 0l3 3" style="fill:none;stroke:context-stroke;stroke-width:1;stroke-linecap:butt" transform="rotate(180 .125 0)"/></marker><marker id="U" markerHeight="1" markerWidth="1" orient="auto-start-reverse" preserveAspectRatio="xMidYMid" refX="0" refY="0" style="overflow:visible" viewBox="0 0 1 1"><path d="M3-3 0 0l3 3" style="fill:none;stroke:context-stroke;stroke-width:1;stroke-linecap:butt" transform="rotate(180 .125 0)"/></marker></defs><path d="M53.502 181.186h62.652v55.082H53.502zM32.198 56.495h109.644v88.751H32.198z" style="fill:#fff;stroke:#fff;stroke-width:.264583;stroke-linejoin:round"/><g style="stroke-width:1.10165;stroke:#003380;fill:#acf"><path d="M-133.967 87.635h72.049v15.61h-72.049z" style="fill:#acf;stroke:#003380;stroke-width:.291476;stroke-linejoin:round" transform="matrix(0 -.99212 .83053 0 26.854 5.04)"/></g><path d="M53.502 93.936v15.61l46.218.016 9.133-15.548zM53.502 93.936v-15.61l46.218-.015 9.133 15.548z" style="fill:#59f;stroke:#003380;stroke-width:.264583;stroke-linejoin:round"/><g style="stroke-width:1.10165;stroke:#003380;fill:#acf"><path d="M-133.967 87.635h72.049v15.61h-72.049z" style="fill:#acf;stroke:#003380;stroke-width:.291476;stroke-linejoin:round" transform="matrix(0 -.99212 .83053 0 39.82 5.04)"/></g><text xml:space="preserve" style="font-size:16px;line-height:normal;font-family:&quot;Liberation Mono&quot;;-inkscape-font-specification:&quot;Liberation Mono&quot;;text-decoration-color:#000;white-space:pre;shape-inside:url(#a);display:inline;fill:#000;stroke-width:1;-inkscape-stroke:none;stop-color:#000" transform="scale(.26458)"><tspan x="20.49" y="29.334">src_house.svg</tspan></text><path d="M47.226 86.131h6.277v15.61h-6.277z" style="fill:#b7c8b7;stroke:#374837;stroke-width:.264583;stroke-linejoin:round"/><path d="M-115.838 63.723h6.277V99.72h-6.277z" style="fill:#b7c8b7;stroke:#374837;stroke-width:.264583;stroke-linejoin:round" transform="rotate(-90)"/><path d="m63.723 109.562 7.423.121V98.765l-7.423 3.045zM78.569 109.562l-7.423.121V98.765l7.423 3.045zM125.567 132.66l.122-7.423H114.77l3.045 7.423zM125.567 117.815l.122 7.422H114.77l3.045-7.422z" style="fill:#d5d5ff;stroke:#00a;stroke-width:.264583;stroke-linejoin:round"/><g style="stroke-width:3.102"><path d="M-133.967 87.635h72.049v15.61h-72.049z" style="fill:none;stroke:#000;stroke-width:.820732;stroke-linejoin:round" transform="matrix(0 -.21856 .4755 0 -89.653 94.564)"/></g><g style="stroke-width:3.102"><path d="M-133.967 87.635h72.049v15.61h-72.049z" style="fill:none;stroke:#000;stroke-width:.820732;stroke-linejoin:round" transform="matrix(0 -.21856 .4755 0 -82.23 94.564)"/></g><path d="M-82.682 87.445h77.184v15.61h-77.184zM-82.682 71.834h77.184v15.61h-77.184z" style="fill:none;stroke:#000;stroke-width:.264583;stroke-linejoin:round"/><path d="m116.42 93.804 9.401 15.875 4.865-.132v-15.61Z" style="fill:#59f;stroke:#003380;stroke-width:.264583;stroke-linejoin:round"/><path d="m-98.626 129.768 46.35-.133 9 15.82-9.132 15.548-46.218-.015zM-21.442 129.768l-4.998-.133-9.269 15.61 9.402 15.876 4.865-.133z" style="fill:#d7eef4;stroke:#216778;stroke-width:.264583;stroke-linejoin:round"/><path d="m116.42 94.069 9.401-15.875 4.865.132v15.61Z" style="fill:#59f;stroke:#003380;stroke-width:.264583;stroke-linejoin:round"/><path d="M73.708 71.225h12.965l.214 17.956-13.18-6.602Z" style="fill:#06f;stroke:#003380;stroke-width:.264583;stroke-linejoin:round"/><path d="M99.638 71.225H86.673l-.215 17.956 13.18-6.602z" style="fill:#06f;stroke:#003380;stroke-width:.264583;stroke-linejoin:round"/><g style="stroke-width:1.95458"><path d="M-133.967 87.635h72.049v15.61h-72.049z" style="fill:none;stroke:#000;stroke-width:.517146;stroke-linejoin:round" transform="matrix(0 -.31517 .83053 0 -109.345 16.815)"/></g><g style="stroke-width:1.95458"><path d="M-133.967 87.635h72.049v15.61h-72.049z" style="fill:none;stroke:#000;stroke-width:.517146;stroke-linejoin:round" transform="matrix(0 -.31517 .83053 0 -122.31 16.815)"/></g><path d="M90.762 103.288h10.391v3.834H90.762z" style="fill:#b7c4c8;stroke:#003380;stroke-width:.264583;stroke-linejoin:round"/><path d="M-117.513 101.153h10.391v3.834h-10.391z" style="fill:#b7c4c8;stroke:#003380;stroke-width:.264583;stroke-linejoin:round" transform="rotate(-90)"/><path d="M132.803 78.326v31.22" style="fill:#b7c4c8;stroke:#f55;stroke-width:.264583;stroke-linejoin:round;marker-start:url(#b);marker-end:url(#b)"/><path d="M99.638 64.354h25.93" style="fill:#b7c4c8;stroke:#f55;stroke-width:.264583;stroke-linejoin:round;marker-start:url(#b);marker-end:url(#b)"/><path d="M73.334 69.33h25.93" style="fill:#b7c4c8;stroke:#f55;stroke-width:.264583;stroke-linejoin:round;marker-start:url(#c);marker-end:url(#c)"/><path d="m90.762 103.288 5.196.078V96.4l-5.196 1.943zM101.153 103.288l-5.195.078V96.4l5.195 1.943zM104.987 107.122l-.078 5.196h6.966l-1.943-5.196z" style="fill:#00f;stroke:#00a;stroke-width:.264583;stroke-linejoin:round"/><path d="m104.987 117.513-.078-5.196h6.966l-1.943 5.196z" style="fill:#00f;stroke:#00a;stroke-width:.264583;stroke-linejoin:round"/><path d="M90.762 103.288v3.834h10.391v10.391h3.834v-10.391l-1.917-2.898-1.917-.936z" style="fill:#e2e3db;stroke:#676c53;stroke-width:.264583;stroke-linejoin:round"/><text xml:space="preserve" style="font-size:16px;line-height:normal;font-family:&quot;Liberation Mono&quot;;-inkscape-font-specification:&quot;Liberation Mono&quot;;text-decoration-color:#000;white-space:pre;shape-inside:url(#d);display:inline;fill:#f55;stroke-width:1;-inkscape-stroke:none;stop-color:#000" transform="translate(-9.987 .826)scale(.26458)"><tspan x="546.236" y="357.723">WA</tspan></text><text xml:space="preserve" style="font-size:16px;line-height:normal;font-family:&quot;Liberation Mono&quot;;-inkscape-font-specification:&quot;Liberation Mono&quot;;text-decoration-color:#000;white-space:pre;shape-inside:url(#e);display:inline;fill:#f55;stroke-width:1;-inkscape-stroke:none;stop-color:#000" transform="translate(-34.383 -32.265)scale(.26458)"><tspan x="546.236" y="357.723">WB</tspan></text><path d="M44.58 86.27v15.598" style="fill:#b7c4c8;stroke:#f55;stroke-width:.264583;stroke-linejoin:round;marker-start:url(#f);marker-end:url(#f)"/><text xml:space="preserve" style="font-size:16px;line-height:normal;font-family:&quot;Liberation Mono&quot;;-inkscape-font-specification:&quot;Liberation Mono&quot;;text-decoration-color:#000;white-space:pre;shape-inside:url(#g);display:inline;fill:#f55;stroke-width:1;-inkscape-stroke:none;stop-color:#000" transform="translate(20.355 -4.282)scale(.26458)"><tspan x="58.236" y="378.082">WA2</tspan></text><text xml:space="preserve" style="font-size:16px;line-height:normal;font-family:&quot;Liberation Mono&quot;;-inkscape-font-specification:&quot;Liberation Mono&quot;;text-decoration-color:#000;white-space:pre;shape-inside:url(#h);display:inline;fill:#f55;stroke-width:1;-inkscape-stroke:none;stop-color:#000" transform="translate(-59.966 -27.08)scale(.26458)"><tspan x="546.236" y="357.723">WC</tspan></text><path d="M53.824 75.844h19.534" style="fill:#b7c4c8;stroke:#f55;stroke-width:.264583;stroke-linejoin:round;marker-start:url(#i);marker-end:url(#i)"/><text xml:space="preserve" style="font-size:16px;line-height:normal;font-family:&quot;Liberation Mono&quot;;-inkscape-font-specification:&quot;Liberation Mono&quot;;text-decoration-color:#000;white-space:pre;shape-inside:url(#j);display:inline;fill:#f55;stroke-width:1;-inkscape-stroke:none;stop-color:#000" transform="translate(11.699 16.648)scale(.26458)"><tspan x="187.65" y="220.221">L1</tspan></text><path d="M47.173 83.873h6.118" style="fill:#b7c4c8;stroke:#f55;stroke-width:.264583;stroke-linejoin:round;marker-start:url(#k);marker-end:url(#k)"/><text xml:space="preserve" style="font-size:16px;line-height:normal;font-family:&quot;Liberation Mono&quot;;-inkscape-font-specification:&quot;Liberation Mono&quot;;text-decoration-color:#000;white-space:pre;shape-inside:url(#l);display:inline;fill:#f55;stroke-width:1;-inkscape-stroke:none;stop-color:#000" transform="translate(-2.188 24.018)scale(.26458)"><tspan x="187.65" y="220.221">S1</tspan></text><path d="M125.942 74.069h6.117" style="fill:#b7c4c8;stroke:#f55;stroke-width:.264583;stroke-linejoin:round;marker-start:url(#m);marker-end:url(#m)"/><text xml:space="preserve" style="font-size:16px;line-height:normal;font-family:&quot;Liberation Mono&quot;;-inkscape-font-specification:&quot;Liberation Mono&quot;;text-decoration-color:#000;white-space:pre;shape-inside:url(#n);display:inline;fill:#f55;stroke-width:1;-inkscape-stroke:none;stop-color:#000" transform="translate(76.58 14.214)scale(.26458)"><tspan x="187.65" y="220.221">L2</tspan></text><path d="M63.849 117.387H99" style="fill:#b7c4c8;stroke:#f55;stroke-width:.264583;stroke-linejoin:round;marker-start:url(#o);marker-end:url(#o)"/><path d="M61.607 115.68v-6.118" style="fill:#b7c4c8;stroke:#f55;stroke-width:.264583;stroke-linejoin:round;marker-start:url(#p);marker-end:url(#p)"/><text xml:space="preserve" style="font-size:16px;line-height:normal;font-family:&quot;Liberation Mono&quot;;-inkscape-font-specification:&quot;Liberation Mono&quot;;text-decoration-color:#000;white-space:pre;shape-inside:url(#q);display:inline;fill:#f55;stroke-width:1;-inkscape-stroke:none;stop-color:#000" transform="translate(17.12 -18.742)scale(.26458)"><tspan x="145.592" y="501.602">S2</tspan></text><text xml:space="preserve" style="font-size:16px;line-height:normal;font-family:&quot;Liberation Mono&quot;;-inkscape-font-specification:&quot;Liberation Mono&quot;;text-decoration-color:#000;white-space:pre;shape-inside:url(#r);display:inline;fill:#f55;stroke-width:1;-inkscape-stroke:none;stop-color:#000" transform="translate(29.093 63.325)scale(.26458)"><tspan x="187.65" y="220.221">L3</tspan></text><path d="M64.052 110.583H78.12" style="fill:#b7c4c8;stroke:#f55;stroke-width:.264583;stroke-linejoin:round;marker-start:url(#s);marker-end:url(#s)"/><text xml:space="preserve" style="font-size:16px;line-height:normal;font-family:&quot;Liberation Mono&quot;;-inkscape-font-specification:&quot;Liberation Mono&quot;;text-decoration-color:#000;white-space:pre;shape-inside:url(#t);display:inline;fill:#f55;stroke-width:1;-inkscape-stroke:none;stop-color:#000" transform="translate(-75.697 19.404)scale(.26458)"><tspan x="546.236" y="357.723">WD</tspan></text><text xml:space="preserve" style="font-size:16px;line-height:normal;font-family:&quot;Liberation Mono&quot;;-inkscape-font-specification:&quot;Liberation Mono&quot;;text-decoration-color:#000;white-space:pre;shape-inside:url(#u);display:inline;fill:#f55;stroke-width:1;-inkscape-stroke:none;stop-color:#000" transform="translate(-16.686 31.618)scale(.26458)"><tspan x="546.236" y="357.723">WD</tspan></text><path d="M127.276 132.27v-14.066" style="fill:#b7c4c8;stroke:#f55;stroke-width:.264583;stroke-linejoin:round;marker-start:url(#v);marker-end:url(#v)"/><path d="M75.93 77.926v-6.118" style="fill:#b7c4c8;stroke:#f55;stroke-width:.264583;stroke-linejoin:round;marker-start:url(#w);marker-end:url(#w)"/><text xml:space="preserve" style="font-size:16px;line-height:normal;font-family:&quot;Liberation Mono&quot;;-inkscape-font-specification:&quot;Liberation Mono&quot;;text-decoration-color:#000;white-space:pre;shape-inside:url(#x);display:inline;fill:#f55;stroke-width:1;-inkscape-stroke:none;stop-color:#000" transform="translate(12.63 -12.267)scale(.26458)"><tspan x="242.008" y="334.592">M1</tspan></text><path d="M123.362 78.165V66.797" style="fill:#b7c4c8;stroke:#f55;stroke-width:.264582;stroke-linejoin:round;marker-start:url(#y);marker-end:url(#y)"/><path d="M113.89 132.745v-22.438" style="fill:#b7c4c8;stroke:#f55;stroke-width:.264583;stroke-linejoin:round;marker-start:url(#z);marker-end:url(#z)"/><text xml:space="preserve" style="font-size:16px;line-height:normal;font-family:&quot;Liberation Mono&quot;;-inkscape-font-specification:&quot;Liberation Mono&quot;;text-decoration-color:#000;white-space:pre;shape-inside:url(#A);display:inline;fill:#f55;stroke-width:1;-inkscape-stroke:none;stop-color:#000" transform="translate(53.627 -14.652)scale(.26458)"><tspan x="242.008" y="334.592">M2</tspan></text><text xml:space="preserve" style="font-size:16px;line-height:normal;font-family:&quot;Liberation Mono&quot;;-inkscape-font-specification:&quot;Liberation Mono&quot;;text-decoration-color:#000;white-space:pre;shape-inside:url(#B);display:inline;fill:#f55;stroke-width:1;-inkscape-stroke:none;stop-color:#000" transform="translate(41.61 -15.173)scale(.26458)"><tspan x="275.006" y="499.27">M3</tspan></text><path d="M118.284 137.557v-4.575" style="fill:#b7c4c8;stroke:#f55;stroke-width:.264583;stroke-linejoin:round;marker-start:url(#C);marker-end:url(#C)"/><text xml:space="preserve" style="font-size:16px;line-height:normal;font-family:&quot;Liberation Mono&quot;;-inkscape-font-specification:&quot;Liberation Mono&quot;;text-decoration-color:#000;white-space:pre;shape-inside:url(#D);display:inline;fill:#f55;stroke-width:1;-inkscape-stroke:none;stop-color:#000" transform="translate(46.426 4.566)scale(.26458)"><tspan x="275.006" y="499.27">M4</tspan></text><path d="m60.852 213.168.162 14.015h38.208l.162-14.015L80.28 186.08z" style="fill:#f4e3d7;stroke:#a05a2c;stroke-width:.264584;stroke-linejoin:round"/><path d="M60.993 229.261h37.988" style="fill:#b7c4c8;stroke:#f55;stroke-width:.264583;stroke-linejoin:round;marker-start:url(#E);marker-end:url(#E)"/><text xml:space="preserve" style="font-size:16px;line-height:normal;font-family:&quot;Liberation Mono&quot;;-inkscape-font-specification:&quot;Liberation Mono&quot;;text-decoration-color:#000;white-space:pre;shape-inside:url(#F);display:inline;fill:#f55;stroke-width:1;-inkscape-stroke:none;stop-color:#000" transform="translate(-67.077 139.348)scale(.26458)"><tspan x="546.236" y="357.723">WA</tspan></text><path d="M100.933 227.064v-13.821" style="fill:#b7c4c8;stroke:#f55;stroke-width:.264583;stroke-linejoin:round;marker-start:url(#G);marker-end:url(#G)"/><text xml:space="preserve" style="font-size:16px;line-height:normal;font-family:&quot;Liberation Mono&quot;;-inkscape-font-specification:&quot;Liberation Mono&quot;;text-decoration-color:#000;white-space:pre;shape-inside:url(#H);display:inline;fill:#f55;stroke-width:1;-inkscape-stroke:none;stop-color:#000" transform="translate(-42.176 127.482)scale(.26458)"><tspan x="546.236" y="357.723">HA1</tspan></text><path d="M103.034 212.323v-26.242" style="fill:#b7c4c8;stroke:#f55;stroke-width:.264584;stroke-linejoin:round;marker-start:url(#I);marker-end:url(#I)"/><text xml:space="preserve" style="font-size:16px;line-height:normal;font-family:&quot;Liberation Mono&quot;;-inkscape-font-specification:&quot;Liberation Mono&quot;;text-decoration-color:#000;white-space:pre;shape-inside:url(#J);display:inline;fill:#f55;stroke-width:1;-inkscape-stroke:none;stop-color:#000" transform="translate(-39.82 105.949)scale(.26458)"><tspan x="546.236" y="357.723">HA2</tspan></text><path d="M90.82 104.386h10.275" style="fill:#b7c4c8;stroke:purple;stroke-width:.264583;stroke-linejoin:round;marker-start:url(#K);marker-end:url(#K)"/><text xml:space="preserve" style="font-size:16px;line-height:normal;font-family:&quot;Liberation Mono&quot;;-inkscape-font-specification:&quot;Liberation Mono&quot;;text-decoration-color:#000;white-space:pre;shape-inside:url(#L);display:inline;fill:purple;stroke-width:1;-inkscape-stroke:none;stop-color:#000" transform="translate(-50.804 13.245)scale(.26458)"><tspan x="546.236" y="357.723">WE</tspan></text><path d="M103.716 107.165v10.274" style="fill:#b7c4c8;stroke:#a40;stroke-width:.264583;stroke-linejoin:round;marker-start:url(#M);marker-end:url(#M)"/><text xml:space="preserve" style="font-size:16px;line-height:normal;font-family:&quot;Liberation Mono&quot;;-inkscape-font-specification:&quot;Liberation Mono&quot;;text-decoration-color:#000;white-space:pre;shape-inside:url(#N);display:inline;fill:#a40;stroke-width:1;-inkscape-stroke:none;stop-color:#000" transform="translate(-46.041 19.192)scale(.26458)"><tspan x="546.236" y="357.723">WE</tspan></text><path d="M89.136 94.109v9.216" style="fill:#b7c4c8;stroke:purple;stroke-width:.264583;stroke-linejoin:round;marker-start:url(#O);marker-end:url(#O)"/><text xml:space="preserve" style="font-size:16px;line-height:normal;font-family:&quot;Liberation Mono&quot;;-inkscape-font-specification:&quot;Liberation Mono&quot;;text-decoration-color:#000;white-space:pre;shape-inside:url(#P);fill:purple;stroke-width:1;-inkscape-stroke:none;stop-color:#000" transform="translate(21.892 -47.213)scale(.26458)"><tspan x="223.436" y="557.193">AE1</tspan></text><path d="M106.082 119.09h6.332" style="fill:#b7c4c8;stroke:#a40;stroke-width:.264583;stroke-linejoin:round;marker-start:url(#Q);marker-end:url(#Q)"/><text xml:space="preserve" style="font-size:16px;line-height:normal;font-family:&quot;Liberation Mono&quot;;-inkscape-font-specification:&quot;Liberation Mono&quot;;text-decoration-color:#000;white-space:pre;shape-inside:url(#R);display:inline;fill:#a40;stroke-width:1;-inkscape-stroke:none;stop-color:#000" transform="translate(45.524 -24.023)scale(.26458)"><tspan x="223.436" y="557.193">AE2</tspan></text><path d="M101.652 97.942h10.569" style="fill:#b7c4c8;stroke:purple;stroke-width:.264583;stroke-linejoin:round;marker-start:url(#S);marker-end:url(#S)"/><text xml:space="preserve" style="font-size:16px;line-height:normal;font-family:&quot;Liberation Mono&quot;;-inkscape-font-specification:&quot;Liberation Mono&quot;;text-decoration-color:#000;white-space:pre;shape-inside:url(#T);display:inline;fill:purple;stroke-width:1;-inkscape-stroke:none;stop-color:#000" transform="translate(41.737 -50.024)scale(.26458)"><tspan x="223.436" y="557.193">BE1</tspan></text><path d="M110.927 94.636v11.988" style="fill:#b7c4c8;stroke:#a40;stroke-width:.264583;stroke-linejoin:round;marker-start:url(#U);marker-end:url(#U)"/><text xml:space="preserve" style="font-size:16px;line-height:normal;font-family:&quot;Liberation Mono&quot;;-inkscape-font-specification:&quot;Liberation Mono&quot;;text-decoration-color:#000;white-space:pre;shape-inside:url(#V);display:inline;fill:#a40;stroke-width:1;-inkscape-stroke:none;stop-color:#000" transform="translate(43.963 -42.92)scale(.26458)"><tspan x="223.436" y="557.193">BE2</tspan></text></svg>