<svg xmlns="http://www.w3.org/2000/svg" width="600" height="3000" viewBox="0 0 158.75 793.75"><defs><path id="u" d="M239.429 1055.469h52.706v29.732h-52.706z"/><path id="t" d="M74.779 666.707h59.463v54.057H74.779z"/><path id="s" d="M352.724 513.094H509.04v40.092H352.724z"/><path id="l" d="M412.185 530.043h60.522v44.595h-60.522z"/><path id="k" d="M229.983 554.889h54.151v39.498h-54.151z"/><path id="j" d="M386.702 549.793h56.699v43.958h-56.699z"/><path id="i" d="M530.68 467.61h39.498v36.95H530.68z"/><path id="h" d="M491.182 454.232h52.877v58.611h-52.877z"/><path id="g" d="M437.668 510.931h64.981v46.506h-64.981z"/><path id="f" d="M397.532 531.955h45.232v40.135h-45.232z"/><path id="e" d="M422.378 463.151h52.24v51.603h-52.24z"/><path id="d" d="M437.031 472.707h46.506v45.869h-46.506z"/><path id="c" d="M450.409 272.667h46.506v51.603h-46.506z"/><path id="b" d="M461.877 388.613h51.603v48.417h-51.603z"/><path id="a" d="M12.104 17.838h208.959v33.765H12.104z"/><marker id="m" markerHeight="1" markerWidth="1" orient="auto-start-reverse" preserveAspectRatio="xMidYMid" refX="0" refY="0" style="overflow:visible" viewBox="0 0 1 1"><path d="M3-3 0 0l3 3" style="fill:none;stroke:context-stroke;stroke-width:1;stroke-linecap:butt" transform="rotate(180 .125 0)"/></marker><marker id="n" markerHeight="1" markerWidth="1" orient="auto-start-reverse" preserveAspectRatio="xMidYMid" refX="0" refY="0" style="overflow:visible" viewBox="0 0 1 1"><path d="M3-3 0 0l3 3" style="fill:none;stroke:context-stroke;stroke-width:1;stroke-linecap:butt" transform="rotate(180 .125 0)"/></marker><marker id="p" markerHeight="1" markerWidth="1" orient="auto-start-reverse" preserveAspectRatio="xMidYMid" refX="0" refY="0" style="overflow:visible" viewBox="0 0 1 1"><path d="M3-3 0 0l3 3" style="fill:none;stroke:context-stroke;stroke-width:1;stroke-linecap:butt" transform="rotate(180 .125 0)"/></marker><marker id="o" markerHeight="1" markerWidth="1" orient="auto-start-reverse" preserveAspectRatio="xMidYMid" refX="0" refY="0" style="overflow:visible" viewBox="0 0 1 1"><path d="M3-3 0 0l3 3" style="fill:none;stroke:context-stroke;stroke-width:1;stroke-linecap:butt" transform="rotate(180 .125 0)"/></marker><marker id="r" markerHeight="1" markerWidth="1" orient="auto-start-reverse" preserveAspectRatio="xMidYMid" refX="0" refY="0" style="overflow:visible" viewBox="0 0 1 1"><path d="M3-3 0 0l3 3" style="fill:none;stroke:context-stroke;stroke-width:1;stroke-linecap:butt" transform="rotate(180 .125 0)"/></marker><marker id="q" markerHeight="1" markerWidth="1" orient="auto-start-reverse" preserveAspectRatio="xMidYMid" refX="0" refY="0" style="overflow:visible" viewBox="0 0 1 1"><path d="M3-3 0 0l3 3" style="fill:none;stroke:context-stroke;stroke-width:1;stroke-linecap:butt" transform="rotate(180 .125 0)"/></marker></defs><path d="M26.698 47.676h100.357v98.212H26.698z" style="fill:#fff;stroke:#fff;stroke-width:.264583;stroke-linejoin:round;stroke-dasharray:none"/><circle cx="70.542" cy="95.788" r="41.195" style="fill:#ffb380;stroke:#ffb380;stroke-width:.264583;stroke-linejoin:round"/><circle cx="70.542" cy="95.788" r="35.903" style="fill:#fff;stroke:#ffb380;stroke-width:.264583;stroke-linejoin:round"/><path d="M34.738 95.03H54.61v1.517H34.738z" style="fill:#ffb380;stroke:#ffb380;stroke-width:.264583;stroke-linejoin:round"/><circle cx="70.542" cy="95.788" r="15.932" style="fill:#ffb380;stroke:#ffb380;stroke-width:.264583;stroke-linejoin:round"/><text xml:space="preserve" style="font-size:16px;line-height:normal;font-family:&quot;Liberation Mono&quot;;-inkscape-font-specification:&quot;Liberation Mono&quot;;text-decoration-color:#000;white-space:pre;shape-inside:url(#a);display:inline;fill:#000;stroke-width:1;-inkscape-stroke:none;stop-color:#000" transform="scale(.26458)"><tspan x="12.104" y="32.074">src_springTorqueA.svg</tspan></text><circle cx="70.542" cy="95.788" r="10.641" style="fill:#fff;stroke:#ffb380;stroke-width:.264583;stroke-linejoin:round"/><circle cx="-52.092" cy="93.428" r="38.263" style="fill:#a00;stroke:#a00;stroke-width:.264583;stroke-linejoin:round"/><circle cx="-52.092" cy="93.428" r="35.903" style="fill:#fff;stroke:#a00;stroke-width:.264583;stroke-linejoin:round"/><circle cx="-52.092" cy="93.428" r="13.316" style="fill:#a00;stroke:#a00;stroke-width:.264583;stroke-linejoin:round"/><circle cx="-52.092" cy="93.428" r="10.641" style="fill:#fff;stroke:#a00;stroke-width:.264583;stroke-linejoin:round"/><path d="M-52.092 57.525s-.198 2.085-.085 3.119c.063.575-.007 1.296.422 1.685.966.88 2.571.523 3.877.59 1.769.092 3.579-.635 5.31-.253 1.3.288 2.867.704 3.539 1.855.453.776.533 2.043-.084 2.697-1.105 1.168-3.198.481-4.804.421-1.906-.072-3.742-.828-5.647-.927-3.344-.174-6.77-.176-10.03.59-1.813.426-4.456.458-5.14 2.191-.485 1.229.42 3.032 1.601 3.624 3.04 1.525 6.545-2.326 9.945-2.275 2.787.041 6.322-.047 8.09 2.107.608.74.83 2.173.17 2.865-1.61 1.687-5.247-1.627-6.996-.084-1.123.991-.506 4.467-.506 4.467M-52.092 129.331s.197-2.084.084-3.118c-.063-.576.007-1.296-.422-1.686-.966-.88-2.571-.522-3.876-.59-1.77-.091-3.58.636-5.31.253-1.3-.287-2.868-.704-3.54-1.854-.453-.777-.533-2.043.085-2.697 1.104-1.168 3.197-.482 4.804-.421 1.906.072 3.741.828 5.646.927 3.345.174 6.77.176 10.03-.59 1.813-.426 4.457-.459 5.14-2.191.485-1.229-.42-3.032-1.6-3.624-3.04-1.525-6.545 2.326-9.946 2.275-2.786-.041-6.322.047-8.09-2.107-.608-.74-.83-2.173-.17-2.865 1.61-1.687 5.248 1.627 6.996.084 1.124-.991.506-4.467.506-4.467M-87.995 93.428s2.084.198 3.118.085c.576-.063 1.296.007 1.686-.422.88-.966.522-2.571.59-3.877.091-1.769-.636-3.579-.253-5.31.287-1.3.704-2.867 1.854-3.539.776-.453 2.043-.533 2.697.084 1.168 1.105.482 3.198.421 4.804-.072 1.906-.828 3.742-.927 5.647-.174 3.344-.176 6.77.59 10.03.426 1.813.459 4.456 2.191 5.14 1.229.485 3.032-.42 3.624-1.601 1.525-3.04-2.326-6.545-2.275-9.945.041-2.787-.047-6.322 2.107-8.09.74-.608 2.173-.83 2.865-.17 1.687 1.61-1.627 5.247-.084 6.996.991 1.123 4.467.506 4.467.506M-16.19 93.428s-2.084-.197-3.118-.084c-.576.063-1.296-.007-1.685.421-.88.967-.523 2.572-.59 3.877-.092 1.77.635 3.58.252 5.31-.287 1.3-.703 2.868-1.854 3.54-.776.453-2.043.533-2.697-.085-1.168-1.104-.481-3.197-.421-4.804.072-1.906.828-3.741.927-5.646.174-3.345.176-6.77-.59-10.03-.426-1.813-.458-4.457-2.191-5.14-1.229-.485-3.032.42-3.624 1.6-1.525 3.04 2.326 6.545 2.275 9.946-.041 2.786.047 6.322-2.107 8.09-.74.608-2.173.83-2.865.17-1.687-1.61 1.627-5.248.084-6.996-.991-1.124-4.467-.506-4.467-.506" style="fill:none;stroke:#a00;stroke-width:2.64583;stroke-linejoin:round;stroke-dasharray:none"/><path d="M-45.696 153.671h5.292v5.292h-5.292z" style="fill:#00f;stroke:#00f;stroke-width:.264583;stroke-linejoin:round"/><circle cx="109.224" cy="95.788" r="1.728" style="fill:#fff;stroke:#a00;stroke-width:.264583;stroke-linejoin:round"/><circle cx="70.253" cy="57.376" r="1.728" style="fill:#fff;stroke:#a00;stroke-width:.264583;stroke-linejoin:round"/><circle cx="31.988" cy="96.858" r="1.728" style="fill:#fff;stroke:#a00;stroke-width:.264583;stroke-linejoin:round"/><circle cx="70.549" cy="134.444" r="1.728" style="fill:#fff;stroke:#a00;stroke-width:.264583;stroke-linejoin:round"/><circle cx="98.558" cy="69.228" r="1.728" style="fill:#fff;stroke:#a00;stroke-width:.264583;stroke-linejoin:round"/><circle cx="42.983" cy="69.186" r="1.728" style="fill:#fff;stroke:#a00;stroke-width:.264583;stroke-linejoin:round"/><circle cx="43.266" cy="123.12" r="1.728" style="fill:#fff;stroke:#a00;stroke-width:.264583;stroke-linejoin:round"/><circle cx="100.382" cy="120.308" r="1.728" style="fill:#fff;stroke:#a00;stroke-width:.264583;stroke-linejoin:round"/><circle cx="83.596" cy="95.845" r="1.728" style="fill:#fff;stroke:#a00;stroke-width:.264583;stroke-linejoin:round"/><circle cx="76.903" cy="84.258" r="1.728" style="fill:#fff;stroke:#a00;stroke-width:.264583;stroke-linejoin:round"/><circle cx="63.283" cy="84.657" r="1.728" style="fill:#fff;stroke:#a00;stroke-width:.264583;stroke-linejoin:round"/><circle cx="57.387" cy="96.031" r="1.728" style="fill:#fff;stroke:#a00;stroke-width:.264583;stroke-linejoin:round"/><circle cx="63.405" cy="107.099" r="1.728" style="fill:#fff;stroke:#a00;stroke-width:.264583;stroke-linejoin:round"/><circle cx="77.646" cy="106.769" r="1.728" style="fill:#fff;stroke:#a00;stroke-width:.264583;stroke-linejoin:round"/><path d="M86.474 95.03h19.872v1.517H86.474z" style="fill:#ffb380;stroke:#ffb380;stroke-width:.264583;stroke-linejoin:round"/><path d="M-79.856 69.783h19.872V71.3h-19.872z" style="fill:#ffb380;stroke:#ffb380;stroke-width:.264583;stroke-linejoin:round" transform="rotate(-90)"/><path d="M111.721-71.3h19.872v1.517h-19.872z" style="fill:#ffb380;stroke:#ffb380;stroke-width:.264583;stroke-linejoin:round" transform="rotate(90)"/><circle cx="70.542" cy="95.639" r="38.817" style="fill:none;stroke:gray;stroke-width:.264583;stroke-linejoin:round"/><circle cx="70.542" cy="95.866" r="13.364" style="fill:none;stroke:gray;stroke-width:.264583;stroke-linejoin:round"/><text xml:space="preserve" style="font-size:16px;line-height:normal;font-family:&quot;Liberation Mono&quot;;-inkscape-font-specification:&quot;Liberation Mono&quot;;text-decoration-color:#000;white-space:pre;shape-inside:url(#b);display:inline;fill:#00f;stroke-width:1;-inkscape-stroke:none;stop-color:#000" transform="translate(-50.399 -10.956)scale(.26458)"><tspan x="461.877" y="402.85">D1</tspan></text><text xml:space="preserve" style="font-size:16px;line-height:normal;font-family:&quot;Liberation Mono&quot;;-inkscape-font-specification:&quot;Liberation Mono&quot;;text-decoration-color:#000;white-space:pre;shape-inside:url(#c);display:inline;fill:#00f;stroke-width:1;-inkscape-stroke:none;stop-color:#000" transform="translate(-6.742 3.371)scale(.26458)"><tspan x="450.41" y="286.902">D2</tspan></text><text xml:space="preserve" style="font-size:16px;line-height:normal;font-family:&quot;Liberation Mono&quot;;-inkscape-font-specification:&quot;Liberation Mono&quot;;text-decoration-color:#000;white-space:pre;shape-inside:url(#d);display:inline;fill:#00f;stroke-width:1;-inkscape-stroke:none;stop-color:#000" transform="translate(-51.41 -28.486)scale(.26458)"><tspan x="437.031" y="486.943">N1</tspan></text><text xml:space="preserve" style="font-size:16px;line-height:normal;font-family:&quot;Liberation Mono&quot;;-inkscape-font-specification:&quot;Liberation Mono&quot;;text-decoration-color:#000;white-space:pre;shape-inside:url(#e);display:inline;fill:#00f;stroke-width:1;-inkscape-stroke:none;stop-color:#000" transform="translate(-22.418 -71.637)scale(.26458)"><tspan x="422.379" y="477.387">N2</tspan></text><text xml:space="preserve" style="font-size:16px;line-height:normal;font-family:&quot;Liberation Mono&quot;;-inkscape-font-specification:&quot;Liberation Mono&quot;;text-decoration-color:#000;white-space:pre;shape-inside:url(#f);display:inline;fill:#00f;stroke-width:1;-inkscape-stroke:none;stop-color:#000" transform="translate(-21.407 -32.7)scale(.26458)"><tspan x="397.533" y="546.192">T1</tspan></text><text xml:space="preserve" style="font-size:16px;line-height:normal;font-family:&quot;Liberation Mono&quot;;-inkscape-font-specification:&quot;Liberation Mono&quot;;text-decoration-color:#000;white-space:pre;shape-inside:url(#g);display:inline;fill:#00f;stroke-width:1;-inkscape-stroke:none;stop-color:#000" transform="translate(-8.934 -13.485)scale(.26458)"><tspan x="437.668" y="525.168">T2</tspan></text><text xml:space="preserve" style="font-size:16px;line-height:normal;font-family:&quot;Liberation Mono&quot;;-inkscape-font-specification:&quot;Liberation Mono&quot;;text-decoration-color:#000;white-space:pre;shape-inside:url(#h);display:inline;fill:#00f;stroke-width:1;-inkscape-stroke:none;stop-color:#000" transform="translate(-48.756 -44.12)scale(.26458)"><tspan x="491.182" y="468.469">E1</tspan></text><text xml:space="preserve" style="font-size:16px;line-height:normal;font-family:&quot;Liberation Mono&quot;;-inkscape-font-specification:&quot;Liberation Mono&quot;;text-decoration-color:#000;white-space:pre;shape-inside:url(#i);display:inline;fill:#00f;stroke-width:1;-inkscape-stroke:none;stop-color:#000" transform="translate(-104.863 -64.643)scale(.26458)"><tspan x="530.68" y="481.846">E2</tspan></text><text xml:space="preserve" style="font-size:16px;line-height:normal;font-family:&quot;Liberation Mono&quot;;-inkscape-font-specification:&quot;Liberation Mono&quot;;text-decoration-color:#000;white-space:pre;shape-inside:url(#j);display:inline;fill:#00f;stroke-width:1;-inkscape-stroke:none;stop-color:#000" transform="translate(-8.596 -44.415)scale(.26458)"><tspan x="386.703" y="564.029">E3</tspan></text><text xml:space="preserve" style="font-size:16px;line-height:normal;font-family:&quot;Liberation Mono&quot;;-inkscape-font-specification:&quot;Liberation Mono&quot;;text-decoration-color:#000;white-space:pre;shape-inside:url(#k);display:inline;fill:#00f;stroke-width:1;-inkscape-stroke:none;stop-color:#000" transform="translate(-11.968 -36.409)scale(.26458)"><tspan x="229.982" y="569.125">N3</tspan></text><text xml:space="preserve" style="font-size:16px;line-height:normal;font-family:&quot;Liberation Mono&quot;;-inkscape-font-specification:&quot;Liberation Mono&quot;;text-decoration-color:#000;white-space:pre;shape-inside:url(#l);display:inline;fill:#00f;stroke-width:1;-inkscape-stroke:none;stop-color:#000" transform="translate(-65.4 -55.624)scale(.26458)"><tspan x="412.186" y="544.279">R3</tspan></text><path d="m73.491 55.119 14.665-2.192" style="fill:#00f;stroke:#00f;stroke-width:.264583;stroke-linejoin:round;marker-start:url(#m)"/><path d="m92.539 55.287 5.225 10.956" style="fill:#00f;stroke:#00f;stroke-width:.26458333;stroke-linejoin:round;stroke-dasharray:none;marker-end:url(#m)"/><path d="m65.906 101.304-1.18 3.54" style="fill:#00f;stroke:#00f;stroke-width:.264583;stroke-linejoin:round;stroke-dasharray:none;marker-end:url(#m)"/><path d="m69.109 101.135 6.574 4.045" style="fill:#00f;stroke:#00f;stroke-width:.264583;stroke-linejoin:round;stroke-dasharray:none;marker-end:url(#m)"/><path d="m63.547 98.101-3.877-1.348" style="fill:#00f;stroke:#00f;stroke-width:.264583;stroke-linejoin:round;stroke-dasharray:none;marker-end:url(#m)"/><path d="m77.2 92.876 4.214-3.034" style="fill:#00f;stroke:#00f;stroke-width:.264583;stroke-linejoin:round;stroke-dasharray:none;marker-end:url(#m)"/><path d="m111.754 77.705-4.382 2.192" style="fill:#00f;stroke:#00f;stroke-width:.264583;stroke-linejoin:round;stroke-dasharray:none;marker-end:url(#m)"/><path d="m83.436 110.743-4.214-2.697" style="fill:#00f;stroke:#00f;stroke-width:.264583;stroke-linejoin:round;stroke-dasharray:none;marker-end:url(#m)"/><path d="m106.023 123.89-4.045-2.528" style="fill:#00f;stroke:#00f;stroke-width:.264583;stroke-linejoin:round;stroke-dasharray:none;marker-end:url(#m)"/><path d="m35.734 93.887 7.248-5.73" style="fill:#00f;stroke:#00f;stroke-width:.264583;stroke-linejoin:round;stroke-dasharray:none;marker-start:url(#m)"/><path d="m53.264 93.718-4.55-5.393" style="fill:#00f;stroke:#00f;stroke-width:.264583;stroke-linejoin:round;stroke-dasharray:none;marker-start:url(#m)"/><path d="m48.882 109.563-1.517-11.462" style="fill:#00f;stroke:#00f;stroke-width:.264583;stroke-linejoin:round;stroke-dasharray:none;marker-end:url(#m)"/><path d="m53.939 114.62 14.833 5.73" style="fill:#00f;stroke:#00f;stroke-width:.264583;stroke-linejoin:round;stroke-dasharray:none;marker-end:url(#m)"/><path d="M94.898 96.753v4.55" style="fill:#00f;stroke:#00f;stroke-width:.264583;stroke-linejoin:round;stroke-dasharray:none;marker-start:url(#m)"/><path d="M94.848 94.783v-4.551" style="fill:#00f;stroke:#00f;stroke-width:.264583;stroke-linejoin:round;stroke-dasharray:none;marker-start:url(#n)"/><path d="m41.675 68.007 2.89 3.515" style="fill:#00f;stroke:#00f;stroke-width:.264583;stroke-linejoin:round;stroke-dasharray:none;marker-start:url(#o)"/><path d="m40.723 67.023-2.89-3.516" style="fill:#00f;stroke:#00f;stroke-width:.264583;stroke-linejoin:round;stroke-dasharray:none;marker-start:url(#p)"/><path d="m77.736 82.869-2.26 3.95" style="fill:#00f;stroke:#00f;stroke-width:.264583;stroke-linejoin:round;stroke-dasharray:none;marker-start:url(#q)"/><path d="m78.436 81.537 2.26-3.95" style="fill:#00f;stroke:#00f;stroke-width:.264583;stroke-linejoin:round;stroke-dasharray:none;marker-start:url(#r)"/><text xml:space="preserve" style="font-size:16px;line-height:normal;font-family:&quot;Liberation Mono&quot;;-inkscape-font-specification:&quot;Liberation Mono&quot;;text-decoration-color:#000;white-space:pre;shape-inside:url(#s);display:inline;fill:#00f;stroke-width:1;-inkscape-stroke:none;stop-color:#000" transform="translate(-11.204 2.622)scale(.26458)"><tspan x="352.725" y="527.33">Ring2: [On, Off]</tspan></text><path d="m92.49 137.901-2.145-5.363" style="fill:#00f;stroke:#00f;stroke-width:.264583;stroke-linejoin:round;stroke-dasharray:none;marker-end:url(#m)"/><path d="m29.082 137.067 5.244-10.012" style="fill:#fff;stroke:green;stroke-width:.264583;stroke-linejoin:round;marker-end:url(#m)"/><text xml:space="preserve" style="font-size:16px;line-height:normal;font-family:&quot;Liberation Mono&quot;;-inkscape-font-specification:&quot;Liberation Mono&quot;;text-decoration-color:#000;white-space:pre;shape-inside:url(#t);display:inline;fill:green;stroke-width:1;-inkscape-stroke:none;stop-color:#000" transform="translate(14.303 -44.577)scale(.26458)"><tspan x="74.779" y="680.943">Th</tspan></text><path d="M107.782 266.131h-54.97l39.032-38.712" style="fill:none;stroke:green;stroke-width:.264583;stroke-linejoin:round"/><ellipse cx="52.631" cy="266.313" rx="42.381" ry="42.386" style="fill:none;stroke:green;stroke-width:.264583;stroke-linejoin:round"/><path d="M52.813 258.276h54.969v15.711H52.813z" style="fill:none;stroke:#f60;stroke-width:.264583;stroke-linejoin:round"/><path d="M94.912-233.999h54.973v15.71H94.912z" style="fill:none;stroke:purple;stroke-width:.264583;stroke-linejoin:round" transform="rotate(135.235)skewX(-.007)"/><path d="m52.813 266.131 19.257-8.037v8.037" style="fill:none;stroke:#d4aa00;stroke-width:.264583;stroke-linejoin:round"/><path d="M58.64 263.765s.832.7.895 1.192c.046.362-.417 1.013-.417 1.013" style="fill:none;stroke:#4d4d4d;stroke-width:.264583;stroke-linejoin:round"/><text xml:space="preserve" style="font-size:16px;line-height:normal;font-family:&quot;Liberation Mono&quot;;-inkscape-font-specification:&quot;Liberation Mono&quot;;text-decoration-color:#000;white-space:pre;shape-inside:url(#u);fill:#000;stroke-width:1;-inkscape-stroke:none;stop-color:#000" transform="translate(-4.052 -18.415)scale(.26458)"><tspan x="239.43" y="1069.705">a2</tspan></text></svg>