<svg xmlns="http://www.w3.org/2000/svg" width="600" height="3000" viewBox="0 0 158.75 793.75"><defs><path id="y" d="M278.005 1477.647h70.099v45.405h-70.099z"/><path id="x" d="M270.836 1438.614h75.675v66.116h-75.675z"/><path id="w" d="M268.446 1445.784h99.572v50.184h-99.572z"/><path id="v" d="M292.343 1462.512h62.929v50.184h-62.929z"/><path id="u" d="M374.39 1429.852h81.251v69.302H374.39z"/><path id="r" d="M427.053 539.672H471.2v35.588h-44.147z"/><path id="q" d="M438.315 551.835h41.894v29.281h-41.894z"/><path id="p" d="M416.692 594.63h55.859v37.39h-55.859z"/><path id="n" d="M234.699 435.161h47.3v28.831h-47.3z"/><path id="m" d="M413.088 358.58h39.192v26.128h-39.192z"/><path id="k" d="M387.861 316.235h35.588v25.677h-35.588z"/><path id="f" d="M76.131 236.951h45.048v33.335H76.131z"/><path id="e" d="M253.168 163.523h34.687v22.524h-34.687z"/><path id="d" d="M309.028 182.443h44.147v25.677h-44.147z"/><path id="c" d="M356.778 219.383h46.85v30.182h-46.85z"/><path id="b" d="M395.97 275.242h44.147v31.984H395.97z"/><path id="a" d="M0 28.031h243.361v59.885H0z"/><path id="l" d="M387.861 316.235h35.588v25.677h-35.588z"/><marker id="g" markerHeight="1" markerWidth="1" orient="auto-start-reverse" preserveAspectRatio="xMidYMid" refX="0" refY="0" style="overflow:visible" viewBox="0 0 1 1"><path d="M3-3 0 0l3 3" style="fill:none;stroke:context-stroke;stroke-width:1;stroke-linecap:butt" transform="rotate(180 .125 0)"/></marker><marker id="h" markerHeight="1" markerWidth="1" orient="auto-start-reverse" preserveAspectRatio="xMidYMid" refX="0" refY="0" style="overflow:visible" viewBox="0 0 1 1"><path d="M3-3 0 0l3 3" style="fill:none;stroke:context-stroke;stroke-width:1;stroke-linecap:butt" transform="rotate(180 .125 0)"/></marker><marker id="j" markerHeight="1" markerWidth="1" orient="auto-start-reverse" preserveAspectRatio="xMidYMid" refX="0" refY="0" style="overflow:visible" viewBox="0 0 1 1"><path d="M3-3 0 0l3 3" style="fill:none;stroke:context-stroke;stroke-width:1;stroke-linecap:butt" transform="rotate(180 .125 0)"/></marker><marker id="i" markerHeight="1" markerWidth="1" orient="auto-start-reverse" preserveAspectRatio="xMidYMid" refX="0" refY="0" style="overflow:visible" viewBox="0 0 1 1"><path d="M3-3 0 0l3 3" style="fill:none;stroke:context-stroke;stroke-width:1;stroke-linecap:butt" transform="rotate(180 .125 0)"/></marker><marker id="o" markerHeight="1" markerWidth="1" orient="auto-start-reverse" preserveAspectRatio="xMidYMid" refX="0" refY="0" style="overflow:visible" viewBox="0 0 1 1"><path d="M3-3 0 0l3 3" style="fill:none;stroke:context-stroke;stroke-width:1;stroke-linecap:butt" transform="rotate(180 .125 0)"/></marker><marker id="s" markerHeight="1" markerWidth="1" orient="auto-start-reverse" preserveAspectRatio="xMidYMid" refX="0" refY="0" style="overflow:visible" viewBox="0 0 1 1"><path d="M3-3 0 0l3 3" style="fill:none;stroke:context-stroke;stroke-width:1;stroke-linecap:butt" transform="rotate(180 .125 0)"/></marker><marker id="t" markerHeight="1" markerWidth="1" orient="auto-start-reverse" preserveAspectRatio="xMidYMid" refX="0" refY="0" style="overflow:visible" viewBox="0 0 1 1"><path d="M3-3 0 0l3 3" style="fill:none;stroke:context-stroke;stroke-width:1;stroke-linecap:butt" transform="rotate(180 .125 0)"/></marker></defs><path d="M28.963 150.893h79.618v27.175H28.963zM18.951 41.12h92.967v84.028H18.951z" style="fill:#fff;stroke:#fff;stroke-width:.264583;stroke-linejoin:round"/><path d="m80.359 80.457-8.067-24.916s-1.259-2.058-2.15-2.842c-.683-.601-1.51-1.056-2.368-1.357-.619-.216-1.288-.299-1.943-.3a6.5 6.5 0 0 0-1.895.286c-.577.174-1.159.4-1.635.769-.996.771-2.413 2.91-2.413 2.91l-9.352 26.041-16.93 22.392s-1.45 2.735-1.509 4.232c-.044 1.116.373 2.238.874 3.237.266.53.66 1.002 1.1 1.4.632.572 1.366 1.06 2.16 1.373.727.285 1.523.453 2.302.426 1.073-.038 3.117-.805 3.117-.805l24.139-8.027 26.468 7.82s.86.05 1.284-.009c1.134-.158 2.315-.351 3.31-.916a5.8 5.8 0 0 0 2.052-1.96 7.36 7.36 0 0 0 1.074-3.56c.03-.983-.29-1.967-.675-2.87-.19-.445-.788-1.216-.788-1.216z" style="fill:#cfa;stroke:green;stroke-width:.264583;stroke-linejoin:round"/><circle cx="65.896" cy="88.91" r="10.25" style="fill:#55d400;stroke:#338000;stroke-width:.264583;stroke-linejoin:round"/><text xml:space="preserve" style="font-size:16px;line-height:normal;font-family:&quot;Liberation Mono&quot;;-inkscape-font-specification:&quot;Liberation Mono&quot;;text-decoration-color:#000;white-space:pre;shape-inside:url(#a);display:inline;fill:#000;stroke-width:1;-inkscape-stroke:none;stop-color:#000" transform="translate(4.383 -1.348)scale(.26458)"><tspan x="0" y="42.268">src_minifoot.svg</tspan></text><circle cx="66.031" cy="88.915" r="8.105" style="fill:#fff;stroke:#338000;stroke-width:.264583;stroke-linejoin:round"/><circle cx="65.921" cy="57.312" r="3.814" style="fill:#f9f9f9;stroke:#338000;stroke-width:.264583;stroke-linejoin:round"/><circle cx="65.789" cy="88.59" r="16.686" style="fill:none;stroke:#ccc;stroke-width:.264583;stroke-linejoin:round"/><circle cx="65.831" cy="57.478" r="6.436" style="fill:none;stroke:#ccc;stroke-width:.264583;stroke-linejoin:round"/><circle cx="93.631" cy="106.485" r="3.814" style="fill:#f9f9f9;stroke:#338000;stroke-width:.264583;stroke-linejoin:round"/><circle cx="93.541" cy="106.651" r="6.436" style="fill:none;stroke:#ccc;stroke-width:.264583;stroke-linejoin:round"/><circle cx="38.623" cy="107.505" r="3.814" style="fill:#f9f9f9;stroke:#338000;stroke-width:.264583;stroke-linejoin:round"/><circle cx="38.533" cy="107.672" r="6.436" style="fill:none;stroke:#ccc;stroke-width:.264583;stroke-linejoin:round"/><path d="m236.47 51.728 10.012 32.18 24.077 28.845M269.128 120.142l-36.71-10.727-35.518 11.68M228.604 52.92 217.162 85.1l-22.17 29.321" style="fill:none;stroke:#ffb380;stroke-width:.264583;stroke-linejoin:round"/><circle cx="65.837" cy="89.401" r="32.777" style="fill:none;stroke:#ccc;stroke-width:.264583;stroke-linejoin:round"/><text xml:space="preserve" style="font-size:16px;line-height:normal;font-family:&quot;Liberation Mono&quot;;-inkscape-font-specification:&quot;Liberation Mono&quot;;text-decoration-color:#000;white-space:pre;shape-inside:url(#b);display:inline;fill:#000;stroke-width:1;-inkscape-stroke:none;stop-color:#000" transform="scale(.26458)"><tspan x="395.969" y="289.479">D1</tspan></text><text xml:space="preserve" style="font-size:16px;line-height:normal;font-family:&quot;Liberation Mono&quot;;-inkscape-font-specification:&quot;Liberation Mono&quot;;text-decoration-color:#000;white-space:pre;shape-inside:url(#c);display:inline;fill:#000;stroke-width:1;-inkscape-stroke:none;stop-color:#000" transform="scale(.26458)"><tspan x="356.777" y="233.619">D3</tspan></text><text xml:space="preserve" style="font-size:16px;line-height:normal;font-family:&quot;Liberation Mono&quot;;-inkscape-font-specification:&quot;Liberation Mono&quot;;text-decoration-color:#000;white-space:pre;shape-inside:url(#d);display:inline;fill:#000;stroke-width:1;-inkscape-stroke:none;stop-color:#000" transform="scale(.26458)"><tspan x="309.027" y="196.68">D4</tspan></text><text xml:space="preserve" style="font-size:16px;line-height:normal;font-family:&quot;Liberation Mono&quot;;-inkscape-font-specification:&quot;Liberation Mono&quot;;text-decoration-color:#000;white-space:pre;shape-inside:url(#e);display:inline;fill:#000;stroke-width:1;-inkscape-stroke:none;stop-color:#000" transform="scale(.26458)"><tspan x="253.168" y="177.76">D5</tspan></text><text xml:space="preserve" style="font-size:16px;line-height:normal;font-family:&quot;Liberation Mono&quot;;-inkscape-font-specification:&quot;Liberation Mono&quot;;text-decoration-color:#000;white-space:pre;shape-inside:url(#f);display:inline;fill:#000;stroke-width:1;-inkscape-stroke:none;stop-color:#000" transform="scale(.26458)"><tspan x="76.131" y="251.188">N1</tspan></text><path d="m72.034 93.969-4.149-3.915" style="fill:#f9f9f9;stroke:#f60;stroke-width:.264583;stroke-linejoin:round;marker-start:url(#g)"/><path d="m73.905 95.597 3.431 3.235" style="fill:#f9f9f9;stroke:#f60;stroke-width:.264583;stroke-linejoin:round;marker-start:url(#h)"/><path d="m89.079 101.79-4.149-3.915" style="fill:#f9f9f9;stroke:#f60;stroke-width:.264583;stroke-linejoin:round;marker-start:url(#i)"/><path d="m91.188 103.895 3.431 3.235" style="fill:#f9f9f9;stroke:#f60;stroke-width:.264583;stroke-linejoin:round;marker-start:url(#j)"/><path d="M103.813 76.042 74.255 86.174" style="fill:#f9f9f9;stroke:#f60;stroke-width:.264583;stroke-linejoin:round;marker-end:url(#g)"/><path d="M93.802 62.217 76.28 75.089" style="fill:#f9f9f9;stroke:#f60;stroke-width:.264583;stroke-linejoin:round;marker-end:url(#g)"/><path d="m82.717 52.8-3.337 6.08" style="fill:#f9f9f9;stroke:#f60;stroke-width:.264583;stroke-linejoin:round;marker-end:url(#g)"/><path d="m67.818 47.556-1.191 5.364" style="fill:#f9f9f9;stroke:#f60;stroke-width:.264583;stroke-linejoin:round;marker-end:url(#g)"/><path d="m54.588 64.481-28.247.954 13.945 27.77" style="fill:none;stroke:#f60;stroke-width:.264583;stroke-linejoin:round;marker-end:url(#g);marker-start:url(#g)"/><text xml:space="preserve" style="font-size:16px;line-height:normal;font-family:&quot;Liberation Mono&quot;;-inkscape-font-specification:&quot;Liberation Mono&quot;;text-decoration-color:#000;white-space:pre;shape-inside:url(#k);display:inline;fill:#000;stroke-width:1;-inkscape-stroke:none;stop-color:#000" transform="translate(-39.69 4.41)scale(.26458)"><tspan x="387.861" y="330.471">S1</tspan></text><text xml:space="preserve" style="font-size:16px;line-height:normal;font-family:&quot;Liberation Mono&quot;;-inkscape-font-specification:&quot;Liberation Mono&quot;;text-decoration-color:#000;white-space:pre;shape-inside:url(#l);display:inline;fill:#000;stroke-width:1;-inkscape-stroke:none;stop-color:#000" transform="translate(-50.22 77.008)scale(.26458)"><tspan x="387.861" y="330.471">S1</tspan></text><text xml:space="preserve" style="font-size:16px;line-height:normal;font-family:&quot;Liberation Mono&quot;;-inkscape-font-specification:&quot;Liberation Mono&quot;;text-decoration-color:#000;white-space:pre;shape-inside:url(#m);display:inline;fill:#000;stroke-width:1;-inkscape-stroke:none;stop-color:#000" transform="translate(-23.48 .12)scale(.26458)"><tspan x="413.088" y="372.817">S5</tspan></text><text xml:space="preserve" style="font-size:16px;line-height:normal;font-family:&quot;Liberation Mono&quot;;-inkscape-font-specification:&quot;Liberation Mono&quot;;text-decoration-color:#000;white-space:pre;shape-inside:url(#n);display:inline;fill:#000;stroke-width:1;-inkscape-stroke:none;stop-color:#000" transform="scale(.26458)"><tspan x="234.699" y="449.399">R3</tspan></text><path d="m64.839 114.898.953-8.343" style="fill:none;stroke:#f60;stroke-width:.264583;stroke-linejoin:round;marker-end:url(#g)"/><path d="M33.373 168.295h71.156v2.861H33.373z" style="fill:#cfa;stroke:#803300;stroke-width:.264583;stroke-linejoin:round"/><path d="M61.561 159.236H76.34v9.058H61.561z" style="fill:#55d400;stroke:#338000;stroke-width:.264583;stroke-linejoin:round"/><path d="M63.289 159.236h11.323v11.919H63.289z" style="fill:#fff;stroke:#338000;stroke-width:.264583;stroke-linejoin:round"/><path d="M97.616 176.81v-5.126" style="fill:#fff;stroke:#f60;stroke-width:.264583;stroke-linejoin:round;marker-end:url(#g)"/><path d="M97.483 162.64v5.125" style="fill:#fff;stroke:#f60;stroke-width:.264583;stroke-linejoin:round;marker-end:url(#o)"/><text xml:space="preserve" style="font-size:16px;line-height:normal;font-family:&quot;Liberation Mono&quot;;-inkscape-font-specification:&quot;Liberation Mono&quot;;text-decoration-color:#000;white-space:pre;shape-inside:url(#p);display:inline;fill:#000;stroke-width:1;-inkscape-stroke:none;stop-color:#000" transform="translate(-12.237 2.603)scale(.26458)"><tspan x="416.691" y="608.867">H1</tspan></text><path d="M78.457 168.295v-9.059" style="fill:#fff;stroke:#f60;stroke-width:.264583;stroke-linejoin:round;marker-start:url(#g);marker-end:url(#g)"/><text xml:space="preserve" style="font-size:16px;line-height:normal;font-family:&quot;Liberation Mono&quot;;-inkscape-font-specification:&quot;Liberation Mono&quot;;text-decoration-color:#000;white-space:pre;shape-inside:url(#q);display:inline;fill:#000;stroke-width:1;-inkscape-stroke:none;stop-color:#000" transform="translate(-36.984 15.051)scale(.26458)"><tspan x="438.314" y="566.07">H2</tspan></text><path d="M63.862 157.649h10.297" style="fill:#fff;stroke:#f60;stroke-width:.264583;stroke-linejoin:round;marker-start:url(#g);marker-end:url(#g)"/><text xml:space="preserve" style="font-size:16px;line-height:normal;font-family:&quot;Liberation Mono&quot;;-inkscape-font-specification:&quot;Liberation Mono&quot;;text-decoration-color:#000;white-space:pre;shape-inside:url(#r);display:inline;fill:#000;stroke-width:1;-inkscape-stroke:none;stop-color:#000" transform="translate(-45.769 10.15)scale(.26458)"><tspan x="427.053" y="553.908">D1</tspan></text><path d="M57.964 163.497h3.272" style="fill:#fff;stroke:#f60;stroke-width:.264583;stroke-linejoin:round;marker-end:url(#s)"/><path d="M67.008 163.364h-3.271" style="fill:#fff;stroke:#f60;stroke-width:.264583;stroke-linejoin:round;marker-end:url(#t)"/><path d="M63.29 159.236v-6.674M74.612 159.236v-6.674" style="fill:#fff;stroke:#ccc;stroke-width:.264583;stroke-linejoin:round"/><path d="M32.3 255.302h68.653" style="fill:#fff;stroke:#666;stroke-width:.264583;stroke-linejoin:round"/><circle cx="101.595" cy="255.302" r="24.292" style="fill:none;stroke:#666;stroke-width:.264583;stroke-linejoin:round"/><circle cx="32.259" cy="255.302" r="18.182" style="fill:none;stroke:#666;stroke-width:.264583;stroke-linejoin:round"/><path d="M100.953 255.302 19.82 233.083M41.562 221.133l-9.297 34.151" style="fill:none;stroke:#ccc;stroke-width:.264583;stroke-linejoin:round"/><path d="m36.913 238.209 89.316-10.193M100.997 255.288l-5.064-44.713" style="fill:none;stroke:#ffd5d5;stroke-width:.264583;stroke-linejoin:round"/><path d="M50.038 338.945h68.653" style="fill:#fff;stroke:#666;stroke-width:.264583;stroke-linejoin:round"/><circle cx="119.333" cy="338.945" r="24.292" style="fill:none;stroke:#666;stroke-width:.264583;stroke-linejoin:round"/><circle cx="49.997" cy="338.945" r="18.182" style="fill:none;stroke:#666;stroke-width:.264583;stroke-linejoin:round"/><path d="m25.782 322.8 116.393-10.433M52.325 364.684l-4.574-51.477M119.939 353.578l-4.205-47.375" style="fill:none;stroke:#ffd5d5;stroke-width:.264583;stroke-linejoin:round"/><path d="m22.334 341.33 116.393-10.432" style="fill:none;stroke:#d4aa00;stroke-width:.264583;stroke-linejoin:round"/><path d="m48.584 322.65 2.608-.074-.224-2.012M116.589 316.724l2.608-.074-.224-2.012M116.18 332.794l.075 2.01 2.011-.172" style="fill:none;stroke:#d40000;stroke-width:.264583;stroke-linejoin:round"/><text xml:space="preserve" style="font-size:16px;line-height:normal;font-family:&quot;Liberation Mono&quot;;-inkscape-font-specification:&quot;Liberation Mono&quot;;text-decoration-color:#000;white-space:pre;shape-inside:url(#u);fill:#000;stroke-width:1;-inkscape-stroke:none;stop-color:#000" transform="translate(20.865 -39.834)scale(.26458)"><tspan x="374.391" y="1444.088">C</tspan></text><text xml:space="preserve" style="font-size:16px;line-height:normal;font-family:&quot;Liberation Mono&quot;;-inkscape-font-specification:&quot;Liberation Mono&quot;;text-decoration-color:#000;white-space:pre;shape-inside:url(#v);fill:#000;stroke-width:1;-inkscape-stroke:none;stop-color:#000" transform="translate(-30.771 -47.421)scale(.26458)"><tspan x="292.344" y="1476.748">A</tspan></text><text xml:space="preserve" style="font-size:16px;line-height:normal;font-family:&quot;Liberation Mono&quot;;-inkscape-font-specification:&quot;Liberation Mono&quot;;text-decoration-color:#000;white-space:pre;shape-inside:url(#w);fill:#000;stroke-width:1;-inkscape-stroke:none;stop-color:#000" transform="translate(-26.134 -66.811)scale(.26458)"><tspan x="268.445" y="1460.02">E</tspan></text><text xml:space="preserve" style="font-size:16px;line-height:normal;font-family:&quot;Liberation Mono&quot;;-inkscape-font-specification:&quot;Liberation Mono&quot;;text-decoration-color:#000;white-space:pre;shape-inside:url(#x);fill:#000;stroke-width:1;-inkscape-stroke:none;stop-color:#000" transform="translate(45.314 -71.026)scale(.26458)"><tspan x="270.836" y="1452.852">F</tspan></text><text xml:space="preserve" style="font-size:16px;line-height:normal;font-family:&quot;Liberation Mono&quot;;-inkscape-font-specification:&quot;Liberation Mono&quot;;text-decoration-color:#000;white-space:pre;shape-inside:url(#y);fill:#000;stroke-width:1;-inkscape-stroke:none;stop-color:#000" transform="translate(45.103 -63.65)scale(.26458)"><tspan x="278.004" y="1491.883">G</tspan></text></svg>