<svg xmlns="http://www.w3.org/2000/svg" width="600" height="3000" viewBox="0 0 158.75 793.75"><defs><marker id="b" markerHeight="1" markerWidth="1" orient="auto-start-reverse" preserveAspectRatio="xMidYMid" refX="0" refY="0" style="overflow:visible" viewBox="0 0 1 1"><path d="M3-3 0 0l3 3" style="fill:none;stroke:context-stroke;stroke-width:1;stroke-linecap:butt" transform="rotate(180,0.125,0)"/></marker><marker id="c" markerHeight="1" markerWidth="1" orient="auto-start-reverse" preserveAspectRatio="xMidYMid" refX="0" refY="0" style="overflow:visible" viewBox="0 0 1 1"><path d="M3-3 0 0l3 3" style="fill:none;stroke:context-stroke;stroke-width:1;stroke-linecap:butt" transform="rotate(180,0.125,0)"/></marker><marker id="d" markerHeight="1" markerWidth="1" orient="auto-start-reverse" preserveAspectRatio="xMidYMid" refX="0" refY="0" style="overflow:visible" viewBox="0 0 1 1"><path d="M3-3 0 0l3 3" style="fill:none;stroke:context-stroke;stroke-width:1;stroke-linecap:butt" transform="rotate(180,0.125,0)"/></marker><marker id="e" markerHeight="1" markerWidth="1" orient="auto-start-reverse" preserveAspectRatio="xMidYMid" refX="0" refY="0" style="overflow:visible" viewBox="0 0 1 1"><path d="M3-3 0 0l3 3" style="fill:none;stroke:context-stroke;stroke-width:1;stroke-linecap:butt" transform="rotate(180,0.125,0)"/></marker><marker id="f" markerHeight="1" markerWidth="1" orient="auto-start-reverse" preserveAspectRatio="xMidYMid" refX="0" refY="0" style="overflow:visible" viewBox="0 0 1 1"><path d="M3-3 0 0l3 3" style="fill:none;stroke:context-stroke;stroke-width:1;stroke-linecap:butt" transform="rotate(180,0.125,0)"/></marker><marker id="g" markerHeight="1" markerWidth="1" orient="auto-start-reverse" preserveAspectRatio="xMidYMid" refX="0" refY="0" style="overflow:visible" viewBox="0 0 1 1"><path d="M3-3 0 0l3 3" style="fill:none;stroke:context-stroke;stroke-width:1;stroke-linecap:butt" transform="rotate(180,0.125,0)"/></marker><marker id="h" markerHeight="1" markerWidth="1" orient="auto-start-reverse" preserveAspectRatio="xMidYMid" refX="0" refY="0" style="overflow:visible" viewBox="0 0 1 1"><path d="M3-3 0 0l3 3" style="fill:none;stroke:context-stroke;stroke-width:1;stroke-linecap:butt" transform="rotate(180,0.125,0)"/></marker><marker id="i" markerHeight="1" markerWidth="1" orient="auto-start-reverse" preserveAspectRatio="xMidYMid" refX="0" refY="0" style="overflow:visible" viewBox="0 0 1 1"><path d="M3-3 0 0l3 3" style="fill:none;stroke:context-stroke;stroke-width:1;stroke-linecap:butt" transform="rotate(180,0.125,0)"/></marker><marker id="j" markerHeight="1" markerWidth="1" orient="auto-start-reverse" preserveAspectRatio="xMidYMid" refX="0" refY="0" style="overflow:visible" viewBox="0 0 1 1"><path d="M3-3 0 0l3 3" style="fill:none;stroke:context-stroke;stroke-width:1;stroke-linecap:butt" transform="rotate(180,0.125,0)"/></marker><marker id="p" markerHeight="1" markerWidth="1" orient="auto-start-reverse" preserveAspectRatio="xMidYMid" refX="0" refY="0" style="overflow:visible" viewBox="0 0 1 1"><path d="M3-3 0 0l3 3" style="fill:none;stroke:context-stroke;stroke-width:1;stroke-linecap:butt" transform="rotate(180,0.125,0)"/></marker><marker id="s" markerHeight="1" markerWidth="1" orient="auto-start-reverse" preserveAspectRatio="xMidYMid" refX="0" refY="0" style="overflow:visible" viewBox="0 0 1 1"><path d="M3-3 0 0l3 3" style="fill:none;stroke:context-stroke;stroke-width:1;stroke-linecap:butt" transform="rotate(180,0.125,0)"/></marker><marker id="z" markerHeight="1" markerWidth="1" orient="auto-start-reverse" preserveAspectRatio="xMidYMid" refX="0" refY="0" style="overflow:visible" viewBox="0 0 1 1"><path d="M3-3 0 0l3 3" style="fill:none;stroke:context-stroke;stroke-width:1;stroke-linecap:butt" transform="rotate(180,0.125,0)"/></marker><marker id="A" markerHeight="1" markerWidth="1" orient="auto-start-reverse" preserveAspectRatio="xMidYMid" refX="0" refY="0" style="overflow:visible" viewBox="0 0 1 1"><path d="M3-3 0 0l3 3" style="fill:none;stroke:context-stroke;stroke-width:1;stroke-linecap:butt" transform="rotate(180,0.125,0)"/></marker><marker id="E" markerHeight="1" markerWidth="1" orient="auto-start-reverse" preserveAspectRatio="xMidYMid" refX="0" refY="0" style="overflow:visible" viewBox="0 0 1 1"><path d="M3-3 0 0l3 3" style="fill:none;stroke:context-stroke;stroke-width:1;stroke-linecap:butt" transform="rotate(180,0.125,0)"/></marker><marker id="G" markerHeight="1" markerWidth="1" orient="auto-start-reverse" preserveAspectRatio="xMidYMid" refX="0" refY="0" style="overflow:visible" viewBox="0 0 1 1"><path d="M3-3 0 0l3 3" style="fill:none;stroke:context-stroke;stroke-width:1;stroke-linecap:butt" transform="rotate(180,0.125,0)"/></marker><marker id="I" markerHeight="1" markerWidth="1" orient="auto-start-reverse" preserveAspectRatio="xMidYMid" refX="0" refY="0" style="overflow:visible" viewBox="0 0 1 1"><path d="M3-3 0 0l3 3" style="fill:none;stroke:context-stroke;stroke-width:1;stroke-linecap:butt" transform="rotate(180,0.125,0)"/></marker><marker id="K" markerHeight="1" markerWidth="1" orient="auto-start-reverse" preserveAspectRatio="xMidYMid" refX="0" refY="0" style="overflow:visible" viewBox="0 0 1 1"><path d="M3-3 0 0l3 3" style="fill:none;stroke:context-stroke;stroke-width:1;stroke-linecap:butt" transform="rotate(180,0.125,0)"/></marker><marker id="L" markerHeight="1" markerWidth="1" orient="auto-start-reverse" preserveAspectRatio="xMidYMid" refX="0" refY="0" style="overflow:visible" viewBox="0 0 1 1"><path d="M3-3 0 0l3 3" style="fill:none;stroke:context-stroke;stroke-width:1;stroke-linecap:butt" transform="rotate(180,0.125,0)"/></marker><marker id="O" markerHeight="1" markerWidth="1" orient="auto-start-reverse" preserveAspectRatio="xMidYMid" refX="0" refY="0" style="overflow:visible" viewBox="0 0 1 1"><path d="M3-3 0 0l3 3" style="fill:none;stroke:context-stroke;stroke-width:1;stroke-linecap:butt" transform="rotate(180,0.125,0)"/></marker><marker id="S" markerHeight="1" markerWidth="1" orient="auto-start-reverse" preserveAspectRatio="xMidYMid" refX="0" refY="0" style="overflow:visible" viewBox="0 0 1 1"><path d="M3-3 0 0l3 3" style="fill:none;stroke:context-stroke;stroke-width:1;stroke-linecap:butt" transform="rotate(180,0.125,0)"/></marker><marker id="U" markerHeight="1" markerWidth="1" orient="auto-start-reverse" preserveAspectRatio="xMidYMid" refX="0" refY="0" style="overflow:visible" viewBox="0 0 1 1"><path d="M3-3 0 0l3 3" style="fill:none;stroke:context-stroke;stroke-width:1;stroke-linecap:butt" transform="rotate(180,0.125,0)"/></marker><marker id="W" markerHeight="1" markerWidth="1" orient="auto-start-reverse" preserveAspectRatio="xMidYMid" refX="0" refY="0" style="overflow:visible" viewBox="0 0 1 1"><path d="M3-3 0 0l3 3" style="fill:none;stroke:context-stroke;stroke-width:1;stroke-linecap:butt" transform="rotate(180,0.125,0)"/></marker><marker id="Y" markerHeight="1" markerWidth="1" orient="auto-start-reverse" preserveAspectRatio="xMidYMid" refX="0" refY="0" style="overflow:visible" viewBox="0 0 1 1"><path d="M3-3 0 0l3 3" style="fill:none;stroke:context-stroke;stroke-width:1;stroke-linecap:butt" transform="rotate(180,0.125,0)"/></marker><marker id="Z" markerHeight="1" markerWidth="1" orient="auto-start-reverse" preserveAspectRatio="xMidYMid" refX="0" refY="0" style="overflow:visible" viewBox="0 0 1 1"><path d="M3-3 0 0l3 3" style="fill:none;stroke:context-stroke;stroke-width:1;stroke-linecap:butt" transform="rotate(180,0.125,0)"/></marker><marker id="ac" markerHeight="1" markerWidth="1" orient="auto-start-reverse" preserveAspectRatio="xMidYMid" refX="0" refY="0" style="overflow:visible" viewBox="0 0 1 1"><path d="M3-3 0 0l3 3" style="fill:none;stroke:context-stroke;stroke-width:1;stroke-linecap:butt" transform="rotate(180,0.125,0)"/></marker><marker id="ae" markerHeight="1" markerWidth="1" orient="auto-start-reverse" preserveAspectRatio="xMidYMid" refX="0" refY="0" style="overflow:visible" viewBox="0 0 1 1"><path d="M3-3 0 0l3 3" style="fill:none;stroke:context-stroke;stroke-width:1;stroke-linecap:butt" transform="rotate(180,0.125,0)"/></marker><marker id="ah" markerHeight="1" markerWidth="1" orient="auto-start-reverse" preserveAspectRatio="xMidYMid" refX="0" refY="0" style="overflow:visible" viewBox="0 0 1 1"><path d="M3-3 0 0l3 3" style="fill:none;stroke:context-stroke;stroke-width:1;stroke-linecap:butt" transform="rotate(180,0.125,0)"/></marker><marker id="aj" markerHeight="1" markerWidth="1" orient="auto-start-reverse" preserveAspectRatio="xMidYMid" refX="0" refY="0" style="overflow:visible" viewBox="0 0 1 1"><path d="M3-3 0 0l3 3" style="fill:none;stroke:context-stroke;stroke-width:1;stroke-linecap:butt" transform="rotate(180,0.125,0)"/></marker><marker id="ak" markerHeight="1" markerWidth="1" orient="auto-start-reverse" preserveAspectRatio="xMidYMid" refX="0" refY="0" style="overflow:visible" viewBox="0 0 1 1"><path d="M3-3 0 0l3 3" style="fill:none;stroke:context-stroke;stroke-width:1;stroke-linecap:butt" transform="rotate(180,0.125,0)"/></marker><marker id="R" markerHeight="1" markerWidth="1" orient="auto-start-reverse" preserveAspectRatio="xMidYMid" refX="0" refY="0" style="overflow:visible" viewBox="0 0 1 1"><path d="M3-3 0 0l3 3" style="fill:none;stroke:context-stroke;stroke-width:1;stroke-linecap:butt" transform="rotate(180,0.125,0)"/></marker><marker id="af" markerHeight="1" markerWidth="1" orient="auto-start-reverse" preserveAspectRatio="xMidYMid" refX="0" refY="0" style="overflow:visible" viewBox="0 0 1 1"><path d="M3-3 0 0l3 3" style="fill:none;stroke:context-stroke;stroke-width:1;stroke-linecap:butt" transform="rotate(180,0.125,0)"/></marker><marker id="am" markerHeight="1" markerWidth="1" orient="auto-start-reverse" preserveAspectRatio="xMidYMid" refX="0" refY="0" style="overflow:visible" viewBox="0 0 1 1"><path d="M3-3 0 0l3 3" style="fill:none;stroke:context-stroke;stroke-width:1;stroke-linecap:butt" transform="rotate(180,0.125,0)"/></marker><marker id="ao" markerHeight="1" markerWidth="1" orient="auto-start-reverse" preserveAspectRatio="xMidYMid" refX="0" refY="0" style="overflow:visible" viewBox="0 0 1 1"><path d="M3-3 0 0l3 3" style="fill:none;stroke:context-stroke;stroke-width:1;stroke-linecap:butt" transform="rotate(180,0.125,0)"/></marker><marker id="x" markerHeight="1" markerWidth="1" orient="auto-start-reverse" preserveAspectRatio="xMidYMid" refX="0" refY="0" style="overflow:visible" viewBox="0 0 1 1"><path d="M3-3 0 0l3 3" style="fill:none;stroke:context-stroke;stroke-width:1;stroke-linecap:butt" transform="rotate(180,0.125,0)"/></marker><marker id="aq" markerHeight="1" markerWidth="1" orient="auto-start-reverse" preserveAspectRatio="xMidYMid" refX="0" refY="0" style="overflow:visible" viewBox="0 0 1 1"><path d="M3-3 0 0l3 3" style="fill:none;stroke:context-stroke;stroke-width:1;stroke-linecap:butt" transform="rotate(180,0.125,0)"/></marker><marker id="at" markerHeight="1" markerWidth="1" orient="auto-start-reverse" preserveAspectRatio="xMidYMid" refX="0" refY="0" style="overflow:visible" viewBox="0 0 1 1"><path d="M3-3 0 0l3 3" style="fill:none;stroke:context-stroke;stroke-width:1;stroke-linecap:butt" transform="rotate(180,0.125,0)"/></marker><marker id="av" markerHeight="1" markerWidth="1" orient="auto-start-reverse" preserveAspectRatio="xMidYMid" refX="0" refY="0" style="overflow:visible" viewBox="0 0 1 1"><path d="M3-3 0 0l3 3" style="fill:none;stroke:context-stroke;stroke-width:1;stroke-linecap:butt" transform="rotate(180,0.125,0)"/></marker><marker id="ax" markerHeight="1" markerWidth="1" orient="auto-start-reverse" preserveAspectRatio="xMidYMid" refX="0" refY="0" style="overflow:visible" viewBox="0 0 1 1"><path d="M3-3 0 0l3 3" style="fill:none;stroke:context-stroke;stroke-width:1;stroke-linecap:butt" transform="rotate(180,0.125,0)"/></marker><marker id="ay" markerHeight="1" markerWidth="1" orient="auto-start-reverse" preserveAspectRatio="xMidYMid" refX="0" refY="0" style="overflow:visible" viewBox="0 0 1 1"><path d="M3-3 0 0l3 3" style="fill:none;stroke:context-stroke;stroke-width:1;stroke-linecap:butt" transform="rotate(180,0.125,0)"/></marker><path id="au" d="M442.765 2143.108h38.861v30.898h-38.861z"/><path id="ai" d="M287.587 1805.842h39.231v27.968h-39.231z"/><path id="D" d="M216.286 1208.206h48.099v22.616h-48.099z"/><path id="w" d="M289.23 473.981h60.522v38.861H289.23z"/><path id="v" d="M289.867 467.61h56.699v20.386h-56.699z"/><path id="u" d="M329.366 611.588h37.587v31.854h-37.587z"/><path id="q" d="M407.089 775.953h56.699v35.676h-56.699z"/><path id="o" d="M356.123 761.937h53.514v33.765h-53.514z"/><path id="n" d="M352.3 775.316h40.773v31.854H352.3z"/><path id="m" d="M206.411 763.211h63.07v53.514h-63.07z"/><path id="l" d="M481.626 598.847h42.047v33.765h-42.047z"/><path id="k" d="M273.941 754.93h57.336v32.491h-57.336z"/><path id="a" d="M20.386 19.112h286.682v64.981H20.386z"/><path id="r" d="M407.089 775.953h56.699v35.676h-56.699z"/><path id="t" d="M273.941 754.929h57.336v32.491h-57.336z"/><path id="B" d="M356.123 761.937h53.514v33.765h-53.514z"/><path id="C" d="M407.089 775.953h56.699v35.676h-56.699z"/><path id="F" d="M273.941 754.929h57.336v32.491h-57.336z"/><path id="H" d="M273.941 754.929h57.336v32.491h-57.336z"/><path id="J" d="M273.941 754.929h57.336v32.491h-57.336z"/><path id="M" d="M273.941 754.929h57.336v32.491h-57.336z"/><path id="N" d="M273.941 754.929h57.336v32.491h-57.336z"/><path id="P" d="M273.941 754.929h57.336v32.491h-57.336z"/><path id="T" d="M356.123 761.937h53.514v33.765h-53.514z"/><path id="V" d="M216.286 1208.206h48.099v22.616h-48.099z"/><path id="X" d="M273.941 754.929h57.336v32.491h-57.336z"/><path id="aa" d="M273.941 754.929h57.336v32.491h-57.336z"/><path id="ab" d="M273.941 754.929h57.336v32.491h-57.336z"/><path id="ad" d="M273.941 754.929h57.336v32.491h-57.336z"/><path id="ag" d="M356.123 761.937h53.514v33.765h-53.514z"/><path id="al" d="M352.3 775.316h40.773v31.854H352.3z"/><path id="Q" d="M287.587 1805.842h39.231v27.968h-39.231z"/><path id="an" d="M356.123 761.937h53.514v33.765h-53.514z"/><path id="ap" d="M273.941 754.929h57.336v32.491h-57.336z"/><path id="y" d="M273.941 754.929h57.336v32.491h-57.336z"/><path id="ar" d="M273.941 754.929h57.336v32.491h-57.336z"/><path id="as" d="M442.765 2143.108h38.861v30.898h-38.861z"/><path id="aw" d="M442.765 2143.108h38.861v30.898h-38.861z"/><path id="az" d="M442.765 2143.108h38.861v30.898h-38.861z"/></defs><path d="M35.903 542.758h87.145v79.054H35.903z" style="fill:#fff;stroke:#fff;stroke-width:.264583;stroke-linejoin:round"/><path d="M9.845 411.816h139.061V525.13H9.845zM7.079 54.444H146.14v138.049H7.079z" style="fill:#fff;fill-opacity:1;stroke:#fff;stroke-width:.264583;stroke-linejoin:round"/><path d="M110.912 182.359h10.25v-4.053L93.748 99.403h-6.803l.1 3.464 4.746-.11 25.555 75.072h-6.405z" style="fill:#e6e6e6;stroke:gray;stroke-width:.264583;stroke-linejoin:round"/><path d="M113.534 141.306h-3.032L94.53 96.848h-7.456v-2.503h6.741L89.1 81.235h-7.39V78.85h8.94z" style="fill:#e9ddaf;stroke:gray;stroke-width:.264583;stroke-linejoin:round"/><text xml:space="preserve" style="font-size:16px;line-height:normal;font-family:&quot;Liberation Mono&quot;;-inkscape-font-specification:&quot;Liberation Mono&quot;;text-decoration-color:#000;white-space:pre;shape-inside:url(#a);display:inline;fill:#000;stroke-width:1;-inkscape-stroke:none;stop-color:#000" transform="scale(0.26458333)"><tspan x="20.387" y="33.348">src_heliostat.svg</tspan></text><path d="M39.81 182.359H29.558v-4.053l27.413-78.903h6.803l-.1 3.464-4.746-.11-25.554 75.072h6.405z" style="fill:#e6e6e6;stroke:gray;stroke-width:.264583;stroke-linejoin:round"/><path d="M37.187 141.306h3.032L56.19 96.848h7.457v-2.503h-6.742l4.716-13.11h7.39V78.85h-8.94z" style="fill:#e9ddaf;stroke:gray;stroke-width:.264583;stroke-linejoin:round"/><path d="M10.727 83.499h130.75v7.986H10.727z" style="fill:#e9ddaf;stroke:gray;stroke-width:.264583;stroke-linejoin:round"/><path d="M10.727 84.691h130.75v5.602H10.727z" style="fill:#fff;stroke:gray;stroke-width:.264583;stroke-linejoin:round"/><path d="m19.19 91.617 24.636 31.57 2.385-6.51-19.87-25.06Z" style="fill:#e9ddaf;fill-opacity:1;stroke:gray;stroke-width:.264583;stroke-linejoin:round"/><path d="M20.798 91.485h4.112l20.77 26.64-1.327 3.623z" style="fill:#fff;fill-opacity:1;stroke:gray;stroke-width:.264583;stroke-linejoin:round"/><path d="m131.616 91.522-24.636 31.571-2.385-6.511 19.87-25.06Z" style="fill:#e9ddaf;fill-opacity:1;stroke:gray;stroke-width:.264583;stroke-linejoin:round"/><path d="M130.007 91.39h-4.112l-20.77 26.64 1.328 3.624z" style="fill:#fff;fill-opacity:1;stroke:gray;stroke-width:.264583;stroke-linejoin:round"/><path d="M81.263 159.085s-.15-1.396-.404-2.04a5 5 0 0 0-.906-1.463c-.376-.43-.816-.825-1.321-1.085-.785-.405-1.673-.68-2.553-.684a5.04 5.04 0 0 0-2.474.639 5.4 5.4 0 0 0-1.968 1.94c-.47.8-.742 2.693-.742 2.693v11.794s.13 1.326.364 1.94c.22.575.55 1.117.956 1.575.43.483.946.91 1.524 1.19.724.35 1.538.584 2.34.568.934-.019 1.91-.261 2.698-.77.893-.577 1.607-1.477 2.074-2.442.304-.63.412-2.06.412-2.06z" style="fill:#d7e3f4;fill-opacity:1;stroke:#214478;stroke-width:.264583;stroke-linejoin:round"/><circle cx="-30.537" cy="143.242" r="8.939" style="fill:#fff;fill-opacity:1;stroke:gray;stroke-width:.264583;stroke-linejoin:round"/><circle cx="-30.537" cy="163.237" r="8.939" style="fill:#fff;fill-opacity:1;stroke:gray;stroke-width:.264583;stroke-linejoin:round"/><path d="M10.727 57.635h9.939v25.864h-9.939zM43.894 57.635h9.939v25.864h-9.939zM97.115 57.635h9.939v25.864h-9.939zM131.538 57.635h9.939v25.864h-9.939z" style="fill:#e9ddaf;fill-opacity:1;stroke:gray;stroke-width:.264583;stroke-linejoin:round"/><path d="M29.559 185.005h91.603" style="fill:#e9ddaf;fill-opacity:1;stroke:#f55;stroke-width:.264583;stroke-linejoin:round;marker-start:url(#b);marker-end:url(#b)"/><path d="M70.895 177.122h10.368" style="fill:#e9ddaf;fill-opacity:1;stroke:#f55;stroke-width:.264584;stroke-linejoin:round;marker-start:url(#c);marker-end:url(#c)"/><path d="M82.83 175.99v-22.015" style="fill:#e9ddaf;fill-opacity:1;stroke:#f55;stroke-width:.264585;stroke-linejoin:round;marker-start:url(#d);marker-end:url(#d)"/><path d="M111.277 176.242h5.733" style="fill:#e9ddaf;fill-opacity:1;stroke:#f55;stroke-width:.264584;stroke-linejoin:round;marker-start:url(#e);marker-end:url(#e)"/><path d="M123.24 182.167v-3.843" style="fill:#e9ddaf;fill-opacity:1;stroke:#f55;stroke-width:.264584;stroke-linejoin:round;marker-start:url(#f);marker-end:url(#f)"/><path d="M87.046 103.925h4.783" style="fill:#e9ddaf;fill-opacity:1;stroke:#f55;stroke-width:.264584;stroke-linejoin:round;marker-start:url(#g);marker-end:url(#g)"/><path d="M84.867 102.357v-2.833" style="fill:#e9ddaf;fill-opacity:1;stroke:#f55;stroke-width:.264584;stroke-linejoin:round;marker-start:url(#h);marker-end:url(#h)"/><path d="M64.795 182.262V99.5" style="fill:#e9ddaf;fill-opacity:1;stroke:#f55;stroke-width:.264583;stroke-linejoin:round;marker-start:url(#i);marker-end:url(#i)"/><path d="m113.737 155.946 5.448-1.855" style="fill:#e9ddaf;fill-opacity:1;stroke:#f55;stroke-width:.264583;stroke-linejoin:round;marker-start:url(#b)"/><path d="m110.146 157.217-5.448 1.854" style="fill:#e9ddaf;fill-opacity:1;stroke:#f55;stroke-width:.264583;stroke-linejoin:round;marker-start:url(#j)"/><text xml:space="preserve" style="font-size:16px;line-height:normal;font-family:&quot;Liberation Mono&quot;;-inkscape-font-specification:&quot;Liberation Mono&quot;;text-decoration-color:#000;white-space:pre;shape-inside:url(#k);display:inline;fill:#a00;stroke-width:1;-inkscape-stroke:none;stop-color:#000" transform="matrix(0.26458333,0,0,0.26458333,1.3484677,-13.821794)"><tspan x="273.941" y="769.166">D1</tspan></text><text xml:space="preserve" style="font-size:16px;line-height:normal;font-family:&quot;Liberation Mono&quot;;-inkscape-font-specification:&quot;Liberation Mono&quot;;text-decoration-color:#000;white-space:pre;shape-inside:url(#l);display:inline;fill:#a00;stroke-width:1;-inkscape-stroke:none;stop-color:#000" transform="matrix(0.26458333,0,0,0.26458333,-2.1912599,19.384223)"><tspan x="481.625" y="613.084">E1</tspan></text><text xml:space="preserve" style="font-size:16px;line-height:normal;font-family:&quot;Liberation Mono&quot;;-inkscape-font-specification:&quot;Liberation Mono&quot;;text-decoration-color:#000;white-space:pre;shape-inside:url(#m);display:inline;fill:#a00;stroke-width:1;-inkscape-stroke:none;stop-color:#000" transform="matrix(0.26458333,0,0,0.26458333,10.787741,-65.929848)"><tspan x="206.41" y="777.447">L1</tspan></text><text xml:space="preserve" style="font-size:16px;line-height:normal;font-family:&quot;Liberation Mono&quot;;-inkscape-font-specification:&quot;Liberation Mono&quot;;text-decoration-color:#000;white-space:pre;shape-inside:url(#n);display:inline;fill:#a00;stroke-width:1;-inkscape-stroke:none;stop-color:#000" transform="matrix(0.26458333,0,0,0.26458333,25.620885,-50.736095)"><tspan x="352.301" y="789.553">E2</tspan></text><text xml:space="preserve" style="font-size:16px;line-height:normal;font-family:&quot;Liberation Mono&quot;;-inkscape-font-specification:&quot;Liberation Mono&quot;;text-decoration-color:#000;white-space:pre;shape-inside:url(#o);display:inline;fill:#a00;stroke-width:1;-inkscape-stroke:none;stop-color:#000" transform="matrix(0.26458333,0,0,0.26458333,-16.013053,-102.98922)"><tspan x="356.123" y="776.174">E3</tspan></text><path d="M82.768 182.468v-5.867" style="fill:#e9ddaf;fill-opacity:1;stroke:#f55;stroke-width:.264585;stroke-linejoin:round;marker-start:url(#p);marker-end:url(#p)"/><text xml:space="preserve" style="font-size:16px;line-height:normal;font-family:&quot;Liberation Mono&quot;;-inkscape-font-specification:&quot;Liberation Mono&quot;;text-decoration-color:#000;white-space:pre;shape-inside:url(#q);display:inline;fill:#a00;stroke-width:1;-inkscape-stroke:none;stop-color:#000" transform="matrix(0.26458333,0,0,0.26458333,3.3711691,-33.88025)"><tspan x="407.088" y="790.19">S1</tspan></text><text xml:space="preserve" style="font-size:16px;line-height:normal;font-family:&quot;Liberation Mono&quot;;-inkscape-font-specification:&quot;Liberation Mono&quot;;text-decoration-color:#000;white-space:pre;shape-inside:url(#r);display:inline;fill:#a00;stroke-width:1;-inkscape-stroke:none;stop-color:#000" transform="matrix(0.26458333,0,0,0.26458333,-21.027628,-100.71608)"><tspan x="407.088" y="790.19">S3</tspan></text><path d="M57.365 98.182h36.29" style="fill:#e9ddaf;fill-opacity:1;stroke:#f55;stroke-width:.264584;stroke-linejoin:round;marker-start:url(#s);marker-end:url(#s)"/><text xml:space="preserve" style="font-size:16px;line-height:normal;font-family:&quot;Liberation Mono&quot;;-inkscape-font-specification:&quot;Liberation Mono&quot;;text-decoration-color:#000;white-space:pre;shape-inside:url(#t);display:inline;fill:#a00;stroke-width:1;-inkscape-stroke:none;stop-color:#000" transform="matrix(0.26458333,0,0,0.26458333,0.65658616,-106.41752)"><tspan x="273.941" y="769.166">D3</tspan></text><text xml:space="preserve" style="font-size:16px;line-height:normal;font-family:&quot;Liberation Mono&quot;;-inkscape-font-specification:&quot;Liberation Mono&quot;;text-decoration-color:#000;white-space:pre;shape-inside:url(#u);display:inline;fill:#a00;stroke-width:1;-inkscape-stroke:none;stop-color:#000" transform="matrix(0.26458333,0,0,0.26458333,-3.3711691,1.5170261)"><tspan x="329.365" y="625.824">H1H</tspan></text><text xml:space="preserve" style="font-size:16px;line-height:normal;font-family:&quot;Liberation Mono&quot;;-inkscape-font-specification:&quot;Liberation Mono&quot;;text-decoration-color:#000;white-space:pre;shape-inside:url(#v);display:inline;fill:#a00;stroke-width:1;-inkscape-stroke:none;stop-color:#000" transform="matrix(0.26458333,0,0,0.26458333,7.753689,53.770148)"><tspan x="289.867" y="481.846">H1P</tspan></text><text xml:space="preserve" style="font-size:16px;line-height:normal;font-family:&quot;Liberation Mono&quot;;-inkscape-font-specification:&quot;Liberation Mono&quot;;text-decoration-color:#000;white-space:pre;shape-inside:url(#w);display:inline;fill:#a00;stroke-width:1;-inkscape-stroke:none;stop-color:#000" transform="matrix(0.26458333,0,0,0.26458333,-4.7196368,52.084563)"><tspan x="289.23" y="488.217">H1W</tspan></text><path d="M10.635 230.183h139.061v151.071H10.635z" style="fill:#fff;fill-opacity:1;stroke:#fff;stroke-width:.264583;stroke-linejoin:round"/><path d="M66.668 469.243h22.51" style="fill:#e9ddaf;fill-opacity:1;stroke:#999;stroke-width:.264584;stroke-linejoin:round;marker-start:url(#x);marker-end:url(#x)"/><text xml:space="preserve" style="font-size:16px;line-height:normal;font-family:&quot;Liberation Mono&quot;;-inkscape-font-specification:&quot;Liberation Mono&quot;;text-decoration-color:#000;white-space:pre;shape-inside:url(#y);display:inline;fill:#999;stroke-width:1;-inkscape-stroke:none;stop-color:#000" transform="matrix(0.26458333,0,0,0.26458333,2.2979752,269.19395)"><tspan x="273.941" y="769.166">D5</tspan></text><path d="M114.468 371.119h10.25v-4.053l-27.414-78.903h-6.803l.1 3.464 4.746-.11 25.555 75.072h-6.405z" style="fill:#e6e6e6;stroke:gray;stroke-width:.264583;stroke-linejoin:round"/><path d="M117.09 330.065h-3.032l-15.972-44.457H90.63v-2.503h6.741l-4.715-13.11h-7.39v-2.385h8.94z" style="fill:#e9ddaf;stroke:gray;stroke-width:.264583;stroke-linejoin:round"/><path d="M43.365 371.119h-10.25v-4.053l27.413-78.903h6.803l-.1 3.464-4.746-.11-25.554 75.072h6.405z" style="fill:#e6e6e6;stroke:gray;stroke-width:.264583;stroke-linejoin:round"/><path d="M40.743 330.065h3.032l15.971-44.457h7.457v-2.503H60.46l4.716-13.11h7.39v-2.385h-8.94z" style="fill:#e9ddaf;stroke:gray;stroke-width:.264583;stroke-linejoin:round"/><path d="M14.283 272.259h130.75v7.986H14.283z" style="fill:#e9ddaf;stroke:gray;stroke-width:.264583;stroke-linejoin:round"/><path d="M14.283 273.451h130.75v5.602H14.283z" style="fill:#fff;stroke:gray;stroke-width:.264583;stroke-linejoin:round"/><path d="m22.745 280.377 24.637 31.57 2.385-6.51-19.87-25.06z" style="fill:#e9ddaf;fill-opacity:1;stroke:gray;stroke-width:.264583;stroke-linejoin:round"/><path d="M24.354 280.244h4.112l20.77 26.64-1.327 3.624z" style="fill:#fff;fill-opacity:1;stroke:gray;stroke-width:.264583;stroke-linejoin:round"/><path d="m135.172 280.282-24.636 31.57-2.385-6.51 19.87-25.06z" style="fill:#e9ddaf;fill-opacity:1;stroke:gray;stroke-width:.264583;stroke-linejoin:round"/><path d="M133.563 280.15h-4.112l-20.77 26.64 1.328 3.623z" style="fill:#fff;fill-opacity:1;stroke:gray;stroke-width:.264583;stroke-linejoin:round"/><path d="M84.819 347.845s-.15-1.397-.404-2.041a5 5 0 0 0-.906-1.462c-.376-.43-.816-.826-1.321-1.086-.785-.404-1.673-.68-2.553-.683a5.04 5.04 0 0 0-2.474.639 5.4 5.4 0 0 0-1.969 1.939c-.469.801-.74 2.694-.74 2.694v11.794s.128 1.326.363 1.94c.22.575.55 1.117.956 1.575.43.483.946.91 1.524 1.19.724.35 1.538.584 2.34.568.934-.02 1.91-.261 2.698-.771.893-.577 1.607-1.476 2.074-2.441.303-.63.412-2.061.412-2.061z" style="fill:#d7e3f4;fill-opacity:1;stroke:#214478;stroke-width:.264583;stroke-linejoin:round"/><path d="M14.283 246.395h9.939v25.864h-9.939zM47.45 246.395h9.939v25.864H47.45zM100.671 246.395h9.939v25.864h-9.939zM135.094 246.395h9.939v25.864h-9.939z" style="fill:#e9ddaf;fill-opacity:1;stroke:gray;stroke-width:.264583;stroke-linejoin:round"/><path d="M111.876 330.02h1.93" style="fill:#e9ddaf;fill-opacity:1;stroke:#f55;stroke-width:.264584;stroke-linejoin:round;marker-start:url(#z);marker-end:url(#z)"/><path d="M67.688 287.584v-1.709" style="fill:#e9ddaf;fill-opacity:1;stroke:#f55;stroke-width:.264584;stroke-linejoin:round;marker-start:url(#A);marker-end:url(#A)"/><text xml:space="preserve" style="font-size:16px;line-height:normal;font-family:&quot;Liberation Mono&quot;;-inkscape-font-specification:&quot;Liberation Mono&quot;;text-decoration-color:#000;white-space:pre;shape-inside:url(#B);display:inline;fill:#a00;stroke-width:1;-inkscape-stroke:none;stop-color:#000" transform="matrix(0.26458333,0,0,0.26458333,-25.098972,82.905079)"><tspan x="356.123" y="776.174">Z3</tspan></text><text xml:space="preserve" style="font-size:16px;line-height:normal;font-family:&quot;Liberation Mono&quot;;-inkscape-font-specification:&quot;Liberation Mono&quot;;text-decoration-color:#000;white-space:pre;shape-inside:url(#C);display:inline;fill:#a00;stroke-width:1;-inkscape-stroke:none;stop-color:#000" transform="matrix(0.26458333,0,0,0.26458333,5.6208471,124.78945)"><tspan x="407.088" y="790.19">Z4</tspan></text><path d="M44.162 330.037H72.65" style="fill:#b3b3b3;stroke:#ccc;stroke-width:.264583;stroke-linejoin:round"/><path d="M57.226 329.785s1.006-3.442.252-4.889c-.857-1.645-4.72-2.95-4.72-2.95" style="fill:none;stroke:#338000;stroke-width:.264583;stroke-linejoin:round;marker-end:url(#b)"/><text xml:space="preserve" style="font-size:16px;line-height:normal;font-family:&quot;Liberation Mono&quot;;-inkscape-font-specification:&quot;Liberation Mono&quot;;text-decoration-color:#000;white-space:pre;shape-inside:url(#D);display:inline;fill:#338000;stroke-width:1;-inkscape-stroke:none;stop-color:#000" transform="scale(0.26458333)"><tspan x="216.285" y="1222.441">aInc</tspan></text><path d="M67.704 289.895h22.51" style="fill:#e9ddaf;fill-opacity:1;stroke:#999;stroke-width:.264584;stroke-linejoin:round;marker-start:url(#E);marker-end:url(#E)"/><text xml:space="preserve" style="font-size:16px;line-height:normal;font-family:&quot;Liberation Mono&quot;;-inkscape-font-specification:&quot;Liberation Mono&quot;;text-decoration-color:#000;white-space:pre;shape-inside:url(#F);display:inline;fill:#999;stroke-width:1;-inkscape-stroke:none;stop-color:#000" transform="matrix(0.26458333,0,0,0.26458333,3.3340071,89.846328)"><tspan x="273.941" y="769.166">D5</tspan></text><path d="M67.59 284.356H90.1" style="fill:#e9ddaf;fill-opacity:1;stroke:#999;stroke-width:.264584;stroke-linejoin:round;marker-start:url(#G);marker-end:url(#G)"/><text xml:space="preserve" style="font-size:16px;line-height:normal;font-family:&quot;Liberation Mono&quot;;-inkscape-font-specification:&quot;Liberation Mono&quot;;text-decoration-color:#000;white-space:pre;shape-inside:url(#H);display:inline;fill:#999;stroke-width:1;-inkscape-stroke:none;stop-color:#000" transform="matrix(0.26458333,0,0,0.26458333,3.2206567,80.603556)"><tspan x="273.941" y="769.166">D5</tspan></text><path d="M14.51 237.382h130.295" style="fill:#e9ddaf;fill-opacity:1;stroke:#f55;stroke-width:.264582;stroke-linejoin:round;marker-start:url(#I);marker-end:url(#I)"/><text xml:space="preserve" style="font-size:16px;line-height:normal;font-family:&quot;Liberation Mono&quot;;-inkscape-font-specification:&quot;Liberation Mono&quot;;text-decoration-color:#000;white-space:pre;shape-inside:url(#J);display:inline;fill:#a00;stroke-width:1;-inkscape-stroke:none;stop-color:#000" transform="matrix(0.26458333,0,0,0.26458333,4.5242065,32.566334)"><tspan x="273.941" y="769.166">L9</tspan></text><path d="M57.605 250.363h42.85" style="fill:#e9ddaf;fill-opacity:1;stroke:#f55;stroke-width:.264582;stroke-linejoin:round;marker-start:url(#K);marker-end:url(#K)"/><path d="M14.21 244.846h10.085" style="fill:#e9ddaf;fill-opacity:1;stroke:#f55;stroke-width:.264581;stroke-linejoin:round;marker-start:url(#L);marker-end:url(#L)"/><text xml:space="preserve" style="font-size:16px;line-height:normal;font-family:&quot;Liberation Mono&quot;;-inkscape-font-specification:&quot;Liberation Mono&quot;;text-decoration-color:#000;white-space:pre;shape-inside:url(#M);display:inline;fill:#a00;stroke-width:1;-inkscape-stroke:none;stop-color:#000" transform="matrix(0.26458333,0,0,0.26458333,3.9111765,45.493179)"><tspan x="273.941" y="769.166">L8</tspan></text><text xml:space="preserve" style="font-size:16px;line-height:normal;font-family:&quot;Liberation Mono&quot;;-inkscape-font-specification:&quot;Liberation Mono&quot;;text-decoration-color:#000;white-space:pre;shape-inside:url(#N);display:inline;fill:#a00;stroke-width:1;-inkscape-stroke:none;stop-color:#000" transform="matrix(0.26458333,0,0,0.26458333,-55.873614,40.408852)"><tspan x="273.941" y="769.166">W8</tspan></text><path d="M47.503 244.947h10.085" style="fill:#e9ddaf;fill-opacity:1;stroke:#f55;stroke-width:.264581;stroke-linejoin:round;marker-start:url(#O);marker-end:url(#O)"/><text xml:space="preserve" style="font-size:16px;line-height:normal;font-family:&quot;Liberation Mono&quot;;-inkscape-font-specification:&quot;Liberation Mono&quot;;text-decoration-color:#000;white-space:pre;shape-inside:url(#P);display:inline;fill:#a00;stroke-width:1;-inkscape-stroke:none;stop-color:#000" transform="matrix(0.26458333,0,0,0.26458333,-22.580783,40.509379)"><tspan x="273.941" y="769.166">W8</tspan></text><path d="M116.299 511.699h-3.032l-15.972-44.457H89.84v-2.503h6.741l-4.715-13.111h-7.39v-2.384h8.94zM39.952 511.699h3.032l15.972-44.457h7.456v-2.503h-6.741l4.715-13.111h7.39v-2.384h-8.94z" style="fill:#e9ddaf;stroke:gray;stroke-width:.264583;stroke-linejoin:round"/><path d="M13.492 453.892h130.75v7.986H13.492z" style="fill:#e9ddaf;stroke:gray;stroke-width:.264583;stroke-linejoin:round"/><path d="M13.492 455.084h130.75v5.602H13.492z" style="fill:#fff;stroke:gray;stroke-width:.264583;stroke-linejoin:round"/><text xml:space="preserve" style="font-size:16px;line-height:normal;font-family:&quot;Liberation Mono&quot;;-inkscape-font-specification:&quot;Liberation Mono&quot;;text-decoration-color:#000;white-space:pre;shape-inside:url(#Q);display:inline;fill:#a00;stroke-width:1;-inkscape-stroke:none;stop-color:#000" transform="matrix(0.26458333,0,0,0.26458333,34.73095,-22.336799)"><tspan x="287.586" y="1820.078">D6</tspan></text><path d="M116.565 461.647v-7.693" style="fill:#e9ddaf;fill-opacity:1;stroke:#f55;stroke-width:.264584;stroke-linejoin:round;marker-start:url(#R);marker-end:url(#R)"/><path d="m21.955 462.01 24.636 31.571 2.385-6.511-19.87-25.06z" style="fill:#e9ddaf;fill-opacity:1;stroke:gray;stroke-width:.264583;stroke-linejoin:round"/><path d="M23.564 461.878h4.112l20.77 26.64-1.328 3.624z" style="fill:#fff;fill-opacity:1;stroke:gray;stroke-width:.264583;stroke-linejoin:round"/><path d="m134.382 461.916-24.637 31.57-2.385-6.51 19.87-25.06z" style="fill:#e9ddaf;fill-opacity:1;stroke:gray;stroke-width:.264583;stroke-linejoin:round"/><path d="M132.773 461.784h-4.112l-20.77 26.64 1.327 3.623z" style="fill:#fff;fill-opacity:1;stroke:gray;stroke-width:.264583;stroke-linejoin:round"/><path d="M13.492 428.029h9.939v25.864h-9.939zM46.659 428.029h9.939v25.864h-9.939zM99.88 428.029h9.939v25.864H99.88zM134.303 428.029h9.939v25.864h-9.939z" style="fill:#e9ddaf;fill-opacity:1;stroke:gray;stroke-width:.264583;stroke-linejoin:round"/><path d="M67.956 466.939v-2.155" style="fill:#e9ddaf;fill-opacity:1;stroke:#f55;stroke-width:.264584;stroke-linejoin:round;marker-start:url(#S);marker-end:url(#S)"/><text xml:space="preserve" style="font-size:16px;line-height:normal;font-family:&quot;Liberation Mono&quot;;-inkscape-font-specification:&quot;Liberation Mono&quot;;text-decoration-color:#000;white-space:pre;shape-inside:url(#T);display:inline;fill:#a00;stroke-width:1;-inkscape-stroke:none;stop-color:#000" transform="matrix(0.26458333,0,0,0.26458333,-24.831424,261.89295)"><tspan x="356.123" y="776.174">E5</tspan></text><path d="M43.372 511.671h28.486" style="fill:#b3b3b3;stroke:#ccc;stroke-width:.264583;stroke-linejoin:round"/><path d="M51.143 511.418s1.007-3.44.253-4.888c-.857-1.645-4.72-2.95-4.72-2.95" style="fill:none;stroke:#338000;stroke-width:.264583;stroke-linejoin:round;marker-end:url(#U)"/><text xml:space="preserve" style="font-size:16px;line-height:normal;font-family:&quot;Liberation Mono&quot;;-inkscape-font-specification:&quot;Liberation Mono&quot;;text-decoration-color:#000;white-space:pre;shape-inside:url(#V);display:inline;fill:#338000;stroke-width:1;-inkscape-stroke:none;stop-color:#000" transform="matrix(0.26458333,0,0,0.26458333,-6.0824529,181.63372)"><tspan x="216.285" y="1222.441">aInc</tspan></text><path d="M13.72 419.016h130.294" style="fill:#e9ddaf;fill-opacity:1;stroke:#f55;stroke-width:.264582;stroke-linejoin:round;marker-start:url(#W);marker-end:url(#W)"/><text xml:space="preserve" style="font-size:16px;line-height:normal;font-family:&quot;Liberation Mono&quot;;-inkscape-font-specification:&quot;Liberation Mono&quot;;text-decoration-color:#000;white-space:pre;shape-inside:url(#X);display:inline;fill:#a00;stroke-width:1;-inkscape-stroke:none;stop-color:#000" transform="matrix(0.26458333,0,0,0.26458333,3.7334201,214.20005)"><tspan x="273.941" y="769.166">L9</tspan></text><path d="M56.814 431.997h42.85" style="fill:#e9ddaf;fill-opacity:1;stroke:#f55;stroke-width:.264582;stroke-linejoin:round;marker-start:url(#Y);marker-end:url(#Y)"/><path d="M13.42 426.48h10.084" style="fill:#e9ddaf;fill-opacity:1;stroke:#f55;stroke-width:.264581;stroke-linejoin:round;marker-start:url(#Z);marker-end:url(#Z)"/><text xml:space="preserve" style="font-size:16px;line-height:normal;font-family:&quot;Liberation Mono&quot;;-inkscape-font-specification:&quot;Liberation Mono&quot;;text-decoration-color:#000;white-space:pre;shape-inside:url(#aa);display:inline;fill:#a00;stroke-width:1;-inkscape-stroke:none;stop-color:#000" transform="matrix(0.26458333,0,0,0.26458333,3.1203911,227.1269)"><tspan x="273.941" y="769.166">L8</tspan></text><text xml:space="preserve" style="font-size:16px;line-height:normal;font-family:&quot;Liberation Mono&quot;;-inkscape-font-specification:&quot;Liberation Mono&quot;;text-decoration-color:#000;white-space:pre;shape-inside:url(#ab);display:inline;fill:#a00;stroke-width:1;-inkscape-stroke:none;stop-color:#000" transform="matrix(0.26458333,0,0,0.26458333,-56.6644,222.04257)"><tspan x="273.941" y="769.166">W8</tspan></text><path d="M46.712 426.58h10.085" style="fill:#e9ddaf;fill-opacity:1;stroke:#f55;stroke-width:.264581;stroke-linejoin:round;marker-start:url(#ac);marker-end:url(#ac)"/><text xml:space="preserve" style="font-size:16px;line-height:normal;font-family:&quot;Liberation Mono&quot;;-inkscape-font-specification:&quot;Liberation Mono&quot;;text-decoration-color:#000;white-space:pre;shape-inside:url(#ad);display:inline;fill:#a00;stroke-width:1;-inkscape-stroke:none;stop-color:#000" transform="matrix(0.26458333,0,0,0.26458333,-23.371569,222.1431)"><tspan x="273.941" y="769.166">W8</tspan></text><path d="M73.278 451.584v-2.156" style="fill:#e9ddaf;fill-opacity:1;stroke:#f55;stroke-width:.264584;stroke-linejoin:round;marker-start:url(#ae);marker-end:url(#ae)"/><path d="M125.804 453.498v-3.541" style="fill:#e9ddaf;fill-opacity:1;stroke:#f55;stroke-width:.264585;stroke-linejoin:round;marker-start:url(#af)"/><text xml:space="preserve" style="font-size:16px;line-height:normal;font-family:&quot;Liberation Mono&quot;;-inkscape-font-specification:&quot;Liberation Mono&quot;;text-decoration-color:#000;white-space:pre;shape-inside:url(#ag);display:inline;fill:#a00;stroke-width:1;-inkscape-stroke:none;stop-color:#000" transform="matrix(0.26458333,0,0,0.26458333,-20.037875,246.53758)"><tspan x="356.123" y="776.174">E7</tspan></text><path d="M90.51 464.198v-12.106" style="fill:#e9ddaf;fill-opacity:1;stroke:#f55;stroke-width:.264584;stroke-linejoin:round;marker-start:url(#ah);marker-end:url(#ah)"/><text xml:space="preserve" style="font-size:16px;line-height:normal;font-family:&quot;Liberation Mono&quot;;-inkscape-font-specification:&quot;Liberation Mono&quot;;text-decoration-color:#000;white-space:pre;shape-inside:url(#ai);display:inline;fill:#a00;stroke-width:1;-inkscape-stroke:none;stop-color:#000" transform="matrix(0.26458333,0,0,0.26458333,9.1955833,-22.020371)"><tspan x="287.586" y="1820.078">H6</tspan></text><path d="m113.023 501.336 5.447-1.854" style="fill:#e9ddaf;fill-opacity:1;stroke:#f55;stroke-width:.264583;stroke-linejoin:round;marker-start:url(#aj)"/><path d="m109.515 502.523-5.447 1.855" style="fill:#e9ddaf;fill-opacity:1;stroke:#f55;stroke-width:.264583;stroke-linejoin:round;marker-start:url(#ak)"/><text xml:space="preserve" style="font-size:16px;line-height:normal;font-family:&quot;Liberation Mono&quot;;-inkscape-font-specification:&quot;Liberation Mono&quot;;text-decoration-color:#000;white-space:pre;shape-inside:url(#al);display:inline;fill:#a00;stroke-width:1;-inkscape-stroke:none;stop-color:#000" transform="matrix(0.26458333,0,0,0.26458333,24.990519,294.5703)"><tspan x="352.301" y="789.553">E4</tspan></text><path d="M125.802 455.366v3.541" style="fill:#e9ddaf;fill-opacity:1;stroke:#f55;stroke-width:.264585;stroke-linejoin:round;marker-start:url(#am)"/><text xml:space="preserve" style="font-size:16px;line-height:normal;font-family:&quot;Liberation Mono&quot;;-inkscape-font-specification:&quot;Liberation Mono&quot;;text-decoration-color:#000;white-space:pre;shape-inside:url(#an);display:inline;fill:#a00;stroke-width:1;-inkscape-stroke:none;stop-color:#000" transform="matrix(0.26458333,0,0,0.26458333,25.931153,244.97258)"><tspan x="356.123" y="776.174">E6</tspan></text><path d="M64.873 511.231v-43.45" style="fill:#e9ddaf;fill-opacity:1;stroke:#f55;stroke-width:.264583;stroke-linejoin:round;marker-start:url(#ao);marker-end:url(#ao)"/><text xml:space="preserve" style="font-size:16px;line-height:normal;font-family:&quot;Liberation Mono&quot;;-inkscape-font-specification:&quot;Liberation Mono&quot;;text-decoration-color:#000;white-space:pre;shape-inside:url(#ap);display:inline;fill:#a00;stroke-width:1;-inkscape-stroke:none;stop-color:#000" transform="matrix(0.26458333,0,0,0.26458333,-6.8818531,288.2446)"><tspan x="273.941" y="769.166">L4</tspan></text><path d="M72.395 446.975h11.333" style="fill:#e9ddaf;fill-opacity:1;stroke:#f55;stroke-width:.264584;stroke-linejoin:round;marker-start:url(#aq);marker-end:url(#aq)"/><text xml:space="preserve" style="font-size:16px;line-height:normal;font-family:&quot;Liberation Mono&quot;;-inkscape-font-specification:&quot;Liberation Mono&quot;;text-decoration-color:#000;white-space:pre;shape-inside:url(#ar);display:inline;fill:#a00;stroke-width:1;-inkscape-stroke:none;stop-color:#000" transform="matrix(0.26458333,0,0,0.26458333,2.5584411,242.16362)"><tspan x="273.941" y="769.166">D7</tspan></text><circle cx="75.261" cy="582.959" r="35.819" style="fill:#e6e6e6;stroke:gray;stroke-width:.264583;stroke-linejoin:round"/><ellipse cx="75.261" cy="582.959" rx="24.642" ry="24.947" style="fill:#fff;stroke:gray;stroke-width:.264583;stroke-linejoin:round"/><text xml:space="preserve" style="font-size:16px;line-height:normal;font-family:&quot;Liberation Mono&quot;;-inkscape-font-specification:&quot;Liberation Mono&quot;;text-decoration-color:#000;white-space:pre;shape-inside:url(#as);display:inline;fill:#a00;stroke-width:1;-inkscape-stroke:none;stop-color:#000" transform="matrix(0.26458333,0,0,0.26458333,-43.717158,-4.0545474)"><tspan x="442.764" y="2157.344">W1</tspan></text><path d="M75.343 563.806v-5.515" style="fill:#a00;stroke:#f55;stroke-width:.264583;stroke-linejoin:round;marker-end:url(#at)"/><ellipse cx="75.261" cy="554.027" rx="2.253" ry="2.283" style="fill:#fff;stroke:gray;stroke-width:.264583;stroke-linejoin:round"/><ellipse cx="86.287" cy="556.393" rx="2.253" ry="2.283" style="fill:#fff;stroke:gray;stroke-width:.264583;stroke-linejoin:round"/><ellipse cx="95.222" cy="561.736" rx="2.253" ry="2.283" style="fill:#fff;stroke:gray;stroke-width:.264583;stroke-linejoin:round"/><ellipse cx="100.904" cy="569.565" rx="2.253" ry="2.283" style="fill:#fff;stroke:gray;stroke-width:.264583;stroke-linejoin:round"/><ellipse cx="65.199" cy="556.103" rx="2.253" ry="2.283" style="fill:#fff;stroke:gray;stroke-width:.264583;stroke-linejoin:round"/><path d="m110.911 575.711 6.659-3.034" style="fill:#f55;stroke:#f55;stroke-width:.264583;stroke-linejoin:round;marker-start:url(#b)"/><text xml:space="preserve" style="font-size:16px;line-height:normal;font-family:&quot;Liberation Mono&quot;;-inkscape-font-specification:&quot;Liberation Mono&quot;;text-decoration-color:#000;white-space:pre;shape-inside:url(#au);fill:#a00;stroke-width:1;-inkscape-stroke:none;stop-color:#000" transform="matrix(0.26458333,0,0,0.26458333,-0.33711692,1.4327469)"><tspan x="442.764" y="2157.344">D1</tspan></text><path d="M75.261 554.548v1.432" style="fill:#a00;stroke:#f55;stroke-width:.264583;stroke-linejoin:round;marker-end:url(#b)"/><path d="m103.24 568.043 6.657-3.034" style="fill:#f55;stroke:#f55;stroke-width:.264583;stroke-linejoin:round;marker-start:url(#av)"/><text xml:space="preserve" style="font-size:16px;line-height:normal;font-family:&quot;Liberation Mono&quot;;-inkscape-font-specification:&quot;Liberation Mono&quot;;text-decoration-color:#000;white-space:pre;shape-inside:url(#aw);display:inline;fill:#a00;stroke-width:1;-inkscape-stroke:none;stop-color:#000" transform="matrix(0.26458333,0,0,0.26458333,-8.009504,-6.2355084)"><tspan x="442.764" y="2157.344">D2</tspan></text><path d="m88.76 555.367 14.158-6.405" style="fill:#f55;stroke:#f55;stroke-width:.264583;stroke-linejoin:round;marker-start:url(#ax)"/><path d="m96.905 559.556 7.248-9.86" style="fill:#f55;stroke:#f55;stroke-width:.264583;stroke-linejoin:round;marker-start:url(#ay)"/><text xml:space="preserve" style="font-size:16px;line-height:normal;font-family:&quot;Liberation Mono&quot;;-inkscape-font-specification:&quot;Liberation Mono&quot;;text-decoration-color:#000;white-space:pre;shape-inside:url(#az);display:inline;fill:#a00;stroke-width:1;-inkscape-stroke:none;stop-color:#000" transform="matrix(0.26458333,0,0,0.26458333,-14.121129,-22.11264)"><tspan x="442.764" y="2157.344">N2</tspan></text></svg>