<svg xmlns="http://www.w3.org/2000/svg" width="600" height="3000" viewBox="0 0 158.75 793.75"><defs><path id="ap" d="M204.517 1629.827h162.172v34.236H204.517z"/><path id="ao" d="M384.375 1619.917h148.99v51.294h-148.99z"/><path id="an" d="M210.928 1668.568h173.447v51.354H210.928z"/><path id="am" d="M166.694 1606.403h171.043v60.364H166.694z"/><path id="al" d="M515.174 1399.601h45.131v31.58h-45.131z"/><path id="ah" d="M297.194 1435.003h43.958v28.031h-43.958z"/><path id="Z" d="M-87.916 1172.211h332.551v93.012H-87.916z"/><path id="Y" d="M215.33 1204.065h256.103v85.368H215.33z"/><path id="X" d="M272.667 1150.551h87.916v53.514h-87.916z"/><path id="W" d="M216.604 1150.551h149.075v62.433H216.604z"/><path id="V" d="M402.19 1091.056h47.837v28.38H402.19z"/><path id="U" d="M425.696 692.384h48.206v25.227h-48.206z"/><path id="T" d="M519.4 888.959h38.291v33.723H519.4z"/><path id="R" d="M506.337 715.358h42.795v28.17h-42.795z"/><path id="P" d="M393.71 854.313h52.24v46.506h-52.24z"/><path id="N" d="M427.475 832.4h83.456v44.85h-83.456z"/><path id="H" d="M-100.456 483.362H4.055v31.984h-104.511z"/><path id="G" d="M-99.556 433.81H10.811v31.533H-99.556z"/><path id="F" d="M-94.15 383.807H4.054v25.227H-94.15z"/><path id="D" d="M-118.495 424.289h70.078v47.78h-70.078z"/><path id="C" d="M255.466 81.545h77.723v45.869h-77.723z"/><path id="A" d="M217.878 101.931h68.804v56.062h-68.804z"/><path id="w" d="M193.033 119.769h80.908v51.603h-80.908z"/><path id="u" d="M175.436 100.02h110.417v41.41H175.436z"/><path id="l" d="M173.92 612.863h67.53v43.321h-67.53z"/><path id="k" d="M426.838 668.288h35.676v38.861h-35.676z"/><path id="j" d="M386.065 618.596h50.329v28.668h-50.329z"/><path id="i" d="M270.755 606.492h84.093v45.869h-84.093z"/><path id="h" d="M190.484 581.646h54.151v41.41h-54.151z"/><path id="c" d="M24.209 21.66h183.477v43.321H24.209z"/><path id="v" d="M175.436 100.02h110.417v41.41H175.436z"/><path id="x" d="M193.033 119.769h80.908v51.603h-80.908z"/><path id="y" d="M193.033 119.769h80.908v51.603h-80.908z"/><path id="z" d="M193.033 119.769h80.908v51.603h-80.908z"/><path id="J" d="M386.065 618.596h50.329v28.668h-50.329z"/><path id="L" d="M190.484 581.646h54.151v41.41h-54.151z"/><path id="b" d="M426.838 668.288h35.676v38.861h-35.676z"/><path id="ab" d="M386.065 618.596h50.329v28.668h-50.329z"/><path id="ad" d="M426.838 668.288h35.676v38.861h-35.676z"/><path id="af" d="M190.484 581.646h54.151v41.41h-54.151z"/><path id="aj" d="M297.194 1435.003h43.958v28.031h-43.958z"/><marker id="d" markerHeight="1" markerWidth="1" orient="auto-start-reverse" preserveAspectRatio="xMidYMid" refX="0" refY="0" style="overflow:visible" viewBox="0 0 1 1"><path d="M3-3 0 0l3 3" style="fill:none;stroke:context-stroke;stroke-width:1;stroke-linecap:butt" transform="rotate(180 .125 0)"/></marker><marker id="e" markerHeight="1" markerWidth="1" orient="auto-start-reverse" preserveAspectRatio="xMidYMid" refX="0" refY="0" style="overflow:visible" viewBox="0 0 1 1"><path d="M3-3 0 0l3 3" style="fill:none;stroke:context-stroke;stroke-width:1;stroke-linecap:butt" transform="rotate(180 .125 0)"/></marker><marker id="f" markerHeight="1" markerWidth="1" orient="auto-start-reverse" preserveAspectRatio="xMidYMid" refX="0" refY="0" style="overflow:visible" viewBox="0 0 1 1"><path d="M3-3 0 0l3 3" style="fill:none;stroke:context-stroke;stroke-width:1;stroke-linecap:butt" transform="rotate(180 .125 0)"/></marker><marker id="g" markerHeight="1" markerWidth="1" orient="auto-start-reverse" preserveAspectRatio="xMidYMid" refX="0" refY="0" style="overflow:visible" viewBox="0 0 1 1"><path d="M3-3 0 0l3 3" style="fill:none;stroke:context-stroke;stroke-width:1;stroke-linecap:butt" transform="rotate(180 .125 0)"/></marker><marker id="m" markerHeight="1" markerWidth="1" orient="auto-start-reverse" preserveAspectRatio="xMidYMid" refX="0" refY="0" style="overflow:visible" viewBox="0 0 1 1"><path d="M3-3 0 0l3 3" style="fill:none;stroke:context-stroke;stroke-width:1;stroke-linecap:butt" transform="rotate(180 .125 0)"/></marker><marker id="n" markerHeight="1" markerWidth="1" orient="auto-start-reverse" preserveAspectRatio="xMidYMid" refX="0" refY="0" style="overflow:visible" viewBox="0 0 1 1"><path d="M3-3 0 0l3 3" style="fill:none;stroke:context-stroke;stroke-width:1;stroke-linecap:butt" transform="rotate(180 .125 0)"/></marker><marker id="o" markerHeight="1" markerWidth="1" orient="auto-start-reverse" preserveAspectRatio="xMidYMid" refX="0" refY="0" style="overflow:visible" viewBox="0 0 1 1"><path d="M3-3 0 0l3 3" style="fill:none;stroke:context-stroke;stroke-width:1;stroke-linecap:butt" transform="rotate(180 .125 0)"/></marker><marker id="p" markerHeight="1" markerWidth="1" orient="auto-start-reverse" preserveAspectRatio="xMidYMid" refX="0" refY="0" style="overflow:visible" viewBox="0 0 1 1"><path d="M3-3 0 0l3 3" style="fill:none;stroke:context-stroke;stroke-width:1;stroke-linecap:butt" transform="rotate(180 .125 0)"/></marker><marker id="q" markerHeight="1" markerWidth="1" orient="auto-start-reverse" preserveAspectRatio="xMidYMid" refX="0" refY="0" style="overflow:visible" viewBox="0 0 1 1"><path d="M3-3 0 0l3 3" style="fill:none;stroke:context-stroke;stroke-width:1;stroke-linecap:butt" transform="rotate(180 .125 0)"/></marker><marker id="r" markerHeight="1" markerWidth="1" orient="auto-start-reverse" preserveAspectRatio="xMidYMid" refX="0" refY="0" style="overflow:visible" viewBox="0 0 1 1"><path d="M3-3 0 0l3 3" style="fill:none;stroke:context-stroke;stroke-width:1;stroke-linecap:butt" transform="rotate(180 .125 0)"/></marker><marker id="s" markerHeight="1" markerWidth="1" orient="auto-start-reverse" preserveAspectRatio="xMidYMid" refX="0" refY="0" style="overflow:visible" viewBox="0 0 1 1"><path d="M3-3 0 0l3 3" style="fill:none;stroke:context-stroke;stroke-width:1;stroke-linecap:butt" transform="rotate(180 .125 0)"/></marker><marker id="t" markerHeight="1" markerWidth="1" orient="auto-start-reverse" preserveAspectRatio="xMidYMid" refX="0" refY="0" style="overflow:visible" viewBox="0 0 1 1"><path d="M3-3 0 0l3 3" style="fill:none;stroke:context-stroke;stroke-width:1;stroke-linecap:butt" transform="rotate(180 .125 0)"/></marker><marker id="B" markerHeight="1" markerWidth="1" orient="auto-start-reverse" preserveAspectRatio="xMidYMid" refX="0" refY="0" style="overflow:visible" viewBox="0 0 1 1"><path d="M3-3 0 0l3 3" style="fill:none;stroke:context-stroke;stroke-width:1;stroke-linecap:butt" transform="rotate(180 .125 0)"/></marker><marker id="E" markerHeight="1" markerWidth="1" orient="auto-start-reverse" preserveAspectRatio="xMidYMid" refX="0" refY="0" style="overflow:visible" viewBox="0 0 1 1"><path d="M3-3 0 0l3 3" style="fill:none;stroke:context-stroke;stroke-width:1;stroke-linecap:butt" transform="rotate(180 .125 0)"/></marker><marker id="I" markerHeight="1" markerWidth="1" orient="auto-start-reverse" preserveAspectRatio="xMidYMid" refX="0" refY="0" style="overflow:visible" viewBox="0 0 1 1"><path d="M3-3 0 0l3 3" style="fill:none;stroke:context-stroke;stroke-width:1;stroke-linecap:butt" transform="rotate(180 .125 0)"/></marker><marker id="K" markerHeight="1" markerWidth="1" orient="auto-start-reverse" preserveAspectRatio="xMidYMid" refX="0" refY="0" style="overflow:visible" viewBox="0 0 1 1"><path d="M3-3 0 0l3 3" style="fill:none;stroke:context-stroke;stroke-width:1;stroke-linecap:butt" transform="rotate(180 .125 0)"/></marker><marker id="M" markerHeight="1" markerWidth="1" orient="auto-start-reverse" preserveAspectRatio="xMidYMid" refX="0" refY="0" style="overflow:visible" viewBox="0 0 1 1"><path d="M3-3 0 0l3 3" style="fill:none;stroke:context-stroke;stroke-width:1;stroke-linecap:butt" transform="rotate(180 .125 0)"/></marker><marker id="O" markerHeight="1" markerWidth="1" orient="auto-start-reverse" preserveAspectRatio="xMidYMid" refX="0" refY="0" style="overflow:visible" viewBox="0 0 1 1"><path d="M3-3 0 0l3 3" style="fill:none;stroke:context-stroke;stroke-width:1;stroke-linecap:butt" transform="rotate(180 .125 0)"/></marker><marker id="a" markerHeight="1" markerWidth="1" orient="auto-start-reverse" preserveAspectRatio="xMidYMid" refX="0" refY="0" style="overflow:visible" viewBox="0 0 1 1"><path d="M3-3 0 0l3 3" style="fill:none;stroke:context-stroke;stroke-width:1;stroke-linecap:butt" transform="rotate(180 .125 0)"/></marker><marker id="Q" markerHeight="1" markerWidth="1" orient="auto-start-reverse" preserveAspectRatio="xMidYMid" refX="0" refY="0" style="overflow:visible" viewBox="0 0 1 1"><path d="M3-3 0 0l3 3" style="fill:none;stroke:context-stroke;stroke-width:1;stroke-linecap:butt" transform="rotate(180 .125 0)"/></marker><marker id="S" markerHeight="1" markerWidth="1" orient="auto-start-reverse" preserveAspectRatio="xMidYMid" refX="0" refY="0" style="overflow:visible" viewBox="0 0 1 1"><path d="M3-3 0 0l3 3" style="fill:none;stroke:context-stroke;stroke-width:1;stroke-linecap:butt" transform="rotate(180 .125 0)"/></marker><marker id="aa" markerHeight="1" markerWidth="1" orient="auto-start-reverse" preserveAspectRatio="xMidYMid" refX="0" refY="0" style="overflow:visible" viewBox="0 0 1 1"><path d="M3-3 0 0l3 3" style="fill:none;stroke:context-stroke;stroke-width:1;stroke-linecap:butt" transform="rotate(180 .125 0)"/></marker><marker id="ac" markerHeight="1" markerWidth="1" orient="auto-start-reverse" preserveAspectRatio="xMidYMid" refX="0" refY="0" style="overflow:visible" viewBox="0 0 1 1"><path d="M3-3 0 0l3 3" style="fill:none;stroke:context-stroke;stroke-width:1;stroke-linecap:butt" transform="rotate(180 .125 0)"/></marker><marker id="ae" markerHeight="1" markerWidth="1" orient="auto-start-reverse" preserveAspectRatio="xMidYMid" refX="0" refY="0" style="overflow:visible" viewBox="0 0 1 1"><path d="M3-3 0 0l3 3" style="fill:none;stroke:context-stroke;stroke-width:1;stroke-linecap:butt" transform="rotate(180 .125 0)"/></marker><marker id="ag" markerHeight="1" markerWidth="1" orient="auto-start-reverse" preserveAspectRatio="xMidYMid" refX="0" refY="0" style="overflow:visible" viewBox="0 0 1 1"><path d="M3-3 0 0l3 3" style="fill:none;stroke:context-stroke;stroke-width:1;stroke-linecap:butt" transform="rotate(180 .125 0)"/></marker><marker id="ai" markerHeight="1" markerWidth="1" orient="auto-start-reverse" preserveAspectRatio="xMidYMid" refX="0" refY="0" style="overflow:visible" viewBox="0 0 1 1"><path d="M3-3 0 0l3 3" style="fill:none;stroke:context-stroke;stroke-width:1;stroke-linecap:butt" transform="rotate(180 .125 0)"/></marker><marker id="ak" markerHeight="1" markerWidth="1" orient="auto-start-reverse" preserveAspectRatio="xMidYMid" refX="0" refY="0" style="overflow:visible" viewBox="0 0 1 1"><path d="M3-3 0 0l3 3" style="fill:none;stroke:context-stroke;stroke-width:1;stroke-linecap:butt" transform="rotate(180 .125 0)"/></marker></defs><path d="M30.751 338.258H141.12v103.218H30.751zM17.53 181.706h130.801v107.877H17.53z" style="fill:#fff;stroke:#fff;stroke-width:.264583;stroke-linejoin:round"/><path d="M26.753 276.721h10.012v-60.939s.205-2.736.537-4.06c.266-1.06.678-2.086 1.158-3.069.394-.81.875-1.58 1.404-2.308.493-.681 1.06-1.308 1.641-1.916.615-.642 1.216-1.317 1.948-1.822.834-.574 2.728-1.332 2.728-1.332l.021-5.74-21.54.006" style="fill:#ffd5d5;stroke:#ff8080;stroke-width:.264583;stroke-linejoin:round"/><path d="M65.609 276.721H55.597v-60.939s-.204-2.736-.537-4.06c-.266-1.06-.678-2.086-1.157-3.069a15.6 15.6 0 0 0-1.404-2.308c-.494-.681-1.06-1.308-1.642-1.916-.615-.642-1.216-1.317-1.948-1.822-.834-.574-2.728-1.332-2.728-1.332l-.021-5.74 21.54.006" style="fill:#ffd5d5;stroke:#ff8080;stroke-width:.264583;stroke-linejoin:round"/><path d="M85.262 199.252v-3.711h15.37v3.711l9.44 60.551v16.185H75.823v-16.185z" style="fill:#ffe6d5;stroke:#ff8080;stroke-width:.264583;stroke-linejoin:round"/><path d="M3.708 21.913h148.669V167.21H3.708z" style="opacity:1;fill:#fff;fill-opacity:1;stroke:#fff;stroke-width:.264583;stroke-linejoin:round;stroke-dasharray:none"/><path d="M34.025 276.722v-74.774" style="opacity:.5;fill:#e5ffd5;fill-opacity:1;stroke:#00f;stroke-width:.264582;stroke-linejoin:round;stroke-dasharray:none;marker-start:url(#a);marker-end:url(#a)"/><text xml:space="preserve" style="font-size:16px;line-height:normal;font-family:&quot;Liberation Mono&quot;;-inkscape-font-specification:&quot;Liberation Mono&quot;;text-decoration-color:#000;white-space:pre;shape-inside:url(#b);display:inline;fill:#000;stroke-width:1;-inkscape-stroke:none;stop-color:#000" transform="translate(-84.533 63.542)scale(.26458)"><tspan x="426.838" y="682.524">H2</tspan></text><path d="M12.872 51.132v81.048h10.012V66.15s.175-2.276.603-3.314c.573-1.392 1.414-2.744 2.558-3.724 1.315-1.126 2.99-1.888 4.685-2.246 1.445-.306 3.015-.29 4.43.132 1.225.366 2.303 1.166 3.268 2.003.805.698 1.55 1.515 2.04 2.463.74 1.437 1.248 4.686 1.248 4.686v66.03h10.012V66.15s.233-2.575.767-3.724c.686-1.472 1.773-2.782 3.018-3.823a8.6 8.6 0 0 1 3.009-1.605 6.9 6.9 0 0 1 2.622-.264c1.786.17 3.683.515 5.157 1.537 1.736 1.205 3.003 3.11 3.826 5.056.37.877.433 2.823.433 2.823v66.03h10.012V66.15s.226-3.524 1.072-5.006c.658-1.152 1.835-1.944 2.928-2.697.893-.615 1.871-1.145 2.913-1.449a7.1 7.1 0 0 1 2.503-.264c1.6.123 3.257.445 4.656 1.232 1.348.758 2.547 1.892 3.344 3.218.886 1.476 1.415 4.966 1.415 4.966v66.03h10.012V66.15s.506-3.226 1.233-4.658a7.2 7.2 0 0 1 1.928-2.38c1.359-1.073 3.013-1.792 4.685-2.246a4.6 4.6 0 0 1 1.57-.132c1.573.134 3.213.409 4.584 1.191a9.9 9.9 0 0 1 3.616 3.596c.796 1.382 1.216 4.629 1.216 4.629v66.03h10.012l.132-81.048z" style="fill:#ffd5d5;stroke:#f55;stroke-width:.264583;stroke-linejoin:round"/><text xml:space="preserve" style="font-size:16px;line-height:normal;font-family:&quot;Liberation Mono&quot;;-inkscape-font-specification:&quot;Liberation Mono&quot;;text-decoration-color:#000;white-space:pre;shape-inside:url(#c);display:inline;fill:#000;stroke-width:1;-inkscape-stroke:none;stop-color:#000" transform="scale(.26458)"><tspan x="24.209" y="35.897">src_bridge.svg</tspan></text><circle cx="32.3" cy="66.15" r="9.416" style="fill:#fff;stroke:#ccc;stroke-width:.264583;stroke-linejoin:round"/><path d="M41.716 66.15h10.012v66.031H41.716zM12.872 66.15h10.012v66.031H12.872z" style="fill:none;stroke:#ccc;stroke-width:.264583;stroke-linejoin:round"/><circle cx="61.144" cy="66.15" r="9.416" style="fill:#fff;stroke:#ccc;stroke-width:.264583;stroke-linejoin:round"/><path d="M70.56 66.15h10.012v66.031H70.56z" style="fill:none;stroke:#ccc;stroke-width:.264583;stroke-linejoin:round"/><circle cx="89.988" cy="66.15" r="9.416" style="fill:#fff;stroke:#ccc;stroke-width:.264583;stroke-linejoin:round"/><path d="M99.403 66.15h10.012v66.031H99.403z" style="fill:none;stroke:#ccc;stroke-width:.264583;stroke-linejoin:round"/><circle cx="118.831" cy="66.15" r="9.416" style="fill:#fff;stroke:#ccc;stroke-width:.264583;stroke-linejoin:round"/><path d="M128.247 66.15h10.012v66.031h-10.012zM12.872 51.132h125.519v5.734H12.872z" style="fill:none;stroke:#ccc;stroke-width:.264583;stroke-linejoin:round"/><path d="M20.28 41.12v20.024L45.53 92.49l10.727 27.413 29.797 5.244 36.234-26.698 13.987-37.306V41.12h9.97V141H7.509l.12-99.88Z" style="fill:#e5ffd5;stroke:teal;stroke-width:.264583;stroke-linejoin:round;fill-opacity:1;opacity:.5"/><path d="M136.275 41.12v20.024" style="fill:#fff;stroke:teal;stroke-width:.264583;stroke-linejoin:round"/><path d="M51.728 85.2H70.56" style="opacity:.5;fill:#e5ffd5;fill-opacity:1;stroke:#00f;stroke-width:.264583;stroke-linejoin:round;stroke-dasharray:none;marker-start:url(#d);marker-end:url(#d)"/><path d="M70.559 91.06h9.75" style="opacity:.5;fill:#e5ffd5;fill-opacity:1;stroke:#00f;stroke-width:.264583;stroke-linejoin:round;stroke-dasharray:none;marker-start:url(#e);marker-end:url(#e)"/><path d="M61.315 56.77v-5.541" style="opacity:.5;fill:#e5ffd5;fill-opacity:1;stroke:#00f;stroke-width:.264583;stroke-linejoin:round;stroke-dasharray:none;marker-start:url(#f);marker-end:url(#f)"/><path d="M104.41 132.103V57.329" style="opacity:.5;fill:#e5ffd5;fill-opacity:1;stroke:#00f;stroke-width:.264582;stroke-linejoin:round;stroke-dasharray:none;marker-start:url(#g);marker-end:url(#g)"/><text xml:space="preserve" style="font-size:16px;line-height:normal;font-family:&quot;Liberation Mono&quot;;-inkscape-font-specification:&quot;Liberation Mono&quot;;text-decoration-color:#000;white-space:pre;shape-inside:url(#h);display:inline;fill:#000;stroke-width:1;-inkscape-stroke:none;stop-color:#000" transform="translate(8.596 -73.323)scale(.26458)"><tspan x="190.484" y="595.883">W1</tspan></text><text xml:space="preserve" style="font-size:16px;line-height:normal;font-family:&quot;Liberation Mono&quot;;-inkscape-font-specification:&quot;Liberation Mono&quot;;text-decoration-color:#000;white-space:pre;shape-inside:url(#i);display:inline;fill:#000;stroke-width:1;-inkscape-stroke:none;stop-color:#000" transform="translate(2.191 -74.334)scale(.26458)"><tspan x="270.756" y="620.729">W2</tspan></text><text xml:space="preserve" style="font-size:16px;line-height:normal;font-family:&quot;Liberation Mono&quot;;-inkscape-font-specification:&quot;Liberation Mono&quot;;text-decoration-color:#000;white-space:pre;shape-inside:url(#j);display:inline;fill:#000;stroke-width:1;-inkscape-stroke:none;stop-color:#000" transform="translate(-39.611 -112.428)scale(.26458)"><tspan x="386.064" y="632.832">H1</tspan></text><text xml:space="preserve" style="font-size:16px;line-height:normal;font-family:&quot;Liberation Mono&quot;;-inkscape-font-specification:&quot;Liberation Mono&quot;;text-decoration-color:#000;white-space:pre;shape-inside:url(#k);display:inline;fill:#000;stroke-width:1;-inkscape-stroke:none;stop-color:#000" transform="translate(-7.922 -81.077)scale(.26458)"><tspan x="426.838" y="682.524">H2</tspan></text><path d="m33.037 128.947 17.868 28.824" style="opacity:.5;fill:#e5ffd5;fill-opacity:1;stroke:#00f;stroke-width:.264583;stroke-linejoin:round;stroke-dasharray:none;marker-start:url(#d)"/><path d="m58.995 127.599-6.91 29.835" style="opacity:.5;fill:#e5ffd5;fill-opacity:1;stroke:#00f;stroke-width:.264583;stroke-linejoin:round;stroke-dasharray:none;marker-start:url(#d)"/><path d="m87.819 128.779-34.555 29.666" style="opacity:.5;fill:#e5ffd5;fill-opacity:1;stroke:#00f;stroke-width:.264583;stroke-linejoin:round;stroke-dasharray:none;marker-start:url(#d)"/><text xml:space="preserve" style="font-size:16px;line-height:normal;font-family:&quot;Liberation Mono&quot;;-inkscape-font-specification:&quot;Liberation Mono&quot;;text-decoration-color:#000;white-space:pre;shape-inside:url(#l);display:inline;fill:#000;stroke-width:1;-inkscape-stroke:none;stop-color:#000" transform="translate(3.203 -3.203)scale(.26458)"><tspan x="173.92" y="627.1">N1</tspan></text><path d="M12.872 32.59v18.542M20.28 32.59v64.558" style="opacity:.5;fill:#e5ffd5;fill-opacity:1;stroke:#999;stroke-width:.264583;stroke-linejoin:round;stroke-dasharray:none"/><path d="M12.872 32.59h7.09" style="opacity:.5;fill:#e5ffd5;fill-opacity:1;stroke:#00f;stroke-width:.264583;stroke-linejoin:round;stroke-dasharray:none;marker-start:url(#m);marker-end:url(#m)"/><path d="M136.275 32.59v18.542M138.391 32.59v18.542" style="opacity:.5;fill:#e5ffd5;fill-opacity:1;stroke:#999;stroke-width:.264583;stroke-linejoin:round;stroke-dasharray:none"/><path d="M129.185 32.59h7.09" style="opacity:.5;fill:#e5ffd5;fill-opacity:1;stroke:#00f;stroke-width:.264583;stroke-linejoin:round;stroke-dasharray:none;marker-end:url(#n)"/><path d="M145.481 32.59h-7.09" style="opacity:.5;fill:#e5ffd5;fill-opacity:1;stroke:#00f;stroke-width:.264583;stroke-linejoin:round;stroke-dasharray:none;marker-end:url(#o)"/><path d="M32.3 50.705v-9.343" style="opacity:.5;fill:#e5ffd5;fill-opacity:1;stroke:#00f;stroke-width:.264582;stroke-linejoin:round;stroke-dasharray:none;marker-start:url(#p);marker-end:url(#p)"/><path d="M20.28 41.188H32.3M124.255 41.12h12.02" style="opacity:.5;fill:#e5ffd5;fill-opacity:1;stroke:#999;stroke-width:.264583;stroke-linejoin:round;stroke-dasharray:none"/><path d="M124.255 50.463V41.12" style="opacity:.5;fill:#e5ffd5;fill-opacity:1;stroke:#00f;stroke-width:.264582;stroke-linejoin:round;stroke-dasharray:none;marker-start:url(#q);marker-end:url(#q)"/><path d="M20.28 60.475v-9.343" style="opacity:.5;fill:#e5ffd5;fill-opacity:1;stroke:#00f;stroke-width:.264582;stroke-linejoin:round;stroke-dasharray:none;marker-start:url(#r);marker-end:url(#r)"/><path d="M136.275 60.475v-9.343" style="opacity:.5;fill:#e5ffd5;fill-opacity:1;stroke:#00f;stroke-width:.264582;stroke-linejoin:round;stroke-dasharray:none;marker-start:url(#s);marker-end:url(#s)"/><path d="M45.53 92.462V51.24" style="opacity:.5;fill:#e5ffd5;fill-opacity:1;stroke:#00f;stroke-width:.264583;stroke-linejoin:round;stroke-dasharray:none;marker-start:url(#t);marker-end:url(#t)"/><text xml:space="preserve" style="font-size:16px;line-height:normal;font-family:&quot;Liberation Mono&quot;;-inkscape-font-specification:&quot;Liberation Mono&quot;;text-decoration-color:#000;white-space:pre;shape-inside:url(#u);display:inline;fill:#000;stroke-width:1;-inkscape-stroke:none;stop-color:#000" transform="translate(-33.917 1.146)scale(.26458)"><tspan x="175.436" y="114.256">Ix1</tspan></text><text xml:space="preserve" style="font-size:16px;line-height:normal;font-family:&quot;Liberation Mono&quot;;-inkscape-font-specification:&quot;Liberation Mono&quot;;text-decoration-color:#000;white-space:pre;shape-inside:url(#v);display:inline;fill:#000;stroke-width:1;-inkscape-stroke:none;stop-color:#000" transform="translate(86.6 -.194)scale(.26458)"><tspan x="175.436" y="114.256">Ix2</tspan></text><text xml:space="preserve" style="font-size:16px;line-height:normal;font-family:&quot;Liberation Mono&quot;;-inkscape-font-specification:&quot;Liberation Mono&quot;;text-decoration-color:#000;white-space:pre;shape-inside:url(#w);display:inline;fill:#000;stroke-width:1;-inkscape-stroke:none;stop-color:#000" transform="translate(-18.373 11.63)scale(.26458)"><tspan x="193.033" y="134.006">Ih11</tspan></text><text xml:space="preserve" style="font-size:16px;line-height:normal;font-family:&quot;Liberation Mono&quot;;-inkscape-font-specification:&quot;Liberation Mono&quot;;text-decoration-color:#000;white-space:pre;shape-inside:url(#x);display:inline;fill:#000;stroke-width:1;-inkscape-stroke:none;stop-color:#000" transform="translate(-41.326 22.386)scale(.26458)"><tspan x="193.033" y="134.006">Ih12</tspan></text><text xml:space="preserve" style="font-size:16px;line-height:normal;font-family:&quot;Liberation Mono&quot;;-inkscape-font-specification:&quot;Liberation Mono&quot;;text-decoration-color:#000;white-space:pre;shape-inside:url(#y);display:inline;fill:#000;stroke-width:1;-inkscape-stroke:none;stop-color:#000" transform="translate(62.158 12.15)scale(.26458)"><tspan x="193.033" y="134.006">Ih21</tspan></text><text xml:space="preserve" style="font-size:16px;line-height:normal;font-family:&quot;Liberation Mono&quot;;-inkscape-font-specification:&quot;Liberation Mono&quot;;text-decoration-color:#000;white-space:pre;shape-inside:url(#z);display:inline;fill:#000;stroke-width:1;-inkscape-stroke:none;stop-color:#000" transform="translate(85.907 22.156)scale(.26458)"><tspan x="193.033" y="134.006">Ih22</tspan></text><text xml:space="preserve" style="font-size:16px;line-height:normal;font-family:&quot;Liberation Mono&quot;;-inkscape-font-specification:&quot;Liberation Mono&quot;;text-decoration-color:#000;white-space:pre;shape-inside:url(#A);display:inline;fill:#000;stroke-width:1;-inkscape-stroke:none;stop-color:#000" transform="translate(-11.462 40.96)scale(.26458)"><tspan x="217.879" y="116.168">p1y</tspan></text><path d="M20.632 36.992H135.87" style="opacity:.5;fill:#e5ffd5;fill-opacity:1;stroke:#999;stroke-width:.264583;stroke-linejoin:round;stroke-dasharray:none;marker-start:url(#B);marker-end:url(#B)"/><text xml:space="preserve" style="font-size:16px;line-height:normal;font-family:&quot;Liberation Mono&quot;;-inkscape-font-specification:&quot;Liberation Mono&quot;;text-decoration-color:#000;white-space:pre;shape-inside:url(#C);display:inline;fill:#666;stroke-width:1;-inkscape-stroke:none;stop-color:#000" transform="translate(8.596 9.945)scale(.26458)"><tspan x="255.465" y="95.781">Lb</tspan></text><text xml:space="preserve" style="font-size:16px;line-height:normal;font-family:&quot;Liberation Mono&quot;;-inkscape-font-specification:&quot;Liberation Mono&quot;;text-decoration-color:#000;white-space:pre;shape-inside:url(#D);display:inline;fill:#000;stroke-width:1;-inkscape-stroke:none;stop-color:#000" transform="translate(60.667 -17.878)scale(.26458)"><tspan x="-118.496" y="438.526">p1x</tspan></text><path d="M20.684 94.695h24.784" style="opacity:.5;fill:#e5ffd5;fill-opacity:1;stroke:#00f;stroke-width:.264583;stroke-linejoin:round;stroke-dasharray:none;marker-start:url(#E);marker-end:url(#E)"/><path d="M45.53 92.49v5.312" style="opacity:.5;fill:#e5ffd5;fill-opacity:1;stroke:#999;stroke-width:.264583;stroke-linejoin:round;stroke-dasharray:none"/><text xml:space="preserve" style="font-size:16px;line-height:normal;font-family:&quot;Liberation Mono&quot;;-inkscape-font-specification:&quot;Liberation Mono&quot;;text-decoration-color:#000;white-space:pre;shape-inside:url(#F);display:inline;fill:#000;stroke-width:1;-inkscape-stroke:none;stop-color:#000" transform="translate(81.525 13.23)scale(.26458)"><tspan x="-94.15" y="398.043">[p2x,p2y]</tspan></text><text xml:space="preserve" style="font-size:16px;line-height:normal;font-family:&quot;Liberation Mono&quot;;-inkscape-font-specification:&quot;Liberation Mono&quot;;text-decoration-color:#000;white-space:pre;shape-inside:url(#G);display:inline;fill:#000;stroke-width:1;-inkscape-stroke:none;stop-color:#000" transform="translate(112.633 5.125)scale(.26458)"><tspan x="-99.555" y="448.047">[p3x,p3y]</tspan></text><text xml:space="preserve" style="font-size:16px;line-height:normal;font-family:&quot;Liberation Mono&quot;;-inkscape-font-specification:&quot;Liberation Mono&quot;;text-decoration-color:#000;white-space:pre;shape-inside:url(#H);display:inline;fill:#000;stroke-width:1;-inkscape-stroke:none;stop-color:#000" transform="translate(149.224 -32.3)scale(.26458)"><tspan x="-100.457" y="497.6">[p4x,p4y]</tspan></text><circle cx="46.181" cy="210.691" r="9.416" style="fill:none;stroke:#f95;stroke-width:.264583;stroke-linejoin:round"/><path d="M55.597 210.691h10.012v66.031H55.597zM24.793 195.541h42.775v5.734H24.793z" style="fill:none;stroke:#ccc;stroke-width:.264583;stroke-linejoin:round"/><path d="M46.181 201.275v-5.541" style="opacity:.5;fill:#e5ffd5;fill-opacity:1;stroke:#00f;stroke-width:.264583;stroke-linejoin:round;stroke-dasharray:none;marker-start:url(#I);marker-end:url(#I)"/><text xml:space="preserve" style="font-size:16px;line-height:normal;font-family:&quot;Liberation Mono&quot;;-inkscape-font-specification:&quot;Liberation Mono&quot;;text-decoration-color:#000;white-space:pre;shape-inside:url(#J);display:inline;fill:#000;stroke-width:1;-inkscape-stroke:none;stop-color:#000" transform="translate(-54.745 32.077)scale(.26458)"><tspan x="386.064" y="632.832">H1</tspan></text><circle cx="39.472" cy="215.849" r="16.125" style="fill:none;stroke:#ccc;stroke-width:.264584;stroke-linejoin:round"/><path d="M36.765 236.091h18.832" style="opacity:.5;fill:#e5ffd5;fill-opacity:1;stroke:#00f;stroke-width:.264583;stroke-linejoin:round;stroke-dasharray:none;marker-start:url(#K);marker-end:url(#K)"/><text xml:space="preserve" style="font-size:16px;line-height:normal;font-family:&quot;Liberation Mono&quot;;-inkscape-font-specification:&quot;Liberation Mono&quot;;text-decoration-color:#000;white-space:pre;shape-inside:url(#L);display:inline;fill:#000;stroke-width:1;-inkscape-stroke:none;stop-color:#000" transform="translate(-6.366 77.568)scale(.26458)"><tspan x="190.484" y="595.883">W1</tspan></text><path d="M60.603 210.816v-9.545" style="opacity:.5;fill:#e5ffd5;fill-opacity:1;stroke:#4d4d4d;stroke-width:.264583;stroke-linejoin:round;stroke-dasharray:none;marker-start:url(#M);marker-end:url(#M)"/><text xml:space="preserve" style="font-size:16px;line-height:normal;font-family:&quot;Liberation Mono&quot;;-inkscape-font-specification:&quot;Liberation Mono&quot;;text-decoration-color:#000;white-space:pre;shape-inside:url(#N);display:inline;fill:#999;stroke-width:1;-inkscape-stroke:none;stop-color:#000" transform="translate(-51.554 -16.35)scale(.26458)"><tspan x="427.475" y="846.637">W1/2</tspan></text><path d="M39.472 215.782h23.036" style="fill:#999;stroke:#999;stroke-width:.264583;stroke-linejoin:round"/><path d="M60.603 215.432v-4.776" style="opacity:.5;fill:#e5ffd5;fill-opacity:1;stroke:#00f;stroke-width:.264583;stroke-linejoin:round;stroke-dasharray:none;marker-start:url(#O);marker-end:url(#O)"/><text xml:space="preserve" style="font-size:16px;line-height:normal;font-family:&quot;Liberation Mono&quot;;-inkscape-font-specification:&quot;Liberation Mono&quot;;text-decoration-color:#000;white-space:pre;shape-inside:url(#P);display:inline;fill:#000;stroke-width:1;-inkscape-stroke:none;stop-color:#000" transform="translate(-42.115 -15.386)scale(.26458)"><tspan x="393.711" y="868.549">Ea</tspan></text><path d="M32.561 276.722h23.036" style="fill:#999;stroke:#999;stroke-width:.264583;stroke-linejoin:round"/><path d="M85.262 195.541h15.37v3.711h-15.37z" style="fill:none;stroke:#ccc;stroke-width:.264583;stroke-linejoin:round"/><path d="M75.823 259.803h34.249v16.185H75.823z" style="fill:none;stroke:#ccc;stroke-width:.264582;stroke-linejoin:round"/><path d="M67.701 195.54H85.13" style="fill:#999;stroke:#999;stroke-width:.264582;stroke-linejoin:round"/><path d="M163.28 196.892h15.37v60.287h-15.37z" style="fill:none;stroke:#ff2a2a;stroke-width:.264583;stroke-linejoin:round"/><path d="M75.823 259.803c8.249-18.509 9.307-40.535 9.44-60.55M110.072 259.803c-8.25-18.509-9.307-40.535-9.44-60.55" style="fill:#f6ffd5;stroke:#ff8080;stroke-width:.264583;stroke-linejoin:round"/><path d="M89.52 199.31v-3.705" style="opacity:.5;fill:#e5ffd5;fill-opacity:1;stroke:#00f;stroke-width:.264583;stroke-linejoin:round;stroke-dasharray:none;marker-start:url(#Q);marker-end:url(#Q)"/><text xml:space="preserve" style="font-size:16px;line-height:normal;font-family:&quot;Liberation Mono&quot;;-inkscape-font-specification:&quot;Liberation Mono&quot;;text-decoration-color:#000;white-space:pre;shape-inside:url(#R);display:inline;fill:#000;stroke-width:1;-inkscape-stroke:none;stop-color:#000" transform="translate(-42.845 5.721)scale(.26458)"><tspan x="506.336" y="729.594">H3</tspan></text><path d="M112.336 275.988v-16.185" style="opacity:.5;fill:#e5ffd5;fill-opacity:1;stroke:#00f;stroke-width:.264583;stroke-linejoin:round;stroke-dasharray:none;marker-start:url(#S);marker-end:url(#S)"/><text xml:space="preserve" style="font-size:16px;line-height:normal;font-family:&quot;Liberation Mono&quot;;-inkscape-font-specification:&quot;Liberation Mono&quot;;text-decoration-color:#000;white-space:pre;shape-inside:url(#T);display:inline;fill:#000;stroke-width:1;-inkscape-stroke:none;stop-color:#000" transform="translate(-23.938 30.32)scale(.26458)"><tspan x="519.4" y="903.195">H4</tspan></text><path d="M85.13 193.424h15.502" style="fill:#f6ffd5;stroke:#00f;stroke-width:.264583;stroke-linejoin:round;marker-start:url(#d);marker-end:url(#d)"/><text xml:space="preserve" style="font-size:16px;line-height:normal;font-family:&quot;Liberation Mono&quot;;-inkscape-font-specification:&quot;Liberation Mono&quot;;text-decoration-color:#000;white-space:pre;shape-inside:url(#U);display:inline;fill:#000;stroke-width:1;-inkscape-stroke:none;stop-color:#000" transform="translate(-22.225 5.292)scale(.26458)"><tspan x="425.697" y="706.621">W3</tspan></text><path d="M75.823 271.226h34.249" style="fill:#f6ffd5;stroke:#00f;stroke-width:.264583;stroke-linejoin:round;marker-start:url(#d);marker-end:url(#d)"/><text xml:space="preserve" style="font-size:16px;line-height:normal;font-family:&quot;Liberation Mono&quot;;-inkscape-font-specification:&quot;Liberation Mono&quot;;text-decoration-color:#000;white-space:pre;shape-inside:url(#V);display:inline;fill:#000;stroke-width:1;-inkscape-stroke:none;stop-color:#000" transform="translate(-15.312 -17.368)scale(.26458)"><tspan x="402.191" y="1105.293">W4</tspan></text><text xml:space="preserve" style="font-style:italic;font-variant:normal;font-weight:400;font-stretch:normal;font-size:16px;line-height:normal;font-family:&quot;Liberation Mono&quot;;-inkscape-font-specification:&quot;Liberation Mono Italic&quot;;text-decoration-color:#000;white-space:pre;shape-inside:url(#W);display:inline;fill:#000;stroke-width:1;-inkscape-stroke:none;stop-color:#000" transform="translate(-16.494 -24.947)scale(.26458)"><tspan x="216.604" y="1164.787">face</tspan></text><text xml:space="preserve" style="font-style:italic;font-variant:normal;font-weight:400;font-stretch:normal;font-size:16px;line-height:normal;font-family:&quot;Liberation Mono&quot;;-inkscape-font-specification:&quot;Liberation Mono Italic&quot;;text-decoration-color:#000;white-space:pre;shape-inside:url(#X);display:inline;fill:#000;stroke-width:1;-inkscape-stroke:none;stop-color:#000" transform="translate(15.87 -25.566)scale(.26458)"><tspan x="272.666" y="1164.787">side</tspan></text><text xml:space="preserve" style="font-size:16px;line-height:normal;font-family:&quot;Liberation Mono&quot;;-inkscape-font-specification:&quot;Liberation Mono&quot;;text-decoration-color:#000;white-space:pre;shape-inside:url(#Y);display:inline;fill:#000;stroke-width:1;-inkscape-stroke:none;stop-color:#000" transform="translate(48.882 -111.923)scale(.26458)"><tspan x="215.33" y="1218.301">sideStyle:
</tspan><tspan x="215.33" y="1238.301">[straight, arc]</tspan></text><path d="m115.968 217.44-11.462 17.53" style="fill:#f6ffd5;stroke:#00f;stroke-width:.264583;stroke-linejoin:round;marker-end:url(#d)"/><path d="M36.38 344.091h96.543v5.734H36.38z" style="fill:#ffd5d5;stroke:#ccc;stroke-width:.264583;stroke-linejoin:round"/><path d="M57.768 349.825v-5.541" style="opacity:.5;fill:#e5ffd5;fill-opacity:1;stroke:#00f;stroke-width:.264583;stroke-linejoin:round;stroke-dasharray:none;marker-start:url(#aa);marker-end:url(#aa)"/><text xml:space="preserve" style="font-size:16px;line-height:normal;font-family:&quot;Liberation Mono&quot;;-inkscape-font-specification:&quot;Liberation Mono&quot;;text-decoration-color:#000;white-space:pre;shape-inside:url(#ab);display:inline;fill:#000;stroke-width:1;-inkscape-stroke:none;stop-color:#000" transform="translate(-43.158 180.627)scale(.26458)"><tspan x="386.064" y="632.832">H1</tspan></text><path d="M36.38 349.825h10.012v66.031H36.38zM65.224 349.825h10.012v66.031H65.224z" style="fill:#ffd5d5;stroke:#ccc;stroke-width:.264583;stroke-linejoin:round"/><circle cx="84.652" cy="359.241" r="9.416" style="fill:#fff;stroke:#ccc;stroke-width:.264583;stroke-linejoin:round"/><path d="M94.068 349.825h10.012v66.031H94.068z" style="fill:#ffd5d5;stroke:#ccc;stroke-width:.264583;stroke-linejoin:round"/><circle cx="210.51" cy="379.271" r="43.271" style="fill:none;stroke:#f55;stroke-width:.264585;stroke-linejoin:round"/><path d="M122.911 349.825h10.012v66.031h-10.012z" style="fill:#ffd5d5;stroke:#ccc;stroke-width:.264583;stroke-linejoin:round"/><path d="M94.068 349.825h10.012v9.416H94.068zM122.911 349.825h10.012v9.416h-10.012zM122.911 359.241h10.012v17.17h-10.012zM94.068 359.241h10.012v17.17H94.068z" style="fill:none;stroke:#ccc;stroke-width:.264583;stroke-linejoin:round"/><path d="M122.911 376.41s-.471-6.993-1.266-10.391c-.628-2.684-1.612-5.287-2.743-7.8-.876-1.944-1.956-3.797-3.11-5.59-.65-1.008-2.141-2.894-2.141-2.894l9.26.09M104.08 376.41s.471-6.993 1.266-10.391c.627-2.684 1.612-5.287 2.743-7.8.875-1.944 1.898-3.836 3.11-5.59.72-1.039 2.452-2.894 2.452-2.894l-9.572.09M75.236 359.24s.269-2.42.694-3.548c.313-.83.781-1.61 1.341-2.299a10.4 10.4 0 0 1 2.349-2.11 8.8 8.8 0 0 1 2.316-1.058c.878-.26 2.716-.4 2.716-.4h-9.416M94.068 359.24s-.27-2.42-.695-3.548a8.3 8.3 0 0 0-1.341-2.299 10.4 10.4 0 0 0-2.349-2.11 8.8 8.8 0 0 0-2.316-1.058c-.877-.26-2.715-.4-2.715-.4h9.416" style="fill:#ffd5d5;stroke:#ff8080;stroke-width:.264583;stroke-linejoin:round"/><path d="M38.455 415.885v-65.97" style="opacity:.5;fill:#e5ffd5;fill-opacity:1;stroke:#00f;stroke-width:.264582;stroke-linejoin:round;stroke-dasharray:none;marker-start:url(#ac);marker-end:url(#ac)"/><text xml:space="preserve" style="font-size:16px;line-height:normal;font-family:&quot;Liberation Mono&quot;;-inkscape-font-specification:&quot;Liberation Mono&quot;;text-decoration-color:#000;white-space:pre;shape-inside:url(#ad);display:inline;fill:#000;stroke-width:1;-inkscape-stroke:none;stop-color:#000" transform="translate(-73.753 203.205)scale(.26458)"><tspan x="426.838" y="682.524">H2</tspan></text><path d="M46.392 371.198h18.832" style="opacity:.5;fill:#e5ffd5;fill-opacity:1;stroke:#00f;stroke-width:.264583;stroke-linejoin:round;stroke-dasharray:none;marker-start:url(#ae);marker-end:url(#ae)"/><text xml:space="preserve" style="font-size:16px;line-height:normal;font-family:&quot;Liberation Mono&quot;;-inkscape-font-specification:&quot;Liberation Mono&quot;;text-decoration-color:#000;white-space:pre;shape-inside:url(#af);display:inline;fill:#000;stroke-width:1;-inkscape-stroke:none;stop-color:#000" transform="translate(3.26 212.675)scale(.26458)"><tspan x="190.484" y="595.883">W1</tspan></text><path d="M95.88 358.968v-8.87" style="opacity:.5;fill:#e5ffd5;fill-opacity:1;stroke:#00f;stroke-width:.264583;stroke-linejoin:round;stroke-dasharray:none;marker-start:url(#ag);marker-end:url(#ag)"/><text xml:space="preserve" style="font-size:16px;line-height:normal;font-family:&quot;Liberation Mono&quot;;-inkscape-font-specification:&quot;Liberation Mono&quot;;text-decoration-color:#000;white-space:pre;shape-inside:url(#ah);display:inline;fill:#000;stroke-width:1;-inkscape-stroke:none;stop-color:#000" transform="translate(18.136 -27.56)scale(.26458)"><tspan x="297.193" y="1449.24">W1/2</tspan></text><path d="M125.557 359.108v-9.272" style="opacity:.5;fill:#e5ffd5;fill-opacity:1;stroke:#00f;stroke-width:.264583;stroke-linejoin:round;stroke-dasharray:none;marker-start:url(#ai);marker-end:url(#ai)"/><text xml:space="preserve" style="font-size:16px;line-height:normal;font-family:&quot;Liberation Mono&quot;;-inkscape-font-specification:&quot;Liberation Mono&quot;;text-decoration-color:#000;white-space:pre;shape-inside:url(#aj);display:inline;fill:#000;stroke-width:1;-inkscape-stroke:none;stop-color:#000" transform="translate(47.812 -27.832)scale(.26458)"><tspan x="297.193" y="1449.24">W1/2</tspan></text><path d="M124.499 376.088v-16.646" style="opacity:.5;fill:#e5ffd5;fill-opacity:1;stroke:#00f;stroke-width:.264583;stroke-linejoin:round;stroke-dasharray:none;marker-start:url(#ak);marker-end:url(#ak)"/><text xml:space="preserve" style="font-size:16px;line-height:normal;font-family:&quot;Liberation Mono&quot;;-inkscape-font-specification:&quot;Liberation Mono&quot;;text-decoration-color:#000;white-space:pre;shape-inside:url(#al);display:inline;fill:#000;stroke-width:1;-inkscape-stroke:none;stop-color:#000" transform="translate(-11.026 -4.879)scale(.26458)"><tspan x="515.174" y="1413.838">Ea</tspan></text><text xml:space="preserve" style="font-size:16px;line-height:normal;font-family:&quot;Liberation Mono&quot;;-inkscape-font-specification:&quot;Liberation Mono&quot;;text-decoration-color:#000;white-space:pre;shape-inside:url(#am);display:inline;fill:#000;stroke-width:1;-inkscape-stroke:none;stop-color:#000" transform="translate(-3.387 -17.658)scale(.26458)"><tspan x="166.693" y="1620.639">[rectangular]</tspan></text><text xml:space="preserve" style="font-size:16px;line-height:normal;font-family:&quot;Liberation Mono&quot;;-inkscape-font-specification:&quot;Liberation Mono&quot;;text-decoration-color:#000;white-space:pre;shape-inside:url(#an);display:inline;fill:#000;stroke-width:1;-inkscape-stroke:none;stop-color:#000" transform="translate(13.535 -42.431)scale(.26458)"><tspan x="210.928" y="1682.805">[half-circle]</tspan></text><text xml:space="preserve" style="font-size:16px;line-height:normal;font-family:&quot;Liberation Mono&quot;;-inkscape-font-specification:&quot;Liberation Mono&quot;;text-decoration-color:#000;white-space:pre;shape-inside:url(#ao);display:inline;fill:#000;stroke-width:1;-inkscape-stroke:none;stop-color:#000" transform="translate(1.116 -20.5)scale(.26458)"><tspan x="384.375" y="1634.152">[gothic]</tspan></text><text xml:space="preserve" style="font-size:16px;line-height:normal;font-family:&quot;Liberation Mono&quot;;-inkscape-font-specification:&quot;Liberation Mono&quot;;text-decoration-color:#000;white-space:pre;shape-inside:url(#ap);display:inline;fill:#000;stroke-width:1;-inkscape-stroke:none;stop-color:#000" transform="translate(18.832)scale(.26458)"><tspan x="204.518" y="1644.065">arcStyle</tspan></text><path d="m58.64 415.015 14.78 15.733" style="fill:#ffd5d5;stroke:#00f;stroke-width:.264583;stroke-linejoin:round;marker-start:url(#d)"/><path d="m84.624 405.957-1.669 24.315" style="fill:#ffd5d5;stroke:#00f;stroke-width:.264583;stroke-linejoin:round;marker-start:url(#d)"/><path d="m108.939 413.585-15.257 17.402" style="fill:#ffd5d5;stroke:#00f;stroke-width:.264583;stroke-linejoin:round;marker-start:url(#d)"/></svg>