<svg xmlns="http://www.w3.org/2000/svg" xml:space="preserve" width="600" height="3000" viewBox="0 0 158.75 793.75"><defs><path id="Y" d="M210.871 1667.853H361.22v35.357H210.871z"/><path id="X" d="M446.587 1549.995h34.72v27.076h-34.72z"/><path id="W" d="M416.645 1601.916h44.914v37.906h-44.914z"/><path id="V" d="M116.584 1726.463H382.88v65.618H116.584z"/><path id="U" d="M393.267 1221.244h30.632v26.128h-30.632z"/><path id="T" d="M224.788 1371.253h36.038v31.083h-36.038z"/><path id="S" d="M216.229 1327.107h36.489v28.38h-36.489z"/><path id="R" d="M361.733 1313.142h38.402v30.182h-38.402z"/><path id="Q" d="M438.305 272.029h58.611v49.054h-58.611z"/><path id="P" d="M71.989 1154.373h43.47v31.352h-43.47z"/><path id="O" d="M55.409 1182.053h32.434v36.939H55.409z"/><path id="N" d="M139.648 1440.627h97.303v81.086h-97.303z"/><path id="M" d="M92.375 1069.643h33.765v34.72H92.375z"/><path id="L" d="M108.32 1051.486h23.872v27.713H108.32z"/><path id="K" d="M143.978 1012.185h20.068v21.145h-20.068z"/><path id="J" d="M103.524 1012.185h25.954v23.693h-25.954z"/><path id="I" d="M151.623 1054.034h22.935v22.616h-22.935z"/><path id="H" d="M218.515 762.574h58.611v40.773h-58.611z"/><path id="G" d="M377.146 430.023h47.462v22.616h-47.462z"/><path id="F" d="M366.179 389.251h39.636v27.076h-39.636z"/><path id="E" d="M441.791 937.208h81.664v34.472h-81.664z"/><path id="D" d="M440.791 880.963h79.51v35.104h-79.51z"/><path id="C" d="M439.666 823.938h72.527v38.702h-72.527z"/><path id="B" d="M435.612 776.173h56.76v22.524h-56.76z"/><path id="k" d="M32.885 95.952h44.147v32.434H32.885z"/><path id="j" d="M-57.655 234.761h50.01v44.276h-50.01z"/><path id="h" d="M-75.811 210.552h36.95v30.261h-36.95z"/><path id="d" d="M-18.475 278.4h43.321v43.002h-43.321z"/><path id="c" d="M157.038 338.285h33.446v19.749h-33.446z"/><path id="a" d="M19.112 26.757h198.766v56.062H19.112z"/><path id="f" d="M157.038 338.285h33.446v19.749h-33.446z"/><path id="g" d="M-18.475 278.4h43.321v43.002h-43.321z"/><path id="r" d="M-18.475 278.4h43.321v43.002h-43.321z"/><path id="q" d="M157.038 338.285h33.446v19.749h-33.446z"/><path id="v" d="M-18.475 278.4h43.321v43.002h-43.321z"/><path id="u" d="M157.038 338.285h33.446v19.749h-33.446z"/><path id="z" d="M-18.475 278.4h43.321v43.002h-43.321z"/><path id="y" d="M157.038 338.285h33.446v19.749h-33.446z"/><marker id="b" markerHeight="1" markerWidth="1" orient="auto-start-reverse" preserveAspectRatio="xMidYMid" refX="0" refY="0" style="overflow:visible" viewBox="0 0 1 1"><path d="M3-3 0 0l3 3" style="fill:none;stroke:context-stroke;stroke-width:1;stroke-linecap:butt" transform="rotate(180 .125 0)"/></marker><marker id="i" markerHeight="1" markerWidth="1" orient="auto-start-reverse" preserveAspectRatio="xMidYMid" refX="0" refY="0" style="overflow:visible" viewBox="0 0 1 1"><path d="M3-3 0 0l3 3" style="fill:none;stroke:context-stroke;stroke-width:1;stroke-linecap:butt" transform="rotate(180 .125 0)"/></marker><marker id="l" markerHeight="1" markerWidth="1" orient="auto-start-reverse" preserveAspectRatio="xMidYMid" refX="0" refY="0" style="overflow:visible" viewBox="0 0 1 1"><path d="M3-3 0 0l3 3" style="fill:none;stroke:context-stroke;stroke-width:1;stroke-linecap:butt" transform="rotate(180 .125 0)"/></marker><marker id="m" markerHeight="1" markerWidth="1" orient="auto-start-reverse" preserveAspectRatio="xMidYMid" refX="0" refY="0" style="overflow:visible" viewBox="0 0 1 1"><path d="M3-3 0 0l3 3" style="fill:none;stroke:context-stroke;stroke-width:1;stroke-linecap:butt" transform="rotate(180 .125 0)"/></marker><marker id="n" markerHeight="1" markerWidth="1" orient="auto-start-reverse" preserveAspectRatio="xMidYMid" refX="0" refY="0" style="overflow:visible" viewBox="0 0 1 1"><path d="M3-3 0 0l3 3" style="fill:none;stroke:context-stroke;stroke-width:1;stroke-linecap:butt" transform="rotate(180 .125 0)"/></marker><marker id="o" markerHeight="1" markerWidth="1" orient="auto-start-reverse" preserveAspectRatio="xMidYMid" refX="0" refY="0" style="overflow:visible" viewBox="0 0 1 1"><path d="M3-3 0 0l3 3" style="fill:none;stroke:context-stroke;stroke-width:1;stroke-linecap:butt" transform="rotate(180 .125 0)"/></marker><marker id="e" markerHeight="1" markerWidth="1" orient="auto-start-reverse" preserveAspectRatio="xMidYMid" refX="0" refY="0" style="overflow:visible" viewBox="0 0 1 1"><path d="M3-3 0 0l3 3" style="fill:none;stroke:context-stroke;stroke-width:1;stroke-linecap:butt" transform="rotate(180 .125 0)"/></marker><marker id="p" markerHeight="1" markerWidth="1" orient="auto-start-reverse" preserveAspectRatio="xMidYMid" refX="0" refY="0" style="overflow:visible" viewBox="0 0 1 1"><path d="M3-3 0 0l3 3" style="fill:none;stroke:context-stroke;stroke-width:1;stroke-linecap:butt" transform="rotate(180 .125 0)"/></marker><marker id="s" markerHeight="1" markerWidth="1" orient="auto-start-reverse" preserveAspectRatio="xMidYMid" refX="0" refY="0" style="overflow:visible" viewBox="0 0 1 1"><path d="M3-3 0 0l3 3" style="fill:none;stroke:context-stroke;stroke-width:1;stroke-linecap:butt" transform="rotate(180 .125 0)"/></marker><marker id="t" markerHeight="1" markerWidth="1" orient="auto-start-reverse" preserveAspectRatio="xMidYMid" refX="0" refY="0" style="overflow:visible" viewBox="0 0 1 1"><path d="M3-3 0 0l3 3" style="fill:none;stroke:context-stroke;stroke-width:1;stroke-linecap:butt" transform="rotate(180 .125 0)"/></marker><marker id="w" markerHeight="1" markerWidth="1" orient="auto-start-reverse" preserveAspectRatio="xMidYMid" refX="0" refY="0" style="overflow:visible" viewBox="0 0 1 1"><path d="M3-3 0 0l3 3" style="fill:none;stroke:context-stroke;stroke-width:1;stroke-linecap:butt" transform="rotate(180 .125 0)"/></marker><marker id="x" markerHeight="1" markerWidth="1" orient="auto-start-reverse" preserveAspectRatio="xMidYMid" refX="0" refY="0" style="overflow:visible" viewBox="0 0 1 1"><path d="M3-3 0 0l3 3" style="fill:none;stroke:context-stroke;stroke-width:1;stroke-linecap:butt" transform="rotate(180 .125 0)"/></marker><marker id="A" markerHeight="1" markerWidth="1" orient="auto-start-reverse" preserveAspectRatio="xMidYMid" refX="0" refY="0" style="overflow:visible" viewBox="0 0 1 1"><path d="M3-3 0 0l3 3" style="fill:none;stroke:context-stroke;stroke-width:1;stroke-linecap:butt" transform="rotate(180 .125 0)"/></marker></defs><path d="M76.526 401.085h33.037v37.673H76.526z" style="fill:#fff;stroke:#fff;stroke-width:.264582;stroke-linejoin:round;stroke-dasharray:none"/><path d="M23.261 462.524h70.963v50.062H23.261z" style="fill:#fff;stroke:#fff;stroke-width:.264583;stroke-linejoin:round;stroke-dasharray:none"/><path d="M52.636 301.203h24.4" style="fill:none;stroke:#b3b3b3;stroke-width:.264583;stroke-linejoin:round"/><path d="M6.198 151.847h103.456v100.357H6.198z" style="fill:#fff;stroke:#fff;stroke-width:.264583;stroke-linejoin:round"/><circle cx="34.19" cy="230.019" r="17.109" style="fill:none;stroke:#e6e6e6;stroke-width:.264583;stroke-linejoin:round"/><circle cx="25.194" cy="230.019" r="17.109" style="fill:none;stroke:#e6e6e6;stroke-width:.264583;stroke-linejoin:round"/><circle cx="29.559" cy="221.1" r="7.008" style="fill:none;stroke:#ccc;stroke-width:.264583;stroke-linejoin:round"/><path d="M9.945 37.589h75.961v72.8H9.945z" style="fill:#fff;stroke:#fff;stroke-width:.264583;stroke-linejoin:round"/><path d="M33.494 42.6h10.583v5.292H33.494z" style="fill:#f2f2f2;stroke:#e6e6e6;stroke-width:.264583;stroke-linejoin:round"/><path d="M28.203 47.891h10.583v5.292H28.203zM28.203 53.183h10.583v5.292H28.203zM33.494 63.766h5.292v5.292h-5.292z" style="fill:#f2f2f2;stroke:#e6e6e6;stroke-width:.264583;stroke-linejoin:round"/><path d="M28.203 58.475h10.583v5.292H28.203zM28.203 69.058h10.583v5.292H28.203zM28.203 79.641h10.583v5.292H28.203z" style="fill:#f2f2f2;stroke:#e6e6e6;stroke-width:.264583;stroke-linejoin:round"/><path d="M33.494 74.35h5.292v5.292h-5.292z" style="fill:#f2f2f2;stroke:#e6e6e6;stroke-width:.264583;stroke-linejoin:round"/><path d="M54.378 54.255h22.67" style="fill:#ccc;stroke:#ccc;stroke-width:.264583;stroke-linejoin:round"/><text xml:space="preserve" style="font-size:16px;line-height:normal;font-family:&quot;Liberation Mono&quot;;-inkscape-font-specification:&quot;Liberation Mono&quot;;text-decoration-color:#000;white-space:pre;shape-inside:url(#a);display:inline;fill:#000;stroke-width:1;-inkscape-stroke:none;stop-color:#000" transform="translate(-.337 -2.697)scale(.26458)"><tspan x="19.111" y="40.994">src_door1Arc.svg</tspan></text><path d="M38.786 59.144h30.846v25.789H38.786z" style="fill:#fff;stroke:#ccc;stroke-width:.264583;stroke-linejoin:round"/><circle cx="54.378" cy="81.14" r="26.885" style="fill:none;stroke:#ccc;stroke-width:.264583;stroke-linejoin:round"/><path d="M38.786 87.05h30.846" style="fill:none;stroke:green;stroke-width:.264583;stroke-linejoin:round;marker-start:url(#b);marker-end:url(#b)"/><path d="M68.929 59.144h8.12" style="fill:#ccc;stroke:#ccc;stroke-width:.264583;stroke-linejoin:round"/><path d="M54.378 81.14 30.555 68.678" style="fill:#ccc;stroke:#d4aa00;stroke-width:.264583;stroke-linejoin:round;marker-start:url(#b);marker-end:url(#b)"/><path d="M54.378 73.892 27.36 48.272M54.378 73.892 34.066 44.985M54.378 73.892 40.869 42.625M54.378 73.892l-6.755-33.037" style="fill:#ccc;stroke:#ccc;stroke-width:.264583;stroke-linejoin:round"/><path d="M28.203 63.766h10.583v-4.622l-.622-.67h-9.961Z" style="fill:#f2f2f2;stroke:#ffb380;stroke-width:.264583;stroke-linejoin:round"/><path d="M38.786 84.933v-25.79s2.899-1.802 4.46-2.475a31.3 31.3 0 0 1 6.136-1.944c1.64-.333 3.323-.468 4.996-.469 1.669 0 3.345.158 4.986.467 1.633.308 3.257.737 4.791 1.374 1.93.801 5.477 3.048 5.477 3.048v25.789z" style="fill:none;stroke:#00f;stroke-width:.264583;stroke-linejoin:round"/><path d="M28.203 58.475h9.961l-5.645-5.311-4.316.019z" style="fill:#f2f2f2;stroke:#ffb380;stroke-width:.264583;stroke-linejoin:round"/><path d="M72.343 59.522v25.454" style="fill:#ccc;stroke:green;stroke-width:.264583;stroke-linejoin:round;marker-start:url(#b);marker-end:url(#b)"/><path d="M54.378 81.14v-7.248" style="fill:#f60;stroke:#f60;stroke-width:.264583;stroke-linejoin:round;marker-start:url(#b);marker-end:url(#b)"/><text xml:space="preserve" style="font-size:16px;line-height:normal;font-family:&quot;Liberation Mono&quot;;-inkscape-font-specification:&quot;Liberation Mono&quot;;text-decoration-color:#000;white-space:pre;shape-inside:url(#c);display:inline;fill:green;stroke-width:1;-inkscape-stroke:none;stop-color:#000" transform="translate(11.311 -2.38)scale(.26458)"><tspan x="157.039" y="352.522">W1</tspan></text><text xml:space="preserve" style="font-size:16px;line-height:normal;font-family:&quot;Liberation Mono&quot;;-inkscape-font-specification:&quot;Liberation Mono&quot;;text-decoration-color:#000;white-space:pre;shape-inside:url(#d);display:inline;fill:green;stroke-width:1;-inkscape-stroke:none;stop-color:#000" transform="translate(78.06 -4.14)scale(.26458)"><tspan x="-18.475" y="292.637">H1</tspan></text><path d="M43.017 165.13v18.756" style="fill:#ccc;stroke:green;stroke-width:.264583;stroke-linejoin:round;marker-start:url(#e);marker-end:url(#e)"/><text xml:space="preserve" style="font-size:16px;line-height:normal;font-family:&quot;Liberation Mono&quot;;-inkscape-font-specification:&quot;Liberation Mono&quot;;text-decoration-color:#000;white-space:pre;shape-inside:url(#f);display:inline;fill:green;stroke-width:1;-inkscape-stroke:none;stop-color:#000" transform="translate(-13.452 96.461)scale(.26458)"><tspan x="157.039" y="352.522">W1</tspan></text><text xml:space="preserve" style="font-size:16px;line-height:normal;font-family:&quot;Liberation Mono&quot;;-inkscape-font-specification:&quot;Liberation Mono&quot;;text-decoration-color:#000;white-space:pre;shape-inside:url(#g);display:inline;fill:green;stroke-width:1;-inkscape-stroke:none;stop-color:#000" transform="translate(48.458 98.819)scale(.26458)"><tspan x="-18.475" y="292.637">H1</tspan></text><text xml:space="preserve" style="font-size:16px;line-height:normal;font-family:&quot;Liberation Mono&quot;;-inkscape-font-specification:&quot;Liberation Mono&quot;;text-decoration-color:#000;white-space:pre;shape-inside:url(#h);display:inline;fill:green;stroke-width:1;-inkscape-stroke:none;stop-color:#000" transform="translate(93.899 -1.369)scale(.26458)"><tspan x="-75.811" y="224.789">H2p</tspan></text><path d="M72.324 54.255v4.889" style="fill:#ccc;stroke:green;stroke-width:.264583;stroke-linejoin:round;marker-start:url(#i);marker-end:url(#i)"/><text xml:space="preserve" style="font-size:16px;line-height:normal;font-family:&quot;Liberation Mono&quot;;-inkscape-font-specification:&quot;Liberation Mono&quot;;text-decoration-color:#000;white-space:pre;shape-inside:url(#j);display:inline;fill:#f60;stroke-width:1;-inkscape-stroke:none;stop-color:#000" transform="translate(70.644 12.706)scale(.26458)"><tspan x="-57.654" y="248.998">Hc</tspan></text><path d="m31.387 54.415 6.992-7.931" style="fill:#f60;stroke:#aade87;stroke-width:.264583;stroke-linejoin:round"/><path d="m32.52 53.164 6.266 5.98 3.68-2.202-5.905-8.409z" style="fill:#f2f2f2;stroke:#f60;stroke-width:.264583;stroke-linejoin:round"/><path d="M28.203 42.6h5.292v5.292h-5.292z" style="fill:#f2f2f2;stroke:#e6e6e6;stroke-width:.264583;stroke-linejoin:round"/><path d="M33.494 42.6v5.291h3.693l6.943-2.778-.052-2.513z" style="fill:none;stroke:#ffe680;stroke-width:.264583;stroke-linejoin:round"/><path d="m42.312 45.858-5.155 2.086-.506.625 5.84 8.403 3.993-1.52z" style="fill:none;stroke:#d4aa00;stroke-width:.264583;stroke-linejoin:round"/><text xml:space="preserve" style="font-size:16px;line-height:normal;font-family:&quot;Liberation Mono&quot;;-inkscape-font-specification:&quot;Liberation Mono&quot;;text-decoration-color:#000;white-space:pre;shape-inside:url(#k);display:inline;fill:#d4aa00;stroke-width:1;-inkscape-stroke:none;stop-color:#000" transform="translate(16.329 39.452)scale(.26458)"><tspan x="32.885" y="110.188">R1</tspan></text><path d="M18.483 183.94v-18.743s2.106-1.31 3.241-1.799a22.7 22.7 0 0 1 4.46-1.413 18.3 18.3 0 0 1 3.63-.34c1.213 0 2.432.114 3.624.339 1.187.224 2.367.536 3.482.999 1.403.582 3.98 2.214 3.98 2.214v18.743z" style="fill:none;stroke:#00f;stroke-width:.264583;stroke-linejoin:round"/><circle cx="90.094" cy="172.772" r="17.109" style="fill:none;stroke:#b3b3b3;stroke-width:.264583;stroke-linejoin:round"/><circle cx="29.814" cy="181.535" r="19.806" style="fill:none;stroke:#b3b3b3;stroke-width:.264583;stroke-linejoin:round"/><circle cx="81.099" cy="172.772" r="17.109" style="fill:none;stroke:#b3b3b3;stroke-width:.264583;stroke-linejoin:round"/><path d="M85.372 156.254s-2.205.806-3.229 1.37a19.4 19.4 0 0 0-3.425 2.37 16.4 16.4 0 0 0-2.42 2.661c-.788 1.078-2.003 3.47-2.003 3.47M85.636 156.254s2.204.806 3.228 1.37c1.217.67 2.381 1.456 3.426 2.37.902.79 1.713 1.693 2.42 2.661.787 1.078 2.003 3.47 2.003 3.47" style="fill:none;stroke:#00f;stroke-width:.264583;stroke-linejoin:round"/><path d="M96.713 166.124v18.743H74.295v-18.743M26.331 214.933a19.4 19.4 0 0 0-3.425 2.371 16.4 16.4 0 0 0-2.42 2.66c-.788 1.08-2.004 3.47-2.004 3.47M33.052 214.933q.426.236.842.489a18.7 18.7 0 0 1 2.584 1.882c.902.79 1.712 1.693 2.42 2.66.787 1.08 2.003 3.47 2.003 3.47M40.9 223.434v18.743H18.483v-18.743M26.331 214.933s1.247-.562 1.909-.715c.43-.1.877-.128 1.32-.125.492.003.989.05 1.47.156.695.152 2.022.684 2.022.684" style="fill:none;stroke:#00f;stroke-width:.264583;stroke-linejoin:round"/><path d="m26.331 214.933 3.228 6.167 3.493-6.167" style="fill:none;stroke:#fff6d5;stroke-width:.264583;stroke-linejoin:round"/><path d="M96.713 223.434v18.743H74.295v-18.743" style="fill:none;stroke:#00f;stroke-width:.264583;stroke-linejoin:round"/><path d="m40.9 165.197-5.978-4.53" style="fill:none;stroke:#aad400;stroke-width:.264583;stroke-linejoin:round;marker-end:url(#b)"/><path d="m74.295 166.124 4.548-8.556" style="fill:none;stroke:#d45500;stroke-width:.264583;stroke-linejoin:round;marker-end:url(#b)"/><path d="m18.482 223.434 4.55-8.556" style="fill:none;stroke:#d45500;stroke-width:.264583;stroke-linejoin:round;marker-end:url(#l)"/><path d="m74.295 223.434 2.779-7.124" style="fill:none;stroke:#d45500;stroke-width:.264583;stroke-linejoin:round;marker-end:url(#m)"/><path d="m85.504 212.636-7.583 1.915" style="fill:none;stroke:#d45500;stroke-width:.264583;stroke-linejoin:round;marker-end:url(#n)"/><path d="M74.295 223.434s1.228-2.64 1.978-3.887c.655-1.088 1.317-2.196 2.191-3.118.688-.726 1.515-1.319 2.36-1.854.637-.404 1.328-.718 2.022-1.011.865-.365 2.658-.928 2.658-.928M96.713 223.434s-1.229-2.64-1.978-3.887c-.655-1.088-1.317-2.196-2.191-3.118-.688-.726-1.515-1.319-2.36-1.854-.637-.404-1.328-.718-2.023-1.011-.864-.365-2.657-.928-2.657-.928" style="fill:none;stroke:#00f;stroke-width:.264583;stroke-linejoin:round"/><path d="M18.47 186.057H40.9" style="fill:none;stroke:green;stroke-width:.264583;stroke-linejoin:round;marker-start:url(#o);marker-end:url(#o)"/><path d="M98.843 166.058v18.755" style="fill:#ccc;stroke:green;stroke-width:.264583;stroke-linejoin:round;marker-start:url(#p);marker-end:url(#p)"/><text xml:space="preserve" style="font-size:16px;line-height:normal;font-family:&quot;Liberation Mono&quot;;-inkscape-font-specification:&quot;Liberation Mono&quot;;text-decoration-color:#000;white-space:pre;shape-inside:url(#q);display:inline;fill:green;stroke-width:1;-inkscape-stroke:none;stop-color:#000" transform="translate(42.373 97.388)scale(.26458)"><tspan x="157.039" y="352.522">W1</tspan></text><text xml:space="preserve" style="font-size:16px;line-height:normal;font-family:&quot;Liberation Mono&quot;;-inkscape-font-specification:&quot;Liberation Mono&quot;;text-decoration-color:#000;white-space:pre;shape-inside:url(#r);display:inline;fill:green;stroke-width:1;-inkscape-stroke:none;stop-color:#000" transform="translate(104.283 99.746)scale(.26458)"><tspan x="-18.475" y="292.637">H1</tspan></text><path d="M74.295 186.984h22.431" style="fill:none;stroke:green;stroke-width:.264583;stroke-linejoin:round;marker-start:url(#s);marker-end:url(#s)"/><path d="M43.03 223.368v18.755" style="fill:#ccc;stroke:green;stroke-width:.264583;stroke-linejoin:round;marker-start:url(#t);marker-end:url(#t)"/><text xml:space="preserve" style="font-size:16px;line-height:normal;font-family:&quot;Liberation Mono&quot;;-inkscape-font-specification:&quot;Liberation Mono&quot;;text-decoration-color:#000;white-space:pre;shape-inside:url(#u);display:inline;fill:green;stroke-width:1;-inkscape-stroke:none;stop-color:#000" transform="translate(-13.44 154.698)scale(.26458)"><tspan x="157.039" y="352.522">W1</tspan></text><text xml:space="preserve" style="font-size:16px;line-height:normal;font-family:&quot;Liberation Mono&quot;;-inkscape-font-specification:&quot;Liberation Mono&quot;;text-decoration-color:#000;white-space:pre;shape-inside:url(#v);display:inline;fill:green;stroke-width:1;-inkscape-stroke:none;stop-color:#000" transform="translate(48.47 157.056)scale(.26458)"><tspan x="-18.475" y="292.637">H1</tspan></text><path d="M18.482 244.294h22.432" style="fill:none;stroke:green;stroke-width:.264583;stroke-linejoin:round;marker-start:url(#w);marker-end:url(#w)"/><path d="M98.843 223.368v18.755" style="fill:#ccc;stroke:green;stroke-width:.264583;stroke-linejoin:round;marker-start:url(#x);marker-end:url(#x)"/><text xml:space="preserve" style="font-size:16px;line-height:normal;font-family:&quot;Liberation Mono&quot;;-inkscape-font-specification:&quot;Liberation Mono&quot;;text-decoration-color:#000;white-space:pre;shape-inside:url(#y);display:inline;fill:green;stroke-width:1;-inkscape-stroke:none;stop-color:#000" transform="translate(42.373 154.698)scale(.26458)"><tspan x="157.039" y="352.522">W1</tspan></text><text xml:space="preserve" style="font-size:16px;line-height:normal;font-family:&quot;Liberation Mono&quot;;-inkscape-font-specification:&quot;Liberation Mono&quot;;text-decoration-color:#000;white-space:pre;shape-inside:url(#z);display:inline;fill:green;stroke-width:1;-inkscape-stroke:none;stop-color:#000" transform="translate(104.283 157.055)scale(.26458)"><tspan x="-18.475" y="292.637">H1</tspan></text><path d="M74.295 244.294h22.431" style="fill:none;stroke:green;stroke-width:.264583;stroke-linejoin:round;marker-start:url(#A);marker-end:url(#A)"/><text xml:space="preserve" style="font-size:16px;line-height:normal;font-family:&quot;Liberation Mono&quot;;-inkscape-font-specification:&quot;Liberation Mono&quot;;text-decoration-color:#000;white-space:pre;shape-inside:url(#B);display:inline;fill:#000;stroke-width:1;-inkscape-stroke:none;stop-color:#000" transform="translate(-92.61 -29.797)scale(.26458)"><tspan x="435.611" y="790.408">1-arc</tspan></text><text xml:space="preserve" style="font-size:16px;line-height:normal;font-family:&quot;Liberation Mono&quot;;-inkscape-font-specification:&quot;Liberation Mono&quot;;text-decoration-color:#000;white-space:pre;shape-inside:url(#C);display:inline;fill:#000;stroke-width:1;-inkscape-stroke:none;stop-color:#000" transform="translate(-37.664 -42.55)scale(.26458)"><tspan x="439.666" y="838.174">2-arcs</tspan></text><text xml:space="preserve" style="font-size:16px;line-height:normal;font-family:&quot;Liberation Mono&quot;;-inkscape-font-specification:&quot;Liberation Mono&quot;;text-decoration-color:#000;white-space:pre;shape-inside:url(#D);display:inline;fill:#000;stroke-width:1;-inkscape-stroke:none;stop-color:#000" transform="translate(-93.802 .954)scale(.26458)"><tspan x="440.791" y="895.199">3-arcs</tspan></text><text xml:space="preserve" style="font-size:16px;line-height:normal;font-family:&quot;Liberation Mono&quot;;-inkscape-font-specification:&quot;Liberation Mono&quot;;text-decoration-color:#000;white-space:pre;shape-inside:url(#E);display:inline;fill:#000;stroke-width:1;-inkscape-stroke:none;stop-color:#000" transform="translate(-38.498 -14.064)scale(.26458)"><tspan x="441.791" y="951.443">4-arcs</tspan></text><path d="M26.615 79.641v5.292" style="fill:#fff;stroke:purple;stroke-width:.264583;stroke-linejoin:round;marker-start:url(#b);marker-end:url(#b)"/><path d="M28.203 87.05h10.583" style="fill:#fff;stroke:purple;stroke-width:.264583;stroke-linejoin:round;marker-start:url(#b);marker-end:url(#b)"/><text xml:space="preserve" style="font-size:16px;line-height:normal;font-family:&quot;Liberation Mono&quot;;-inkscape-font-specification:&quot;Liberation Mono&quot;;text-decoration-color:#000;white-space:pre;shape-inside:url(#F);display:inline;fill:purple;stroke-width:1;-inkscape-stroke:none;stop-color:#000" transform="translate(-76.357 -22.755)scale(.26458)"><tspan x="366.18" y="403.486">bH</tspan></text><text xml:space="preserve" style="font-size:16px;line-height:normal;font-family:&quot;Liberation Mono&quot;;-inkscape-font-specification:&quot;Liberation Mono&quot;;text-decoration-color:#000;white-space:pre;shape-inside:url(#G);display:inline;fill:purple;stroke-width:1;-inkscape-stroke:none;stop-color:#000" transform="translate(-69.193 -26.632)scale(.26458)"><tspan x="377.146" y="444.26">bW</tspan></text><path d="m53.096 202.27 7.08-6.574" style="fill:purple;stroke:#000;stroke-width:.264583;stroke-linejoin:round;stroke-dasharray:none;marker-end:url(#b)"/><text xml:space="preserve" style="font-size:16px;line-height:normal;font-family:&quot;Liberation Mono&quot;;-inkscape-font-specification:&quot;Liberation Mono&quot;;text-decoration-color:#000;white-space:pre;shape-inside:url(#H);display:inline;fill:#000;stroke-width:1;-inkscape-stroke:none;stop-color:#000" transform="translate(-1.011 -2.191)scale(.26458)"><tspan x="218.516" y="776.811">T1</tspan></text><circle cx="77.035" cy="336.381" r="42.645" style="fill:none;stroke:#b3b3b3;stroke-width:.264583;stroke-linejoin:round"/><path d="M52.636 341.56v-40.357s4.536-2.82 6.98-3.874c3.084-1.328 6.312-2.375 9.602-3.042 2.565-.52 5.2-.733 7.817-.733 2.613 0 5.236.246 7.803.73 2.555.482 5.097 1.154 7.498 2.15 3.02 1.255 8.571 4.77 8.571 4.77v40.356z" style="fill:none;stroke:#00f;stroke-width:.264583;stroke-linejoin:round"/><path d="m77.035 293.736-24.399 7.467M64.836 297.47l-7.468-24.4M86.716 368.37l-21.88-70.9M77.035 270.642v108.383" style="fill:purple;stroke:#d4aa00;stroke-width:.264583;stroke-linejoin:round"/><text xml:space="preserve" style="font-size:16px;line-height:normal;font-family:&quot;Liberation Mono&quot;;-inkscape-font-specification:&quot;Liberation Mono&quot;;text-decoration-color:#000;white-space:pre;shape-inside:url(#I);display:inline;fill:#000;stroke-width:1;-inkscape-stroke:none;stop-color:#000" transform="translate(11.462 17.65)scale(.26458)"><tspan x="151.623" y="1068.272">D</tspan></text><text xml:space="preserve" style="font-size:16px;line-height:normal;font-family:&quot;Liberation Mono&quot;;-inkscape-font-specification:&quot;Liberation Mono&quot;;text-decoration-color:#000;white-space:pre;shape-inside:url(#J);display:inline;fill:#000;stroke-width:1;-inkscape-stroke:none;stop-color:#000" transform="translate(50.82 65.923)scale(.26458)"><tspan x="103.523" y="1026.422">A</tspan></text><text xml:space="preserve" style="font-size:16px;line-height:normal;font-family:&quot;Liberation Mono&quot;;-inkscape-font-specification:&quot;Liberation Mono&quot;;text-decoration-color:#000;white-space:pre;shape-inside:url(#K);display:inline;fill:#000;stroke-width:1;-inkscape-stroke:none;stop-color:#000" transform="translate(39.696 21.255)scale(.26458)"><tspan x="143.979" y="1026.422">B</tspan></text><text xml:space="preserve" style="font-size:16px;line-height:normal;font-family:&quot;Liberation Mono&quot;;-inkscape-font-specification:&quot;Liberation Mono&quot;;text-decoration-color:#000;white-space:pre;shape-inside:url(#L);display:inline;fill:#000;stroke-width:1;-inkscape-stroke:none;stop-color:#000" transform="translate(37.589 18.052)scale(.26458)"><tspan x="108.32" y="1065.723">C</tspan></text><path d="m63.294 298.028.421 1.77 1.517-.421" style="fill:none;stroke:gray;stroke-width:.264583;stroke-linejoin:round"/><path d="m75.346 300.978.084-1.601 1.601.084" style="fill:none;stroke:#b3b3b3;stroke-width:.264583;stroke-linejoin:round"/><text xml:space="preserve" style="font-size:16px;line-height:normal;font-family:&quot;Liberation Mono&quot;;-inkscape-font-specification:&quot;Liberation Mono&quot;;text-decoration-color:#000;white-space:pre;shape-inside:url(#M);display:inline;fill:#000;stroke-width:1;-inkscape-stroke:none;stop-color:#000" transform="translate(53.18 15.693)scale(.26458)"><tspan x="92.375" y="1083.879">E</tspan></text><text xml:space="preserve" style="font-size:16px;line-height:normal;font-family:&quot;Liberation Mono&quot;;-inkscape-font-specification:&quot;Liberation Mono&quot;;text-decoration-color:#000;white-space:pre;shape-inside:url(#N);display:inline;fill:#000;stroke-width:1;-inkscape-stroke:none;stop-color:#000" transform="translate(65.315 -84.563)scale(.26458)"><tspan x="139.648" y="1454.863">F</tspan></text><path d="M77.035 336.797V313.62" style="fill:none;stroke:red;stroke-width:.264583;stroke-linejoin:round"/><text xml:space="preserve" style="font-size:16px;line-height:normal;font-family:&quot;Liberation Mono&quot;;-inkscape-font-specification:&quot;Liberation Mono&quot;;text-decoration-color:#000;white-space:pre;shape-inside:url(#O);display:inline;fill:#000;stroke-width:1;-inkscape-stroke:none;stop-color:#000" transform="translate(59.297 .153)scale(.26458)"><tspan x="55.408" y="1196.289">G</tspan></text><path d="m77.046 313.605-34.909-17.8" style="fill:none;stroke:#f0f;stroke-width:.264583;stroke-linejoin:round"/><text xml:space="preserve" style="font-size:16px;line-height:normal;font-family:&quot;Liberation Mono&quot;;-inkscape-font-specification:&quot;Liberation Mono&quot;;text-decoration-color:#000;white-space:pre;shape-inside:url(#P);display:inline;fill:#000;stroke-width:1;-inkscape-stroke:none;stop-color:#000" transform="translate(-2.94 35.397)scale(.26458)"><tspan x="71.988" y="1168.61">R1</tspan></text><path d="m21.744 343.522 11.968-2.36" style="fill:none;stroke:#000;stroke-width:.264583;stroke-linejoin:round;marker-end:url(#b)"/><path d="m77.03 336.801-31.856-46.445" style="fill:none;stroke:#ffd5d5;stroke-width:.264583;stroke-linejoin:round"/><path d="M14.193 53.755h8.091l4.72 4.72h3.712" style="fill:none;stroke:#d45500;stroke-width:.264583;stroke-linejoin:round"/><path d="M14.193 63.194h8.091l4.72-4.72h2.654" style="fill:none;stroke:#d45500;stroke-width:.264583;stroke-linejoin:round"/><path d="M17.368 54.239v8.64" style="fill:none;stroke:red;stroke-width:.264583;stroke-linejoin:round;stroke-dasharray:none;marker-start:url(#b);marker-end:url(#b)"/><text xml:space="preserve" style="font-size:16px;line-height:normal;font-family:&quot;Liberation Mono&quot;;-inkscape-font-specification:&quot;Liberation Mono&quot;;text-decoration-color:#000;white-space:pre;shape-inside:url(#Q);display:inline;fill:red;stroke-width:1;-inkscape-stroke:none;stop-color:#000" transform="translate(-104.5 -16.197)scale(.26458)"><tspan x="438.305" y="286.266">jW</tspan></text><path d="M77.046 313.605h57.647" style="fill:red;stroke:gray;stroke-width:.264583;stroke-linejoin:round"/><path d="m77.035 313.62 20.897-27.07" style="fill:red;stroke:#e3dbdb;stroke-width:.264583;stroke-linejoin:round"/><text xml:space="preserve" style="font-size:16px;line-height:normal;font-family:&quot;Liberation Mono&quot;;-inkscape-font-specification:&quot;Liberation Mono&quot;;text-decoration-color:#000;white-space:pre;shape-inside:url(#R);fill:#000;stroke-width:1;-inkscape-stroke:none;stop-color:#000" transform="translate(3.933 -5.125)scale(.26458)"><tspan x="361.734" y="1327.379">J</tspan></text><text xml:space="preserve" style="font-size:16px;line-height:normal;font-family:&quot;Liberation Mono&quot;;-inkscape-font-specification:&quot;Liberation Mono&quot;;text-decoration-color:#000;white-space:pre;shape-inside:url(#S);fill:#000;stroke-width:1;-inkscape-stroke:none;stop-color:#000" transform="translate(56.019 -42.074)scale(.26458)"><tspan x="216.229" y="1341.344">K</tspan></text><text xml:space="preserve" style="font-size:16px;line-height:normal;font-family:&quot;Liberation Mono&quot;;-inkscape-font-specification:&quot;Liberation Mono&quot;;text-decoration-color:#000;white-space:pre;shape-inside:url(#T);fill:#000;stroke-width:1;-inkscape-stroke:none;stop-color:#000" transform="translate(29.44 -72.228)scale(.26458)"><tspan x="224.789" y="1385.49">L</tspan></text><text xml:space="preserve" style="font-size:16px;line-height:normal;font-family:&quot;Liberation Mono&quot;;-inkscape-font-specification:&quot;Liberation Mono&quot;;text-decoration-color:#000;white-space:pre;shape-inside:url(#U);fill:#000;stroke-width:1;-inkscape-stroke:none;stop-color:#000" transform="translate(-2.622 -9.654)scale(.26458)"><tspan x="393.268" y="1235.481">M</tspan></text><path fill="none" stroke="green" stroke-width=".265" d="m66.908 488.787 5.74-4.3-4.44-4.52-4.412 5.653z"/><path fill="none" stroke="green" stroke-width=".265" d="m63.796 485.62 4.413-5.652-5.47-3.2-2.776 6.609z"/><path fill="none" stroke="green" stroke-width=".265" d="m59.963 483.377 2.777-6.61-6.117-1.657-.948 7.105zM55.675 482.215l.948-7.105h-6.338l.948 7.105zM97.856 435.805l2.682-20.045H82.605l2.682 20.045z"/><path fill="none" stroke="green" stroke-width=".265" d="m51.233 482.215-.948-7.105-6.117 1.658 2.777 6.609z"/><path fill="none" stroke="green" stroke-width=".265" d="m46.945 483.377-2.777-6.61-5.469 3.2 4.413 5.653z"/><path fill="none" stroke="green" stroke-width=".265" d="m43.112 485.62-4.413-5.652-4.44 4.518L40 488.787zM32.828 506.702h7.169v-3.576h-7.169zM66.911 506.702h7.169v-3.576H66.91zM36.416 503.119h3.58v-3.577h-3.58zM66.911 503.119h3.58v-3.577h-3.58zM32.828 499.535h7.169v-3.577h-7.169zM66.911 499.535h7.169v-3.577H66.91zM36.416 495.951h3.58v-3.577h-3.58zM66.911 495.951h3.58v-3.577h-3.58zM32.828 492.367h7.169v-3.576h-7.169zM66.911 492.367h7.169v-3.576H66.91zM36.416 510.286h6.271v-3.577h-6.27zM42.695 510.286h7.168v-3.577h-7.168zM49.87 510.286h7.168v-3.577H49.87zM57.045 510.286h7.168v-3.577h-7.168ZM64.22 510.286h6.272v-3.577H64.22z"/><text xml:space="preserve" style="font-size:16px;line-height:normal;font-family:&quot;Liberation Mono&quot;;-inkscape-font-specification:&quot;Liberation Mono&quot;;text-decoration-color:#000;white-space:pre;shape-inside:url(#V);fill:#000;stroke-width:1;-inkscape-stroke:none;stop-color:#000" transform="translate(-5.9 6.91)scale(.26458)"><tspan x="116.584" y="1740.699">spread: [widest, odd, even]</tspan></text><path d="m39.948 469.098 1.18 7.08" style="fill:#000;stroke:#d4aa00;stroke-width:.26458333;stroke-linejoin:round;stroke-dasharray:none;marker-end:url(#b)"/><path d="m41.044 468.424 5.394 6.827" style="fill:#000;stroke:#d4aa00;stroke-width:.264583;stroke-linejoin:round;stroke-dasharray:none;marker-end:url(#b)"/><path d="m102.898 416.181-2.682 20.045" style="fill:#fff;stroke:#a00;stroke-width:.264583;stroke-linejoin:round;stroke-dasharray:none;marker-start:url(#b);marker-end:url(#b)"/><path d="M78.454 410.103v7.163M105.32 410.103v7.163" style="fill:#fff;stroke:#b3b3b3;stroke-width:.264583;stroke-linejoin:round;stroke-dasharray:none"/><path d="M78.454 410.103h26.866" style="fill:#fff;stroke:#a00;stroke-width:.264583;stroke-linejoin:round;stroke-dasharray:none;marker-start:url(#b);marker-end:url(#b)"/><text xml:space="preserve" style="font-size:16px;line-height:normal;font-family:&quot;Liberation Mono&quot;;-inkscape-font-specification:&quot;Liberation Mono&quot;;text-decoration-color:#000;white-space:pre;shape-inside:url(#W);fill:maroon;stroke-width:1;-inkscape-stroke:none;stop-color:#000" transform="translate(-7.838)scale(.26458)"><tspan x="416.645" y="1616.152">vL</tspan></text><text xml:space="preserve" style="font-size:16px;line-height:normal;font-family:&quot;Liberation Mono&quot;;-inkscape-font-specification:&quot;Liberation Mono&quot;;text-decoration-color:#000;white-space:pre;shape-inside:url(#X);fill:maroon;stroke-width:1;-inkscape-stroke:none;stop-color:#000" transform="translate(-28.655 -4.551)scale(.26458)"><tspan x="446.588" y="1564.231">vW</tspan></text><text xml:space="preserve" style="font-size:16px;line-height:normal;font-family:&quot;Liberation Mono&quot;;-inkscape-font-specification:&quot;Liberation Mono&quot;;text-decoration-color:#000;white-space:pre;shape-inside:url(#Y);fill:#000;stroke-width:1;-inkscape-stroke:none;stop-color:#000" transform="translate(22.503 -39.358)scale(.26458)"><tspan x="210.871" y="1682.09">(max width)</tspan></text><path fill="none" stroke="green" stroke-width=".149" d="m85.594 648.785 20.844-15.625-3.947-4.702-19.018 17.8z" style="stroke-width:.264583"/><path fill="none" stroke="green" stroke-width=".149" d="m83.473 646.258 19.018-17.8-4.436-4.245-16.966 19.763zM81.089 643.976l16.966-19.763-4.872-3.737-14.712 21.492ZM78.47 641.968l14.713-21.492-5.25-3.184-12.284 22.965zM75.649 640.257l12.283-22.965-5.566-2.595-9.708 24.166z" style="stroke-width:.264583"/><path fill="none" stroke="green" stroke-width=".149" d="m72.658 638.863 9.708-24.166-5.815-1.973-7.018 25.078z" style="stroke-width:.264583"/><path fill="none" stroke="green" stroke-width=".149" d="m69.533 637.802 7.018-25.078-5.996-1.329-4.245 25.693zM66.31 637.088l4.245-25.693-6.105-.668-1.42 26.002z" style="stroke-width:.264583"/><path fill="none" stroke="green" stroke-width=".149" d="m63.03 636.73 1.42-26.003h-6.142l1.421 26.002z" style="stroke-width:.264583"/><path fill="none" stroke="green" stroke-width=".149" d="m59.729 636.73-1.42-26.003-6.106.668 4.245 25.693z" style="stroke-width:.264583"/><path fill="none" stroke="green" stroke-width=".149" d="m56.448 637.088-4.245-25.693-5.995 1.329 7.018 25.078zM53.226 637.802l-7.018-25.078-5.816 1.973 9.709 24.166z" style="stroke-width:.264583"/><path fill="none" stroke="green" stroke-width=".149" d="m50.1 638.863-9.708-24.166-5.566 2.595 12.283 22.965z" style="stroke-width:.264583"/><path fill="none" stroke="green" stroke-width=".149" d="m47.11 640.257-12.284-22.965-5.25 3.184 14.712 21.492zM44.288 641.968l-14.712-21.492-4.873 3.737 16.967 19.763z" style="stroke-width:.264583"/><path fill="none" stroke="green" stroke-width=".149" d="m41.67 643.976-16.967-19.763-4.436 4.245 19.019 17.8zM39.286 646.258l-19.019-17.8-3.947 4.702 20.844 15.625zM24.256 681.047h12.902v-6.44H24.256ZM85.6 681.047h12.902v-6.44H85.601ZM30.713 674.593h6.445v-6.44h-6.445ZM85.6 674.593h6.445v-6.44h-6.444zM24.256 668.14h12.902v-6.441H24.256ZM85.6 668.14h12.902v-6.441H85.601ZM30.713 661.686h6.445v-6.441h-6.445ZM85.6 661.686h6.445v-6.441h-6.444zM24.256 655.232h12.902v-6.44H24.256ZM85.6 655.232h12.902v-6.44H85.601ZM30.713 687.5h11.288v-6.44H30.713ZM42.014 687.5h12.901v-6.44H42.014zM54.928 687.5H67.83v-6.44H54.928ZM67.843 687.5h12.902v-6.44H67.843ZM80.758 687.5h11.287v-6.44H80.758Z" style="stroke-width:.264583"/><path fill="none" stroke="green" stroke-width=".265" d="M24.256 648.791h12.902v-6.44H24.256ZM24.256 642.35h12.902v-6.44H24.256ZM11.354 642.35h12.902v-6.44H11.354ZM11.354 635.91h12.902v-6.441H11.354Z" style="stroke:#a00;stroke-width:.264583"/></svg>