<svg xmlns="http://www.w3.org/2000/svg" width="600" height="3000" viewBox="0 0 158.75 793.75"><defs><path id="A" d="M44.147 365.788h198.661v45.949H44.147z"/><path id="h" d="M254.069 322.091h45.048v45.048h-45.048z"/><path id="g" d="M234.672 209.923h32.461v23.741h-32.461z"/><path id="f" d="M203.841 231.771h46.174v24.776h-46.174z"/><path id="d" d="M45.723 250.465h24.776v18.92H45.723z"/><path id="b" d="M20.386 20.386h217.878v63.707H20.386z"/><path id="e" d="M45.723 250.465h24.776v18.92H45.723z"/><path id="a" d="M234.672 209.923h32.461v23.741h-32.461z"/><path id="j" d="M203.841 231.771h46.174v24.776h-46.174z"/><path id="l" d="M45.723 250.465h24.776v18.92H45.723z"/><path id="o" d="M45.723 250.465h24.776v18.92H45.723z"/><path id="p" d="M45.723 250.465h24.776v18.92H45.723z"/><path id="r" d="M45.723 250.465h24.776v18.92H45.723z"/><path id="t" d="M45.723 250.465h24.776v18.92H45.723z"/><path id="v" d="M45.723 250.465h24.776v18.92H45.723z"/><path id="x" d="M45.723 250.465h30.744v24.776H45.723z"/><path id="z" d="M45.723 250.465h24.776v18.92H45.723z"/><path id="B" d="M44.147 365.788h198.661v45.949H44.147z"/><path id="C" d="M203.841 231.771h46.174v24.776h-46.174z"/><path id="F" d="M174.558 591.202h89.19v155.445h-89.19z"/><path id="G" d="M174.558 591.202h89.19v155.445h-89.19z"/><path id="H" d="M174.558 591.202h89.19v155.445h-89.19z"/><marker id="c" markerHeight="1" markerWidth="1" orient="auto-start-reverse" preserveAspectRatio="xMidYMid" refX="0" refY="0" style="overflow:visible" viewBox="0 0 1 1"><path d="M3-3 0 0l3 3" style="fill:none;stroke:context-stroke;stroke-width:1;stroke-linecap:butt" transform="rotate(180 .125 0)"/></marker><marker id="i" markerHeight="1" markerWidth="1" orient="auto-start-reverse" preserveAspectRatio="xMidYMid" refX="0" refY="0" style="overflow:visible" viewBox="0 0 1 1"><path d="M3-3 0 0l3 3" style="fill:none;stroke:context-stroke;stroke-width:1;stroke-linecap:butt" transform="rotate(180 .125 0)"/></marker><marker id="k" markerHeight="1" markerWidth="1" orient="auto-start-reverse" preserveAspectRatio="xMidYMid" refX="0" refY="0" style="overflow:visible" viewBox="0 0 1 1"><path d="M3-3 0 0l3 3" style="fill:none;stroke:context-stroke;stroke-width:1;stroke-linecap:butt" transform="rotate(180 .125 0)"/></marker><marker id="m" markerHeight="1" markerWidth="1" orient="auto-start-reverse" preserveAspectRatio="xMidYMid" refX="0" refY="0" style="overflow:visible" viewBox="0 0 1 1"><path d="M3-3 0 0l3 3" style="fill:none;stroke:context-stroke;stroke-width:1;stroke-linecap:butt" transform="rotate(180 .125 0)"/></marker><marker id="n" markerHeight="1" markerWidth="1" orient="auto-start-reverse" preserveAspectRatio="xMidYMid" refX="0" refY="0" style="overflow:visible" viewBox="0 0 1 1"><path d="M3-3 0 0l3 3" style="fill:none;stroke:context-stroke;stroke-width:1;stroke-linecap:butt" transform="rotate(180 .125 0)"/></marker><marker id="q" markerHeight="1" markerWidth="1" orient="auto-start-reverse" preserveAspectRatio="xMidYMid" refX="0" refY="0" style="overflow:visible" viewBox="0 0 1 1"><path d="M3-3 0 0l3 3" style="fill:none;stroke:context-stroke;stroke-width:1;stroke-linecap:butt" transform="rotate(180 .125 0)"/></marker><marker id="s" markerHeight="1" markerWidth="1" orient="auto-start-reverse" preserveAspectRatio="xMidYMid" refX="0" refY="0" style="overflow:visible" viewBox="0 0 1 1"><path d="M3-3 0 0l3 3" style="fill:none;stroke:context-stroke;stroke-width:1;stroke-linecap:butt" transform="rotate(180 .125 0)"/></marker><marker id="u" markerHeight="1" markerWidth="1" orient="auto-start-reverse" preserveAspectRatio="xMidYMid" refX="0" refY="0" style="overflow:visible" viewBox="0 0 1 1"><path d="M3-3 0 0l3 3" style="fill:none;stroke:context-stroke;stroke-width:1;stroke-linecap:butt" transform="rotate(180 .125 0)"/></marker><marker id="w" markerHeight="1" markerWidth="1" orient="auto-start-reverse" preserveAspectRatio="xMidYMid" refX="0" refY="0" style="overflow:visible" viewBox="0 0 1 1"><path d="M3-3 0 0l3 3" style="fill:none;stroke:context-stroke;stroke-width:1;stroke-linecap:butt" transform="rotate(180 .125 0)"/></marker><marker id="y" markerHeight="1" markerWidth="1" orient="auto-start-reverse" preserveAspectRatio="xMidYMid" refX="0" refY="0" style="overflow:visible" viewBox="0 0 1 1"><path d="M3-3 0 0l3 3" style="fill:none;stroke:context-stroke;stroke-width:1;stroke-linecap:butt" transform="rotate(180 .125 0)"/></marker><marker id="D" markerHeight="1" markerWidth="1" orient="auto-start-reverse" preserveAspectRatio="xMidYMid" refX="0" refY="0" style="overflow:visible" viewBox="0 0 1 1"><path d="M3-3 0 0l3 3" style="fill:none;stroke:context-stroke;stroke-width:1;stroke-linecap:butt" transform="rotate(180 .125 0)"/></marker><marker id="E" markerHeight="1" markerWidth="1" orient="auto-start-reverse" preserveAspectRatio="xMidYMid" refX="0" refY="0" style="overflow:visible" viewBox="0 0 1 1"><path d="M3-3 0 0l3 3" style="fill:none;stroke:context-stroke;stroke-width:1;stroke-linecap:butt" transform="rotate(180 .125 0)"/></marker></defs><path d="M48.867 199.045h85.697v61.859H48.867zM8.448 89.335h103.701v86.23H8.448z" style="fill:#fff;stroke:#fff;stroke-width:.264583;stroke-linejoin:round"/><path d="M16.014 114.756h16.384" style="fill:none;stroke:#ccc;stroke-width:.264583;stroke-linejoin:round"/><path d="M26.439 114.756h5.959v34.446h-5.959z" style="fill:#fff6d5;stroke:#000;stroke-width:.264583;stroke-linejoin:round"/><path d="M15.375 25.745h57.091v43.266H15.375z" style="fill:#fff;stroke:#fff;stroke-width:.264583;stroke-linejoin:round"/><text xml:space="preserve" style="font-size:16px;line-height:normal;font-family:&quot;Liberation Mono&quot;;-inkscape-font-specification:&quot;Liberation Mono&quot;;text-decoration-color:#000;white-space:pre;shape-inside:url(#a);display:inline;fill:purple;stroke-width:1;-inkscape-stroke:none;stop-color:#000" transform="translate(-52.401 74.382)scale(.26458)"><tspan x="234.672" y="224.158">S1</tspan></text><circle cx="37.926" cy="46.354" r="17.53" style="fill:#fff6d5;stroke:#1a1a1a;stroke-width:.264584;stroke-linejoin:round"/><circle cx="37.926" cy="46.354" r="11.631" style="fill:#fff;stroke:#1a1a1a;stroke-width:.264583;stroke-linejoin:round"/><path d="M37.926 46.354h26.463M17.302 46.354h20.624M49.493 44.58h13.485" style="fill:none;stroke:#ccc;stroke-width:.264583;stroke-linejoin:round"/><text xml:space="preserve" x="-18.566" style="font-size:16px;line-height:normal;font-family:&quot;Liberation Mono&quot;;-inkscape-font-specification:&quot;Liberation Mono&quot;;text-align:start;text-decoration-color:#000;white-space:pre;shape-inside:url(#b);display:inline;fill:#000;stroke-width:1;-inkscape-stroke:none;stop-color:#000" transform="scale(.26458)"><tspan x="20.387" y="34.623">src_springWorm.svg</tspan></text><path d="M49.493 48.126h13.485" style="fill:none;stroke:#ccc;stroke-width:.264583;stroke-linejoin:round"/><path d="M62.978 44.58v3.546" style="fill:purple;stroke:purple;stroke-width:.264583;stroke-linejoin:round;marker-start:url(#c);marker-end:url(#c)"/><path d="m45.712 37.714 3.976-4.4" style="fill:none;stroke:purple;stroke-width:.264583;stroke-linejoin:round;marker-start:url(#c);marker-end:url(#c)"/><text xml:space="preserve" style="font-size:16px;line-height:normal;font-family:&quot;Liberation Mono&quot;;-inkscape-font-specification:&quot;Liberation Mono&quot;;text-decoration-color:#000;white-space:pre;shape-inside:url(#d);display:inline;fill:purple;stroke-width:1;-inkscape-stroke:none;stop-color:#000" transform="translate(38.026 -37.306)scale(.26458)"><tspan x="45.723" y="264.701">E1</tspan></text><text xml:space="preserve" style="font-size:16px;line-height:normal;font-family:&quot;Liberation Mono&quot;;-inkscape-font-specification:&quot;Liberation Mono&quot;;text-decoration-color:#000;white-space:pre;shape-inside:url(#e);display:inline;fill:purple;stroke-width:1;-inkscape-stroke:none;stop-color:#000" transform="translate(-1.658 49.034)scale(.26458)"><tspan x="45.723" y="264.701">E1</tspan></text><text xml:space="preserve" style="font-size:16px;line-height:normal;font-family:&quot;Liberation Mono&quot;;-inkscape-font-specification:&quot;Liberation Mono&quot;;text-decoration-color:#000;white-space:pre;shape-inside:url(#f);display:inline;fill:purple;stroke-width:1;-inkscape-stroke:none;stop-color:#000" transform="scale(.26458)"><tspan x="203.842" y="246.008">D1</tspan></text><path d="m49.258 60.688 4.437 2.601" style="fill:purple;stroke:purple;stroke-width:.264583;stroke-linejoin:round;marker-start:url(#c)"/><text xml:space="preserve" style="font-size:16px;line-height:normal;font-family:&quot;Liberation Mono&quot;;-inkscape-font-specification:&quot;Liberation Mono&quot;;text-decoration-color:#000;white-space:pre;shape-inside:url(#g);display:inline;fill:purple;stroke-width:1;-inkscape-stroke:none;stop-color:#000" transform="translate(2.086 -11.62)scale(.26458)"><tspan x="234.672" y="224.158">S1</tspan></text><path d="M187.648 179.774c.166-2 .166-7.16 0-9.158l-.13-1.553h21.18l.126.916c.164 1.189.164 9.243 0 10.432l-.126.915h-21.18zM77.855 180.41c-.16-.62-.159-8.761.001-10.431l.134-1.394h21.348l-.089.358c-.048.197-.174 1.326-.278 2.509-.182 2.053-.108 7.625.117 8.879l.092.518H77.968Z" style="fill:#eef4d7;stroke:#eef4d7;stroke-width:1;stroke-linejoin:round" transform="scale(.26458)"/><path d="M49.493 44.58h5.9M49.493 48.126h5.9M20.473 44.449h5.9M20.473 47.994h5.9" style="fill:none;stroke:navy;stroke-width:.264583;stroke-linejoin:round"/><path d="M-103.359 82.66h56.376v34.938h-56.376z" style="fill:#fff6d5;stroke:#000;stroke-width:.264583;stroke-linejoin:round"/><path d="M-103.359 82.66h4.909v14.145h-4.909zM-96.095 82.66h4.909v14.145h-4.909z" style="fill:#fff6d5;stroke:#000;stroke-width:.264583;stroke-linejoin:round"/><path d="M-30.548 96.053h4.91l.132 12.99s.456 1.113.97 1.132 1.12-1.133 1.12-1.133l.133-12.99h4.909M-30.548 96.053v34.938M-30.415 130.858h4.909l.132-12.99s.457-1.113.97-1.132c.514-.018 1.12 1.133 1.12 1.133l.133 12.99h4.91M-18.242 95.92v34.938" style="fill:none;stroke:#000;stroke-width:.264583;stroke-linejoin:round"/><path d="M32.398 131.98v-17.224h4.491l.083 6.45c.07 5.422.111 6.506.263 6.8.451.872 1.087 1.063 1.618.487.73-.793.696-.531.697-5.27 0-2.395.035-5.28.078-6.41l.078-2.057h4.611v34.446h-4.491l-.079-3.059a304 304 0 0 1-.079-6.444v-3.386l-.351-.511c-.414-.602-.933-.87-1.303-.672-.135.072-.376.358-.537.636l-.292.504-.086 6.466-.086 6.466h-4.615z" style="fill:#fff6d5;stroke:#000;stroke-width:.264583;stroke-linejoin:round"/><path d="M114.756-47.862h5.9v3.545h-5.9zM143.302-47.862h5.9v3.545h-5.9z" style="fill:#eef4d7;stroke:#000;stroke-width:.264583;stroke-linejoin:round" transform="rotate(90)"/><path d="M47.862 131.98v-17.224h4.491l.083 6.45c.07 5.422.111 6.506.264 6.8.45.872 1.086 1.063 1.617.487.731-.793.696-.531.697-5.27 0-2.395.035-5.28.078-6.41l.078-2.057h4.611v34.446H55.29l-.079-3.059a304 304 0 0 1-.078-6.444v-3.386l-.352-.511c-.414-.602-.933-.87-1.302-.672-.135.072-.377.358-.538.636l-.292.504-.086 6.466-.085 6.466h-4.616z" style="fill:#fff6d5;stroke:#000;stroke-width:.264583;stroke-linejoin:round"/><path d="M114.756-63.326h5.9v3.545h-5.9zM143.302-63.326h5.9v3.545h-5.9z" style="fill:#eef4d7;stroke:#000;stroke-width:.264583;stroke-linejoin:round" transform="rotate(90)"/><path d="M63.326 131.98v-17.224h4.491l.083 6.45c.07 5.422.112 6.506.264 6.8.45.872 1.087 1.063 1.618.487.73-.793.696-.531.696-5.27 0-2.395.036-5.28.078-6.41l.078-2.057h4.611v34.446h-4.491l-.078-3.059a304 304 0 0 1-.08-6.444v-3.386l-.35-.511c-.415-.602-.934-.87-1.303-.672-.135.072-.377.358-.538.636l-.292.504-.085 6.466-.086 6.466h-4.616zM78.791 114.756h4.611v34.446h-4.611z" style="fill:#fff6d5;stroke:#000;stroke-width:.264583;stroke-linejoin:round"/><path d="M114.756-78.791h5.9v3.545h-5.9zM143.302-78.791h5.9v3.545h-5.9z" style="fill:#eef4d7;stroke:#000;stroke-width:.264583;stroke-linejoin:round" transform="rotate(90)"/><path d="m38.498 114.302 12.038-12.157" style="fill:#fff6d5;stroke:#000;stroke-width:.264583;stroke-linejoin:round;marker-start:url(#c)"/><path d="m46.245 113.587 5.125-10.012" style="fill:#fff6d5;stroke:#000;stroke-width:.264583;stroke-linejoin:round;marker-start:url(#c)"/><path d="m53.635 114.66-1.073-10.847" style="fill:#fff6d5;stroke:#000;stroke-width:.264583;stroke-linejoin:round;marker-start:url(#c)"/><path d="m61.501 113.945-7.27-10.608" style="fill:#fff6d5;stroke:#000;stroke-width:.264583;stroke-linejoin:round;marker-start:url(#c)"/><path d="m68.891 114.421-13.826-11.919" style="fill:#fff6d5;stroke:#000;stroke-width:.264583;stroke-linejoin:round;marker-start:url(#c)"/><path d="m75.804 113.587-18.95-12.038" style="fill:#fff6d5;stroke:#000;stroke-width:.264583;stroke-linejoin:round;marker-start:url(#c)"/><text xml:space="preserve" style="font-size:16px;line-height:normal;font-family:&quot;Liberation Mono&quot;;-inkscape-font-specification:&quot;Liberation Mono&quot;;text-decoration-color:#000;white-space:pre;shape-inside:url(#h);display:inline;fill:#000;stroke-width:1;-inkscape-stroke:none;stop-color:#000" transform="translate(-16.09 12.753)scale(.26458)"><tspan x="254.068" y="336.328">N1</tspan></text><path d="M16.014 129.097h22.343M16.014 134.847h22.343" style="fill:none;stroke:#ccc;stroke-width:.264583;stroke-linejoin:round"/><path d="M16.901 129.453v5.067" style="fill:#fff6d5;stroke:purple;stroke-width:.264583;stroke-linejoin:round;marker-start:url(#c);marker-end:url(#c)"/><path d="M16.014 120.656h28.303" style="fill:none;stroke:#ccc;stroke-width:.264583;stroke-linejoin:round"/><path d="M16.71 115.142v5.067" style="fill:#fff6d5;stroke:purple;stroke-width:.264583;stroke-linejoin:round;marker-start:url(#i);marker-end:url(#i)"/><path d="M92.007 114.756h8.108M91.874 149.202h8.109" style="fill:none;stroke:#ccc;stroke-width:.264583;stroke-linejoin:round"/><path d="M100.115 115.14v33.667" style="fill:#fff6d5;stroke:purple;stroke-width:.264583;stroke-linejoin:round;marker-start:url(#c);marker-end:url(#c)"/><text xml:space="preserve" style="font-size:16px;line-height:normal;font-family:&quot;Liberation Mono&quot;;-inkscape-font-specification:&quot;Liberation Mono&quot;;text-decoration-color:#000;white-space:pre;shape-inside:url(#j);display:inline;fill:purple;stroke-width:1;-inkscape-stroke:none;stop-color:#000" transform="translate(46.734 67.216)scale(.26458)"><tspan x="203.842" y="246.008">D1</tspan></text><path d="M86.047 114.756h5.959v34.446h-5.959z" style="fill:#fff6d5;stroke:#000;stroke-width:.264583;stroke-linejoin:round"/><path d="M26.439 161.234v-11.9" style="fill:none;stroke:#ccc;stroke-width:.264583;stroke-linejoin:round"/><path d="M32.398 167.218v-17.884" style="fill:none;stroke:#ccc;stroke-width:.264582;stroke-linejoin:round"/><path d="M26.831 154.526h5.192" style="fill:#fff6d5;stroke:purple;stroke-width:.264583;stroke-linejoin:round;marker-start:url(#k);marker-end:url(#k)"/><text xml:space="preserve" style="font-size:16px;line-height:normal;font-family:&quot;Liberation Mono&quot;;-inkscape-font-specification:&quot;Liberation Mono&quot;;text-decoration-color:#000;white-space:pre;shape-inside:url(#l);display:inline;fill:purple;stroke-width:1;-inkscape-stroke:none;stop-color:#000" transform="translate(15.124 89.012)scale(.26458)"><tspan x="45.723" y="264.701">W1</tspan></text><path d="M37.013 169.716v-20.514M39.826 169.716v-20.514" style="fill:none;stroke:#ccc;stroke-width:.264583;stroke-linejoin:round"/><path d="M37.26 168.47h2.456" style="fill:#fff6d5;stroke:purple;stroke-width:.264583;stroke-linejoin:round;marker-start:url(#m);marker-end:url(#m)"/><path d="M32.765 162.097h3.93" style="fill:#fff6d5;stroke:purple;stroke-width:.264583;stroke-linejoin:round;marker-start:url(#n);marker-end:url(#n)"/><text xml:space="preserve" style="font-size:16px;line-height:normal;font-family:&quot;Liberation Mono&quot;;-inkscape-font-specification:&quot;Liberation Mono&quot;;text-decoration-color:#000;white-space:pre;shape-inside:url(#o);display:inline;fill:purple;stroke-width:1;-inkscape-stroke:none;stop-color:#000" transform="translate(20.431 96.085)scale(.26458)"><tspan x="45.723" y="264.701">W2</tspan></text><text xml:space="preserve" style="font-size:16px;line-height:normal;font-family:&quot;Liberation Mono&quot;;-inkscape-font-specification:&quot;Liberation Mono&quot;;text-decoration-color:#000;white-space:pre;shape-inside:url(#p);display:inline;fill:purple;stroke-width:1;-inkscape-stroke:none;stop-color:#000" transform="translate(24.441 102.597)scale(.26458)"><tspan x="45.723" y="264.701">W3</tspan></text><path d="M44.317 169.356v-20.022" style="fill:none;stroke:#ccc;stroke-width:.264582;stroke-linejoin:round"/><path d="M40.018 158.069h3.929" style="fill:#fff6d5;stroke:#666;stroke-width:.264583;stroke-linejoin:round;marker-start:url(#q);marker-end:url(#q)"/><text xml:space="preserve" style="font-size:16px;line-height:normal;font-family:&quot;Liberation Mono&quot;;-inkscape-font-specification:&quot;Liberation Mono&quot;;text-decoration-color:#000;white-space:pre;shape-inside:url(#r);display:inline;fill:#666;stroke-width:1;-inkscape-stroke:none;stop-color:#000" transform="translate(27.684 92.057)scale(.26458)"><tspan x="45.723" y="264.701">W2</tspan></text><path d="M47.862 169.356v-20.154" style="fill:none;stroke:#ccc;stroke-width:.264583;stroke-linejoin:round"/><path d="M44.73 168.811h2.72" style="fill:#fff6d5;stroke:#666;stroke-width:.264583;stroke-linejoin:round;marker-start:url(#s);marker-end:url(#s)"/><text xml:space="preserve" style="font-size:16px;line-height:normal;font-family:&quot;Liberation Mono&quot;;-inkscape-font-specification:&quot;Liberation Mono&quot;;text-decoration-color:#000;white-space:pre;shape-inside:url(#t);display:inline;fill:#666;stroke-width:1;-inkscape-stroke:none;stop-color:#000" transform="translate(31.884 102.94)scale(.26458)"><tspan x="45.723" y="264.701">W3</tspan></text><path d="M83.401 114.756h2.646v34.446h-2.646z" style="fill:#fff6d5;stroke:#000;stroke-width:.264583;stroke-linejoin:round"/><path d="M86.047 164.705v-15.37" style="fill:none;stroke:#ccc;stroke-width:.264584;stroke-linejoin:round"/><path d="M92.007 158.412v-9.078" style="fill:none;stroke:#ccc;stroke-width:.264582;stroke-linejoin:round"/><path d="M86.431 155.284h5.192" style="fill:#fff6d5;stroke:#666;stroke-width:.264583;stroke-linejoin:round;marker-start:url(#u);marker-end:url(#u)"/><text xml:space="preserve" style="font-size:16px;line-height:normal;font-family:&quot;Liberation Mono&quot;;-inkscape-font-specification:&quot;Liberation Mono&quot;;text-decoration-color:#000;white-space:pre;shape-inside:url(#v);display:inline;fill:#666;stroke-width:1;-inkscape-stroke:none;stop-color:#000" transform="translate(74.724 89.77)scale(.26458)"><tspan x="45.723" y="264.701">W1</tspan></text><path d="M83.401 164.705v-15.37" style="fill:none;stroke:#ccc;stroke-width:.264584;stroke-linejoin:round"/><path d="M83.527 163.306h2.53" style="fill:#fff6d5;stroke:purple;stroke-width:.264583;stroke-linejoin:round;marker-start:url(#w);marker-end:url(#w)"/><text xml:space="preserve" style="font-size:16px;line-height:normal;font-family:&quot;Liberation Mono&quot;;-inkscape-font-specification:&quot;Liberation Mono&quot;;text-decoration-color:#000;white-space:pre;shape-inside:url(#x);display:inline;fill:purple;stroke-width:1;-inkscape-stroke:none;stop-color:#000" transform="translate(69.027 97.792)scale(.26458)"><tspan x="45.723" y="264.701">W1b</tspan></text><path d="M78.79 158.412v-9.078" style="fill:none;stroke:#ccc;stroke-width:.264582;stroke-linejoin:round"/><path d="M79.16 155.284h3.929" style="fill:#fff6d5;stroke:#666;stroke-width:.264583;stroke-linejoin:round;marker-start:url(#y);marker-end:url(#y)"/><text xml:space="preserve" style="font-size:16px;line-height:normal;font-family:&quot;Liberation Mono&quot;;-inkscape-font-specification:&quot;Liberation Mono&quot;;text-decoration-color:#000;white-space:pre;shape-inside:url(#z);display:inline;fill:#666;stroke-width:1;-inkscape-stroke:none;stop-color:#000" transform="translate(66.826 89.272)scale(.26458)"><tspan x="45.723" y="264.701">W2</tspan></text><text xml:space="preserve" style="font-size:16px;line-height:normal;font-family:&quot;Liberation Mono&quot;;-inkscape-font-specification:&quot;Liberation Mono&quot;;text-decoration-color:#000;white-space:pre;shape-inside:url(#A);display:inline;fill:green;stroke-width:1;-inkscape-stroke:none;stop-color:#000" transform="translate(-2.145 -5.84)scale(.26458)"><tspan x="44.146" y="380.024">leftCaps:[ext,int]</tspan></text><text xml:space="preserve" style="font-size:16px;line-height:normal;font-family:&quot;Liberation Mono&quot;;-inkscape-font-specification:&quot;Liberation Mono&quot;;text-decoration-color:#000;white-space:pre;shape-inside:url(#B);display:inline;fill:green;stroke-width:1;-inkscape-stroke:none;stop-color:#000" transform="translate(51.091 -1.82)scale(.26458)"><tspan x="44.146" y="380.024">rightCaps:[ext,int]</tspan></text><path d="M26.46 113.349h5.483" style="fill:#666;stroke:green;stroke-width:.264583;stroke-linejoin:round"/><path d="M83.172 113.11h8.82" style="fill:#666;stroke:green;stroke-width:.264584;stroke-linejoin:round"/><path d="m20.62 95.828 8.7 16.805" style="fill:green;stroke:green;stroke-width:.264583;stroke-linejoin:round;marker-end:url(#c)"/><path d="m85.22 99.761 2.026 12.753" style="fill:green;stroke:green;stroke-width:.264583;stroke-linejoin:round;marker-end:url(#c)"/><circle cx="69.771" cy="238.82" r="17.53" style="fill:#fff6d5;stroke:#1a1a1a;stroke-width:.264584;stroke-linejoin:round"/><path d="M78.475 238.54H76.06s-.068-.979-.215-1.442a5.3 5.3 0 0 0-.751-1.503c-.22-.305-.799-.798-.799-.798l1.396-1.664s-.492-.589-.758-.864c-.273-.282-.54-.577-.859-.805-.527-.377-1.093-.736-1.717-.912-.552-.156-1.144-.09-1.718-.108-.397-.012-1.193 0-1.193 0l-.101 2.2s-.978-.02-1.443.107c-.54.15-1.059.41-1.503.752-.49.376-1.228 1.389-1.228 1.389l-2.093-1.396s-.624.612-.865.973a8 8 0 0 0-.912 1.878c-.142.415-.232.85-.269 1.287-.043.504.054 1.515.054 1.515l2.254-.16s.082.889.161 1.328c.082.453.128.925.322 1.342.178.382.495.684.752 1.02.137.179.423.53.423.53l-1.396 1.663s.74.785 1.187 1.08c.575.378 1.241.598 1.879.858.634.259 1.257.58 1.932.697.41.072 1.247 0 1.247 0l.053-2.522s.97.103 1.437 0c.5-.11.95-.39 1.395-.643.302-.172.61-.348.86-.59.218-.215.536-.746.536-.746l2.522 1.45s.45-.49.644-.758c.283-.39.566-.79.752-1.234.199-.477.303-.992.376-1.503.07-.496.044-1.001.053-1.502.006-.306 0-.919 0-.919z" style="fill:#fff;stroke:teal;stroke-width:.264583;stroke-linejoin:round"/><text xml:space="preserve" style="font-size:16px;line-height:normal;font-family:&quot;Liberation Mono&quot;;-inkscape-font-specification:&quot;Liberation Mono&quot;;text-decoration-color:#000;white-space:pre;shape-inside:url(#C);display:inline;fill:purple;stroke-width:1;-inkscape-stroke:none;stop-color:#000" transform="translate(34.144 189.756)scale(.26458)"><tspan x="203.842" y="246.008">D1</tspan></text><path d="m83.402 250.445 4.436 2.6" style="fill:purple;stroke:purple;stroke-width:.264583;stroke-linejoin:round;marker-start:url(#D)"/><path d="m76.135 232.546 15.86-12.598" style="fill:#3771c8;stroke:#3771c8;stroke-width:.264583;stroke-linejoin:round;marker-start:url(#E)"/><text xml:space="preserve" style="font-size:16px;line-height:normal;font-family:&quot;Liberation Mono&quot;;-inkscape-font-specification:&quot;Liberation Mono&quot;;text-decoration-color:#000;white-space:pre;shape-inside:url(#F);display:inline;fill:#2c5aa0;stroke-width:1;-inkscape-stroke:none;stop-color:#000" transform="translate(47.38 50.799)scale(.26458)"><tspan x="174.557" y="605.44">Dt
</tspan><tspan x="174.557" y="625.44">Nt
</tspan><tspan x="174.557" y="645.44">Ht</tspan></text><path d="M102.27 204.03v25.432" style="fill:#3771c8;stroke:#3771c8;stroke-width:.264583;stroke-linejoin:round"/><text xml:space="preserve" style="font-size:16px;line-height:normal;font-family:&quot;Liberation Mono&quot;;-inkscape-font-specification:&quot;Liberation Mono&quot;;text-decoration-color:#000;white-space:pre;shape-inside:url(#G);display:inline;fill:#2c5aa0;stroke-width:1;-inkscape-stroke:none;stop-color:#000" transform="translate(57.218 47.784)scale(.26458)"><tspan x="174.557" y="605.44">ate
</tspan><tspan x="174.557" y="625.44">dh
</tspan><tspan x="174.557" y="645.44">ah
</tspan><tspan x="174.557" y="665.44">aeh
</tspan><tspan x="174.557" y="685.44">aM</tspan></text><path d="M115.002 204.04v25.432" style="fill:#3771c8;stroke:#3771c8;stroke-width:.264583;stroke-linejoin:round"/><text xml:space="preserve" style="font-size:16px;line-height:normal;font-family:&quot;Liberation Mono&quot;;-inkscape-font-specification:&quot;Liberation Mono&quot;;text-decoration-color:#000;white-space:pre;shape-inside:url(#H);display:inline;fill:#2c5aa0;stroke-width:1;-inkscape-stroke:none;stop-color:#000" transform="translate(69.95 50.44)scale(.26458)"><tspan x="174.557" y="605.44">SnAde
</tspan><tspan x="174.557" y="625.44">SnAae
</tspan><tspan x="174.557" y="645.44">Rde
</tspan><tspan x="174.557" y="665.44">Rae</tspan></text><path d="M92.549 202.691h38.263v28.486H92.549z" style="fill:none;stroke:#2c5aa0;stroke-width:.264583;stroke-linejoin:round"/></svg>