<svg xmlns="http://www.w3.org/2000/svg" width="600" height="3000" viewBox="0 0 158.75 793.75"><defs><marker id="d" markerHeight="1" markerWidth="1" orient="auto-start-reverse" preserveAspectRatio="xMidYMid" refX="0" refY="0" style="overflow:visible" viewBox="0 0 1 1"><path d="M3-3 0 0l3 3" style="fill:none;stroke:context-stroke;stroke-width:1;stroke-linecap:butt" transform="rotate(180 .125 0)"/></marker><marker id="f" markerHeight="1" markerWidth="1" orient="auto-start-reverse" preserveAspectRatio="xMidYMid" refX="0" refY="0" style="overflow:visible" viewBox="0 0 1 1"><path d="M3-3 0 0l3 3" style="fill:none;stroke:context-stroke;stroke-width:1;stroke-linecap:butt" transform="rotate(180 .125 0)"/></marker><marker id="g" markerHeight="1" markerWidth="1" orient="auto-start-reverse" preserveAspectRatio="xMidYMid" refX="0" refY="0" style="overflow:visible" viewBox="0 0 1 1"><path d="M3-3 0 0l3 3" style="fill:none;stroke:context-stroke;stroke-width:1;stroke-linecap:round" transform="rotate(180 .125 0)"/></marker><marker id="h" markerHeight="1" markerWidth="1" orient="auto-start-reverse" preserveAspectRatio="xMidYMid" refX="0" refY="0" style="overflow:visible" viewBox="0 0 1 1"><path d="M3-3 0 0l3 3" style="fill:none;stroke:context-stroke;stroke-width:1;stroke-linecap:butt" transform="rotate(180 .125 0)"/></marker><marker id="i" markerHeight="1" markerWidth="1" orient="auto-start-reverse" preserveAspectRatio="xMidYMid" refX="0" refY="0" style="overflow:visible" viewBox="0 0 1 1"><path d="M3-3 0 0l3 3" style="fill:none;stroke:context-stroke;stroke-width:1;stroke-linecap:round" transform="rotate(180 .125 0)"/></marker><marker id="j" markerHeight="1" markerWidth="1" orient="auto-start-reverse" preserveAspectRatio="xMidYMid" refX="0" refY="0" style="overflow:visible" viewBox="0 0 1 1"><path d="M3-3 0 0l3 3" style="fill:none;stroke:context-stroke;stroke-width:1;stroke-linecap:butt" transform="rotate(180 .125 0)"/></marker><marker id="k" markerHeight="1" markerWidth="1" orient="auto-start-reverse" preserveAspectRatio="xMidYMid" refX="0" refY="0" style="overflow:visible" viewBox="0 0 1 1"><path d="M3-3 0 0l3 3" style="fill:none;stroke:context-stroke;stroke-width:1;stroke-linecap:round" transform="rotate(180 .125 0)"/></marker><marker id="r" markerHeight="1" markerWidth="1" orient="auto-start-reverse" preserveAspectRatio="xMidYMid" refX="0" refY="0" style="overflow:visible" viewBox="0 0 1 1"><path d="M3-3 0 0l3 3" style="fill:none;stroke:context-stroke;stroke-width:1;stroke-linecap:butt" transform="rotate(180 .125 0)"/></marker><marker id="s" markerHeight="1" markerWidth="1" orient="auto-start-reverse" preserveAspectRatio="xMidYMid" refX="0" refY="0" style="overflow:visible" viewBox="0 0 1 1"><path d="M3-3 0 0l3 3" style="fill:none;stroke:context-stroke;stroke-width:1;stroke-linecap:round" transform="rotate(180 .125 0)"/></marker><marker id="u" markerHeight="1" markerWidth="1" orient="auto-start-reverse" preserveAspectRatio="xMidYMid" refX="0" refY="0" style="overflow:visible" viewBox="0 0 1 1"><path d="M3-3 0 0l3 3" style="fill:none;stroke:context-stroke;stroke-width:1;stroke-linecap:butt" transform="rotate(180 .125 0)"/></marker><marker id="v" markerHeight="1" markerWidth="1" orient="auto-start-reverse" preserveAspectRatio="xMidYMid" refX="0" refY="0" style="overflow:visible" viewBox="0 0 1 1"><path d="M3-3 0 0l3 3" style="fill:none;stroke:context-stroke;stroke-width:1;stroke-linecap:round" transform="rotate(180 .125 0)"/></marker><marker id="w" markerHeight="1" markerWidth="1" orient="auto-start-reverse" preserveAspectRatio="xMidYMid" refX="0" refY="0" style="overflow:visible" viewBox="0 0 1 1"><path d="M3-3 0 0l3 3" style="fill:none;stroke:context-stroke;stroke-width:1;stroke-linecap:butt" transform="rotate(180 .125 0)"/></marker><marker id="x" markerHeight="1" markerWidth="1" orient="auto-start-reverse" preserveAspectRatio="xMidYMid" refX="0" refY="0" style="overflow:visible" viewBox="0 0 1 1"><path d="M3-3 0 0l3 3" style="fill:none;stroke:context-stroke;stroke-width:1;stroke-linecap:round" transform="rotate(180 .125 0)"/></marker><marker id="B" markerHeight="1" markerWidth="1" orient="auto-start-reverse" preserveAspectRatio="xMidYMid" refX="0" refY="0" style="overflow:visible" viewBox="0 0 1 1"><path d="M3-3 0 0l3 3" style="fill:none;stroke:context-stroke;stroke-width:1;stroke-linecap:round" transform="rotate(180 .125 0)"/></marker><marker id="D" markerHeight="1" markerWidth="1" orient="auto-start-reverse" preserveAspectRatio="xMidYMid" refX="0" refY="0" style="overflow:visible" viewBox="0 0 1 1"><path d="M3-3 0 0l3 3" style="fill:none;stroke:context-stroke;stroke-width:1;stroke-linecap:round" transform="rotate(180 .125 0)"/></marker><marker id="F" markerHeight="1" markerWidth="1" orient="auto-start-reverse" preserveAspectRatio="xMidYMid" refX="0" refY="0" style="overflow:visible" viewBox="0 0 1 1"><path d="M3-3 0 0l3 3" style="fill:none;stroke:context-stroke;stroke-width:1;stroke-linecap:round" transform="rotate(180 .125 0)"/></marker><marker id="H" markerHeight="1" markerWidth="1" orient="auto-start-reverse" preserveAspectRatio="xMidYMid" refX="0" refY="0" style="overflow:visible" viewBox="0 0 1 1"><path d="M3-3 0 0l3 3" style="fill:none;stroke:context-stroke;stroke-width:1;stroke-linecap:round" transform="rotate(180 .125 0)"/></marker><marker id="I" markerHeight="1" markerWidth="1" orient="auto-start-reverse" preserveAspectRatio="xMidYMid" refX="0" refY="0" style="overflow:visible" viewBox="0 0 1 1"><path d="M3-3 0 0l3 3" style="fill:none;stroke:context-stroke;stroke-width:1;stroke-linecap:round" transform="rotate(180 .125 0)"/></marker><marker id="K" markerHeight="1" markerWidth="1" orient="auto-start-reverse" preserveAspectRatio="xMidYMid" refX="0" refY="0" style="overflow:visible" viewBox="0 0 1 1"><path d="M3-3 0 0l3 3" style="fill:none;stroke:context-stroke;stroke-width:1;stroke-linecap:round" transform="rotate(180 .125 0)"/></marker><marker id="L" markerHeight="1" markerWidth="1" orient="auto-start-reverse" preserveAspectRatio="xMidYMid" refX="0" refY="0" style="overflow:visible" viewBox="0 0 1 1"><path d="M3-3 0 0l3 3" style="fill:none;stroke:context-stroke;stroke-width:1;stroke-linecap:round" transform="rotate(180 .125 0)"/></marker><marker id="O" markerHeight="1" markerWidth="1" orient="auto-start-reverse" preserveAspectRatio="xMidYMid" refX="0" refY="0" style="overflow:visible" viewBox="0 0 1 1"><path d="M3-3 0 0l3 3" style="fill:none;stroke:context-stroke;stroke-width:1;stroke-linecap:round" transform="rotate(180 .125 0)"/></marker><marker id="P" markerHeight="1" markerWidth="1" orient="auto-start-reverse" preserveAspectRatio="xMidYMid" refX="0" refY="0" style="overflow:visible" viewBox="0 0 1 1"><path d="M3-3 0 0l3 3" style="fill:none;stroke:context-stroke;stroke-width:1;stroke-linecap:round" transform="rotate(180 .125 0)"/></marker><marker id="R" markerHeight="1" markerWidth="1" orient="auto-start-reverse" preserveAspectRatio="xMidYMid" refX="0" refY="0" style="overflow:visible" viewBox="0 0 1 1"><path d="M3-3 0 0l3 3" style="fill:none;stroke:context-stroke;stroke-width:1;stroke-linecap:round" transform="rotate(180 .125 0)"/></marker><marker id="T" markerHeight="1" markerWidth="1" orient="auto-start-reverse" preserveAspectRatio="xMidYMid" refX="0" refY="0" style="overflow:visible" viewBox="0 0 1 1"><path d="M3-3 0 0l3 3" style="fill:none;stroke:context-stroke;stroke-width:1;stroke-linecap:round" transform="rotate(180 .125 0)"/></marker><marker id="U" markerHeight="1" markerWidth="1" orient="auto-start-reverse" preserveAspectRatio="xMidYMid" refX="0" refY="0" style="overflow:visible" viewBox="0 0 1 1"><path d="M3-3 0 0l3 3" style="fill:none;stroke:context-stroke;stroke-width:1;stroke-linecap:round" transform="rotate(180 .125 0)"/></marker><marker id="W" markerHeight="1" markerWidth="1" orient="auto-start-reverse" preserveAspectRatio="xMidYMid" refX="0" refY="0" style="overflow:visible" viewBox="0 0 1 1"><path d="M3-3 0 0l3 3" style="fill:none;stroke:context-stroke;stroke-width:1;stroke-linecap:round" transform="rotate(180 .125 0)"/></marker><marker id="Y" markerHeight="1" markerWidth="1" orient="auto-start-reverse" preserveAspectRatio="xMidYMid" refX="0" refY="0" style="overflow:visible" viewBox="0 0 1 1"><path d="M3-3 0 0l3 3" style="fill:none;stroke:context-stroke;stroke-width:1;stroke-linecap:round" transform="rotate(180 .125 0)"/></marker><marker id="aa" markerHeight="1" markerWidth="1" orient="auto-start-reverse" preserveAspectRatio="xMidYMid" refX="0" refY="0" style="overflow:visible" viewBox="0 0 1 1"><path d="M3-3 0 0l3 3" style="fill:none;stroke:context-stroke;stroke-width:1;stroke-linecap:round" transform="rotate(180 .125 0)"/></marker><marker id="ab" markerHeight="1" markerWidth="1" orient="auto-start-reverse" preserveAspectRatio="xMidYMid" refX="0" refY="0" style="overflow:visible" viewBox="0 0 1 1"><path d="M3-3 0 0l3 3" style="fill:none;stroke:context-stroke;stroke-width:1;stroke-linecap:round" transform="rotate(180 .125 0)"/></marker><marker id="ad" markerHeight="1" markerWidth="1" orient="auto-start-reverse" preserveAspectRatio="xMidYMid" refX="0" refY="0" style="overflow:visible" viewBox="0 0 1 1"><path d="M3-3 0 0l3 3" style="fill:none;stroke:context-stroke;stroke-width:1;stroke-linecap:butt" transform="rotate(180 .125 0)"/></marker><marker id="ae" markerHeight="1" markerWidth="1" orient="auto-start-reverse" preserveAspectRatio="xMidYMid" refX="0" refY="0" style="overflow:visible" viewBox="0 0 1 1"><path d="M3-3 0 0l3 3" style="fill:none;stroke:context-stroke;stroke-width:1;stroke-linecap:round" transform="rotate(180 .125 0)"/></marker><marker id="ag" markerHeight="1" markerWidth="1" orient="auto-start-reverse" preserveAspectRatio="xMidYMid" refX="0" refY="0" style="overflow:visible" viewBox="0 0 1 1"><path d="M3-3 0 0l3 3" style="fill:none;stroke:context-stroke;stroke-width:1;stroke-linecap:butt" transform="rotate(180 .125 0)"/></marker><marker id="ah" markerHeight="1" markerWidth="1" orient="auto-start-reverse" preserveAspectRatio="xMidYMid" refX="0" refY="0" style="overflow:visible" viewBox="0 0 1 1"><path d="M3-3 0 0l3 3" style="fill:none;stroke:context-stroke;stroke-width:1;stroke-linecap:round" transform="rotate(180 .125 0)"/></marker><marker id="aj" markerHeight="1" markerWidth="1" orient="auto-start-reverse" preserveAspectRatio="xMidYMid" refX="0" refY="0" style="overflow:visible" viewBox="0 0 1 1"><path d="M3-3 0 0l3 3" style="fill:none;stroke:context-stroke;stroke-width:1;stroke-linecap:butt" transform="rotate(180 .125 0)"/></marker><marker id="ak" markerHeight="1" markerWidth="1" orient="auto-start-reverse" preserveAspectRatio="xMidYMid" refX="0" refY="0" style="overflow:visible" viewBox="0 0 1 1"><path d="M3-3 0 0l3 3" style="fill:none;stroke:context-stroke;stroke-width:1;stroke-linecap:round" transform="rotate(180 .125 0)"/></marker><marker id="am" markerHeight="1" markerWidth="1" orient="auto-start-reverse" preserveAspectRatio="xMidYMid" refX="0" refY="0" style="overflow:visible" viewBox="0 0 1 1"><path d="M3-3 0 0l3 3" style="fill:none;stroke:context-stroke;stroke-width:1;stroke-linecap:butt" transform="rotate(180 .125 0)"/></marker><marker id="an" markerHeight="1" markerWidth="1" orient="auto-start-reverse" preserveAspectRatio="xMidYMid" refX="0" refY="0" style="overflow:visible" viewBox="0 0 1 1"><path d="M3-3 0 0l3 3" style="fill:none;stroke:context-stroke;stroke-width:1;stroke-linecap:round" transform="rotate(180 .125 0)"/></marker><marker id="ap" markerHeight="1" markerWidth="1" orient="auto-start-reverse" preserveAspectRatio="xMidYMid" refX="0" refY="0" style="overflow:visible" viewBox="0 0 1 1"><path d="M3-3 0 0l3 3" style="fill:none;stroke:context-stroke;stroke-width:1;stroke-linecap:butt" transform="rotate(180 .125 0)"/></marker><marker id="aq" markerHeight="1" markerWidth="1" orient="auto-start-reverse" preserveAspectRatio="xMidYMid" refX="0" refY="0" style="overflow:visible" viewBox="0 0 1 1"><path d="M3-3 0 0l3 3" style="fill:none;stroke:context-stroke;stroke-width:1;stroke-linecap:round" transform="rotate(180 .125 0)"/></marker><path id="au" d="M164.875 420.777h127.936v68.441H164.875z"/><path id="e" d="M241.131 460.603h31.216v27.394h-31.216z"/><path id="c" d="M353.398 156.082h50.568v41.41h-50.568z"/><path id="b" d="M113.399 290.505h64.164v37.864h-64.164z"/><path id="a" d="M29.305 25.483h273.941v59.885H29.305z"/><path id="l" d="M267.584 418.944h37.39v31.984h-37.39z"/><path id="m" d="M208.459 417.142h37.587v30.632h-37.587z"/><path id="n" d="M208.459 417.142h37.587v30.632h-37.587z"/><path id="o" d="M400.474 168.407h34.687v30.704h-34.687z"/><path id="p" d="M253.619 424.8h45.782v26.128h-45.782z"/><path id="q" d="M528.41 400.7h85.133v81.203H528.41z"/><path id="t" d="M208.459 417.142h37.587v30.632h-37.587z"/><path id="y" d="M178.389 411.736h38.741v24.551h-38.741z"/><path id="z" d="M187.173 418.719h27.704v20.271h-27.704z"/><path id="A" d="M62.616 255.195h156.609v32.789H62.616z"/><path id="C" d="M179.74 295.063h119.602v113.52H179.74z"/><path id="E" d="M184.751 416.963h39.18v22.935h-39.18z"/><path id="G" d="M253.619 424.8h45.782v26.128h-45.782z"/><path id="J" d="M184.751 416.963h54.456v21.911h-54.456z"/><path id="M" d="M184.751 416.963h39.18v22.935h-39.18z"/><path id="N" d="M358.671 530.043h107.028v64.344H358.671z"/><path id="Q" d="M358.671 530.043h107.028v64.344H358.671z"/><path id="S" d="M495.323 614.774h62.114v22.616h-62.114z"/><path id="V" d="M21.623 797.796h64.418v28.831H21.623z"/><path id="X" d="M220.745 1209.798H278.4v30.579h-57.655z"/><path id="Z" d="M270.512 870.773h40.543v29.957h-40.543z"/><path id="ac" d="M483.696 300.698h38.702v25.324h-38.702z"/><path id="af" d="M267.584 418.944h37.39v31.984h-37.39z"/><path id="ai" d="M267.584 418.944h37.39v31.984h-37.39z"/><path id="al" d="M267.584 418.944h37.39v31.984h-37.39z"/><path id="ao" d="M267.584 418.944h37.39v31.984h-37.39z"/><path id="ar" d="M208.459 417.142h37.587v30.632h-37.587z"/><path id="as" d="M528.41 400.7h85.133v81.203H528.41z"/><path id="at" d="M21.623 797.796h64.418v28.831H21.623z"/></defs><path d="M17.402 38.14h114.421v127.77H17.402z" style="fill:#fff;stroke:#fff;stroke-width:.264583;stroke-linejoin:round;stroke-dasharray:none"/><text xml:space="preserve" style="font-size:16px;line-height:normal;font-family:&quot;Liberation Mono&quot;;-inkscape-font-specification:&quot;Liberation Mono&quot;;text-decoration-color:#000;white-space:pre;shape-inside:url(#a);display:inline;fill:#000;stroke-width:1;-inkscape-stroke:none;stop-color:#000" transform="scale(.26458)"><tspan x="29.305" y="39.719">src_springInt.svg</tspan></text><circle cx="75.177" cy="110.443" r="36.746" style="fill:none;stroke:#b3b3b3;stroke-width:.264583;stroke-linejoin:round"/><path d="M75.177 110.443 56.973 67.461M75.177 110.443l18.204-42.982M75.177 110.443l46.354-18.204M59.838 68.506h30.678v5.192H59.838z" style="fill:none;stroke:#999;stroke-width:.264583;stroke-linejoin:round"/><path d="M116.221-18.928h30.678v5.192h-30.678z" style="fill:none;stroke:#999;stroke-width:.264583;stroke-linejoin:round" transform="rotate(45.842)"/><circle cx="75.177" cy="57.146" r="6.068" style="fill:none;stroke:purple;stroke-width:.264583;stroke-linejoin:round"/><circle cx="75.177" cy="57.146" r="9.608" style="fill:none;stroke:#999;stroke-width:.264583;stroke-linejoin:round"/><path d="M59.838 68.506v5.192h30.678v-5.192l-6.942-16.03s-1.027-1.606-1.723-2.242c-.948-.867-2.057-1.597-3.253-2.066-1.08-.424-2.262-.61-3.42-.63-.942-.016-1.893.143-2.794.415-.872.263-1.704.673-2.475 1.158-.818.515-1.62 1.098-2.245 1.834-.411.485-.95 1.653-.95 1.653zM94.531 70.074l-3.733 3.607 21.316 22.062 3.734-3.608 6.704-16.13s.44-1.855.415-2.797c-.035-1.285-.28-2.59-.774-3.776-.446-1.07-1.134-2.05-1.925-2.897-.642-.688-1.417-1.261-2.239-1.72-.795-.445-1.668-.758-2.553-.976-.938-.23-1.914-.402-2.879-.34-.634.041-1.848.465-1.848.465z" style="fill:none;stroke:purple;stroke-width:.264583;stroke-linejoin:round"/><circle cx="113.083" cy="73.414" r="6.068" style="fill:none;stroke:purple;stroke-width:.264583;stroke-linejoin:round"/><text xml:space="preserve" style="font-size:16px;line-height:normal;font-family:&quot;Liberation Mono&quot;;-inkscape-font-specification:&quot;Liberation Mono&quot;;text-decoration-color:#000;white-space:pre;shape-inside:url(#b);display:inline;fill:#00f;stroke-width:1;-inkscape-stroke:none;stop-color:#000" transform="translate(-2.86 -20.977)scale(.26458)"><tspan x="113.398" y="304.74">D5</tspan></text><text xml:space="preserve" style="font-size:16px;line-height:normal;font-family:&quot;Liberation Mono&quot;;-inkscape-font-specification:&quot;Liberation Mono&quot;;text-decoration-color:#000;white-space:pre;shape-inside:url(#c);display:inline;fill:#00f;stroke-width:1;-inkscape-stroke:none;stop-color:#000" transform="scale(.26458)"><tspan x="353.398" y="170.318">N5</tspan></text><path d="m32.368 60.268 9.945 6.068" style="fill:none;stroke:#00f;stroke-width:.264583;stroke-linejoin:round;stroke-dasharray:none;marker-end:url(#d)"/><path d="m89.237 61.548 6.336-15.532" style="fill:#00f;stroke:#00f;stroke-width:.264583;stroke-linejoin:round;stroke-dasharray:none;marker-start:url(#d)"/><path d="m100.28 66.662-3.19-20.646" style="fill:#00f;stroke:#00f;stroke-width:.264583;stroke-linejoin:round;stroke-dasharray:none;marker-start:url(#d)"/><path d="M83.015 107.119s-.233-2.188-.927-2.95c-.78-.857-3.203-1.348-3.203-1.348" style="fill:none;stroke:#999;stroke-width:.264583;stroke-linejoin:round;stroke-dasharray:none;marker-end:url(#d)"/><text xml:space="preserve" style="font-size:16px;line-height:normal;font-family:&quot;Liberation Mono&quot;;-inkscape-font-specification:&quot;Liberation Mono&quot;;text-decoration-color:#000;white-space:pre;shape-inside:url(#e);display:inline;fill:#999;stroke-width:1;-inkscape-stroke:none;stop-color:#000" transform="translate(18.794 -21.997)scale(.26458)"><tspan x="241.131" y="474.84">a5</tspan></text><path d="M41.714 383.71h91.223v100.467H41.714z" style="fill:#fff;stroke:#fff;stroke-width:.264583;stroke-linejoin:round"/><path d="M25.031 188.497h124.331v82.666H25.031zM6.813 308.734h143.98v60.31H6.813z" style="fill:#fff;stroke:#fff;stroke-width:.264583;stroke-linejoin:round;stroke-dasharray:none"/><rect width="100.124" height="25.802" x="29.323" y="328.848" ry="0" style="fill:#d7eef4;stroke:#5fbcd3;stroke-width:.264583;stroke-linejoin:round;stroke-dasharray:none"/><path d="M38.557 252.095h80.102v-4.607l-7.573-13.367H46.17l-7.745 13.367z" style="fill:#d7eef4;stroke:#5fbcd3;stroke-width:.264583;stroke-linejoin:round"/><path d="M119.079 261.815h13.116" style="fill:purple;stroke:#ccc;stroke-width:.264584;stroke-linejoin:round"/><path d="M64.063 230.123h14.479" style="fill:purple;stroke:#e6e6e6;stroke-width:.264583;stroke-linejoin:round"/><circle cx="78.542" cy="219.335" r="10.788" style="fill:none;stroke:#d4aa00;stroke-width:.264583;stroke-linejoin:round"/><circle cx="78.542" cy="219.335" r="20.733" style="fill:none;stroke:#e6e6e6;stroke-width:.264583;stroke-linejoin:round"/><path d="M38.425 247.488h80.234v14.327H38.425z" style="fill:none;stroke:#e6e6e6;stroke-width:.264583;stroke-linejoin:round"/><path d="M78.542 198.603h18.77" style="fill:purple;stroke:#e6e6e6;stroke-width:.264583;stroke-linejoin:round"/><path d="M38.425 261.815v-14.327l21.106-36.426s2.657-4.806 4.626-6.657c2.21-2.077 4.932-3.67 7.776-4.72 2.094-.774 4.377-1.078 6.609-1.082 2.179-.004 4.378.368 6.454 1.03 1.868.595 3.641 1.518 5.272 2.605 1.324.882 2.53 1.956 3.6 3.134 1.103 1.217 2.862 4.012 2.862 4.012l21.929 38.104v14.327z" style="fill:none;stroke:#d4aa00;stroke-width:.264583;stroke-linejoin:round"/><path d="M92.83 220.286v26.921" style="fill:none;stroke:teal;stroke-width:.264584;stroke-linejoin:round;marker-start:url(#f);marker-end:url(#g)"/><path d="M92.83 247.521v10.008" style="fill:none;stroke:teal;stroke-width:.264584;stroke-linejoin:round;marker-start:url(#h);marker-end:url(#i)"/><path d="M92.83 198.96v20.499" style="fill:none;stroke:teal;stroke-width:.264583;stroke-linejoin:round;marker-start:url(#j);marker-end:url(#k)"/><text xml:space="preserve" style="font-size:16px;line-height:normal;font-family:&quot;Liberation Mono&quot;;-inkscape-font-specification:&quot;Liberation Mono&quot;;text-decoration-color:#000;white-space:pre;shape-inside:url(#l);display:inline;fill:teal;stroke-width:1;-inkscape-stroke:none;stop-color:#000" transform="translate(22.622 91.095)scale(.26458)"><tspan x="267.584" y="433.18">R2</tspan></text><text xml:space="preserve" style="font-size:16px;line-height:normal;font-family:&quot;Liberation Mono&quot;;-inkscape-font-specification:&quot;Liberation Mono&quot;;text-decoration-color:#000;white-space:pre;shape-inside:url(#m);display:inline;fill:teal;stroke-width:1;-inkscape-stroke:none;stop-color:#000" transform="translate(38.027 141.721)scale(.26458)"><tspan x="208.459" y="431.379">H1</tspan></text><text xml:space="preserve" style="font-size:16px;line-height:normal;font-family:&quot;Liberation Mono&quot;;-inkscape-font-specification:&quot;Liberation Mono&quot;;text-decoration-color:#000;white-space:pre;shape-inside:url(#n);display:inline;fill:teal;stroke-width:1;-inkscape-stroke:none;stop-color:#000" transform="translate(38.266 119.06)scale(.26458)"><tspan x="208.459" y="431.379">H2</tspan></text><text xml:space="preserve" style="font-size:16px;line-height:normal;font-family:&quot;Liberation Mono&quot;;-inkscape-font-specification:&quot;Liberation Mono&quot;;text-decoration-color:#000;white-space:pre;shape-inside:url(#o);display:inline;fill:purple;stroke-width:1;-inkscape-stroke:none;stop-color:#000" transform="translate(2.522 158.317)scale(.26458)"><tspan x="400.475" y="182.645">D1</tspan></text><path d="m109.315 207.304-19.785 8.7" style="fill:purple;stroke:purple;stroke-width:.264583;stroke-linejoin:round;marker-end:url(#g)"/><path d="M38.899 264.461h79.377" style="fill:#b3b3b3;stroke:#b3b3b3;stroke-width:.264583;stroke-linejoin:round;marker-start:url(#g);marker-end:url(#g)"/><rect width="8.284" height="2.086" x="65.721" y="250.013" ry="1.043" style="fill:#fff;stroke:#5fbcd3;stroke-width:.264583;stroke-linejoin:round"/><text xml:space="preserve" style="font-size:16px;line-height:normal;font-family:&quot;Liberation Mono&quot;;-inkscape-font-specification:&quot;Liberation Mono&quot;;text-decoration-color:#000;white-space:pre;shape-inside:url(#p);display:inline;fill:#666;stroke-width:1;-inkscape-stroke:none;stop-color:#000" transform="translate(8.755 152.715)scale(.26458)"><tspan x="253.619" y="439.037">Li</tspan></text><path d="M118.837 257.891h13.347" style="fill:purple;stroke:#ccc;stroke-width:.264583;stroke-linejoin:round"/><path d="m119.347 260.356 6.55-4.579 3.45-17.76" style="fill:none;stroke:#4a0;stroke-width:.264583;stroke-linejoin:round;stroke-dasharray:none;marker-start:url(#g)"/><path d="M126.425 216.858v20.524" style="fill:purple;stroke:#4a0;stroke-width:.264584;stroke-linejoin:round;stroke-dasharray:none"/><text xml:space="preserve" style="font-size:16px;line-height:normal;font-family:&quot;Liberation Mono&quot;;-inkscape-font-specification:&quot;Liberation Mono&quot;;text-decoration-color:#000;white-space:pre;shape-inside:url(#q);display:inline;fill:#4a0;stroke-width:1;-inkscape-stroke:none;stop-color:#000" transform="translate(-13.129 110.8)scale(.26458)"><tspan x="528.41" y="414.936">Jangle
</tspan><tspan x="528.41" y="434.936">Jradius
</tspan><tspan x="528.41" y="454.936">Jneutral
</tspan><tspan x="528.41" y="474.936">Jmark
</tspan></text><path d="M38.425 257.855h80.234v3.96H38.425z" style="fill:none;stroke:#d4aa00;stroke-width:.264583;stroke-linejoin:round"/><path d="M78.542 196.873v64.942M78.542 219.874h18.77" style="fill:purple;stroke:#e6e6e6;stroke-width:.264583;stroke-linejoin:round"/><path d="M131.247 258.02v3.39" style="fill:#b3b3b3;stroke:#b3b3b3;stroke-width:.264584;stroke-linejoin:round;marker-start:url(#r);marker-end:url(#s)"/><text xml:space="preserve" style="font-size:16px;line-height:normal;font-family:&quot;Liberation Mono&quot;;-inkscape-font-specification:&quot;Liberation Mono&quot;;text-decoration-color:#000;white-space:pre;shape-inside:url(#t);display:inline;fill:#b3b3b3;stroke-width:1;-inkscape-stroke:none;stop-color:#000" transform="translate(77.119 147.027)scale(.26458)"><tspan x="208.459" y="431.379">H0</tspan></text><path d="M66.696 230.509v3.39" style="fill:#b3b3b3;stroke:#2c89a0;stroke-width:.264584;stroke-linejoin:round;marker-start:url(#u);marker-end:url(#v)"/><path d="M66.696 252.345v5.223" style="fill:#b3b3b3;stroke:#2c89a0;stroke-width:.264585;stroke-linejoin:round;marker-start:url(#w);marker-end:url(#x)"/><text xml:space="preserve" style="font-size:16px;line-height:normal;font-family:&quot;Liberation Mono&quot;;-inkscape-font-specification:&quot;Liberation Mono&quot;;text-decoration-color:#000;white-space:pre;shape-inside:url(#y);display:inline;fill:#2c89a0;stroke-width:1;-inkscape-stroke:none;stop-color:#000" transform="translate(12.713 143.836)scale(.26458)"><tspan x="178.389" y="425.973">E1</tspan></text><text xml:space="preserve" style="font-size:16px;line-height:normal;font-family:&quot;Liberation Mono&quot;;-inkscape-font-specification:&quot;Liberation Mono&quot;;text-decoration-color:#000;white-space:pre;shape-inside:url(#z);display:inline;fill:#2c89a0;stroke-width:1;-inkscape-stroke:none;stop-color:#000" transform="translate(10.686 118.806)scale(.26458)"><tspan x="187.174" y="432.955">E2</tspan></text><text xml:space="preserve" style="font-size:16px;line-height:normal;font-family:&quot;Liberation Mono&quot;;-inkscape-font-specification:&quot;Liberation Mono&quot;;text-decoration-color:#000;white-space:pre;shape-inside:url(#A);display:inline;fill:#918a6f;stroke-width:1;-inkscape-stroke:none;stop-color:#000" transform="translate(91.29 128.299)scale(.26458)"><tspan x="62.617" y="269.432">spring:[On,Off]</tspan></text><path d="m120.52 200.439-17.587 33.027" style="fill:#8dd35f;stroke:#918a6f;stroke-width:.264582;stroke-linejoin:round;stroke-dasharray:none;marker-end:url(#B)"/><rect width="8.284" height="2.086" x="47.337" y="249.966" ry="1.043" style="fill:#fff;stroke:#5fbcd3;stroke-width:.264583;stroke-linejoin:round"/><rect width="8.284" height="2.086" x="56.472" y="249.987" ry="1.043" style="fill:#fff;stroke:#5fbcd3;stroke-width:.264583;stroke-linejoin:round"/><rect width="8.284" height="2.086" x="51.833" y="246.924" ry="1.043" style="fill:#fff;stroke:#5fbcd3;stroke-width:.264583;stroke-linejoin:round"/><rect width="8.284" height="2.086" x="61.016" y="247.003" ry="1.043" style="fill:#fff;stroke:#5fbcd3;stroke-width:.264583;stroke-linejoin:round"/><text xml:space="preserve" style="font-size:16px;line-height:normal;font-family:&quot;Liberation Mono&quot;;-inkscape-font-specification:&quot;Liberation Mono&quot;;text-decoration-color:#000;white-space:pre;shape-inside:url(#C);display:inline;fill:#2c89a0;stroke-width:1;-inkscape-stroke:none;stop-color:#000" transform="translate(-17.118 115.457)scale(.26458)"><tspan x="179.74" y="309.299">sNx
</tspan><tspan x="179.74" y="329.299"><tspan style="fill:#999">sNy</tspan>
</tspan><tspan x="179.74" y="349.299">smEy
</tspan><tspan x="179.74" y="369.299">shEy
</tspan><tspan x="179.74" y="389.299">shPr
</tspan></text><path d="M29.425 194.505v24.347" style="fill:#2c89a0;stroke:#5fbcd3;stroke-width:.264582;stroke-linejoin:round"/><path d="m40.616 216.976 12.474 28.992" style="fill:#2c89a0;stroke:#5fbcd3;stroke-width:.264583;stroke-linejoin:round;marker-end:url(#g)"/><path d="M59.998 243.031v4.959M61.214 243.082v4.958" style="fill:purple;stroke:#ccc;stroke-width:.264582;stroke-linejoin:round"/><path d="M66.406 243.44h-4.804" style="fill:#2c89a0;stroke:#5fbcd3;stroke-width:.264583;stroke-linejoin:round;stroke-dasharray:none;marker-end:url(#g)"/><path d="M54.856 243.458h4.804" style="fill:#2c89a0;stroke:#5fbcd3;stroke-width:.264583;stroke-linejoin:round;stroke-dasharray:none;marker-end:url(#D)"/><text xml:space="preserve" style="font-size:16px;line-height:normal;font-family:&quot;Liberation Mono&quot;;-inkscape-font-specification:&quot;Liberation Mono&quot;;text-decoration-color:#000;white-space:pre;shape-inside:url(#E);display:inline;fill:#2c89a0;stroke-width:1;-inkscape-stroke:none;stop-color:#000" transform="translate(14.237 128.651)scale(.26458)"><tspan x="184.75" y="431.199">smEx</tspan></text><rect width="29.092" height="6.668" x="32.451" y="348.085" ry="1.846" style="fill:#fff;stroke:#5fbcd3;stroke-width:.264583;stroke-linejoin:round"/><rect width="29.092" height="6.668" x="65.064" y="347.962" ry="1.846" style="fill:#fff;stroke:#5fbcd3;stroke-width:.264583;stroke-linejoin:round"/><rect width="29.092" height="6.668" x="96.892" y="347.923" ry="1.846" style="fill:#fff;stroke:#5fbcd3;stroke-width:.264583;stroke-linejoin:round"/><rect width="29.092" height="6.668" x="48.372" y="338.546" ry="1.846" style="fill:#fff;stroke:#5fbcd3;stroke-width:.264583;stroke-linejoin:round"/><rect width="29.092" height="6.668" x="80.86" y="338.717" ry="1.846" style="fill:#fff;stroke:#5fbcd3;stroke-width:.264583;stroke-linejoin:round"/><rect width="12.524" height="6.668" x="32.451" y="338.546" ry="1.846" style="fill:#fff;stroke:#5fbcd3;stroke-width:.264583;stroke-linejoin:round"/><rect width="12.524" height="6.668" x="113.305" y="338.415" ry="1.846" style="fill:#fff;stroke:#5fbcd3;stroke-width:.264583;stroke-linejoin:round"/><rect width="29.092" height="6.668" x="32.437" y="328.82" ry="1.846" style="fill:#fff;stroke:#5fbcd3;stroke-width:.264583;stroke-linejoin:round"/><rect width="29.092" height="6.668" x="65.157" y="328.804" ry="1.846" style="fill:#fff;stroke:#5fbcd3;stroke-width:.264583;stroke-linejoin:round"/><rect width="29.092" height="6.668" x="96.985" y="328.765" ry="1.846" style="fill:#fff;stroke:#5fbcd3;stroke-width:.264583;stroke-linejoin:round"/><path d="M29.323 354.65v8.046M129.447 354.783v8.045" style="fill:purple;stroke:#ccc;stroke-width:.264582;stroke-linejoin:round"/><path d="M29.773 361.77h99.674" style="fill:purple;stroke:purple;stroke-width:.264583;stroke-linejoin:round;marker-start:url(#F);marker-end:url(#F)"/><text xml:space="preserve" style="font-size:16px;line-height:normal;font-family:&quot;Liberation Mono&quot;;-inkscape-font-specification:&quot;Liberation Mono&quot;;text-decoration-color:#000;white-space:pre;shape-inside:url(#G);display:inline;fill:purple;stroke-width:1;-inkscape-stroke:none;stop-color:#000" transform="translate(10.941 249.771)scale(.26458)"><tspan x="253.619" y="439.037">L1</tspan></text><path d="M29.323 320.67v8.046M32.437 320.67v11.485M61.7 320.67v11.485M64.918 320.655v11.483" style="fill:purple;stroke:#ccc;stroke-width:.264582;stroke-linejoin:round"/><path d="M37.658 321.028h-4.804" style="fill:#2c89a0;stroke:#5fbcd3;stroke-width:.264583;stroke-linejoin:round;stroke-dasharray:none;marker-end:url(#H)"/><path d="M24.28 321.088h4.804" style="fill:#2c89a0;stroke:#5fbcd3;stroke-width:.264583;stroke-linejoin:round;stroke-dasharray:none;marker-end:url(#I)"/><text xml:space="preserve" style="font-size:16px;line-height:normal;font-family:&quot;Liberation Mono&quot;;-inkscape-font-specification:&quot;Liberation Mono&quot;;text-decoration-color:#000;white-space:pre;shape-inside:url(#J);display:inline;fill:#2c89a0;stroke-width:1;-inkscape-stroke:none;stop-color:#000" transform="translate(-15.05 205.897)scale(.26458)"><tspan x="184.75" y="431.199">smExS</tspan></text><path d="M70.016 321.03h-4.804" style="fill:#2c89a0;stroke:#5fbcd3;stroke-width:.264583;stroke-linejoin:round;stroke-dasharray:none;marker-end:url(#K)"/><path d="M56.638 321.09h4.804" style="fill:#2c89a0;stroke:#5fbcd3;stroke-width:.264583;stroke-linejoin:round;stroke-dasharray:none;marker-end:url(#L)"/><text xml:space="preserve" style="font-size:16px;line-height:normal;font-family:&quot;Liberation Mono&quot;;-inkscape-font-specification:&quot;Liberation Mono&quot;;text-decoration-color:#000;white-space:pre;shape-inside:url(#M);display:inline;fill:#2c89a0;stroke-width:1;-inkscape-stroke:none;stop-color:#000" transform="translate(17.307 205.899)scale(.26458)"><tspan x="184.75" y="431.199">smEx</tspan></text><text xml:space="preserve" style="font-size:16px;line-height:normal;font-family:&quot;Liberation Mono&quot;;-inkscape-font-specification:&quot;Liberation Mono&quot;;text-decoration-color:#000;white-space:pre;shape-inside:url(#N);display:inline;fill:#2c89a0;stroke-width:1;-inkscape-stroke:none;stop-color:#000" transform="translate(-8.097 170.453)scale(.26458)"><tspan x="358.672" y="544.279">sNx=2</tspan></text><path d="M88.824 315.582 66.069 327.72" style="fill:#2c89a0;stroke:#5fbcd3;stroke-width:.264583;stroke-linejoin:round;stroke-dasharray:none;marker-end:url(#g)"/><path d="m90.51 315.414 4.213 12.473" style="fill:#2c89a0;stroke:#5fbcd3;stroke-width:.264583;stroke-linejoin:round;stroke-dasharray:none;marker-end:url(#g)"/><path d="m135.523 338.011-10.788-.674" style="fill:#2c89a0;stroke:#5fbcd3;stroke-width:.264583;stroke-linejoin:round;stroke-dasharray:none;marker-end:url(#O)"/><path d="m135.075 340.24-10.451 6.068" style="fill:#2c89a0;stroke:#5fbcd3;stroke-width:.264583;stroke-linejoin:round;stroke-dasharray:none;marker-end:url(#P)"/><text xml:space="preserve" style="font-size:16px;line-height:normal;font-family:&quot;Liberation Mono&quot;;-inkscape-font-specification:&quot;Liberation Mono&quot;;text-decoration-color:#000;white-space:pre;shape-inside:url(#Q);display:inline;fill:#999;stroke-width:1;-inkscape-stroke:none;stop-color:#000" transform="translate(40.973 196.096)scale(.26458)"><tspan x="358.672" y="544.279">sNy=2</tspan></text><path d="M123.386 335.399h17.13M123.178 328.843h17.13M126.069 330.762h9.292M126.186 333.614h9.292" style="fill:purple;stroke:#ccc;stroke-width:.264581;stroke-linejoin:round"/><path d="M135.093 331.005v2.276" style="fill:#2c89a0;stroke:#2c89a0;stroke-width:.264583;stroke-linejoin:round;stroke-dasharray:none;marker-start:url(#g);marker-end:url(#g)"/><path d="M136.845 328.956v6.14" style="fill:#2c89a0;stroke:#2c89a0;stroke-width:.264582;stroke-linejoin:round;stroke-dasharray:none;marker-start:url(#R);marker-end:url(#R)"/><text xml:space="preserve" style="font-size:16px;line-height:normal;font-family:&quot;Liberation Mono&quot;;-inkscape-font-specification:&quot;Liberation Mono&quot;;text-decoration-color:#000;white-space:pre;shape-inside:url(#S);display:inline;fill:#2c89a0;stroke-width:1;-inkscape-stroke:none;stop-color:#000" transform="translate(6.652 167.167)scale(.26458)"><tspan x="495.322" y="629.01">shPr</tspan></text><path d="M17.525 354.649h17.13" style="fill:purple;stroke:#ccc;stroke-width:.264581;stroke-linejoin:round"/><path d="M12.395 348.06h22.38M19.226 345.208h15.368" style="fill:purple;stroke:#ccc;stroke-width:.26458;stroke-linejoin:round"/><path d="M23.254 348.46v6.14" style="fill:#2c89a0;stroke:#2c89a0;stroke-width:.264582;stroke-linejoin:round;stroke-dasharray:none;marker-start:url(#T);marker-end:url(#T)"/><path d="M20.353 345.33v2.52" style="fill:#2c89a0;stroke:#2c89a0;stroke-width:.264582;stroke-linejoin:round;stroke-dasharray:none;marker-start:url(#U);marker-end:url(#U)"/><text xml:space="preserve" style="font-size:16px;line-height:normal;font-family:&quot;Liberation Mono&quot;;-inkscape-font-specification:&quot;Liberation Mono&quot;;text-decoration-color:#000;white-space:pre;shape-inside:url(#V);display:inline;fill:#2c89a0;stroke-width:1;-inkscape-stroke:none;stop-color:#000" transform="translate(6.174 137.698)scale(.26458)"><tspan x="21.623" y="812.031">shEy</tspan></text><path d="M58.88 406.303h3.117v11.714H58.88z" style="fill:none;stroke:#fea;stroke-width:.264583;stroke-linejoin:round"/><path d="M433.524-61.998H449.2v3.117h-15.676zM396.778-61.998h36.746v3.117h-36.746z" style="fill:none;stroke:#d4aa00;stroke-width:.264583;stroke-linejoin:round" transform="rotate(90)"/><path d="M-95.19-453.905h31.605v3.117H-95.19z" style="fill:none;stroke:#d4aa00;stroke-width:.264584;stroke-linejoin:round" transform="scale(-1)"/><path d="M61.998 449.2s.096.928.404 1.23c.295.287 1.183.357 1.183.357v3.118s-1.434.016-2.11-.189c-.643-.196-1.313-.475-1.77-.97-.386-.418-.56-1.006-.697-1.558-.16-.645-.128-1.988-.128-1.988z" style="fill:none;stroke:#b3b3b3;stroke-width:.264583;stroke-linejoin:round"/><path d="M96.778 406.303h3.117v11.714h-3.117z" style="fill:none;stroke:#fea;stroke-width:.264583;stroke-linejoin:round"/><path d="M433.524-99.895H449.2v3.117h-15.676zM396.778-99.895h36.746v3.117h-36.746z" style="fill:none;stroke:#d4aa00;stroke-width:.264583;stroke-linejoin:round" transform="rotate(90)"/><path d="M96.778 449.2s-.096.928-.405 1.23c-.295.287-1.183.357-1.183.357v3.118s1.435.016 2.11-.189c.644-.196 1.314-.475 1.77-.97.386-.418.561-1.006.698-1.558.16-.645.127-1.988.127-1.988z" style="fill:none;stroke:#b3b3b3;stroke-width:.264583;stroke-linejoin:round"/><path d="M63.585 453.905v5.659M95.19 454.037v5.66" style="fill:purple;stroke:#ccc;stroke-width:.264582;stroke-linejoin:round"/><path d="M63.947 456.734h31.015" style="fill:purple;stroke:#b3b3b3;stroke-width:.264583;stroke-linejoin:round;marker-start:url(#W);marker-end:url(#W)"/><text xml:space="preserve" style="font-size:16px;line-height:normal;font-family:&quot;Liberation Mono&quot;;-inkscape-font-specification:&quot;Liberation Mono&quot;;text-decoration-color:#000;white-space:pre;shape-inside:url(#X);display:inline;fill:#b3b3b3;stroke-width:1;-inkscape-stroke:none;stop-color:#000" transform="translate(19.378 136.658)scale(.26458)"><tspan x="220.746" y="1224.035">W1</tspan></text><path d="M62.44 398.366h33.928" style="fill:purple;stroke:purple;stroke-width:.264583;stroke-linejoin:round;marker-start:url(#Y);marker-end:url(#Y)"/><text xml:space="preserve" style="font-size:16px;line-height:normal;font-family:&quot;Liberation Mono&quot;;-inkscape-font-specification:&quot;Liberation Mono&quot;;text-decoration-color:#000;white-space:pre;shape-inside:url(#Z);display:inline;fill:purple;stroke-width:1;-inkscape-stroke:none;stop-color:#000" transform="translate(5.383 163.502)scale(.26458)"><tspan x="270.512" y="885.01">W2</tspan></text><path d="M91.68 392.685h4.712" style="fill:purple;stroke:#4a0;stroke-width:.264583;stroke-linejoin:round;marker-end:url(#aa)"/><path d="M99.895 396.778h8.038M96.778 396.646v-3.993M99.895 396.646v-3.993" style="fill:purple;stroke:#ccc;stroke-width:.264583;stroke-linejoin:round"/><path d="M104.986 392.78h-4.712" style="fill:purple;stroke:#4a0;stroke-width:.264583;stroke-linejoin:round;marker-end:url(#ab)"/><text xml:space="preserve" style="font-size:16px;line-height:normal;font-family:&quot;Liberation Mono&quot;;-inkscape-font-specification:&quot;Liberation Mono&quot;;text-decoration-color:#000;white-space:pre;shape-inside:url(#ac);display:inline;fill:#4a0;stroke-width:1;-inkscape-stroke:none;stop-color:#000" transform="translate(-32.217 307.331)scale(.26458)"><tspan x="483.697" y="314.934">Th</tspan></text><path d="M99.895 412.16h8.038M100.027 433.524h8.038M50.71 406.303h8.038M50.71 418.016h8.038" style="fill:purple;stroke:#ccc;stroke-width:.264583;stroke-linejoin:round"/><path d="M106.875 397.16v14.688" style="fill:none;stroke:teal;stroke-width:.264583;stroke-linejoin:round;marker-start:url(#ad);marker-end:url(#ae)"/><text xml:space="preserve" style="font-size:16px;line-height:normal;font-family:&quot;Liberation Mono&quot;;-inkscape-font-specification:&quot;Liberation Mono&quot;;text-decoration-color:#000;white-space:pre;shape-inside:url(#af);display:inline;fill:teal;stroke-width:1;-inkscape-stroke:none;stop-color:#000" transform="translate(36.898 290.61)scale(.26458)"><tspan x="267.584" y="433.18">R2</tspan></text><path d="M107.007 412.672v20.34" style="fill:none;stroke:teal;stroke-width:.264583;stroke-linejoin:round;marker-start:url(#ag);marker-end:url(#ah)"/><text xml:space="preserve" style="font-size:16px;line-height:normal;font-family:&quot;Liberation Mono&quot;;-inkscape-font-specification:&quot;Liberation Mono&quot;;text-decoration-color:#000;white-space:pre;shape-inside:url(#ai);display:inline;fill:teal;stroke-width:1;-inkscape-stroke:none;stop-color:#000" transform="translate(36.932 308.957)scale(.26458)"><tspan x="267.584" y="433.18">H2</tspan></text><path d="M107.14 433.843v14.995" style="fill:none;stroke:teal;stroke-width:.264583;stroke-linejoin:round;marker-start:url(#aj);marker-end:url(#ak)"/><text xml:space="preserve" style="font-size:16px;line-height:normal;font-family:&quot;Liberation Mono&quot;;-inkscape-font-specification:&quot;Liberation Mono&quot;;text-decoration-color:#000;white-space:pre;shape-inside:url(#al);display:inline;fill:teal;stroke-width:1;-inkscape-stroke:none;stop-color:#000" transform="translate(36.932 326.237)scale(.26458)"><tspan x="267.584" y="433.18">H1</tspan></text><path d="M51.636 406.622v11.075" style="fill:none;stroke:purple;stroke-width:.264583;stroke-linejoin:round;marker-start:url(#am);marker-end:url(#an)"/><text xml:space="preserve" style="font-size:16px;line-height:normal;font-family:&quot;Liberation Mono&quot;;-inkscape-font-specification:&quot;Liberation Mono&quot;;text-decoration-color:#000;white-space:pre;shape-inside:url(#ao);display:inline;fill:purple;stroke-width:1;-inkscape-stroke:none;stop-color:#000" transform="translate(-25.127 298.942)scale(.26458)"><tspan x="267.584" y="433.18">D1</tspan></text><path d="M99.958 449.2h8.038M97.381 453.905h10.483" style="fill:purple;stroke:#ccc;stroke-width:.264583;stroke-linejoin:round"/><path d="M107.07 449.501v4.102" style="fill:none;stroke:#b3b3b3;stroke-width:.264583;stroke-linejoin:round;marker-start:url(#ap);marker-end:url(#aq)"/><text xml:space="preserve" style="font-size:16px;line-height:normal;font-family:&quot;Liberation Mono&quot;;-inkscape-font-specification:&quot;Liberation Mono&quot;;text-decoration-color:#000;white-space:pre;shape-inside:url(#ar);display:inline;fill:#b3b3b3;stroke-width:1;-inkscape-stroke:none;stop-color:#000" transform="translate(52.894 338.812)scale(.26458)"><tspan x="208.459" y="431.379">H0</tspan></text><path d="M105.067 460.849v20.524" style="fill:purple;stroke:#4a0;stroke-width:.264584;stroke-linejoin:round;stroke-dasharray:none"/><text xml:space="preserve" style="font-size:16px;line-height:normal;font-family:&quot;Liberation Mono&quot;;-inkscape-font-specification:&quot;Liberation Mono&quot;;text-decoration-color:#000;white-space:pre;shape-inside:url(#as);display:inline;fill:#4a0;stroke-width:1;-inkscape-stroke:none;stop-color:#000" transform="translate(-34.487 354.791)scale(.26458)"><tspan x="528.41" y="414.936">Jangle
</tspan><tspan x="528.41" y="434.936">Jradius
</tspan><tspan x="528.41" y="454.936">Jneutral
</tspan><tspan x="528.41" y="474.936">Jmark
</tspan></text><path d="m100.398 452.373 5.109 8.07" style="fill:#ccc;stroke:#4a0;stroke-width:.264583;stroke-linejoin:round;marker-start:url(#g)"/><text xml:space="preserve" style="font-size:16px;line-height:normal;font-family:&quot;Liberation Mono&quot;;-inkscape-font-specification:&quot;Liberation Mono&quot;;text-decoration-color:#000;white-space:pre;shape-inside:url(#at);display:inline;fill:#2c89a0;stroke-width:1;-inkscape-stroke:none;stop-color:#000" transform="translate(3.6 131.743)scale(.26458)"><tspan x="21.623" y="812.031">smEy</tspan></text><circle cx="75.177" cy="110.443" r="53.671" style="fill:none;stroke:#00f;stroke-width:.264584;stroke-linejoin:round"/><path d="M111.923 110.443h16.925" style="fill:#999;stroke:green;stroke-width:.264583;stroke-linejoin:round;marker-start:url(#d);marker-end:url(#d)"/><text xml:space="preserve" style="font-size:16px;line-height:normal;font-family:&quot;Liberation Mono&quot;;-inkscape-font-specification:&quot;Liberation Mono&quot;;text-decoration-color:#000;white-space:pre;shape-inside:url(#au);fill:green;stroke-width:1;-inkscape-stroke:none;stop-color:#000" transform="translate(67.342 -7.66)scale(.26458)"><tspan x="164.875" y="435.014">H0+H1+H2</tspan></text></svg>