<svg xmlns="http://www.w3.org/2000/svg" width="600" height="3000" viewBox="0 0 158.75 793.75"><defs><path id="ad" d="M486.516 1588.834h50.904v43.696h-50.904z"/><path id="U" d="M333.791 1521.645h49.162v30.898h-49.162z"/><path id="N" d="M463.151 596.936h61.796v47.143h-61.796z"/><path id="M" d="M204.742 722.341h28.605v22.762h-28.605z"/><path id="L" d="M192.129 738.783h28.38v22.435h-28.38z"/><path id="J" d="M137.926 723.076h40.356v38.543h-40.356z"/><path id="H" d="M144.615 738.684h33.667v30.579h-33.667z"/><path id="F" d="M225.205 804.94h28.668v36.313h-28.668z"/><path id="C" d="M304.839 1061.179h38.647v34.168h-38.647z"/><path id="B" d="M298.149 1048.191h37.587v31.963h-37.587z"/><path id="A" d="M315.909 1059.131h33.843v29.179h-33.843z"/><path id="z" d="M302.29 1048.191h33.128v40.119H302.29z"/><path id="u" d="M70.274 782.573h57.661v51.823H70.274z"/><path id="t" d="M287.63 901.18h34.986v19.821H287.63z"/><path id="s" d="M271.863 901.631h34.912v23.425h-34.912z"/><path id="q" d="M300 917.172h33.804v22.524H300z"/><path id="p" d="M351.147 973.482h23.13v20.271h-23.13z"/><path id="o" d="M64.418 747.342h36.489v44.597H64.418z"/><path id="n" d="M76.581 718.512h39.642v39.642H76.581z"/><path id="m" d="M279.674 273.622h30.898v28.668h-30.898z"/><path id="l" d="M281.904 231.257h40.454v30.261h-40.454z"/><path id="k" d="M573.007 220.734h33.335v32.885h-33.335z"/><path id="j" d="M252.267 557.691h56.362v48.652h-56.362z"/><path id="i" d="M426.152 560.394h65.896v43.246h-65.896z"/><path id="e" d="M239.654 240.104h41.606v24.326h-41.606z"/><path id="d" d="M283.801 265.782h51.805v27.271h-51.805z"/><path id="c" d="M260.826 341.912h50.003v30.182h-50.003z"/><path id="a" d="M10.193 7.645h280.311v84.093H10.193z"/><path id="g" d="M239.654 240.104h41.606v24.326h-41.606z"/><path id="h" d="M283.801 265.782h51.805v27.271h-51.805z"/><path id="E" d="M426.152 560.394h65.896v43.246h-65.896z"/><path id="R" d="M192.129 738.783h38.573v23.072h-38.573z"/><path id="S" d="M204.742 722.341h48.992v24.037h-48.992z"/><path id="X" d="M192.129 738.783h38.573v23.072h-38.573z"/><path id="Y" d="M204.742 722.341h48.992v24.037h-48.992z"/><path id="aa" d="M333.791 1521.645h49.162v30.898h-49.162z"/><path id="ac" d="M192.129 738.783h38.573v23.072h-38.573z"/><marker id="b" markerHeight="1" markerWidth="1" orient="auto-start-reverse" preserveAspectRatio="xMidYMid" refX="0" refY="0" style="overflow:visible" viewBox="0 0 1 1"><path d="M3-3 0 0l3 3" style="fill:none;stroke:context-stroke;stroke-width:1;stroke-linecap:butt" transform="rotate(180,0.125,0)"/></marker><marker id="f" markerHeight="1" markerWidth="1" orient="auto-start-reverse" preserveAspectRatio="xMidYMid" refX="0" refY="0" style="overflow:visible" viewBox="0 0 1 1"><path d="M3-3 0 0l3 3" style="fill:none;stroke:context-stroke;stroke-width:1;stroke-linecap:butt" transform="rotate(180,0.125,0)"/></marker><marker id="r" markerHeight="1" markerWidth="1" orient="auto-start-reverse" preserveAspectRatio="xMidYMid" refX="0" refY="0" style="overflow:visible" viewBox="0 0 1 1"><path d="M3-3 0 0l3 3" style="fill:none;stroke:context-stroke;stroke-width:1;stroke-linecap:butt" transform="rotate(180,0.125,0)"/></marker><marker id="v" markerHeight="1" markerWidth="1" orient="auto-start-reverse" preserveAspectRatio="xMidYMid" refX="0" refY="0" style="overflow:visible" viewBox="0 0 1 1"><path d="M3-3 0 0l3 3" style="fill:none;stroke:context-stroke;stroke-width:1;stroke-linecap:butt" transform="rotate(180,0.125,0)"/></marker><marker id="w" markerHeight="1" markerWidth="1" orient="auto-start-reverse" preserveAspectRatio="xMidYMid" refX="0" refY="0" style="overflow:visible" viewBox="0 0 1 1"><path d="M3-3 0 0l3 3" style="fill:none;stroke:context-stroke;stroke-width:1;stroke-linecap:butt" transform="rotate(180,0.125,0)"/></marker><marker id="x" markerHeight="1" markerWidth="1" orient="auto-start-reverse" preserveAspectRatio="xMidYMid" refX="0" refY="0" style="overflow:visible" viewBox="0 0 1 1"><path d="M3-3 0 0l3 3" style="fill:none;stroke:context-stroke;stroke-width:1;stroke-linecap:butt" transform="rotate(180,0.125,0)"/></marker><marker id="y" markerHeight="1" markerWidth="1" orient="auto-start-reverse" preserveAspectRatio="xMidYMid" refX="0" refY="0" style="overflow:visible" viewBox="0 0 1 1"><path d="M3-3 0 0l3 3" style="fill:none;stroke:context-stroke;stroke-width:1;stroke-linecap:butt" transform="rotate(180,0.125,0)"/></marker><marker id="D" markerHeight="1" markerWidth="1" orient="auto-start-reverse" preserveAspectRatio="xMidYMid" refX="0" refY="0" style="overflow:visible" viewBox="0 0 1 1"><path d="M3-3 0 0l3 3" style="fill:none;stroke:context-stroke;stroke-width:1;stroke-linecap:butt" transform="rotate(180,0.125,0)"/></marker><marker id="G" markerHeight="1" markerWidth="1" orient="auto-start-reverse" preserveAspectRatio="xMidYMid" refX="0" refY="0" style="overflow:visible" viewBox="0 0 1 1"><path d="M3-3 0 0l3 3" style="fill:none;stroke:context-stroke;stroke-width:1;stroke-linecap:butt" transform="rotate(180,0.125,0)"/></marker><marker id="I" markerHeight="1" markerWidth="1" orient="auto-start-reverse" preserveAspectRatio="xMidYMid" refX="0" refY="0" style="overflow:visible" viewBox="0 0 1 1"><path d="M3-3 0 0l3 3" style="fill:none;stroke:context-stroke;stroke-width:1;stroke-linecap:butt" transform="rotate(180,0.125,0)"/></marker><marker id="K" markerHeight="1" markerWidth="1" orient="auto-start-reverse" preserveAspectRatio="xMidYMid" refX="0" refY="0" style="overflow:visible" viewBox="0 0 1 1"><path d="M3-3 0 0l3 3" style="fill:none;stroke:context-stroke;stroke-width:1;stroke-linecap:butt" transform="rotate(180,0.125,0)"/></marker><marker id="O" markerHeight="1" markerWidth="1" orient="auto-start-reverse" preserveAspectRatio="xMidYMid" refX="0" refY="0" style="overflow:visible" viewBox="0 0 1 1"><path d="M3-3 0 0l3 3" style="fill:none;stroke:context-stroke;stroke-width:1;stroke-linecap:butt" transform="rotate(180,0.125,0)"/></marker><marker id="P" markerHeight="1" markerWidth="1" orient="auto-start-reverse" preserveAspectRatio="xMidYMid" refX="0" refY="0" style="overflow:visible" viewBox="0 0 1 1"><path d="M3-3 0 0l3 3" style="fill:none;stroke:context-stroke;stroke-width:1;stroke-linecap:butt" transform="rotate(180,0.125,0)"/></marker><marker id="Q" markerHeight="1" markerWidth="1" orient="auto-start-reverse" preserveAspectRatio="xMidYMid" refX="0" refY="0" style="overflow:visible" viewBox="0 0 1 1"><path d="M3-3 0 0l3 3" style="fill:none;stroke:context-stroke;stroke-width:1;stroke-linecap:butt" transform="rotate(180,0.125,0)"/></marker><marker id="T" markerHeight="1" markerWidth="1" orient="auto-start-reverse" preserveAspectRatio="xMidYMid" refX="0" refY="0" style="overflow:visible" viewBox="0 0 1 1"><path d="M3-3 0 0l3 3" style="fill:none;stroke:context-stroke;stroke-width:1;stroke-linecap:butt" transform="rotate(180,0.125,0)"/></marker><marker id="V" markerHeight="1" markerWidth="1" orient="auto-start-reverse" preserveAspectRatio="xMidYMid" refX="0" refY="0" style="overflow:visible" viewBox="0 0 1 1"><path d="M3-3 0 0l3 3" style="fill:none;stroke:context-stroke;stroke-width:1;stroke-linecap:butt" transform="rotate(180,0.125,0)"/></marker><marker id="W" markerHeight="1" markerWidth="1" orient="auto-start-reverse" preserveAspectRatio="xMidYMid" refX="0" refY="0" style="overflow:visible" viewBox="0 0 1 1"><path d="M3-3 0 0l3 3" style="fill:none;stroke:context-stroke;stroke-width:1;stroke-linecap:butt" transform="rotate(180,0.125,0)"/></marker><marker id="Z" markerHeight="1" markerWidth="1" orient="auto-start-reverse" preserveAspectRatio="xMidYMid" refX="0" refY="0" style="overflow:visible" viewBox="0 0 1 1"><path d="M3-3 0 0l3 3" style="fill:none;stroke:context-stroke;stroke-width:1;stroke-linecap:butt" transform="rotate(180,0.125,0)"/></marker><marker id="ab" markerHeight="1" markerWidth="1" orient="auto-start-reverse" preserveAspectRatio="xMidYMid" refX="0" refY="0" style="overflow:visible" viewBox="0 0 1 1"><path d="M3-3 0 0l3 3" style="fill:none;stroke:context-stroke;stroke-width:1;stroke-linecap:butt" transform="rotate(180,0.125,0)"/></marker></defs><path d="M50.099 344.365h69.577v52.378H50.099z" style="fill:#fff;stroke:#fff;stroke-width:.264583;stroke-linejoin:round"/><path d="M55.474 348.175h58.827v45.848H55.474z" style="fill:#ececec;stroke:#fff;stroke-width:.264583;stroke-linejoin:round"/><path d="M37.187 173.062H141.12v143.027H37.187z" style="fill:#fff;stroke:#fff;stroke-width:.264583;stroke-linejoin:round"/><path d="M84.472 201.538H94.71M84.472 179.609h27.282" style="fill:#ffd5d5;stroke:#ccc;stroke-width:.264583;stroke-linejoin:round"/><circle cx="84.472" cy="208.449" r="6.911" style="fill:#ffd5d5;stroke:#ffd5d5;stroke-width:.264583;stroke-linejoin:round"/><path d="M77.561 208.449h13.822v17.769H77.561z" style="fill:#ffd5d5;stroke:#ffd5d5;stroke-width:.264583;stroke-linejoin:round"/><path d="M13.349 18.832h134.922v124.91H13.349z" style="fill:#fff;stroke:#fff;stroke-width:.264583;stroke-linejoin:round;stroke-dasharray:none"/><path d="M130.055 24.109h5.292v5.292h-5.292zM108.889 45.276h5.292v5.292h-5.292zM114.18 29.401h15.875v15.875H114.18zM23.164 109.798h15.875v15.875H23.164zM17.873 125.673h5.292v5.292h-5.292zM39.039 104.506h5.292v5.292h-5.292z" style="fill:none;stroke:#786721;stroke-width:.264583;stroke-linejoin:round"/><rect width="117.475" height="106.855" x="17.873" y="24.109" ry="0" style="fill:#b3b3b3;stroke:#786721;stroke-width:.264583;stroke-linejoin:round"/><rect width="106.891" height="96.272" x="23.164" y="29.401" ry="0" style="fill:#e6e6e6;stroke:#786721;stroke-width:.264583;stroke-linejoin:round"/><text xml:space="preserve" style="font-size:16px;line-height:normal;font-family:&quot;Liberation Mono&quot;;-inkscape-font-specification:&quot;Liberation Mono&quot;;text-decoration-color:#000;white-space:pre;shape-inside:url(#a);display:inline;fill:#000;stroke-width:1;-inkscape-stroke:none;stop-color:#000" transform="scale(0.26458333)"><tspan x="10.193" y="21.881">src_stoneTower.svg</tspan></text><rect width="75.141" height="64.522" x="39.039" y="45.276" ry="0" style="fill:#b3b3b3;stroke:#786721;stroke-width:.264583;stroke-linejoin:round"/><rect width="64.558" height="53.939" x="44.331" y="50.568" ry="0" style="fill:#fff;stroke:#786721;stroke-width:.26458333;stroke-linejoin:round"/><path d="M105.067 50.568h3.821v5.222h-3.821zM44.331 50.568h3.821v5.222h-3.821z" style="fill:#b3b3b3;stroke:#a0892c;stroke-width:.264583;stroke-linejoin:round"/><path d="M100.422 50.568v53.938" style="fill:#999;stroke:#f60;stroke-width:.264583;stroke-linejoin:round;stroke-dasharray:none;marker-start:url(#b);marker-end:url(#b)"/><path d="M44.33 95.51h64.559" style="fill:#999;stroke:#f60;stroke-width:.264583;stroke-linejoin:round;stroke-dasharray:none;marker-start:url(#b);marker-end:url(#b)"/><text xml:space="preserve" style="font-size:16px;line-height:normal;font-family:&quot;Liberation Mono&quot;;-inkscape-font-specification:&quot;Liberation Mono&quot;;text-decoration-color:#000;white-space:pre;shape-inside:url(#c);display:inline;fill:#f60;stroke-width:1;-inkscape-stroke:none;stop-color:#000" transform="matrix(0.26458333,0,0,0.26458333,4.9165206,-0.93409148)"><tspan x="260.826" y="356.149">L1</tspan></text><text xml:space="preserve" style="font-size:16px;line-height:normal;font-family:&quot;Liberation Mono&quot;;-inkscape-font-specification:&quot;Liberation Mono&quot;;text-decoration-color:#000;white-space:pre;shape-inside:url(#d);display:inline;fill:#f60;stroke-width:1;-inkscape-stroke:none;stop-color:#000" transform="matrix(0.26458333,0,0,0.26458333,18.598508,4.8431039)"><tspan x="283.801" y="280.018">W1</tspan></text><path d="M76.61 45.276v5.292" style="fill:#55d400;stroke:red;stroke-width:.264583;stroke-linejoin:round;stroke-dasharray:none;marker-start:url(#b);marker-end:url(#b)"/><text xml:space="preserve" style="font-size:16px;line-height:normal;font-family:&quot;Liberation Mono&quot;;-inkscape-font-specification:&quot;Liberation Mono&quot;;text-decoration-color:#000;white-space:pre;shape-inside:url(#e);display:inline;fill:red;stroke:none;stroke-width:1;-inkscape-stroke:none;stop-color:#000" transform="matrix(0.26458333,0,0,0.26458333,15.732926,-17.978699)"><tspan x="239.654" y="254.342">T1</tspan></text><path d="M76.61 24.11v5.29" style="fill:#55d400;stroke:red;stroke-width:.264583;stroke-linejoin:round;stroke-dasharray:none;marker-start:url(#f);marker-end:url(#f)"/><text xml:space="preserve" style="font-size:16px;line-height:normal;font-family:&quot;Liberation Mono&quot;;-inkscape-font-specification:&quot;Liberation Mono&quot;;text-decoration-color:#000;white-space:pre;shape-inside:url(#g);display:inline;fill:red;stroke:none;stroke-width:1;-inkscape-stroke:none;stop-color:#000" transform="matrix(0.26458333,0,0,0.26458333,15.732923,-39.145362)"><tspan x="239.654" y="254.342">T2</tspan></text><path d="M76.61 29.4v15.876" style="fill:#55d400;stroke:red;stroke-width:.264583;stroke-linejoin:round;stroke-dasharray:none;marker-start:url(#b);marker-end:url(#b)"/><text xml:space="preserve" style="font-size:16px;line-height:normal;font-family:&quot;Liberation Mono&quot;;-inkscape-font-specification:&quot;Liberation Mono&quot;;text-decoration-color:#000;white-space:pre;shape-inside:url(#h);display:inline;fill:red;stroke:none;stroke-width:1;-inkscape-stroke:none;stop-color:#000" transform="matrix(0.26458333,0,0,0.26458333,4.1310503,-34.755794)"><tspan x="283.801" y="280.018">W2</tspan></text><path d="M137.993 24.11v106.855" style="fill:red;stroke:#666;stroke-width:.264583;stroke-linejoin:round;stroke-dasharray:none;marker-start:url(#b);marker-end:url(#b)"/><text xml:space="preserve" style="font-size:16px;line-height:normal;font-family:&quot;Liberation Mono&quot;;-inkscape-font-specification:&quot;Liberation Mono&quot;;text-decoration-color:#000;white-space:pre;shape-inside:url(#i);display:inline;fill:#000;stroke-width:1;-inkscape-stroke:none;stop-color:#000" transform="matrix(0.26458333,0,0,0.26458333,26.695346,-73.105628)"><tspan x="426.152" y="574.631">W3</tspan></text><path d="M17.873 134.669h117.474" style="fill:red;stroke:#666;stroke-width:.264583;stroke-linejoin:round;stroke-dasharray:none;marker-start:url(#b);marker-end:url(#b)"/><text xml:space="preserve" style="font-size:16px;line-height:normal;font-family:&quot;Liberation Mono&quot;;-inkscape-font-specification:&quot;Liberation Mono&quot;;text-decoration-color:#000;white-space:pre;shape-inside:url(#j);display:inline;fill:#000;stroke-width:1;-inkscape-stroke:none;stop-color:#000" transform="matrix(0.26458333,0,0,0.26458333,7.2450606,-11.20375)"><tspan x="252.268" y="571.928">L3</tspan></text><path d="M114.18 77.537h15.875v48.136H114.18z" style="fill:#fff;stroke:#a0892c;stroke-width:.264584;stroke-linejoin:round"/><path d="M114.18 93.923h15.875v5.292H114.18z" style="fill:#e9afaf;stroke:#f60;stroke-width:.264583;stroke-linejoin:round"/><path d="M44.331 99.284h3.821v5.222h-3.821zM105.067 99.284h3.821v5.222h-3.821zM74.699 99.284h3.821v5.222h-3.821zM74.699 50.568h3.821v5.222h-3.821z" style="fill:#b3b3b3;stroke:#a0892c;stroke-width:.264583;stroke-linejoin:round"/><path d="m48.987 56.376 11.918 11.8" style="fill:#b3b3b3;stroke:purple;stroke-width:.264583;stroke-linejoin:round;marker-start:url(#b)"/><path d="m61.859 68.057 12.143-12.404" style="fill:#b3b3b3;stroke:purple;stroke-width:.264583;stroke-linejoin:round;marker-end:url(#b)"/><text xml:space="preserve" style="font-size:16px;line-height:normal;font-family:&quot;Liberation Mono&quot;;-inkscape-font-specification:&quot;Liberation Mono&quot;;text-decoration-color:#000;white-space:pre;shape-inside:url(#k);display:inline;fill:purple;stroke-width:1;-inkscape-stroke:none;stop-color:#000" transform="matrix(0.26458333,0,0,0.26458333,-92.132968,9.296729)"><tspan x="573.008" y="234.971">N4</tspan></text><path d="M80.108 50.568v5.221" style="fill:purple;stroke:purple;stroke-width:.264583;stroke-linejoin:round;marker-start:url(#b);marker-end:url(#b)"/><path d="M74.7 56.848h3.82" style="fill:purple;stroke:purple;stroke-width:.264583;stroke-linejoin:round;marker-start:url(#b);marker-end:url(#b)"/><text xml:space="preserve" style="font-size:16px;line-height:normal;font-family:&quot;Liberation Mono&quot;;-inkscape-font-specification:&quot;Liberation Mono&quot;;text-decoration-color:#000;white-space:pre;shape-inside:url(#l);display:inline;fill:purple;stroke-width:1;-inkscape-stroke:none;stop-color:#000" transform="matrix(0.26458333,0,0,0.26458333,-0.84279232,-3.7082862)"><tspan x="281.904" y="245.494">T4</tspan></text><text xml:space="preserve" style="font-size:16px;line-height:normal;font-family:&quot;Liberation Mono&quot;;-inkscape-font-specification:&quot;Liberation Mono&quot;;text-decoration-color:#000;white-space:pre;shape-inside:url(#m);display:inline;fill:purple;stroke-width:1;-inkscape-stroke:none;stop-color:#000" transform="matrix(0.26458333,0,0,0.26458333,7.5008517,-21.659763)"><tspan x="279.674" y="287.859">W4</tspan></text><path d="M47.871 226.218h2.528v78.717h-2.528zM60.776 226.218h2.528v78.717h-2.528zM47.871 216.273h2.528v9.945h-2.528zM105.638 226.218h2.528v78.717h-2.528zM118.544 226.218h2.528v78.717h-2.528zM118.544 216.273h2.528v9.945h-2.528z" style="fill:#999;stroke:#786721;stroke-width:.264583;stroke-linejoin:round"/><path d="M63.305 226.218h42.333v4.551H63.305z" style="fill:#fca;stroke:#786721;stroke-width:.264583;stroke-linejoin:round"/><path d="M63.305 230.77h6.478v6.405l-6.478 8.006zM105.638 230.77H99.16v6.405l6.478 8.006zM108.167 226.218h10.378v7.572h-10.378z" style="fill:#b3b3b3;stroke:#786721;stroke-width:.264583;stroke-linejoin:round"/><circle cx="113.355" cy="233.921" r="4.767" style="fill:#fff;stroke:#fff;stroke-width:.264582;stroke-linejoin:round"/><path d="M50.399 226.218h10.378v7.572H50.399z" style="fill:#b3b3b3;stroke:#786721;stroke-width:.264583;stroke-linejoin:round"/><circle cx="55.588" cy="233.921" r="4.767" style="fill:#fff;stroke:#fff;stroke-width:.264582;stroke-linejoin:round"/><path d="M63.305 265.576h42.333v4.551H63.305z" style="fill:#fca;stroke:#786721;stroke-width:.264583;stroke-linejoin:round"/><path d="M63.305 270.128h6.478v6.405l-6.478 8.007zM105.638 270.128H99.16v6.405l6.478 8.007zM108.167 265.576h10.378v7.572h-10.378z" style="fill:#b3b3b3;stroke:#786721;stroke-width:.264583;stroke-linejoin:round"/><circle cx="113.355" cy="273.28" r="4.767" style="fill:#fff;stroke:#fff;stroke-width:.264582;stroke-linejoin:round"/><path d="M50.399 265.576h10.378v7.572H50.399z" style="fill:#b3b3b3;stroke:#786721;stroke-width:.264583;stroke-linejoin:round"/><circle cx="55.588" cy="273.28" r="4.767" style="fill:#fff;stroke:#fff;stroke-width:.264582;stroke-linejoin:round"/><path d="M84.472 230.77v34.807" style="fill:#fff;stroke:#4a0;stroke-width:.264583;stroke-linejoin:round;marker-start:url(#b);marker-end:url(#b)"/><text xml:space="preserve" style="font-size:16px;line-height:normal;font-family:&quot;Liberation Mono&quot;;-inkscape-font-specification:&quot;Liberation Mono&quot;;text-decoration-color:#000;white-space:pre;shape-inside:url(#n);display:inline;fill:green;stroke-width:1;-inkscape-stroke:none;stop-color:#000" transform="matrix(0.26458333,0,0,0.26458333,64.957914,55.694311)"><tspan x="76.582" y="732.748">H1</tspan></text><path d="m123.48 283.838 8.581-19.428" style="fill:green;stroke:#4a0;stroke-width:.264583;stroke-linejoin:round;marker-start:url(#b)"/><path d="m122.884 248.677 8.462 13.35" style="fill:green;stroke:#4a0;stroke-width:.264583;stroke-linejoin:round;marker-start:url(#b)"/><text xml:space="preserve" style="font-size:16px;line-height:normal;font-family:&quot;Liberation Mono&quot;;-inkscape-font-specification:&quot;Liberation Mono&quot;;text-decoration-color:#000;white-space:pre;shape-inside:url(#o);display:inline;fill:green;stroke-width:1;-inkscape-stroke:none;stop-color:#000" transform="matrix(0.26458333,0,0,0.26458333,115.01722,61.789084)"><tspan x="64.418" y="761.578">N1</tspan></text><path d="M105.638 307.052h2.529" style="fill:green;stroke:#d40000;stroke-width:.264583;stroke-linejoin:round;marker-start:url(#b);marker-end:url(#b)"/><text xml:space="preserve" style="font-size:16px;line-height:normal;font-family:&quot;Liberation Mono&quot;;-inkscape-font-specification:&quot;Liberation Mono&quot;;text-decoration-color:#000;white-space:pre;shape-inside:url(#p);fill:red;stroke-width:1;-inkscape-stroke:none;stop-color:#000" transform="matrix(0.26458333,0,0,0.26458333,12.320343,50.704516)"><tspan x="351.146" y="987.719">T1</tspan></text><path d="M63.305 304.935h42.333" style="fill:red;stroke:#d40000;stroke-width:.264583;stroke-linejoin:round;marker-start:url(#b);marker-end:url(#b)"/><text xml:space="preserve" style="font-size:16px;line-height:normal;font-family:&quot;Liberation Mono&quot;;-inkscape-font-specification:&quot;Liberation Mono&quot;;text-decoration-color:#000;white-space:pre;shape-inside:url(#q);fill:red;stroke-width:1;-inkscape-stroke:none;stop-color:#000" transform="matrix(0.26458333,0,0,0.26458333,2.6584245,57.302931)"><tspan x="300" y="931.408">W1</tspan></text><path d="M108.167 304.935h10.377" style="fill:red;stroke:#d40000;stroke-width:.264583;stroke-linejoin:round;marker-start:url(#b);marker-end:url(#b)"/><path d="M118.544 307.052h2.528" style="fill:green;stroke:#d40000;stroke-width:.264583;stroke-linejoin:round;marker-start:url(#r);marker-end:url(#r)"/><text xml:space="preserve" style="font-size:16px;line-height:normal;font-family:&quot;Liberation Mono&quot;;-inkscape-font-specification:&quot;Liberation Mono&quot;;text-decoration-color:#000;white-space:pre;shape-inside:url(#s);fill:red;stroke-width:1;-inkscape-stroke:none;stop-color:#000" transform="matrix(0.26458333,0,0,0.26458333,45.408678,69.544809)"><tspan x="271.863" y="915.867">T2</tspan></text><text xml:space="preserve" style="font-size:16px;line-height:normal;font-family:&quot;Liberation Mono&quot;;-inkscape-font-specification:&quot;Liberation Mono&quot;;text-decoration-color:#000;white-space:pre;shape-inside:url(#t);fill:red;stroke-width:1;-inkscape-stroke:none;stop-color:#000" transform="matrix(0.26458333,0,0,0.26458333,34.862956,62.206245)"><tspan x="287.629" y="915.416">W2</tspan></text><path d="M63.305 287.062h6.478" style="fill:red;stroke:purple;stroke-width:.264583;stroke-linejoin:round;marker-start:url(#b);marker-end:url(#b)"/><text xml:space="preserve" style="font-size:16px;line-height:normal;font-family:&quot;Liberation Mono&quot;;-inkscape-font-specification:&quot;Liberation Mono&quot;;text-decoration-color:#000;white-space:pre;shape-inside:url(#u);fill:purple;stroke-width:1;-inkscape-stroke:none;stop-color:#000" transform="matrix(0.26458333,0,0,0.26458333,45.517426,80.382544)"><tspan x="70.275" y="796.809">W4</tspan></text><path d="M84.472 270.016v-4.518" style="fill:red;stroke:purple;stroke-width:.264583;stroke-linejoin:round;marker-start:url(#v);marker-end:url(#v)"/><path d="M72.39 276.514v-6.173" style="fill:red;stroke:purple;stroke-width:.264583;stroke-linejoin:round;marker-start:url(#w);marker-end:url(#w)"/><path d="M72.3 284.54V277" style="fill:red;stroke:purple;stroke-width:.264584;stroke-linejoin:round;marker-start:url(#x);marker-end:url(#x)"/><path d="M55.588 268.156v-2.608" style="fill:red;stroke:purple;stroke-width:.264583;stroke-linejoin:round;marker-start:url(#y);marker-end:url(#y)"/><text xml:space="preserve" style="font-size:16px;line-height:normal;font-family:&quot;Liberation Mono&quot;;-inkscape-font-specification:&quot;Liberation Mono&quot;;text-decoration-color:#000;white-space:pre;shape-inside:url(#z);fill:purple;stroke-width:1;-inkscape-stroke:none;stop-color:#000" transform="matrix(0.26458333,0,0,0.26458333,6.0872852,-11.810226)"><tspan x="302.291" y="1062.428">Hf</tspan></text><text xml:space="preserve" style="font-size:16px;line-height:normal;font-family:&quot;Liberation Mono&quot;;-inkscape-font-specification:&quot;Liberation Mono&quot;;text-decoration-color:#000;white-space:pre;shape-inside:url(#A);fill:purple;stroke-width:1;-inkscape-stroke:none;stop-color:#000" transform="matrix(0.26458333,0,0,0.26458333,-29.64219,-19.331545)"><tspan x="315.908" y="1073.367">Hs</tspan></text><text xml:space="preserve" style="font-size:16px;line-height:normal;font-family:&quot;Liberation Mono&quot;;-inkscape-font-specification:&quot;Liberation Mono&quot;;text-decoration-color:#000;white-space:pre;shape-inside:url(#B);fill:purple;stroke-width:1;-inkscape-stroke:none;stop-color:#000" transform="matrix(0.26458333,0,0,0.26458333,-5.6699187,-6.2791426)"><tspan x="298.148" y="1062.428">H4</tspan></text><text xml:space="preserve" style="font-size:16px;line-height:normal;font-family:&quot;Liberation Mono&quot;;-inkscape-font-specification:&quot;Liberation Mono&quot;;text-decoration-color:#000;white-space:pre;shape-inside:url(#C);fill:purple;stroke-width:1;-inkscape-stroke:none;stop-color:#000" transform="matrix(0.26458333,0,0,0.26458333,-7.8018819,-2.3833098)"><tspan x="304.838" y="1075.416">H4b</tspan></text><path d="M46.283 216.23v88.627" style="fill:red;stroke:#666;stroke-width:.264583;stroke-linejoin:round;stroke-dasharray:none;marker-start:url(#D);marker-end:url(#D)"/><text xml:space="preserve" style="font-size:16px;line-height:normal;font-family:&quot;Liberation Mono&quot;;-inkscape-font-specification:&quot;Liberation Mono&quot;;text-decoration-color:#000;white-space:pre;shape-inside:url(#E);display:inline;fill:#000;stroke-width:1;-inkscape-stroke:none;stop-color:#000" transform="matrix(0.26458333,0,0,0.26458333,-72.169105,109.26234)"><tspan x="426.152" y="574.631">H3</tspan></text><path d="M51.986 216.273v9.945" style="fill:purple;stroke:#00f;stroke-width:.264583;stroke-linejoin:round;marker-start:url(#b);marker-end:url(#b)"/><text xml:space="preserve" style="font-size:16px;line-height:normal;font-family:&quot;Liberation Mono&quot;;-inkscape-font-specification:&quot;Liberation Mono&quot;;text-decoration-color:#000;white-space:pre;shape-inside:url(#F);fill:#00f;stroke-width:1;-inkscape-stroke:none;stop-color:#000" transform="matrix(0.26458333,0,0,0.26458333,-7.458549,5.8783436)"><tspan x="225.205" y="819.176">H5</tspan></text><path d="M60.776 209.783h2.528v16.434h-2.528zM105.638 209.783h2.528v16.434h-2.528z" style="fill:#ccc;stroke:#786721;stroke-width:.264583;stroke-linejoin:round"/><path d="M109.342 209.783v16.12" style="fill:purple;stroke:#00f;stroke-width:.264583;stroke-linejoin:round;marker-start:url(#G);marker-end:url(#G)"/><text xml:space="preserve" style="font-size:16px;line-height:normal;font-family:&quot;Liberation Mono&quot;;-inkscape-font-specification:&quot;Liberation Mono&quot;;text-decoration-color:#000;white-space:pre;shape-inside:url(#H);fill:#00f;stroke-width:1;-inkscape-stroke:none;stop-color:#000" transform="matrix(0.26458333,0,0,0.26458333,71.863452,18.963052)"><tspan x="144.615" y="752.92">H6</tspan></text><path d="m60.776 209.783 23.696-30.174 23.695 30.174-2.661 2.348-21.034-27.39-21.167 27.053z" style="fill:#ccc;stroke:#786721;stroke-width:.264583;stroke-linejoin:round"/><path d="M109.342 179.609v30.174" style="fill:purple;stroke:#00f;stroke-width:.264582;stroke-linejoin:round;marker-start:url(#I);marker-end:url(#I)"/><text xml:space="preserve" style="font-size:16px;line-height:normal;font-family:&quot;Liberation Mono&quot;;-inkscape-font-specification:&quot;Liberation Mono&quot;;text-decoration-color:#000;white-space:pre;shape-inside:url(#J);fill:#00f;stroke-width:1;-inkscape-stroke:none;stop-color:#000" transform="matrix(0.26458333,0,0,0.26458333,73.661275,3.4554485)"><tspan x="137.926" y="737.313">H7</tspan></text><path d="M92.938 201.541v24.288" style="fill:#ffd5d5;stroke:#ff8080;stroke-width:.264583;stroke-linejoin:round;marker-start:url(#b);marker-end:url(#b)"/><path d="M77.78 222.73h13.382" style="fill:#ffd5d5;stroke:#ff8080;stroke-width:.264583;stroke-linejoin:round;marker-start:url(#K);marker-end:url(#K)"/><text xml:space="preserve" style="font-size:16px;line-height:normal;font-family:&quot;Liberation Mono&quot;;-inkscape-font-specification:&quot;Liberation Mono&quot;;text-decoration-color:#000;white-space:pre;shape-inside:url(#L);fill:#f55;stroke-width:1;-inkscape-stroke:none;stop-color:#000" transform="matrix(0.26458333,0,0,0.26458333,31.236542,22.947466)"><tspan x="192.129" y="753.02">W8</tspan></text><text xml:space="preserve" style="font-size:16px;line-height:normal;font-family:&quot;Liberation Mono&quot;;-inkscape-font-specification:&quot;Liberation Mono&quot;;text-decoration-color:#000;white-space:pre;shape-inside:url(#M);fill:#f55;stroke-width:1;-inkscape-stroke:none;stop-color:#000" transform="matrix(0.26458333,0,0,0.26458333,39.319265,19.546969)"><tspan x="204.742" y="736.576">H8</tspan></text><path d="M114.18 109.798h15.875v15.875H114.18z" style="fill:#f4d7d7;stroke:#f60;stroke-width:.264583;stroke-linejoin:round"/><path d="M114.18 104.506h15.875v5.292H114.18z" style="fill:#e9afaf;stroke:#f60;stroke-width:.264583;stroke-linejoin:round"/><path d="M114.18 99.215h15.875v5.292H114.18zM114.18 88.631h15.875v5.292H114.18z" style="fill:#e9afaf;stroke:#f60;stroke-width:.264583;stroke-linejoin:round"/><path d="M114.18 83.34h15.875v5.292H114.18zM114.18 77.784h15.875v5.292H114.18z" style="fill:#e9afaf;stroke:#f60;stroke-width:.264583;stroke-linejoin:round"/><text xml:space="preserve" style="font-size:16px;line-height:normal;font-family:&quot;Liberation Mono&quot;;-inkscape-font-specification:&quot;Liberation Mono&quot;;text-decoration-color:#000;white-space:pre;shape-inside:url(#N);fill:#a40;stroke-width:1;-inkscape-stroke:none;stop-color:#000" transform="matrix(0.26458333,0,0,0.26458333,-3.2026108,-66.243476)"><tspan x="463.15" y="611.172">N3</tspan></text><path d="M121.362 96.5v10.787" style="fill:#803300;stroke:#803300;stroke-width:.264583;stroke-linejoin:round;marker-end:url(#b)"/><path d="M121.479 91.72V80.933" style="fill:#803300;stroke:#803300;stroke-width:.264583;stroke-linejoin:round;marker-end:url(#O)"/><path d="M84.887 361.406h10.24" style="fill:#ffd5d5;stroke:#ccc;stroke-width:.264583;stroke-linejoin:round"/><circle cx="84.887" cy="368.317" r="6.911" style="fill:#ffd5d5;stroke:#ffd5d5;stroke-width:.264583;stroke-linejoin:round"/><path d="M77.976 368.317h13.822v17.769H77.976z" style="fill:#ffd5d5;stroke:#ffd5d5;stroke-width:.264583;stroke-linejoin:round"/><path d="M93.354 361.41v24.287" style="fill:#ffd5d5;stroke:#ff8080;stroke-width:.264583;stroke-linejoin:round;marker-start:url(#P);marker-end:url(#P)"/><path d="M78.197 382.597h13.381" style="fill:#ffd5d5;stroke:#ff8080;stroke-width:.264583;stroke-linejoin:round;marker-start:url(#Q);marker-end:url(#Q)"/><text xml:space="preserve" style="font-size:16px;line-height:normal;font-family:&quot;Liberation Mono&quot;;-inkscape-font-specification:&quot;Liberation Mono&quot;;text-decoration-color:#000;white-space:pre;shape-inside:url(#R);display:inline;fill:#f55;stroke-width:1;-inkscape-stroke:none;stop-color:#000" transform="matrix(0.26458333,0,0,0.26458333,30.064892,182.81549)"><tspan x="192.129" y="753.02">wW1</tspan></text><text xml:space="preserve" style="font-size:16px;line-height:normal;font-family:&quot;Liberation Mono&quot;;-inkscape-font-specification:&quot;Liberation Mono&quot;;text-decoration-color:#000;white-space:pre;shape-inside:url(#S);display:inline;fill:#f55;stroke-width:1;-inkscape-stroke:none;stop-color:#000" transform="matrix(0.26458333,0,0,0.26458333,39.735116,179.41499)"><tspan x="204.742" y="736.576">wH1</tspan></text><text xml:space="preserve" x="412.822" y="1459.531" style="font-size:16px;line-height:normal;font-family:&quot;Liberation Mono&quot;;-inkscape-font-specification:&quot;Liberation Mono&quot;;text-decoration-color:#000;white-space:pre;shape-inside:url(#a);fill:#000;stroke-width:1;-inkscape-stroke:none;stop-color:#000" transform="scale(0.26458333)"><tspan x="10.193" y="21.881">+</tspan></text><path d="M84.887 386.233v7.314" style="fill:#ffd5d5;stroke:#ff8080;stroke-width:.264583;stroke-linejoin:round;marker-start:url(#T);marker-end:url(#T)"/><text xml:space="preserve" style="font-size:16px;line-height:normal;font-family:&quot;Liberation Mono&quot;;-inkscape-font-specification:&quot;Liberation Mono&quot;;text-decoration-color:#000;white-space:pre;shape-inside:url(#U);fill:#f55;stroke-width:1;-inkscape-stroke:none;stop-color:#000" transform="matrix(0.26458333,0,0,0.26458333,-2.5842691,-15.082949)"><tspan x="333.791" y="1535.881">wS1</tspan></text><path d="M50.986 424.614h69.577v52.378H50.986z" style="fill:#fff;stroke:#fff;stroke-width:.264583;stroke-linejoin:round"/><path d="M56.361 428.424h58.827v45.848H56.361z" style="fill:#ececec;stroke:#fff;stroke-width:.264583;stroke-linejoin:round"/><path d="M94.77 441.655h10.24" style="fill:#ffd5d5;stroke:#ccc;stroke-width:.264583;stroke-linejoin:round"/><circle cx="94.771" cy="448.566" r="6.911" style="fill:#ffd5d5;stroke:#ffd5d5;stroke-width:.264583;stroke-linejoin:round"/><path d="M87.86 448.566h13.822v17.769H87.86z" style="fill:#ffd5d5;stroke:#ffd5d5;stroke-width:.264583;stroke-linejoin:round"/><path d="M103.237 441.658v24.287" style="fill:#ffd5d5;stroke:#ff8080;stroke-width:.264583;stroke-linejoin:round;marker-start:url(#V);marker-end:url(#V)"/><path d="M88.08 462.846h13.381" style="fill:#ffd5d5;stroke:#ff8080;stroke-width:.264583;stroke-linejoin:round;marker-start:url(#W);marker-end:url(#W)"/><text xml:space="preserve" style="font-size:16px;line-height:normal;font-family:&quot;Liberation Mono&quot;;-inkscape-font-specification:&quot;Liberation Mono&quot;;text-decoration-color:#000;white-space:pre;shape-inside:url(#X);display:inline;fill:#f55;stroke-width:1;-inkscape-stroke:none;stop-color:#000" transform="matrix(0.26458333,0,0,0.26458333,39.948023,263.06435)"><tspan x="192.129" y="753.02">wW2</tspan></text><text xml:space="preserve" style="font-size:16px;line-height:normal;font-family:&quot;Liberation Mono&quot;;-inkscape-font-specification:&quot;Liberation Mono&quot;;text-decoration-color:#000;white-space:pre;shape-inside:url(#Y);display:inline;fill:#f55;stroke-width:1;-inkscape-stroke:none;stop-color:#000" transform="matrix(0.26458333,0,0,0.26458333,49.618247,259.66385)"><tspan x="204.742" y="736.576">wH2</tspan></text><path d="M85.775 466.482v7.314" style="fill:#ffd5d5;stroke:#ff8080;stroke-width:.264583;stroke-linejoin:round;marker-start:url(#Z);marker-end:url(#Z)"/><text xml:space="preserve" style="font-size:16px;line-height:normal;font-family:&quot;Liberation Mono&quot;;-inkscape-font-specification:&quot;Liberation Mono&quot;;text-decoration-color:#000;white-space:pre;shape-inside:url(#aa);display:inline;fill:#f55;stroke-width:1;-inkscape-stroke:none;stop-color:#000" transform="matrix(0.26458333,0,0,0.26458333,-1.6969773,65.165913)"><tspan x="333.791" y="1535.881">wS2</tspan></text><circle cx="76.451" cy="448.566" r="6.911" style="fill:#ffd5d5;stroke:#ffd5d5;stroke-width:.264583;stroke-linejoin:round"/><path d="M69.54 448.566h13.822v17.769H69.54z" style="fill:#ffd5d5;stroke:#ffd5d5;stroke-width:.264583;stroke-linejoin:round"/><path d="M83.912 449.32h3.397" style="fill:#ffd5d5;stroke:#ff8080;stroke-width:.264583;stroke-linejoin:round;marker-start:url(#ab);marker-end:url(#ab)"/><text xml:space="preserve" style="font-size:16px;line-height:normal;font-family:&quot;Liberation Mono&quot;;-inkscape-font-specification:&quot;Liberation Mono&quot;;text-decoration-color:#000;white-space:pre;shape-inside:url(#ac);display:inline;fill:#f55;stroke-width:1;-inkscape-stroke:none;stop-color:#000" transform="matrix(0.26458333,0,0,0.26458333,31.094091,248.43053)"><tspan x="192.129" y="753.02">wE2</tspan></text><path d="M83.362 466.334h4.498" style="fill:#fff;stroke:#ccc;stroke-width:.264583;stroke-linejoin:round"/><text xml:space="preserve" style="font-size:16px;line-height:normal;font-family:&quot;Liberation Mono&quot;;-inkscape-font-specification:&quot;Liberation Mono&quot;;text-decoration-color:#000;white-space:pre;shape-inside:url(#ad);fill:#f55;stroke-width:1;-inkscape-stroke:none;stop-color:#000" transform="matrix(0.26458333,0,0,0.26458333,-46.795727,13.22996)"><tspan x="486.516" y="1603.07">wN2</tspan></text><path d="m80.234 442.213 3.624-3.961" style="fill:#f55;stroke:#ff8080;stroke-width:.264583;stroke-linejoin:round;marker-start:url(#b)"/><path d="m86.723 437.83 3.961 4.636" style="fill:#f55;stroke:#ff8080;stroke-width:.264583;stroke-linejoin:round;marker-end:url(#b)"/></svg>