<svg xmlns="http://www.w3.org/2000/svg" width="600" height="3000" viewBox="0 0 158.75 793.75"><defs><path id="B" d="M31.854 183.477h63.07v44.595h-63.07z"/><path id="A" d="M203.226 1911.851h189.529v50.647H203.226z"/><path id="y" d="M378.102 1721.685h44.914v30.579h-44.914z"/><path id="x" d="M51.603 1546.172h508.383v142.704H51.603z"/><path id="w" d="M36.95 1444.241h449.772v181.565H36.95z"/><path id="v" d="M33.765 1470.361h403.266v111.487H33.765z"/><path id="u" d="M41.41 1342.309h640.894v176.469H41.41z"/><path id="t" d="M107.665 1268.409h431.934v147.801H107.665z"/><path id="s" d="M333.825 1286.247h96.198v46.506h-96.198z"/><path id="r" d="M367.909 1117.423h35.995v32.809h-35.995z"/><path id="q" d="M241.131 1036.515h25.801v22.616h-25.801z"/><path id="p" d="M240.494 1011.032h47.143v27.076h-47.143z"/><path id="o" d="M288.912 1050.212h34.402v25.483h-34.402z"/><path id="n" d="M287.956 1015.81h28.031v19.749h-28.031z"/><path id="l" d="M363.768 945.095h38.861v25.483h-38.861z"/><path id="k" d="M126.777 1114.556h34.083v19.112h-34.083z"/><path id="j" d="M40.543 573.007h62.166v42.345H40.543z"/><path id="i" d="M486.516 642.381h87.393v55.859h-87.393z"/><path id="h" d="M500.931 359.931h45.048v37.84h-45.048z"/><path id="g" d="M53.607 566.701h42.795v36.489H53.607z"/><path id="f" d="M246.411 618.506h42.345v22.524h-42.345z"/><path id="e" d="M53.156 432.008h40.543v36.939H53.156z"/><path id="b" d="M43.321 25.483h225.523v62.433H43.321z"/><path id="m" d="M363.768 945.095h38.861v25.483h-38.861z"/><marker id="a" markerHeight="1" markerWidth="1" orient="auto-start-reverse" preserveAspectRatio="xMidYMid" refX="0" refY="0" style="overflow:visible" viewBox="0 0 1 1"><path d="M3-3 0 0l3 3" style="fill:none;stroke:context-stroke;stroke-width:1;stroke-linecap:butt" transform="rotate(180 .125 0)"/></marker><marker id="c" markerHeight="1" markerWidth="1" orient="auto-start-reverse" preserveAspectRatio="xMidYMid" refX="0" refY="0" style="overflow:visible" viewBox="0 0 1 1"><path d="M3-3 0 0l3 3" style="fill:none;stroke:context-stroke;stroke-width:1;stroke-linecap:butt" transform="rotate(180 .125 0)"/></marker><marker id="d" markerHeight="1" markerWidth="1" orient="auto-start-reverse" preserveAspectRatio="xMidYMid" refX="0" refY="0" style="overflow:visible" viewBox="0 0 1 1"><path d="M3-3 0 0l3 3" style="fill:none;stroke:context-stroke;stroke-width:1;stroke-linecap:butt" transform="rotate(180 .125 0)"/></marker><marker id="z" markerHeight="1" markerWidth="1" orient="auto-start-reverse" preserveAspectRatio="xMidYMid" refX="0" refY="0" style="overflow:visible" viewBox="0 0 1 1"><path d="M3-3 0 0l3 3" style="fill:none;stroke:context-stroke;stroke-width:1;stroke-linecap:butt" transform="rotate(180 .125 0)"/></marker></defs><path d="M11.799 42.477h127.43V167.21H11.799z" style="fill:#fff;stroke:#fff;stroke-width:.264583;stroke-linejoin:round"/><path d="m29.3 141.07-1.48-6.43" style="fill:none;stroke:#338000;stroke-width:.264582;stroke-linejoin:round;marker-start:url(#a);marker-end:url(#a)"/><path d="m31.472 133.848-5.101 1.158M38.92 135.643l-5.101 1.158" style="fill:none;stroke:#71c837;stroke-width:.264583;stroke-linejoin:round"/><text xml:space="preserve" style="font-size:16px;line-height:normal;font-family:&quot;Liberation Mono&quot;;-inkscape-font-specification:&quot;Liberation Mono&quot;;text-decoration-color:#000;white-space:pre;shape-inside:url(#b);display:inline;fill:#000;stroke-width:1;-inkscape-stroke:none;stop-color:#000" transform="translate(-2.697 -1.348)scale(.26458)"><tspan x="43.32" y="39.719">src_tunnel.svg</tspan></text><path d="M224.183 131.138h48.545l10.45-43.15M213.9 55.287l-43.15-10.45M224.183 131.138l-10.45-43.15M171.424 49.893l43.15-10.45" style="fill:#fff;stroke:#786721;stroke-width:.264583;stroke-linejoin:round"/><path d="m167.365 76.376 34.723 8.41" style="fill:none;stroke:#786721;stroke-width:.264583;stroke-linejoin:round"/><path d="M184.572 8.615V-36.24" style="fill:#fff;stroke:#786721;stroke-width:.264583;stroke-linejoin:round"/><ellipse cx="248.455" cy="78.757" rx="35.996" ry="34.2" style="fill:#fff;stroke:#786721;stroke-width:.264584;stroke-linejoin:round"/><path d="m35.531 99.43 10.45 43.15h48.545l10.451-43.15s.747-3.153.964-4.756c.2-1.482.372-2.981.31-4.475-.138-3.297-.56-6.622-1.504-9.783a30.2 30.2 0 0 0-3.405-7.459 37.6 37.6 0 0 0-6.533-7.766 33.5 33.5 0 0 0-7.514-5.117c-3.247-1.614-6.76-2.726-10.309-3.472a28.3 28.3 0 0 0-6.732-.603 47.8 47.8 0 0 0-11.55 1.808c-2.18.625-4.273 1.571-6.257 2.67-2.362 1.307-4.634 2.828-6.648 4.626-2.215 1.977-4.23 4.22-5.881 6.686-1.665 2.488-2.98 5.231-3.971 8.056-.765 2.18-1.178 4.479-1.49 6.767a24 24 0 0 0-.2 3.587c.027 1.818.19 3.636.458 5.435.19 1.28.816 3.795.816 3.795z" style="fill:none;stroke:#786721;stroke-width:.264583;stroke-linejoin:round"/><path d="m29.56 99.096 12.227 48.247h56.796l12.226-48.247s.874-3.525 1.128-5.316c.235-1.657.435-3.334.362-5.005-.16-3.685-.654-7.403-1.76-10.938a33 33 0 0 0-3.983-8.34 42.5 42.5 0 0 0-7.643-8.682 39.4 39.4 0 0 0-8.79-5.722c-3.8-1.805-7.91-3.048-12.062-3.882a34.6 34.6 0 0 0-7.876-.675c-4.557.144-9.13.821-13.512 2.022-2.55.699-5 1.757-7.322 2.985-2.763 1.462-5.421 3.163-7.778 5.173-2.59 2.21-4.95 4.717-6.88 7.475-1.948 2.783-3.487 5.85-4.646 9.008-.895 2.437-1.378 5.008-1.744 7.566a25.6 25.6 0 0 0-.233 4.01c.03 2.033.222 4.067.536 6.077.223 1.431.954 4.244.954 4.244z" style="fill:none;stroke:#786721;stroke-width:.264583;stroke-linejoin:round"/><path d="m94.526 142.58 4.846 1.096M92.066 142.58v4.763M84.307 142.58v4.763M76.7 142.58v4.763M70.254 142.58v4.763M63.036 142.58v4.763M55.469 142.58v4.763M47.949 142.58v4.763M45.983 142.584l-5.1 1.158M44.021 134.485l-5.101 1.158M41.831 125.442l-5.29 1.201M39.648 116.43l-5.385 1.222M37.55 107.764l-5.386 1.222M35.057 97.4l-5.605 1.272M96.204 135.654l5.051 1.142M97.92 128.567l5.127 1.159M105.8 95.548l5.547 1.255M103.958 103.637l5.547 1.254M101.599 113.379l5.288 1.196M99.752 121.005l5.207 1.177M106.045 87.243l6.096-.91M71.513 55.987l.363-5.46M81.308 57.71l2.217-5.138M89.855 61.49l3.397-4.734M97.707 68.12l4.477-4.16M102.414 74.793l5.482-3.091M104.747 80.416l6.189-1.207M34.344 92.255l-6.046.249M34.456 86.612l-6.314-.373M35.43 81.518l-6.29-1.288M37.53 76l-5.783-2.793M41.385 69.772l-5.02-3.78M46.857 64.202l-3.919-4.592M52.447 60.476l-3.096-4.933M60.362 57.364l-1.688-5.315M66.489 56.271l-1.076-5.39" style="fill:none;stroke:#b3b3b3;stroke-width:.264583;stroke-linejoin:round"/><path d="M94.526 142.58v17.382M45.983 142.584v17.382" style="fill:none;stroke:#71c837;stroke-width:.264583;stroke-linejoin:round"/><path d="m45.983 158.378 48.543-.004" style="fill:none;stroke:#338000;stroke-width:.264583;stroke-linejoin:round;marker-start:url(#a);marker-end:url(#a)"/><path d="M94.526 142.58h33.721M70.254 55.999h58.87" style="fill:none;stroke:#71c837;stroke-width:.264583;stroke-linejoin:round"/><path d="M128.247 142.58 128.243 56" style="fill:none;stroke:#338000;stroke-width:.264583;stroke-linejoin:round;marker-start:url(#c);marker-end:url(#c)"/><path d="M108.343 142.58s.835-3.045.596-4.56c-.275-1.737-.985-3.56-2.265-4.767-1.073-1.011-4.1-1.657-4.1-1.657" style="fill:none;stroke:#338000;stroke-width:.264583;stroke-linejoin:round;marker-end:url(#a)"/><path d="m34.263 117.652-9.246 2.156" style="fill:none;stroke:#338000;stroke-width:.264584;stroke-linejoin:round;marker-start:url(#a)"/><path d="m39.648 116.43 9.246-2.157" style="fill:none;stroke:#338000;stroke-width:.264584;stroke-linejoin:round;marker-start:url(#d)"/><text xml:space="preserve" style="font-size:16px;line-height:normal;font-family:&quot;Liberation Mono&quot;;-inkscape-font-specification:&quot;Liberation Mono&quot;;text-decoration-color:#000;white-space:pre;shape-inside:url(#e);display:inline;fill:#000;stroke-width:1;-inkscape-stroke:none;stop-color:#000" transform="translate(4.172 2.98)scale(.26458)"><tspan x="53.156" y="446.244">T1</tspan></text><text xml:space="preserve" style="font-size:16px;line-height:normal;font-family:&quot;Liberation Mono&quot;;-inkscape-font-specification:&quot;Liberation Mono&quot;;text-decoration-color:#000;white-space:pre;shape-inside:url(#f);display:inline;fill:#000;stroke-width:1;-inkscape-stroke:none;stop-color:#000" transform="translate(4.29 -5.483)scale(.26458)"><tspan x="246.412" y="632.742">W1</tspan></text><text xml:space="preserve" style="font-size:16px;line-height:normal;font-family:&quot;Liberation Mono&quot;;-inkscape-font-specification:&quot;Liberation Mono&quot;;text-decoration-color:#000;white-space:pre;shape-inside:url(#g);display:inline;fill:#000;stroke-width:1;-inkscape-stroke:none;stop-color:#000" transform="translate(94.874 -17.878)scale(.26458)"><tspan x="53.607" y="580.938">a1</tspan></text><text xml:space="preserve" style="font-size:16px;line-height:normal;font-family:&quot;Liberation Mono&quot;;-inkscape-font-specification:&quot;Liberation Mono&quot;;text-decoration-color:#000;white-space:pre;shape-inside:url(#h);display:inline;fill:#000;stroke-width:1;-inkscape-stroke:none;stop-color:#000" transform="translate(-3.337 3.099)scale(.26458)"><tspan x="500.932" y="374.168">H1</tspan></text><path d="m107.747 158.76 7.628-8.344" style="fill:#fff;stroke:#338000;stroke-width:.264583;stroke-linejoin:round;marker-end:url(#a)"/><text xml:space="preserve" style="font-size:16px;line-height:normal;font-family:&quot;Liberation Mono&quot;;-inkscape-font-specification:&quot;Liberation Mono&quot;;text-decoration-color:#000;white-space:pre;shape-inside:url(#i);display:inline;fill:#000;stroke-width:1;-inkscape-stroke:none;stop-color:#000" transform="translate(-15.733 -15.256)scale(.26458)"><tspan x="486.516" y="656.617">T2</tspan></text><path d="m33.275 140.198-5.101 1.158" style="fill:none;stroke:#71c837;stroke-width:.264583;stroke-linejoin:round"/><path d="m31.472 133.848 2.347 2.953-.544 3.397" style="fill:#fff;stroke:#71c837;stroke-width:.264583;stroke-linejoin:round"/><text xml:space="preserve" style="font-size:16px;line-height:normal;font-family:&quot;Liberation Mono&quot;;-inkscape-font-specification:&quot;Liberation Mono&quot;;text-decoration-color:#000;white-space:pre;shape-inside:url(#j);display:inline;fill:#000;stroke-width:1;-inkscape-stroke:none;stop-color:#000" transform="translate(11.68 -15.375)scale(.26458)"><tspan x="40.543" y="587.244">E1</tspan></text><path d="m56.95 281.297 10.451 43.151h48.545l10.45-43.151s.748-3.152.965-4.755c.2-1.482.372-2.982.31-4.476-.138-3.296-.56-6.621-1.505-9.782a30.2 30.2 0 0 0-3.405-7.459 37.6 37.6 0 0 0-6.532-7.766 33.5 33.5 0 0 0-7.514-5.118c-3.247-1.614-6.76-2.726-10.31-3.471a28.3 28.3 0 0 0-6.731-.604 47.8 47.8 0 0 0-11.55 1.808c-2.18.625-4.273 1.572-6.257 2.67-2.362 1.308-4.634 2.829-6.649 4.627-2.214 1.976-4.23 4.219-5.88 6.685-1.665 2.489-2.98 5.232-3.972 8.057-.764 2.18-1.177 4.478-1.49 6.767a24 24 0 0 0-.199 3.586c.026 1.818.19 3.637.458 5.435.19 1.28.816 3.796.816 3.796z" style="fill:none;stroke:#786721;stroke-width:.264583;stroke-linejoin:round"/><path d="m91.674 272.888 34.723 8.409" style="fill:none;stroke:#faa;stroke-width:.264583;stroke-linejoin:round"/><path d="M91.674 237.866v35.022" style="fill:#fff;stroke:#faa;stroke-width:.264583;stroke-linejoin:round"/><path d="M91.674 281.344v43.151M115.946 281.297v43.151" style="fill:#fff;stroke:#f0f;stroke-width:.264583;stroke-linejoin:round"/><path d="M91.674 281.344v-8.456" style="fill:#fff;stroke:teal;stroke-width:.264583;stroke-linejoin:round"/><path d="M91.612 276.773s1.602.35 2.275 0c.913-.475 1.77-2.528 1.77-2.528" style="fill:#fff;stroke:teal;stroke-width:.264583;stroke-linejoin:round;marker-end:url(#a)"/><path d="M91.674 281.344h34.711" style="fill:#fff;stroke:#ccc;stroke-width:.264583;stroke-linejoin:round"/><text xml:space="preserve" style="font-size:16px;line-height:normal;font-family:&quot;Liberation Mono&quot;;-inkscape-font-specification:&quot;Liberation Mono&quot;;text-decoration-color:#000;white-space:pre;shape-inside:url(#k);display:inline;fill:#000;stroke-width:1;-inkscape-stroke:none;stop-color:#000" transform="translate(60.85 -19.384)scale(.26458)"><tspan x="126.777" y="1128.793">a1</tspan></text><text xml:space="preserve" style="font-size:16px;line-height:normal;font-family:&quot;Liberation Mono&quot;;-inkscape-font-specification:&quot;Liberation Mono&quot;;text-decoration-color:#000;white-space:pre;shape-inside:url(#l);display:inline;fill:#000;stroke-width:1;-inkscape-stroke:none;stop-color:#000" transform="translate(-3.455 1.517)scale(.26458)"><tspan x="363.768" y="959.332">R1</tspan></text><text xml:space="preserve" style="font-size:16px;line-height:normal;font-family:&quot;Liberation Mono&quot;;-inkscape-font-specification:&quot;Liberation Mono&quot;;text-decoration-color:#000;white-space:pre;shape-inside:url(#m);display:inline;fill:#000;stroke-width:1;-inkscape-stroke:none;stop-color:#000" transform="translate(11.905 22.213)scale(.26458)"><tspan x="363.768" y="959.332">R1</tspan></text><text xml:space="preserve" style="font-size:16px;line-height:normal;font-family:&quot;Liberation Mono&quot;;-inkscape-font-specification:&quot;Liberation Mono&quot;;text-decoration-color:#000;white-space:pre;shape-inside:url(#n);display:inline;fill:#000;stroke-width:1;-inkscape-stroke:none;stop-color:#000" transform="translate(35.903 12.895)scale(.26458)"><tspan x="287.957" y="1030.047">A</tspan></text><text xml:space="preserve" style="font-size:16px;line-height:normal;font-family:&quot;Liberation Mono&quot;;-inkscape-font-specification:&quot;Liberation Mono&quot;;text-decoration-color:#000;white-space:pre;shape-inside:url(#o);display:inline;fill:#000;stroke-width:1;-inkscape-stroke:none;stop-color:#000" transform="translate(11.883 2.444)scale(.26458)"><tspan x="288.912" y="1064.449">B</tspan></text><text xml:space="preserve" style="font-size:16px;line-height:normal;font-family:&quot;Liberation Mono&quot;;-inkscape-font-specification:&quot;Liberation Mono&quot;;text-decoration-color:#000;white-space:pre;shape-inside:url(#p);display:inline;fill:#000;stroke-width:1;-inkscape-stroke:none;stop-color:#000" transform="translate(23.935 1.854)scale(.26458)"><tspan x="240.494" y="1025.268">C</tspan></text><text xml:space="preserve" style="font-size:16px;line-height:normal;font-family:&quot;Liberation Mono&quot;;-inkscape-font-specification:&quot;Liberation Mono&quot;;text-decoration-color:#000;white-space:pre;shape-inside:url(#q);display:inline;fill:#000;stroke-width:1;-inkscape-stroke:none;stop-color:#000" transform="translate(64.22 5.647)scale(.26458)"><tspan x="241.131" y="1050.752">D</tspan></text><text xml:space="preserve" style="font-size:16px;line-height:normal;font-family:&quot;Liberation Mono&quot;;-inkscape-font-specification:&quot;Liberation Mono&quot;;text-decoration-color:#000;white-space:pre;shape-inside:url(#r);display:inline;fill:#000;stroke-width:1;-inkscape-stroke:none;stop-color:#000" transform="translate(-4.935 4.733)scale(.26458)"><tspan x="367.908" y="1131.66">H2</tspan></text><text xml:space="preserve" style="font-size:16px;line-height:normal;font-family:&quot;Liberation Mono&quot;;-inkscape-font-specification:&quot;Liberation Mono&quot;;text-decoration-color:#000;white-space:pre;shape-inside:url(#s);display:inline;fill:#000;stroke-width:1;-inkscape-stroke:none;stop-color:#000" transform="translate(10.811 -21.226)scale(.26458)"><tspan x="333.826" y="1300.483">W12</tspan></text><text xml:space="preserve" style="font-size:16px;line-height:normal;font-family:&quot;Liberation Mono&quot;;-inkscape-font-specification:&quot;Liberation Mono&quot;;text-decoration-color:#000;white-space:pre;shape-inside:url(#t);display:inline;fill:#000;stroke-width:1;-inkscape-stroke:none;stop-color:#000" transform="scale(.26458)"><tspan x="107.666" y="1282.645">H1=R1*(1+cos(a1))+H2
</tspan><tspan x="107.666" y="1302.645">BD=R1*sin(a1)=W12+H2/tan(a1)
</tspan><tspan x="107.666" y="1322.645">
</tspan></text><text xml:space="preserve" style="font-size:16px;line-height:normal;font-family:&quot;Liberation Mono&quot;;-inkscape-font-specification:&quot;Liberation Mono&quot;;text-decoration-color:#000;white-space:pre;shape-inside:url(#u);display:inline;fill:#000;stroke-width:1;-inkscape-stroke:none;stop-color:#000" transform="translate(-9.898 -2.36)scale(.26458)"><tspan x="41.41" y="1356.545">R1=W12/sin(a1)+H2*cos(a1)/sin2(a1)
</tspan><tspan x="41.41" y="1376.545">H1=W12/sin(a1)*(1+cos(a1))
</tspan><tspan x="41.41" y="1396.545">   +H2*cos(a1)*(1+cos(a1))/sin2(a1))
</tspan><tspan x="41.41" y="1416.545">   +H2</tspan></text><text xml:space="preserve" style="font-size:16px;line-height:normal;font-family:&quot;Liberation Mono&quot;;-inkscape-font-specification:&quot;Liberation Mono&quot;;text-decoration-color:#000;white-space:pre;shape-inside:url(#w);display:inline;fill:#000;stroke-width:1;-inkscape-stroke:none;stop-color:#000" transform="scale(.26458)"><tspan x="36.949" y="1458.477">1+cos*(1+cos)/sin2
</tspan><tspan x="36.949" y="1478.477">=(sin2+cos+cos2)/sin2
</tspan><tspan x="36.949" y="1498.477">=(1+cos)/sin2</tspan></text><text xml:space="preserve" style="font-size:16px;line-height:normal;font-family:&quot;Liberation Mono&quot;;-inkscape-font-specification:&quot;Liberation Mono&quot;;text-decoration-color:#000;white-space:pre;shape-inside:url(#x);display:inline;fill:#000;stroke-width:1;-inkscape-stroke:none;stop-color:#000" transform="scale(.26458)"><tspan x="51.604" y="1560.408">H2=(H1-A)*B
</tspan><tspan x="51.604" y="1580.408">A=W12*(1+cos(a1))/sin(a1)
</tspan><tspan x="51.604" y="1600.408">B=sin2(a1)/(1+cos(a1))</tspan></text><path d="M42.645 476.515h33.206l9.608-23.261" style="fill:#fff;stroke:#f0f;stroke-width:.264583;stroke-linejoin:round"/><path d="m75.851 476.515 23.261 9.608M75.851 476.515v15.507" style="fill:#fff;stroke:#ccc;stroke-width:.264583;stroke-linejoin:round"/><path d="M53.264 492.022h45.174" style="fill:#fff;stroke:purple;stroke-width:.264583;stroke-linejoin:round"/><circle cx="75.851" cy="476.515" r="15.507" style="fill:none;stroke:#ffd5d5;stroke-width:.264583;stroke-linejoin:round"/><path d="m85.38 494.065 14.499-35.1" style="fill:#fff;stroke:purple;stroke-width:.264582;stroke-linejoin:round"/><path d="M75.851 476.515h31.858" style="fill:none;stroke:#ccc;stroke-width:.264583;stroke-linejoin:round"/><path d="M82.93 476.43s.65-2.608.085-3.708c-.73-1.42-3.961-2.697-3.961-2.697" style="fill:none;stroke:#d4aa00;stroke-width:.264583;stroke-linejoin:round;stroke-dasharray:none;marker-end:url(#a)"/><text xml:space="preserve" style="font-size:16px;line-height:normal;font-family:&quot;Liberation Mono&quot;;-inkscape-font-specification:&quot;Liberation Mono&quot;;text-decoration-color:#000;white-space:pre;shape-inside:url(#y);display:inline;fill:#000;stroke-width:1;-inkscape-stroke:none;stop-color:#000" transform="translate(-16.687 12.726)scale(.26458)"><tspan x="378.102" y="1735.922">a1</tspan></text><path d="M75.945 483.556s2.609.65 3.708.084c1.42-.73 2.697-3.96 2.697-3.96" style="fill:none;stroke:#d4aa00;stroke-width:.264583;stroke-linejoin:round;stroke-dasharray:none;marker-end:url(#z)"/><path d="m75.851 476.515 14.075 21.07" style="fill:none;stroke:#f60;stroke-width:.264583;stroke-linejoin:round;stroke-dasharray:none"/><text xml:space="preserve" style="font-size:16px;line-height:normal;font-family:&quot;Liberation Mono&quot;;-inkscape-font-specification:&quot;Liberation Mono&quot;;text-decoration-color:#000;white-space:pre;shape-inside:url(#A);display:inline;fill:#000;stroke-width:1;-inkscape-stroke:none;stop-color:#000" transform="scale(.26458)"><tspan x="203.227" y="1926.088">dx=T1*tan(a1/2)</tspan></text><path d="m27.444 99.625 2.603 9.89" style="fill:none;stroke:#338000;stroke-width:.264583;stroke-linejoin:round;stroke-dasharray:none;marker-start:url(#a);marker-end:url(#a)"/><text xml:space="preserve" style="font-size:16px;line-height:normal;font-family:&quot;Liberation Mono&quot;;-inkscape-font-specification:&quot;Liberation Mono&quot;;text-decoration-color:#000;white-space:pre;shape-inside:url(#B);display:inline;fill:#000;stroke-width:1;-inkscape-stroke:none;stop-color:#000" transform="translate(6.017 54.12)scale(.26458)"><tspan x="31.854" y="197.713">T3Max</tspan></text></svg>