<svg xmlns="http://www.w3.org/2000/svg" width="600" height="3000" viewBox="0 0 158.75 793.75"><defs><path id="O" d="M136.652 810.036h48.736v24.527h-48.736z"/><path id="N" d="M70.396 807.169h29.305v19.749H70.396z"/><path id="M" d="M480.67 897.634h29.305v20.386H480.67z"/><path id="J" d="M215.649 824.052h34.083v23.253h-34.083z"/><path id="I" d="M387.621 949.492h49.793v28.945h-49.793z"/><path id="H" d="M377.5 1006.864h63.517v30.564H377.5z"/><path id="G" d="M273.89 1023.034h66.671v34.702H273.89z"/><path id="F" d="M182.894 1043.499h56.21v34.944h-56.21z"/><path id="E" d="M111.268 1056.37h50.904v31.984h-50.904z"/><path id="a" d="M17.838 26.757h231.894V73.9H17.838z"/><path id="f" d="M373.005 795.384h22.935v18.794h-22.935z"/><path id="g" d="M416.963 792.835h35.039v21.979h-35.039z"/><path id="h" d="M442.765 760.982h28.35v18.475h-28.35z"/><path id="i" d="M163.409 799.525h35.357v20.386h-35.357z"/><path id="l" d="M163.409 799.525h35.357v20.386h-35.357z"/><path id="m" d="M194.625 789.968h35.357v21.66h-35.357z"/><path id="o" d="M194.625 789.968h35.357v21.66h-35.357z"/><path id="t" d="M416.963 792.835h35.039v21.979h-35.039z"/><path id="u" d="M416.963 792.835h35.039v21.979h-35.039z"/><path id="v" d="M416.963 792.835h35.039v21.979h-35.039z"/><path id="w" d="M416.963 792.835h35.039v21.979h-35.039z"/><path id="A" d="M373.005 795.384h22.935v18.794h-22.935z"/><path id="B" d="M416.963 792.835h35.039v21.979h-35.039z"/><path id="C" d="M442.765 760.982h28.35v18.475h-28.35z"/><path id="L" d="M215.649 824.052h34.083v23.253h-34.083z"/><path id="P" d="M70.396 807.169h29.305v19.749H70.396z"/><path id="Q" d="M136.652 810.036h48.736v24.527h-48.736z"/><marker id="D" markerHeight="1" markerWidth="1" orient="auto" preserveAspectRatio="xMidYMid" refX="0" refY="0" style="overflow:visible" viewBox="0 0 1 1"><path d="M0 4v-8" style="fill:none;stroke:context-stroke;stroke-width:1"/></marker><marker id="b" markerHeight="1" markerWidth="1" orient="auto-start-reverse" preserveAspectRatio="xMidYMid" refX="0" refY="0" style="overflow:visible" viewBox="0 0 1 1"><path d="M3-3 0 0l3 3" style="fill:none;stroke:context-stroke;stroke-width:1;stroke-linecap:butt" transform="rotate(180 .125 0)"/></marker><marker id="c" markerHeight="1" markerWidth="1" orient="auto-start-reverse" preserveAspectRatio="xMidYMid" refX="0" refY="0" style="overflow:visible" viewBox="0 0 1 1"><path d="M3-3 0 0l3 3" style="fill:none;stroke:context-stroke;stroke-width:1;stroke-linecap:butt" transform="rotate(180 .125 0)"/></marker><marker id="d" markerHeight="1" markerWidth="1" orient="auto-start-reverse" preserveAspectRatio="xMidYMid" refX="0" refY="0" style="overflow:visible" viewBox="0 0 1 1"><path d="M3-3 0 0l3 3" style="fill:none;stroke:context-stroke;stroke-width:1;stroke-linecap:butt" transform="rotate(180 .125 0)"/></marker><marker id="e" markerHeight="1" markerWidth="1" orient="auto-start-reverse" preserveAspectRatio="xMidYMid" refX="0" refY="0" style="overflow:visible" viewBox="0 0 1 1"><path d="M3-3 0 0l3 3" style="fill:none;stroke:context-stroke;stroke-width:1;stroke-linecap:butt" transform="rotate(180 .125 0)"/></marker><marker id="j" markerHeight="1" markerWidth="1" orient="auto-start-reverse" preserveAspectRatio="xMidYMid" refX="0" refY="0" style="overflow:visible" viewBox="0 0 1 1"><path d="M3-3 0 0l3 3" style="fill:none;stroke:context-stroke;stroke-width:1;stroke-linecap:butt" transform="rotate(180 .125 0)"/></marker><marker id="k" markerHeight="1" markerWidth="1" orient="auto-start-reverse" preserveAspectRatio="xMidYMid" refX="0" refY="0" style="overflow:visible" viewBox="0 0 1 1"><path d="M3-3 0 0l3 3" style="fill:none;stroke:context-stroke;stroke-width:1;stroke-linecap:butt" transform="rotate(180 .125 0)"/></marker><marker id="n" markerHeight="1" markerWidth="1" orient="auto-start-reverse" preserveAspectRatio="xMidYMid" refX="0" refY="0" style="overflow:visible" viewBox="0 0 1 1"><path d="M3-3 0 0l3 3" style="fill:none;stroke:context-stroke;stroke-width:1;stroke-linecap:butt" transform="rotate(180 .125 0)"/></marker><marker id="p" markerHeight="1" markerWidth="1" orient="auto-start-reverse" preserveAspectRatio="xMidYMid" refX="0" refY="0" style="overflow:visible" viewBox="0 0 1 1"><path d="M3-3 0 0l3 3" style="fill:none;stroke:context-stroke;stroke-width:1;stroke-linecap:butt" transform="rotate(180 .125 0)"/></marker><marker id="q" markerHeight="1" markerWidth="1" orient="auto-start-reverse" preserveAspectRatio="xMidYMid" refX="0" refY="0" style="overflow:visible" viewBox="0 0 1 1"><path d="M3-3 0 0l3 3" style="fill:none;stroke:context-stroke;stroke-width:1;stroke-linecap:butt" transform="rotate(180 .125 0)"/></marker><marker id="r" markerHeight="1" markerWidth="1" orient="auto-start-reverse" preserveAspectRatio="xMidYMid" refX="0" refY="0" style="overflow:visible" viewBox="0 0 1 1"><path d="M3-3 0 0l3 3" style="fill:none;stroke:context-stroke;stroke-width:1;stroke-linecap:butt" transform="rotate(180 .125 0)"/></marker><marker id="s" markerHeight="1" markerWidth="1" orient="auto-start-reverse" preserveAspectRatio="xMidYMid" refX="0" refY="0" style="overflow:visible" viewBox="0 0 1 1"><path d="M3-3 0 0l3 3" style="fill:none;stroke:context-stroke;stroke-width:1;stroke-linecap:butt" transform="rotate(180 .125 0)"/></marker><marker id="x" markerHeight="1" markerWidth="1" orient="auto-start-reverse" preserveAspectRatio="xMidYMid" refX="0" refY="0" style="overflow:visible" viewBox="0 0 1 1"><path d="M3-3 0 0l3 3" style="fill:none;stroke:context-stroke;stroke-width:1;stroke-linecap:butt" transform="rotate(180 .125 0)"/></marker><marker id="y" markerHeight="1" markerWidth="1" orient="auto-start-reverse" preserveAspectRatio="xMidYMid" refX="0" refY="0" style="overflow:visible" viewBox="0 0 1 1"><path d="M3-3 0 0l3 3" style="fill:none;stroke:context-stroke;stroke-width:1;stroke-linecap:butt" transform="rotate(180 .125 0)"/></marker><marker id="z" markerHeight="1" markerWidth="1" orient="auto-start-reverse" preserveAspectRatio="xMidYMid" refX="0" refY="0" style="overflow:visible" viewBox="0 0 1 1"><path d="M3-3 0 0l3 3" style="fill:none;stroke:context-stroke;stroke-width:1;stroke-linecap:butt" transform="rotate(180 .125 0)"/></marker><marker id="K" markerHeight="1" markerWidth="1" orient="auto-start-reverse" preserveAspectRatio="xMidYMid" refX="0" refY="0" style="overflow:visible" viewBox="0 0 1 1"><path d="M3-3 0 0l3 3" style="fill:none;stroke:context-stroke;stroke-width:1;stroke-linecap:butt" transform="rotate(180 .125 0)"/></marker></defs><path d="M9.297 211.918h127.055v96.781H9.297z" style="fill:#fff;stroke:#fff;stroke-width:.264583;stroke-linejoin:round"/><path d="m46.945 264.277-9.45-21.44 15.747 17.35" style="fill:none;stroke:#ccc;stroke-width:.264583;stroke-linejoin:round"/><circle cx="95.287" cy="268.249" r="34.097" style="fill:none;stroke:#ccc;stroke-width:.264583;stroke-linejoin:round"/><path d="M95.287 268.249 92.83 234.24M73.209 242.187l22.078 26.062" style="fill:none;stroke:#ccc;stroke-width:.264583;stroke-linejoin:round"/><circle cx="37.496" cy="242.838" r="23.43" style="fill:none;stroke:#ccc;stroke-width:.264583;stroke-linejoin:round"/><text xml:space="preserve" style="font-size:16px;line-height:normal;font-family:&quot;Liberation Mono&quot;;-inkscape-font-specification:&quot;Liberation Mono&quot;;text-decoration-color:#000;white-space:pre;shape-inside:url(#a);display:inline;fill:#000;stroke-width:1;-inkscape-stroke:none;stop-color:#000" transform="scale(.26458)"><tspan x="17.838" y="40.994">src_trackXZ.svg</tspan></text><path d="M34.196 133.838h79.261v29.44H34.196zM26.568 99.392h80.452v19.905H26.568zM21.73 29.013h106.956v36.243H21.73z" style="fill:#fff;stroke:#fff;stroke-width:.264583;stroke-linejoin:round"/><path d="M42.364 38.313h5.879v19.55h-5.879zM57.325 38.313h5.879v19.55h-5.879zM72.287 38.313h5.879v19.55h-5.879zM87.248 38.313h5.879v19.55h-5.879zM102.209 38.313h5.879v19.55h-5.879zM27.403 38.313h5.879v19.55h-5.879zM44.344 107.368h5.879v2.862h-5.879zM59.306 107.368h5.879v2.862h-5.879zM74.267 107.368h5.879v2.862h-5.879zM29.383 107.368h5.879v2.862h-5.879z" style="fill:#c8ab37;stroke:#786721;stroke-width:.264583;stroke-linejoin:round"/><path d="M27.404 48.022H110.4" style="fill:red;stroke:red;stroke-width:.264583;stroke-linejoin:round"/><path d="M27.404 41.347h82.875v1.786H27.404zM27.404 52.91h82.875v1.786H27.404z" style="fill:#b3b3b3;stroke:#666;stroke-width:.264583;stroke-linejoin:round"/><path d="M110.279 43.134v9.776" style="fill:#c8ab37;stroke:#00f;stroke-width:.264583;stroke-linejoin:round;marker-start:url(#b);marker-end:url(#b)"/><path d="M112.885 38.547v2.567" style="fill:#c8ab37;stroke:#00f;stroke-width:.264583;stroke-linejoin:round;marker-start:url(#c);marker-end:url(#c)"/><path d="M110.279 43.134h7.818M110.279 41.347h7.818M108.089 38.313h5.683" style="fill:#c8ab37;stroke:#999;stroke-width:.264583;stroke-linejoin:round"/><path d="M118.097 38.78v2.567" style="fill:#c8ab37;stroke:#00f;stroke-width:.264583;stroke-linejoin:round;marker-end:url(#d)"/><path d="M118.097 45.7v-2.566" style="fill:#c8ab37;stroke:#00f;stroke-width:.264583;stroke-linejoin:round;marker-end:url(#e)"/><text xml:space="preserve" style="font-size:16px;line-height:normal;font-family:&quot;Liberation Mono&quot;;-inkscape-font-specification:&quot;Liberation Mono&quot;;text-decoration-color:#000;white-space:pre;shape-inside:url(#f);display:inline;fill:#000;stroke-width:1;-inkscape-stroke:none;stop-color:#000" transform="translate(12.357 -165.279)scale(.26458)"><tspan x="373.006" y="809.619">W1</tspan></text><text xml:space="preserve" style="font-size:16px;line-height:normal;font-family:&quot;Liberation Mono&quot;;-inkscape-font-specification:&quot;Liberation Mono&quot;;text-decoration-color:#000;white-space:pre;shape-inside:url(#g);display:inline;fill:#000;stroke-width:1;-inkscape-stroke:none;stop-color:#000" transform="translate(9.01 -169.999)scale(.26458)"><tspan x="416.963" y="807.072">T1</tspan></text><text xml:space="preserve" style="font-size:16px;line-height:normal;font-family:&quot;Liberation Mono&quot;;-inkscape-font-specification:&quot;Liberation Mono&quot;;text-decoration-color:#000;white-space:pre;shape-inside:url(#h);display:inline;fill:#000;stroke-width:1;-inkscape-stroke:none;stop-color:#000" transform="translate(-5.74 -167.892)scale(.26458)"><tspan x="442.764" y="775.219">S1</tspan></text><path d="M33.282 48.022h9.082" style="fill:#c8ab37;stroke:#00f;stroke-width:.264583;stroke-linejoin:round;marker-start:url(#b);marker-end:url(#b)"/><path d="M27.403 58.921h5.879" style="fill:#c8ab37;stroke:#00f;stroke-width:.264583;stroke-linejoin:round;marker-start:url(#b);marker-end:url(#b)"/><text xml:space="preserve" style="font-size:16px;line-height:normal;font-family:&quot;Liberation Mono&quot;;-inkscape-font-specification:&quot;Liberation Mono&quot;;text-decoration-color:#000;white-space:pre;shape-inside:url(#i);display:inline;fill:#000;stroke-width:1;-inkscape-stroke:none;stop-color:#000" transform="translate(-15.498 -152.047)scale(.26458)"><tspan x="163.408" y="813.762">B1</tspan></text><path d="M29.383 111.818h5.88" style="fill:#c8ab37;stroke:#00f;stroke-width:.264583;stroke-linejoin:round;marker-start:url(#j);marker-end:url(#j)"/><path d="M48.567 140.735h6.22" style="fill:#c8ab37;stroke:#00f;stroke-width:.264583;stroke-linejoin:round;marker-start:url(#k);marker-end:url(#k)"/><text xml:space="preserve" style="font-size:16px;line-height:normal;font-family:&quot;Liberation Mono&quot;;-inkscape-font-specification:&quot;Liberation Mono&quot;;text-decoration-color:#000;white-space:pre;shape-inside:url(#l);display:inline;fill:#000;stroke-width:1;-inkscape-stroke:none;stop-color:#000" transform="translate(-13.518 -99.15)scale(.26458)"><tspan x="163.408" y="813.762">B1</tspan></text><text xml:space="preserve" style="font-size:16px;line-height:normal;font-family:&quot;Liberation Mono&quot;;-inkscape-font-specification:&quot;Liberation Mono&quot;;text-decoration-color:#000;white-space:pre;shape-inside:url(#m);display:inline;fill:#000;stroke-width:1;-inkscape-stroke:none;stop-color:#000" transform="translate(-16.106 -161.038)scale(.26458)"><tspan x="194.625" y="804.205">B2</tspan></text><path d="M35.637 109.172h8.343" style="fill:#c8ab37;stroke:#00f;stroke-width:.264583;stroke-linejoin:round;marker-start:url(#n);marker-end:url(#n)"/><text xml:space="preserve" style="font-size:16px;line-height:normal;font-family:&quot;Liberation Mono&quot;;-inkscape-font-specification:&quot;Liberation Mono&quot;;text-decoration-color:#000;white-space:pre;shape-inside:url(#o);display:inline;fill:#000;stroke-width:1;-inkscape-stroke:none;stop-color:#000" transform="translate(-14.125 -99.888)scale(.26458)"><tspan x="194.625" y="804.205">B2</tspan></text><path d="M29.383 103.728h55.62v3.641h-55.62z" style="fill:#b3b3b3;stroke:#666;stroke-width:.264583;stroke-linejoin:round"/><path d="M87.61 103.908v3.167" style="fill:#c8ab37;stroke:#00f;stroke-width:.264583;stroke-linejoin:round;marker-start:url(#p);marker-end:url(#p)"/><path d="M94.294 142.544v7.657" style="fill:#c8ab37;stroke:#00f;stroke-width:.264582;stroke-linejoin:round;marker-start:url(#q);marker-end:url(#q)"/><path d="M80.279 110.213h18.363" style="fill:#c8ab37;stroke:#ccc;stroke-width:.264584;stroke-linejoin:round"/><path d="M85.135 107.368h13.507" style="fill:#c8ab37;stroke:#ccc;stroke-width:.264583;stroke-linejoin:round"/><path d="M98.642 104.802v2.566" style="fill:#c8ab37;stroke:#00f;stroke-width:.264583;stroke-linejoin:round;marker-end:url(#r)"/><path d="M98.642 112.78v-2.567" style="fill:#c8ab37;stroke:#00f;stroke-width:.264583;stroke-linejoin:round;marker-end:url(#s)"/><text xml:space="preserve" style="font-size:16px;line-height:normal;font-family:&quot;Liberation Mono&quot;;-inkscape-font-specification:&quot;Liberation Mono&quot;;text-decoration-color:#000;white-space:pre;shape-inside:url(#t);display:inline;fill:#000;stroke-width:1;-inkscape-stroke:none;stop-color:#000" transform="translate(-9.895 -103.344)scale(.26458)"><tspan x="416.963" y="807.072">H1</tspan></text><text xml:space="preserve" style="font-size:16px;line-height:normal;font-family:&quot;Liberation Mono&quot;;-inkscape-font-specification:&quot;Liberation Mono&quot;;text-decoration-color:#000;white-space:pre;shape-inside:url(#u);display:inline;fill:#000;stroke-width:1;-inkscape-stroke:none;stop-color:#000" transform="translate(-4.145 -57.373)scale(.26458)"><tspan x="416.963" y="807.072">H1</tspan></text><text xml:space="preserve" style="font-size:16px;line-height:normal;font-family:&quot;Liberation Mono&quot;;-inkscape-font-specification:&quot;Liberation Mono&quot;;text-decoration-color:#000;white-space:pre;shape-inside:url(#v);display:inline;fill:#000;stroke-width:1;-inkscape-stroke:none;stop-color:#000" transform="translate(-21.116 -106.419)scale(.26458)"><tspan x="416.963" y="807.072">H2</tspan></text><text xml:space="preserve" style="font-size:16px;line-height:normal;font-family:&quot;Liberation Mono&quot;;-inkscape-font-specification:&quot;Liberation Mono&quot;;text-decoration-color:#000;white-space:pre;shape-inside:url(#w);display:inline;fill:#000;stroke-width:1;-inkscape-stroke:none;stop-color:#000" transform="translate(-14.237 -65.75)scale(.26458)"><tspan x="416.963" y="807.072">H2</tspan></text><path d="M85.003 103.728h3.494" style="fill:#c8ab37;stroke:#ccc;stroke-width:.264582;stroke-linejoin:round"/><path d="M38.2 150.598h64.699v8.345H38.2z" style="fill:#c8ab37;stroke:#786721;stroke-width:.264583;stroke-linejoin:round"/><path d="M48.432 142.19h6.492v8.408h-6.492zM86.215 142.199h6.492v8.408h-6.492z" style="fill:#b3b3b3;stroke:#666;stroke-width:.264583;stroke-linejoin:round"/><path d="M55.306 146.394h30.506" style="fill:#c8ab37;stroke:#00f;stroke-width:.264583;stroke-linejoin:round;marker-start:url(#x);marker-end:url(#x)"/><path d="M38.337 149.01h9.573" style="fill:#c8ab37;stroke:#00f;stroke-width:.264583;stroke-linejoin:round;marker-start:url(#y);marker-end:url(#y)"/><path d="M104.772 150.733v8.075" style="fill:#c8ab37;stroke:#00f;stroke-width:.264583;stroke-linejoin:round;marker-start:url(#z);marker-end:url(#z)"/><text xml:space="preserve" style="font-size:16px;line-height:normal;font-family:&quot;Liberation Mono&quot;;-inkscape-font-specification:&quot;Liberation Mono&quot;;text-decoration-color:#000;white-space:pre;shape-inside:url(#A);display:inline;fill:#000;stroke-width:1;-inkscape-stroke:none;stop-color:#000" transform="translate(-29.59 -68.764)scale(.26458)"><tspan x="373.006" y="809.619">W1</tspan></text><text xml:space="preserve" style="font-size:16px;line-height:normal;font-family:&quot;Liberation Mono&quot;;-inkscape-font-specification:&quot;Liberation Mono&quot;;text-decoration-color:#000;white-space:pre;shape-inside:url(#B);display:inline;fill:#000;stroke-width:1;-inkscape-stroke:none;stop-color:#000" transform="translate(-61.067 -74.318)scale(.26458)"><tspan x="416.963" y="807.072">T1</tspan></text><text xml:space="preserve" style="font-size:16px;line-height:normal;font-family:&quot;Liberation Mono&quot;;-inkscape-font-specification:&quot;Liberation Mono&quot;;text-decoration-color:#000;white-space:pre;shape-inside:url(#C);display:inline;fill:#000;stroke-width:1;-inkscape-stroke:none;stop-color:#000" transform="translate(-76.052 -57.083)scale(.26458)"><tspan x="442.764" y="775.219">S1</tspan></text><path d="m22.323 275.07 24.61-10.788" style="fill:#fff;stroke:red;stroke-width:.264583;stroke-linejoin:round;marker-start:url(#D);marker-end:url(#D)"/><path d="m-50.15 224.967 20.568 46.74" style="fill:#fff;stroke:green;stroke-width:.264583;stroke-linejoin:round"/><path d="m53.317 260.252 19.892-18.065" style="fill:#fff;stroke:red;stroke-width:.264583;stroke-linejoin:round;marker-start:url(#D);marker-end:url(#D)"/><path d="m170.422 233.928 42.171 46.411" style="fill:#fff;stroke:green;stroke-width:.264582;stroke-linejoin:round"/><path d="m-23.798 266.31-31.37-34.528" style="fill:#fff;stroke:green;stroke-width:.264583;stroke-linejoin:round"/><path d="M53.25 260.179s-.868.763-1.324 1.117q-.814.634-1.68 1.198a24 24 0 0 1-1.697 1.002c-.528.284-1.617.786-1.617.786" style="fill:none;stroke:red;stroke-width:.264583;stroke-linejoin:round"/><path d="m92.83 234.24 31.663-2.264" style="fill:none;stroke:red;stroke-width:.264583;stroke-linejoin:round;marker-start:url(#D);marker-end:url(#D)"/><path d="m192.49 259.992-2.454-34.228" style="fill:none;stroke:green;stroke-width:.264582;stroke-linejoin:round"/><path d="M73.209 242.187s2.039-1.578 3.12-2.279c1.328-.862 2.697-1.673 4.124-2.36 1.47-.709 2.982-1.351 4.549-1.808 2.553-.745 7.837-1.5 7.837-1.5" style="fill:none;stroke:red;stroke-width:.264583;stroke-linejoin:round"/><text xml:space="preserve" style="font-size:16px;line-height:normal;font-family:&quot;Liberation Mono&quot;;-inkscape-font-specification:&quot;Liberation Mono&quot;;text-decoration-color:#000;white-space:pre;shape-inside:url(#E);display:inline;fill:#000;stroke-width:1;-inkscape-stroke:none;stop-color:#000" transform="translate(11.165 -12.939)scale(.26458)"><tspan x="111.268" y="1070.606">L1</tspan></text><text xml:space="preserve" style="font-size:16px;line-height:normal;font-family:&quot;Liberation Mono&quot;;-inkscape-font-specification:&quot;Liberation Mono&quot;;text-decoration-color:#000;white-space:pre;shape-inside:url(#F);display:inline;fill:#000;stroke-width:1;-inkscape-stroke:none;stop-color:#000" transform="translate(1.073 -13.588)scale(.26458)"><tspan x="182.895" y="1057.736">L2</tspan></text><text xml:space="preserve" style="font-size:16px;line-height:normal;font-family:&quot;Liberation Mono&quot;;-inkscape-font-specification:&quot;Liberation Mono&quot;;text-decoration-color:#000;white-space:pre;shape-inside:url(#G);display:inline;fill:#000;stroke-width:1;-inkscape-stroke:none;stop-color:#000" transform="translate(-11.204 -25.864)scale(.26458)"><tspan x="273.891" y="1037.272">L3</tspan></text><text xml:space="preserve" style="font-size:16px;line-height:normal;font-family:&quot;Liberation Mono&quot;;-inkscape-font-specification:&quot;Liberation Mono&quot;;text-decoration-color:#000;white-space:pre;shape-inside:url(#H);display:inline;fill:#000;stroke-width:1;-inkscape-stroke:none;stop-color:#000" transform="translate(-21.93 -34.326)scale(.26458)"><tspan x="377.5" y="1021.1">L4</tspan></text><text xml:space="preserve" style="font-size:16px;line-height:normal;font-family:&quot;Liberation Mono&quot;;-inkscape-font-specification:&quot;Liberation Mono&quot;;text-decoration-color:#000;white-space:pre;shape-inside:url(#I);display:inline;fill:#000;stroke-width:1;-inkscape-stroke:none;stop-color:#000" transform="translate(4.768 -23.242)scale(.26458)"><tspan x="387.621" y="963.729">L5</tspan></text><path d="M25.03 274.015h10.846M55.44 258.296h10.846M100.646 233.713h22.526" style="fill:none;stroke:green;stroke-width:.264583;stroke-linejoin:round"/><path d="M32.953 273.823s.718-.894.759-1.433c.044-.593-.59-1.685-.59-1.685" style="fill:none;stroke:#00f;stroke-width:.264583;stroke-linejoin:round;marker-end:url(#b)"/><text xml:space="preserve" style="font-size:16px;line-height:normal;font-family:&quot;Liberation Mono&quot;;-inkscape-font-specification:&quot;Liberation Mono&quot;;text-decoration-color:#000;white-space:pre;shape-inside:url(#J);fill:#000;stroke-width:1;-inkscape-stroke:none;stop-color:#000" transform="translate(-23.177 51.41)scale(.26458)"><tspan x="215.648" y="838.287">a1</tspan></text><path d="M59.67 258.07s1.236-1.023 1.306-1.639c.077-.679-1.016-1.927-1.016-1.927" style="fill:none;stroke:#00f;stroke-width:.264583;stroke-linejoin:round;marker-end:url(#K)"/><text xml:space="preserve" style="font-size:16px;line-height:normal;font-family:&quot;Liberation Mono&quot;;-inkscape-font-specification:&quot;Liberation Mono&quot;;text-decoration-color:#000;white-space:pre;shape-inside:url(#L);display:inline;fill:#000;stroke-width:1;-inkscape-stroke:none;stop-color:#000" transform="translate(4.58 35.06)scale(.26458)"><tspan x="215.648" y="838.287">a3</tspan></text><path d="M120.825 233.679s.47-.288.5-.528c.037-.304-.448-.8-.448-.8" style="fill:none;stroke:#00f;stroke-width:.264583;stroke-linejoin:round"/><text xml:space="preserve" style="font-size:16px;line-height:normal;font-family:&quot;Liberation Mono&quot;;-inkscape-font-specification:&quot;Liberation Mono&quot;;text-decoration-color:#000;white-space:pre;shape-inside:url(#M);fill:#000;stroke-width:1;-inkscape-stroke:none;stop-color:#000" transform="translate(-6.574 -3.371)scale(.26458)"><tspan x="480.67" y="911.869">a5</tspan></text><path d="M89.083 260.591s1.3-1.544 2.191-1.938c.957-.423 3.119-.337 3.119-.337" style="fill:none;stroke:purple;stroke-width:.264583;stroke-linejoin:round;marker-end:url(#b)"/><path d="M42.73 254.355s1.305-.176 1.854-.506c.528-.318 1.264-1.348 1.264-1.348" style="fill:none;stroke:purple;stroke-width:.264583;stroke-linejoin:round;marker-end:url(#b)"/><text xml:space="preserve" style="font-size:16px;line-height:normal;font-family:&quot;Liberation Mono&quot;;-inkscape-font-specification:&quot;Liberation Mono&quot;;text-decoration-color:#000;white-space:pre;shape-inside:url(#N);fill:#999;stroke-width:1;-inkscape-stroke:none;stop-color:#000" transform="translate(16.519 34.976)scale(.26458)"><tspan x="70.396" y="821.406">r2</tspan></text><text xml:space="preserve" style="font-size:16px;line-height:normal;font-family:&quot;Liberation Mono&quot;;-inkscape-font-specification:&quot;Liberation Mono&quot;;text-decoration-color:#000;white-space:pre;shape-inside:url(#O);fill:#999;stroke-width:1;-inkscape-stroke:none;stop-color:#000" transform="translate(8.175 39.274)scale(.26458)"><tspan x="136.652" y="824.274">a2</tspan></text><text xml:space="preserve" style="font-size:16px;line-height:normal;font-family:&quot;Liberation Mono&quot;;-inkscape-font-specification:&quot;Liberation Mono&quot;;text-decoration-color:#000;white-space:pre;shape-inside:url(#P);display:inline;fill:#999;stroke-width:1;-inkscape-stroke:none;stop-color:#000" transform="translate(58.73 39.325)scale(.26458)"><tspan x="70.396" y="821.406">r4</tspan></text><text xml:space="preserve" style="font-size:16px;line-height:normal;font-family:&quot;Liberation Mono&quot;;-inkscape-font-specification:&quot;Liberation Mono&quot;;text-decoration-color:#000;white-space:pre;shape-inside:url(#Q);display:inline;fill:#999;stroke-width:1;-inkscape-stroke:none;stop-color:#000" transform="translate(51.735 39.915)scale(.26458)"><tspan x="136.652" y="824.274">a4</tspan></text></svg>