<svg xmlns="http://www.w3.org/2000/svg" width="600" height="3000" viewBox="0 0 158.75 793.75"><defs><path id="a" d="M12.104 17.838h208.959v33.765H12.104z"/></defs><circle cx="70.542" cy="95.788" r="38.263" style="fill:#a00;stroke:#a00;stroke-width:.264583;stroke-linejoin:round"/><circle cx="70.542" cy="95.788" r="35.903" style="fill:#fff;stroke:#a00;stroke-width:.264583;stroke-linejoin:round"/><circle cx="70.542" cy="95.788" r="13.316" style="fill:#a00;stroke:#a00;stroke-width:.264583;stroke-linejoin:round"/><text xml:space="preserve" style="font-size:16px;line-height:normal;font-family:&quot;Liberation Mono&quot;;-inkscape-font-specification:&quot;Liberation Mono&quot;;text-decoration-color:#000;white-space:pre;shape-inside:url(#a);display:inline;fill:#000;stroke-width:1;-inkscape-stroke:none;stop-color:#000" transform="scale(0.26458333)"><tspan x="12.104" y="32.074">src_springTorqueA.svg</tspan></text><circle cx="70.542" cy="95.788" r="10.641" style="fill:#fff;stroke:#a00;stroke-width:.264583;stroke-linejoin:round"/><path d="M70.542 59.885s-.198 2.085-.085 3.119c.063.575-.007 1.295.422 1.685.966.88 2.571.523 3.877.59 1.77.092 3.58-.635 5.31-.253 1.3.288 2.867.704 3.539 1.854.453.777.533 2.044-.084 2.697-1.105 1.169-3.198.482-4.804.422-1.906-.072-3.742-.828-5.647-.927-3.344-.174-6.77-.176-10.03.59-1.813.426-4.456.458-5.14 2.191-.485 1.228.42 3.032 1.601 3.624 3.04 1.525 6.545-2.326 9.945-2.276 2.787.042 6.322-.047 8.09 2.107.608.74.83 2.174.17 2.866-1.61 1.687-5.247-1.627-6.996-.084-1.123.991-.505 4.466-.505 4.466M70.542 131.691s.197-2.084.084-3.118c-.063-.576.007-1.296-.421-1.686-.967-.88-2.572-.522-3.877-.59-1.77-.091-3.58.635-5.31.253-1.3-.287-2.868-.704-3.54-1.854-.453-.777-.533-2.043.085-2.697 1.104-1.168 3.197-.482 4.804-.421 1.906.071 3.741.828 5.646.927 3.345.174 6.77.176 10.03-.59 1.813-.426 4.457-.459 5.14-2.191.485-1.229-.42-3.032-1.6-3.624-3.04-1.525-6.545 2.326-9.946 2.275-2.786-.042-6.322.047-8.09-2.107-.608-.74-.83-2.173-.169-2.865 1.61-1.687 5.247 1.627 6.995.084 1.124-.992.506-4.467.506-4.467M34.639 95.788s2.084.198 3.118.085c.576-.063 1.296.007 1.686-.422.88-.967.522-2.571.59-3.877.091-1.77-.636-3.58-.253-5.31.287-1.3.704-2.867 1.854-3.539.777-.454 2.043-.534 2.697.084 1.168 1.105.482 3.198.421 4.804-.071 1.906-.828 3.742-.927 5.647-.174 3.344-.176 6.77.59 10.03.426 1.813.459 4.456 2.191 5.14 1.229.485 3.032-.42 3.624-1.601 1.525-3.04-2.326-6.545-2.275-9.945.041-2.787-.047-6.323 2.107-8.09.74-.608 2.173-.83 2.865-.17 1.687 1.61-1.627 5.247-.084 6.996.991 1.123 4.467.505 4.467.505M106.445 95.788s-2.085-.197-3.119-.084c-.575.063-1.295-.007-1.685.421-.88.967-.523 2.572-.59 3.877-.092 1.77.635 3.58.253 5.31-.288 1.3-.704 2.868-1.855 3.54-.776.453-2.043.533-2.697-.085-1.168-1.104-.481-3.197-.42-4.804.07-1.906.827-3.742.926-5.646.174-3.345.176-6.77-.59-10.03-.426-1.813-.458-4.457-2.191-5.14-1.229-.486-3.032.42-3.624 1.6-1.525 3.04 2.326 6.545 2.275 9.946-.041 2.786.047 6.322-2.107 8.09-.739.608-2.173.83-2.865.169-1.687-1.61 1.627-5.247.084-6.995-.991-1.124-4.467-.506-4.467-.506" style="fill:none;stroke:#a00;stroke-width:2.64583;stroke-linejoin:round;stroke-dasharray:none"/></svg>