<svg xmlns="http://www.w3.org/2000/svg" width="600" height="3000" viewBox="0 0 158.75 793.75"><defs><path id="U" d="M359 423h99v39h-99z"/><path id="T" d="M218.142 710.642h44.901v29.698h-44.901z"/><path id="S" d="M203.293 706.4h44.548v20.86h-44.548z"/><path id="P" d="M524.673 1016.112h55.861v45.962h-55.861z"/><path id="N" d="M-116.673 694.379h64.347v37.477h-64.347z"/><path id="M" d="M-186.676 708.521h57.276v38.184h-57.276z"/><path id="F" d="M544.472 973.686H600v45.962h-55.528z"/><path id="A" d="M66 985.5h45.5v29H66z"/><path id="y" d="M-49.5 866H0v30h-49.5z"/><path id="s" d="M55.861 1034.497h61.518v45.255H55.861z"/><path id="r" d="M202.94 391.384h39.244v28.638H202.94z"/><path id="p" d="M449.366 275.418h41.366v35.709h-41.366z"/><path id="o" d="M415.425 261.453h27.754v21.567h-27.754z"/><path id="n" d="M398.455 284.08h29.698v25.456h-29.698z"/><path id="j" d="M157.596 258.889h27.764v22.502h-27.764z"/><path id="i" d="M339.443 381.233h32.893v23.187h-32.893z"/><path id="h" d="M367.213 140.738h46.913v29.657h-46.913z"/><path id="g" d="M478.294 444.323h36.128v38.285h-36.128z"/><path id="f" d="M408.194 420.597h39.903v28.579h-39.903z"/><path id="e" d="M329.467 416.822h62.011v44.756h-62.011z"/><path id="d" d="M269.613 427.067h37.207v26.422h-37.207z"/><path id="c" d="M416.822 340.252h63.629v46.913h-63.629z"/><path id="a" d="M14.489 18.302h220.386v57.956H14.489z"/><path id="k" d="M157.596 258.889h27.764v22.502h-27.764z"/><path id="u" d="M55.861 1034.497h61.518v45.255H55.861z"/><path id="w" d="M55.861 1034.497h61.518v45.255H55.861z"/><path id="B" d="M-49.5 866H0v30h-49.5z"/><path id="C" d="M-49.5 866H0v30h-49.5z"/><path id="I" d="M544.472 973.686H600v45.962h-55.528z"/><path id="L" d="M544.472 973.686H600v45.962h-55.528z"/><path id="V" d="M359 423h99v39h-99z"/><marker id="b" markerHeight="1" markerWidth="1" orient="auto-start-reverse" preserveAspectRatio="xMidYMid" refX="0" refY="0" style="overflow:visible" viewBox="0 0 1 1"><path d="M3-3 0 0l3 3" style="fill:none;stroke:context-stroke;stroke-width:1;stroke-linecap:butt" transform="rotate(180 .125 0)"/></marker><marker id="l" markerHeight="1" markerWidth="1" orient="auto-start-reverse" preserveAspectRatio="xMidYMid" refX="0" refY="0" style="overflow:visible" viewBox="0 0 1 1"><path d="M3-3 0 0l3 3" style="fill:none;stroke:context-stroke;stroke-width:1;stroke-linecap:butt" transform="rotate(180 .125 0)"/></marker><marker id="m" markerHeight="1" markerWidth="1" orient="auto-start-reverse" preserveAspectRatio="xMidYMid" refX="0" refY="0" style="overflow:visible" viewBox="0 0 1 1"><path d="M3-3 0 0l3 3" style="fill:none;stroke:context-stroke;stroke-width:1;stroke-linecap:butt" transform="rotate(180 .125 0)"/></marker><marker id="q" markerHeight="1" markerWidth="1" orient="auto-start-reverse" preserveAspectRatio="xMidYMid" refX="0" refY="0" style="overflow:visible" viewBox="0 0 1 1"><path d="M3-3 0 0l3 3" style="fill:none;stroke:context-stroke;stroke-width:1;stroke-linecap:butt" transform="rotate(180 .125 0)"/></marker><marker id="t" markerHeight="1" markerWidth="1" orient="auto-start-reverse" preserveAspectRatio="xMidYMid" refX="0" refY="0" style="overflow:visible" viewBox="0 0 1 1"><path d="M3-3 0 0l3 3" style="fill:none;stroke:context-stroke;stroke-width:1;stroke-linecap:butt" transform="rotate(180 .125 0)"/></marker><marker id="v" markerHeight="1" markerWidth="1" orient="auto-start-reverse" preserveAspectRatio="xMidYMid" refX="0" refY="0" style="overflow:visible" viewBox="0 0 1 1"><path d="M3-3 0 0l3 3" style="fill:none;stroke:context-stroke;stroke-width:1;stroke-linecap:butt" transform="rotate(180 .125 0)"/></marker><marker id="z" markerHeight="1" markerWidth="1" orient="auto-start-reverse" preserveAspectRatio="xMidYMid" refX="0" refY="0" style="overflow:visible" viewBox="0 0 1 1"><path d="M3-3 0 0l3 3" style="fill:none;stroke:context-stroke;stroke-width:1;stroke-linecap:butt" transform="rotate(180 .125 0)"/></marker><marker id="x" markerHeight="1" markerWidth="1" orient="auto-start-reverse" preserveAspectRatio="xMidYMid" refX="0" refY="0" style="overflow:visible" viewBox="0 0 1 1"><path d="M3-3 0 0l3 3" style="fill:none;stroke:context-stroke;stroke-width:1;stroke-linecap:butt" transform="rotate(180 .125 0)"/></marker><marker id="D" markerHeight="1" markerWidth="1" orient="auto-start-reverse" preserveAspectRatio="xMidYMid" refX="0" refY="0" style="overflow:visible" viewBox="0 0 1 1"><path d="M3-3 0 0l3 3" style="fill:none;stroke:context-stroke;stroke-width:1;stroke-linecap:butt" transform="rotate(180 .125 0)"/></marker><marker id="E" markerHeight="1" markerWidth="1" orient="auto-start-reverse" preserveAspectRatio="xMidYMid" refX="0" refY="0" style="overflow:visible" viewBox="0 0 1 1"><path d="M3-3 0 0l3 3" style="fill:none;stroke:context-stroke;stroke-width:1;stroke-linecap:butt" transform="rotate(180 .125 0)"/></marker><marker id="G" markerHeight="1" markerWidth="1" orient="auto-start-reverse" preserveAspectRatio="xMidYMid" refX="0" refY="0" style="overflow:visible" viewBox="0 0 1 1"><path d="M3-3 0 0l3 3" style="fill:none;stroke:context-stroke;stroke-width:1;stroke-linecap:butt" transform="rotate(180 .125 0)"/></marker><marker id="H" markerHeight="1" markerWidth="1" orient="auto-start-reverse" preserveAspectRatio="xMidYMid" refX="0" refY="0" style="overflow:visible" viewBox="0 0 1 1"><path d="M3-3 0 0l3 3" style="fill:none;stroke:context-stroke;stroke-width:1;stroke-linecap:butt" transform="rotate(180 .125 0)"/></marker><marker id="J" markerHeight="1" markerWidth="1" orient="auto-start-reverse" preserveAspectRatio="xMidYMid" refX="0" refY="0" style="overflow:visible" viewBox="0 0 1 1"><path d="M3-3 0 0l3 3" style="fill:none;stroke:context-stroke;stroke-width:1;stroke-linecap:butt" transform="rotate(180 .125 0)"/></marker><marker id="K" markerHeight="1" markerWidth="1" orient="auto-start-reverse" preserveAspectRatio="xMidYMid" refX="0" refY="0" style="overflow:visible" viewBox="0 0 1 1"><path d="M3-3 0 0l3 3" style="fill:none;stroke:context-stroke;stroke-width:1;stroke-linecap:butt" transform="rotate(180 .125 0)"/></marker><marker id="O" markerHeight="1" markerWidth="1" orient="auto-start-reverse" preserveAspectRatio="xMidYMid" refX="0" refY="0" style="overflow:visible" viewBox="0 0 1 1"><path d="M3-3 0 0l3 3" style="fill:none;stroke:context-stroke;stroke-width:1;stroke-linecap:butt" transform="rotate(180 .125 0)"/></marker><marker id="Q" markerHeight="1" markerWidth="1" orient="auto-start-reverse" preserveAspectRatio="xMidYMid" refX="0" refY="0" style="overflow:visible" viewBox="0 0 1 1"><path d="M3-3 0 0l3 3" style="fill:none;stroke:context-stroke;stroke-width:1;stroke-linecap:butt" transform="rotate(180 .125 0)"/></marker><marker id="R" markerHeight="1" markerWidth="1" orient="auto-start-reverse" preserveAspectRatio="xMidYMid" refX="0" refY="0" style="overflow:visible" viewBox="0 0 1 1"><path d="M3-3 0 0l3 3" style="fill:none;stroke:context-stroke;stroke-width:1;stroke-linecap:butt" transform="rotate(180 .125 0)"/></marker></defs><path d="M1.323 127.529H148.96v154.517H1.323zM27.128 34.237h89.99v80.101h-89.99z" style="opacity:1;fill:#fff;stroke:#fff;stroke-width:.264583;stroke-linejoin:round;stroke-dasharray:none"/><text xml:space="preserve" style="font-size:16px;line-height:normal;font-family:&quot;Liberation Mono&quot;;-inkscape-font-specification:&quot;Liberation Mono&quot;;text-decoration-color:#000;white-space:pre;shape-inside:url(#a);display:inline;fill:#000;stroke-width:1;-inkscape-stroke:none;stop-color:#000" transform="scale(.26458)"><tspan x="14.488" y="32.539">src_minimir.svg</tspan></text><circle cx="71.526" cy="71.324" r="28.55" style="fill:none;stroke:#d40000;stroke-width:.264583;stroke-linejoin:round"/><circle cx="191.1" cy="79.8" r="23.708" style="fill:#fff;stroke:#ccc;stroke-width:.264583;stroke-linejoin:round"/><circle cx="191.1" cy="79.8" r="12.005" style="fill:#fff;stroke:#338000;stroke-width:.264583;stroke-linejoin:round"/><path d="m68.247 94.804.009-11.929s-1.587-.536-2.323-.928c-.801-.427-1.572-.93-2.25-1.534-.858-.763-1.639-1.634-2.258-2.6-.632-.989-1.447-3.21-1.447-3.21H48.046s.497 2.776.951 4.104c.587 1.714 1.325 3.394 2.274 4.937 1.03 1.676 2.285 3.225 3.67 4.621a21.5 21.5 0 0 0 3.52 2.842c1.406.918 2.906 1.712 4.473 2.313 1.709.655 5.313 1.384 5.313 1.384z" style="fill:none;stroke:#a00;stroke-width:.264583;stroke-linejoin:round"/><circle cx="71.526" cy="71.324" r="4.842" style="fill:#faa;stroke:#d40000;stroke-width:.264583;stroke-linejoin:round"/><circle cx="71.537" cy="71.339" r="3.346" style="fill:#fff;stroke:#d40000;stroke-width:.264583;stroke-linejoin:round"/><path d="M187.821 56.092h6.557v13.317h-6.557zM187.821 89.485h6.557v14.023h-6.557z" style="fill:none;stroke:#338000;stroke-width:.264583;stroke-linejoin:round"/><path d="M-83.079 201.088h6.557v13.72h-6.557zM-83.079 167.393h6.557v13.922h-6.557z" style="fill:none;stroke:#338000;stroke-width:.264583;stroke-linejoin:round" transform="rotate(-90)"/><path d="m74.805 47.845-.009 11.928s1.587.537 2.323.929c.802.427 1.573.93 2.251 1.534.857.763 1.638 1.634 2.257 2.6.633.989 1.448 3.21 1.448 3.21h11.93s-.496-2.776-.95-4.104c-.587-1.715-1.325-3.394-2.274-4.938-1.03-1.675-2.285-3.224-3.67-4.62a21.5 21.5 0 0 0-3.52-2.842c-1.406-.918-2.905-1.713-4.473-2.313-1.709-.655-5.313-1.384-5.313-1.384zM48.046 68.045l11.93.01s.536-1.588.928-2.324c.426-.801.93-1.572 1.534-2.25.763-.858 1.633-1.639 2.6-2.257.989-.633 3.21-1.448 3.21-1.448V47.845s-2.776.496-4.105.95c-1.714.587-3.393 1.325-4.937 2.274-1.675 1.03-3.224 2.285-4.62 3.67a21.5 21.5 0 0 0-2.843 3.52c-.917 1.406-1.712 2.906-2.313 4.473-.655 1.71-1.384 5.313-1.384 5.313zM95.006 74.603l-11.929-.008s-.536 1.587-.928 2.323c-.427.801-.931 1.572-1.535 2.25-.763.858-1.633 1.639-2.6 2.257-.988.633-3.209 1.448-3.209 1.448v11.931s2.775-.496 4.104-.95c1.714-.587 3.394-1.325 4.937-2.275 1.676-1.03 3.225-2.285 4.621-3.67a21.5 21.5 0 0 0 2.842-3.52c.917-1.405 1.712-2.905 2.313-4.472.655-1.71 1.384-5.314 1.384-5.314z" style="fill:none;stroke:#a00;stroke-width:.264583;stroke-linejoin:round"/><path d="M256.672 375.783c-35.706-4.762-66.76-27.056-82.471-59.205-18.064-36.963-13.43-80.567 12.038-113.29 3.68-4.727 12.893-13.904 17.858-17.787 13.109-10.251 28.789-17.584 44.311-20.723 19.708-3.985 40.564-2.514 58.412 4.12 42.577 15.826 70.71 56.02 70.63 100.907-.06 33.242-16.398 65.69-43.025 85.453-22.51 16.707-50.665 24.139-77.753 20.525zm2.157-40.022v-23.094l-4.53-1.72c-5.738-2.18-11.528-6-15.762-10.399-4.474-4.648-6.64-8-9.142-14.142l-2.111-5.184-23.02-.008c-12.661-.004-23.141.187-23.288.426-.303.49 1.848 10.705 3.19 15.15 1.126 3.73 5.344 13.623 7.151 16.77 4.82 8.392 13.261 18.798 19.712 24.297 7.191 6.131 17.284 12.256 25.849 15.685 3.47 1.39 18.445 5.26 20.468 5.29l1.483.023zm31.75 21.696c17.832-3.978 32.649-12.525 45.95-26.507 7.124-7.487 13.872-18.064 17.674-27.703 1.657-4.2 5.461-18.733 5.461-20.862v-1.178h-46.203l-1.496 3.909c-4.88 12.753-13.884 21.482-27.388 26.55l-2.562.962v46.227h1.149c.631 0 3.968-.629 7.414-1.398zm-12.42-70.6c4.05-1.847 7.736-5.554 9.579-9.635 2.103-4.659 2.124-10.557.052-15.07-2.665-5.808-6.702-9.319-12.524-10.895-8.85-2.396-17.91 1.682-21.942 9.877-1.617 3.286-1.773 4.04-1.755 8.47.016 3.822.273 5.42 1.202 7.466 4.488 9.89 15.693 14.209 25.388 9.787zm-49.335-33.022c2.355-6.38 5.672-11.292 11.133-16.489 4.787-4.555 7.825-6.418 16.31-9.999l2.562-1.08v-22.858c0-12.572-.124-22.982-.276-23.133-.369-.37-6.956.896-12.935 2.484-25.17 6.688-47.933 26.642-58.347 51.147-1.967 4.627-6.83 22.815-6.32 23.639.16.26 10.644.471 23.313.468l23.02-.006zm130.84 3.037c0-2.397-2.873-13.89-4.7-18.804-9.706-26.096-31.858-47.127-57.311-54.41-7.23-2.069-14.961-3.783-15.342-3.402-.163.162-.296 10.634-.296 23.27V226.5l3.91 1.458c6.254 2.332 10.549 5.156 15.783 10.38 3.909 3.9 5.35 5.805 7.343 9.705 1.363 2.67 2.908 6.006 3.432 7.415l.954 2.56h46.227z" style="fill:#ffd5d5;stroke:#ffd5d5;stroke-width:1;stroke-linejoin:round" transform="scale(.26458)"/><path d="M67.911 75.615 45.084 103.58" style="fill:#ffd5d5;stroke:#00f;stroke-width:.264583;stroke-linejoin:round;marker-start:url(#b)"/><path d="M60.778 78.326 37.665 91.024" style="fill:#ffd5d5;stroke:#00f;stroke-width:.264583;stroke-linejoin:round;marker-start:url(#b)"/><path d="M50.812 59.376 38.4 54.383" style="fill:#ffd5d5;stroke:#00f;stroke-width:.264583;stroke-linejoin:round;marker-start:url(#b)"/><path d="m50.505 50.933-6.848-7.847" style="fill:#ffd5d5;stroke:#00f;stroke-width:.264583;stroke-linejoin:round;marker-start:url(#b)"/><path d="m66.912 49.364-5.421 5.85" style="fill:#ffd5d5;stroke:#00f;stroke-width:.264583;stroke-linejoin:round;marker-start:url(#b)"/><path d="m67.055 58.923-5.279-3.139" style="fill:#ffd5d5;stroke:#00f;stroke-width:.264583;stroke-linejoin:round;marker-start:url(#b)"/><text xml:space="preserve" style="font-size:16px;line-height:normal;font-family:&quot;Liberation Mono&quot;;-inkscape-font-specification:&quot;Liberation Mono&quot;;text-decoration-color:#000;white-space:pre;shape-inside:url(#c);display:inline;fill:#000;stroke-width:1;-inkscape-stroke:none;stop-color:#000" transform="translate(-53.93 -36.238)scale(.26458)"><tspan x="416.822" y="354.488">R6</tspan></text><text xml:space="preserve" style="font-size:16px;line-height:normal;font-family:&quot;Liberation Mono&quot;;-inkscape-font-specification:&quot;Liberation Mono&quot;;text-decoration-color:#000;white-space:pre;shape-inside:url(#d);display:inline;fill:#000;stroke-width:1;-inkscape-stroke:none;stop-color:#000" transform="translate(-31.102 -9.702)scale(.26458)"><tspan x="269.613" y="441.303">D2</tspan></text><text xml:space="preserve" style="font-size:16px;line-height:normal;font-family:&quot;Liberation Mono&quot;;-inkscape-font-specification:&quot;Liberation Mono&quot;;text-decoration-color:#000;white-space:pre;shape-inside:url(#e);display:inline;fill:#000;stroke-width:1;-inkscape-stroke:none;stop-color:#000" transform="translate(-55.784 -21.686)scale(.26458)"><tspan x="329.467" y="431.059">D3</tspan></text><text xml:space="preserve" style="font-size:16px;line-height:normal;font-family:&quot;Liberation Mono&quot;;-inkscape-font-specification:&quot;Liberation Mono&quot;;text-decoration-color:#000;white-space:pre;shape-inside:url(#f);display:inline;fill:#000;stroke-width:1;-inkscape-stroke:none;stop-color:#000" transform="translate(-75.388 -60.024)scale(.26458)"><tspan x="408.195" y="434.832">D4</tspan></text><text xml:space="preserve" style="font-size:16px;line-height:normal;font-family:&quot;Liberation Mono&quot;;-inkscape-font-specification:&quot;Liberation Mono&quot;;text-decoration-color:#000;white-space:pre;shape-inside:url(#g);display:inline;fill:#000;stroke-width:1;-inkscape-stroke:none;stop-color:#000" transform="translate(-86.316 -79.04)scale(.26458)"><tspan x="478.293" y="458.559">D5</tspan></text><text xml:space="preserve" style="font-size:16px;line-height:normal;font-family:&quot;Liberation Mono&quot;;-inkscape-font-specification:&quot;Liberation Mono&quot;;text-decoration-color:#000;white-space:pre;shape-inside:url(#h);display:inline;fill:#000;stroke-width:1;-inkscape-stroke:none;stop-color:#000" transform="translate(-1.123 57.997)scale(.26458)"><tspan x="367.213" y="154.975">N1</tspan></text><path d="m71.436 86.242 23.929 9.318" style="fill:#ffd5d5;stroke:#00f;stroke-width:.264583;stroke-linejoin:round;marker-start:url(#b)"/><path d="m88.05 73.935 7.995 21.143" style="fill:#ffd5d5;stroke:#00f;stroke-width:.264583;stroke-linejoin:round;marker-start:url(#b)"/><path d="M68.45 92.1h6.27" style="fill:#faa;stroke:#00f;stroke-width:.264583;stroke-linejoin:round;marker-start:url(#b);marker-end:url(#b)"/><text xml:space="preserve" style="font-size:16px;line-height:normal;font-family:&quot;Liberation Mono&quot;;-inkscape-font-specification:&quot;Liberation Mono&quot;;text-decoration-color:#000;white-space:pre;shape-inside:url(#i);display:inline;fill:#000;stroke-width:1;-inkscape-stroke:none;stop-color:#000" transform="translate(-21.044 -8.411)scale(.26458)"><tspan x="339.443" y="395.469">S1</tspan></text><path d="M-72.751 47.739h2.853v9.845h-2.853zM-72.751 85.469h2.853v9.845h-2.853z" style="fill:#faa;stroke:#a00;stroke-width:.264583;stroke-linejoin:round" transform="rotate(-90)"/><path d="M46.68 69.898v2.853" style="fill:#faa;stroke:#00f;stroke-width:.264583;stroke-linejoin:round;marker-start:url(#b);marker-end:url(#b)"/><path d="M47.739 73.602h9.845" style="fill:#faa;stroke:#00f;stroke-width:.264583;stroke-linejoin:round;marker-start:url(#b);marker-end:url(#b)"/><text xml:space="preserve" style="font-size:16px;line-height:normal;font-family:&quot;Liberation Mono&quot;;-inkscape-font-specification:&quot;Liberation Mono&quot;;text-decoration-color:#000;white-space:pre;shape-inside:url(#j);display:inline;fill:#000;stroke-width:1;-inkscape-stroke:none;stop-color:#000" transform="translate(-.963 .397)scale(.26458)"><tspan x="157.596" y="273.125">S2</tspan></text><text xml:space="preserve" style="font-size:16px;line-height:normal;font-family:&quot;Liberation Mono&quot;;-inkscape-font-specification:&quot;Liberation Mono&quot;;text-decoration-color:#000;white-space:pre;shape-inside:url(#k);display:inline;fill:#000;stroke-width:1;-inkscape-stroke:none;stop-color:#000" transform="translate(8.26 4.764)scale(.26458)"><tspan x="157.596" y="273.125">S3</tspan></text><path d="M-69.898 47.739h4.507v9.845h-4.507z" style="fill:#ececec;stroke:#b3b3b3;stroke-width:.264583;stroke-linejoin:round;opacity:.5" transform="rotate(-90)"/><path d="M-69.898 85.469h4.507v9.845h-4.507z" style="opacity:.5;fill:#ececec;stroke:#b3b3b3;stroke-width:.264583;stroke-linejoin:round" transform="rotate(-90)"/><path d="M-65.391 37.355h2.589v68.342h-2.589z" style="opacity:.5;fill:#ececec;stroke:#b3b3b3;stroke-width:.264582;stroke-linejoin:round" transform="rotate(-90)"/><path d="M106.755 62.801v2.494" style="fill:#faa;stroke:teal;stroke-width:.264583;stroke-linejoin:round;marker-start:url(#l);marker-end:url(#l)"/><path d="M96.372 65.556v4.127" style="fill:#faa;stroke:teal;stroke-width:.264583;stroke-linejoin:round;marker-start:url(#m);marker-end:url(#m)"/><text xml:space="preserve" style="font-size:16px;line-height:normal;font-family:&quot;Liberation Mono&quot;;-inkscape-font-specification:&quot;Liberation Mono&quot;;text-decoration-color:#000;white-space:pre;shape-inside:url(#n);display:inline;fill:#000;stroke-width:1;-inkscape-stroke:none;stop-color:#000" transform="translate(-8.185 -9.962)scale(.26458)"><tspan x="398.455" y="298.317">T2</tspan></text><text xml:space="preserve" style="font-size:16px;line-height:normal;font-family:&quot;Liberation Mono&quot;;-inkscape-font-specification:&quot;Liberation Mono&quot;;text-decoration-color:#000;white-space:pre;shape-inside:url(#o);display:inline;fill:#000;stroke-width:1;-inkscape-stroke:none;stop-color:#000" transform="translate(-2.011 -7.39)scale(.26458)"><tspan x="415.426" y="275.69">T3</tspan></text><path d="M37.355 61.743h68.342" style="opacity:1;fill:#ececec;stroke:teal;stroke-width:.264583;stroke-linejoin:round;stroke-dasharray:none;marker-start:url(#b);marker-end:url(#b)"/><text xml:space="preserve" style="font-size:16px;line-height:normal;font-family:&quot;Liberation Mono&quot;;-inkscape-font-specification:&quot;Liberation Mono&quot;;text-decoration-color:#000;white-space:pre;shape-inside:url(#p);display:inline;fill:#000;stroke-width:1;-inkscape-stroke:none;stop-color:#000" transform="translate(-49.86 -15.622)scale(.26458)"><tspan x="449.367" y="289.654">L1</tspan></text><path d="m70.137 74.664-12.07 28.618" style="fill:#ffd5d5;stroke:#00f;stroke-width:.264583;stroke-linejoin:round;marker-start:url(#q)"/><text xml:space="preserve" style="font-size:16px;line-height:normal;font-family:&quot;Liberation Mono&quot;;-inkscape-font-specification:&quot;Liberation Mono&quot;;text-decoration-color:#000;white-space:pre;shape-inside:url(#r);display:inline;fill:#000;stroke-width:1;-inkscape-stroke:none;stop-color:#000" transform="translate(.748 -.374)scale(.26458)"><tspan x="202.939" y="405.619">D1</tspan></text><path d="M17.025 198.965h122.169v16.277H17.025z" style="opacity:1;fill:#ffd5d5;stroke:#d40000;stroke-width:.264583;stroke-linejoin:round;stroke-dasharray:none"/><path d="M17.025 202.52h122.169v9.167H17.025z" style="fill:#fff;stroke:#d40000;stroke-width:.264583;stroke-linejoin:round;stroke-dasharray:none"/><path d="M22.846 159.863h4.116v94.48h-4.116zM129.257 159.863h4.116v94.48h-4.116zM-26.545 154.812h4.116v11.225h-4.116zM26.962 171.089h102.295v11.225H26.962zM-26.545 238.066h4.116v11.225h-4.116zM26.962 231.892h102.295v11.225H26.962z" style="fill:#faa;stroke:#d40000;stroke-width:.264582;stroke-linejoin:round;stroke-dasharray:none"/><path d="M187.325 140.141h66.791v129.278h-66.791z" style="opacity:1;fill:#f2f2f2;stroke:#ccc;stroke-width:.264583;stroke-linejoin:round;stroke-dasharray:none"/><path d="M191.441 142.082H250v58.465h-58.559z" style="fill:#fff;stroke:#ccc;stroke-width:.264582;stroke-linejoin:round;stroke-dasharray:none"/><path d="M-148.167-54.769h4.116v11.225h-4.116zM-210.749-54.769h4.116v11.225h-4.116zM-273.33-54.769h4.116v11.225h-4.116z" style="fill:#faa;stroke:#d40000;stroke-width:.264582;stroke-linejoin:round;stroke-dasharray:none" transform="rotate(-90)"/><path d="M191.441 204.781H250v58.465h-58.559z" style="fill:#fff;stroke:#ccc;stroke-width:.264582;stroke-linejoin:round;stroke-dasharray:none"/><path d="M170 783V539.5h250v487H170Zm237 118.5v-111H184v222h223Zm0-237v-111H184v222h223Z" style="opacity:1;fill:#f6ffd5;stroke:#aad400;stroke-width:1;stroke-linejoin:round;stroke-dasharray:none" transform="scale(.26458)"/><path d="M15.438 202.52v9.167" style="opacity:1;fill:#f6ffd5;stroke:#00f;stroke-width:.264583;stroke-linejoin:round;stroke-dasharray:none;marker-start:url(#b);marker-end:url(#b)"/><text xml:space="preserve" style="font-size:16px;line-height:normal;font-family:&quot;Liberation Mono&quot;;-inkscape-font-specification:&quot;Liberation Mono&quot;;text-decoration-color:#000;white-space:pre;shape-inside:url(#s);display:inline;fill:#000;stroke-width:1;-inkscape-stroke:none;stop-color:#000" transform="translate(-5.123 -68.98)scale(.26458)"><tspan x="55.861" y="1048.735">D1</tspan></text><path d="M140.781 198.965v16.277" style="fill:#f6ffd5;stroke:#00f;stroke-width:.264583;stroke-linejoin:round;stroke-dasharray:none;marker-start:url(#t);marker-end:url(#t)"/><text xml:space="preserve" style="font-size:16px;line-height:normal;font-family:&quot;Liberation Mono&quot;;-inkscape-font-specification:&quot;Liberation Mono&quot;;text-decoration-color:#000;white-space:pre;shape-inside:url(#u);display:inline;fill:#000;stroke-width:1;-inkscape-stroke:none;stop-color:#000" transform="translate(126.53 -69.316)scale(.26458)"><tspan x="55.861" y="1048.735">D2</tspan></text><path d="M7.505 159.863h15.34" style="opacity:1;fill:#f6ffd5;stroke:#ccc;stroke-width:.264583;stroke-linejoin:round;stroke-dasharray:none"/><path d="M7.505 254.343h15.34" style="fill:#f6ffd5;stroke:#ccc;stroke-width:.264583;stroke-linejoin:round;stroke-dasharray:none"/><path d="M7.505 159.879v94.028" style="fill:#f6ffd5;stroke:#00f;stroke-width:.264583;stroke-linejoin:round;stroke-dasharray:none;marker-start:url(#v);marker-end:url(#v)"/><text xml:space="preserve" style="font-size:16px;line-height:normal;font-family:&quot;Liberation Mono&quot;;-inkscape-font-specification:&quot;Liberation Mono&quot;;text-decoration-color:#000;white-space:pre;shape-inside:url(#w);display:inline;fill:#000;stroke-width:1;-inkscape-stroke:none;stop-color:#000" transform="translate(-12.928 -68.711)scale(.26458)"><tspan x="55.861" y="1048.735">D5</tspan></text><path d="M17.025 216.829h5.82" style="opacity:1;fill:#f6ffd5;stroke:#00f;stroke-width:.264583;stroke-linejoin:round;stroke-dasharray:none;marker-start:url(#b);marker-end:url(#b)"/><path d="M27.45 249.463h17.308" style="fill:#f6ffd5;stroke:#00f;stroke-width:.264583;stroke-linejoin:round;stroke-dasharray:none;marker-start:url(#x);marker-end:url(#x)"/><text xml:space="preserve" style="font-size:16px;line-height:normal;font-family:&quot;Liberation Mono&quot;;-inkscape-font-specification:&quot;Liberation Mono&quot;;text-decoration-color:#000;white-space:pre;shape-inside:url(#y);fill:#000;stroke-width:1;-inkscape-stroke:none;stop-color:#000" transform="translate(30.03 -11.642)scale(.26458)"><tspan x="-49.5" y="880.236">G3</tspan></text><path d="M22.767 255.93h4.127" style="fill:#f6ffd5;stroke:#00f;stroke-width:.264583;stroke-linejoin:round;stroke-dasharray:none;marker-start:url(#z);marker-end:url(#z)"/><text xml:space="preserve" style="font-size:16px;line-height:normal;font-family:&quot;Liberation Mono&quot;;-inkscape-font-specification:&quot;Liberation Mono&quot;;text-decoration-color:#000;white-space:pre;shape-inside:url(#A);fill:#000;stroke-width:1;-inkscape-stroke:none;stop-color:#000" transform="translate(4.895 -3.969)scale(.26458)"><tspan x="66" y="999.736">T1</tspan></text><text xml:space="preserve" style="font-size:16px;line-height:normal;font-family:&quot;Liberation Mono&quot;;-inkscape-font-specification:&quot;Liberation Mono&quot;;text-decoration-color:#000;white-space:pre;shape-inside:url(#B);display:inline;fill:#000;stroke-width:1;-inkscape-stroke:none;stop-color:#000" transform="translate(46.598 20.364)scale(.26458)"><tspan x="-49.5" y="880.236">G2</tspan></text><text xml:space="preserve" style="font-size:16px;line-height:normal;font-family:&quot;Liberation Mono&quot;;-inkscape-font-specification:&quot;Liberation Mono&quot;;text-decoration-color:#000;white-space:pre;shape-inside:url(#C);display:inline;fill:#000;stroke-width:1;-inkscape-stroke:none;stop-color:#000" transform="translate(88.666 45.103)scale(.26458)"><tspan x="-49.5" y="880.236">G1</tspan></text><path d="M44.847 273.711h66.445" style="fill:#f6ffd5;stroke:#00f;stroke-width:.264584;stroke-linejoin:round;stroke-dasharray:none;marker-start:url(#D);marker-end:url(#D)"/><path d="M92.935 205.184v-10.799" style="opacity:1;fill:#f6ffd5;stroke:#00f;stroke-width:.264583;stroke-linejoin:round;stroke-dasharray:none;marker-start:url(#b)"/><path d="M92.935 209.153v10.8" style="fill:#f6ffd5;stroke:#00f;stroke-width:.264583;stroke-linejoin:round;stroke-dasharray:none;marker-start:url(#E)"/><text xml:space="preserve" style="font-size:16px;line-height:normal;font-family:&quot;Liberation Mono&quot;;-inkscape-font-specification:&quot;Liberation Mono&quot;;text-decoration-color:#000;white-space:pre;shape-inside:url(#F);fill:#000;stroke-width:1;-inkscape-stroke:none;stop-color:#000" transform="translate(-49.766 -40.972)scale(.26458)"><tspan x="544.473" y="987.922">W1</tspan></text><path d="M94.608 142.524v-10.8" style="fill:#f6ffd5;stroke:#00f;stroke-width:.264583;stroke-linejoin:round;stroke-dasharray:none;marker-start:url(#G)"/><path d="M94.608 146.493v10.8" style="fill:#f6ffd5;stroke:#00f;stroke-width:.264583;stroke-linejoin:round;stroke-dasharray:none;marker-start:url(#H)"/><text xml:space="preserve" style="font-size:16px;line-height:normal;font-family:&quot;Liberation Mono&quot;;-inkscape-font-specification:&quot;Liberation Mono&quot;;text-decoration-color:#000;white-space:pre;shape-inside:url(#I);display:inline;fill:#000;stroke-width:1;-inkscape-stroke:none;stop-color:#000" transform="translate(-48.621 -104.691)scale(.26458)"><tspan x="544.473" y="987.922">W3</tspan></text><path d="M107.263 165.76h-10.8" style="fill:#f6ffd5;stroke:#00f;stroke-width:.264583;stroke-linejoin:round;stroke-dasharray:none;marker-start:url(#J)"/><path d="M111.107 165.76h5.498" style="fill:#f6ffd5;stroke:#00f;stroke-width:.264583;stroke-linejoin:round;stroke-dasharray:none;marker-start:url(#K)"/><text xml:space="preserve" style="font-size:16px;line-height:normal;font-family:&quot;Liberation Mono&quot;;-inkscape-font-specification:&quot;Liberation Mono&quot;;text-decoration-color:#000;white-space:pre;shape-inside:url(#L);display:inline;fill:#000;stroke-width:1;-inkscape-stroke:none;stop-color:#000" transform="translate(-46.55 -96.788)scale(.26458)"><tspan x="544.473" y="987.922">W2</tspan></text><path d="m50.701 148.361 5.051 10.477" style="opacity:1;fill:#f6ffd5;stroke:#00f;stroke-width:.264583;stroke-linejoin:round;stroke-dasharray:none;marker-start:url(#b)"/><path d="m43.217 142.562-9.354-3.742" style="opacity:1;fill:#f6ffd5;stroke:#00f;stroke-width:.264583;stroke-linejoin:round;stroke-dasharray:none;marker-start:url(#b)"/><text xml:space="preserve" style="font-size:16px;line-height:normal;font-family:&quot;Liberation Mono&quot;;-inkscape-font-specification:&quot;Liberation Mono&quot;;text-decoration-color:#000;white-space:pre;shape-inside:url(#M);fill:#000;stroke-width:1;-inkscape-stroke:none;stop-color:#000" transform="translate(77.455 -51.262)scale(.26458)"><tspan x="-186.676" y="722.758">R7</tspan></text><text xml:space="preserve" style="font-size:16px;line-height:normal;font-family:&quot;Liberation Mono&quot;;-inkscape-font-specification:&quot;Liberation Mono&quot;;text-decoration-color:#000;white-space:pre;shape-inside:url(#N);fill:#000;stroke-width:1;-inkscape-stroke:none;stop-color:#000" transform="translate(86.248 -24.696)scale(.26458)"><tspan x="-116.672" y="708.615">R8</tspan></text><path d="M111.125 142.743h15.341M111.125 271.595h15.341" style="fill:#f6ffd5;stroke:#ccc;stroke-width:.264583;stroke-linejoin:round;stroke-dasharray:none"/><path d="M118.796 142.743v128.852" style="fill:#f6ffd5;stroke:#00f;stroke-width:.264583;stroke-linejoin:round;stroke-dasharray:none;marker-start:url(#O);marker-end:url(#O)"/><text xml:space="preserve" style="font-size:16px;line-height:normal;font-family:&quot;Liberation Mono&quot;;-inkscape-font-specification:&quot;Liberation Mono&quot;;text-decoration-color:#000;white-space:pre;shape-inside:url(#P);fill:#000;stroke-width:1;-inkscape-stroke:none;stop-color:#000" transform="translate(-19.457 -64.359)scale(.26458)"><tspan x="524.674" y="1030.35">L1</tspan></text><path d="M30.137 171.263v35.373" style="fill:#f6ffd5;stroke:#00f;stroke-width:.264583;stroke-linejoin:round;stroke-dasharray:none;marker-start:url(#Q);marker-end:url(#Q)"/><path d="M35.672 171.317v10.807" style="fill:#f6ffd5;stroke:#00f;stroke-width:.264583;stroke-linejoin:round;stroke-dasharray:none;marker-start:url(#R);marker-end:url(#R)"/><path d="M26.962 207.103h15.341" style="fill:#f6ffd5;stroke:#ccc;stroke-width:.264583;stroke-linejoin:round;stroke-dasharray:none"/><text xml:space="preserve" style="font-size:16px;line-height:normal;font-family:&quot;Liberation Mono&quot;;-inkscape-font-specification:&quot;Liberation Mono&quot;;text-decoration-color:#000;white-space:pre;shape-inside:url(#S);fill:#999;stroke-width:1;-inkscape-stroke:none;stop-color:#000" transform="translate(-23.105 .374)scale(.26458)"><tspan x="203.293" y="720.637">R4</tspan></text><text xml:space="preserve" style="font-size:16px;line-height:normal;font-family:&quot;Liberation Mono&quot;;-inkscape-font-specification:&quot;Liberation Mono&quot;;text-decoration-color:#000;white-space:pre;shape-inside:url(#T);fill:#000;stroke-width:1;-inkscape-stroke:none;stop-color:#000" transform="translate(-21.609 -13.377)scale(.26458)"><tspan x="218.143" y="724.879">S3</tspan></text><text xml:space="preserve" style="font-size:16px;line-height:normal;font-family:&quot;Liberation Mono&quot;;-inkscape-font-specification:&quot;Liberation Mono&quot;;text-decoration-color:#000;white-space:pre;shape-inside:url(#U);fill:#666;stroke-width:1;-inkscape-stroke:none;stop-color:#000" transform="translate(-45.773 -4.233)scale(.26458)"><tspan x="359" y="437.236">[d3_rod]</tspan></text><text xml:space="preserve" style="font-size:16px;line-height:normal;font-family:&quot;Liberation Mono&quot;;-inkscape-font-specification:&quot;Liberation Mono&quot;;text-decoration-color:#000;white-space:pre;shape-inside:url(#V);display:inline;fill:#666;stroke-width:1;-inkscape-stroke:none;stop-color:#000" transform="translate(-85.514 109.897)scale(.26458)"><tspan x="359" y="437.236">[d3_rod]</tspan></text></svg>