<svg xmlns="http://www.w3.org/2000/svg" width="600" height="3000" viewBox="0 0 158.75 793.75"><defs><path id="x" d="M194.625 789.968h35.357v21.66h-35.357z"/><path id="t" d="M163.409 799.525h35.357v20.386h-35.357z"/><path id="s" d="M442.765 760.982h28.35v18.475h-28.35z"/><path id="r" d="M416.963 792.835h35.039v21.979h-35.039z"/><path id="q" d="M373.005 795.384h22.935v18.794h-22.935z"/><path id="l" d="M309.928 487.417h52.255v34.236h-52.255z"/><path id="k" d="M379.752 419.395h54.508v43.696h-54.508z"/><path id="j" d="M391.465 437.414h58.112v27.479h-58.112z"/><path id="h" d="M353.174 471.65h52.255v43.246h-52.255z"/><path id="g" d="M168.028 510.391h47.751v34.236h-47.751z"/><path id="e" d="M341.237 326.146h30.182v20.947h-30.182z"/><path id="d" d="M333.835 279.296h49.746v36.038h-49.746z"/><path id="a" d="M22.935 24.209h214.056V67.53H22.935z"/><path id="f" d="M333.835 279.296h49.746v36.038h-49.746z"/><path id="i" d="M353.174 471.65h52.255v43.246h-52.255z"/><path id="m" d="M379.752 419.394h54.508v43.696h-54.508z"/><path id="w" d="M163.409 799.525h35.357v20.386h-35.357z"/><path id="z" d="M194.625 789.968h35.357v21.66h-35.357z"/><path id="E" d="M416.963 792.835h35.039v21.979h-35.039z"/><path id="G" d="M416.963 792.835h35.039v21.979h-35.039z"/><path id="F" d="M416.963 792.835h35.039v21.979h-35.039z"/><path id="H" d="M416.963 792.835h35.039v21.979h-35.039z"/><path id="L" d="M373.005 795.384h22.935v18.794h-22.935z"/><path id="M" d="M416.963 792.835h35.039v21.979h-35.039z"/><path id="N" d="M442.765 760.982h28.35v18.475h-28.35z"/><marker id="b" markerHeight="1" markerWidth="1" orient="auto-start-reverse" preserveAspectRatio="xMidYMid" refX="0" refY="0" style="overflow:visible" viewBox="0 0 1 1"><path d="M3-3 0 0l3 3" style="fill:none;stroke:context-stroke;stroke-width:1;stroke-linecap:butt" transform="rotate(180 .125 0)"/></marker><marker id="c" markerHeight="1" markerWidth="1" orient="auto-start-reverse" preserveAspectRatio="xMidYMid" refX="0" refY="0" style="overflow:visible" viewBox="0 0 1 1"><path d="M3-3 0 0l3 3" style="fill:none;stroke:context-stroke;stroke-width:1;stroke-linecap:butt" transform="rotate(180 .125 0)"/></marker><marker id="n" markerHeight="1" markerWidth="1" orient="auto-start-reverse" preserveAspectRatio="xMidYMid" refX="0" refY="0" style="overflow:visible" viewBox="0 0 1 1"><path d="M3-3 0 0l3 3" style="fill:none;stroke:context-stroke;stroke-width:1;stroke-linecap:butt" transform="rotate(180 .125 0)"/></marker><marker id="o" markerHeight="1" markerWidth="1" orient="auto-start-reverse" preserveAspectRatio="xMidYMid" refX="0" refY="0" style="overflow:visible" viewBox="0 0 1 1"><path d="M3-3 0 0l3 3" style="fill:none;stroke:context-stroke;stroke-width:1;stroke-linecap:butt" transform="rotate(180 .125 0)"/></marker><marker id="p" markerHeight="1" markerWidth="1" orient="auto-start-reverse" preserveAspectRatio="xMidYMid" refX="0" refY="0" style="overflow:visible" viewBox="0 0 1 1"><path d="M3-3 0 0l3 3" style="fill:none;stroke:context-stroke;stroke-width:1;stroke-linecap:butt" transform="rotate(180 .125 0)"/></marker><marker id="u" markerHeight="1" markerWidth="1" orient="auto-start-reverse" preserveAspectRatio="xMidYMid" refX="0" refY="0" style="overflow:visible" viewBox="0 0 1 1"><path d="M3-3 0 0l3 3" style="fill:none;stroke:context-stroke;stroke-width:1;stroke-linecap:butt" transform="rotate(180 .125 0)"/></marker><marker id="y" markerHeight="1" markerWidth="1" orient="auto-start-reverse" preserveAspectRatio="xMidYMid" refX="0" refY="0" style="overflow:visible" viewBox="0 0 1 1"><path d="M3-3 0 0l3 3" style="fill:none;stroke:context-stroke;stroke-width:1;stroke-linecap:butt" transform="rotate(180 .125 0)"/></marker><marker id="A" markerHeight="1" markerWidth="1" orient="auto-start-reverse" preserveAspectRatio="xMidYMid" refX="0" refY="0" style="overflow:visible" viewBox="0 0 1 1"><path d="M3-3 0 0l3 3" style="fill:none;stroke:context-stroke;stroke-width:1;stroke-linecap:butt" transform="rotate(180 .125 0)"/></marker><marker id="C" markerHeight="1" markerWidth="1" orient="auto-start-reverse" preserveAspectRatio="xMidYMid" refX="0" refY="0" style="overflow:visible" viewBox="0 0 1 1"><path d="M3-3 0 0l3 3" style="fill:none;stroke:context-stroke;stroke-width:1;stroke-linecap:butt" transform="rotate(180 .125 0)"/></marker><marker id="D" markerHeight="1" markerWidth="1" orient="auto-start-reverse" preserveAspectRatio="xMidYMid" refX="0" refY="0" style="overflow:visible" viewBox="0 0 1 1"><path d="M3-3 0 0l3 3" style="fill:none;stroke:context-stroke;stroke-width:1;stroke-linecap:butt" transform="rotate(180 .125 0)"/></marker><marker id="I" markerHeight="1" markerWidth="1" orient="auto-start-reverse" preserveAspectRatio="xMidYMid" refX="0" refY="0" style="overflow:visible" viewBox="0 0 1 1"><path d="M3-3 0 0l3 3" style="fill:none;stroke:context-stroke;stroke-width:1;stroke-linecap:butt" transform="rotate(180 .125 0)"/></marker><marker id="v" markerHeight="1" markerWidth="1" orient="auto-start-reverse" preserveAspectRatio="xMidYMid" refX="0" refY="0" style="overflow:visible" viewBox="0 0 1 1"><path d="M3-3 0 0l3 3" style="fill:none;stroke:context-stroke;stroke-width:1;stroke-linecap:butt" transform="rotate(180 .125 0)"/></marker><marker id="J" markerHeight="1" markerWidth="1" orient="auto-start-reverse" preserveAspectRatio="xMidYMid" refX="0" refY="0" style="overflow:visible" viewBox="0 0 1 1"><path d="M3-3 0 0l3 3" style="fill:none;stroke:context-stroke;stroke-width:1;stroke-linecap:butt" transform="rotate(180 .125 0)"/></marker><marker id="B" markerHeight="1" markerWidth="1" orient="auto-start-reverse" preserveAspectRatio="xMidYMid" refX="0" refY="0" style="overflow:visible" viewBox="0 0 1 1"><path d="M3-3 0 0l3 3" style="fill:none;stroke:context-stroke;stroke-width:1;stroke-linecap:butt" transform="rotate(180 .125 0)"/></marker><marker id="K" markerHeight="1" markerWidth="1" orient="auto-start-reverse" preserveAspectRatio="xMidYMid" refX="0" refY="0" style="overflow:visible" viewBox="0 0 1 1"><path d="M3-3 0 0l3 3" style="fill:none;stroke:context-stroke;stroke-width:1;stroke-linecap:butt" transform="rotate(180 .125 0)"/></marker></defs><path d="M35.637 277.71h79.261v29.44H35.637zM28.009 243.264h80.452v19.905H28.009zM23.171 172.885h106.956v36.243H23.171z" style="fill:#fff;stroke:#fff;stroke-width:.264583;stroke-linejoin:round"/><path d="M43.805 182.185h5.879v19.55h-5.879zM58.766 182.185h5.879v19.55h-5.879zM73.728 182.185h5.879v19.55h-5.879zM88.689 182.185h5.879v19.55h-5.879zM103.65 182.185h5.879v19.55h-5.879zM28.844 182.185h5.879v19.55h-5.879zM45.785 251.24h5.879v2.862h-5.879zM60.747 251.24h5.879v2.862h-5.879zM75.708 251.24h5.879v2.862h-5.879zM30.824 251.24h5.879v2.862h-5.879z" style="fill:#c8ab37;stroke:#786721;stroke-width:.264583;stroke-linejoin:round"/><path d="M6.675 24.791h138.259V129.2H6.675z" style="fill:#fff;stroke:#fff;stroke-width:.264583;stroke-linejoin:round"/><text xml:space="preserve" style="font-size:16px;line-height:normal;font-family:&quot;Liberation Mono&quot;;-inkscape-font-specification:&quot;Liberation Mono&quot;;text-decoration-color:#000;white-space:pre;shape-inside:url(#a);display:inline;fill:#000;stroke-width:1;-inkscape-stroke:none;stop-color:#000" transform="scale(.26458)"><tspan x="22.934" y="38.445">src_trackXY.svg</tspan></text><circle cx="61.728" cy="104.794" r="22.467" style="fill:none;stroke:#ccc;stroke-width:.264583;stroke-linejoin:round"/><path d="m46.168 88.989 15.56 15.805" style="fill:#fff;stroke:#00f;stroke-width:.264583;stroke-linejoin:round;marker-start:url(#b);marker-end:url(#b)"/><path d="m61.728 104.794 6.467-21.517" style="fill:none;stroke:#b3b3b3;stroke-width:.264583;stroke-linejoin:round"/><path d="m88.297 60.992-7.73 25.699" style="fill:none;stroke:#00f;stroke-width:.264581;stroke-linejoin:round;marker-start:url(#b);marker-end:url(#b)"/><circle cx="88.453" cy="60.511" r="27.592" style="fill:none;stroke:#ccc;stroke-width:.264583;stroke-linejoin:round"/><path d="m88.453 60.51 8.288 26.319" style="fill:none;stroke:#b3b3b3;stroke-width:.264583;stroke-linejoin:round"/><path d="m96.72 86.79 44.358-14.032" style="fill:none;stroke:red;stroke-width:.264583;stroke-linejoin:round"/><path d="M45.966 88.784 76.955 58.27" style="fill:#fff;stroke:#e6e6e6;stroke-width:.264583;stroke-linejoin:round"/><path d="m68.195 83.277-31.258-9.433M111.752 96.363 80.494 86.93M70.349 95.094l26.379-8.306" style="fill:none;stroke:#e6e6e6;stroke-width:.264583;stroke-linejoin:round"/><path d="M58.7 76.248s.733 1.181.775 1.848c.047.74-.596 2.145-.596 2.145" style="fill:none;stroke:green;stroke-width:.264583;stroke-linejoin:round;marker-end:url(#b)"/><path d="M58.395 101.176s1.19-.719 1.856-.753c.741-.038 2.138.621 2.138.621" style="fill:none;stroke:green;stroke-width:.264583;stroke-linejoin:round;marker-end:url(#c)"/><path d="M45.966 88.784s2.195-1.957 3.419-2.763c1.21-.796 2.496-1.499 3.846-2.026a25.2 25.2 0 0 1 5.56-1.475 21.3 21.3 0 0 1 4.705-.124c1.588.127 4.699.881 4.699.881" style="fill:none;stroke:red;stroke-width:.264583;stroke-linejoin:round"/><path d="m14.899 119.216 30.989-30.512" style="fill:#fff;stroke:red;stroke-width:.264583;stroke-linejoin:round"/><path d="m80.493 86.933-12.298-3.656" style="fill:none;stroke:red;stroke-width:.264583;stroke-linejoin:round"/><text xml:space="preserve" style="font-size:16px;line-height:normal;font-family:&quot;Liberation Mono&quot;;-inkscape-font-specification:&quot;Liberation Mono&quot;;text-decoration-color:#000;white-space:pre;shape-inside:url(#d);display:inline;fill:#000;stroke-width:1;-inkscape-stroke:none;stop-color:#000" transform="translate(-28.28 1.577)scale(.26458)"><tspan x="333.836" y="293.533">a1</tspan></text><text xml:space="preserve" style="font-size:16px;line-height:normal;font-family:&quot;Liberation Mono&quot;;-inkscape-font-specification:&quot;Liberation Mono&quot;;text-decoration-color:#000;white-space:pre;shape-inside:url(#e);display:inline;fill:#000;stroke-width:1;-inkscape-stroke:none;stop-color:#000" transform="translate(-42.431 9.522)scale(.26458)"><tspan x="341.236" y="340.383">r1</tspan></text><text xml:space="preserve" style="font-size:16px;line-height:normal;font-family:&quot;Liberation Mono&quot;;-inkscape-font-specification:&quot;Liberation Mono&quot;;text-decoration-color:#000;white-space:pre;shape-inside:url(#f);display:inline;fill:#000;stroke-width:1;-inkscape-stroke:none;stop-color:#000" transform="translate(-30.169 21.876)scale(.26458)"><tspan x="333.836" y="293.533">a1</tspan></text><path d="M80.494 86.93s2.883.731 4.353.936c1.193.167 2.402.246 3.606.237 1.49-.012 2.984-.12 4.453-.362 1.296-.212 3.822-.953 3.822-.953M13.35 117.997l2.621 2.145M44.815 87.723l1.311 1.311M68.414 82.002l-.357 1.788M80.333 86.889l-.238 1.192" style="fill:none;stroke:red;stroke-width:.264583;stroke-linejoin:round"/><text xml:space="preserve" style="font-size:16px;line-height:normal;font-family:&quot;Liberation Mono&quot;;-inkscape-font-specification:&quot;Liberation Mono&quot;;text-decoration-color:#000;white-space:pre;shape-inside:url(#g);display:inline;fill:#000;stroke-width:1;-inkscape-stroke:none;stop-color:#000" transform="translate(-21.692 -33.73)scale(.26458)"><tspan x="168.027" y="524.627">L1</tspan></text><text xml:space="preserve" style="font-size:16px;line-height:normal;font-family:&quot;Liberation Mono&quot;;-inkscape-font-specification:&quot;Liberation Mono&quot;;text-decoration-color:#000;white-space:pre;shape-inside:url(#h);display:inline;fill:#000;stroke-width:1;-inkscape-stroke:none;stop-color:#000" transform="translate(-21.93 -39.213)scale(.26458)"><tspan x="353.174" y="485.887">L2</tspan></text><text xml:space="preserve" style="font-size:16px;line-height:normal;font-family:&quot;Liberation Mono&quot;;-inkscape-font-specification:&quot;Liberation Mono&quot;;text-decoration-color:#000;white-space:pre;shape-inside:url(#i);display:inline;fill:#000;stroke-width:1;-inkscape-stroke:none;stop-color:#000" transform="translate(29.203 -45.692)scale(.26458)"><tspan x="353.174" y="485.887">L3</tspan></text><path d="m96.424 86.054.596 1.55M140.643 71.394l.953 2.384" style="fill:none;stroke:red;stroke-width:.264583;stroke-linejoin:round"/><text xml:space="preserve" style="font-size:16px;line-height:normal;font-family:&quot;Liberation Mono&quot;;-inkscape-font-specification:&quot;Liberation Mono&quot;;text-decoration-color:#000;white-space:pre;shape-inside:url(#j);display:inline;fill:#000;stroke-width:1;-inkscape-stroke:none;stop-color:#000" transform="translate(-25.268 -43.227)scale(.26458)"><tspan x="391.465" y="451.651">r2</tspan></text><path d="M98.092 92.014s1.404-1.618 1.55-2.622c.141-.973-.715-2.86-.715-2.86" style="fill:none;stroke:green;stroke-width:.264583;stroke-linejoin:round;marker-end:url(#b)"/><text xml:space="preserve" style="font-size:16px;line-height:normal;font-family:&quot;Liberation Mono&quot;;-inkscape-font-specification:&quot;Liberation Mono&quot;;text-decoration-color:#000;white-space:pre;shape-inside:url(#k);display:inline;fill:#000;stroke-width:1;-inkscape-stroke:none;stop-color:#000" transform="translate(-.238 -23.838)scale(.26458)"><tspan x="379.752" y="433.631">a2</tspan></text><path d="M14.899 119.216h17.52" style="fill:none;stroke:gray;stroke-width:.264583;stroke-linejoin:round"/><path d="M22.05 118.95s1.012-1.963.834-2.98c-.177-1.01-1.788-2.502-1.788-2.502" style="fill:none;stroke:green;stroke-width:.264583;stroke-linejoin:round;marker-end:url(#b)"/><text xml:space="preserve" style="font-size:16px;line-height:normal;font-family:&quot;Liberation Mono&quot;;-inkscape-font-specification:&quot;Liberation Mono&quot;;text-decoration-color:#000;white-space:pre;shape-inside:url(#l);display:inline;fill:#000;stroke-width:1;-inkscape-stroke:none;stop-color:#000" transform="translate(-58.283 -15.256)scale(.26458)"><tspan x="309.928" y="501.652">a0</tspan></text><path d="M85.935 69.13s1.289 1.362 2.146 1.43c1.045.083 2.86-1.311 2.86-1.311" style="fill:none;stroke:green;stroke-width:.264583;stroke-linejoin:round;marker-end:url(#b)"/><text xml:space="preserve" style="font-size:16px;line-height:normal;font-family:&quot;Liberation Mono&quot;;-inkscape-font-specification:&quot;Liberation Mono&quot;;text-decoration-color:#000;white-space:pre;shape-inside:url(#m);display:inline;fill:#000;stroke-width:1;-inkscape-stroke:none;stop-color:#000" transform="translate(-14.437 -40.771)scale(.26458)"><tspan x="379.752" y="433.631">a2</tspan></text><path d="M28.845 191.894h82.996" style="fill:red;stroke:red;stroke-width:.264583;stroke-linejoin:round"/><path d="M28.845 185.219h82.875v1.786H28.845zM-15.15 187.27h2.508v4.888h-2.508zM-15.15 192.159h2.508v4.888h-2.508zM28.845 196.782h82.875v1.786H28.845z" style="fill:#b3b3b3;stroke:#666;stroke-width:.264583;stroke-linejoin:round"/><path d="M-17.051 212.863h9.082v19.55h-9.082z" style="fill:#c8ab37;stroke:#786721;stroke-width:.264583;stroke-linejoin:round"/><path d="M111.72 187.006v9.776" style="fill:#c8ab37;stroke:#00f;stroke-width:.264583;stroke-linejoin:round;marker-start:url(#b);marker-end:url(#b)"/><path d="M114.326 182.42v2.566" style="fill:#c8ab37;stroke:#00f;stroke-width:.264583;stroke-linejoin:round;marker-start:url(#n);marker-end:url(#n)"/><path d="M111.72 187.006h7.818M111.72 185.22h7.818M109.53 182.185h5.683" style="fill:#c8ab37;stroke:#999;stroke-width:.264583;stroke-linejoin:round"/><path d="M119.538 182.653v2.566" style="fill:#c8ab37;stroke:#00f;stroke-width:.264583;stroke-linejoin:round;marker-end:url(#o)"/><path d="M119.538 189.572v-2.566" style="fill:#c8ab37;stroke:#00f;stroke-width:.264583;stroke-linejoin:round;marker-end:url(#p)"/><text xml:space="preserve" style="font-size:16px;line-height:normal;font-family:&quot;Liberation Mono&quot;;-inkscape-font-specification:&quot;Liberation Mono&quot;;text-decoration-color:#000;white-space:pre;shape-inside:url(#q);fill:#000;stroke-width:1;-inkscape-stroke:none;stop-color:#000" transform="translate(13.798 -21.407)scale(.26458)"><tspan x="373.006" y="809.619">W1</tspan></text><text xml:space="preserve" style="font-size:16px;line-height:normal;font-family:&quot;Liberation Mono&quot;;-inkscape-font-specification:&quot;Liberation Mono&quot;;text-decoration-color:#000;white-space:pre;shape-inside:url(#r);fill:#000;stroke-width:1;-inkscape-stroke:none;stop-color:#000" transform="translate(10.45 -26.127)scale(.26458)"><tspan x="416.963" y="807.072">T1</tspan></text><text xml:space="preserve" style="font-size:16px;line-height:normal;font-family:&quot;Liberation Mono&quot;;-inkscape-font-specification:&quot;Liberation Mono&quot;;text-decoration-color:#000;white-space:pre;shape-inside:url(#s);fill:#000;stroke-width:1;-inkscape-stroke:none;stop-color:#000" transform="translate(-4.298 -24.02)scale(.26458)"><tspan x="442.764" y="775.219">S1</tspan></text><path d="M34.723 191.894h9.082" style="fill:#c8ab37;stroke:#00f;stroke-width:.264583;stroke-linejoin:round;marker-start:url(#b);marker-end:url(#b)"/><path d="M28.844 202.793h5.879" style="fill:#c8ab37;stroke:#00f;stroke-width:.264583;stroke-linejoin:round;marker-start:url(#b);marker-end:url(#b)"/><text xml:space="preserve" style="font-size:16px;line-height:normal;font-family:&quot;Liberation Mono&quot;;-inkscape-font-specification:&quot;Liberation Mono&quot;;text-decoration-color:#000;white-space:pre;shape-inside:url(#t);fill:#000;stroke-width:1;-inkscape-stroke:none;stop-color:#000" transform="translate(-14.057 -8.175)scale(.26458)"><tspan x="163.408" y="813.762">B1</tspan></text><path d="M30.824 255.69h5.88" style="fill:#c8ab37;stroke:#00f;stroke-width:.264583;stroke-linejoin:round;marker-start:url(#u);marker-end:url(#u)"/><path d="M50.008 284.607h6.22" style="fill:#c8ab37;stroke:#00f;stroke-width:.264583;stroke-linejoin:round;marker-start:url(#v);marker-end:url(#v)"/><text xml:space="preserve" style="font-size:16px;line-height:normal;font-family:&quot;Liberation Mono&quot;;-inkscape-font-specification:&quot;Liberation Mono&quot;;text-decoration-color:#000;white-space:pre;shape-inside:url(#w);display:inline;fill:#000;stroke-width:1;-inkscape-stroke:none;stop-color:#000" transform="translate(-12.077 44.722)scale(.26458)"><tspan x="163.408" y="813.762">B1</tspan></text><text xml:space="preserve" style="font-size:16px;line-height:normal;font-family:&quot;Liberation Mono&quot;;-inkscape-font-specification:&quot;Liberation Mono&quot;;text-decoration-color:#000;white-space:pre;shape-inside:url(#x);fill:#000;stroke-width:1;-inkscape-stroke:none;stop-color:#000" transform="translate(-14.665 -17.166)scale(.26458)"><tspan x="194.625" y="804.205">B2</tspan></text><path d="M37.078 253.044h8.343" style="fill:#c8ab37;stroke:#00f;stroke-width:.264583;stroke-linejoin:round;marker-start:url(#y);marker-end:url(#y)"/><text xml:space="preserve" style="font-size:16px;line-height:normal;font-family:&quot;Liberation Mono&quot;;-inkscape-font-specification:&quot;Liberation Mono&quot;;text-decoration-color:#000;white-space:pre;shape-inside:url(#z);display:inline;fill:#000;stroke-width:1;-inkscape-stroke:none;stop-color:#000" transform="translate(-12.684 43.984)scale(.26458)"><tspan x="194.625" y="804.205">B2</tspan></text><path d="M30.824 247.6h55.62v3.641h-55.62z" style="fill:#b3b3b3;stroke:#666;stroke-width:.264583;stroke-linejoin:round"/><path d="M89.05 247.78v3.167" style="fill:#c8ab37;stroke:#00f;stroke-width:.264583;stroke-linejoin:round;marker-start:url(#A);marker-end:url(#A)"/><path d="M95.735 286.416v7.658" style="fill:#c8ab37;stroke:#00f;stroke-width:.264582;stroke-linejoin:round;marker-start:url(#B);marker-end:url(#B)"/><path d="M81.72 254.085h18.363" style="fill:#c8ab37;stroke:#ccc;stroke-width:.264584;stroke-linejoin:round"/><path d="M86.576 251.24h13.507" style="fill:#c8ab37;stroke:#ccc;stroke-width:.264583;stroke-linejoin:round"/><path d="M100.083 248.674v2.566" style="fill:#c8ab37;stroke:#00f;stroke-width:.264583;stroke-linejoin:round;marker-end:url(#C)"/><path d="M100.083 256.652v-2.567" style="fill:#c8ab37;stroke:#00f;stroke-width:.264583;stroke-linejoin:round;marker-end:url(#D)"/><text xml:space="preserve" style="font-size:16px;line-height:normal;font-family:&quot;Liberation Mono&quot;;-inkscape-font-specification:&quot;Liberation Mono&quot;;text-decoration-color:#000;white-space:pre;shape-inside:url(#E);display:inline;fill:#000;stroke-width:1;-inkscape-stroke:none;stop-color:#000" transform="translate(-8.454 40.528)scale(.26458)"><tspan x="416.963" y="807.072">H1</tspan></text><text xml:space="preserve" style="font-size:16px;line-height:normal;font-family:&quot;Liberation Mono&quot;;-inkscape-font-specification:&quot;Liberation Mono&quot;;text-decoration-color:#000;white-space:pre;shape-inside:url(#F);display:inline;fill:#000;stroke-width:1;-inkscape-stroke:none;stop-color:#000" transform="translate(-2.704 86.499)scale(.26458)"><tspan x="416.963" y="807.072">H1</tspan></text><text xml:space="preserve" style="font-size:16px;line-height:normal;font-family:&quot;Liberation Mono&quot;;-inkscape-font-specification:&quot;Liberation Mono&quot;;text-decoration-color:#000;white-space:pre;shape-inside:url(#G);display:inline;fill:#000;stroke-width:1;-inkscape-stroke:none;stop-color:#000" transform="translate(-19.675 37.454)scale(.26458)"><tspan x="416.963" y="807.072">H2</tspan></text><text xml:space="preserve" style="font-size:16px;line-height:normal;font-family:&quot;Liberation Mono&quot;;-inkscape-font-specification:&quot;Liberation Mono&quot;;text-decoration-color:#000;white-space:pre;shape-inside:url(#H);display:inline;fill:#000;stroke-width:1;-inkscape-stroke:none;stop-color:#000" transform="translate(-12.796 78.123)scale(.26458)"><tspan x="416.963" y="807.072">H2</tspan></text><path d="M86.444 247.6h3.494" style="fill:#c8ab37;stroke:#ccc;stroke-width:.264582;stroke-linejoin:round"/><path d="M39.641 294.47h64.699v8.345H39.641z" style="fill:#c8ab37;stroke:#786721;stroke-width:.264583;stroke-linejoin:round"/><path d="M49.873 286.062h6.492v8.408h-6.492z" style="fill:#b3b3b3;stroke:#666;stroke-width:.264583;stroke-linejoin:round"/><path d="M-74.542 281.725h10.231v8.408h-10.231zM-20.074 281.725h10.231v8.408h-10.231z" style="fill:#ffd5d5;stroke:#666;stroke-width:.264583;stroke-linejoin:round"/><path d="M87.656 286.071h6.492v8.408h-6.492z" style="fill:#b3b3b3;stroke:#666;stroke-width:.264583;stroke-linejoin:round"/><path d="M56.747 290.266h30.506" style="fill:#c8ab37;stroke:#00f;stroke-width:.264583;stroke-linejoin:round;marker-start:url(#I);marker-end:url(#I)"/><path d="M39.778 292.882h9.573" style="fill:#c8ab37;stroke:#00f;stroke-width:.264583;stroke-linejoin:round;marker-start:url(#J);marker-end:url(#J)"/><path d="M106.213 294.605v8.075" style="fill:#c8ab37;stroke:#00f;stroke-width:.264583;stroke-linejoin:round;marker-start:url(#K);marker-end:url(#K)"/><text xml:space="preserve" style="font-size:16px;line-height:normal;font-family:&quot;Liberation Mono&quot;;-inkscape-font-specification:&quot;Liberation Mono&quot;;text-decoration-color:#000;white-space:pre;shape-inside:url(#L);display:inline;fill:#000;stroke-width:1;-inkscape-stroke:none;stop-color:#000" transform="translate(-28.15 75.108)scale(.26458)"><tspan x="373.006" y="809.619">W1</tspan></text><text xml:space="preserve" style="font-size:16px;line-height:normal;font-family:&quot;Liberation Mono&quot;;-inkscape-font-specification:&quot;Liberation Mono&quot;;text-decoration-color:#000;white-space:pre;shape-inside:url(#M);display:inline;fill:#000;stroke-width:1;-inkscape-stroke:none;stop-color:#000" transform="translate(-59.626 69.554)scale(.26458)"><tspan x="416.963" y="807.072">T1</tspan></text><text xml:space="preserve" style="font-size:16px;line-height:normal;font-family:&quot;Liberation Mono&quot;;-inkscape-font-specification:&quot;Liberation Mono&quot;;text-decoration-color:#000;white-space:pre;shape-inside:url(#N);display:inline;fill:#000;stroke-width:1;-inkscape-stroke:none;stop-color:#000" transform="translate(-74.61 86.79)scale(.26458)"><tspan x="442.764" y="775.219">S1</tspan></text></svg>