<svg xmlns="http://www.w3.org/2000/svg" width="393.816" height="541.573" viewBox="0 0 104.197 143.291"><defs><path id="A" d="M204.742 722.341h28.605v22.762h-28.605z"/><path id="z" d="M192.129 738.783h28.38v22.435h-28.38z"/><path id="x" d="M137.926 723.076h40.356v38.543h-40.356z"/><path id="v" d="M144.615 738.684h33.667v30.579h-33.667z"/><path id="t" d="M225.205 804.94h28.668v36.313h-28.668z"/><path id="q" d="M304.839 1061.179h38.647v34.168h-38.647z"/><path id="p" d="M298.149 1048.191h37.587v31.963h-37.587z"/><path id="o" d="M315.909 1059.131h33.843v29.179h-33.843z"/><path id="n" d="M302.29 1048.191h33.128v40.119H302.29z"/><path id="i" d="M70.274 782.573h57.661v51.823H70.274z"/><path id="h" d="M287.63 901.18h34.986v19.821H287.63z"/><path id="g" d="M271.863 901.631h34.912v23.425h-34.912z"/><path id="e" d="M300 917.172h33.804v22.524H300z"/><path id="d" d="M351.147 973.482h23.13v20.271h-23.13z"/><path id="c" d="M64.418 747.342h36.489v44.597H64.418z"/><path id="b" d="M76.581 718.512h39.642v39.642H76.581z"/><path id="s" d="M426.152 560.394h65.896v43.246h-65.896z"/><path id="B" d="M82.437 567.602h218.031v34.236H82.437z"/><marker id="a" markerHeight="1" markerWidth="1" orient="auto-start-reverse" preserveAspectRatio="xMidYMid" refX="0" refY="0" style="overflow:visible" viewBox="0 0 1 1"><path d="M3-3 0 0l3 3" style="fill:none;stroke:context-stroke;stroke-width:1;stroke-linecap:butt" transform="rotate(180 .125 0)"/></marker><marker id="f" markerHeight="1" markerWidth="1" orient="auto-start-reverse" preserveAspectRatio="xMidYMid" refX="0" refY="0" style="overflow:visible" viewBox="0 0 1 1"><path d="M3-3 0 0l3 3" style="fill:none;stroke:context-stroke;stroke-width:1;stroke-linecap:butt" transform="rotate(180 .125 0)"/></marker><marker id="j" markerHeight="1" markerWidth="1" orient="auto-start-reverse" preserveAspectRatio="xMidYMid" refX="0" refY="0" style="overflow:visible" viewBox="0 0 1 1"><path d="M3-3 0 0l3 3" style="fill:none;stroke:context-stroke;stroke-width:1;stroke-linecap:butt" transform="rotate(180 .125 0)"/></marker><marker id="k" markerHeight="1" markerWidth="1" orient="auto-start-reverse" preserveAspectRatio="xMidYMid" refX="0" refY="0" style="overflow:visible" viewBox="0 0 1 1"><path d="M3-3 0 0l3 3" style="fill:none;stroke:context-stroke;stroke-width:1;stroke-linecap:butt" transform="rotate(180 .125 0)"/></marker><marker id="l" markerHeight="1" markerWidth="1" orient="auto-start-reverse" preserveAspectRatio="xMidYMid" refX="0" refY="0" style="overflow:visible" viewBox="0 0 1 1"><path d="M3-3 0 0l3 3" style="fill:none;stroke:context-stroke;stroke-width:1;stroke-linecap:butt" transform="rotate(180 .125 0)"/></marker><marker id="m" markerHeight="1" markerWidth="1" orient="auto-start-reverse" preserveAspectRatio="xMidYMid" refX="0" refY="0" style="overflow:visible" viewBox="0 0 1 1"><path d="M3-3 0 0l3 3" style="fill:none;stroke:context-stroke;stroke-width:1;stroke-linecap:butt" transform="rotate(180 .125 0)"/></marker><marker id="r" markerHeight="1" markerWidth="1" orient="auto-start-reverse" preserveAspectRatio="xMidYMid" refX="0" refY="0" style="overflow:visible" viewBox="0 0 1 1"><path d="M3-3 0 0l3 3" style="fill:none;stroke:context-stroke;stroke-width:1;stroke-linecap:butt" transform="rotate(180 .125 0)"/></marker><marker id="u" markerHeight="1" markerWidth="1" orient="auto-start-reverse" preserveAspectRatio="xMidYMid" refX="0" refY="0" style="overflow:visible" viewBox="0 0 1 1"><path d="M3-3 0 0l3 3" style="fill:none;stroke:context-stroke;stroke-width:1;stroke-linecap:butt" transform="rotate(180 .125 0)"/></marker><marker id="w" markerHeight="1" markerWidth="1" orient="auto-start-reverse" preserveAspectRatio="xMidYMid" refX="0" refY="0" style="overflow:visible" viewBox="0 0 1 1"><path d="M3-3 0 0l3 3" style="fill:none;stroke:context-stroke;stroke-width:1;stroke-linecap:butt" transform="rotate(180 .125 0)"/></marker><marker id="y" markerHeight="1" markerWidth="1" orient="auto-start-reverse" preserveAspectRatio="xMidYMid" refX="0" refY="0" style="overflow:visible" viewBox="0 0 1 1"><path d="M3-3 0 0l3 3" style="fill:none;stroke:context-stroke;stroke-width:1;stroke-linecap:butt" transform="rotate(180 .125 0)"/></marker><marker id="C" markerHeight="1" markerWidth="1" orient="auto-start-reverse" preserveAspectRatio="xMidYMid" refX="0" refY="0" style="overflow:visible" viewBox="0 0 1 1"><path d="M3-3 0 0l3 3" style="fill:none;stroke:context-stroke;stroke-width:1;stroke-linecap:butt" transform="rotate(180 .125 0)"/></marker></defs><g transform="translate(-37.055 -172.93)"><path d="M37.187 173.062H141.12v143.027H37.187z" style="fill:#fff;stroke:#fff;stroke-width:.264583;stroke-linejoin:round"/><path d="M84.472 201.538H94.71M84.472 179.609h27.282" style="fill:#ffd5d5;stroke:#ccc;stroke-width:.264583;stroke-linejoin:round"/><circle cx="84.472" cy="208.449" r="6.911" style="fill:#ffd5d5;stroke:#ffd5d5;stroke-width:.264583;stroke-linejoin:round"/><path d="M77.561 208.449h13.822v17.769H77.561z" style="fill:#ffd5d5;stroke:#ffd5d5;stroke-width:.264583;stroke-linejoin:round"/><path d="M47.871 226.218h2.528v78.717h-2.528zM60.776 226.218h2.528v78.717h-2.528zM47.871 216.273h2.528v9.945h-2.528zM105.638 226.218h2.528v78.717h-2.528zM118.544 226.218h2.528v78.717h-2.528zM118.544 216.273h2.528v9.945h-2.528z" style="fill:#999;stroke:#786721;stroke-width:.264583;stroke-linejoin:round"/><path d="M63.305 226.218h42.333v4.551H63.305z" style="fill:#fca;stroke:#786721;stroke-width:.264583;stroke-linejoin:round"/><path d="M63.305 230.77h6.478v6.405l-6.478 8.006zM105.638 230.77H99.16v6.405l6.478 8.006zM108.167 226.218h10.378v7.572h-10.378z" style="fill:#b3b3b3;stroke:#786721;stroke-width:.264583;stroke-linejoin:round"/><circle cx="113.355" cy="233.921" r="4.767" style="fill:#fff;stroke:#fff;stroke-width:.264582;stroke-linejoin:round"/><path d="M50.399 226.218h10.378v7.572H50.399z" style="fill:#b3b3b3;stroke:#786721;stroke-width:.264583;stroke-linejoin:round"/><circle cx="55.588" cy="233.921" r="4.767" style="fill:#fff;stroke:#fff;stroke-width:.264582;stroke-linejoin:round"/><path d="M63.305 265.576h42.333v4.551H63.305z" style="fill:#fca;stroke:#786721;stroke-width:.264583;stroke-linejoin:round"/><path d="M63.305 270.128h6.478v6.405l-6.478 8.007zM105.638 270.128H99.16v6.405l6.478 8.007zM108.167 265.576h10.378v7.572h-10.378z" style="fill:#b3b3b3;stroke:#786721;stroke-width:.264583;stroke-linejoin:round"/><circle cx="113.355" cy="273.28" r="4.767" style="fill:#fff;stroke:#fff;stroke-width:.264582;stroke-linejoin:round"/><path d="M50.399 265.576h10.378v7.572H50.399z" style="fill:#b3b3b3;stroke:#786721;stroke-width:.264583;stroke-linejoin:round"/><circle cx="55.588" cy="273.28" r="4.767" style="fill:#fff;stroke:#fff;stroke-width:.264582;stroke-linejoin:round"/><path d="M84.472 230.77v34.807" style="fill:#fff;stroke:#4a0;stroke-width:.264583;stroke-linejoin:round;marker-start:url(#a);marker-end:url(#a)"/><text xml:space="preserve" style="font-size:16px;line-height:normal;font-family:&quot;Liberation Mono&quot;;-inkscape-font-specification:&quot;Liberation Mono&quot;;text-decoration-color:#000;white-space:pre;shape-inside:url(#b);display:inline;fill:green;stroke-width:1;-inkscape-stroke:none;stop-color:#000" transform="translate(64.958 55.694)scale(.26458)"><tspan x="76.582" y="732.748">H1</tspan></text><path d="m123.48 283.838 8.581-19.428" style="fill:green;stroke:#4a0;stroke-width:.264583;stroke-linejoin:round;marker-start:url(#a)"/><path d="m122.884 248.677 8.462 13.35" style="fill:green;stroke:#4a0;stroke-width:.264583;stroke-linejoin:round;marker-start:url(#a)"/><text xml:space="preserve" style="font-size:16px;line-height:normal;font-family:&quot;Liberation Mono&quot;;-inkscape-font-specification:&quot;Liberation Mono&quot;;text-decoration-color:#000;white-space:pre;shape-inside:url(#c);display:inline;fill:green;stroke-width:1;-inkscape-stroke:none;stop-color:#000" transform="translate(115.017 61.79)scale(.26458)"><tspan x="64.418" y="761.578">N1</tspan></text><path d="M105.638 307.052h2.529" style="fill:green;stroke:#d40000;stroke-width:.264583;stroke-linejoin:round;marker-start:url(#a);marker-end:url(#a)"/><text xml:space="preserve" style="font-size:16px;line-height:normal;font-family:&quot;Liberation Mono&quot;;-inkscape-font-specification:&quot;Liberation Mono&quot;;text-decoration-color:#000;white-space:pre;shape-inside:url(#d);fill:red;stroke-width:1;-inkscape-stroke:none;stop-color:#000" transform="translate(12.32 50.705)scale(.26458)"><tspan x="351.146" y="987.719">T1</tspan></text><path d="M63.305 304.935h42.333" style="fill:red;stroke:#d40000;stroke-width:.264583;stroke-linejoin:round;marker-start:url(#a);marker-end:url(#a)"/><text xml:space="preserve" style="font-size:16px;line-height:normal;font-family:&quot;Liberation Mono&quot;;-inkscape-font-specification:&quot;Liberation Mono&quot;;text-decoration-color:#000;white-space:pre;shape-inside:url(#e);fill:red;stroke-width:1;-inkscape-stroke:none;stop-color:#000" transform="translate(2.658 57.303)scale(.26458)"><tspan x="300" y="931.408">W1</tspan></text><path d="M108.167 304.935h10.377" style="fill:red;stroke:#d40000;stroke-width:.264583;stroke-linejoin:round;marker-start:url(#a);marker-end:url(#a)"/><path d="M118.544 307.052h2.528" style="fill:green;stroke:#d40000;stroke-width:.264583;stroke-linejoin:round;marker-start:url(#f);marker-end:url(#f)"/><text xml:space="preserve" style="font-size:16px;line-height:normal;font-family:&quot;Liberation Mono&quot;;-inkscape-font-specification:&quot;Liberation Mono&quot;;text-decoration-color:#000;white-space:pre;shape-inside:url(#g);fill:red;stroke-width:1;-inkscape-stroke:none;stop-color:#000" transform="translate(45.409 69.545)scale(.26458)"><tspan x="271.863" y="915.867">T2</tspan></text><text xml:space="preserve" style="font-size:16px;line-height:normal;font-family:&quot;Liberation Mono&quot;;-inkscape-font-specification:&quot;Liberation Mono&quot;;text-decoration-color:#000;white-space:pre;shape-inside:url(#h);fill:red;stroke-width:1;-inkscape-stroke:none;stop-color:#000" transform="translate(34.863 62.206)scale(.26458)"><tspan x="287.629" y="915.416">W2</tspan></text><path d="M63.305 287.062h6.478" style="fill:red;stroke:purple;stroke-width:.264583;stroke-linejoin:round;marker-start:url(#a);marker-end:url(#a)"/><text xml:space="preserve" style="font-size:16px;line-height:normal;font-family:&quot;Liberation Mono&quot;;-inkscape-font-specification:&quot;Liberation Mono&quot;;text-decoration-color:#000;white-space:pre;shape-inside:url(#i);fill:purple;stroke-width:1;-inkscape-stroke:none;stop-color:#000" transform="translate(45.517 80.383)scale(.26458)"><tspan x="70.275" y="796.809">W4</tspan></text><path d="M84.472 270.016v-4.518" style="fill:red;stroke:purple;stroke-width:.264583;stroke-linejoin:round;marker-start:url(#j);marker-end:url(#j)"/><path d="M72.39 276.514v-6.173" style="fill:red;stroke:purple;stroke-width:.264583;stroke-linejoin:round;marker-start:url(#k);marker-end:url(#k)"/><path d="M72.3 284.54V277" style="fill:red;stroke:purple;stroke-width:.264584;stroke-linejoin:round;marker-start:url(#l);marker-end:url(#l)"/><path d="M55.588 268.156v-2.608" style="fill:red;stroke:purple;stroke-width:.264583;stroke-linejoin:round;marker-start:url(#m);marker-end:url(#m)"/><text xml:space="preserve" style="font-size:16px;line-height:normal;font-family:&quot;Liberation Mono&quot;;-inkscape-font-specification:&quot;Liberation Mono&quot;;text-decoration-color:#000;white-space:pre;shape-inside:url(#n);fill:purple;stroke-width:1;-inkscape-stroke:none;stop-color:#000" transform="translate(6.087 -11.81)scale(.26458)"><tspan x="302.291" y="1062.428">Hf</tspan></text><text xml:space="preserve" style="font-size:16px;line-height:normal;font-family:&quot;Liberation Mono&quot;;-inkscape-font-specification:&quot;Liberation Mono&quot;;text-decoration-color:#000;white-space:pre;shape-inside:url(#o);fill:purple;stroke-width:1;-inkscape-stroke:none;stop-color:#000" transform="translate(-29.642 -19.332)scale(.26458)"><tspan x="315.908" y="1073.367">Hs</tspan></text><text xml:space="preserve" style="font-size:16px;line-height:normal;font-family:&quot;Liberation Mono&quot;;-inkscape-font-specification:&quot;Liberation Mono&quot;;text-decoration-color:#000;white-space:pre;shape-inside:url(#p);fill:purple;stroke-width:1;-inkscape-stroke:none;stop-color:#000" transform="translate(-5.67 -6.28)scale(.26458)"><tspan x="298.148" y="1062.428">H4</tspan></text><text xml:space="preserve" style="font-size:16px;line-height:normal;font-family:&quot;Liberation Mono&quot;;-inkscape-font-specification:&quot;Liberation Mono&quot;;text-decoration-color:#000;white-space:pre;shape-inside:url(#q);fill:purple;stroke-width:1;-inkscape-stroke:none;stop-color:#000" transform="translate(-7.802 -2.383)scale(.26458)"><tspan x="304.838" y="1075.416">H4b</tspan></text><path d="M46.283 216.23v88.627" style="fill:red;stroke:#666;stroke-width:.264583;stroke-linejoin:round;stroke-dasharray:none;marker-start:url(#r);marker-end:url(#r)"/><text xml:space="preserve" style="font-size:16px;line-height:normal;font-family:&quot;Liberation Mono&quot;;-inkscape-font-specification:&quot;Liberation Mono&quot;;text-decoration-color:#000;white-space:pre;shape-inside:url(#s);display:inline;fill:#000;stroke-width:1;-inkscape-stroke:none;stop-color:#000" transform="translate(-72.17 109.262)scale(.26458)"><tspan x="426.152" y="574.631">H3</tspan></text><path d="M51.986 216.273v9.945" style="fill:purple;stroke:#00f;stroke-width:.264583;stroke-linejoin:round;marker-start:url(#a);marker-end:url(#a)"/><text xml:space="preserve" style="font-size:16px;line-height:normal;font-family:&quot;Liberation Mono&quot;;-inkscape-font-specification:&quot;Liberation Mono&quot;;text-decoration-color:#000;white-space:pre;shape-inside:url(#t);fill:#00f;stroke-width:1;-inkscape-stroke:none;stop-color:#000" transform="translate(-7.459 5.878)scale(.26458)"><tspan x="225.205" y="819.176">H5</tspan></text><path d="M60.776 209.783h2.528v16.434h-2.528zM105.638 209.783h2.528v16.434h-2.528z" style="fill:#ccc;stroke:#786721;stroke-width:.264583;stroke-linejoin:round"/><path d="M109.342 209.783v16.12" style="fill:purple;stroke:#00f;stroke-width:.264583;stroke-linejoin:round;marker-start:url(#u);marker-end:url(#u)"/><text xml:space="preserve" style="font-size:16px;line-height:normal;font-family:&quot;Liberation Mono&quot;;-inkscape-font-specification:&quot;Liberation Mono&quot;;text-decoration-color:#000;white-space:pre;shape-inside:url(#v);fill:#00f;stroke-width:1;-inkscape-stroke:none;stop-color:#000" transform="translate(71.863 18.963)scale(.26458)"><tspan x="144.615" y="752.92">H6</tspan></text><path d="m60.776 209.783 23.696-30.174 23.695 30.174-2.661 2.348-21.034-27.39-21.167 27.053z" style="fill:#ccc;stroke:#786721;stroke-width:.264583;stroke-linejoin:round"/><path d="M109.342 179.609v30.174" style="fill:purple;stroke:#00f;stroke-width:.264582;stroke-linejoin:round;marker-start:url(#w);marker-end:url(#w)"/><text xml:space="preserve" style="font-size:16px;line-height:normal;font-family:&quot;Liberation Mono&quot;;-inkscape-font-specification:&quot;Liberation Mono&quot;;text-decoration-color:#000;white-space:pre;shape-inside:url(#x);fill:#00f;stroke-width:1;-inkscape-stroke:none;stop-color:#000" transform="translate(73.661 3.455)scale(.26458)"><tspan x="137.926" y="737.313">H7</tspan></text><path d="M92.938 201.541v24.288" style="fill:#ffd5d5;stroke:#ff8080;stroke-width:.264583;stroke-linejoin:round;marker-start:url(#a);marker-end:url(#a)"/><path d="M77.78 222.73h13.382" style="fill:#ffd5d5;stroke:#ff8080;stroke-width:.264583;stroke-linejoin:round;marker-start:url(#y);marker-end:url(#y)"/><text xml:space="preserve" style="font-size:16px;line-height:normal;font-family:&quot;Liberation Mono&quot;;-inkscape-font-specification:&quot;Liberation Mono&quot;;text-decoration-color:#000;white-space:pre;shape-inside:url(#z);fill:#f55;stroke-width:1;-inkscape-stroke:none;stop-color:#000" transform="translate(31.237 22.947)scale(.26458)"><tspan x="192.129" y="753.02">W8</tspan></text><text xml:space="preserve" style="font-size:16px;line-height:normal;font-family:&quot;Liberation Mono&quot;;-inkscape-font-specification:&quot;Liberation Mono&quot;;text-decoration-color:#000;white-space:pre;shape-inside:url(#A);fill:#f55;stroke-width:1;-inkscape-stroke:none;stop-color:#000" transform="translate(39.32 19.547)scale(.26458)"><tspan x="204.742" y="736.576">H8</tspan></text><text xml:space="preserve" style="font-size:16px;line-height:normal;font-family:&quot;Liberation Mono&quot;;-inkscape-font-specification:&quot;Liberation Mono&quot;;text-decoration-color:#000;white-space:pre;shape-inside:url(#B);display:inline;fill:maroon;stroke-width:1;-inkscape-stroke:none;stop-color:#000" transform="translate(17.145 24.215)scale(.26458)"><tspan x="82.438" y="581.838">showFloor:[On,Off]</tspan></text><path d="m70.606 225.098-9.59-45.792" style="fill:maroon;stroke:maroon;stroke-width:.264584;stroke-linejoin:round;marker-start:url(#C)"/></g></svg>