<svg xmlns="http://www.w3.org/2000/svg" width="510.94" height="487.966" viewBox="0 0 135.186 129.108"><defs><path id="o" d="M82.437 567.602h218.031v34.236H82.437z"/><path id="m" d="M463.151 596.936h61.796v47.143h-61.796z"/><path id="l" d="M279.674 273.622h30.898v28.668h-30.898z"/><path id="k" d="M281.904 231.257h40.454v30.261h-40.454z"/><path id="j" d="M573.007 220.734h33.335v32.885h-33.335z"/><path id="i" d="M252.267 557.691h56.362v48.652h-56.362z"/><path id="h" d="M426.152 560.394h65.896v43.246h-65.896z"/><path id="d" d="M239.654 240.104h41.606v24.326h-41.606z"/><path id="c" d="M283.801 265.782h51.805v27.271h-51.805z"/><path id="b" d="M260.826 341.912h50.003v30.182h-50.003z"/><path id="f" d="M239.654 240.104h41.606v24.326h-41.606z"/><path id="g" d="M283.801 265.782h51.805v27.271h-51.805z"/><marker id="a" markerHeight="1" markerWidth="1" orient="auto-start-reverse" preserveAspectRatio="xMidYMid" refX="0" refY="0" style="overflow:visible" viewBox="0 0 1 1"><path d="M3-3 0 0l3 3" style="fill:none;stroke:context-stroke;stroke-width:1;stroke-linecap:butt" transform="rotate(180 .125 0)"/></marker><marker id="e" markerHeight="1" markerWidth="1" orient="auto-start-reverse" preserveAspectRatio="xMidYMid" refX="0" refY="0" style="overflow:visible" viewBox="0 0 1 1"><path d="M3-3 0 0l3 3" style="fill:none;stroke:context-stroke;stroke-width:1;stroke-linecap:butt" transform="rotate(180 .125 0)"/></marker><marker id="n" markerHeight="1" markerWidth="1" orient="auto-start-reverse" preserveAspectRatio="xMidYMid" refX="0" refY="0" style="overflow:visible" viewBox="0 0 1 1"><path d="M3-3 0 0l3 3" style="fill:none;stroke:context-stroke;stroke-width:1;stroke-linecap:butt" transform="rotate(180 .125 0)"/></marker></defs><g transform="translate(-13.217 -18.7)"><path d="M13.349 18.832h134.922v128.843H13.349z" style="fill:#fff;stroke:#fff;stroke-width:.264583;stroke-linejoin:round;stroke-dasharray:none"/><path d="M130.055 24.109h5.292v5.292h-5.292zM108.889 45.276h5.292v5.292h-5.292zM114.18 29.401h15.875v15.875H114.18zM23.164 109.798h15.875v15.875H23.164zM17.873 125.673h5.292v5.292h-5.292zM39.039 104.506h5.292v5.292h-5.292z" style="fill:none;stroke:#786721;stroke-width:.264583;stroke-linejoin:round"/><rect width="117.475" height="106.855" x="17.873" y="24.109" ry="0" style="fill:#b3b3b3;stroke:#786721;stroke-width:.264583;stroke-linejoin:round"/><rect width="106.891" height="96.272" x="23.164" y="29.401" ry="0" style="fill:#e6e6e6;stroke:#786721;stroke-width:.264583;stroke-linejoin:round"/><rect width="75.141" height="64.522" x="39.039" y="45.276" ry="0" style="fill:#b3b3b3;stroke:#786721;stroke-width:.264583;stroke-linejoin:round"/><rect width="64.558" height="53.939" x="44.331" y="50.568" ry="0" style="fill:#fff;stroke:#786721;stroke-width:.264583;stroke-linejoin:round"/><path d="M105.067 50.568h3.821v5.222h-3.821zM44.331 50.568h3.821v5.222h-3.821z" style="fill:#b3b3b3;stroke:#a0892c;stroke-width:.264583;stroke-linejoin:round"/><path d="M100.422 50.568v53.938" style="fill:#999;stroke:#f60;stroke-width:.264583;stroke-linejoin:round;stroke-dasharray:none;marker-start:url(#a);marker-end:url(#a)"/><path d="M44.33 95.51h64.559" style="fill:#999;stroke:#f60;stroke-width:.264583;stroke-linejoin:round;stroke-dasharray:none;marker-start:url(#a);marker-end:url(#a)"/><text xml:space="preserve" style="font-size:16px;line-height:normal;font-family:&quot;Liberation Mono&quot;;-inkscape-font-specification:&quot;Liberation Mono&quot;;text-decoration-color:#000;white-space:pre;shape-inside:url(#b);display:inline;fill:#f60;stroke-width:1;-inkscape-stroke:none;stop-color:#000" transform="translate(4.917 -.934)scale(.26458)"><tspan x="260.826" y="356.149">L1</tspan></text><text xml:space="preserve" style="font-size:16px;line-height:normal;font-family:&quot;Liberation Mono&quot;;-inkscape-font-specification:&quot;Liberation Mono&quot;;text-decoration-color:#000;white-space:pre;shape-inside:url(#c);display:inline;fill:#f60;stroke-width:1;-inkscape-stroke:none;stop-color:#000" transform="translate(18.599 4.843)scale(.26458)"><tspan x="283.801" y="280.018">W1</tspan></text><path d="M76.61 45.276v5.292" style="fill:#55d400;stroke:red;stroke-width:.264583;stroke-linejoin:round;stroke-dasharray:none;marker-start:url(#a);marker-end:url(#a)"/><text xml:space="preserve" style="font-size:16px;line-height:normal;font-family:&quot;Liberation Mono&quot;;-inkscape-font-specification:&quot;Liberation Mono&quot;;text-decoration-color:#000;white-space:pre;shape-inside:url(#d);display:inline;fill:red;stroke:none;stroke-width:1;-inkscape-stroke:none;stop-color:#000" transform="translate(15.733 -17.979)scale(.26458)"><tspan x="239.654" y="254.342">T1</tspan></text><path d="M76.61 24.11v5.29" style="fill:#55d400;stroke:red;stroke-width:.264583;stroke-linejoin:round;stroke-dasharray:none;marker-start:url(#e);marker-end:url(#e)"/><text xml:space="preserve" style="font-size:16px;line-height:normal;font-family:&quot;Liberation Mono&quot;;-inkscape-font-specification:&quot;Liberation Mono&quot;;text-decoration-color:#000;white-space:pre;shape-inside:url(#f);display:inline;fill:red;stroke:none;stroke-width:1;-inkscape-stroke:none;stop-color:#000" transform="translate(15.733 -39.145)scale(.26458)"><tspan x="239.654" y="254.342">T2</tspan></text><path d="M76.61 29.4v15.876" style="fill:#55d400;stroke:red;stroke-width:.264583;stroke-linejoin:round;stroke-dasharray:none;marker-start:url(#a);marker-end:url(#a)"/><text xml:space="preserve" style="font-size:16px;line-height:normal;font-family:&quot;Liberation Mono&quot;;-inkscape-font-specification:&quot;Liberation Mono&quot;;text-decoration-color:#000;white-space:pre;shape-inside:url(#g);display:inline;fill:red;stroke:none;stroke-width:1;-inkscape-stroke:none;stop-color:#000" transform="translate(4.131 -34.756)scale(.26458)"><tspan x="283.801" y="280.018">W2</tspan></text><path d="M137.993 24.11v106.855" style="fill:red;stroke:#666;stroke-width:.264583;stroke-linejoin:round;stroke-dasharray:none;marker-start:url(#a);marker-end:url(#a)"/><text xml:space="preserve" style="font-size:16px;line-height:normal;font-family:&quot;Liberation Mono&quot;;-inkscape-font-specification:&quot;Liberation Mono&quot;;text-decoration-color:#000;white-space:pre;shape-inside:url(#h);display:inline;fill:#000;stroke-width:1;-inkscape-stroke:none;stop-color:#000" transform="translate(26.695 -73.106)scale(.26458)"><tspan x="426.152" y="574.631">W3</tspan></text><path d="M17.873 134.669h117.474" style="fill:red;stroke:#666;stroke-width:.264583;stroke-linejoin:round;stroke-dasharray:none;marker-start:url(#a);marker-end:url(#a)"/><text xml:space="preserve" style="font-size:16px;line-height:normal;font-family:&quot;Liberation Mono&quot;;-inkscape-font-specification:&quot;Liberation Mono&quot;;text-decoration-color:#000;white-space:pre;shape-inside:url(#i);display:inline;fill:#000;stroke-width:1;-inkscape-stroke:none;stop-color:#000" transform="translate(7.245 -11.204)scale(.26458)"><tspan x="252.268" y="571.928">L3</tspan></text><path d="M114.18 77.537h15.875v48.136H114.18z" style="fill:#fff;stroke:#a0892c;stroke-width:.264584;stroke-linejoin:round"/><path d="M114.18 93.923h15.875v5.292H114.18z" style="fill:#e9afaf;stroke:#f60;stroke-width:.264583;stroke-linejoin:round"/><path d="M44.331 99.284h3.821v5.222h-3.821zM105.067 99.284h3.821v5.222h-3.821zM74.699 99.284h3.821v5.222h-3.821zM74.699 50.568h3.821v5.222h-3.821z" style="fill:#b3b3b3;stroke:#a0892c;stroke-width:.264583;stroke-linejoin:round"/><path d="m48.987 56.376 11.918 11.8" style="fill:#b3b3b3;stroke:purple;stroke-width:.264583;stroke-linejoin:round;marker-start:url(#a)"/><path d="m61.859 68.057 12.143-12.404" style="fill:#b3b3b3;stroke:purple;stroke-width:.264583;stroke-linejoin:round;marker-end:url(#a)"/><text xml:space="preserve" style="font-size:16px;line-height:normal;font-family:&quot;Liberation Mono&quot;;-inkscape-font-specification:&quot;Liberation Mono&quot;;text-decoration-color:#000;white-space:pre;shape-inside:url(#j);display:inline;fill:purple;stroke-width:1;-inkscape-stroke:none;stop-color:#000" transform="translate(-92.133 9.297)scale(.26458)"><tspan x="573.008" y="234.971">N4</tspan></text><path d="M80.108 50.568v5.221" style="fill:purple;stroke:purple;stroke-width:.264583;stroke-linejoin:round;marker-start:url(#a);marker-end:url(#a)"/><path d="M74.7 56.848h3.82" style="fill:purple;stroke:purple;stroke-width:.264583;stroke-linejoin:round;marker-start:url(#a);marker-end:url(#a)"/><text xml:space="preserve" style="font-size:16px;line-height:normal;font-family:&quot;Liberation Mono&quot;;-inkscape-font-specification:&quot;Liberation Mono&quot;;text-decoration-color:#000;white-space:pre;shape-inside:url(#k);display:inline;fill:purple;stroke-width:1;-inkscape-stroke:none;stop-color:#000" transform="translate(-.843 -3.708)scale(.26458)"><tspan x="281.904" y="245.494">T4</tspan></text><text xml:space="preserve" style="font-size:16px;line-height:normal;font-family:&quot;Liberation Mono&quot;;-inkscape-font-specification:&quot;Liberation Mono&quot;;text-decoration-color:#000;white-space:pre;shape-inside:url(#l);display:inline;fill:purple;stroke-width:1;-inkscape-stroke:none;stop-color:#000" transform="translate(7.5 -21.66)scale(.26458)"><tspan x="279.674" y="287.859">W4</tspan></text><path d="M114.18 109.798h15.875v15.875H114.18z" style="fill:#f4d7d7;stroke:#f60;stroke-width:.264583;stroke-linejoin:round"/><path d="M114.18 104.506h15.875v5.292H114.18z" style="fill:#e9afaf;stroke:#f60;stroke-width:.264583;stroke-linejoin:round"/><path d="M114.18 99.215h15.875v5.292H114.18zM114.18 88.631h15.875v5.292H114.18z" style="fill:#e9afaf;stroke:#f60;stroke-width:.264583;stroke-linejoin:round"/><path d="M114.18 83.34h15.875v5.292H114.18zM114.18 77.784h15.875v5.292H114.18z" style="fill:#e9afaf;stroke:#f60;stroke-width:.264583;stroke-linejoin:round"/><text xml:space="preserve" style="font-size:16px;line-height:normal;font-family:&quot;Liberation Mono&quot;;-inkscape-font-specification:&quot;Liberation Mono&quot;;text-decoration-color:#000;white-space:pre;shape-inside:url(#m);fill:#a40;stroke-width:1;-inkscape-stroke:none;stop-color:#000" transform="translate(-3.203 -66.243)scale(.26458)"><tspan x="463.15" y="611.172">N3</tspan></text><path d="M121.362 96.5v10.787" style="fill:#803300;stroke:#803300;stroke-width:.264583;stroke-linejoin:round;marker-end:url(#a)"/><path d="M121.479 91.72V80.933" style="fill:#803300;stroke:#803300;stroke-width:.264583;stroke-linejoin:round;marker-end:url(#n)"/><text xml:space="preserve" style="font-size:16px;line-height:normal;font-family:&quot;Liberation Mono&quot;;-inkscape-font-specification:&quot;Liberation Mono&quot;;text-decoration-color:#000;white-space:pre;shape-inside:url(#o);fill:maroon;stroke-width:1;-inkscape-stroke:none;stop-color:#000" transform="translate(-5.84 -8.462)scale(.26458)"><tspan x="82.438" y="581.838">showExtWall:[On,Off]</tspan></text><path d="m50.655 131.465-4.529 10.846" style="fill:maroon;stroke:maroon;stroke-width:.264583;stroke-linejoin:round;marker-start:url(#a)"/></g></svg>