<svg xmlns="http://www.w3.org/2000/svg" width="263.969" height="198.963" viewBox="0 0 69.842 52.642"><defs><marker id="j" markerHeight="1" markerWidth="1" orient="auto-start-reverse" preserveAspectRatio="xMidYMid" refX="0" refY="0" style="overflow:visible" viewBox="0 0 1 1"><path d="M3-3 0 0l3 3" style="fill:none;stroke:context-stroke;stroke-width:1;stroke-linecap:butt" transform="rotate(180 .125 0)"/></marker><marker id="a" markerHeight="1" markerWidth="1" orient="auto-start-reverse" preserveAspectRatio="xMidYMid" refX="0" refY="0" style="overflow:visible" viewBox="0 0 1 1"><path d="M3-3 0 0l3 3" style="fill:none;stroke:context-stroke;stroke-width:1;stroke-linecap:butt" transform="rotate(180 .125 0)"/></marker><marker id="b" markerHeight="1" markerWidth="1" orient="auto-start-reverse" preserveAspectRatio="xMidYMid" refX="0" refY="0" style="overflow:visible" viewBox="0 0 1 1"><path d="M3-3 0 0l3 3" style="fill:none;stroke:context-stroke;stroke-width:1;stroke-linecap:butt" transform="rotate(180 .125 0)"/></marker><marker id="e" markerHeight="1" markerWidth="1" orient="auto-start-reverse" preserveAspectRatio="xMidYMid" refX="0" refY="0" style="overflow:visible" viewBox="0 0 1 1"><path d="M3-3 0 0l3 3" style="fill:none;stroke:context-stroke;stroke-width:1;stroke-linecap:butt" transform="rotate(180 .125 0)"/></marker><marker id="g" markerHeight="1" markerWidth="1" orient="auto-start-reverse" preserveAspectRatio="xMidYMid" refX="0" refY="0" style="overflow:visible" viewBox="0 0 1 1"><path d="M3-3 0 0l3 3" style="fill:none;stroke:context-stroke;stroke-width:1;stroke-linecap:butt" transform="rotate(180 .125 0)"/></marker><path id="i" d="M486.516 1588.834h50.904v43.696h-50.904z"/><path id="c" d="M192.129 738.783h38.573v23.072h-38.573z"/><path id="d" d="M204.742 722.341h48.992v24.037h-48.992z"/><path id="f" d="M333.791 1521.645h49.162v30.898h-49.162z"/><path id="h" d="M192.129 738.783h38.573v23.072h-38.573z"/></defs><g transform="translate(-50.854 -424.482)"><path d="M50.986 424.614h69.577v52.378H50.986z" style="fill:#fff;stroke:#fff;stroke-width:.264583;stroke-linejoin:round"/><path d="M56.361 428.424h58.827v45.848H56.361z" style="fill:#ececec;stroke:#fff;stroke-width:.264583;stroke-linejoin:round"/><path d="M94.77 441.655h10.24" style="fill:#ffd5d5;stroke:#ccc;stroke-width:.264583;stroke-linejoin:round"/><circle cx="94.771" cy="448.566" r="6.911" style="fill:#ffd5d5;stroke:#ffd5d5;stroke-width:.264583;stroke-linejoin:round"/><path d="M87.86 448.566h13.822v17.769H87.86z" style="fill:#ffd5d5;stroke:#ffd5d5;stroke-width:.264583;stroke-linejoin:round"/><path d="M103.237 441.658v24.287" style="fill:#ffd5d5;stroke:#ff8080;stroke-width:.264583;stroke-linejoin:round;marker-start:url(#a);marker-end:url(#a)"/><path d="M88.08 462.846h13.381" style="fill:#ffd5d5;stroke:#ff8080;stroke-width:.264583;stroke-linejoin:round;marker-start:url(#b);marker-end:url(#b)"/><text xml:space="preserve" style="font-size:16px;line-height:normal;font-family:&quot;Liberation Mono&quot;;-inkscape-font-specification:&quot;Liberation Mono&quot;;text-decoration-color:#000;white-space:pre;shape-inside:url(#c);display:inline;fill:#f55;stroke-width:1;-inkscape-stroke:none;stop-color:#000" transform="translate(39.948 263.064)scale(.26458)"><tspan x="192.129" y="753.02">wW2</tspan></text><text xml:space="preserve" style="font-size:16px;line-height:normal;font-family:&quot;Liberation Mono&quot;;-inkscape-font-specification:&quot;Liberation Mono&quot;;text-decoration-color:#000;white-space:pre;shape-inside:url(#d);display:inline;fill:#f55;stroke-width:1;-inkscape-stroke:none;stop-color:#000" transform="translate(49.618 259.664)scale(.26458)"><tspan x="204.742" y="736.576">wH2</tspan></text><path d="M85.775 466.482v7.314" style="fill:#ffd5d5;stroke:#ff8080;stroke-width:.264583;stroke-linejoin:round;marker-start:url(#e);marker-end:url(#e)"/><text xml:space="preserve" style="font-size:16px;line-height:normal;font-family:&quot;Liberation Mono&quot;;-inkscape-font-specification:&quot;Liberation Mono&quot;;text-decoration-color:#000;white-space:pre;shape-inside:url(#f);display:inline;fill:#f55;stroke-width:1;-inkscape-stroke:none;stop-color:#000" transform="translate(-1.697 65.166)scale(.26458)"><tspan x="333.791" y="1535.881">wS2</tspan></text><circle cx="76.451" cy="448.566" r="6.911" style="fill:#ffd5d5;stroke:#ffd5d5;stroke-width:.264583;stroke-linejoin:round"/><path d="M69.54 448.566h13.822v17.769H69.54z" style="fill:#ffd5d5;stroke:#ffd5d5;stroke-width:.264583;stroke-linejoin:round"/><path d="M83.912 449.32h3.397" style="fill:#ffd5d5;stroke:#ff8080;stroke-width:.264583;stroke-linejoin:round;marker-start:url(#g);marker-end:url(#g)"/><text xml:space="preserve" style="font-size:16px;line-height:normal;font-family:&quot;Liberation Mono&quot;;-inkscape-font-specification:&quot;Liberation Mono&quot;;text-decoration-color:#000;white-space:pre;shape-inside:url(#h);display:inline;fill:#f55;stroke-width:1;-inkscape-stroke:none;stop-color:#000" transform="translate(31.094 248.43)scale(.26458)"><tspan x="192.129" y="753.02">wE2</tspan></text><path d="M83.362 466.334h4.498" style="fill:#fff;stroke:#ccc;stroke-width:.264583;stroke-linejoin:round"/><text xml:space="preserve" style="font-size:16px;line-height:normal;font-family:&quot;Liberation Mono&quot;;-inkscape-font-specification:&quot;Liberation Mono&quot;;text-decoration-color:#000;white-space:pre;shape-inside:url(#i);fill:#f55;stroke-width:1;-inkscape-stroke:none;stop-color:#000" transform="translate(-46.796 13.23)scale(.26458)"><tspan x="486.516" y="1603.07">wN2</tspan></text><path d="m80.234 442.213 3.624-3.961" style="fill:#f55;stroke:#ff8080;stroke-width:.264583;stroke-linejoin:round;marker-start:url(#j)"/><path d="m86.723 437.83 3.961 4.636" style="fill:#f55;stroke:#ff8080;stroke-width:.264583;stroke-linejoin:round;marker-end:url(#j)"/></g></svg>