<svg xmlns="http://www.w3.org/2000/svg" width="481.209" height="366.788" viewBox="0 0 127.32 97.046"><defs><path id="m" d="M136.652 810.036h48.736v24.527h-48.736z"/><path id="l" d="M70.396 807.169h29.305v19.749H70.396z"/><path id="k" d="M480.67 897.633h29.305v20.386H480.67z"/><path id="h" d="M215.649 824.052h34.083v23.253h-34.083z"/><path id="f" d="M387.621 949.492h49.793v28.945h-49.793z"/><path id="e" d="M377.5 1006.864h63.517v30.564H377.5z"/><path id="d" d="M273.89 1023.034h66.671v34.702H273.89z"/><path id="c" d="M182.894 1043.499h56.21v34.944h-56.21z"/><path id="b" d="M111.268 1056.37h50.904v31.984h-50.904z"/><path id="j" d="M215.649 824.052h34.083v23.253h-34.083z"/><path id="n" d="M70.396 807.169h29.305v19.749H70.396z"/><path id="o" d="M136.652 810.036h48.736v24.527h-48.736z"/><marker id="a" markerHeight="1" markerWidth="1" orient="auto" preserveAspectRatio="xMidYMid" refX="0" refY="0" style="overflow:visible" viewBox="0 0 1 1"><path d="M0 4v-8" style="fill:none;stroke:context-stroke;stroke-width:1"/></marker><marker id="g" markerHeight="1" markerWidth="1" orient="auto-start-reverse" preserveAspectRatio="xMidYMid" refX="0" refY="0" style="overflow:visible" viewBox="0 0 1 1"><path d="M3-3 0 0l3 3" style="fill:none;stroke:context-stroke;stroke-width:1;stroke-linecap:butt" transform="rotate(180 .125 0)"/></marker><marker id="i" markerHeight="1" markerWidth="1" orient="auto-start-reverse" preserveAspectRatio="xMidYMid" refX="0" refY="0" style="overflow:visible" viewBox="0 0 1 1"><path d="M3-3 0 0l3 3" style="fill:none;stroke:context-stroke;stroke-width:1;stroke-linecap:butt" transform="rotate(180 .125 0)"/></marker></defs><g transform="translate(-9.164 -211.785)"><path d="M9.297 211.918h127.055v96.781H9.297z" style="fill:#fff;stroke:#fff;stroke-width:.264583;stroke-linejoin:round"/><path d="m46.945 264.277-9.45-21.44 15.747 17.35" style="fill:none;stroke:#ccc;stroke-width:.264583;stroke-linejoin:round"/><circle cx="95.287" cy="268.249" r="34.097" style="fill:none;stroke:#ccc;stroke-width:.264583;stroke-linejoin:round"/><path d="M95.287 268.249 92.83 234.24M73.209 242.187l22.078 26.062" style="fill:none;stroke:#ccc;stroke-width:.264583;stroke-linejoin:round"/><circle cx="37.496" cy="242.838" r="23.43" style="fill:none;stroke:#ccc;stroke-width:.264583;stroke-linejoin:round"/><path d="m22.323 275.07 24.61-10.788" style="fill:#fff;stroke:red;stroke-width:.264583;stroke-linejoin:round;marker-start:url(#a);marker-end:url(#a)"/><path d="m53.317 260.252 19.892-18.065" style="fill:#fff;stroke:red;stroke-width:.264583;stroke-linejoin:round;marker-start:url(#a);marker-end:url(#a)"/><path d="M53.25 260.179s-.868.763-1.324 1.117q-.814.634-1.68 1.198a24 24 0 0 1-1.697 1.002c-.528.284-1.617.786-1.617.786" style="fill:none;stroke:red;stroke-width:.264583;stroke-linejoin:round"/><path d="m92.83 234.24 31.663-2.264" style="fill:none;stroke:red;stroke-width:.264583;stroke-linejoin:round;marker-start:url(#a);marker-end:url(#a)"/><path d="M73.209 242.187s2.039-1.578 3.12-2.279c1.328-.862 2.697-1.673 4.124-2.36 1.47-.709 2.982-1.351 4.549-1.808 2.553-.745 7.837-1.5 7.837-1.5" style="fill:none;stroke:red;stroke-width:.264583;stroke-linejoin:round"/><text xml:space="preserve" style="font-size:16px;line-height:normal;font-family:&quot;Liberation Mono&quot;;-inkscape-font-specification:&quot;Liberation Mono&quot;;text-decoration-color:#000;white-space:pre;shape-inside:url(#b);display:inline;fill:#000;stroke-width:1;-inkscape-stroke:none;stop-color:#000" transform="translate(11.165 -12.939)scale(.26458)"><tspan x="111.268" y="1070.606">L1</tspan></text><text xml:space="preserve" style="font-size:16px;line-height:normal;font-family:&quot;Liberation Mono&quot;;-inkscape-font-specification:&quot;Liberation Mono&quot;;text-decoration-color:#000;white-space:pre;shape-inside:url(#c);display:inline;fill:#000;stroke-width:1;-inkscape-stroke:none;stop-color:#000" transform="translate(1.073 -13.588)scale(.26458)"><tspan x="182.895" y="1057.736">L2</tspan></text><text xml:space="preserve" style="font-size:16px;line-height:normal;font-family:&quot;Liberation Mono&quot;;-inkscape-font-specification:&quot;Liberation Mono&quot;;text-decoration-color:#000;white-space:pre;shape-inside:url(#d);display:inline;fill:#000;stroke-width:1;-inkscape-stroke:none;stop-color:#000" transform="translate(-11.204 -25.864)scale(.26458)"><tspan x="273.891" y="1037.272">L3</tspan></text><text xml:space="preserve" style="font-size:16px;line-height:normal;font-family:&quot;Liberation Mono&quot;;-inkscape-font-specification:&quot;Liberation Mono&quot;;text-decoration-color:#000;white-space:pre;shape-inside:url(#e);display:inline;fill:#000;stroke-width:1;-inkscape-stroke:none;stop-color:#000" transform="translate(-21.93 -34.326)scale(.26458)"><tspan x="377.5" y="1021.1">L4</tspan></text><text xml:space="preserve" style="font-size:16px;line-height:normal;font-family:&quot;Liberation Mono&quot;;-inkscape-font-specification:&quot;Liberation Mono&quot;;text-decoration-color:#000;white-space:pre;shape-inside:url(#f);display:inline;fill:#000;stroke-width:1;-inkscape-stroke:none;stop-color:#000" transform="translate(4.768 -23.242)scale(.26458)"><tspan x="387.621" y="963.729">L5</tspan></text><path d="M25.03 274.015h10.846M55.44 258.296h10.846M100.646 233.713h22.526" style="fill:none;stroke:green;stroke-width:.264583;stroke-linejoin:round"/><path d="M32.953 273.823s.718-.894.759-1.433c.044-.593-.59-1.685-.59-1.685" style="fill:none;stroke:#00f;stroke-width:.264583;stroke-linejoin:round;marker-end:url(#g)"/><text xml:space="preserve" style="font-size:16px;line-height:normal;font-family:&quot;Liberation Mono&quot;;-inkscape-font-specification:&quot;Liberation Mono&quot;;text-decoration-color:#000;white-space:pre;shape-inside:url(#h);fill:#000;stroke-width:1;-inkscape-stroke:none;stop-color:#000" transform="translate(-23.177 51.41)scale(.26458)"><tspan x="215.648" y="838.287">a1</tspan></text><path d="M59.67 258.07s1.236-1.023 1.306-1.639c.077-.679-1.016-1.927-1.016-1.927" style="fill:none;stroke:#00f;stroke-width:.264583;stroke-linejoin:round;marker-end:url(#i)"/><text xml:space="preserve" style="font-size:16px;line-height:normal;font-family:&quot;Liberation Mono&quot;;-inkscape-font-specification:&quot;Liberation Mono&quot;;text-decoration-color:#000;white-space:pre;shape-inside:url(#j);display:inline;fill:#000;stroke-width:1;-inkscape-stroke:none;stop-color:#000" transform="translate(4.58 35.06)scale(.26458)"><tspan x="215.648" y="838.287">a3</tspan></text><path d="M120.825 233.679s.47-.288.5-.528c.037-.304-.448-.8-.448-.8" style="fill:none;stroke:#00f;stroke-width:.264583;stroke-linejoin:round"/><text xml:space="preserve" style="font-size:16px;line-height:normal;font-family:&quot;Liberation Mono&quot;;-inkscape-font-specification:&quot;Liberation Mono&quot;;text-decoration-color:#000;white-space:pre;shape-inside:url(#k);fill:#000;stroke-width:1;-inkscape-stroke:none;stop-color:#000" transform="translate(-6.574 -3.371)scale(.26458)"><tspan x="480.67" y="911.869">a5</tspan></text><path d="M89.083 260.591s1.3-1.544 2.191-1.938c.957-.423 3.119-.337 3.119-.337" style="fill:none;stroke:purple;stroke-width:.264583;stroke-linejoin:round;marker-end:url(#g)"/><path d="M42.73 254.355s1.305-.176 1.854-.506c.528-.318 1.264-1.348 1.264-1.348" style="fill:none;stroke:purple;stroke-width:.264583;stroke-linejoin:round;marker-end:url(#g)"/><text xml:space="preserve" style="font-size:16px;line-height:normal;font-family:&quot;Liberation Mono&quot;;-inkscape-font-specification:&quot;Liberation Mono&quot;;text-decoration-color:#000;white-space:pre;shape-inside:url(#l);fill:#999;stroke-width:1;-inkscape-stroke:none;stop-color:#000" transform="translate(16.519 34.976)scale(.26458)"><tspan x="70.396" y="821.406">r2</tspan></text><text xml:space="preserve" style="font-size:16px;line-height:normal;font-family:&quot;Liberation Mono&quot;;-inkscape-font-specification:&quot;Liberation Mono&quot;;text-decoration-color:#000;white-space:pre;shape-inside:url(#m);fill:#999;stroke-width:1;-inkscape-stroke:none;stop-color:#000" transform="translate(8.175 39.274)scale(.26458)"><tspan x="136.652" y="824.274">a2</tspan></text><text xml:space="preserve" style="font-size:16px;line-height:normal;font-family:&quot;Liberation Mono&quot;;-inkscape-font-specification:&quot;Liberation Mono&quot;;text-decoration-color:#000;white-space:pre;shape-inside:url(#n);display:inline;fill:#999;stroke-width:1;-inkscape-stroke:none;stop-color:#000" transform="translate(58.73 39.325)scale(.26458)"><tspan x="70.396" y="821.406">r4</tspan></text><text xml:space="preserve" style="font-size:16px;line-height:normal;font-family:&quot;Liberation Mono&quot;;-inkscape-font-specification:&quot;Liberation Mono&quot;;text-decoration-color:#000;white-space:pre;shape-inside:url(#o);display:inline;fill:#999;stroke-width:1;-inkscape-stroke:none;stop-color:#000" transform="translate(51.735 39.915)scale(.26458)"><tspan x="136.652" y="824.274">a4</tspan></text></g></svg>