<svg xmlns="http://www.w3.org/2000/svg" width="300.567" height="112.268" viewBox="0 0 79.525 29.704"><defs><marker id="a" markerHeight="1" markerWidth="1" orient="auto-start-reverse" preserveAspectRatio="xMidYMid" refX="0" refY="0" style="overflow:visible" viewBox="0 0 1 1"><path d="M3-3 0 0l3 3" style="fill:none;stroke:context-stroke;stroke-width:1;stroke-linecap:butt" transform="rotate(180 .125 0)"/></marker><marker id="b" markerHeight="1" markerWidth="1" orient="auto-start-reverse" preserveAspectRatio="xMidYMid" refX="0" refY="0" style="overflow:visible" viewBox="0 0 1 1"><path d="M3-3 0 0l3 3" style="fill:none;stroke:context-stroke;stroke-width:1;stroke-linecap:butt" transform="rotate(180 .125 0)"/></marker><marker id="e" markerHeight="1" markerWidth="1" orient="auto-start-reverse" preserveAspectRatio="xMidYMid" refX="0" refY="0" style="overflow:visible" viewBox="0 0 1 1"><path d="M3-3 0 0l3 3" style="fill:none;stroke:context-stroke;stroke-width:1;stroke-linecap:butt" transform="rotate(180 .125 0)"/></marker><marker id="f" markerHeight="1" markerWidth="1" orient="auto-start-reverse" preserveAspectRatio="xMidYMid" refX="0" refY="0" style="overflow:visible" viewBox="0 0 1 1"><path d="M3-3 0 0l3 3" style="fill:none;stroke:context-stroke;stroke-width:1;stroke-linecap:butt" transform="rotate(180 .125 0)"/></marker><marker id="g" markerHeight="1" markerWidth="1" orient="auto-start-reverse" preserveAspectRatio="xMidYMid" refX="0" refY="0" style="overflow:visible" viewBox="0 0 1 1"><path d="M3-3 0 0l3 3" style="fill:none;stroke:context-stroke;stroke-width:1;stroke-linecap:butt" transform="rotate(180 .125 0)"/></marker><path id="c" d="M416.963 792.835h35.039v21.979h-35.039z"/><path id="d" d="M416.963 792.835h35.039v21.979h-35.039z"/><path id="h" d="M373.005 795.384h22.935v18.794h-22.935z"/><path id="i" d="M416.963 792.835h35.039v21.979h-35.039z"/><path id="j" d="M442.765 760.982h28.35v18.475h-28.35z"/></defs><path d="M34.196 133.838h79.261v29.44H34.196z" style="fill:#fff;stroke:#fff;stroke-width:.264583;stroke-linejoin:round" transform="translate(-34.064 -133.706)"/><path d="M48.567 140.735h6.22" style="fill:#c8ab37;stroke:#00f;stroke-width:.264583;stroke-linejoin:round;marker-start:url(#a);marker-end:url(#a)" transform="translate(-34.064 -133.706)"/><path d="M94.294 142.544v7.657" style="fill:#c8ab37;stroke:#00f;stroke-width:.264582;stroke-linejoin:round;marker-start:url(#b);marker-end:url(#b)" transform="translate(-34.064 -133.706)"/><text xml:space="preserve" style="font-size:16px;line-height:normal;font-family:&quot;Liberation Mono&quot;;-inkscape-font-specification:&quot;Liberation Mono&quot;;text-decoration-color:#000;white-space:pre;shape-inside:url(#c);display:inline;fill:#000;stroke-width:1;-inkscape-stroke:none;stop-color:#000" transform="translate(-38.209 -191.079)scale(.26458)"><tspan x="416.963" y="807.072">H1</tspan></text><text xml:space="preserve" style="font-size:16px;line-height:normal;font-family:&quot;Liberation Mono&quot;;-inkscape-font-specification:&quot;Liberation Mono&quot;;text-decoration-color:#000;white-space:pre;shape-inside:url(#d);display:inline;fill:#000;stroke-width:1;-inkscape-stroke:none;stop-color:#000" transform="translate(-48.301 -199.455)scale(.26458)"><tspan x="416.963" y="807.072">H2</tspan></text><path d="M38.2 150.598h64.699v8.345H38.2z" style="fill:#c8ab37;stroke:#786721;stroke-width:.264583;stroke-linejoin:round" transform="translate(-34.064 -133.706)"/><path d="M48.432 142.19h6.492v8.408h-6.492zM86.215 142.199h6.492v8.408h-6.492z" style="fill:#b3b3b3;stroke:#666;stroke-width:.264583;stroke-linejoin:round" transform="translate(-34.064 -133.706)"/><path d="M55.306 146.394h30.506" style="fill:#c8ab37;stroke:#00f;stroke-width:.264583;stroke-linejoin:round;marker-start:url(#e);marker-end:url(#e)" transform="translate(-34.064 -133.706)"/><path d="M38.337 149.01h9.573" style="fill:#c8ab37;stroke:#00f;stroke-width:.264583;stroke-linejoin:round;marker-start:url(#f);marker-end:url(#f)" transform="translate(-34.064 -133.706)"/><path d="M104.772 150.733v8.075" style="fill:#c8ab37;stroke:#00f;stroke-width:.264583;stroke-linejoin:round;marker-start:url(#g);marker-end:url(#g)" transform="translate(-34.064 -133.706)"/><text xml:space="preserve" style="font-size:16px;line-height:normal;font-family:&quot;Liberation Mono&quot;;-inkscape-font-specification:&quot;Liberation Mono&quot;;text-decoration-color:#000;white-space:pre;shape-inside:url(#h);display:inline;fill:#000;stroke-width:1;-inkscape-stroke:none;stop-color:#000" transform="translate(-63.655 -202.47)scale(.26458)"><tspan x="373.006" y="809.619">W1</tspan></text><text xml:space="preserve" style="font-size:16px;line-height:normal;font-family:&quot;Liberation Mono&quot;;-inkscape-font-specification:&quot;Liberation Mono&quot;;text-decoration-color:#000;white-space:pre;shape-inside:url(#i);display:inline;fill:#000;stroke-width:1;-inkscape-stroke:none;stop-color:#000" transform="translate(-95.13 -208.023)scale(.26458)"><tspan x="416.963" y="807.072">T1</tspan></text><text xml:space="preserve" style="font-size:16px;line-height:normal;font-family:&quot;Liberation Mono&quot;;-inkscape-font-specification:&quot;Liberation Mono&quot;;text-decoration-color:#000;white-space:pre;shape-inside:url(#j);display:inline;fill:#000;stroke-width:1;-inkscape-stroke:none;stop-color:#000" transform="translate(-110.116 -190.788)scale(.26458)"><tspan x="442.764" y="775.219">S1</tspan></text></svg>