<svg xmlns="http://www.w3.org/2000/svg" width="405.243" height="137.982" viewBox="0 0 107.221 36.508"><defs><path id="e" d="M373.005 795.384h22.935v18.794h-22.935z"/><path id="f" d="M416.963 792.835h35.039v21.979h-35.039z"/><path id="g" d="M442.765 760.982h28.35v18.475h-28.35z"/><path id="h" d="M163.409 799.525h35.357v20.386h-35.357z"/><path id="i" d="M194.625 789.968h35.357v21.66h-35.357z"/><marker id="a" markerHeight="1" markerWidth="1" orient="auto-start-reverse" preserveAspectRatio="xMidYMid" refX="0" refY="0" style="overflow:visible" viewBox="0 0 1 1"><path d="M3-3 0 0l3 3" style="fill:none;stroke:context-stroke;stroke-width:1;stroke-linecap:butt" transform="rotate(180 .125 0)"/></marker><marker id="b" markerHeight="1" markerWidth="1" orient="auto-start-reverse" preserveAspectRatio="xMidYMid" refX="0" refY="0" style="overflow:visible" viewBox="0 0 1 1"><path d="M3-3 0 0l3 3" style="fill:none;stroke:context-stroke;stroke-width:1;stroke-linecap:butt" transform="rotate(180 .125 0)"/></marker><marker id="c" markerHeight="1" markerWidth="1" orient="auto-start-reverse" preserveAspectRatio="xMidYMid" refX="0" refY="0" style="overflow:visible" viewBox="0 0 1 1"><path d="M3-3 0 0l3 3" style="fill:none;stroke:context-stroke;stroke-width:1;stroke-linecap:butt" transform="rotate(180 .125 0)"/></marker><marker id="d" markerHeight="1" markerWidth="1" orient="auto-start-reverse" preserveAspectRatio="xMidYMid" refX="0" refY="0" style="overflow:visible" viewBox="0 0 1 1"><path d="M3-3 0 0l3 3" style="fill:none;stroke:context-stroke;stroke-width:1;stroke-linecap:butt" transform="rotate(180 .125 0)"/></marker></defs><path d="M21.73 29.013h106.956v36.243H21.73z" style="fill:#fff;stroke:#fff;stroke-width:.264583;stroke-linejoin:round" transform="translate(-21.598 -28.88)"/><path d="M42.364 38.313h5.879v19.55h-5.879zM57.325 38.313h5.879v19.55h-5.879zM72.287 38.313h5.879v19.55h-5.879zM87.248 38.313h5.879v19.55h-5.879zM102.209 38.313h5.879v19.55h-5.879zM27.403 38.313h5.879v19.55h-5.879z" style="fill:#c8ab37;stroke:#786721;stroke-width:.264583;stroke-linejoin:round" transform="translate(-21.598 -28.88)"/><path d="M27.404 48.022H110.4" style="fill:red;stroke:red;stroke-width:.264583;stroke-linejoin:round" transform="translate(-21.598 -28.88)"/><path d="M27.404 41.347h82.875v1.786H27.404zM27.404 52.91h82.875v1.786H27.404z" style="fill:#b3b3b3;stroke:#666;stroke-width:.264583;stroke-linejoin:round" transform="translate(-21.598 -28.88)"/><path d="M110.279 43.134v9.776" style="fill:#c8ab37;stroke:#00f;stroke-width:.264583;stroke-linejoin:round;marker-start:url(#a);marker-end:url(#a)" transform="translate(-21.598 -28.88)"/><path d="M112.885 38.547v2.567" style="fill:#c8ab37;stroke:#00f;stroke-width:.264583;stroke-linejoin:round;marker-start:url(#b);marker-end:url(#b)" transform="translate(-21.598 -28.88)"/><path d="M110.279 43.134h7.818M110.279 41.347h7.818M108.089 38.313h5.683" style="fill:#c8ab37;stroke:#999;stroke-width:.264583;stroke-linejoin:round" transform="translate(-21.598 -28.88)"/><path d="M118.097 38.78v2.567" style="fill:#c8ab37;stroke:#00f;stroke-width:.264583;stroke-linejoin:round;marker-end:url(#c)" transform="translate(-21.598 -28.88)"/><path d="M118.097 45.7v-2.566" style="fill:#c8ab37;stroke:#00f;stroke-width:.264583;stroke-linejoin:round;marker-end:url(#d)" transform="translate(-21.598 -28.88)"/><text xml:space="preserve" style="font-size:16px;line-height:normal;font-family:&quot;Liberation Mono&quot;;-inkscape-font-specification:&quot;Liberation Mono&quot;;text-decoration-color:#000;white-space:pre;shape-inside:url(#e);display:inline;fill:#000;stroke-width:1;-inkscape-stroke:none;stop-color:#000" transform="translate(-9.24 -194.16)scale(.26458)"><tspan x="373.006" y="809.619">W1</tspan></text><text xml:space="preserve" style="font-size:16px;line-height:normal;font-family:&quot;Liberation Mono&quot;;-inkscape-font-specification:&quot;Liberation Mono&quot;;text-decoration-color:#000;white-space:pre;shape-inside:url(#f);display:inline;fill:#000;stroke-width:1;-inkscape-stroke:none;stop-color:#000" transform="translate(-12.588 -198.88)scale(.26458)"><tspan x="416.963" y="807.072">T1</tspan></text><text xml:space="preserve" style="font-size:16px;line-height:normal;font-family:&quot;Liberation Mono&quot;;-inkscape-font-specification:&quot;Liberation Mono&quot;;text-decoration-color:#000;white-space:pre;shape-inside:url(#g);display:inline;fill:#000;stroke-width:1;-inkscape-stroke:none;stop-color:#000" transform="translate(-27.337 -196.772)scale(.26458)"><tspan x="442.764" y="775.219">S1</tspan></text><path d="M33.282 48.022h9.082" style="fill:#c8ab37;stroke:#00f;stroke-width:.264583;stroke-linejoin:round;marker-start:url(#a);marker-end:url(#a)" transform="translate(-21.598 -28.88)"/><path d="M27.403 58.921h5.879" style="fill:#c8ab37;stroke:#00f;stroke-width:.264583;stroke-linejoin:round;marker-start:url(#a);marker-end:url(#a)" transform="translate(-21.598 -28.88)"/><text xml:space="preserve" style="font-size:16px;line-height:normal;font-family:&quot;Liberation Mono&quot;;-inkscape-font-specification:&quot;Liberation Mono&quot;;text-decoration-color:#000;white-space:pre;shape-inside:url(#h);display:inline;fill:#000;stroke-width:1;-inkscape-stroke:none;stop-color:#000" transform="translate(-37.096 -180.928)scale(.26458)"><tspan x="163.408" y="813.762">B1</tspan></text><text xml:space="preserve" style="font-size:16px;line-height:normal;font-family:&quot;Liberation Mono&quot;;-inkscape-font-specification:&quot;Liberation Mono&quot;;text-decoration-color:#000;white-space:pre;shape-inside:url(#i);display:inline;fill:#000;stroke-width:1;-inkscape-stroke:none;stop-color:#000" transform="translate(-37.703 -189.919)scale(.26458)"><tspan x="194.625" y="804.205">B2</tspan></text></svg>