<svg xmlns="http://www.w3.org/2000/svg" width="523.554" height="395.618" viewBox="0 0 138.524 104.674"><defs><path id="k" d="M309.928 487.417h52.255v34.236h-52.255z"/><path id="j" d="M379.752 419.394h54.508v43.696h-54.508z"/><path id="i" d="M391.465 437.414h58.112v27.479h-58.112z"/><path id="g" d="M353.174 471.65h52.255v43.246h-52.255z"/><path id="f" d="M168.028 510.391h47.751v34.236h-47.751z"/><path id="d" d="M341.237 326.146h30.182v20.947h-30.182z"/><path id="c" d="M333.835 279.296h49.746v36.038h-49.746z"/><path id="e" d="M333.835 279.296h49.746v36.038h-49.746z"/><path id="h" d="M353.174 471.65h52.255v43.246h-52.255z"/><path id="l" d="M379.752 419.394h54.508v43.696h-54.508z"/><marker id="a" markerHeight="1" markerWidth="1" orient="auto-start-reverse" preserveAspectRatio="xMidYMid" refX="0" refY="0" style="overflow:visible" viewBox="0 0 1 1"><path d="M3-3 0 0l3 3" style="fill:none;stroke:context-stroke;stroke-width:1;stroke-linecap:butt" transform="rotate(180 .125 0)"/></marker><marker id="b" markerHeight="1" markerWidth="1" orient="auto-start-reverse" preserveAspectRatio="xMidYMid" refX="0" refY="0" style="overflow:visible" viewBox="0 0 1 1"><path d="M3-3 0 0l3 3" style="fill:none;stroke:context-stroke;stroke-width:1;stroke-linecap:butt" transform="rotate(180 .125 0)"/></marker></defs><g transform="translate(-6.542 -24.659)"><path d="M6.675 24.791h138.259V129.2H6.675z" style="fill:#fff;stroke:#fff;stroke-width:.264583;stroke-linejoin:round"/><circle cx="61.728" cy="104.794" r="22.467" style="fill:none;stroke:#ccc;stroke-width:.264583;stroke-linejoin:round"/><path d="m46.168 88.989 15.56 15.805" style="fill:#fff;stroke:#00f;stroke-width:.264583;stroke-linejoin:round;marker-start:url(#a);marker-end:url(#a)"/><path d="m61.728 104.794 6.467-21.517" style="fill:none;stroke:#b3b3b3;stroke-width:.264583;stroke-linejoin:round"/><path d="m88.297 60.992-7.73 25.699" style="fill:none;stroke:#00f;stroke-width:.264581;stroke-linejoin:round;marker-start:url(#a);marker-end:url(#a)"/><circle cx="88.453" cy="60.511" r="27.592" style="fill:none;stroke:#ccc;stroke-width:.264583;stroke-linejoin:round"/><path d="m88.453 60.51 8.288 26.319" style="fill:none;stroke:#b3b3b3;stroke-width:.264583;stroke-linejoin:round"/><path d="m96.72 86.79 44.358-14.032" style="fill:none;stroke:red;stroke-width:.264583;stroke-linejoin:round"/><path d="M45.966 88.784 76.955 58.27" style="fill:#fff;stroke:#e6e6e6;stroke-width:.264583;stroke-linejoin:round"/><path d="m68.195 83.277-31.258-9.433M111.752 96.363 80.494 86.93M70.349 95.094l26.379-8.306" style="fill:none;stroke:#e6e6e6;stroke-width:.264583;stroke-linejoin:round"/><path d="M58.7 76.248s.733 1.181.775 1.848c.047.74-.596 2.145-.596 2.145" style="fill:none;stroke:green;stroke-width:.264583;stroke-linejoin:round;marker-end:url(#a)"/><path d="M58.395 101.176s1.19-.719 1.856-.753c.741-.038 2.138.621 2.138.621" style="fill:none;stroke:green;stroke-width:.264583;stroke-linejoin:round;marker-end:url(#b)"/><path d="M45.966 88.784s2.195-1.957 3.419-2.763c1.21-.796 2.496-1.499 3.846-2.026a25.2 25.2 0 0 1 5.56-1.475 21.3 21.3 0 0 1 4.705-.124c1.588.127 4.699.881 4.699.881" style="fill:none;stroke:red;stroke-width:.264583;stroke-linejoin:round"/><path d="m14.899 119.216 30.989-30.512" style="fill:#fff;stroke:red;stroke-width:.264583;stroke-linejoin:round"/><path d="m80.493 86.933-12.298-3.656" style="fill:none;stroke:red;stroke-width:.264583;stroke-linejoin:round"/><text xml:space="preserve" style="font-size:16px;line-height:normal;font-family:&quot;Liberation Mono&quot;;-inkscape-font-specification:&quot;Liberation Mono&quot;;text-decoration-color:#000;white-space:pre;shape-inside:url(#c);fill:#000;stroke-width:1;-inkscape-stroke:none;stop-color:#000" transform="translate(-28.28 1.577)scale(.26458)"><tspan x="333.836" y="293.533">a1</tspan></text><text xml:space="preserve" style="font-size:16px;line-height:normal;font-family:&quot;Liberation Mono&quot;;-inkscape-font-specification:&quot;Liberation Mono&quot;;text-decoration-color:#000;white-space:pre;shape-inside:url(#d);fill:#000;stroke-width:1;-inkscape-stroke:none;stop-color:#000" transform="translate(-42.431 9.522)scale(.26458)"><tspan x="341.236" y="340.383">r1</tspan></text><text xml:space="preserve" style="font-size:16px;line-height:normal;font-family:&quot;Liberation Mono&quot;;-inkscape-font-specification:&quot;Liberation Mono&quot;;text-decoration-color:#000;white-space:pre;shape-inside:url(#e);display:inline;fill:#000;stroke-width:1;-inkscape-stroke:none;stop-color:#000" transform="translate(-30.169 21.876)scale(.26458)"><tspan x="333.836" y="293.533">a1</tspan></text><path d="M80.494 86.93s2.883.731 4.353.936c1.193.167 2.402.246 3.606.237 1.49-.012 2.984-.12 4.453-.362 1.296-.212 3.822-.953 3.822-.953M13.35 117.997l2.621 2.145M44.815 87.723l1.311 1.311M68.414 82.002l-.357 1.788M80.333 86.889l-.238 1.192" style="fill:none;stroke:red;stroke-width:.264583;stroke-linejoin:round"/><text xml:space="preserve" style="font-size:16px;line-height:normal;font-family:&quot;Liberation Mono&quot;;-inkscape-font-specification:&quot;Liberation Mono&quot;;text-decoration-color:#000;white-space:pre;shape-inside:url(#f);fill:#000;stroke-width:1;-inkscape-stroke:none;stop-color:#000" transform="translate(-21.692 -33.73)scale(.26458)"><tspan x="168.027" y="524.627">L1</tspan></text><text xml:space="preserve" style="font-size:16px;line-height:normal;font-family:&quot;Liberation Mono&quot;;-inkscape-font-specification:&quot;Liberation Mono&quot;;text-decoration-color:#000;white-space:pre;shape-inside:url(#g);fill:#000;stroke-width:1;-inkscape-stroke:none;stop-color:#000" transform="translate(-21.93 -39.213)scale(.26458)"><tspan x="353.174" y="485.887">L2</tspan></text><text xml:space="preserve" style="font-size:16px;line-height:normal;font-family:&quot;Liberation Mono&quot;;-inkscape-font-specification:&quot;Liberation Mono&quot;;text-decoration-color:#000;white-space:pre;shape-inside:url(#h);display:inline;fill:#000;stroke-width:1;-inkscape-stroke:none;stop-color:#000" transform="translate(29.203 -45.692)scale(.26458)"><tspan x="353.174" y="485.887">L3</tspan></text><path d="m96.424 86.054.596 1.55M140.643 71.394l.953 2.384" style="fill:none;stroke:red;stroke-width:.264583;stroke-linejoin:round"/><text xml:space="preserve" style="font-size:16px;line-height:normal;font-family:&quot;Liberation Mono&quot;;-inkscape-font-specification:&quot;Liberation Mono&quot;;text-decoration-color:#000;white-space:pre;shape-inside:url(#i);fill:#000;stroke-width:1;-inkscape-stroke:none;stop-color:#000" transform="translate(-25.268 -43.227)scale(.26458)"><tspan x="391.465" y="451.651">r2</tspan></text><path d="M98.092 92.014s1.404-1.618 1.55-2.622c.141-.973-.715-2.86-.715-2.86" style="fill:none;stroke:green;stroke-width:.264583;stroke-linejoin:round;marker-end:url(#a)"/><text xml:space="preserve" style="font-size:16px;line-height:normal;font-family:&quot;Liberation Mono&quot;;-inkscape-font-specification:&quot;Liberation Mono&quot;;text-decoration-color:#000;white-space:pre;shape-inside:url(#j);fill:#000;stroke-width:1;-inkscape-stroke:none;stop-color:#000" transform="translate(-.238 -23.838)scale(.26458)"><tspan x="379.752" y="433.631">a2</tspan></text><path d="M14.899 119.216h17.52" style="fill:none;stroke:gray;stroke-width:.264583;stroke-linejoin:round"/><path d="M22.05 118.95s1.012-1.963.834-2.98c-.177-1.01-1.788-2.502-1.788-2.502" style="fill:none;stroke:green;stroke-width:.264583;stroke-linejoin:round;marker-end:url(#a)"/><text xml:space="preserve" style="font-size:16px;line-height:normal;font-family:&quot;Liberation Mono&quot;;-inkscape-font-specification:&quot;Liberation Mono&quot;;text-decoration-color:#000;white-space:pre;shape-inside:url(#k);fill:#000;stroke-width:1;-inkscape-stroke:none;stop-color:#000" transform="translate(-58.283 -15.256)scale(.26458)"><tspan x="309.928" y="501.652">a0</tspan></text><path d="M85.935 69.13s1.289 1.362 2.146 1.43c1.045.083 2.86-1.311 2.86-1.311" style="fill:none;stroke:green;stroke-width:.264583;stroke-linejoin:round;marker-end:url(#a)"/><text xml:space="preserve" style="font-size:16px;line-height:normal;font-family:&quot;Liberation Mono&quot;;-inkscape-font-specification:&quot;Liberation Mono&quot;;text-decoration-color:#000;white-space:pre;shape-inside:url(#l);display:inline;fill:#000;stroke-width:1;-inkscape-stroke:none;stop-color:#000" transform="translate(-14.437 -40.771)scale(.26458)"><tspan x="379.752" y="433.631">a2</tspan></text></g></svg>