<svg xmlns="http://www.w3.org/2000/svg" width="305.072" height="76.23" viewBox="0 0 80.717 20.169"><defs><marker id="a" markerHeight="1" markerWidth="1" orient="auto-start-reverse" preserveAspectRatio="xMidYMid" refX="0" refY="0" style="overflow:visible" viewBox="0 0 1 1"><path d="M3-3 0 0l3 3" style="fill:none;stroke:context-stroke;stroke-width:1;stroke-linecap:butt" transform="rotate(180 .125 0)"/></marker><marker id="c" markerHeight="1" markerWidth="1" orient="auto-start-reverse" preserveAspectRatio="xMidYMid" refX="0" refY="0" style="overflow:visible" viewBox="0 0 1 1"><path d="M3-3 0 0l3 3" style="fill:none;stroke:context-stroke;stroke-width:1;stroke-linecap:butt" transform="rotate(180 .125 0)"/></marker><marker id="e" markerHeight="1" markerWidth="1" orient="auto-start-reverse" preserveAspectRatio="xMidYMid" refX="0" refY="0" style="overflow:visible" viewBox="0 0 1 1"><path d="M3-3 0 0l3 3" style="fill:none;stroke:context-stroke;stroke-width:1;stroke-linecap:butt" transform="rotate(180 .125 0)"/></marker><marker id="f" markerHeight="1" markerWidth="1" orient="auto-start-reverse" preserveAspectRatio="xMidYMid" refX="0" refY="0" style="overflow:visible" viewBox="0 0 1 1"><path d="M3-3 0 0l3 3" style="fill:none;stroke:context-stroke;stroke-width:1;stroke-linecap:butt" transform="rotate(180 .125 0)"/></marker><marker id="g" markerHeight="1" markerWidth="1" orient="auto-start-reverse" preserveAspectRatio="xMidYMid" refX="0" refY="0" style="overflow:visible" viewBox="0 0 1 1"><path d="M3-3 0 0l3 3" style="fill:none;stroke:context-stroke;stroke-width:1;stroke-linecap:butt" transform="rotate(180 .125 0)"/></marker><path id="b" d="M163.409 799.525h35.357v20.386h-35.357z"/><path id="d" d="M194.625 789.968h35.357v21.66h-35.357z"/><path id="h" d="M416.963 792.835h35.039v21.979h-35.039z"/><path id="i" d="M416.963 792.835h35.039v21.979h-35.039z"/></defs><path d="M26.568 99.392h80.452v19.905H26.568z" style="fill:#fff;stroke:#fff;stroke-width:.264583;stroke-linejoin:round" transform="translate(-26.436 -99.26)"/><path d="M44.344 107.368h5.879v2.862h-5.879zM59.306 107.368h5.879v2.862h-5.879zM74.267 107.368h5.879v2.862h-5.879zM29.383 107.368h5.879v2.862h-5.879z" style="fill:#c8ab37;stroke:#786721;stroke-width:.264583;stroke-linejoin:round" transform="translate(-26.436 -99.26)"/><path d="M29.383 111.818h5.88" style="fill:#c8ab37;stroke:#00f;stroke-width:.264583;stroke-linejoin:round;marker-start:url(#a);marker-end:url(#a)" transform="translate(-26.436 -99.26)"/><text xml:space="preserve" style="font-size:16px;line-height:normal;font-family:&quot;Liberation Mono&quot;;-inkscape-font-specification:&quot;Liberation Mono&quot;;text-decoration-color:#000;white-space:pre;shape-inside:url(#b);display:inline;fill:#000;stroke-width:1;-inkscape-stroke:none;stop-color:#000" transform="translate(-39.954 -198.41)scale(.26458)"><tspan x="163.408" y="813.762">B1</tspan></text><path d="M35.637 109.172h8.343" style="fill:#c8ab37;stroke:#00f;stroke-width:.264583;stroke-linejoin:round;marker-start:url(#c);marker-end:url(#c)" transform="translate(-26.436 -99.26)"/><text xml:space="preserve" style="font-size:16px;line-height:normal;font-family:&quot;Liberation Mono&quot;;-inkscape-font-specification:&quot;Liberation Mono&quot;;text-decoration-color:#000;white-space:pre;shape-inside:url(#d);display:inline;fill:#000;stroke-width:1;-inkscape-stroke:none;stop-color:#000" transform="translate(-40.561 -199.148)scale(.26458)"><tspan x="194.625" y="804.205">B2</tspan></text><path d="M29.383 103.728h55.62v3.641h-55.62z" style="fill:#b3b3b3;stroke:#666;stroke-width:.264583;stroke-linejoin:round" transform="translate(-26.436 -99.26)"/><path d="M87.61 103.908v3.167" style="fill:#c8ab37;stroke:#00f;stroke-width:.264583;stroke-linejoin:round;marker-start:url(#e);marker-end:url(#e)" transform="translate(-26.436 -99.26)"/><path d="M80.279 110.213h18.363" style="fill:#c8ab37;stroke:#ccc;stroke-width:.264584;stroke-linejoin:round" transform="translate(-26.436 -99.26)"/><path d="M85.135 107.368h13.507" style="fill:#c8ab37;stroke:#ccc;stroke-width:.264583;stroke-linejoin:round" transform="translate(-26.436 -99.26)"/><path d="M98.642 104.802v2.566" style="fill:#c8ab37;stroke:#00f;stroke-width:.264583;stroke-linejoin:round;marker-end:url(#f)" transform="translate(-26.436 -99.26)"/><path d="M98.642 112.78v-2.567" style="fill:#c8ab37;stroke:#00f;stroke-width:.264583;stroke-linejoin:round;marker-end:url(#g)" transform="translate(-26.436 -99.26)"/><text xml:space="preserve" style="font-size:16px;line-height:normal;font-family:&quot;Liberation Mono&quot;;-inkscape-font-specification:&quot;Liberation Mono&quot;;text-decoration-color:#000;white-space:pre;shape-inside:url(#h);display:inline;fill:#000;stroke-width:1;-inkscape-stroke:none;stop-color:#000" transform="translate(-36.332 -202.604)scale(.26458)"><tspan x="416.963" y="807.072">H1</tspan></text><text xml:space="preserve" style="font-size:16px;line-height:normal;font-family:&quot;Liberation Mono&quot;;-inkscape-font-specification:&quot;Liberation Mono&quot;;text-decoration-color:#000;white-space:pre;shape-inside:url(#i);display:inline;fill:#000;stroke-width:1;-inkscape-stroke:none;stop-color:#000" transform="translate(-47.552 -205.679)scale(.26458)"><tspan x="416.963" y="807.072">H2</tspan></text><path d="M85.003 103.728h3.494" style="fill:#c8ab37;stroke:#ccc;stroke-width:.264582;stroke-linejoin:round" transform="translate(-26.436 -99.26)"/></svg>