<svg xmlns="http://www.w3.org/2000/svg" width="305.072" height="76.23" viewBox="0 0 80.717 20.169"><defs><marker id="a" markerHeight="1" markerWidth="1" orient="auto-start-reverse" preserveAspectRatio="xMidYMid" refX="0" refY="0" style="overflow:visible" viewBox="0 0 1 1"><path d="M3-3 0 0l3 3" style="fill:none;stroke:context-stroke;stroke-width:1;stroke-linecap:butt" transform="rotate(180 .125 0)"/></marker><marker id="c" markerHeight="1" markerWidth="1" orient="auto-start-reverse" preserveAspectRatio="xMidYMid" refX="0" refY="0" style="overflow:visible" viewBox="0 0 1 1"><path d="M3-3 0 0l3 3" style="fill:none;stroke:context-stroke;stroke-width:1;stroke-linecap:butt" transform="rotate(180 .125 0)"/></marker><marker id="e" markerHeight="1" markerWidth="1" orient="auto-start-reverse" preserveAspectRatio="xMidYMid" refX="0" refY="0" style="overflow:visible" viewBox="0 0 1 1"><path d="M3-3 0 0l3 3" style="fill:none;stroke:context-stroke;stroke-width:1;stroke-linecap:butt" transform="rotate(180 .125 0)"/></marker><marker id="f" markerHeight="1" markerWidth="1" orient="auto-start-reverse" preserveAspectRatio="xMidYMid" refX="0" refY="0" style="overflow:visible" viewBox="0 0 1 1"><path d="M3-3 0 0l3 3" style="fill:none;stroke:context-stroke;stroke-width:1;stroke-linecap:butt" transform="rotate(180 .125 0)"/></marker><marker id="g" markerHeight="1" markerWidth="1" orient="auto-start-reverse" preserveAspectRatio="xMidYMid" refX="0" refY="0" style="overflow:visible" viewBox="0 0 1 1"><path d="M3-3 0 0l3 3" style="fill:none;stroke:context-stroke;stroke-width:1;stroke-linecap:butt" transform="rotate(180 .125 0)"/></marker><path id="b" d="M163.409 799.525h35.357v20.386h-35.357z"/><path id="d" d="M194.625 789.968h35.357v21.66h-35.357z"/><path id="h" d="M416.963 792.835h35.039v21.979h-35.039z"/><path id="i" d="M416.963 792.835h35.039v21.979h-35.039z"/></defs><path d="M28.009 243.264h80.452v19.905H28.009z" style="fill:#fff;stroke:#fff;stroke-width:.264583;stroke-linejoin:round" transform="translate(-27.877 -243.132)"/><path d="M45.785 251.24h5.879v2.862h-5.879zM60.747 251.24h5.879v2.862h-5.879zM75.708 251.24h5.879v2.862h-5.879zM30.824 251.24h5.879v2.862h-5.879z" style="fill:#c8ab37;stroke:#786721;stroke-width:.264583;stroke-linejoin:round" transform="translate(-27.877 -243.132)"/><path d="M30.824 255.69h5.88" style="fill:#c8ab37;stroke:#00f;stroke-width:.264583;stroke-linejoin:round;marker-start:url(#a);marker-end:url(#a)" transform="translate(-27.877 -243.132)"/><text xml:space="preserve" style="font-size:16px;line-height:normal;font-family:&quot;Liberation Mono&quot;;-inkscape-font-specification:&quot;Liberation Mono&quot;;text-decoration-color:#000;white-space:pre;shape-inside:url(#b);display:inline;fill:#000;stroke-width:1;-inkscape-stroke:none;stop-color:#000" transform="translate(-39.954 -198.41)scale(.26458)"><tspan x="163.408" y="813.762">B1</tspan></text><path d="M37.078 253.044h8.343" style="fill:#c8ab37;stroke:#00f;stroke-width:.264583;stroke-linejoin:round;marker-start:url(#c);marker-end:url(#c)" transform="translate(-27.877 -243.132)"/><text xml:space="preserve" style="font-size:16px;line-height:normal;font-family:&quot;Liberation Mono&quot;;-inkscape-font-specification:&quot;Liberation Mono&quot;;text-decoration-color:#000;white-space:pre;shape-inside:url(#d);display:inline;fill:#000;stroke-width:1;-inkscape-stroke:none;stop-color:#000" transform="translate(-40.561 -199.148)scale(.26458)"><tspan x="194.625" y="804.205">B2</tspan></text><path d="M30.824 247.6h55.62v3.641h-55.62z" style="fill:#b3b3b3;stroke:#666;stroke-width:.264583;stroke-linejoin:round" transform="translate(-27.877 -243.132)"/><path d="M89.05 247.78v3.167" style="fill:#c8ab37;stroke:#00f;stroke-width:.264583;stroke-linejoin:round;marker-start:url(#e);marker-end:url(#e)" transform="translate(-27.877 -243.132)"/><path d="M81.72 254.085h18.363" style="fill:#c8ab37;stroke:#ccc;stroke-width:.264584;stroke-linejoin:round" transform="translate(-27.877 -243.132)"/><path d="M86.576 251.24h13.507" style="fill:#c8ab37;stroke:#ccc;stroke-width:.264583;stroke-linejoin:round" transform="translate(-27.877 -243.132)"/><path d="M100.083 248.674v2.566" style="fill:#c8ab37;stroke:#00f;stroke-width:.264583;stroke-linejoin:round;marker-end:url(#f)" transform="translate(-27.877 -243.132)"/><path d="M100.083 256.652v-2.567" style="fill:#c8ab37;stroke:#00f;stroke-width:.264583;stroke-linejoin:round;marker-end:url(#g)" transform="translate(-27.877 -243.132)"/><text xml:space="preserve" style="font-size:16px;line-height:normal;font-family:&quot;Liberation Mono&quot;;-inkscape-font-specification:&quot;Liberation Mono&quot;;text-decoration-color:#000;white-space:pre;shape-inside:url(#h);display:inline;fill:#000;stroke-width:1;-inkscape-stroke:none;stop-color:#000" transform="translate(-36.332 -202.604)scale(.26458)"><tspan x="416.963" y="807.072">H1</tspan></text><text xml:space="preserve" style="font-size:16px;line-height:normal;font-family:&quot;Liberation Mono&quot;;-inkscape-font-specification:&quot;Liberation Mono&quot;;text-decoration-color:#000;white-space:pre;shape-inside:url(#i);display:inline;fill:#000;stroke-width:1;-inkscape-stroke:none;stop-color:#000" transform="translate(-47.552 -205.679)scale(.26458)"><tspan x="416.963" y="807.072">H2</tspan></text><path d="M86.444 247.6h3.494" style="fill:#c8ab37;stroke:#ccc;stroke-width:.264582;stroke-linejoin:round" transform="translate(-27.877 -243.132)"/></svg>