<svg xmlns="http://www.w3.org/2000/svg" width="268.584" height="219.031" viewBox="0 0 71.063 57.952"><defs><path id="m" d="M61.796 675.296h24.527v22.935H61.796z"/><path id="l" d="M491.819 730.402h26.438v23.572h-26.438z"/><path id="k" d="M442.446 720.846h35.357v29.305h-35.357z"/><path id="j" d="M378.42 729.765h45.869v32.809H378.42z"/><path id="i" d="M458.373 707.662h36.632v29.429h-36.632z"/><path id="h" d="M384.791 703.964h48.417v35.357h-48.417z"/><path id="b" d="M461.24 479.078h36.95v31.216h-36.95z"/><marker id="c" markerHeight="1" markerWidth="1" orient="auto-start-reverse" preserveAspectRatio="xMidYMid" refX="0" refY="0" style="overflow:visible" viewBox="0 0 1 1"><path d="M3-3 0 0l3 3" style="fill:none;stroke:context-stroke;stroke-width:1;stroke-linecap:butt" transform="rotate(180 .125 0)"/></marker><marker id="a" markerHeight="1" markerWidth="1" orient="auto-start-reverse" preserveAspectRatio="xMidYMid" refX="0" refY="0" style="overflow:visible" viewBox="0 0 1 1"><path d="M3-3 0 0l3 3" style="fill:none;stroke:context-stroke;stroke-width:1;stroke-linecap:butt" transform="rotate(180 .125 0)"/></marker><marker id="d" markerHeight="1" markerWidth="1" orient="auto-start-reverse" preserveAspectRatio="xMidYMid" refX="0" refY="0" style="overflow:visible" viewBox="0 0 1 1"><path d="M3-3 0 0l3 3" style="fill:none;stroke:context-stroke;stroke-width:1;stroke-linecap:butt" transform="rotate(180 .125 0)"/></marker><marker id="e" markerHeight="1" markerWidth="1" orient="auto-start-reverse" preserveAspectRatio="xMidYMid" refX="0" refY="0" style="overflow:visible" viewBox="0 0 1 1"><path d="M3-3 0 0l3 3" style="fill:none;stroke:context-stroke;stroke-width:1;stroke-linecap:butt" transform="rotate(180 .125 0)"/></marker><marker id="f" markerHeight="1" markerWidth="1" orient="auto-start-reverse" preserveAspectRatio="xMidYMid" refX="0" refY="0" style="overflow:visible" viewBox="0 0 1 1"><path d="M3-3 0 0l3 3" style="fill:none;stroke:context-stroke;stroke-width:1;stroke-linecap:butt" transform="rotate(180 .125 0)"/></marker><marker id="g" markerHeight="1" markerWidth="1" orient="auto-start-reverse" preserveAspectRatio="xMidYMid" refX="0" refY="0" style="overflow:visible" viewBox="0 0 1 1"><path d="M3-3 0 0l3 3" style="fill:none;stroke:context-stroke;stroke-width:1;stroke-linecap:butt" transform="rotate(180 .125 0)"/></marker></defs><path d="M17.878 157.806h70.798v57.687H17.878z" style="fill:#fff;stroke:#fff;stroke-width:.264583;stroke-linejoin:round" transform="translate(-17.746 -157.674)"/><path d="M41.971 194.011H77.2v10.619H41.971zM41.971 178.1H77.2v10.619H41.971zM41.971 162.189H77.2v10.619H41.971z" style="fill:#e3f4d7;stroke:#338000;stroke-width:.264583;stroke-linejoin:round" transform="translate(-17.746 -157.674)"/><path d="M41.881 207.276h35.287" style="fill:#fff;stroke:navy;stroke-width:.264583;stroke-linejoin:round;stroke-dasharray:none;marker-start:url(#a);marker-end:url(#a)" transform="translate(-17.746 -157.674)"/><text xml:space="preserve" style="font-size:16px;line-height:normal;font-family:&quot;Liberation Mono&quot;;-inkscape-font-specification:&quot;Liberation Mono&quot;;text-decoration-color:#000;white-space:pre;shape-inside:url(#b);display:inline;fill:#000;stroke-width:1;-inkscape-stroke:none;stop-color:#000" transform="translate(-82.633 -76.916)scale(.26458)"><tspan x="461.24" y="493.315">W1</tspan></text><path d="M79.846 194.01v10.62" style="fill:#e3f4d7;stroke:navy;stroke-width:.264583;stroke-linejoin:round;marker-start:url(#c);marker-end:url(#c)" transform="translate(-17.746 -157.674)"/><path d="M79.846 178.1v10.62" style="fill:#e3f4d7;stroke:navy;stroke-width:.264583;stroke-linejoin:round;marker-start:url(#d);marker-end:url(#d)" transform="translate(-17.746 -157.674)"/><path d="M79.846 162.19v10.618" style="fill:#e3f4d7;stroke:navy;stroke-width:.264583;stroke-linejoin:round;marker-start:url(#e);marker-end:url(#e)" transform="translate(-17.746 -157.674)"/><path d="M68.507 189.113v4.504" style="fill:#e3f4d7;stroke:navy;stroke-width:.264583;stroke-linejoin:round;marker-start:url(#f);marker-end:url(#f)" transform="translate(-17.746 -157.674)"/><path d="M68.336 173.155v4.504" style="fill:#e3f4d7;stroke:navy;stroke-width:.264583;stroke-linejoin:round;marker-start:url(#g);marker-end:url(#g)" transform="translate(-17.746 -157.674)"/><text xml:space="preserve" style="font-size:16px;line-height:normal;font-family:&quot;Liberation Mono&quot;;-inkscape-font-specification:&quot;Liberation Mono&quot;;text-decoration-color:#000;white-space:pre;shape-inside:url(#h);fill:#000;stroke-width:1;-inkscape-stroke:none;stop-color:#000" transform="translate(-49.862 -154.555)scale(.26458)"><tspan x="384.791" y="718.201">E1</tspan></text><text xml:space="preserve" style="font-size:16px;line-height:normal;font-family:&quot;Liberation Mono&quot;;-inkscape-font-specification:&quot;Liberation Mono&quot;;text-decoration-color:#000;white-space:pre;shape-inside:url(#i);fill:#000;stroke-width:1;-inkscape-stroke:none;stop-color:#000" transform="translate(-69.33 -171.748)scale(.26458)"><tspan x="458.373" y="721.899">E1</tspan></text><text xml:space="preserve" style="font-size:16px;line-height:normal;font-family:&quot;Liberation Mono&quot;;-inkscape-font-specification:&quot;Liberation Mono&quot;;text-decoration-color:#000;white-space:pre;shape-inside:url(#j);fill:#000;stroke-width:1;-inkscape-stroke:none;stop-color:#000" transform="translate(-37.215 -153.881)scale(.26458)"><tspan x="378.42" y="744.002">T1</tspan></text><text xml:space="preserve" style="font-size:16px;line-height:normal;font-family:&quot;Liberation Mono&quot;;-inkscape-font-specification:&quot;Liberation Mono&quot;;text-decoration-color:#000;white-space:pre;shape-inside:url(#k);fill:#000;stroke-width:1;-inkscape-stroke:none;stop-color:#000" transform="translate(-54.492 -167.703)scale(.26458)"><tspan x="442.445" y="735.082">T1</tspan></text><text xml:space="preserve" style="font-size:16px;line-height:normal;font-family:&quot;Liberation Mono&quot;;-inkscape-font-specification:&quot;Liberation Mono&quot;;text-decoration-color:#000;white-space:pre;shape-inside:url(#l);fill:#000;stroke-width:1;-inkscape-stroke:none;stop-color:#000" transform="translate(-67.555 -186.076)scale(.26458)"><tspan x="491.818" y="744.639">T1</tspan></text><path d="m41.297 169.486-15.592 10.787" style="fill:#e3f4d7;stroke:navy;stroke-width:.264583;stroke-linejoin:round;marker-start:url(#c)" transform="translate(-17.746 -157.674)"/><path d="m40.96 181.537-14.665-.42" style="fill:#e3f4d7;stroke:navy;stroke-width:.264583;stroke-linejoin:round;marker-start:url(#c)" transform="translate(-17.746 -157.674)"/><path d="M41.128 198.309 25.874 182.38" style="fill:#e3f4d7;stroke:navy;stroke-width:.264583;stroke-linejoin:round;marker-start:url(#c)" transform="translate(-17.746 -157.674)"/><text xml:space="preserve" style="font-size:16px;line-height:normal;font-family:&quot;Liberation Mono&quot;;-inkscape-font-specification:&quot;Liberation Mono&quot;;text-decoration-color:#000;white-space:pre;shape-inside:url(#m);fill:#000;stroke-width:1;-inkscape-stroke:none;stop-color:#000" transform="translate(-13.513 -157.674)scale(.26458)"><tspan x="61.797" y="689.531">N1</tspan></text></svg>