<svg xmlns="http://www.w3.org/2000/svg" width="482.626" height="472.433" viewBox="0 0 127.695 124.998"><defs><path id="j" d="M31.854 183.477h63.07v44.595h-63.07z"/><path id="i" d="M40.543 573.007h62.166v42.345H40.543z"/><path id="h" d="M486.516 642.381h87.393v55.859h-87.393z"/><path id="g" d="M500.931 359.931h45.048v37.84h-45.048z"/><path id="f" d="M53.607 566.701h42.795v36.489H53.607z"/><path id="e" d="M246.411 618.506h42.345v22.524h-42.345z"/><path id="d" d="M53.156 432.008h40.543v36.939H53.156z"/><marker id="a" markerHeight="1" markerWidth="1" orient="auto-start-reverse" preserveAspectRatio="xMidYMid" refX="0" refY="0" style="overflow:visible" viewBox="0 0 1 1"><path d="M3-3 0 0l3 3" style="fill:none;stroke:context-stroke;stroke-width:1;stroke-linecap:butt" transform="rotate(180 .125 0)"/></marker><marker id="b" markerHeight="1" markerWidth="1" orient="auto-start-reverse" preserveAspectRatio="xMidYMid" refX="0" refY="0" style="overflow:visible" viewBox="0 0 1 1"><path d="M3-3 0 0l3 3" style="fill:none;stroke:context-stroke;stroke-width:1;stroke-linecap:butt" transform="rotate(180 .125 0)"/></marker><marker id="c" markerHeight="1" markerWidth="1" orient="auto-start-reverse" preserveAspectRatio="xMidYMid" refX="0" refY="0" style="overflow:visible" viewBox="0 0 1 1"><path d="M3-3 0 0l3 3" style="fill:none;stroke:context-stroke;stroke-width:1;stroke-linecap:butt" transform="rotate(180 .125 0)"/></marker></defs><path d="M11.799 42.477h127.43V167.21H11.799z" style="fill:#fff;stroke:#fff;stroke-width:.264583;stroke-linejoin:round" transform="translate(-11.667 -42.344)"/><path d="m29.3 141.07-1.48-6.43" style="fill:none;stroke:#338000;stroke-width:.264582;stroke-linejoin:round;marker-start:url(#a);marker-end:url(#a)" transform="translate(-11.667 -42.344)"/><path d="m31.472 133.848-5.101 1.158M38.92 135.643l-5.101 1.158" style="fill:none;stroke:#71c837;stroke-width:.264583;stroke-linejoin:round" transform="translate(-11.667 -42.344)"/><path d="m35.531 99.43 10.45 43.15h48.545l10.451-43.15s.747-3.153.964-4.756c.2-1.482.372-2.981.31-4.475-.138-3.297-.56-6.622-1.504-9.783a30.2 30.2 0 0 0-3.405-7.459 37.6 37.6 0 0 0-6.533-7.766 33.5 33.5 0 0 0-7.514-5.117c-3.247-1.614-6.76-2.726-10.309-3.472a28.3 28.3 0 0 0-6.732-.603 47.8 47.8 0 0 0-11.55 1.808c-2.18.625-4.273 1.571-6.257 2.67-2.362 1.307-4.634 2.828-6.648 4.626-2.215 1.977-4.23 4.22-5.881 6.686-1.665 2.488-2.98 5.231-3.971 8.056-.765 2.18-1.178 4.479-1.49 6.767a24 24 0 0 0-.2 3.587c.027 1.818.19 3.636.458 5.435.19 1.28.816 3.795.816 3.795z" style="fill:none;stroke:#786721;stroke-width:.264583;stroke-linejoin:round" transform="translate(-11.667 -42.344)"/><path d="m29.56 99.096 12.227 48.247h56.796l12.226-48.247s.874-3.525 1.128-5.316c.235-1.657.435-3.334.362-5.005-.16-3.685-.654-7.403-1.76-10.938a33 33 0 0 0-3.983-8.34 42.5 42.5 0 0 0-7.643-8.682 39.4 39.4 0 0 0-8.79-5.722c-3.8-1.805-7.91-3.048-12.062-3.882a34.6 34.6 0 0 0-7.876-.675c-4.557.144-9.13.821-13.512 2.022-2.55.699-5 1.757-7.322 2.985-2.763 1.462-5.421 3.163-7.778 5.173-2.59 2.21-4.95 4.717-6.88 7.475-1.948 2.783-3.487 5.85-4.646 9.008-.895 2.437-1.378 5.008-1.744 7.566a25.6 25.6 0 0 0-.233 4.01c.03 2.033.222 4.067.536 6.077.223 1.431.954 4.244.954 4.244z" style="fill:none;stroke:#786721;stroke-width:.264583;stroke-linejoin:round" transform="translate(-11.667 -42.344)"/><path d="m94.526 142.58 4.846 1.096M92.066 142.58v4.763M84.307 142.58v4.763M76.7 142.58v4.763M70.254 142.58v4.763M63.036 142.58v4.763M55.469 142.58v4.763M47.949 142.58v4.763M45.983 142.584l-5.1 1.158M44.021 134.485l-5.101 1.158M41.831 125.442l-5.29 1.201M39.648 116.43l-5.385 1.222M37.55 107.764l-5.386 1.222M35.057 97.4l-5.605 1.272M96.204 135.654l5.051 1.142M97.92 128.567l5.127 1.159M105.8 95.548l5.547 1.255M103.958 103.637l5.547 1.254M101.599 113.379l5.288 1.196M99.752 121.005l5.207 1.177M106.045 87.243l6.096-.91M71.513 55.987l.363-5.46M81.308 57.71l2.217-5.138M89.855 61.49l3.397-4.734M97.707 68.12l4.477-4.16M102.414 74.793l5.482-3.091M104.747 80.416l6.189-1.207M34.344 92.255l-6.046.249M34.456 86.612l-6.314-.373M35.43 81.518l-6.29-1.288M37.53 76l-5.783-2.793M41.385 69.772l-5.02-3.78M46.857 64.202l-3.919-4.592M52.447 60.476l-3.096-4.933M60.362 57.364l-1.688-5.315M66.489 56.271l-1.076-5.39" style="fill:none;stroke:#b3b3b3;stroke-width:.264583;stroke-linejoin:round" transform="translate(-11.667 -42.344)"/><path d="M94.526 142.58v17.382M45.983 142.584v17.382" style="fill:none;stroke:#71c837;stroke-width:.264583;stroke-linejoin:round" transform="translate(-11.667 -42.344)"/><path d="m45.983 158.378 48.543-.004" style="fill:none;stroke:#338000;stroke-width:.264583;stroke-linejoin:round;marker-start:url(#a);marker-end:url(#a)" transform="translate(-11.667 -42.344)"/><path d="M94.526 142.58h33.721M70.254 55.999h58.87" style="fill:none;stroke:#71c837;stroke-width:.264583;stroke-linejoin:round" transform="translate(-11.667 -42.344)"/><path d="M128.247 142.58 128.243 56" style="fill:none;stroke:#338000;stroke-width:.264583;stroke-linejoin:round;marker-start:url(#b);marker-end:url(#b)" transform="translate(-11.667 -42.344)"/><path d="M108.343 142.58s.835-3.045.596-4.56c-.275-1.737-.985-3.56-2.265-4.767-1.073-1.011-4.1-1.657-4.1-1.657" style="fill:none;stroke:#338000;stroke-width:.264583;stroke-linejoin:round;marker-end:url(#a)" transform="translate(-11.667 -42.344)"/><path d="m34.263 117.652-9.246 2.156" style="fill:none;stroke:#338000;stroke-width:.264584;stroke-linejoin:round;marker-start:url(#a)" transform="translate(-11.667 -42.344)"/><path d="m39.648 116.43 9.246-2.157" style="fill:none;stroke:#338000;stroke-width:.264584;stroke-linejoin:round;marker-start:url(#c)" transform="translate(-11.667 -42.344)"/><text xml:space="preserve" style="font-size:16px;line-height:normal;font-family:&quot;Liberation Mono&quot;;-inkscape-font-specification:&quot;Liberation Mono&quot;;text-decoration-color:#000;white-space:pre;shape-inside:url(#d);display:inline;fill:#000;stroke-width:1;-inkscape-stroke:none;stop-color:#000" transform="translate(-7.495 -39.365)scale(.26458)"><tspan x="53.156" y="446.244">T1</tspan></text><text xml:space="preserve" style="font-size:16px;line-height:normal;font-family:&quot;Liberation Mono&quot;;-inkscape-font-specification:&quot;Liberation Mono&quot;;text-decoration-color:#000;white-space:pre;shape-inside:url(#e);display:inline;fill:#000;stroke-width:1;-inkscape-stroke:none;stop-color:#000" transform="translate(-7.376 -47.827)scale(.26458)"><tspan x="246.412" y="632.742">W1</tspan></text><text xml:space="preserve" style="font-size:16px;line-height:normal;font-family:&quot;Liberation Mono&quot;;-inkscape-font-specification:&quot;Liberation Mono&quot;;text-decoration-color:#000;white-space:pre;shape-inside:url(#f);display:inline;fill:#000;stroke-width:1;-inkscape-stroke:none;stop-color:#000" transform="translate(83.208 -60.223)scale(.26458)"><tspan x="53.607" y="580.938">a1</tspan></text><text xml:space="preserve" style="font-size:16px;line-height:normal;font-family:&quot;Liberation Mono&quot;;-inkscape-font-specification:&quot;Liberation Mono&quot;;text-decoration-color:#000;white-space:pre;shape-inside:url(#g);display:inline;fill:#000;stroke-width:1;-inkscape-stroke:none;stop-color:#000" transform="translate(-15.004 -39.246)scale(.26458)"><tspan x="500.932" y="374.168">H1</tspan></text><path d="m107.747 158.76 7.628-8.344" style="fill:#fff;stroke:#338000;stroke-width:.264583;stroke-linejoin:round;marker-end:url(#a)" transform="translate(-11.667 -42.344)"/><text xml:space="preserve" style="font-size:16px;line-height:normal;font-family:&quot;Liberation Mono&quot;;-inkscape-font-specification:&quot;Liberation Mono&quot;;text-decoration-color:#000;white-space:pre;shape-inside:url(#h);display:inline;fill:#000;stroke-width:1;-inkscape-stroke:none;stop-color:#000" transform="translate(-27.4 -57.6)scale(.26458)"><tspan x="486.516" y="656.617">T2</tspan></text><path d="m33.275 140.198-5.101 1.158" style="fill:none;stroke:#71c837;stroke-width:.264583;stroke-linejoin:round" transform="translate(-11.667 -42.344)"/><path d="m31.472 133.848 2.347 2.953-.544 3.397" style="fill:#fff;stroke:#71c837;stroke-width:.264583;stroke-linejoin:round" transform="translate(-11.667 -42.344)"/><text xml:space="preserve" style="font-size:16px;line-height:normal;font-family:&quot;Liberation Mono&quot;;-inkscape-font-specification:&quot;Liberation Mono&quot;;text-decoration-color:#000;white-space:pre;shape-inside:url(#i);display:inline;fill:#000;stroke-width:1;-inkscape-stroke:none;stop-color:#000" transform="translate(.014 -57.72)scale(.26458)"><tspan x="40.543" y="587.244">E1</tspan></text><path d="m27.444 99.625 2.603 9.89" style="fill:none;stroke:#338000;stroke-width:.264583;stroke-linejoin:round;stroke-dasharray:none;marker-start:url(#a);marker-end:url(#a)" transform="translate(-11.667 -42.344)"/><text xml:space="preserve" style="font-size:16px;line-height:normal;font-family:&quot;Liberation Mono&quot;;-inkscape-font-specification:&quot;Liberation Mono&quot;;text-decoration-color:#000;white-space:pre;shape-inside:url(#j);display:inline;fill:#000;stroke-width:1;-inkscape-stroke:none;stop-color:#000" transform="translate(-5.65 11.775)scale(.26458)"><tspan x="31.854" y="197.713">T3Max</tspan></text></svg>