<?xml version="1.0" encoding="UTF-8" standalone="no"?>
<!-- Created with Inkscape (http://www.inkscape.org/) -->

<svg
   width="326.24472"
   height="205.51685"
   viewBox="0 0 86.318916 54.376332"
   version="1.1"
   id="svg1"
   inkscape:version="1.4.2 (1:1.4.2+202505120737+ebf0e940d0)"
   sodipodi:docname="src_rccar.svg"
   xmlns:inkscape="http://www.inkscape.org/namespaces/inkscape"
   xmlns:sodipodi="http://sodipodi.sourceforge.net/DTD/sodipodi-0.dtd"
   xmlns="http://www.w3.org/2000/svg"
   xmlns:svg="http://www.w3.org/2000/svg">
  <sodipodi:namedview
     id="namedview1"
     pagecolor="#ffffff"
     bordercolor="#000000"
     borderopacity="0.25"
     inkscape:showpageshadow="2"
     inkscape:pageopacity="0.0"
     inkscape:pagecheckerboard="0"
     inkscape:deskcolor="#d1d1d1"
     inkscape:document-units="px"
     inkscape:zoom="0.7848415"
     inkscape:cx="263.74752"
     inkscape:cy="1469.7235"
     inkscape:window-width="1854"
     inkscape:window-height="1131"
     inkscape:window-x="0"
     inkscape:window-y="0"
     inkscape:window-maximized="1"
     inkscape:current-layer="layer1">
    <inkscape:page
       x="0"
       y="0"
       width="86.318916"
       height="54.376331"
       id="page2"
       margin="0"
       bleed="0" />
  </sodipodi:namedview>
  <defs
     id="defs1">
    <marker
       style="overflow:visible"
       id="ArrowWide-5-9-1-1-0-1"
       refX="0"
       refY="0"
       orient="auto-start-reverse"
       inkscape:stockid="Wide arrow"
       markerWidth="1"
       markerHeight="1"
       viewBox="0 0 1 1"
       inkscape:isstock="true"
       inkscape:collect="always"
       preserveAspectRatio="xMidYMid">
      <path
         style="fill:none;stroke:context-stroke;stroke-width:1;stroke-linecap:butt"
         d="M 3,-3 0,0 3,3"
         transform="rotate(180,0.125,0)"
         sodipodi:nodetypes="ccc"
         id="path1-44-0-1-3-9-7" />
    </marker>
    <rect
       x="229.27486"
       y="527.95953"
       width="111.09919"
       height="67.571617"
       id="rect16-5-9-30-9" />
    <marker
       style="overflow:visible"
       id="ArrowWide-5-5-1-8-2-9-5-3-4"
       refX="0"
       refY="0"
       orient="auto-start-reverse"
       inkscape:stockid="Wide arrow"
       markerWidth="1"
       markerHeight="1"
       viewBox="0 0 1 1"
       inkscape:isstock="true"
       inkscape:collect="always"
       preserveAspectRatio="xMidYMid">
      <path
         style="fill:none;stroke:context-stroke;stroke-width:1;stroke-linecap:butt"
         d="M 3,-3 0,0 3,3"
         transform="rotate(180,0.125,0)"
         sodipodi:nodetypes="ccc"
         id="path1-44-1-2-6-6-2-9-4-9" />
    </marker>
    <rect
       x="229.27486"
       y="527.95953"
       width="111.09919"
       height="67.571617"
       id="rect16-5-9-30-9-2" />
    <marker
       style="overflow:visible"
       id="ArrowWide-5-5-1-8-2-9-5-3-4-3"
       refX="0"
       refY="0"
       orient="auto-start-reverse"
       inkscape:stockid="Wide arrow"
       markerWidth="1"
       markerHeight="1"
       viewBox="0 0 1 1"
       inkscape:isstock="true"
       inkscape:collect="always"
       preserveAspectRatio="xMidYMid">
      <path
         style="fill:none;stroke:context-stroke;stroke-width:1;stroke-linecap:butt"
         d="M 3,-3 0,0 3,3"
         transform="rotate(180,0.125,0)"
         sodipodi:nodetypes="ccc"
         id="path1-44-1-2-6-6-2-9-4-9-6" />
    </marker>
    <rect
       x="229.27486"
       y="527.95953"
       width="111.09919"
       height="67.571617"
       id="rect16-5-9-30-9-2-9" />
    <marker
       style="overflow:visible"
       id="ArrowWide-5-9-1-1-0-1-4"
       refX="0"
       refY="0"
       orient="auto-start-reverse"
       inkscape:stockid="Wide arrow"
       markerWidth="1"
       markerHeight="1"
       viewBox="0 0 1 1"
       inkscape:isstock="true"
       inkscape:collect="always"
       preserveAspectRatio="xMidYMid">
      <path
         style="fill:none;stroke:context-stroke;stroke-width:1;stroke-linecap:butt"
         d="M 3,-3 0,0 3,3"
         transform="rotate(180,0.125,0)"
         sodipodi:nodetypes="ccc"
         id="path1-44-0-1-3-9-7-7" />
    </marker>
    <marker
       style="overflow:visible"
       id="ArrowWide-5-9-1-1-0-1-4-3"
       refX="0"
       refY="0"
       orient="auto-start-reverse"
       inkscape:stockid="Wide arrow"
       markerWidth="1"
       markerHeight="1"
       viewBox="0 0 1 1"
       inkscape:isstock="true"
       inkscape:collect="always"
       preserveAspectRatio="xMidYMid">
      <path
         style="fill:none;stroke:context-stroke;stroke-width:1;stroke-linecap:butt"
         d="M 3,-3 0,0 3,3"
         transform="rotate(180,0.125,0)"
         sodipodi:nodetypes="ccc"
         id="path1-44-0-1-3-9-7-7-8" />
    </marker>
    <rect
       x="229.27486"
       y="527.95953"
       width="111.09919"
       height="67.571617"
       id="rect16-5-3-4-7-4-6" />
  </defs>
  <g
     inkscape:label="Layer 1"
     inkscape:groupmode="layer"
     id="layer1"
     transform="translate(-25.374115,-461.12845)">
    <rect
       style="fill:#ffffff;stroke:#ffffff;stroke-width:0.264583;stroke-linejoin:round"
       id="rect24"
       width="86.054329"
       height="54.111725"
       x="25.506407"
       y="461.26074" />
    <path
       style="fill:#008080;stroke:#000000;stroke-width:0.264583;stroke-linejoin:round"
       d="m 49.978198,483.10109 c 0,0 -1.870919,-3.3983 -3.314644,-4.63084 -1.310654,-1.11894 -2.972606,-1.81962 -4.623933,-2.31252 -0.837861,-0.25009 -1.733385,-0.36877 -2.60542,-0.30464 -1.953702,0.14368 -3.952046,0.59603 -5.674514,1.52914 -1.336432,0.72399 -2.565754,1.76847 -3.3987,3.03985 -1.293582,1.97448 -2.169689,4.36448 -2.220203,6.72443 -0.04392,2.05195 0.655392,4.14481 1.678485,5.92405 0.802161,1.39502 1.979234,2.63474 3.352339,3.47387 1.861051,1.13732 4.081636,1.87481 6.262593,1.89551 2.043811,0.0194 4.127452,-0.64946 5.901438,-1.6646 1.392506,-0.79685 2.512072,-2.04744 3.473487,-3.33185 0.506763,-0.67702 1.169072,-2.2516 1.169072,-2.2516 h 33.595609 c 0,0 1.182672,2.48161 2.110539,3.4658 1.04318,1.1065 2.365767,1.96861 3.750087,2.59808 1.465826,0.66653 3.073124,1.18852 4.683371,1.18417 1.884924,-0.005 3.822479,-0.50848 5.474703,-1.41574 1.601853,-0.8796 3.046243,-2.18737 4.006653,-3.74213 1.12072,-1.81428 1.84155,-4.00325 1.81206,-6.13556 -0.0322,-2.33114 -0.90875,-4.68685 -2.16574,-6.65032 -0.78422,-1.22498 -1.93406,-2.252 -3.20245,-2.96389 -1.790171,-1.00475 -3.872378,-1.67282 -5.925226,-1.67921 -2.007729,-0.006 -4.042769,0.64434 -5.805103,1.60621 -1.244262,0.67911 -2.28473,1.72729 -3.170952,2.83363 -0.670254,0.83673 -1.567942,2.80816 -1.567942,2.80816 H 49.978198"
       id="path23"
       sodipodi:nodetypes="caaaaaaaaaaaccaaaaaaaaaaacc" />
    <text
       xml:space="preserve"
       transform="matrix(0.26458333,0,0,0.26458333,3.3643708,366.44506)"
       id="text16-9-2-9-5"
       style="font-size:16px;line-height:normal;font-family:'Liberation Mono';-inkscape-font-specification:'Liberation Mono';text-decoration-color:#000000;white-space:pre;shape-inside:url(#rect16-5-9-30-9);display:inline;fill:#d40000;stroke-width:1;-inkscape-stroke:none;stop-color:#000000"><tspan
         x="229.27539"
         y="542.19543"
         id="tspan1">L2</tspan></text>
    <circle
       style="fill:#ffffff;stroke:#000000;stroke-width:0.264583;stroke-linejoin:round"
       id="path22"
       cx="39.4342"
       cy="486.90421"
       r="4.5510783" />
    <circle
       style="fill:#ffffff;stroke:#000000;stroke-width:0.264583;stroke-linejoin:round"
       id="path22-4"
       cx="94.117805"
       cy="486.90421"
       r="4.5510783" />
    <path
       style="fill:#008080;stroke:#999999;stroke-width:0.264583;stroke-linejoin:round"
       d="m 39.434201,486.00459 v 24.8707"
       id="path24" />
    <path
       style="fill:#008080;stroke:#999999;stroke-width:0.264583;stroke-linejoin:round"
       d="m 93.985514,486.90421 v 24.8707"
       id="path24-7" />
    <path
       style="fill:#ffe6d5;stroke:#ff5555;stroke-width:0.264583;stroke-linejoin:round;marker-start:url(#ArrowWide-5-9-1-1-0-1);marker-end:url(#ArrowWide-5-9-1-1-0-1)"
       d="M 40.005547,510.87535 H 93.54537"
       id="path16-3-9-6-4-0-8" />
    <path
       style="fill:#ffe6d5;stroke:#ff5555;stroke-width:0.264583;stroke-linejoin:round;marker-end:url(#ArrowWide-5-5-1-8-2-9-5-3-4)"
       d="m 51.254136,472.77462 -8.122832,10.33294"
       id="path16-3-1-2-8-7-49-7-2-8"
       sodipodi:nodetypes="cc" />
    <text
       xml:space="preserve"
       transform="matrix(0.26458333,0,0,0.26458333,-9.3043071,329.23699)"
       id="text16-9-2-9-5-0"
       style="font-size:16px;line-height:normal;font-family:'Liberation Mono';-inkscape-font-specification:'Liberation Mono';text-decoration-color:#000000;white-space:pre;shape-inside:url(#rect16-5-9-30-9-2);display:inline;fill:#d40000;stroke-width:1;-inkscape-stroke:none;stop-color:#000000"><tspan
         x="229.27539"
         y="542.19543"
         id="tspan2">D1</tspan></text>
    <path
       style="fill:#ffe6d5;stroke:#ff5555;stroke-width:0.264583;stroke-linejoin:round;marker-end:url(#ArrowWide-5-5-1-8-2-9-5-3-4-3)"
       d="m 46.338172,467.86984 -4.195791,7.70544"
       id="path16-3-1-2-8-7-49-7-2-8-4"
       sodipodi:nodetypes="cc" />
    <text
       xml:space="preserve"
       transform="matrix(0.26458333,0,0,0.26458333,-15.448173,323.71156)"
       id="text16-9-2-9-5-0-5"
       style="font-size:16px;line-height:normal;font-family:'Liberation Mono';-inkscape-font-specification:'Liberation Mono';text-decoration-color:#000000;white-space:pre;shape-inside:url(#rect16-5-9-30-9-2-9);display:inline;fill:#d40000;stroke-width:1;-inkscape-stroke:none;stop-color:#000000"><tspan
         x="229.27539"
         y="542.19543"
         id="tspan3">D2</tspan></text>
    <path
       style="fill:#ffe6d5;stroke:#ff5555;stroke-width:0.264583;stroke-linejoin:round;marker-end:url(#ArrowWide-5-9-1-1-0-1-4)"
       d="m 76.094138,496.6199 v -5.08238"
       id="path16-3-9-6-4-0-8-1" />
    <path
       style="fill:#ffe6d5;stroke:#ff5555;stroke-width:0.264583;stroke-linejoin:round;marker-end:url(#ArrowWide-5-9-1-1-0-1-4-3)"
       d="m 76.109117,477.60671 v 5.08238"
       id="path16-3-9-6-4-0-8-1-0" />
    <text
       xml:space="preserve"
       transform="matrix(0.26458333,0,0,0.26458333,13.644054,333.26471)"
       id="text16-9-3-4-5-3-0"
       style="font-size:16px;line-height:normal;font-family:'Liberation Mono';-inkscape-font-specification:'Liberation Mono';text-decoration-color:#000000;white-space:pre;shape-inside:url(#rect16-5-3-4-7-4-6);display:inline;fill:#d40000;stroke-width:1;-inkscape-stroke:none;stop-color:#000000"><tspan
         x="229.27539"
         y="542.19543"
         id="tspan4">W3</tspan></text>
  </g>
</svg>
