<?xml version="1.0" encoding="UTF-8" standalone="no"?>
<!-- Created with Inkscape (http://www.inkscape.org/) -->

<svg
   width="543.78473"
   height="229.07153"
   viewBox="0 0 143.87638 60.60851"
   version="1.1"
   id="svg1"
   inkscape:version="1.4.2 (1:1.4.2+202505120737+ebf0e940d0)"
   sodipodi:docname="src_rccar.svg"
   xmlns:inkscape="http://www.inkscape.org/namespaces/inkscape"
   xmlns:sodipodi="http://sodipodi.sourceforge.net/DTD/sodipodi-0.dtd"
   xmlns="http://www.w3.org/2000/svg"
   xmlns:svg="http://www.w3.org/2000/svg">
  <sodipodi:namedview
     id="namedview1"
     pagecolor="#ffffff"
     bordercolor="#000000"
     borderopacity="0.25"
     inkscape:showpageshadow="2"
     inkscape:pageopacity="0.0"
     inkscape:pagecheckerboard="0"
     inkscape:deskcolor="#d1d1d1"
     inkscape:document-units="px"
     inkscape:zoom="0.7848415"
     inkscape:cx="263.74752"
     inkscape:cy="1469.7235"
     inkscape:window-width="1854"
     inkscape:window-height="1131"
     inkscape:window-x="0"
     inkscape:window-y="0"
     inkscape:window-maximized="1"
     inkscape:current-layer="layer1">
    <inkscape:page
       x="0"
       y="0"
       width="143.87637"
       height="60.608509"
       id="page2"
       margin="0"
       bleed="0" />
  </sodipodi:namedview>
  <defs
     id="defs1">
    <marker
       style="overflow:visible"
       id="ArrowWide-5"
       refX="0"
       refY="0"
       orient="auto-start-reverse"
       inkscape:stockid="Wide arrow"
       markerWidth="1"
       markerHeight="1"
       viewBox="0 0 1 1"
       inkscape:isstock="true"
       inkscape:collect="always"
       preserveAspectRatio="xMidYMid">
      <path
         style="fill:none;stroke:context-stroke;stroke-width:1;stroke-linecap:butt"
         d="M 3,-3 0,0 3,3"
         transform="rotate(180,0.125,0)"
         sodipodi:nodetypes="ccc"
         id="path1-44" />
    </marker>
    <rect
       x="229.27486"
       y="527.95953"
       width="111.09919"
       height="67.571617"
       id="rect16-5" />
    <marker
       style="overflow:visible"
       id="ArrowWide-5-5"
       refX="0"
       refY="0"
       orient="auto-start-reverse"
       inkscape:stockid="Wide arrow"
       markerWidth="1"
       markerHeight="1"
       viewBox="0 0 1 1"
       inkscape:isstock="true"
       inkscape:collect="always"
       preserveAspectRatio="xMidYMid">
      <path
         style="fill:none;stroke:context-stroke;stroke-width:1;stroke-linecap:butt"
         d="M 3,-3 0,0 3,3"
         transform="rotate(180,0.125,0)"
         sodipodi:nodetypes="ccc"
         id="path1-44-1" />
    </marker>
    <rect
       x="229.27486"
       y="527.95953"
       width="111.09919"
       height="67.571617"
       id="rect16-5-9" />
    <marker
       style="overflow:visible"
       id="ArrowWide-5-5-1"
       refX="0"
       refY="0"
       orient="auto-start-reverse"
       inkscape:stockid="Wide arrow"
       markerWidth="1"
       markerHeight="1"
       viewBox="0 0 1 1"
       inkscape:isstock="true"
       inkscape:collect="always"
       preserveAspectRatio="xMidYMid">
      <path
         style="fill:none;stroke:context-stroke;stroke-width:1;stroke-linecap:butt"
         d="M 3,-3 0,0 3,3"
         transform="rotate(180,0.125,0)"
         sodipodi:nodetypes="ccc"
         id="path1-44-1-2" />
    </marker>
    <marker
       style="overflow:visible"
       id="ArrowWide-5-5-1-8"
       refX="0"
       refY="0"
       orient="auto-start-reverse"
       inkscape:stockid="Wide arrow"
       markerWidth="1"
       markerHeight="1"
       viewBox="0 0 1 1"
       inkscape:isstock="true"
       inkscape:collect="always"
       preserveAspectRatio="xMidYMid">
      <path
         style="fill:none;stroke:context-stroke;stroke-width:1;stroke-linecap:butt"
         d="M 3,-3 0,0 3,3"
         transform="rotate(180,0.125,0)"
         sodipodi:nodetypes="ccc"
         id="path1-44-1-2-6" />
    </marker>
    <rect
       x="229.27486"
       y="527.95953"
       width="111.09919"
       height="67.571617"
       id="rect16-5-9-3" />
    <marker
       style="overflow:visible"
       id="ArrowWide-5-9-1"
       refX="0"
       refY="0"
       orient="auto-start-reverse"
       inkscape:stockid="Wide arrow"
       markerWidth="1"
       markerHeight="1"
       viewBox="0 0 1 1"
       inkscape:isstock="true"
       inkscape:collect="always"
       preserveAspectRatio="xMidYMid">
      <path
         style="fill:none;stroke:context-stroke;stroke-width:1;stroke-linecap:butt"
         d="M 3,-3 0,0 3,3"
         transform="rotate(180,0.125,0)"
         sodipodi:nodetypes="ccc"
         id="path1-44-0-1" />
    </marker>
    <rect
       x="229.27486"
       y="527.95953"
       width="111.09919"
       height="67.571617"
       id="rect16-5-3-4" />
    <marker
       style="overflow:visible"
       id="ArrowWide-5-5-1-82"
       refX="0"
       refY="0"
       orient="auto-start-reverse"
       inkscape:stockid="Wide arrow"
       markerWidth="1"
       markerHeight="1"
       viewBox="0 0 1 1"
       inkscape:isstock="true"
       inkscape:collect="always"
       preserveAspectRatio="xMidYMid">
      <path
         style="fill:none;stroke:context-stroke;stroke-width:1;stroke-linecap:butt"
         d="M 3,-3 0,0 3,3"
         transform="rotate(180,0.125,0)"
         sodipodi:nodetypes="ccc"
         id="path1-44-1-2-60" />
    </marker>
    <marker
       style="overflow:visible"
       id="ArrowWide-5-5-1-8-6"
       refX="0"
       refY="0"
       orient="auto-start-reverse"
       inkscape:stockid="Wide arrow"
       markerWidth="1"
       markerHeight="1"
       viewBox="0 0 1 1"
       inkscape:isstock="true"
       inkscape:collect="always"
       preserveAspectRatio="xMidYMid">
      <path
         style="fill:none;stroke:context-stroke;stroke-width:1;stroke-linecap:butt"
         d="M 3,-3 0,0 3,3"
         transform="rotate(180,0.125,0)"
         sodipodi:nodetypes="ccc"
         id="path1-44-1-2-6-64" />
    </marker>
    <rect
       x="229.27486"
       y="527.95953"
       width="111.09919"
       height="67.571617"
       id="rect16-5-9-3-6" />
    <marker
       style="overflow:visible"
       id="ArrowWide-5-5-9"
       refX="0"
       refY="0"
       orient="auto-start-reverse"
       inkscape:stockid="Wide arrow"
       markerWidth="1"
       markerHeight="1"
       viewBox="0 0 1 1"
       inkscape:isstock="true"
       inkscape:collect="always"
       preserveAspectRatio="xMidYMid">
      <path
         style="fill:none;stroke:context-stroke;stroke-width:1;stroke-linecap:butt"
         d="M 3,-3 0,0 3,3"
         transform="rotate(180,0.125,0)"
         sodipodi:nodetypes="ccc"
         id="path1-44-1-93" />
    </marker>
    <rect
       x="229.27486"
       y="527.95953"
       width="111.09919"
       height="67.571617"
       id="rect16-5-9-0" />
    <rect
       x="229.27486"
       y="527.95953"
       width="111.09919"
       height="67.571617"
       id="rect16-5-9-0-1" />
    <marker
       style="overflow:visible"
       id="ArrowWide-5-5-1-8-2-9-0"
       refX="0"
       refY="0"
       orient="auto-start-reverse"
       inkscape:stockid="Wide arrow"
       markerWidth="1"
       markerHeight="1"
       viewBox="0 0 1 1"
       inkscape:isstock="true"
       inkscape:collect="always"
       preserveAspectRatio="xMidYMid">
      <path
         style="fill:none;stroke:context-stroke;stroke-width:1;stroke-linecap:butt"
         d="M 3,-3 0,0 3,3"
         transform="rotate(180,0.125,0)"
         sodipodi:nodetypes="ccc"
         id="path1-44-1-2-6-6-2-8" />
    </marker>
    <marker
       style="overflow:visible"
       id="ArrowWide-5-5-1-8-2-9-0-1"
       refX="0"
       refY="0"
       orient="auto-start-reverse"
       inkscape:stockid="Wide arrow"
       markerWidth="1"
       markerHeight="1"
       viewBox="0 0 1 1"
       inkscape:isstock="true"
       inkscape:collect="always"
       preserveAspectRatio="xMidYMid">
      <path
         style="fill:none;stroke:context-stroke;stroke-width:1;stroke-linecap:butt"
         d="M 3,-3 0,0 3,3"
         transform="rotate(180,0.125,0)"
         sodipodi:nodetypes="ccc"
         id="path1-44-1-2-6-6-2-8-9" />
    </marker>
  </defs>
  <g
     inkscape:label="Layer 1"
     inkscape:groupmode="layer"
     id="layer1"
     transform="translate(-3.9131109,-156.96419)">
    <rect
       style="fill:#ffffff;stroke:#ffffff;stroke-width:0.264583;stroke-linejoin:round"
       id="rect18"
       width="143.61179"
       height="60.343933"
       x="4.0454025"
       y="157.09648"
       inkscape:export-filename="rccar_one_xy.svg"
       inkscape:export-xdpi="96"
       inkscape:export-ydpi="96" />
    <path
       style="fill:#ffe6d5;stroke:#000000;stroke-width:0.264583;stroke-linejoin:round"
       d="m 123.87303,174.78228 v 22.92425 l -14.08428,-0.0971 c 0,0 -3.63332,-0.4623 -5.24537,-1.25843 -1.28547,-0.63484 -2.36427,-1.6595 -3.33849,-2.71093 -0.7472,-0.80641 -1.451034,-1.69805 -1.877909,-2.71094 -0.617842,-1.46601 -0.894092,-3.09412 -0.90997,-4.68479 -0.01295,-1.29513 0.277922,-2.59219 0.66461,-3.82839 0.25533,-0.81626 0.595076,-1.62292 1.079979,-2.32758 0.80643,-1.17189 1.82138,-2.22717 2.97418,-3.06113 1.05071,-0.7601 2.25838,-1.32297 3.49875,-1.70205 1.01546,-0.31033 3.15422,-0.44594 3.15422,-0.44594 z"
       id="path15-4"
       sodipodi:nodetypes="cccaaaaaaaacc" />
    <path
       style="fill:#c8ab37;stroke:#000000;stroke-width:0.264583;stroke-linejoin:round"
       d="m 95.704483,174.78228 v 22.92425 l 14.084267,-0.0971 c 0,0 3.63333,-0.4623 5.24538,-1.25843 1.28547,-0.63484 2.36427,-1.6595 3.3385,-2.71093 0.74719,-0.80641 1.45103,-1.69805 1.8779,-2.71094 0.61784,-1.46601 0.89409,-3.09412 0.90997,-4.68479 0.013,-1.29513 -0.27792,-2.59219 -0.66461,-3.82839 -0.25533,-0.81626 -0.59507,-1.62292 -1.07998,-2.32758 -0.80643,-1.17189 -1.82138,-2.22717 -2.97418,-3.06113 -1.0507,-0.7601 -2.25838,-1.32297 -3.49875,-1.70205 -1.01546,-0.31033 -3.15423,-0.44594 -3.15423,-0.44594 z"
       id="path15"
       sodipodi:nodetypes="cccaaaaaaaacc" />
    <rect
       style="fill:#c8ab37;stroke:#000000;stroke-width:0.264583;stroke-linejoin:round"
       id="rect4"
       width="2.7125282"
       height="38.995823"
       x="63.28746"
       y="167.28076" />
    <rect
       style="fill:#fff6d5;stroke:#000000;stroke-width:0.264584;stroke-linejoin:round"
       id="rect4-7"
       width="10.85011"
       height="38.995823"
       x="65.999985"
       y="167.28076" />
    <rect
       style="fill:#c8ab37;stroke:#000000;stroke-width:0.264583;stroke-linejoin:round"
       id="rect4-8"
       width="2.7125282"
       height="38.995823"
       x="76.85009"
       y="167.28076" />
    <rect
       style="fill:#c8ab37;stroke:#000000;stroke-width:0.264584;stroke-linejoin:round"
       id="rect4-1"
       width="2.7109404"
       height="55.536037"
       x="-169.9917"
       y="79.562622"
       transform="rotate(-90)" />
    <rect
       style="fill:#c8ab37;stroke:#000000;stroke-width:0.264583;stroke-linejoin:round"
       id="rect4-1-5"
       width="2.7109404"
       height="5.5149002"
       x="-177.49321"
       y="79.562622"
       transform="rotate(-90)" />
    <rect
       style="fill:#008080;stroke:#000000;stroke-width:0.264583;stroke-linejoin:round"
       id="rect4-1-0"
       width="2.7109404"
       height="10.62697"
       x="-180.20415"
       y="82.320068"
       transform="rotate(-90)" />
    <rect
       style="fill:#c8ab37;stroke:#000000;stroke-width:0.264583;stroke-linejoin:round"
       id="rect4-1-5-6"
       width="2.7109404"
       height="5.5149002"
       x="-182.91508"
       y="79.562622"
       transform="rotate(-90)" />
    <rect
       style="fill:#c8ab37;stroke:#000000;stroke-width:0.264583;stroke-linejoin:round"
       id="rect4-1-5-7"
       width="2.7109404"
       height="5.5149002"
       x="-177.49321"
       y="90.18959"
       transform="rotate(-90)" />
    <rect
       style="fill:#c8ab37;stroke:#000000;stroke-width:0.264583;stroke-linejoin:round"
       id="rect4-1-5-6-6"
       width="2.7109404"
       height="5.5149002"
       x="-182.91508"
       y="90.18959"
       transform="rotate(-90)" />
    <rect
       style="fill:none;stroke:#cccccc;stroke-width:0.264583;stroke-linejoin:round"
       id="rect4-1-7"
       width="2.7125282"
       height="22.924244"
       x="95.704483"
       y="174.78227" />
    <rect
       style="fill:#c8ab37;stroke:#000000;stroke-width:0.264583;stroke-linejoin:round"
       id="rect4-1-5-4"
       width="2.7109404"
       height="5.5149002"
       x="-192.28465"
       y="79.562614"
       transform="rotate(-90)" />
    <rect
       style="fill:#008080;stroke:#000000;stroke-width:0.264583;stroke-linejoin:round"
       id="rect4-1-0-7"
       width="2.7109404"
       height="10.62697"
       x="-194.99559"
       y="82.320061"
       transform="rotate(-90)" />
    <rect
       style="fill:#c8ab37;stroke:#000000;stroke-width:0.264583;stroke-linejoin:round"
       id="rect4-1-5-6-4"
       width="2.7109404"
       height="5.5149002"
       x="-197.70653"
       y="79.562614"
       transform="rotate(-90)" />
    <rect
       style="fill:#c8ab37;stroke:#000000;stroke-width:0.264583;stroke-linejoin:round"
       id="rect4-1-5-7-4"
       width="2.7109404"
       height="5.5149002"
       x="-192.28465"
       y="90.189583"
       transform="rotate(-90)" />
    <rect
       style="fill:#c8ab37;stroke:#000000;stroke-width:0.264583;stroke-linejoin:round"
       id="rect4-1-5-6-6-3"
       width="2.7109404"
       height="5.5149002"
       x="-197.70653"
       y="90.189583"
       transform="rotate(-90)" />
    <rect
       style="fill:#c8ab37;stroke:#000000;stroke-width:0.264584;stroke-linejoin:round"
       id="rect4-1-8"
       width="2.7109404"
       height="55.536037"
       x="-206.27658"
       y="79.562622"
       transform="rotate(-90)" />
    <ellipse
       style="fill:none;stroke:#cccccc;stroke-width:0.264583;stroke-linejoin:round"
       id="path10"
       cx="109.78876"
       cy="186.2444"
       rx="11.371748"
       ry="11.365091" />
    <rect
       style="fill:#666666;stroke:#000000;stroke-width:0.264583;stroke-linejoin:round"
       id="rect10-8"
       width="5.0789132"
       height="3.0237403"
       x="123.91838"
       y="184.73253"
       ry="0" />
    <rect
       style="fill:#666666;stroke:#000000;stroke-width:0.264583;stroke-linejoin:round"
       id="rect9-92"
       width="9.8068304"
       height="19.810711"
       x="125.29182"
       y="176.33905"
       ry="2.7109396" />
    <path
       style="fill:#ffe6d5;stroke:#000000;stroke-width:0.264583;stroke-linejoin:round"
       d="m 18.977047,174.78228 v 22.92425 l 14.084275,-0.0971 c 0,0 3.633326,-0.4623 5.245379,-1.25843 1.285464,-0.63484 2.364266,-1.6595 3.338493,-2.71093 0.747197,-0.80641 1.45103,-1.69805 1.877905,-2.71094 0.617842,-1.46601 0.894092,-3.09412 0.90997,-4.68479 0.01295,-1.29513 -0.277922,-2.59219 -0.66461,-3.82839 -0.25533,-0.81626 -0.595076,-1.62292 -1.079984,-2.32758 -0.806429,-1.17189 -1.821376,-2.22717 -2.974177,-3.06113 -1.050704,-0.7601 -2.258379,-1.32297 -3.498755,-1.70205 -1.015455,-0.31033 -3.154221,-0.44594 -3.154221,-0.44594 z"
       id="path15-4-5"
       sodipodi:nodetypes="cccaaaaaaaacc" />
    <path
       style="fill:#c8ab37;stroke:#000000;stroke-width:0.264583;stroke-linejoin:round"
       d="m 47.145597,174.78228 v 22.92425 l -14.084275,-0.0971 c 0,0 -3.633326,-0.4623 -5.245379,-1.25843 -1.285464,-0.63484 -2.364266,-1.6595 -3.338493,-2.71093 -0.747197,-0.80641 -1.451031,-1.69805 -1.877905,-2.71094 -0.617842,-1.46601 -0.894092,-3.09412 -0.90997,-4.68479 -0.01296,-1.29513 0.277921,-2.59219 0.66461,-3.82839 0.25533,-0.81626 0.595075,-1.62292 1.079983,-2.32758 0.80643,-1.17189 1.821377,-2.22717 2.974178,-3.06113 1.050704,-0.7601 2.258378,-1.32297 3.498754,-1.70205 1.015455,-0.31033 3.154222,-0.44594 3.154222,-0.44594 z"
       id="path15-0"
       sodipodi:nodetypes="cccaaaaaaaacc" />
    <rect
       style="fill:#c8ab37;stroke:#000000;stroke-width:0.264584;stroke-linejoin:round"
       id="rect4-1-4"
       width="2.7109404"
       height="55.536037"
       x="-169.9917"
       y="-63.28746"
       transform="matrix(0,-1,-1,0,0,0)" />
    <rect
       style="fill:#c8ab37;stroke:#000000;stroke-width:0.264583;stroke-linejoin:round"
       id="rect4-1-5-8"
       width="2.7109404"
       height="5.5149002"
       x="-177.49321"
       y="-63.28746"
       transform="matrix(0,-1,-1,0,0,0)" />
    <rect
       style="fill:#008080;stroke:#000000;stroke-width:0.264583;stroke-linejoin:round"
       id="rect4-1-0-71"
       width="2.7109404"
       height="10.62697"
       x="-180.20415"
       y="-60.530014"
       transform="matrix(0,-1,-1,0,0,0)" />
    <rect
       style="fill:#c8ab37;stroke:#000000;stroke-width:0.264583;stroke-linejoin:round"
       id="rect4-1-5-6-7"
       width="2.7109404"
       height="5.5149002"
       x="-182.91508"
       y="-63.28746"
       transform="matrix(0,-1,-1,0,0,0)" />
    <rect
       style="fill:#c8ab37;stroke:#000000;stroke-width:0.264583;stroke-linejoin:round"
       id="rect4-1-5-7-2"
       width="2.7109404"
       height="5.5149002"
       x="-177.49321"
       y="-52.660488"
       transform="matrix(0,-1,-1,0,0,0)" />
    <rect
       style="fill:#c8ab37;stroke:#000000;stroke-width:0.264583;stroke-linejoin:round"
       id="rect4-1-5-6-6-7"
       width="2.7109404"
       height="5.5149002"
       x="-182.91508"
       y="-52.660488"
       transform="matrix(0,-1,-1,0,0,0)" />
    <rect
       style="fill:none;stroke:#cccccc;stroke-width:0.264583;stroke-linejoin:round"
       id="rect4-1-7-2"
       width="2.7125282"
       height="22.924244"
       x="-47.145599"
       y="174.78227"
       transform="scale(-1,1)" />
    <rect
       style="fill:#c8ab37;stroke:#000000;stroke-width:0.264583;stroke-linejoin:round"
       id="rect4-1-5-4-2"
       width="2.7109404"
       height="5.5149002"
       x="-192.28465"
       y="-63.287468"
       transform="matrix(0,-1,-1,0,0,0)" />
    <rect
       style="fill:#008080;stroke:#000000;stroke-width:0.264583;stroke-linejoin:round"
       id="rect4-1-0-7-6"
       width="2.7109404"
       height="10.62697"
       x="-194.99559"
       y="-60.530018"
       transform="matrix(0,-1,-1,0,0,0)" />
    <rect
       style="fill:#c8ab37;stroke:#000000;stroke-width:0.264583;stroke-linejoin:round"
       id="rect4-1-5-6-4-1"
       width="2.7109404"
       height="5.5149002"
       x="-197.70653"
       y="-63.287468"
       transform="matrix(0,-1,-1,0,0,0)" />
    <rect
       style="fill:#c8ab37;stroke:#000000;stroke-width:0.264583;stroke-linejoin:round"
       id="rect4-1-5-7-4-0"
       width="2.7109404"
       height="5.5149002"
       x="-192.28465"
       y="-52.660496"
       transform="matrix(0,-1,-1,0,0,0)" />
    <rect
       style="fill:#c8ab37;stroke:#000000;stroke-width:0.264583;stroke-linejoin:round"
       id="rect4-1-5-6-6-3-6"
       width="2.7109404"
       height="5.5149002"
       x="-197.70653"
       y="-52.660496"
       transform="matrix(0,-1,-1,0,0,0)" />
    <rect
       style="fill:#c8ab37;stroke:#000000;stroke-width:0.264584;stroke-linejoin:round"
       id="rect4-1-8-1"
       width="2.7109404"
       height="55.536037"
       x="-206.27658"
       y="-63.28746"
       transform="matrix(0,-1,-1,0,0,0)" />
    <ellipse
       style="fill:none;stroke:#cccccc;stroke-width:0.264583;stroke-linejoin:round"
       id="path10-5"
       cx="-33.061325"
       cy="186.2444"
       transform="scale(-1,1)"
       rx="11.371748"
       ry="11.365091" />
    <rect
       style="fill:#666666;stroke:#000000;stroke-width:0.264583;stroke-linejoin:round"
       id="rect10-8-9"
       width="5.0789132"
       height="3.0237403"
       x="-18.931709"
       y="184.73253"
       ry="0"
       transform="scale(-1,1)" />
    <rect
       style="fill:#666666;stroke:#000000;stroke-width:0.264583;stroke-linejoin:round"
       id="rect9-92-4"
       width="9.8068304"
       height="19.810711"
       x="-17.558256"
       y="176.33905"
       ry="2.7109396"
       transform="scale(-1,1)" />
    <path
       style="fill:#ffe6d5;stroke:#ff5555;stroke-width:0.264583;stroke-linejoin:round;marker-start:url(#ArrowWide-5);marker-end:url(#ArrowWide-5)"
       d="M 7.7178735,165.16408 H 135.13221"
       id="path16-3" />
    <text
       xml:space="preserve"
       transform="matrix(0.26458333,0,0,0.26458333,8.3245014,19.723819)"
       id="text16-9"
       style="font-size:16px;line-height:normal;font-family:'Liberation Mono';-inkscape-font-specification:'Liberation Mono';text-decoration-color:#000000;white-space:pre;shape-inside:url(#rect16-5);display:inline;fill:#d40000;stroke-width:1;-inkscape-stroke:none;stop-color:#000000"><tspan
         x="229.27539"
         y="542.19543"
         id="tspan3">W1</tspan></text>
    <path
       style="fill:#ffe6d5;stroke:#ff5555;stroke-width:0.264583;stroke-linejoin:round;marker-start:url(#ArrowWide-5-5);marker-end:url(#ArrowWide-5-5)"
       d="m 137.21534,169.9917 v 33.2876"
       id="path16-3-1" />
    <text
       xml:space="preserve"
       transform="matrix(0.26458333,0,0,0.26458333,76.951997,44.573859)"
       id="text16-9-2"
       style="font-size:16px;line-height:normal;font-family:'Liberation Mono';-inkscape-font-specification:'Liberation Mono';text-decoration-color:#000000;white-space:pre;shape-inside:url(#rect16-5-9);display:inline;fill:#d40000;stroke-width:1;-inkscape-stroke:none;stop-color:#000000"><tspan
         x="229.27539"
         y="542.19543"
         id="tspan4">L1</tspan></text>
    <path
       style="fill:#ffe6d5;stroke:#ff5555;stroke-width:0.264583;stroke-linejoin:round;marker-end:url(#ArrowWide-5-5-1)"
       d="m 88.015794,197.83882 v 5.57155"
       id="path16-3-1-2" />
    <path
       style="fill:#ffe6d5;stroke:#ff5555;stroke-width:0.264583;stroke-linejoin:round;marker-end:url(#ArrowWide-5-5-1-8)"
       d="m 88.015794,212.23366 v -5.57155"
       id="path16-3-1-2-8" />
    <text
       xml:space="preserve"
       transform="matrix(0.26458333,0,0,0.26458333,28.312343,68.920634)"
       id="text16-9-2-4"
       style="font-size:16px;line-height:normal;font-family:'Liberation Mono';-inkscape-font-specification:'Liberation Mono';text-decoration-color:#000000;white-space:pre;shape-inside:url(#rect16-5-9-3);display:inline;fill:#d40000;stroke-width:1;-inkscape-stroke:none;stop-color:#000000"><tspan
         x="229.27539"
         y="542.19543"
         id="tspan5">T1</tspan></text>
    <path
       style="fill:#ffe6d5;stroke:#ff5555;stroke-width:0.264583;stroke-linejoin:round;marker-end:url(#ArrowWide-5-5-1-8-2-9-0)"
       d="m 41.50486,211.60523 9.5351,-16.57097"
       id="path16-3-1-2-8-7-49-6"
       sodipodi:nodetypes="cc" />
    <path
       style="fill:#ffe6d5;stroke:#ff5555;stroke-width:0.264583;stroke-linejoin:round;marker-start:url(#ArrowWide-5-9-1);marker-end:url(#ArrowWide-5-9-1)"
       d="M 63.664073,208.39326 H 79.181206"
       id="path16-3-9-6" />
    <text
       xml:space="preserve"
       transform="matrix(0.26458333,0,0,0.26458333,9.5569594,68.613142)"
       id="text16-9-3-4"
       style="font-size:16px;line-height:normal;font-family:'Liberation Mono';-inkscape-font-specification:'Liberation Mono';text-decoration-color:#000000;white-space:pre;shape-inside:url(#rect16-5-3-4);display:inline;fill:#d40000;stroke-width:1;-inkscape-stroke:none;stop-color:#000000"><tspan
         x="229.27539"
         y="542.19543"
         id="tspan6">W2</tspan></text>
    <path
       style="fill:#ffe6d5;stroke:#ff5555;stroke-width:0.264583;stroke-linejoin:round;marker-end:url(#ArrowWide-5-5-1-82)"
       d="m 72.012466,201.35088 h -5.57155"
       id="path16-3-1-2-9" />
    <path
       style="fill:#ffe6d5;stroke:#ff5555;stroke-width:0.264583;stroke-linejoin:round;marker-end:url(#ArrowWide-5-5-1-8-6)"
       d="m 57.617626,201.35088 h 5.57155"
       id="path16-3-1-2-8-6" />
    <text
       xml:space="preserve"
       transform="matrix(0.26458333,0,0,0.26458333,7.0403172,57.177029)"
       id="text16-9-2-4-0"
       style="font-size:16px;line-height:normal;font-family:'Liberation Mono';-inkscape-font-specification:'Liberation Mono';text-decoration-color:#000000;white-space:pre;shape-inside:url(#rect16-5-9-3-6);display:inline;fill:#d40000;stroke-width:1;-inkscape-stroke:none;stop-color:#000000"><tspan
         x="229.27539"
         y="542.19543"
         id="tspan7">T1</tspan></text>
    <path
       style="fill:#ffe6d5;stroke:#ff5555;stroke-width:0.264583;stroke-linejoin:round;marker-start:url(#ArrowWide-5-5-9);marker-end:url(#ArrowWide-5-5-9)"
       d="m 23.919846,175.21026 v 22.02032"
       id="path16-3-1-1" />
    <text
       xml:space="preserve"
       transform="matrix(0.26458333,0,0,0.26458333,-36.075183,43.522517)"
       id="text16-9-2-7"
       style="font-size:16px;line-height:normal;font-family:'Liberation Mono';-inkscape-font-specification:'Liberation Mono';text-decoration-color:#000000;white-space:pre;shape-inside:url(#rect16-5-9-0);display:inline;fill:#d40000;stroke-width:1;-inkscape-stroke:none;stop-color:#000000"><tspan
         x="229.27539"
         y="542.19543"
         id="tspan8">F1</tspan></text>
    <text
       xml:space="preserve"
       transform="matrix(0.26458333,0,0,0.26458333,-24.550956,69.94092)"
       id="text16-9-2-7-1"
       style="font-size:16px;line-height:normal;font-family:'Liberation Mono';-inkscape-font-specification:'Liberation Mono';text-decoration-color:#000000;white-space:pre;shape-inside:url(#rect16-5-9-0-1);display:inline;fill:#d40000;stroke-width:1;-inkscape-stroke:none;stop-color:#000000"><tspan
         x="229.27539"
         y="542.19543"
         id="tspan9">E1</tspan></text>
    <path
       style="fill:#ffe6d5;stroke:#ff5555;stroke-width:0.264583;stroke-linejoin:round;marker-end:url(#ArrowWide-5-5-1-8-2-9-0-1)"
       d="m 41.661033,212.59491 17.63994,-17.40529"
       id="path16-3-1-2-8-7-49-6-8"
       sodipodi:nodetypes="cc" />
  </g>
</svg>
