<?xml version="1.0" encoding="UTF-8" standalone="no"?>
<!-- Created with Inkscape (http://www.inkscape.org/) -->

<svg
   width="581.21497"
   height="604.63989"
   viewBox="0 0 153.77979 159.97764"
   version="1.1"
   id="svg1"
   inkscape:version="1.4.1 (1:1.4.1+202503302257+93de688d07)"
   sodipodi:docname="src_plugTorque.svg"
   xmlns:inkscape="http://www.inkscape.org/namespaces/inkscape"
   xmlns:sodipodi="http://sodipodi.sourceforge.net/DTD/sodipodi-0.dtd"
   xmlns="http://www.w3.org/2000/svg"
   xmlns:svg="http://www.w3.org/2000/svg">
  <sodipodi:namedview
     id="namedview1"
     pagecolor="#ffffff"
     bordercolor="#000000"
     borderopacity="0.25"
     inkscape:showpageshadow="2"
     inkscape:pageopacity="0.0"
     inkscape:pagecheckerboard="0"
     inkscape:deskcolor="#d1d1d1"
     inkscape:document-units="px"
     inkscape:zoom="1.1099335"
     inkscape:cx="353.17433"
     inkscape:cy="422.09738"
     inkscape:window-width="1854"
     inkscape:window-height="1131"
     inkscape:window-x="0"
     inkscape:window-y="0"
     inkscape:window-maximized="1"
     inkscape:current-layer="layer1">
    <inkscape:page
       x="0"
       y="0"
       width="153.77979"
       height="159.97765"
       id="page2"
       margin="0"
       bleed="0" />
  </sodipodi:namedview>
  <defs
     id="defs1">
    <marker
       style="overflow:visible"
       id="ArrowWide-26"
       refX="0"
       refY="0"
       orient="auto-start-reverse"
       inkscape:stockid="Wide arrow"
       markerWidth="1"
       markerHeight="1"
       viewBox="0 0 1 1"
       inkscape:isstock="true"
       inkscape:collect="always"
       preserveAspectRatio="xMidYMid">
      <path
         style="fill:none;stroke:context-stroke;stroke-width:1;stroke-linecap:butt"
         d="M 3,-3 0,0 3,3"
         transform="rotate(180,0.125,0)"
         sodipodi:nodetypes="ccc"
         id="path6-1" />
    </marker>
    <marker
       style="overflow:visible"
       id="ArrowWide-2-6"
       refX="0"
       refY="0"
       orient="auto-start-reverse"
       inkscape:stockid="Wide arrow"
       markerWidth="1"
       markerHeight="1"
       viewBox="0 0 1 1"
       inkscape:isstock="true"
       inkscape:collect="always"
       preserveAspectRatio="xMidYMid">
      <path
         style="fill:none;stroke:context-stroke;stroke-width:1;stroke-linecap:butt"
         d="M 3,-3 0,0 3,3"
         transform="rotate(180,0.125,0)"
         sodipodi:nodetypes="ccc"
         id="path6-9-1" />
    </marker>
    <rect
       x="453.6308"
       y="84.689758"
       width="50.903954"
       height="41.443928"
       id="rect7-9" />
    <rect
       x="495.00443"
       y="159.26784"
       width="119.13234"
       height="37.587208"
       id="rect10-7" />
    <rect
       x="44.594994"
       y="149.07469"
       width="123.2733"
       height="30.897961"
       id="rect11-1" />
    <rect
       x="230.61983"
       y="91.419739"
       width="131.23669"
       height="38.861351"
       id="rect13-7" />
    <rect
       x="230.61983"
       y="91.419739"
       width="131.23669"
       height="38.861351"
       id="rect13-9-3" />
    <rect
       x="92.693878"
       y="95.242165"
       width="102.56848"
       height="29.623817"
       id="rect17-5" />
    <rect
       x="92.693878"
       y="95.242165"
       width="102.56848"
       height="29.623817"
       id="rect17-6-6" />
    <marker
       style="overflow:visible"
       id="ArrowWide-9-9"
       refX="0"
       refY="0"
       orient="auto-start-reverse"
       inkscape:stockid="Wide arrow"
       markerWidth="1"
       markerHeight="1"
       viewBox="0 0 1 1"
       inkscape:isstock="true"
       inkscape:collect="always"
       preserveAspectRatio="xMidYMid">
      <path
         style="fill:none;stroke:context-stroke;stroke-width:1;stroke-linecap:butt"
         d="M 3,-3 0,0 3,3"
         transform="rotate(180,0.125,0)"
         sodipodi:nodetypes="ccc"
         id="path6-2-4" />
    </marker>
    <rect
       x="136.01472"
       y="326.8176"
       width="108.62066"
       height="25.80139"
       id="rect22-2" />
    <rect
       x="120.40648"
       y="367.90869"
       width="108.61129"
       height="26.493113"
       id="rect23-9" />
    <rect
       x="67.571617"
       y="656.79614"
       width="118.02509"
       height="62.16589"
       id="rect26-0" />
    <rect
       x="217.13014"
       y="679.32001"
       width="102.70886"
       height="44.14679"
       id="rect27-8" />
    <rect
       x="41.443928"
       y="601.83789"
       width="55.859203"
       height="36.939152"
       id="rect28-8" />
    <rect
       x="117.12414"
       y="622.55988"
       width="57.661114"
       height="36.939152"
       id="rect29-5" />
    <rect
       x="265.33121"
       y="485.61469"
       width="96.402176"
       height="34.236286"
       id="rect33-6" />
    <rect
       x="324.79425"
       y="512.64337"
       width="84.239288"
       height="31.533422"
       id="rect34-3" />
    <rect
       x="427.05264"
       y="451.37842"
       width="93.248833"
       height="32.434376"
       id="rect35-8" />
    <rect
       x="410.38495"
       y="487.8671"
       width="95.501221"
       height="46.849655"
       id="rect36-5" />
    <rect
       x="198.21008"
       y="501.83188"
       width="348.66956"
       height="39.19154"
       id="rect39-3" />
  </defs>
  <g
     inkscape:label="Layer 1"
     inkscape:groupmode="layer"
     id="layer1"
     transform="translate(-2.3585114,-217.03789)">
    <rect
       style="fill:#ffffff;stroke:#ffffff;stroke-width:0.264583;stroke-linejoin:round;stroke-dasharray:none"
       id="rect32-9"
       width="153.51521"
       height="159.71304"
       x="2.4908028"
       y="217.17018"
       inkscape:export-filename="plugTorque_teeth.svg"
       inkscape:export-xdpi="96"
       inkscape:export-ydpi="96" />
    <text
       xml:space="preserve"
       transform="matrix(0.26458333,0,0,0.26458333,-19.865432,190.06925)"
       id="text39-0"
       style="font-size:16px;line-height:normal;font-family:'Liberation Mono';-inkscape-font-specification:'Liberation Mono';text-decoration-color:#000000;white-space:pre;shape-inside:url(#rect39-3);display:inline;fill:#000000;stroke-width:1;-inkscape-stroke:none;stop-color:#000000"><tspan
         x="198.21094"
         y="516.06847"
         id="tspan2">teethStyle: [radial, <tspan
   style="font-weight:bold;-inkscape-font-specification:'Liberation Mono Bold'"
   id="tspan1">adden</tspan>, deden]</tspan></text>
    <circle
       style="fill:none;stroke:#008000;stroke-width:0.264583;stroke-linejoin:round"
       id="circle30"
       cx="78.14959"
       cy="307.3479"
       r="51.747448" />
    <path
       style="fill:none;stroke:#0000ff;stroke-width:0.264583;stroke-linejoin:round"
       d="M 78.149589,307.34803 V 236.72194"
       id="path31-8" />
    <path
       style="fill:none;stroke:#b3b3b3;stroke-width:0.264583;stroke-linejoin:round"
       d="M 78.149589,307.34803 97.870931,240.93591"
       id="path32-4" />
    <path
       style="fill:none;stroke:#b3b3b3;stroke-width:0.264583;stroke-linejoin:round"
       d="M 78.148289,307.31404 56.112957,233.1473"
       id="path3-3-8" />
    <path
       style="fill:none;stroke:#800080;stroke-width:0.264583;stroke-linejoin:round"
       d="m 78.15506,307.31037 40.27999,-58.1151"
       id="path33" />
    <circle
       style="fill:none;stroke:#aad400;stroke-width:0.264583;stroke-linejoin:round"
       id="path1-6-1"
       cx="78.046333"
       cy="307.3479"
       r="39.946323" />
    <circle
       style="fill:none;stroke:#aad400;stroke-width:0.264582;stroke-linejoin:round"
       id="path1-6-7-0"
       cx="78.046333"
       cy="307.3479"
       r="63.713062" />
    <path
       style="fill:none;stroke:#b3b3b3;stroke-width:0.264583;stroke-linejoin:round"
       d="m 78.15506,307.31037 57.30987,-44.16241"
       id="path3-37-3"
       sodipodi:nodetypes="cc" />
    <path
       style="fill:none;stroke:#0000ff;stroke-width:0.264583;stroke-linejoin:round"
       d="m 78.15506,307.31037 67.8126,-25.57655"
       id="path4-8-0"
       sodipodi:nodetypes="cc" />
    <path
       style="fill:none;stroke:#800080;stroke-width:0.264583;stroke-linejoin:round"
       d="m 77.908569,307.27267 -40.27999,-58.1151"
       id="path4-1-4" />
    <path
       style="fill:none;stroke:#d4aa00;stroke-width:0.264583;stroke-linejoin:round;marker-start:url(#ArrowWide-26);marker-end:url(#ArrowWide-26)"
       d="m 78.149589,255.64466 v 8.25603"
       id="path34" />
    <path
       style="fill:#d4aa00;stroke:#d4aa00;stroke-width:0.264582;stroke-linejoin:round;marker-start:url(#ArrowWide-2-6);marker-end:url(#ArrowWide-2-6)"
       d="M 78.14959,243.79792 V 255.4354"
       id="path5-0-4" />
    <text
       xml:space="preserve"
       transform="matrix(0.26458333,0,0,0.26458333,0.10702605,204.35871)"
       id="text7-4"
       style="font-size:16px;line-height:normal;font-family:'Liberation Mono';-inkscape-font-specification:'Liberation Mono';text-decoration-color:#000000;white-space:pre;shape-inside:url(#rect7-9);display:inline;fill:#1a1a1a;stroke-width:1;-inkscape-stroke:none;stop-color:#000000"><tspan
         x="453.63086"
         y="98.925894"
         id="tspan3">N1</tspan></text>
    <path
       style="fill:#1a1a1a;stroke:#999999;stroke-width:0.264583;stroke-linejoin:round;marker-start:url(#ArrowWide-26)"
       d="M 93.245351,244.35226 119.17667,230.10351"
       id="path35"
       sodipodi:nodetypes="cc" />
    <path
       style="fill:#1a1a1a;stroke:#999999;stroke-width:0.264583;stroke-linejoin:round;marker-end:url(#ArrowWide-26)"
       d="m 123.46746,231.2954 1.78783,38.25961"
       id="path36-7" />
    <path
       style="fill:none;stroke:#ff00ff;stroke-width:0.264583;stroke-linejoin:round;marker-start:url(#ArrowWide-26);marker-end:url(#ArrowWide-26)"
       d="m 63.879337,257.57953 c 0,0 3.582436,-0.89942 5.400627,-1.21324 1.746554,-0.30146 3.509304,-0.53245 5.278353,-0.64104 1.194844,-0.0733 2.394495,-0.0338 3.591272,-0.006 2.244732,0.0515 4.497572,0.0655 6.728322,0.32083 1.70992,0.19573 3.39074,0.59425 5.07957,0.9259 0.99442,0.19529 2.00317,0.33916 2.97502,0.62643 1.43417,0.42391 2.81331,1.02055 4.18734,1.61097 2.18754,0.93998 4.362849,1.92336 6.448999,3.07093 1.44802,0.79654 2.8473,1.68568 4.19691,2.6395 1.68177,1.18858 3.29996,2.47173 4.84615,3.83201 1.16978,1.02912 2.28099,2.12677 3.34263,3.26712 1.03058,1.10697 2.93176,3.46296 2.93176,3.46296"
       id="path37-6"
       sodipodi:nodetypes="caaaaaaaaaaac" />
    <text
       xml:space="preserve"
       transform="matrix(0.26458333,0,0,0.26458333,-1.915676,203.43164)"
       id="text10-3"
       style="font-size:16px;line-height:normal;font-family:'Liberation Mono';-inkscape-font-specification:'Liberation Mono';text-decoration-color:#000000;white-space:pre;shape-inside:url(#rect10-7);display:inline;fill:#ff00ff;stroke-width:1;-inkscape-stroke:none;stop-color:#000000"><tspan
         x="495.00391"
         y="173.50402"
         id="tspan4">module*Pi</tspan></text>
    <path
       style="fill:#ff00ff;stroke:#ff00ff;stroke-width:0.264583;stroke-linejoin:round;marker-start:url(#ArrowWide-26)"
       d="m 114.05255,267.90526 16.35016,-17.53008"
       id="path38-7" />
    <text
       xml:space="preserve"
       transform="matrix(0.26458333,0,0,0.26458333,-5.961078,209.92115)"
       id="text11-5"
       style="font-size:16px;line-height:normal;font-family:'Liberation Mono';-inkscape-font-specification:'Liberation Mono';text-decoration-color:#000000;white-space:pre;shape-inside:url(#rect11-1);display:inline;fill:#008000;stroke-width:1;-inkscape-stroke:none;stop-color:#000000"><tspan
         x="44.595703"
         y="163.31066"
         id="tspan19"><tspan
   style="font-weight:bold;-inkscape-font-specification:'Liberation Mono Bold'"
   id="tspan6">D1</tspan>=module*N1</tspan></text>
    <path
       style="fill:#008000;stroke:#008000;stroke-width:0.264583;stroke-linejoin:round;marker-end:url(#ArrowWide-26)"
       d="m 9.883416,254.7577 28.992055,17.36152"
       id="path39-6"
       sodipodi:nodetypes="cc" />
    <path
       style="fill:none;stroke:#6c5d53;stroke-width:0.264583;stroke-linejoin:round;marker-start:url(#ArrowWide-26);marker-end:url(#ArrowWide-26)"
       d="m 58.847282,241.17906 c 0,0 2.775968,-0.64362 4.172625,-0.92707 1.674309,-0.33981 3.346013,-0.71021 5.041924,-0.92708 2.304674,-0.29472 4.63137,-0.42133 6.954379,-0.50567 1.62155,-0.0589 3.245374,0 4.868061,0 1.8545,0 3.71206,-0.10322 5.5635,0 2.27142,0.12663 4.52299,0.48438 6.78052,0.75851 1.07349,0.13035 2.1558,0.21439 3.2164,0.4214 0.76487,0.14928 2.26017,0.58995 2.26017,0.58995"
       id="path40"
       sodipodi:nodetypes="caaaaaaac" />
    <text
       xml:space="preserve"
       transform="matrix(0.26458333,0,0,0.26458333,-2.024007,196.47362)"
       id="text13-2"
       style="font-size:16px;line-height:normal;font-family:'Liberation Mono';-inkscape-font-specification:'Liberation Mono';text-decoration-color:#000000;white-space:pre;shape-inside:url(#rect13-7);display:inline;fill:#6c5d53;stroke-width:1;-inkscape-stroke:none;stop-color:#000000"><tspan
         x="230.61914"
         y="105.65636"
         id="tspan20">ati(%)</tspan></text>
    <path
       style="fill:#6c5d53;stroke:#6c5d53;stroke-width:0.264582;stroke-linejoin:round;marker-end:url(#ArrowWide-26)"
       d="m 65.34564,225.55946 3.215358,13.02859"
       id="path41" />
    <circle
       style="fill:none;stroke:#aad400;stroke-width:0.264583;stroke-linejoin:round"
       id="path1-6-9-1"
       cx="78.046333"
       cy="307.3479"
       r="42.980373" />
    <circle
       style="fill:none;stroke:#aad400;stroke-width:0.264583;stroke-linejoin:round"
       id="path1-6-5-7"
       cx="78.046333"
       cy="307.3479"
       r="66.072884" />
    <path
       style="fill:none;stroke:#b3b3b3;stroke-width:0.264583;stroke-linejoin:round"
       d="M 78.152229,307.3496 104.69072,233.54462"
       id="path3-35-8"
       sodipodi:nodetypes="cc" />
    <path
       style="fill:none;stroke:#ac9d93;stroke-width:0.264583;stroke-linejoin:round;stroke-dasharray:none;marker-start:url(#ArrowWide-26);marker-end:url(#ArrowWide-26)"
       d="m 57.198473,235.70538 c 0,0 5.148636,-1.05173 7.747276,-1.43026 3.321335,-0.48381 6.659103,-0.91662 10.011859,-1.0727 2.897396,-0.13488 5.803143,-0.0103 8.700783,0.11918 2.62705,0.11739 5.2527,0.3072 7.86646,0.59595 2.19477,0.24246 4.40002,0.47375 6.55539,0.95351 1.7421,0.38777 5.125109,1.54945 5.125109,1.54945"
       id="path42"
       sodipodi:nodetypes="caaaaac" />
    <text
       xml:space="preserve"
       transform="matrix(0.26458333,0,0,0.26458333,24.203735,197.60837)"
       id="text13-7-5"
       style="font-size:16px;line-height:normal;font-family:'Liberation Mono';-inkscape-font-specification:'Liberation Mono';text-decoration-color:#000000;white-space:pre;shape-inside:url(#rect13-9-3);display:inline;fill:#ac9d93;stroke-width:1;-inkscape-stroke:none;stop-color:#000000"><tspan
         x="230.61914"
         y="105.65636"
         id="tspan21">ate(%)</tspan></text>
    <path
       style="fill:none;stroke:#ac9d93;stroke-width:0.264583;stroke-linejoin:round;stroke-dasharray:none;marker-end:url(#ArrowWide-26)"
       d="m 92.001611,226.76622 -0.95351,6.31701"
       id="path43" />
    <path
       style="fill:none;stroke:#008080;stroke-width:0.529167;stroke-linejoin:round;stroke-dasharray:none"
       d="m 50.590282,274.14192 c 0,0 2.426928,-1.75164 3.666252,-2.59005 0.885982,-0.59937 1.759551,-1.223 2.693829,-1.7439 1.725304,-0.96194 3.510039,-1.83219 5.354732,-2.53865 1.149464,-0.44021 3.539728,-1.05158 3.539728,-1.05158 l -6.41087,-22.26702 c 0,0 3.4268,-0.90109 5.154708,-1.29065 1.255186,-0.28298 2.513494,-0.55982 3.784539,-0.75986 1.703912,-0.26816 3.419359,-0.48371 5.141032,-0.58891 1.507936,-0.0921 3.021626,-0.065 4.5321,-0.0363 2.424469,0.0462 4.854329,0.0917 7.266989,0.3351 1.81059,0.18265 3.60228,0.52382 5.39387,0.8428 1.12824,0.20087 2.25712,0.40561 3.37117,0.67423 1.50431,0.36272 3.01468,0.72954 4.4668,1.26419 0.69601,0.25626 2.022699,0.92707 2.022699,0.92707 l -7.837959,21.57548 c 0,0 2.612,1.00542 3.87684,1.60131 1.35292,0.63738 2.68971,1.31948 3.961119,2.10698 1.43814,0.89076 2.81132,1.88975 4.12968,2.94977 1.20912,0.97219 2.33064,2.04973 3.45545,3.11833 0.89291,0.8483 1.79127,1.69495 2.61266,2.61266 0.47987,0.53614 1.34846,1.68558 1.34846,1.68558 l 18.37288,-13.90607 v 0 c 0,0 1.37082,1.78162 2.0227,2.69694 0.72772,1.02182 1.45147,2.04874 2.10698,3.11833 0.99682,1.6265 1.89821,3.31109 2.77098,5.00738 0.72031,1.39997 1.43567,2.80661 2.03293,4.26333 0.58644,1.43034 1.51703,4.38252 1.51703,4.38252"
       id="path44"
       sodipodi:nodetypes="caaaccaaaaaaaaccaaaaacccaaaac" />
    <path
       style="fill:none;stroke:#ff0000;stroke-width:0.529167;stroke-linejoin:round"
       d="m 52.137187,276.94357 c 0,0 3.151438,-2.47067 4.728715,-3.46447 1.577277,-0.99381 3.049433,-1.77346 4.691634,-2.51562 1.642201,-0.74216 5.143606,-1.91692 5.143606,-1.91692 l -6.678888,-22.7989 c 0,0 3.052786,-0.86711 4.933577,-1.25353 1.880791,-0.38641 4.167196,-0.77231 6.351582,-1.00189 2.184386,-0.22958 4.474117,-0.35821 6.738919,-0.35739 2.264799,8.1e-4 4.533809,0.11789 6.830559,0.3672 2.29675,0.24931 5.01946,0.7779 6.9285,1.13619 1.90905,0.3583 4.53284,0.95907 4.53284,0.95907 l -6.81146,22.98957 c 0,0 3.17168,1.01773 5.05247,1.89662 1.88078,0.87889 4.37523,2.24599 6.143039,3.47811 1.76779,1.23211 3.39897,2.59203 4.69164,3.79116 1.29268,1.19912 2.23555,2.36108 2.99916,3.14195 0.76361,0.78088 1.37802,1.5372 1.37802,1.5372 l 18.69608,-14.40699 c 0,0 2.14295,2.81295 3.15329,4.36979 1.01034,1.55684 1.95651,3.17727 2.8865,4.96945 0.92999,1.79217 1.91054,3.9275 2.66093,5.78503 0.7504,1.85753 1.86771,5.3351 1.86771,5.3351"
       id="path45"
       sodipodi:nodetypes="czzcczzzzzcczzzzcczzzc" />
    <text
       xml:space="preserve"
       transform="matrix(0.26458333,0,0,0.26458333,0.10702605,204.35871)"
       id="text17-7"
       style="font-size:16px;line-height:normal;font-family:'Liberation Mono';-inkscape-font-specification:'Liberation Mono';text-decoration-color:#000000;white-space:pre;shape-inside:url(#rect17-5);display:inline;fill:#d4aa00;stroke-width:1;-inkscape-stroke:none;stop-color:#000000"><tspan
         x="92.693359"
         y="109.47863"
         id="tspan25">module*<tspan
   style="font-weight:bold;-inkscape-font-specification:'Liberation Mono Bold'"
   id="tspan23">ah</tspan></tspan></text>
    <text
       xml:space="preserve"
       transform="matrix(0.26458333,0,0,0.26458333,-2.488853,212.68729)"
       id="text17-2-4"
       style="font-size:16px;line-height:normal;font-family:'Liberation Mono';-inkscape-font-specification:'Liberation Mono';text-decoration-color:#000000;white-space:pre;shape-inside:url(#rect17-6-6);display:inline;fill:#d4aa00;stroke-width:1;-inkscape-stroke:none;stop-color:#000000"><tspan
         x="92.693359"
         y="109.47863"
         id="tspan27">module*<tspan
   style="font-weight:bold;-inkscape-font-specification:'Liberation Mono Bold'"
   id="tspan26">dh</tspan></tspan></text>
    <path
       style="fill:none;stroke:#d4aa00;stroke-width:0.264583;stroke-linejoin:round;stroke-dasharray:none;marker-end:url(#ArrowWide-26)"
       d="m 45.617808,242.11582 31.68899,17.69863"
       id="path46"
       sodipodi:nodetypes="cc" />
    <path
       style="fill:none;stroke:#d4aa00;stroke-width:0.264583;stroke-linejoin:round;stroke-dasharray:none;marker-end:url(#ArrowWide-9-9)"
       d="m 47.768478,233.8207 29.49773,16.51873"
       id="path20-3-1"
       sodipodi:nodetypes="cc" />
    <path
       style="fill:#d4aa00;stroke:#d4aa00;stroke-width:0.264583;stroke-linejoin:round;stroke-dasharray:none;marker-start:url(#ArrowWide-26);marker-end:url(#ArrowWide-26)"
       d="m 44.802837,280.04363 2.383776,1.78783"
       id="path47" />
    <path
       style="fill:#d4aa00;stroke:#d4aa00;stroke-width:0.264583;stroke-linejoin:round;stroke-dasharray:none;marker-start:url(#ArrowWide-26);marker-end:url(#ArrowWide-26)"
       d="m 13.001748,297.06593 1.854143,0.33712"
       id="path48" />
    <text
       xml:space="preserve"
       transform="matrix(0.26458333,0,0,0.26458333,-29.124062,188.42994)"
       id="text22-8"
       style="font-size:16px;line-height:normal;font-family:'Liberation Mono';-inkscape-font-specification:'Liberation Mono';text-decoration-color:#000000;white-space:pre;shape-inside:url(#rect22-2);display:inline;fill:#d4aa00;stroke-width:1;-inkscape-stroke:none;stop-color:#000000"><tspan
         x="136.01562"
         y="341.0548"
         id="tspan29">module*<tspan
   style="font-weight:bold;-inkscape-font-specification:'Liberation Mono Bold'"
   id="tspan28">deh</tspan></tspan></text>
    <text
       xml:space="preserve"
       transform="matrix(0.26458333,0,0,0.26458333,-27.222936,186.74436)"
       id="text23-5"
       style="font-size:16px;line-height:normal;font-family:'Liberation Mono';-inkscape-font-specification:'Liberation Mono';text-decoration-color:#000000;white-space:pre;shape-inside:url(#rect23-9);display:inline;fill:#d4aa00;stroke-width:1;-inkscape-stroke:none;stop-color:#000000"><tspan
         x="120.40625"
         y="382.14464"
         id="tspan31">module*<tspan
   style="font-weight:bold;-inkscape-font-specification:'Liberation Mono Bold'"
   id="tspan30">aeh</tspan></tspan></text>
    <path
       style="fill:#d4aa00;stroke:#d4aa00;stroke-width:0.264583;stroke-linejoin:round;stroke-dasharray:none;marker-end:url(#ArrowWide-26)"
       d="m 23.283813,288.13228 -8.680759,7.75373"
       id="path49"
       sodipodi:nodetypes="cc" />
    <path
       style="fill:#d4aa00;stroke:#d4aa00;stroke-width:0.264583;stroke-linejoin:round;stroke-dasharray:none;marker-end:url(#ArrowWide-26)"
       d="m 32.510304,277.93449 11.337676,2.44409"
       id="path50"
       sodipodi:nodetypes="cc" />
    <text
       xml:space="preserve"
       transform="matrix(0.26458333,0,0,0.26458333,61.637192,100.34997)"
       id="text26-9"
       style="font-size:16px;line-height:normal;font-family:'Liberation Mono';-inkscape-font-specification:'Liberation Mono';text-decoration-color:#000000;white-space:pre;shape-inside:url(#rect26-0);display:inline;fill:#000000;stroke-width:1;-inkscape-stroke:none;stop-color:#000000"><tspan
         x="67.572266"
         y="671.03332"
         id="tspan32">Rdi</tspan></text>
    <text
       xml:space="preserve"
       transform="matrix(0.26458333,0,0,0.26458333,38.009073,103.76335)"
       id="text27-7"
       style="font-size:16px;line-height:normal;font-family:'Liberation Mono';-inkscape-font-specification:'Liberation Mono';text-decoration-color:#000000;white-space:pre;shape-inside:url(#rect27-8);display:inline;fill:#000000;stroke-width:1;-inkscape-stroke:none;stop-color:#000000"><tspan
         x="217.13086"
         y="693.55675"
         id="tspan33">Rde</tspan></text>
    <text
       xml:space="preserve"
       transform="matrix(0.26458333,0,0,0.26458333,69.951679,89.222394)"
       id="text28-5"
       style="font-size:16px;line-height:normal;font-family:'Liberation Mono';-inkscape-font-specification:'Liberation Mono';text-decoration-color:#000000;white-space:pre;shape-inside:url(#rect28-8);display:inline;fill:#000000;stroke-width:1;-inkscape-stroke:none;stop-color:#000000"><tspan
         x="41.443359"
         y="616.07433"
         id="tspan34">Rai</tspan></text>
    <text
       xml:space="preserve"
       transform="matrix(0.26458333,0,0,0.26458333,79.486781,76.945974)"
       id="text29-8"
       style="font-size:16px;line-height:normal;font-family:'Liberation Mono';-inkscape-font-specification:'Liberation Mono';text-decoration-color:#000000;white-space:pre;shape-inside:url(#rect29-5);display:inline;fill:#000000;stroke-width:1;-inkscape-stroke:none;stop-color:#000000"><tspan
         x="117.125"
         y="636.79699"
         id="tspan35">Rae</tspan></text>
    <path
       style="fill:none;stroke:#000000;stroke-width:0.264583;stroke-linejoin:round;stroke-dasharray:none;marker-end:url(#ArrowWide-26)"
       d="m 88.783511,250.84236 6.19782,-3.93323"
       id="path51" />
    <path
       style="fill:none;stroke:#000000;stroke-width:0.264583;stroke-linejoin:round;stroke-dasharray:none;marker-end:url(#ArrowWide-26)"
       d="m 110.11831,244.64454 -8.46241,0.59595"
       id="path52" />
    <path
       style="fill:none;stroke:#000000;stroke-width:0.264583;stroke-linejoin:round;stroke-dasharray:none;marker-end:url(#ArrowWide-26)"
       d="m 82.704881,274.79932 5.48269,-5.00594"
       id="path53" />
    <path
       style="fill:none;stroke:#000000;stroke-width:0.264583;stroke-linejoin:round;stroke-dasharray:none;marker-end:url(#ArrowWide-26)"
       d="m 97.722671,283.5001 -4.29079,-15.01779"
       id="path54" />
    <text
       xml:space="preserve"
       transform="matrix(0.26458333,0,0,0.26458333,28.712345,161.27061)"
       id="text32-3"
       style="font-size:16px;line-height:normal;font-family:'Liberation Mono';-inkscape-font-specification:'Liberation Mono';text-decoration-color:#000000;white-space:pre;shape-inside:url(#rect33-6);display:inline;fill:#000000;stroke-width:1;-inkscape-stroke:none;stop-color:#000000"><tspan
         x="265.33203"
         y="499.85168"
         id="tspan36">SnAdi</tspan></text>
    <text
       xml:space="preserve"
       transform="matrix(0.26458333,0,0,0.26458333,30.619366,143.2731)"
       id="text33-8"
       style="font-size:16px;line-height:normal;font-family:'Liberation Mono';-inkscape-font-specification:'Liberation Mono';text-decoration-color:#000000;white-space:pre;shape-inside:url(#rect34-3);display:inline;fill:#000000;stroke-width:1;-inkscape-stroke:none;stop-color:#000000"><tspan
         x="324.79492"
         y="526.87902"
         id="tspan37">SnAde</tspan></text>
    <text
       xml:space="preserve"
       transform="matrix(0.26458333,0,0,0.26458333,16.912651,173.30868)"
       id="text34-9"
       style="font-size:16px;line-height:normal;font-family:'Liberation Mono';-inkscape-font-specification:'Liberation Mono';text-decoration-color:#000000;white-space:pre;shape-inside:url(#rect35-8);display:inline;fill:#000000;stroke-width:1;-inkscape-stroke:none;stop-color:#000000"><tspan
         x="427.05273"
         y="465.61535"
         id="tspan38">SnAai</tspan></text>
    <text
       xml:space="preserve"
       transform="matrix(0.26458333,0,0,0.26458333,26.462122,133.54271)"
       id="text35-4"
       style="font-size:16px;line-height:normal;font-family:'Liberation Mono';-inkscape-font-specification:'Liberation Mono';text-decoration-color:#000000;white-space:pre;shape-inside:url(#rect36-5);display:inline;fill:#000000;stroke-width:1;-inkscape-stroke:none;stop-color:#000000"><tspan
         x="410.38477"
         y="502.10363"
         id="tspan39">SnAae</tspan></text>
    <path
       style="fill:#ffffff;stroke:#000000;stroke-width:0.264583;stroke-linejoin:round;stroke-dasharray:none;marker-end:url(#ArrowWide-26)"
       d="m 105.46995,289.99454 1.31107,-8.93916"
       id="path55" />
    <path
       style="fill:#ffffff;stroke:#000000;stroke-width:0.264583;stroke-linejoin:round;stroke-dasharray:none;marker-start:url(#ArrowWide-26)"
       d="m 110.71426,277.83728 5.72105,2.02621"
       id="path56" />
    <path
       style="fill:#ffffff;stroke:#000000;stroke-width:0.264583;stroke-linejoin:round;stroke-dasharray:none;marker-end:url(#ArrowWide-26)"
       d="m 139.91551,267.34867 -4.52917,4.88674"
       id="path57" />
    <path
       style="fill:#ffffff;stroke:#000000;stroke-width:0.264583;stroke-linejoin:round;stroke-dasharray:none;marker-end:url(#ArrowWide-26)"
       d="m 134.19445,293.33183 3.45648,-5.36349"
       id="path58" />
  </g>
</svg>
