<?xml version="1.0" encoding="UTF-8" standalone="no"?>
<!-- Created with Inkscape (http://www.inkscape.org/) -->

<svg
   width="581.21503"
   height="604.63983"
   viewBox="0 0 153.77981 159.97762"
   version="1.1"
   id="svg1"
   inkscape:version="1.4.1 (1:1.4.1+202503302257+93de688d07)"
   sodipodi:docname="src_plugTorque.svg"
   xmlns:inkscape="http://www.inkscape.org/namespaces/inkscape"
   xmlns:sodipodi="http://sodipodi.sourceforge.net/DTD/sodipodi-0.dtd"
   xmlns="http://www.w3.org/2000/svg"
   xmlns:svg="http://www.w3.org/2000/svg">
  <sodipodi:namedview
     id="namedview1"
     pagecolor="#ffffff"
     bordercolor="#000000"
     borderopacity="0.25"
     inkscape:showpageshadow="2"
     inkscape:pageopacity="0.0"
     inkscape:pagecheckerboard="0"
     inkscape:deskcolor="#d1d1d1"
     inkscape:document-units="px"
     inkscape:zoom="1.1099335"
     inkscape:cx="291.00844"
     inkscape:cy="1137.4556"
     inkscape:window-width="1854"
     inkscape:window-height="1131"
     inkscape:window-x="0"
     inkscape:window-y="0"
     inkscape:window-maximized="1"
     inkscape:current-layer="layer1">
    <inkscape:page
       x="-1.114614e-15"
       y="0"
       width="153.7798"
       height="159.97762"
       id="page2"
       margin="0"
       bleed="0" />
  </sodipodi:namedview>
  <defs
     id="defs1">
    <rect
       x="198.21008"
       y="501.83188"
       width="348.66956"
       height="39.19154"
       id="rect39" />
    <rect
       x="410.38495"
       y="487.8671"
       width="95.501221"
       height="46.849655"
       id="rect36" />
    <rect
       x="427.05264"
       y="451.37842"
       width="93.248833"
       height="32.434376"
       id="rect35" />
    <rect
       x="324.79425"
       y="512.64337"
       width="84.239288"
       height="31.533422"
       id="rect34" />
    <rect
       x="265.33121"
       y="485.61469"
       width="96.402176"
       height="34.236286"
       id="rect33" />
    <rect
       x="117.12414"
       y="622.55988"
       width="57.661114"
       height="36.939152"
       id="rect29" />
    <rect
       x="41.443928"
       y="601.83789"
       width="55.859203"
       height="36.939152"
       id="rect28" />
    <rect
       x="217.13014"
       y="679.32001"
       width="102.70886"
       height="44.14679"
       id="rect27" />
    <rect
       x="67.571617"
       y="656.79614"
       width="118.02509"
       height="62.16589"
       id="rect26" />
    <rect
       x="120.40648"
       y="367.90869"
       width="108.61129"
       height="26.493113"
       id="rect23" />
    <rect
       x="136.01472"
       y="326.8176"
       width="108.62066"
       height="25.80139"
       id="rect22" />
    <rect
       x="92.693878"
       y="95.242165"
       width="102.56848"
       height="29.623817"
       id="rect17" />
    <rect
       x="230.61983"
       y="91.419739"
       width="131.23669"
       height="38.861351"
       id="rect13" />
    <rect
       x="44.594994"
       y="149.07469"
       width="123.2733"
       height="30.897961"
       id="rect11" />
    <rect
       x="495.00443"
       y="159.26784"
       width="119.13234"
       height="37.587208"
       id="rect10" />
    <rect
       x="453.6308"
       y="84.689758"
       width="50.903954"
       height="41.443928"
       id="rect7" />
    <marker
       style="overflow:visible"
       id="ArrowWide"
       refX="0"
       refY="0"
       orient="auto-start-reverse"
       inkscape:stockid="Wide arrow"
       markerWidth="1"
       markerHeight="1"
       viewBox="0 0 1 1"
       inkscape:isstock="true"
       inkscape:collect="always"
       preserveAspectRatio="xMidYMid">
      <path
         style="fill:none;stroke:context-stroke;stroke-width:1;stroke-linecap:butt"
         d="M 3,-3 0,0 3,3"
         transform="rotate(180,0.125,0)"
         sodipodi:nodetypes="ccc"
         id="path6" />
    </marker>
    <marker
       style="overflow:visible"
       id="ArrowWide-2"
       refX="0"
       refY="0"
       orient="auto-start-reverse"
       inkscape:stockid="Wide arrow"
       markerWidth="1"
       markerHeight="1"
       viewBox="0 0 1 1"
       inkscape:isstock="true"
       inkscape:collect="always"
       preserveAspectRatio="xMidYMid">
      <path
         style="fill:none;stroke:context-stroke;stroke-width:1;stroke-linecap:butt"
         d="M 3,-3 0,0 3,3"
         transform="rotate(180,0.125,0)"
         sodipodi:nodetypes="ccc"
         id="path6-9" />
    </marker>
    <rect
       x="230.61983"
       y="91.419739"
       width="131.23669"
       height="38.861351"
       id="rect13-9" />
    <rect
       x="92.693878"
       y="95.242165"
       width="102.56848"
       height="29.623817"
       id="rect17-6" />
    <marker
       style="overflow:visible"
       id="ArrowWide-9"
       refX="0"
       refY="0"
       orient="auto-start-reverse"
       inkscape:stockid="Wide arrow"
       markerWidth="1"
       markerHeight="1"
       viewBox="0 0 1 1"
       inkscape:isstock="true"
       inkscape:collect="always"
       preserveAspectRatio="xMidYMid">
      <path
         style="fill:none;stroke:context-stroke;stroke-width:1;stroke-linecap:butt"
         d="M 3,-3 0,0 3,3"
         transform="rotate(180,0.125,0)"
         sodipodi:nodetypes="ccc"
         id="path6-2" />
    </marker>
  </defs>
  <g
     inkscape:label="Layer 1"
     inkscape:groupmode="layer"
     id="layer1"
     transform="translate(-2.2514849,-30.14167)">
    <rect
       style="fill:#ffffff;stroke:#ffffff;stroke-width:0.264583;stroke-linejoin:round;stroke-dasharray:none"
       id="rect32"
       width="153.51521"
       height="159.71304"
       x="2.3837764"
       y="30.273962"
       inkscape:export-filename="plugTorque_teeth_radial.svg"
       inkscape:export-xdpi="96"
       inkscape:export-ydpi="96" />
    <circle
       style="fill:none;stroke:#008000;stroke-width:0.264583;stroke-linejoin:round"
       id="path1"
       cx="78.042564"
       cy="120.45171"
       r="51.747448" />
    <path
       style="fill:none;stroke:#0000ff;stroke-width:0.264583;stroke-linejoin:round"
       d="M 78.042563,120.45182 V 49.825735"
       id="path2" />
    <path
       style="fill:none;stroke:#b3b3b3;stroke-width:0.264583;stroke-linejoin:round"
       d="M 78.042563,120.45182 97.763903,54.039696"
       id="path3" />
    <path
       style="fill:none;stroke:#b3b3b3;stroke-width:0.264583;stroke-linejoin:round"
       d="M 78.041263,120.41783 56.005931,46.251092"
       id="path3-3" />
    <path
       style="fill:none;stroke:#800080;stroke-width:0.264583;stroke-linejoin:round"
       d="M 78.048034,120.41416 118.32803,62.299059"
       id="path4" />
    <circle
       style="fill:none;stroke:#aad400;stroke-width:0.264583;stroke-linejoin:round"
       id="path1-6"
       cx="77.939308"
       cy="120.45171"
       r="39.946323" />
    <circle
       style="fill:none;stroke:#aad400;stroke-width:0.264582;stroke-linejoin:round"
       id="path1-6-7"
       cx="77.939308"
       cy="120.45169"
       r="63.713062" />
    <path
       style="fill:none;stroke:#b3b3b3;stroke-width:0.264583;stroke-linejoin:round"
       d="M 78.048034,120.41416 135.35791,76.251752"
       id="path3-37"
       sodipodi:nodetypes="cc" />
    <path
       style="fill:none;stroke:#0000ff;stroke-width:0.264583;stroke-linejoin:round"
       d="M 78.048034,120.41416 145.86064,94.837609"
       id="path4-8"
       sodipodi:nodetypes="cc" />
    <path
       style="fill:none;stroke:#800080;stroke-width:0.264583;stroke-linejoin:round"
       d="M 77.801543,120.37646 37.521553,62.261359"
       id="path4-1" />
    <path
       style="fill:none;stroke:#d4aa00;stroke-width:0.264583;stroke-linejoin:round;marker-start:url(#ArrowWide);marker-end:url(#ArrowWide)"
       d="M 78.042563,68.748446 V 77.00448"
       id="path5" />
    <path
       style="fill:#d4aa00;stroke:#d4aa00;stroke-width:0.264582;stroke-linejoin:round;marker-start:url(#ArrowWide-2);marker-end:url(#ArrowWide-2)"
       d="M 78.042564,56.901708 V 68.539186"
       id="path5-0" />
    <text
       xml:space="preserve"
       transform="matrix(0.26458333,0,0,0.26458333,0,17.462505)"
       id="text7"
       style="font-size:16px;line-height:normal;font-family:'Liberation Mono';-inkscape-font-specification:'Liberation Mono';text-decoration-color:#000000;white-space:pre;shape-inside:url(#rect7);display:inline;fill:#1a1a1a;stroke-width:1;-inkscape-stroke:none;stop-color:#000000"><tspan
         x="453.63086"
         y="98.925894"
         id="tspan1">Nt</tspan></text>
    <path
       style="fill:#1a1a1a;stroke:#999999;stroke-width:0.264583;stroke-linejoin:round;marker-start:url(#ArrowWide)"
       d="M 93.138323,57.456052 119.06964,43.207297"
       id="path8"
       sodipodi:nodetypes="cc" />
    <path
       style="fill:#1a1a1a;stroke:#999999;stroke-width:0.264583;stroke-linejoin:round;marker-end:url(#ArrowWide)"
       d="m 123.36044,44.399187 1.78783,38.259612"
       id="path9" />
    <path
       style="fill:none;stroke:#ff00ff;stroke-width:0.264583;stroke-linejoin:round;marker-start:url(#ArrowWide);marker-end:url(#ArrowWide)"
       d="m 63.772311,70.683322 c 0,0 3.582436,-0.899423 5.400627,-1.213245 1.746554,-0.301457 3.509304,-0.53245 5.278353,-0.641036 1.194844,-0.07334 2.394495,-0.03377 3.591272,-0.0063 2.244732,0.05152 4.497569,0.06547 6.728325,0.320826 1.709921,0.195735 3.390734,0.594249 5.079563,0.925906 0.994425,0.195288 2.00317,0.33916 2.975023,0.626423 1.434174,0.423917 2.813307,1.020555 4.18734,1.610973 2.187545,0.939982 4.362856,1.923359 6.449006,3.070929 1.44802,0.796541 2.8473,1.685679 4.19691,2.639505 1.68177,1.188576 3.29996,2.471731 4.84615,3.832005 1.16978,1.029122 2.28099,2.126772 3.34263,3.267117 1.03058,1.106977 2.93176,3.462963 2.93176,3.462963"
       id="path10"
       sodipodi:nodetypes="caaaaaaaaaaac" />
    <text
       xml:space="preserve"
       transform="matrix(0.26458333,0,0,0.26458333,-2.0227015,16.535433)"
       id="text10"
       style="font-size:16px;line-height:normal;font-family:'Liberation Mono';-inkscape-font-specification:'Liberation Mono';text-decoration-color:#000000;white-space:pre;shape-inside:url(#rect10);display:inline;fill:#ff00ff;stroke-width:1;-inkscape-stroke:none;stop-color:#000000"><tspan
         x="495.00391"
         y="173.50402"
         id="tspan2">module*Pi</tspan></text>
    <path
       style="fill:#ff00ff;stroke:#ff00ff;stroke-width:0.264583;stroke-linejoin:round;marker-start:url(#ArrowWide)"
       d="m 113.94552,81.009048 16.35017,-17.53008"
       id="path11" />
    <text
       xml:space="preserve"
       transform="matrix(0.26458333,0,0,0.26458333,-6.0681044,23.024937)"
       id="text11"
       style="font-size:16px;line-height:normal;font-family:'Liberation Mono';-inkscape-font-specification:'Liberation Mono';text-decoration-color:#000000;white-space:pre;shape-inside:url(#rect11);display:inline;fill:#008000;stroke-width:1;-inkscape-stroke:none;stop-color:#000000"><tspan
         x="44.595703"
         y="163.31066"
         id="tspan4"><tspan
   style="font-weight:bold;-inkscape-font-specification:'Liberation Mono Bold'"
   id="tspan3">Dt</tspan>=module*Nt</tspan></text>
    <path
       style="fill:#008000;stroke:#008000;stroke-width:0.264583;stroke-linejoin:round;marker-end:url(#ArrowWide)"
       d="M 9.7763899,67.861489 38.768445,85.223011"
       id="path12"
       sodipodi:nodetypes="cc" />
    <path
       style="fill:none;stroke:#6c5d53;stroke-width:0.264583;stroke-linejoin:round;marker-start:url(#ArrowWide);marker-end:url(#ArrowWide)"
       d="m 58.740256,54.282847 c 0,0 2.775968,-0.643619 4.172625,-0.927071 1.674309,-0.339802 3.346013,-0.710201 5.041924,-0.927074 2.304674,-0.294722 4.63137,-0.421336 6.954379,-0.505674 1.62155,-0.05887 3.245374,0 4.86806,0 1.854503,0 3.712061,-0.103215 5.563505,0 2.271416,0.126628 4.522986,0.484383 6.780517,0.758513 1.073491,0.130353 2.155799,0.214393 3.216399,0.421396 0.764873,0.149284 2.260171,0.589955 2.260171,0.589955"
       id="path13"
       sodipodi:nodetypes="caaaaaaac" />
    <text
       xml:space="preserve"
       transform="matrix(0.26458333,0,0,0.26458333,-2.1310327,9.5774123)"
       id="text13"
       style="font-size:16px;line-height:normal;font-family:'Liberation Mono';-inkscape-font-specification:'Liberation Mono';text-decoration-color:#000000;white-space:pre;shape-inside:url(#rect13);display:inline;fill:#6c5d53;stroke-width:1;-inkscape-stroke:none;stop-color:#000000"><tspan
         x="230.61914"
         y="105.65636"
         id="tspan5">ati(%)</tspan></text>
    <path
       style="fill:#6c5d53;stroke:#6c5d53;stroke-width:0.264582;stroke-linejoin:round;marker-end:url(#ArrowWide)"
       d="M 65.238614,38.663249 68.453972,51.69184"
       id="path14" />
    <circle
       style="fill:none;stroke:#aad400;stroke-width:0.264583;stroke-linejoin:round"
       id="path1-6-9"
       cx="77.939308"
       cy="120.45171"
       r="42.980373" />
    <circle
       style="fill:none;stroke:#aad400;stroke-width:0.264583;stroke-linejoin:round"
       id="path1-6-5"
       cx="77.939308"
       cy="120.45169"
       r="66.072884" />
    <path
       style="fill:none;stroke:#b3b3b3;stroke-width:0.264583;stroke-linejoin:round"
       d="M 78.045203,120.45339 104.58369,46.648414"
       id="path3-35"
       sodipodi:nodetypes="cc" />
    <path
       style="fill:none;stroke:#ac9d93;stroke-width:0.264583;stroke-linejoin:round;stroke-dasharray:none;marker-start:url(#ArrowWide);marker-end:url(#ArrowWide)"
       d="m 57.091447,48.809172 c 0,0 5.148636,-1.051736 7.747276,-1.430266 3.321335,-0.483803 6.659103,-0.916619 10.011859,-1.072698 2.897396,-0.134881 5.803143,-0.01029 8.700785,0.119187 2.627046,0.11739 5.252696,0.307193 7.866462,0.595945 2.194771,0.242464 4.400011,0.473755 6.555386,0.953511 1.742105,0.387767 5.125115,1.549453 5.125115,1.549453"
       id="path15"
       sodipodi:nodetypes="caaaaac" />
    <text
       xml:space="preserve"
       transform="matrix(0.26458333,0,0,0.26458333,24.096709,10.712163)"
       id="text13-7"
       style="font-size:16px;line-height:normal;font-family:'Liberation Mono';-inkscape-font-specification:'Liberation Mono';text-decoration-color:#000000;white-space:pre;shape-inside:url(#rect13-9);display:inline;fill:#ac9d93;stroke-width:1;-inkscape-stroke:none;stop-color:#000000"><tspan
         x="230.61914"
         y="105.65636"
         id="tspan6">ate(%)</tspan></text>
    <path
       style="fill:none;stroke:#ac9d93;stroke-width:0.264583;stroke-linejoin:round;stroke-dasharray:none;marker-end:url(#ArrowWide)"
       d="m 91.894585,39.87001 -0.953511,6.317009"
       id="path16" />
    <path
       style="fill:none;stroke:#008080;stroke-width:0.529167;stroke-linejoin:round;stroke-dasharray:none"
       d="m 50.483256,87.245708 c 0,0 2.426928,-1.751633 3.666252,-2.590046 0.885982,-0.599374 1.759551,-1.223005 2.693829,-1.743906 1.725304,-0.961933 3.510039,-1.832182 5.354732,-2.538648 1.149464,-0.440212 3.539728,-1.051575 3.539728,-1.051575 l -6.41087,-22.267026 c 0,0 3.4268,-0.901088 5.154708,-1.290643 1.255186,-0.28298 2.513494,-0.559824 3.784539,-0.759862 1.703912,-0.268163 3.419359,-0.483711 5.141032,-0.588913 1.507936,-0.09214 3.021626,-0.06503 4.5321,-0.03627 2.424466,0.04617 4.854333,0.09172 7.266993,0.335105 1.810583,0.18265 3.602272,0.523812 5.39387,0.842793 1.128235,0.200874 2.257119,0.405618 3.37117,0.674235 1.504305,0.362714 3.014681,0.729538 4.466799,1.264188 0.696002,0.256258 2.022702,0.92707 2.022702,0.92707 l -7.837968,21.575483 c 0,0 2.612005,1.005417 3.876844,1.601305 1.35292,0.637385 2.689707,1.319485 3.961124,2.106981 1.43814,0.890763 2.81132,1.889749 4.12968,2.949773 1.20912,0.972192 2.33064,2.049725 3.45545,3.118332 0.89291,0.848292 1.79127,1.694942 2.61266,2.612657 0.47987,0.536144 1.34846,1.685583 1.34846,1.685583 l 18.37288,-13.906071 v 0 c 0,0 1.37082,1.781615 2.0227,2.696934 0.72772,1.021823 1.45147,2.048747 2.10698,3.118333 0.99682,1.626496 1.89821,3.311089 2.77098,5.007383 0.72031,1.39997 1.43567,2.806609 2.03293,4.263331 0.58644,1.430333 1.51703,4.382519 1.51703,4.382519"
       id="path17"
       sodipodi:nodetypes="caaaccaaaaaaaaccaaaaacccaaaac" />
    <path
       style="fill:none;stroke:#ff0000;stroke-width:0.529167;stroke-linejoin:round"
       d="m 52.030161,90.047365 c 0,0 3.151438,-2.470673 4.728715,-3.464478 1.577277,-0.993805 3.049433,-1.773455 4.691634,-2.515616 1.642201,-0.742161 5.143606,-1.916925 5.143606,-1.916925 L 59.915228,59.351455 c 0,0 3.052786,-0.867116 4.933577,-1.25353 1.880791,-0.386414 4.167196,-0.772314 6.351582,-1.001897 2.184386,-0.229583 4.474117,-0.358211 6.738919,-0.357392 2.264802,8.19e-4 4.533806,0.117898 6.83056,0.367205 2.296754,0.249307 5.019464,0.777899 6.928504,1.136192 1.90904,0.358293 4.532831,0.959067 4.532831,0.959067 l -6.811455,22.989569 c 0,0 3.171678,1.017731 5.052465,1.896623 1.880787,0.878892 4.375238,2.245987 6.143039,3.478104 1.7678,1.232117 3.39897,2.592039 4.69165,3.791164 1.29268,1.199125 2.23555,2.361076 2.99916,3.141954 0.76361,0.780878 1.37801,1.537193 1.37801,1.537193 L 128.38016,81.62872 c 0,0 2.14295,2.812955 3.15329,4.36979 1.01034,1.556835 1.95651,3.177271 2.8865,4.969446 0.92999,1.792175 1.91054,3.927509 2.66093,5.785036 0.75039,1.857527 1.8677,5.335098 1.8677,5.335098"
       id="path7"
       sodipodi:nodetypes="czzcczzzzzcczzzzcczzzc" />
    <text
       xml:space="preserve"
       transform="matrix(0.26458333,0,0,0.26458333,0,17.462505)"
       id="text17"
       style="font-size:16px;line-height:normal;font-family:'Liberation Mono';-inkscape-font-specification:'Liberation Mono';text-decoration-color:#000000;white-space:pre;shape-inside:url(#rect17);display:inline;fill:#d4aa00;stroke-width:1;-inkscape-stroke:none;stop-color:#000000"><tspan
         x="92.693359"
         y="109.47863"
         id="tspan8">module*<tspan
   style="font-weight:bold;-inkscape-font-specification:'Liberation Mono Bold'"
   id="tspan7">ah</tspan></tspan></text>
    <text
       xml:space="preserve"
       transform="matrix(0.26458333,0,0,0.26458333,-2.5958789,25.791077)"
       id="text17-2"
       style="font-size:16px;line-height:normal;font-family:'Liberation Mono';-inkscape-font-specification:'Liberation Mono';text-decoration-color:#000000;white-space:pre;shape-inside:url(#rect17-6);display:inline;fill:#d4aa00;stroke-width:1;-inkscape-stroke:none;stop-color:#000000"><tspan
         x="92.693359"
         y="109.47863"
         id="tspan10">module*<tspan
   style="font-weight:bold;-inkscape-font-specification:'Liberation Mono Bold'"
   id="tspan9">dh</tspan></tspan></text>
    <path
       style="fill:none;stroke:#d4aa00;stroke-width:0.264583;stroke-linejoin:round;stroke-dasharray:none;marker-end:url(#ArrowWide)"
       d="m 45.510782,55.219605 31.68899,17.698638"
       id="path20"
       sodipodi:nodetypes="cc" />
    <path
       style="fill:none;stroke:#d4aa00;stroke-width:0.264583;stroke-linejoin:round;stroke-dasharray:none;marker-end:url(#ArrowWide-9)"
       d="m 47.661452,46.924493 29.49773,16.518729"
       id="path20-3"
       sodipodi:nodetypes="cc" />
    <path
       style="fill:#d4aa00;stroke:#d4aa00;stroke-width:0.264583;stroke-linejoin:round;stroke-dasharray:none;marker-start:url(#ArrowWide);marker-end:url(#ArrowWide)"
       d="m 44.695811,93.147417 2.383776,1.787831"
       id="path21" />
    <path
       style="fill:#d4aa00;stroke:#d4aa00;stroke-width:0.264583;stroke-linejoin:round;stroke-dasharray:none;marker-start:url(#ArrowWide);marker-end:url(#ArrowWide)"
       d="m 12.894722,110.16972 1.854143,0.33712"
       id="path22" />
    <text
       xml:space="preserve"
       transform="matrix(0.26458333,0,0,0.26458333,-29.231088,1.5337303)"
       id="text22"
       style="font-size:16px;line-height:normal;font-family:'Liberation Mono';-inkscape-font-specification:'Liberation Mono';text-decoration-color:#000000;white-space:pre;shape-inside:url(#rect22);display:inline;fill:#d4aa00;stroke-width:1;-inkscape-stroke:none;stop-color:#000000"><tspan
         x="136.01562"
         y="341.0548"
         id="tspan12">module*<tspan
   style="font-weight:bold;-inkscape-font-specification:'Liberation Mono Bold'"
   id="tspan11">deh</tspan></tspan></text>
    <text
       xml:space="preserve"
       transform="matrix(0.26458333,0,0,0.26458333,-27.329962,-0.15185376)"
       id="text23"
       style="font-size:16px;line-height:normal;font-family:'Liberation Mono';-inkscape-font-specification:'Liberation Mono';text-decoration-color:#000000;white-space:pre;shape-inside:url(#rect23);display:inline;fill:#d4aa00;stroke-width:1;-inkscape-stroke:none;stop-color:#000000"><tspan
         x="120.40625"
         y="382.14464"
         id="tspan14">module*<tspan
   style="font-weight:bold;-inkscape-font-specification:'Liberation Mono Bold'"
   id="tspan13">aeh</tspan></tspan></text>
    <path
       style="fill:#d4aa00;stroke:#d4aa00;stroke-width:0.264583;stroke-linejoin:round;stroke-dasharray:none;marker-end:url(#ArrowWide)"
       d="m 23.176787,101.23607 -8.680759,7.75373"
       id="path25"
       sodipodi:nodetypes="cc" />
    <path
       style="fill:#d4aa00;stroke:#d4aa00;stroke-width:0.264583;stroke-linejoin:round;stroke-dasharray:none;marker-end:url(#ArrowWide)"
       d="m 32.403278,91.038276 11.337676,2.444099"
       id="path26"
       sodipodi:nodetypes="cc" />
    <text
       xml:space="preserve"
       transform="matrix(0.26458333,0,0,0.26458333,61.530166,-86.546238)"
       id="text26"
       style="font-size:16px;line-height:normal;font-family:'Liberation Mono';-inkscape-font-specification:'Liberation Mono';text-decoration-color:#000000;white-space:pre;shape-inside:url(#rect26);display:inline;fill:#000000;stroke-width:1;-inkscape-stroke:none;stop-color:#000000"><tspan
         x="67.572266"
         y="671.03332"
         id="tspan15">Rdi</tspan></text>
    <text
       xml:space="preserve"
       transform="matrix(0.26458333,0,0,0.26458333,37.902047,-83.132856)"
       id="text27"
       style="font-size:16px;line-height:normal;font-family:'Liberation Mono';-inkscape-font-specification:'Liberation Mono';text-decoration-color:#000000;white-space:pre;shape-inside:url(#rect27);display:inline;fill:#000000;stroke-width:1;-inkscape-stroke:none;stop-color:#000000"><tspan
         x="217.13086"
         y="693.55675"
         id="tspan16">Rde</tspan></text>
    <text
       xml:space="preserve"
       transform="matrix(0.26458333,0,0,0.26458333,69.844653,-97.673815)"
       id="text28"
       style="font-size:16px;line-height:normal;font-family:'Liberation Mono';-inkscape-font-specification:'Liberation Mono';text-decoration-color:#000000;white-space:pre;shape-inside:url(#rect28);display:inline;fill:#000000;stroke-width:1;-inkscape-stroke:none;stop-color:#000000"><tspan
         x="41.443359"
         y="616.07433"
         id="tspan17">Rai</tspan></text>
    <text
       xml:space="preserve"
       transform="matrix(0.26458333,0,0,0.26458333,79.379759,-109.95024)"
       id="text29"
       style="font-size:16px;line-height:normal;font-family:'Liberation Mono';-inkscape-font-specification:'Liberation Mono';text-decoration-color:#000000;white-space:pre;shape-inside:url(#rect29);display:inline;fill:#000000;stroke-width:1;-inkscape-stroke:none;stop-color:#000000"><tspan
         x="117.125"
         y="636.79699"
         id="tspan18">Rae</tspan></text>
    <path
       style="fill:none;stroke:#000000;stroke-width:0.264583;stroke-linejoin:round;stroke-dasharray:none;marker-end:url(#ArrowWide)"
       d="m 88.676487,63.946153 6.197819,-3.933232"
       id="path29" />
    <path
       style="fill:none;stroke:#000000;stroke-width:0.264583;stroke-linejoin:round;stroke-dasharray:none;marker-end:url(#ArrowWide)"
       d="m 110.01129,57.748334 -8.46241,0.595945"
       id="path30" />
    <path
       style="fill:none;stroke:#000000;stroke-width:0.264583;stroke-linejoin:round;stroke-dasharray:none;marker-end:url(#ArrowWide)"
       d="m 82.597857,87.903108 5.482685,-5.005933"
       id="path31" />
    <path
       style="fill:none;stroke:#000000;stroke-width:0.264583;stroke-linejoin:round;stroke-dasharray:none;marker-end:url(#ArrowWide)"
       d="M 97.615649,96.603891 93.324851,81.586099"
       id="path32" />
    <text
       xml:space="preserve"
       transform="matrix(0.26458333,0,0,0.26458333,28.605319,-25.625598)"
       id="text32"
       style="font-size:16px;line-height:normal;font-family:'Liberation Mono';-inkscape-font-specification:'Liberation Mono';text-decoration-color:#000000;white-space:pre;shape-inside:url(#rect33);display:inline;fill:#000000;stroke-width:1;-inkscape-stroke:none;stop-color:#000000"><tspan
         x="265.33203"
         y="499.85168"
         id="tspan19">SnAdi</tspan></text>
    <text
       xml:space="preserve"
       transform="matrix(0.26458333,0,0,0.26458333,30.51234,-43.623111)"
       id="text33"
       style="font-size:16px;line-height:normal;font-family:'Liberation Mono';-inkscape-font-specification:'Liberation Mono';text-decoration-color:#000000;white-space:pre;shape-inside:url(#rect34);display:inline;fill:#000000;stroke-width:1;-inkscape-stroke:none;stop-color:#000000"><tspan
         x="324.79492"
         y="526.87902"
         id="tspan20">SnAde</tspan></text>
    <text
       xml:space="preserve"
       transform="matrix(0.26458333,0,0,0.26458333,16.805625,-13.587526)"
       id="text34"
       style="font-size:16px;line-height:normal;font-family:'Liberation Mono';-inkscape-font-specification:'Liberation Mono';text-decoration-color:#000000;white-space:pre;shape-inside:url(#rect35);display:inline;fill:#000000;stroke-width:1;-inkscape-stroke:none;stop-color:#000000"><tspan
         x="427.05273"
         y="465.61535"
         id="tspan21">SnAai</tspan></text>
    <text
       xml:space="preserve"
       transform="matrix(0.26458333,0,0,0.26458333,26.355096,-53.353498)"
       id="text35"
       style="font-size:16px;line-height:normal;font-family:'Liberation Mono';-inkscape-font-specification:'Liberation Mono';text-decoration-color:#000000;white-space:pre;shape-inside:url(#rect36);display:inline;fill:#000000;stroke-width:1;-inkscape-stroke:none;stop-color:#000000"><tspan
         x="410.38477"
         y="502.10363"
         id="tspan22">SnAae</tspan></text>
    <path
       style="fill:#ffffff;stroke:#000000;stroke-width:0.264583;stroke-linejoin:round;stroke-dasharray:none;marker-end:url(#ArrowWide)"
       d="M 105.36292,103.09833 106.674,94.159172"
       id="path36" />
    <path
       style="fill:#ffffff;stroke:#000000;stroke-width:0.264583;stroke-linejoin:round;stroke-dasharray:none;marker-start:url(#ArrowWide)"
       d="m 110.60723,90.941074 5.72106,2.026211"
       id="path37" />
    <path
       style="fill:#ffffff;stroke:#000000;stroke-width:0.264583;stroke-linejoin:round;stroke-dasharray:none;marker-end:url(#ArrowWide)"
       d="m 139.80849,80.452456 -4.52917,4.886743"
       id="path38" />
    <path
       style="fill:#ffffff;stroke:#000000;stroke-width:0.264583;stroke-linejoin:round;stroke-dasharray:none;marker-end:url(#ArrowWide)"
       d="m 134.08743,106.43562 3.45648,-5.36349"
       id="path39" />
    <text
       xml:space="preserve"
       transform="matrix(0.26458333,0,0,0.26458333,-12.395638,0)"
       id="text39"
       style="font-size:16px;line-height:normal;font-family:'Liberation Mono';-inkscape-font-specification:'Liberation Mono';text-decoration-color:#000000;white-space:pre;shape-inside:url(#rect39);display:inline;fill:#000000;stroke-width:1;-inkscape-stroke:none;stop-color:#000000"><tspan
         x="198.21094"
         y="516.06847"
         id="tspan24">teethStyle: [<tspan
   style="font-weight:bold;-inkscape-font-specification:'Liberation Mono Bold'"
   id="tspan23">radial</tspan>, adden, deden]</tspan></text>
  </g>
</svg>
