<?xml version="1.0" encoding="UTF-8" standalone="no"?>
<!-- Created with Inkscape (http://www.inkscape.org/) -->

<svg
   width="581.21503"
   height="604.63989"
   viewBox="0 0 153.77981 159.97764"
   version="1.1"
   id="svg1"
   inkscape:version="1.4.1 (1:1.4.1+202503302257+93de688d07)"
   sodipodi:docname="src_plugTorque.svg"
   xmlns:inkscape="http://www.inkscape.org/namespaces/inkscape"
   xmlns:sodipodi="http://sodipodi.sourceforge.net/DTD/sodipodi-0.dtd"
   xmlns="http://www.w3.org/2000/svg"
   xmlns:svg="http://www.w3.org/2000/svg">
  <sodipodi:namedview
     id="namedview1"
     pagecolor="#ffffff"
     bordercolor="#000000"
     borderopacity="0.25"
     inkscape:showpageshadow="2"
     inkscape:pageopacity="0.0"
     inkscape:pagecheckerboard="0"
     inkscape:deskcolor="#d1d1d1"
     inkscape:document-units="px"
     inkscape:zoom="2.2198669"
     inkscape:cx="353.62481"
     inkscape:cy="995.78042"
     inkscape:window-width="1854"
     inkscape:window-height="1131"
     inkscape:window-x="0"
     inkscape:window-y="0"
     inkscape:window-maximized="1"
     inkscape:current-layer="layer1">
    <inkscape:page
       x="-1.3416688e-15"
       y="0"
       width="153.7798"
       height="159.97765"
       id="page2"
       margin="0"
       bleed="0" />
  </sodipodi:namedview>
  <defs
     id="defs1">
    <rect
       x="199.56151"
       y="1907.3217"
       width="46.849655"
       height="33.785809"
       id="rect44" />
    <marker
       style="overflow:visible"
       id="ArrowWide"
       refX="0"
       refY="0"
       orient="auto-start-reverse"
       inkscape:stockid="Wide arrow"
       markerWidth="1"
       markerHeight="1"
       viewBox="0 0 1 1"
       inkscape:isstock="true"
       inkscape:collect="always"
       preserveAspectRatio="xMidYMid">
      <path
         style="fill:none;stroke:context-stroke;stroke-width:1;stroke-linecap:butt"
         d="M 3,-3 0,0 3,3"
         transform="rotate(180,0.125,0)"
         sodipodi:nodetypes="ccc"
         id="path6" />
    </marker>
    <marker
       style="overflow:visible"
       id="ArrowWide-3"
       refX="0"
       refY="0"
       orient="auto-start-reverse"
       inkscape:stockid="Wide arrow"
       markerWidth="1"
       markerHeight="1"
       viewBox="0 0 1 1"
       inkscape:isstock="true"
       inkscape:collect="always"
       preserveAspectRatio="xMidYMid">
      <path
         style="fill:none;stroke:context-stroke;stroke-width:1;stroke-linecap:butt"
         d="M 3,-3 0,0 3,3"
         transform="rotate(180,0.125,0)"
         sodipodi:nodetypes="ccc"
         id="path6-7" />
    </marker>
    <marker
       style="overflow:visible"
       id="ArrowWide-2-5"
       refX="0"
       refY="0"
       orient="auto-start-reverse"
       inkscape:stockid="Wide arrow"
       markerWidth="1"
       markerHeight="1"
       viewBox="0 0 1 1"
       inkscape:isstock="true"
       inkscape:collect="always"
       preserveAspectRatio="xMidYMid">
      <path
         style="fill:none;stroke:context-stroke;stroke-width:1;stroke-linecap:butt"
         d="M 3,-3 0,0 3,3"
         transform="rotate(180,0.125,0)"
         sodipodi:nodetypes="ccc"
         id="path6-9-2" />
    </marker>
    <rect
       x="453.6308"
       y="84.689758"
       width="50.903954"
       height="41.443928"
       id="rect7-4" />
    <rect
       x="495.00443"
       y="159.26784"
       width="119.13234"
       height="37.587208"
       id="rect10-0" />
    <rect
       x="44.594994"
       y="149.07469"
       width="123.2733"
       height="30.897961"
       id="rect11-8" />
    <rect
       x="230.61983"
       y="91.419739"
       width="131.23669"
       height="38.861351"
       id="rect13-4" />
    <rect
       x="230.61983"
       y="91.419739"
       width="131.23669"
       height="38.861351"
       id="rect13-9-9" />
    <rect
       x="92.693878"
       y="95.242165"
       width="102.56848"
       height="29.623817"
       id="rect17-0" />
    <rect
       x="92.693878"
       y="95.242165"
       width="102.56848"
       height="29.623817"
       id="rect17-6-68" />
    <marker
       style="overflow:visible"
       id="ArrowWide-9-2"
       refX="0"
       refY="0"
       orient="auto-start-reverse"
       inkscape:stockid="Wide arrow"
       markerWidth="1"
       markerHeight="1"
       viewBox="0 0 1 1"
       inkscape:isstock="true"
       inkscape:collect="always"
       preserveAspectRatio="xMidYMid">
      <path
         style="fill:none;stroke:context-stroke;stroke-width:1;stroke-linecap:butt"
         d="M 3,-3 0,0 3,3"
         transform="rotate(180,0.125,0)"
         sodipodi:nodetypes="ccc"
         id="path6-2-6" />
    </marker>
    <rect
       x="136.01472"
       y="326.8176"
       width="108.62066"
       height="25.80139"
       id="rect22-0" />
    <rect
       x="120.40648"
       y="367.90869"
       width="108.61129"
       height="26.493113"
       id="rect23-4" />
    <rect
       x="67.571617"
       y="656.79614"
       width="118.02509"
       height="62.16589"
       id="rect26-1" />
    <rect
       x="217.13014"
       y="679.32001"
       width="102.70886"
       height="44.14679"
       id="rect27-7" />
    <rect
       x="41.443928"
       y="601.83789"
       width="55.859203"
       height="36.939152"
       id="rect28-2" />
    <rect
       x="117.12414"
       y="622.55988"
       width="57.661114"
       height="36.939152"
       id="rect29-7" />
    <rect
       x="427.05264"
       y="451.37842"
       width="93.248833"
       height="32.434376"
       id="rect35-6" />
    <rect
       x="410.38495"
       y="487.8671"
       width="95.501221"
       height="46.849655"
       id="rect36-1" />
    <rect
       x="198.21008"
       y="501.83188"
       width="348.66956"
       height="39.19154"
       id="rect39-4" />
  </defs>
  <g
     inkscape:label="Layer 1"
     inkscape:groupmode="layer"
     id="layer1"
     transform="translate(-2.7101284,-414.83371)">
    <rect
       style="fill:#ffffff;stroke:#ffffff;stroke-width:0.264583;stroke-linejoin:round;stroke-dasharray:none"
       id="rect32-91"
       width="153.51521"
       height="159.71304"
       x="2.8424199"
       y="414.966"
       inkscape:export-filename="plugTorque_teeth_radial.svg"
       inkscape:export-xdpi="96"
       inkscape:export-ydpi="96" />
    <path
       style="fill:none;stroke:#800080;stroke-width:0.264583;stroke-linejoin:round"
       d="m 87.732887,490.03543 -40.27999,-58.1151"
       id="path4-1-3-0" />
    <path
       style="fill:none;stroke:#e6e6e6;stroke-width:0.264583;stroke-linejoin:round"
       d="m 78.579295,456.46857 -45.80391,31.73534"
       id="path4-1-3-4-7" />
    <path
       style="fill:none;stroke:#e6e6e6;stroke-width:0.264583;stroke-linejoin:round"
       d="m 79.924032,459.67782 -45.80391,31.73534"
       id="path4-1-3-4" />
    <path
       style="fill:none;stroke:#e6e6e6;stroke-width:0.264583;stroke-linejoin:round"
       d="M 133.17002,498.50563 75.054919,458.22564"
       id="path33-5-18-3" />
    <path
       style="fill:none;stroke:#800080;stroke-width:0.264583;stroke-linejoin:round"
       d="M 94.007809,510.15072 134.2878,452.03562"
       id="path33-5-7" />
    <circle
       style="fill:none;stroke:#008000;stroke-width:0.264583;stroke-linejoin:round"
       id="circle30-7"
       cx="78.501213"
       cy="505.14377"
       r="51.747448" />
    <path
       style="fill:none;stroke:#0000ff;stroke-width:0.264583;stroke-linejoin:round"
       d="M 78.501206,505.14386 V 434.51778"
       id="path31-7" />
    <path
       style="fill:none;stroke:#b3b3b3;stroke-width:0.264583;stroke-linejoin:round"
       d="M 78.501206,505.14386 98.222545,438.73174"
       id="path32-1" />
    <path
       style="fill:none;stroke:#b3b3b3;stroke-width:0.264583;stroke-linejoin:round"
       d="M 78.499906,505.10987 56.464574,430.94313"
       id="path3-3-1" />
    <path
       style="fill:none;stroke:#800080;stroke-width:0.264583;stroke-linejoin:round"
       d="M 78.506677,505.1062 118.78667,446.9911"
       id="path33-5" />
    <circle
       style="fill:none;stroke:#aad400;stroke-width:0.264583;stroke-linejoin:round"
       id="path1-6-97"
       cx="78.397957"
       cy="505.14377"
       r="39.946323" />
    <circle
       style="fill:none;stroke:#aad400;stroke-width:0.264582;stroke-linejoin:round"
       id="path1-6-7-7"
       cx="78.397957"
       cy="505.14371"
       r="63.713062" />
    <path
       style="fill:none;stroke:#b3b3b3;stroke-width:0.264583;stroke-linejoin:round"
       d="M 78.506677,505.1062 135.81655,460.94379"
       id="path3-37-6"
       sodipodi:nodetypes="cc" />
    <path
       style="fill:none;stroke:#0000ff;stroke-width:0.264583;stroke-linejoin:round"
       d="M 78.506677,505.1062 146.31928,479.52965"
       id="path4-8-7"
       sodipodi:nodetypes="cc" />
    <path
       style="fill:none;stroke:#800080;stroke-width:0.264583;stroke-linejoin:round"
       d="M 78.260186,505.0685 37.980196,446.9534"
       id="path4-1-3" />
    <path
       style="fill:none;stroke:#d4aa00;stroke-width:0.264583;stroke-linejoin:round;marker-start:url(#ArrowWide-3);marker-end:url(#ArrowWide-3)"
       d="m 78.501206,453.44049 v 8.25603"
       id="path34-6" />
    <path
       style="fill:#d4aa00;stroke:#d4aa00;stroke-width:0.264582;stroke-linejoin:round;marker-start:url(#ArrowWide-2-5);marker-end:url(#ArrowWide-2-5)"
       d="m 78.501207,441.59375 v 11.63748"
       id="path5-0-5" />
    <text
       xml:space="preserve"
       transform="matrix(0.26458333,0,0,0.26458333,0.45864323,402.15455)"
       id="text7-6"
       style="font-size:16px;line-height:normal;font-family:'Liberation Mono';-inkscape-font-specification:'Liberation Mono';text-decoration-color:#000000;white-space:pre;shape-inside:url(#rect7-4);display:inline;fill:#1a1a1a;stroke-width:1;-inkscape-stroke:none;stop-color:#000000"><tspan
         x="453.63086"
         y="98.925894"
         id="tspan19">N1</tspan></text>
    <path
       style="fill:#1a1a1a;stroke:#999999;stroke-width:0.264583;stroke-linejoin:round;marker-start:url(#ArrowWide-3)"
       d="M 94.669664,442.50566 119.52828,427.89934"
       id="path35-3"
       sodipodi:nodetypes="cc" />
    <path
       style="fill:#1a1a1a;stroke:#999999;stroke-width:0.264583;stroke-linejoin:round;marker-end:url(#ArrowWide-3)"
       d="m 123.81908,429.09123 0.71513,35.1607"
       id="path36-9"
       sodipodi:nodetypes="cc" />
    <path
       style="fill:none;stroke:#ff00ff;stroke-width:0.264583;stroke-linejoin:round;marker-start:url(#ArrowWide-3);marker-end:url(#ArrowWide-3)"
       d="m 64.230954,455.37536 c 0,0 3.582436,-0.89942 5.400627,-1.21324 1.746554,-0.30146 3.509304,-0.53245 5.278353,-0.64104 1.194844,-0.0733 2.394495,-0.0338 3.591272,-0.006 2.244732,0.0515 4.497569,0.0655 6.728325,0.32083 1.709921,0.19573 3.390734,0.59425 5.079563,0.9259 0.994425,0.19529 2.00317,0.33916 2.975021,0.62643 1.43418,0.42391 2.81331,1.02055 4.18734,1.61097 2.18755,0.93998 4.362855,1.92336 6.449005,3.07093 1.44802,0.79654 2.8473,1.68568 4.19691,2.6395 1.68177,1.18858 3.29996,2.47173 4.84615,3.83201 1.16978,1.02912 2.28099,2.12677 3.34263,3.26712 1.03058,1.10697 2.93176,3.46296 2.93176,3.46296"
       id="path37-4"
       sodipodi:nodetypes="caaaaaaaaaaac" />
    <text
       xml:space="preserve"
       transform="matrix(0.26458333,0,0,0.26458333,-1.5640583,401.22747)"
       id="text10-8"
       style="font-size:16px;line-height:normal;font-family:'Liberation Mono';-inkscape-font-specification:'Liberation Mono';text-decoration-color:#000000;white-space:pre;shape-inside:url(#rect10-0);display:inline;fill:#ff00ff;stroke-width:1;-inkscape-stroke:none;stop-color:#000000"><tspan
         x="495.00391"
         y="173.50402"
         id="tspan20">module*Pi</tspan></text>
    <path
       style="fill:#ff00ff;stroke:#ff00ff;stroke-width:0.264583;stroke-linejoin:round;marker-start:url(#ArrowWide-3)"
       d="m 113.80822,466.53541 16.94611,-18.3644"
       id="path38-1"
       sodipodi:nodetypes="cc" />
    <text
       xml:space="preserve"
       transform="matrix(0.26458333,0,0,0.26458333,-5.6094612,407.71698)"
       id="text11-2"
       style="font-size:16px;line-height:normal;font-family:'Liberation Mono';-inkscape-font-specification:'Liberation Mono';text-decoration-color:#000000;white-space:pre;shape-inside:url(#rect11-8);display:inline;fill:#008000;stroke-width:1;-inkscape-stroke:none;stop-color:#000000"><tspan
         x="44.595703"
         y="163.31066"
         id="tspan26"><tspan
   style="font-weight:bold;-inkscape-font-specification:'Liberation Mono Bold'"
   id="tspan23">D1</tspan>=module*N1</tspan></text>
    <path
       style="fill:#008000;stroke:#008000;stroke-width:0.264583;stroke-linejoin:round;marker-end:url(#ArrowWide-3)"
       d="m 10.235033,452.55353 28.992055,17.36152"
       id="path39-9"
       sodipodi:nodetypes="cc" />
    <path
       style="fill:none;stroke:#6c5d53;stroke-width:0.264583;stroke-linejoin:round;marker-start:url(#ArrowWide-3);marker-end:url(#ArrowWide-3)"
       d="m 59.198899,438.97489 c 0,0 2.775968,-0.64362 4.172625,-0.92707 1.674309,-0.33981 3.346013,-0.7102 5.041924,-0.92708 2.304674,-0.29472 4.63137,-0.42133 6.954379,-0.50567 1.62155,-0.0589 3.245374,0 4.86806,0 1.854503,0 3.712061,-0.10322 5.563505,0 2.271416,0.12663 4.522986,0.48438 6.780517,0.75851 1.073496,0.13035 2.155796,0.21439 3.216396,0.4214 0.76488,0.14928 2.26017,0.58995 2.26017,0.58995"
       id="path40"
       sodipodi:nodetypes="caaaaaaac" />
    <text
       xml:space="preserve"
       transform="matrix(0.26458333,0,0,0.26458333,-1.6723895,394.26945)"
       id="text13-3"
       style="font-size:16px;line-height:normal;font-family:'Liberation Mono';-inkscape-font-specification:'Liberation Mono';text-decoration-color:#000000;white-space:pre;shape-inside:url(#rect13-4);display:inline;fill:#6c5d53;stroke-width:1;-inkscape-stroke:none;stop-color:#000000"><tspan
         x="230.61914"
         y="105.65636"
         id="tspan27">ati(%)</tspan></text>
    <path
       style="fill:#6c5d53;stroke:#6c5d53;stroke-width:0.264582;stroke-linejoin:round;marker-end:url(#ArrowWide-3)"
       d="m 65.697257,423.35529 3.215358,13.02859"
       id="path41-9" />
    <circle
       style="fill:none;stroke:#aad400;stroke-width:0.264583;stroke-linejoin:round"
       id="path1-6-9-0"
       cx="78.397957"
       cy="505.14377"
       r="42.980373" />
    <circle
       style="fill:none;stroke:#aad400;stroke-width:0.264583;stroke-linejoin:round"
       id="path1-6-5-8"
       cx="78.397957"
       cy="505.14371"
       r="66.072884" />
    <path
       style="fill:none;stroke:#b3b3b3;stroke-width:0.264583;stroke-linejoin:round"
       d="M 78.503846,505.14543 105.04233,431.34045"
       id="path3-35-85"
       sodipodi:nodetypes="cc" />
    <path
       style="fill:none;stroke:#ac9d93;stroke-width:0.264583;stroke-linejoin:round;stroke-dasharray:none;marker-start:url(#ArrowWide-3);marker-end:url(#ArrowWide-3)"
       d="m 57.55009,433.50121 c 0,0 5.148636,-1.05173 7.747276,-1.43026 3.321335,-0.48381 6.659103,-0.91662 10.011859,-1.0727 2.897396,-0.13488 5.803143,-0.0103 8.700785,0.11918 2.627046,0.11739 5.252696,0.3072 7.866462,0.59595 2.194773,0.24246 4.400013,0.47376 6.555383,0.95351 1.742105,0.38777 5.125115,1.54945 5.125115,1.54945"
       id="path42"
       sodipodi:nodetypes="caaaaac" />
    <text
       xml:space="preserve"
       transform="matrix(0.26458333,0,0,0.26458333,24.555352,395.4042)"
       id="text13-7-0"
       style="font-size:16px;line-height:normal;font-family:'Liberation Mono';-inkscape-font-specification:'Liberation Mono';text-decoration-color:#000000;white-space:pre;shape-inside:url(#rect13-9-9);display:inline;fill:#ac9d93;stroke-width:1;-inkscape-stroke:none;stop-color:#000000"><tspan
         x="230.61914"
         y="105.65636"
         id="tspan28">ate(%)</tspan></text>
    <path
       style="fill:none;stroke:#ac9d93;stroke-width:0.264583;stroke-linejoin:round;stroke-dasharray:none;marker-end:url(#ArrowWide-3)"
       d="m 92.353228,424.56205 -0.953511,6.31701"
       id="path43-9" />
    <text
       xml:space="preserve"
       transform="matrix(0.26458333,0,0,0.26458333,0.45864323,402.15455)"
       id="text17-6"
       style="font-size:16px;line-height:normal;font-family:'Liberation Mono';-inkscape-font-specification:'Liberation Mono';text-decoration-color:#000000;white-space:pre;shape-inside:url(#rect17-0);display:inline;fill:#d4aa00;stroke-width:1;-inkscape-stroke:none;stop-color:#000000"><tspan
         x="92.693359"
         y="109.47863"
         id="tspan30">module*<tspan
   style="font-weight:bold;-inkscape-font-specification:'Liberation Mono Bold'"
   id="tspan29">ah</tspan></tspan></text>
    <text
       xml:space="preserve"
       transform="matrix(0.26458333,0,0,0.26458333,-2.1372357,410.48312)"
       id="text17-2-3"
       style="font-size:16px;line-height:normal;font-family:'Liberation Mono';-inkscape-font-specification:'Liberation Mono';text-decoration-color:#000000;white-space:pre;shape-inside:url(#rect17-6-68);display:inline;fill:#d4aa00;stroke-width:1;-inkscape-stroke:none;stop-color:#000000"><tspan
         x="92.693359"
         y="109.47863"
         id="tspan32">module*<tspan
   style="font-weight:bold;-inkscape-font-specification:'Liberation Mono Bold'"
   id="tspan31">dh</tspan></tspan></text>
    <path
       style="fill:none;stroke:#d4aa00;stroke-width:0.264583;stroke-linejoin:round;stroke-dasharray:none;marker-end:url(#ArrowWide-3)"
       d="m 45.969425,439.91165 31.68899,17.69863"
       id="path46-8"
       sodipodi:nodetypes="cc" />
    <path
       style="fill:none;stroke:#d4aa00;stroke-width:0.264583;stroke-linejoin:round;stroke-dasharray:none;marker-end:url(#ArrowWide-9-2)"
       d="m 48.120095,431.61653 29.49773,16.51873"
       id="path20-3-5"
       sodipodi:nodetypes="cc" />
    <path
       style="fill:#d4aa00;stroke:#d4aa00;stroke-width:0.264583;stroke-linejoin:round;stroke-dasharray:none;marker-start:url(#ArrowWide-3);marker-end:url(#ArrowWide-3)"
       d="m 45.154454,477.83946 2.383776,1.78783"
       id="path47-6" />
    <path
       style="fill:#d4aa00;stroke:#d4aa00;stroke-width:0.264583;stroke-linejoin:round;stroke-dasharray:none;marker-start:url(#ArrowWide-3);marker-end:url(#ArrowWide-3)"
       d="m 13.353365,494.86176 1.854143,0.33712"
       id="path48-1" />
    <text
       xml:space="preserve"
       transform="matrix(0.26458333,0,0,0.26458333,-28.772445,386.22577)"
       id="text22-1"
       style="font-size:16px;line-height:normal;font-family:'Liberation Mono';-inkscape-font-specification:'Liberation Mono';text-decoration-color:#000000;white-space:pre;shape-inside:url(#rect22-0);display:inline;fill:#d4aa00;stroke-width:1;-inkscape-stroke:none;stop-color:#000000"><tspan
         x="136.01562"
         y="341.0548"
         id="tspan34">module*<tspan
   style="font-weight:bold;-inkscape-font-specification:'Liberation Mono Bold'"
   id="tspan33">deh</tspan></tspan></text>
    <text
       xml:space="preserve"
       transform="matrix(0.26458333,0,0,0.26458333,-26.871319,384.54019)"
       id="text23-59"
       style="font-size:16px;line-height:normal;font-family:'Liberation Mono';-inkscape-font-specification:'Liberation Mono';text-decoration-color:#000000;white-space:pre;shape-inside:url(#rect23-4);display:inline;fill:#d4aa00;stroke-width:1;-inkscape-stroke:none;stop-color:#000000"><tspan
         x="120.40625"
         y="382.14464"
         id="tspan36">module*<tspan
   style="font-weight:bold;-inkscape-font-specification:'Liberation Mono Bold'"
   id="tspan35">aeh</tspan></tspan></text>
    <path
       style="fill:#d4aa00;stroke:#d4aa00;stroke-width:0.264583;stroke-linejoin:round;stroke-dasharray:none;marker-end:url(#ArrowWide-3)"
       d="m 23.63543,485.92811 -8.680759,7.75373"
       id="path49-8"
       sodipodi:nodetypes="cc" />
    <path
       style="fill:#d4aa00;stroke:#d4aa00;stroke-width:0.264583;stroke-linejoin:round;stroke-dasharray:none;marker-end:url(#ArrowWide-3)"
       d="m 32.861921,475.73032 11.337676,2.4441"
       id="path50-4"
       sodipodi:nodetypes="cc" />
    <text
       xml:space="preserve"
       transform="matrix(0.26458333,0,0,0.26458333,61.988809,298.1458)"
       id="text26-8"
       style="font-size:16px;line-height:normal;font-family:'Liberation Mono';-inkscape-font-specification:'Liberation Mono';text-decoration-color:#000000;white-space:pre;shape-inside:url(#rect26-1);display:inline;fill:#000000;stroke-width:1;-inkscape-stroke:none;stop-color:#000000"><tspan
         x="67.572266"
         y="671.03332"
         id="tspan37">Rdi</tspan></text>
    <text
       xml:space="preserve"
       transform="matrix(0.26458333,0,0,0.26458333,38.36069,301.55918)"
       id="text27-1"
       style="font-size:16px;line-height:normal;font-family:'Liberation Mono';-inkscape-font-specification:'Liberation Mono';text-decoration-color:#000000;white-space:pre;shape-inside:url(#rect27-7);display:inline;fill:#000000;stroke-width:1;-inkscape-stroke:none;stop-color:#000000"><tspan
         x="217.13086"
         y="693.55675"
         id="tspan38">Rde</tspan></text>
    <text
       xml:space="preserve"
       transform="matrix(0.26458333,0,0,0.26458333,70.303296,287.01823)"
       id="text28-0"
       style="font-size:16px;line-height:normal;font-family:'Liberation Mono';-inkscape-font-specification:'Liberation Mono';text-decoration-color:#000000;white-space:pre;shape-inside:url(#rect28-2);display:inline;fill:#000000;stroke-width:1;-inkscape-stroke:none;stop-color:#000000"><tspan
         x="41.443359"
         y="616.07433"
         id="tspan39">Rai</tspan></text>
    <text
       xml:space="preserve"
       transform="matrix(0.26458333,0,0,0.26458333,79.838402,274.7418)"
       id="text29-3"
       style="font-size:16px;line-height:normal;font-family:'Liberation Mono';-inkscape-font-specification:'Liberation Mono';text-decoration-color:#000000;white-space:pre;shape-inside:url(#rect29-7);display:inline;fill:#000000;stroke-width:1;-inkscape-stroke:none;stop-color:#000000"><tspan
         x="117.125"
         y="636.79699"
         id="tspan40">Rae</tspan></text>
    <path
       style="fill:none;stroke:#000000;stroke-width:0.264583;stroke-linejoin:round;stroke-dasharray:none;marker-end:url(#ArrowWide-3)"
       d="m 89.13513,448.63819 10.011857,-2.86053"
       id="path51-0"
       sodipodi:nodetypes="cc" />
    <path
       style="fill:none;stroke:#000000;stroke-width:0.264583;stroke-linejoin:round;stroke-dasharray:none;marker-end:url(#ArrowWide-3)"
       d="m 110.46993,442.44037 -5.00593,1.43027"
       id="path52-4"
       sodipodi:nodetypes="cc" />
    <path
       style="fill:none;stroke:#000000;stroke-width:0.264583;stroke-linejoin:round;stroke-dasharray:none;marker-end:url(#ArrowWide-3)"
       d="m 83.0565,472.59515 2.860531,-5.3635"
       id="path53-4"
       sodipodi:nodetypes="cc" />
    <path
       style="fill:none;stroke:#000000;stroke-width:0.264583;stroke-linejoin:round;stroke-dasharray:none;marker-end:url(#ArrowWide-3)"
       d="M 98.074295,481.29593 90.922963,466.27814"
       id="path54-4"
       sodipodi:nodetypes="cc" />
    <text
       xml:space="preserve"
       transform="matrix(0.26458333,0,0,0.26458333,17.264268,371.10451)"
       id="text34-6"
       style="font-size:16px;line-height:normal;font-family:'Liberation Mono';-inkscape-font-specification:'Liberation Mono';text-decoration-color:#000000;white-space:pre;shape-inside:url(#rect35-6);display:inline;fill:#000000;stroke-width:1;-inkscape-stroke:none;stop-color:#000000"><tspan
         x="427.05273"
         y="465.61535"
         id="tspan41">SnAai</tspan></text>
    <text
       xml:space="preserve"
       transform="matrix(0.26458333,0,0,0.26458333,26.813739,331.33854)"
       id="text35-3"
       style="font-size:16px;line-height:normal;font-family:'Liberation Mono';-inkscape-font-specification:'Liberation Mono';text-decoration-color:#000000;white-space:pre;shape-inside:url(#rect36-1);display:inline;fill:#000000;stroke-width:1;-inkscape-stroke:none;stop-color:#000000"><tspan
         x="410.38477"
         y="502.10363"
         id="tspan42">SnAae</tspan></text>
    <path
       style="fill:#ffffff;stroke:#000000;stroke-width:0.264583;stroke-linejoin:round;stroke-dasharray:none;marker-end:url(#ArrowWide-3)"
       d="m 140.26713,465.1445 -4.52917,4.88674"
       id="path57" />
    <path
       style="fill:#ffffff;stroke:#000000;stroke-width:0.264583;stroke-linejoin:round;stroke-dasharray:none;marker-end:url(#ArrowWide-3)"
       d="m 134.54607,491.12766 3.45648,-5.36349"
       id="path58" />
    <text
       xml:space="preserve"
       transform="matrix(0.26458333,0,0,0.26458333,-11.936995,384.69204)"
       id="text39-5"
       style="font-size:16px;line-height:normal;font-family:'Liberation Mono';-inkscape-font-specification:'Liberation Mono';text-decoration-color:#000000;white-space:pre;shape-inside:url(#rect39-4);display:inline;fill:#000000;stroke-width:1;-inkscape-stroke:none;stop-color:#000000"><tspan
         x="198.21094"
         y="516.06847"
         id="tspan44">teethStyle: [radial, adden, <tspan
   style="font-weight:bold;-inkscape-font-specification:'Liberation Mono Bold'"
   id="tspan43">deden</tspan>]</tspan></text>
    <path
       style="fill:none;stroke:#800080;stroke-width:0.264583;stroke-linejoin:round"
       d="m 69.447317,494.85187 40.279993,-58.1151"
       id="path33-5-1" />
    <path
       style="fill:none;stroke:#800080;stroke-width:0.264583;stroke-linejoin:round"
       d="m 67.704448,492.56047 40.280002,-58.1151"
       id="path33-5-5" />
    <path
       style="fill:none;stroke:#e6e6e6;stroke-width:0.264583;stroke-linejoin:round"
       d="M 134.89695,495.639 76.781852,455.35901"
       id="path33-5-18" />
    <path
       style="fill:none;stroke:#008080;stroke-width:0.529167;stroke-linejoin:round"
       d="M 49.463364,476.75529 69.248707,463.16777 55.184426,443.14406 c 0,0 4.087902,-1.56227 6.317009,-2.1454 2.229107,-0.58313 4.666142,-0.97285 7.03214,-1.31109 2.365998,-0.33824 4.782084,-0.63716 7.151331,-0.71512 2.369247,-0.078 4.805879,0.0749 7.03214,0.23836 2.226261,0.16349 4.56963,0.44201 6.317007,0.71515 1.747377,0.27314 2.58188,0.49874 4.171608,0.83431 1.589728,0.33557 3.488036,0.62347 5.363498,1.1919 1.875461,0.56843 5.840251,2.26459 5.840251,2.26459 l -13.825902,20.73886 23.480202,16.32886 13.8259,-19.90455 c 0,0 1.27976,1.39778 2.1454,2.50299 0.86564,1.10521 1.83842,2.46817 2.97972,4.17161 1.1413,1.70344 2.76935,4.12134 3.81404,6.07861 1.04469,1.95727 1.8449,4.15288 2.50297,5.60189 0.65807,1.44901 1.43026,3.09891 1.43026,3.09891"
       id="path28"
       sodipodi:nodetypes="ccczzzzzzzcccczzzzc" />
    <path
       style="fill:none;stroke:#ff0000;stroke-width:0.529167;stroke-linejoin:round"
       d="M 50.774439,480.21179 71.15573,466.14749 56.733881,445.17026 c 0,0 3.238503,-1.13983 5.244309,-1.66864 2.005806,-0.52881 4.346539,-1.08151 6.793762,-1.43026 2.447223,-0.34875 5.301134,-0.5193 7.866464,-0.59595 2.56533,-0.0767 5.121082,-0.0666 7.508896,0.11919 2.387814,0.1858 4.524916,0.49741 6.793762,0.95351 2.268846,0.4561 5.211151,1.30515 6.793764,1.78784 1.582613,0.48269 2.741342,0.95351 2.741342,0.95351 l -14.30266,20.61966 25.98317,18.11671 14.18347,-20.73886 c 0,0 1.99382,2.29004 3.09891,3.81405 1.10509,1.52401 2.30047,3.43756 3.45647,5.36347 1.156,1.92591 2.3682,3.87385 3.45648,6.19784 1.08828,2.32399 2.97972,7.74727 2.97972,7.74727"
       id="path27"
       sodipodi:nodetypes="ccczzzzzzcccczzzc" />
    <path
       style="fill:none;stroke:#ff6600;stroke-width:0.264583;stroke-linejoin:round;marker-end:url(#ArrowWide)"
       d="m 99.045915,489.5085 c 0,0 1.065275,2.01297 1.907025,2.74135 1.07486,0.93009 3.81404,1.90701 3.81404,1.90701"
       id="path44"
       sodipodi:nodetypes="cac" />
    <text
       xml:space="preserve"
       transform="matrix(0.26458333,0,0,0.26458333,47.556342,-16.448058)"
       id="text44"
       style="font-size:16px;line-height:normal;font-family:'Liberation Mono';-inkscape-font-specification:'Liberation Mono';text-decoration-color:#000000;white-space:pre;shape-inside:url(#rect44);fill:#ff6600;stroke-width:1;-inkscape-stroke:none;stop-color:#000000"><tspan
         x="199.56055"
         y="1921.5587"
         id="tspan45">aM</tspan></text>
  </g>
</svg>
