<?xml version="1.0" encoding="UTF-8" standalone="no"?>
<!-- Created with Inkscape (http://www.inkscape.org/) -->

<svg
   width="324.89328"
   height="234.79785"
   viewBox="0 0 85.961347 62.123598"
   version="1.1"
   id="svg1"
   inkscape:version="1.4.2 (1:1.4.2+202505120737+ebf0e940d0)"
   sodipodi:docname="src_springWorm.svg"
   xmlns:inkscape="http://www.inkscape.org/namespaces/inkscape"
   xmlns:sodipodi="http://sodipodi.sourceforge.net/DTD/sodipodi-0.dtd"
   xmlns="http://www.w3.org/2000/svg"
   xmlns:svg="http://www.w3.org/2000/svg">
  <sodipodi:namedview
     id="namedview1"
     pagecolor="#ffffff"
     bordercolor="#000000"
     borderopacity="0.25"
     inkscape:showpageshadow="2"
     inkscape:pageopacity="0.0"
     inkscape:pagecheckerboard="0"
     inkscape:deskcolor="#d1d1d1"
     inkscape:document-units="px"
     inkscape:zoom="2.2198669"
     inkscape:cx="265.33122"
     inkscape:cy="864.69148"
     inkscape:window-width="1854"
     inkscape:window-height="1131"
     inkscape:window-x="0"
     inkscape:window-y="0"
     inkscape:window-maximized="1"
     inkscape:current-layer="layer1">
    <inkscape:page
       x="0"
       y="3.6198488e-16"
       width="85.961349"
       height="62.123596"
       id="page2"
       margin="0"
       bleed="0" />
  </sodipodi:namedview>
  <defs
     id="defs1">
    <rect
       x="203.84105"
       y="231.77065"
       width="46.173939"
       height="24.77626"
       id="rect8-2" />
    <marker
       style="overflow:visible"
       id="ArrowWide-82"
       refX="0"
       refY="0"
       orient="auto-start-reverse"
       inkscape:stockid="Wide arrow"
       markerWidth="1"
       markerHeight="1"
       viewBox="0 0 1 1"
       inkscape:isstock="true"
       inkscape:collect="always"
       preserveAspectRatio="xMidYMid">
      <path
         style="fill:none;stroke:context-stroke;stroke-width:1;stroke-linecap:butt"
         d="M 3,-3 0,0 3,3"
         transform="rotate(180,0.125,0)"
         sodipodi:nodetypes="ccc"
         id="path6-9" />
    </marker>
    <rect
       x="174.55754"
       y="591.20221"
       width="89.189987"
       height="155.4454"
       id="rect42" />
    <rect
       x="174.55754"
       y="591.20221"
       width="89.189987"
       height="155.4454"
       id="rect42-6" />
    <rect
       x="174.55754"
       y="591.20221"
       width="89.189987"
       height="155.4454"
       id="rect42-6-7" />
    <marker
       style="overflow:visible"
       id="ArrowWide-7"
       refX="0"
       refY="0"
       orient="auto-start-reverse"
       inkscape:stockid="Wide arrow"
       markerWidth="1"
       markerHeight="1"
       viewBox="0 0 1 1"
       inkscape:isstock="true"
       inkscape:collect="always"
       preserveAspectRatio="xMidYMid">
      <path
         style="fill:none;stroke:context-stroke;stroke-width:1;stroke-linecap:butt"
         d="M 3,-3 0,0 3,3"
         transform="rotate(180,0.125,0)"
         sodipodi:nodetypes="ccc"
         id="path12-5" />
    </marker>
  </defs>
  <g
     inkscape:label="Layer 1"
     inkscape:groupmode="layer"
     id="layer1"
     transform="translate(-48.735126,-198.91304)">
    <rect
       style="fill:#ffffff;stroke:#ffffff;stroke-width:0.264583;stroke-linejoin:round"
       id="rect25"
       width="85.69677"
       height="61.859001"
       x="48.867416"
       y="199.04533"
       inkscape:export-filename="springWorm_caps.svg"
       inkscape:export-xdpi="96"
       inkscape:export-ydpi="96" />
    <circle
       style="fill:#fff6d5;stroke:#1a1a1a;stroke-width:0.264584;stroke-linejoin:round"
       id="path1-3-6"
       cx="69.77092"
       cy="238.82025"
       r="17.530079" />
    <path
       style="fill:#ffffff;stroke:#008080;stroke-width:0.264583;stroke-linejoin:round"
       d="m 78.47523,238.54032 h -2.415182 c 0,0 -0.06835,-0.97895 -0.214682,-1.44255 -0.16854,-0.53397 -0.423922,-1.04819 -0.751391,-1.50242 -0.22019,-0.30542 -0.798846,-0.79866 -0.798846,-0.79866 l 1.395439,-1.66339 c 0,0 -0.491209,-0.58924 -0.757603,-0.86473 -0.272714,-0.28202 -0.539566,-0.57671 -0.858733,-0.80487 -0.527325,-0.37696 -1.093627,-0.73596 -1.717463,-0.91218 -0.551992,-0.15594 -1.144138,-0.0894 -1.717463,-0.10732 -0.397534,-0.0124 -1.193184,0 -1.193184,0 l -0.101128,2.19997 c 0,0 -0.97794,-0.0208 -1.442896,0.10732 -0.539919,0.14878 -1.058714,0.41002 -1.50278,0.7512 -0.490096,0.37655 -1.228216,1.3889 -1.228216,1.3889 l -2.093158,-1.3951 c 0,0 -0.623753,0.61159 -0.864945,0.97205 -0.387057,0.57844 -0.687639,1.21935 -0.912403,1.87802 -0.141611,0.415 -0.23112,0.8509 -0.268353,1.28779 -0.0429,0.50344 0.05367,1.51484 0.05367,1.51484 l 2.254172,-0.16098 c 0,0 0.08196,0.88984 0.161012,1.32902 0.08146,0.45258 0.128074,0.92449 0.322025,1.34146 0.17804,0.38275 0.494468,0.68451 0.751391,1.01949 0.13764,0.17946 0.423151,0.53037 0.423151,0.53037 l -1.395439,1.66339 c 0,0 0.740603,0.7848 1.186971,1.07937 0.574594,0.37918 1.241079,0.59832 1.878474,0.85852 0.633944,0.2588 1.257646,0.57953 1.932148,0.69755 0.409394,0.0716 1.246853,0 1.246853,0 l 0.05367,-2.52192 c 0,0 0.968938,0.10272 1.436684,1e-5 0.500372,-0.10987 0.950182,-0.39059 1.395439,-0.64389 0.301908,-0.17176 0.610432,-0.34738 0.858731,-0.59025 0.218811,-0.21402 0.536708,-0.74499 0.536708,-0.74499 l 2.522521,1.44876 c 0,0 0.449934,-0.48882 0.644048,-0.75742 0.282111,-0.39037 0.565633,-0.78978 0.751391,-1.23413 0.199115,-0.47629 0.303469,-0.99127 0.375694,-1.50241 0.07011,-0.49621 0.04473,-1.00138 0.05367,-1.50243 0.0055,-0.30608 0,-0.91839 0,-0.91839 z"
       id="path23-6"
       sodipodi:nodetypes="ccaaccaaaaccaaccaaaccaaaccaaaccaaaccaaaac" />
    <text
       xml:space="preserve"
       transform="matrix(0.26458333,0,0,0.26458333,34.143525,189.75649)"
       id="text8-0"
       style="font-size:16px;line-height:normal;font-family:'Liberation Mono';-inkscape-font-specification:'Liberation Mono';text-decoration-color:#000000;white-space:pre;shape-inside:url(#rect8-2);display:inline;fill:#800080;stroke-width:1;-inkscape-stroke:none;stop-color:#000000"><tspan
         x="203.8418"
         y="246.00793"
         id="tspan1">D1</tspan></text>
    <path
       style="fill:#800080;stroke:#800080;stroke-width:0.264583;stroke-linejoin:round;marker-start:url(#ArrowWide-82)"
       d="m 83.401652,250.44474 4.436438,2.60102"
       id="path8-7"
       sodipodi:nodetypes="cc" />
    <path
       style="fill:#3771c8;stroke:#3771c8;stroke-width:0.264583;stroke-linejoin:round;marker-start:url(#ArrowWide-7)"
       d="m 76.134838,232.54583 15.86033,-12.59759"
       id="path51"
       sodipodi:nodetypes="cc" />
    <text
       xml:space="preserve"
       transform="matrix(0.26458333,0,0,0.26458333,47.379213,50.798947)"
       id="text42"
       style="font-size:16px;line-height:normal;font-family:'Liberation Mono';-inkscape-font-specification:'Liberation Mono';text-decoration-color:#000000;white-space:pre;shape-inside:url(#rect42);display:inline;fill:#2c5aa0;stroke-width:1;-inkscape-stroke:none;stop-color:#000000"><tspan
         x="174.55664"
         y="605.43957"
         id="tspan2">Dt
</tspan><tspan
         x="174.55664"
         y="625.43957"
         id="tspan3">Nt
</tspan><tspan
         x="174.55664"
         y="645.43957"
         id="tspan4">Ht</tspan></text>
    <path
       style="fill:#3771c8;stroke:#3771c8;stroke-width:0.264583;stroke-linejoin:round"
       d="m 102.26996,204.03015 v 25.43219"
       id="path42-9" />
    <text
       xml:space="preserve"
       transform="matrix(0.26458333,0,0,0.26458333,57.217866,47.783811)"
       id="text42-5"
       style="font-size:16px;line-height:normal;font-family:'Liberation Mono';-inkscape-font-specification:'Liberation Mono';text-decoration-color:#000000;white-space:pre;shape-inside:url(#rect42-6);display:inline;fill:#2c5aa0;stroke-width:1;-inkscape-stroke:none;stop-color:#000000"><tspan
         x="174.55664"
         y="605.43957"
         id="tspan5">ate
</tspan><tspan
         x="174.55664"
         y="625.43957"
         id="tspan6">dh
</tspan><tspan
         x="174.55664"
         y="645.43957"
         id="tspan7">ah
</tspan><tspan
         x="174.55664"
         y="665.43957"
         id="tspan8">aeh
</tspan><tspan
         x="174.55664"
         y="685.43957"
         id="tspan9">aM</tspan></text>
    <path
       style="fill:#3771c8;stroke:#3771c8;stroke-width:0.264583;stroke-linejoin:round"
       d="m 115.00168,204.03969 v 25.43219"
       id="path42-9-2" />
    <text
       xml:space="preserve"
       transform="matrix(0.26458333,0,0,0.26458333,69.949594,50.439182)"
       id="text42-5-7"
       style="font-size:16px;line-height:normal;font-family:'Liberation Mono';-inkscape-font-specification:'Liberation Mono';text-decoration-color:#000000;white-space:pre;shape-inside:url(#rect42-6-7);display:inline;fill:#2c5aa0;stroke-width:1;-inkscape-stroke:none;stop-color:#000000"><tspan
         x="174.55664"
         y="605.43957"
         id="tspan10">SnAde
</tspan><tspan
         x="174.55664"
         y="625.43957"
         id="tspan11">SnAae
</tspan><tspan
         x="174.55664"
         y="645.43957"
         id="tspan12">Rde
</tspan><tspan
         x="174.55664"
         y="665.43957"
         id="tspan13">Rae</tspan></text>
    <rect
       style="fill:none;stroke:#2c5aa0;stroke-width:0.264583;stroke-linejoin:round"
       id="rect44"
       width="38.262772"
       height="28.48638"
       x="92.548759"
       y="202.69066" />
  </g>
</svg>
