<?xml version="1.0" encoding="UTF-8" standalone="no"?>
<!-- Created with Inkscape (http://www.inkscape.org/) -->

<svg
   width="541.573"
   height="656.89514"
   viewBox="0 0 143.29119 173.80351"
   version="1.1"
   id="svg1"
   inkscape:version="1.4.1 (1:1.4.1+202503302257+93de688d07)"
   sodipodi:docname="src_springTorqueC.svg"
   xmlns:inkscape="http://www.inkscape.org/namespaces/inkscape"
   xmlns:sodipodi="http://sodipodi.sourceforge.net/DTD/sodipodi-0.dtd"
   xmlns="http://www.w3.org/2000/svg"
   xmlns:svg="http://www.w3.org/2000/svg">
  <sodipodi:namedview
     id="namedview1"
     pagecolor="#ffffff"
     bordercolor="#000000"
     borderopacity="0.25"
     inkscape:showpageshadow="2"
     inkscape:pageopacity="0.0"
     inkscape:pagecheckerboard="0"
     inkscape:deskcolor="#d1d1d1"
     inkscape:document-units="px"
     inkscape:zoom="0.78484147"
     inkscape:cx="396.89544"
     inkscape:cy="561.25984"
     inkscape:window-width="1854"
     inkscape:window-height="1131"
     inkscape:window-x="0"
     inkscape:window-y="0"
     inkscape:window-maximized="1"
     inkscape:current-layer="layer1">
    <inkscape:page
       x="0"
       y="0"
       width="143.29118"
       height="173.80351"
       id="page2"
       margin="0"
       bleed="0" />
  </sodipodi:namedview>
  <defs
     id="defs1">
    <rect
       x="152.26138"
       y="133.79181"
       width="169.83"
       height="33.785809"
       id="rect18" />
    <rect
       x="261.27692"
       y="515.34619"
       width="245.96069"
       height="25.677216"
       id="rect2" />
    <marker
       style="overflow:visible"
       id="ArrowWide"
       refX="0"
       refY="0"
       orient="auto-start-reverse"
       inkscape:stockid="Wide arrow"
       markerWidth="1"
       markerHeight="1"
       viewBox="0 0 1 1"
       inkscape:isstock="true"
       inkscape:collect="always"
       preserveAspectRatio="xMidYMid">
      <path
         style="fill:none;stroke:context-stroke;stroke-width:1;stroke-linecap:butt"
         d="M 3,-3 0,0 3,3"
         transform="rotate(180,0.125,0)"
         sodipodi:nodetypes="ccc"
         id="path12" />
    </marker>
    <marker
       style="overflow:visible"
       id="ArrowWide-1"
       refX="0"
       refY="0"
       orient="auto-start-reverse"
       inkscape:stockid="Wide arrow"
       markerWidth="1"
       markerHeight="1"
       viewBox="0 0 1 1"
       inkscape:isstock="true"
       inkscape:collect="always"
       preserveAspectRatio="xMidYMid">
      <path
         style="fill:none;stroke:context-stroke;stroke-width:1;stroke-linecap:butt"
         d="M 3,-3 0,0 3,3"
         transform="rotate(180,0.125,0)"
         sodipodi:nodetypes="ccc"
         id="path12-9" />
    </marker>
    <marker
       style="overflow:visible"
       id="ArrowWide-6"
       refX="0"
       refY="0"
       orient="auto-start-reverse"
       inkscape:stockid="Wide arrow"
       markerWidth="1"
       markerHeight="1"
       viewBox="0 0 1 1"
       inkscape:isstock="true"
       inkscape:collect="always"
       preserveAspectRatio="xMidYMid">
      <path
         style="fill:none;stroke:context-stroke;stroke-width:1;stroke-linecap:butt"
         d="M 3,-3 0,0 3,3"
         transform="rotate(180,0.125,0)"
         sodipodi:nodetypes="ccc"
         id="path12-1" />
    </marker>
    <rect
       x="519.21313"
       y="159.26784"
       width="28.986746"
       height="26.119925"
       id="rect22" />
    <rect
       x="173.88429"
       y="67.12114"
       width="45.047745"
       height="27.479124"
       id="rect23" />
    <rect
       x="174.33478"
       y="70.274483"
       width="64.418274"
       height="29.281034"
       id="rect25" />
    <rect
       x="154.51376"
       y="68.022095"
       width="55.408726"
       height="30.18199"
       id="rect26" />
    <rect
       x="498.22806"
       y="114.42127"
       width="45.498222"
       height="36.488674"
       id="rect27" />
    <rect
       x="505.4357"
       y="147.75661"
       width="70.274483"
       height="45.498222"
       id="rect28" />
    <rect
       x="148.65756"
       y="80.18499"
       width="59.012547"
       height="37.840107"
       id="rect29" />
    <rect
       x="234.69876"
       y="63.066845"
       width="50.002998"
       height="31.9839"
       id="rect30" />
    <rect
       x="165.32523"
       y="72.526871"
       width="34.686764"
       height="29.731512"
       id="rect31" />
    <rect
       x="167.12714"
       y="81.536423"
       width="36.038197"
       height="25.226738"
       id="rect32" />
    <marker
       style="overflow:visible"
       id="ArrowWide-9"
       refX="0"
       refY="0"
       orient="auto-start-reverse"
       inkscape:stockid="Wide arrow"
       markerWidth="1"
       markerHeight="1"
       viewBox="0 0 1 1"
       inkscape:isstock="true"
       inkscape:collect="always"
       preserveAspectRatio="xMidYMid">
      <path
         style="fill:none;stroke:context-stroke;stroke-width:1;stroke-linecap:butt"
         d="M 3,-3 0,0 3,3"
         transform="rotate(180,0.125,0)"
         sodipodi:nodetypes="ccc"
         id="path12-2" />
    </marker>
    <rect
       x="231.2569"
       y="458.69135"
       width="35.038921"
       height="35.038921"
       id="rect34" />
    <rect
       x="447.22406"
       y="554.25208"
       width="39.498425"
       height="41.409637"
       id="rect35" />
    <rect
       x="421.74121"
       y="570.81592"
       width="45.869137"
       height="38.861351"
       id="rect36" />
    <rect
       x="400.71786"
       y="577.82373"
       width="50.328636"
       height="40.772564"
       id="rect38" />
    <rect
       x="38.224281"
       y="519.85022"
       width="68.803703"
       height="86.004631"
       id="rect40" />
    <rect
       x="174.55754"
       y="591.20221"
       width="89.189987"
       height="155.4454"
       id="rect42" />
    <rect
       x="77.722702"
       y="853.6756"
       width="103.20556"
       height="81.545128"
       id="rect43" />
    <rect
       x="174.55754"
       y="591.20221"
       width="89.189987"
       height="155.4454"
       id="rect42-6" />
    <rect
       x="174.55754"
       y="591.20221"
       width="89.189987"
       height="155.4454"
       id="rect42-6-7" />
    <rect
       x="324.34378"
       y="694.63623"
       width="177.48811"
       height="55.859203"
       id="rect46" />
  </defs>
  <g
     inkscape:label="Layer 1"
     inkscape:groupmode="layer"
     id="layer1"
     transform="translate(-9.1837644,-31.889276)">
    <rect
       style="fill:#ffffff;stroke:#ffffff;stroke-width:0.264583;stroke-linejoin:round"
       id="rect45"
       width="143.0266"
       height="173.53893"
       x="9.3160553"
       y="32.021568"
       inkscape:export-filename="springTorqueB_profile.svg"
       inkscape:export-xdpi="96"
       inkscape:export-ydpi="96" />
    <path
       style="fill:none;stroke:#aad400;stroke-width:1.5875;stroke-linejoin:round"
       d="m 82.591311,126.06609 3.0176,6.21956 c 0,0 0.6421,1.09345 1.18334,1.34678 0.587416,0.27494 1.314316,0.20068 1.945103,0.0498 0.444758,-0.10641 1.207172,-0.65193 1.207172,-0.65193 l 11.583114,-16.94662 c 0,0 0.75123,-0.85839 1.23955,-1.13131 0.40483,-0.2262 0.87466,-0.41991 1.33724,-0.38385 0.56299,0.0434 1.11159,0.34048 1.53741,0.71132 0.37719,0.32849 0.68445,0.77853 0.8112,1.26239 0.14422,0.55061 -0.10029,1.70462 -0.10029,1.70462 l -15.808734,20.3878 c 0,0 -0.650031,0.93844 -0.737343,1.48379 -0.0725,0.45285 -0.0038,0.94936 0.196986,1.36168 0.255803,0.52526 0.719339,0.95144 1.210938,1.26714 0.330936,0.21253 0.722787,0.35497 1.114828,0.38645 0.43246,0.0348 0.889544,-0.0397 1.282038,-0.22459 0.426975,-0.2016 1.077104,-0.92002 1.077104,-0.92002 L 111.7198,117.4313 c 0,0 0.77616,-0.8337 1.29157,-1.02407 0.50894,-0.18803 1.62658,-0.0606 1.62658,-0.0606 l 5.69091,1.08071"
       id="path1-9"
       sodipodi:nodetypes="ccaaccaaaaccaaaaaccacc"
       inkscape:transform-center-x="19.34829"
       inkscape:transform-center-y="11.299376" />
    <path
       style="fill:none;stroke:#aad400;stroke-width:1.5875;stroke-linejoin:round"
       d="m 82.344776,92.879071 3.029121,-6.213961 c 0,0 0.463647,-1.180235 0.328727,-1.762398 -0.146431,-0.631829 -0.653631,-1.157786 -1.161794,-1.560814 -0.358326,-0.284142 -1.258193,-0.547027 -1.258193,-0.547027 l -20.482363,1.352413 c 0,0 -1.139073,-0.06091 -1.655258,-0.276503 -0.427923,-0.17873 -0.87015,-0.429179 -1.127626,-0.814876 -0.313497,-0.469643 -0.41853,-1.084616 -0.389747,-1.648546 0.02549,-0.499533 0.189774,-1.019096 0.492121,-1.417556 0.344058,-0.45343 1.402788,-0.973633 1.402788,-0.973633 l 25.798351,-0.153296 c 0,0 1.139542,-0.06812 1.622433,-0.336173 0.400986,-0.222581 0.749127,-0.583184 0.94947,-0.995721 0.25523,-0.525543 0.304251,-1.153308 0.249048,-1.734938 C 90.104693,75.404499 89.974787,75.008318 89.757477,74.6805 89.517765,74.318878 89.176978,74.005306 88.789218,73.810711 88.367,73.59933 87.400461,73.531525 87.400461,73.531525 l -29.833325,1.766451 c 0,0 -1.135056,-0.09576 -1.603033,-0.383641 -0.46213,-0.284281 -1.051972,-1.242085 -1.051972,-1.242085 L 52.24834,68.528443"
       id="path1-2"
       sodipodi:nodetypes="ccaaccaaaaccaaaaaccacc"
       inkscape:transform-center-x="11.268223"
       inkscape:transform-center-y="-12.276554" />
    <path
       style="fill:none;stroke:#aad400;stroke-width:1.5875;stroke-linejoin:round"
       d="m 92.788501,109.47494 h 6.912951 c 0,0 1.264058,-0.10039 1.728238,-0.47676 0.50378,-0.40848 0.75431,-1.09486 0.89392,-1.72824 0.0984,-0.4466 -0.0596,-1.37067 -0.0596,-1.37067 L 92.073369,88.080542 c 0,0 -0.444367,-1.050588 -0.476756,-1.609048 -0.02685,-0.46297 0.0045,-0.970224 0.238377,-1.370671 0.284788,-0.487587 0.791556,-0.851469 1.311077,-1.0727 0.460195,-0.195968 0.999208,-0.275962 1.48986,-0.178784 0.558342,0.110585 1.489861,0.834321 1.489861,0.834321 l 11.442132,23.12263 c 0,0 0.56056,0.99447 1.0131,1.31108 0.37578,0.26291 0.85247,0.41784 1.31108,0.41716 0.58424,-8.6e-4 1.17001,-0.23187 1.66864,-0.53635 0.33567,-0.20497 0.63487,-0.49534 0.83432,-0.83432 0.22002,-0.37393 0.35256,-0.81766 0.35757,-1.25148 0.005,-0.47215 -0.35757,-1.37067 -0.35757,-1.37067 L 97.734838,79.498948 c 0,0 -0.411282,-1.062248 -0.357568,-1.60905 0.05304,-0.539969 0.65554,-1.489861 0.65554,-1.489861 l 3.45648,-4.648364"
       id="path1"
       sodipodi:nodetypes="ccaaccaaaaccaaaaaccacc" />
    <path
       style="fill:#eeffaa;stroke:#eeffaa;stroke-width:0.264583;stroke-linejoin:round"
       d="m 73.554191,123.05288 c -3.867221,-0.26521 -7.494603,-2.23331 -9.81883,-5.32738 -2.371709,-3.1573 -3.238166,-7.03592 -2.43795,-10.91326 0.409115,-1.9823 1.393219,-4.04256 2.717818,-5.68985 1.546236,-1.922905 3.777562,-3.473099 6.167795,-4.285013 5.484225,-1.862883 11.594346,0.04305 15.085981,4.705793 0.502626,0.67121 0.848825,1.23562 1.266936,2.06547 1.667137,3.30891 1.876779,7.17523 0.579236,10.68246 -0.652126,1.76268 -1.66697,3.35916 -2.997404,4.7153 -0.764839,0.77961 -1.398783,1.30357 -2.262079,1.86962 -2.468832,1.61877 -5.365064,2.37823 -8.301503,2.17686 z m 1.830689,-1.97915 c 1.481143,-0.11005 2.354401,-0.36646 4.005649,-1.17617 0.849715,-0.41667 1.569286,-0.85457 2.318369,-1.41085 0.920261,-0.68341 1.284568,-0.98931 1.284568,-1.07863 0,-0.0495 -0.354065,-0.4846 -0.860401,-1.0574 l -0.860401,-0.97333 0.335698,-0.40534 c 0.851964,-1.02872 1.451586,-2.13107 1.677659,-3.08426 0.09583,-0.40404 0.235085,-1.45008 0.278908,-2.09508 l 0.02935,-0.43194 0.194736,-2.5e-4 c 0.107103,-1.2e-4 0.626983,0.0218 1.155284,0.0487 0.710325,0.0362 0.972876,0.0366 1.007862,0.002 0.07405,-0.074 -0.03115,-1.44109 -0.159502,-2.07279 -0.331557,-1.63172 -0.881343,-2.95982 -1.78246,-4.30582 -0.612037,-0.91419 -0.710925,-1.04593 -0.785128,-1.04593 -0.03457,0 -0.453376,0.35166 -0.930687,0.78147 l -0.867844,0.78147 -0.328433,-0.31378 c -0.364471,-0.34822 -1.046178,-0.90174 -1.439635,-1.16893 -0.550211,-0.37365 -1.541248,-0.7801 -2.319493,-0.9513 -0.404294,-0.0889 -1.452253,-0.0987 -2.053818,-0.0192 -0.195217,0.0258 -0.361807,0.0401 -0.3702,0.0317 -0.0084,-0.008 -0.0423,-0.75793 -0.07536,-1.665633 -0.03306,-0.907709 -0.07144,-1.668719 -0.08529,-1.691132 -0.03822,-0.06185 -0.324157,-0.04941 -1.015351,0.04417 -1.469462,0.198948 -2.137757,0.345485 -2.998407,0.657458 -1.2294,0.44564 -2.580616,1.206302 -3.44555,1.939657 -0.442444,0.37514 -1.410221,1.32315 -1.410221,1.38142 0,0.0252 0.444191,0.48973 0.987089,1.03226 l 0.987089,0.98643 -0.336388,0.38278 c -0.425014,0.48363 -0.678286,0.86143 -0.839367,1.25206 -0.162751,0.39467 -0.522589,1.60666 -0.780354,2.62833 -0.111104,0.44036 -0.217917,0.81151 -0.237366,0.82478 -0.01945,0.0133 -0.644737,0.0482 -1.389531,0.0776 -0.744794,0.0294 -1.379638,0.0633 -1.410769,0.0752 -0.04202,0.0161 -0.05644,0.1264 -0.05598,0.42807 0.0013,0.95655 0.142957,2.72424 0.276688,3.45612 0.173831,0.95134 0.633812,1.7528 2.052799,3.57673 0.245938,0.31612 0.361,0.43193 0.429154,0.43193 0.06019,0 0.393441,-0.26093 0.942277,-0.73779 l 0.849161,-0.7378 0.445159,0.38988 c 0.832054,0.72873 1.526561,1.15549 2.694628,1.6558 1.067887,0.45739 1.697439,0.60826 2.929112,0.70191 l 0.673825,0.0512 5.29e-4,0.14958 c 2.51e-4,0.0823 -0.0218,0.69195 -0.04905,1.35485 -0.02724,0.66289 -0.03754,1.23652 -0.02289,1.27472 0.03258,0.0849 0.448736,0.0927 1.354312,0.0254 z"
       id="path33" />
    <circle
       style="fill:none;stroke:#88aa00;stroke-width:0.264583;stroke-linejoin:round"
       id="circle23"
       cx="128.75708"
       cy="110.09812"
       r="4.7196364" />
    <circle
       style="fill:none;stroke:#88aa00;stroke-width:0.264583;stroke-linejoin:round"
       id="path3-3"
       cx="72.740929"
       cy="55.767559"
       r="4.7196364" />
    <circle
       style="fill:none;stroke:#88aa00;stroke-width:0.264583;stroke-linejoin:round"
       id="path3-1"
       cx="20.186928"
       cy="107.67281"
       r="4.7196364" />
    <circle
       style="fill:none;stroke:#88aa00;stroke-width:0.264583;stroke-linejoin:round"
       id="path3-36"
       cx="76.582703"
       cy="163.38753"
       r="4.7196364" />
    <circle
       style="fill:none;stroke:#88aa00;stroke-width:0.264583;stroke-linejoin:round"
       id="path3-18"
       cx="36.436954"
       cy="70.881752"
       r="4.7196364" />
    <circle
       style="fill:none;stroke:#88aa00;stroke-width:0.264583;stroke-linejoin:round"
       id="path3-18-2"
       cx="112.70698"
       cy="71.012024"
       r="4.7196364" />
    <circle
       style="fill:none;stroke:#88aa00;stroke-width:0.264583;stroke-linejoin:round"
       id="path3-18-22"
       cx="113.81398"
       cy="147.0889"
       r="4.7196364" />
    <circle
       style="fill:none;stroke:#88aa00;stroke-width:0.264583;stroke-linejoin:round"
       id="path3-18-6"
       cx="34.654961"
       cy="145.3819"
       r="4.7196364" />
    <circle
       style="fill:none;stroke:#88aa00;stroke-width:0.264583;stroke-linejoin:round"
       id="path1-1"
       cx="74.48127"
       cy="109.42388"
       r="61.692398" />
    <circle
       style="fill:none;stroke:#88aa00;stroke-width:0.264583;stroke-linejoin:round"
       id="path1-4"
       cx="74.48127"
       cy="109.42388"
       r="46.522137" />
    <path
       style="fill:#eeffaa;stroke:#eeffaa;stroke-width:0.264583;stroke-linejoin:round"
       d="M 69.526175,170.58738 C 46.772506,168.83709 26.429464,153.92741 17.697422,132.60144 9.208479,111.86913 12.764998,88.096406 26.964864,70.655451 29.278473,67.813763 34.423256,62.812331 37.29307,60.615025 55.278783,46.844052 80.289605,44.200093 100.6032,53.92235 c 16.32491,7.813249 28.2765,22.048451 33.03969,39.35265 5.89896,21.43047 -0.39552,44.46735 -16.39279,59.99518 -10.7143,10.39988 -23.522414,16.18423 -38.386316,17.33586 -4.624769,0.35831 -4.432009,0.3587 -9.337609,-0.0187 z m 10.207815,-3.36902 c 1.913031,-1.78725 2.373742,-4.30283 1.154314,-6.30285 -1.982031,-3.25079 -6.951477,-3.25759 -8.636381,-0.0118 -1.199991,2.31165 -0.439962,5.39008 1.655752,6.70646 1.538602,0.96644 4.592291,0.76109 5.826315,-0.39179 z m 2.525835,-11.6438 c 6.420321,-1.09125 12.405463,-3.4425 17.788185,-6.98806 10.66942,-7.02786 17.62191,-17.28331 20.33581,-29.99683 1.04498,-4.89535 1.04498,-13.4361 0,-18.33145 -1.98507,-9.299247 -6.15506,-17.128911 -12.58778,-23.635039 -9.106103,-9.210018 -20.330872,-13.889979 -33.314777,-13.889979 -13.00072,0 -24.157541,4.655854 -33.314685,13.902555 -6.438519,6.501484 -10.600296,14.311505 -12.587861,23.622463 -1.04498,4.89535 -1.04498,13.4361 0,18.33145 2.832332,13.26837 10.678435,24.32195 22.155165,31.21221 4.261014,2.55818 10.554793,4.85691 15.825134,5.77996 3.779829,0.66199 11.785018,0.65829 15.700809,-0.007 z m 34.008405,-4.21129 c 1.60831,-0.90392 2.43154,-2.31231 2.43154,-4.1599 0,-2.93263 -1.92837,-4.97086 -4.74311,-5.01333 -1.9946,-0.0301 -3.60588,0.85743 -4.46138,2.45741 -2.37095,4.43419 2.40557,9.17042 6.77295,6.71582 z m -79.201683,-1.60931 c 1.675614,-0.89829 2.836312,-3.24747 2.522442,-5.10525 -0.307451,-1.81978 -1.864024,-3.59037 -3.557217,-4.0463 -3.485671,-0.93859 -6.764432,1.89864 -6.289137,5.44221 0.468082,3.48982 4.20398,5.38194 7.323912,3.70934 z m 94.421903,-35.53279 c 1.32083,-0.88238 2.32435,-2.66245 2.32435,-4.12299 0,-1.46054 -1.00352,-3.24061 -2.32435,-4.12299 -2.40063,-1.60373 -5.89016,-0.66394 -7.19763,1.93844 -1.65909,3.30224 0.7219,7.07278 4.46627,7.07278 1.08757,0 1.94581,-0.24045 2.73136,-0.76524 z M 22.357414,112.15903 c 1.70247,-0.71134 2.699678,-2.34592 2.719581,-4.45781 0.0278,-2.95025 -1.927822,-4.92889 -4.871554,-4.92889 -1.895323,0 -2.944668,0.55815 -4.193131,2.23034 -0.963953,1.29112 -0.962307,4.17608 0.0031,5.49219 1.413825,1.92736 4.054002,2.62015 6.341971,1.66417 z M 38.722908,75.290285 c 1.525201,-0.777719 2.390338,-2.014115 2.622978,-3.748591 0.647772,-4.829492 -5.392663,-7.59819 -8.602085,-3.942857 -1.461585,1.664649 -1.695591,3.528478 -0.688552,5.484206 1.327441,2.57797 4.124653,3.503951 6.667659,2.207242 z m 76.726662,-0.08907 c 1.52963,-0.945361 2.29963,-2.704176 2.09883,-4.794046 -0.2272,-2.364412 -1.85455,-3.991766 -4.21896,-4.218956 -3.22471,-0.309853 -5.47359,1.652664 -5.47359,4.776608 0,1.959628 0.71793,3.398424 2.12334,4.255357 1.4539,0.886489 4.01972,0.877596 5.47038,-0.01897 z M 75.144028,60.120024 c 1.564473,-0.789213 2.50095,-2.483768 2.50095,-4.525476 0,-2.760546 -2.099879,-4.716624 -5.063358,-4.716624 -3.590795,0 -5.89394,3.861271 -4.252216,7.128923 1.237154,2.462403 4.262593,3.400573 6.814624,2.113177 z"
       id="path24" />
    <circle
       style="fill:none;stroke:#cccccc;stroke-width:0.264583;stroke-linejoin:round"
       id="circle24"
       cx="74.48127"
       cy="109.07852"
       r="54.275826" />
    <circle
       style="fill:none;stroke:#88aa00;stroke-width:0.264583;stroke-linejoin:round"
       id="path3-10"
       cx="90.545967"
       cy="109.86401"
       r="1.3974065" />
    <circle
       style="fill:none;stroke:#88aa00;stroke-width:0.264583;stroke-linejoin:round"
       id="path3-3-6"
       cx="73.960503"
       cy="93.777626"
       r="1.3974065" />
    <circle
       style="fill:none;stroke:#88aa00;stroke-width:0.264583;stroke-linejoin:round"
       id="path3-1-3"
       cx="58.400135"
       cy="109.14591"
       r="1.3974065" />
    <circle
       style="fill:none;stroke:#88aa00;stroke-width:0.264583;stroke-linejoin:round"
       id="path3-36-2"
       cx="75.098"
       cy="125.64221"
       r="1.3974065" />
    <circle
       style="fill:none;stroke:#88aa00;stroke-width:0.264583;stroke-linejoin:round"
       id="path3-18-0"
       cx="63.211502"
       cy="98.252693"
       r="1.3974065" />
    <circle
       style="fill:none;stroke:#88aa00;stroke-width:0.264583;stroke-linejoin:round"
       id="path3-18-2-6"
       cx="85.7938"
       cy="98.291267"
       r="1.3974065" />
    <circle
       style="fill:none;stroke:#88aa00;stroke-width:0.264583;stroke-linejoin:round"
       id="path3-18-22-1"
       cx="86.121559"
       cy="120.81642"
       r="1.3974065" />
    <circle
       style="fill:none;stroke:#88aa00;stroke-width:0.264583;stroke-linejoin:round"
       id="path3-18-6-5"
       cx="62.683884"
       cy="120.31104"
       r="1.3974065" />
    <circle
       style="fill:none;stroke:#88aa00;stroke-width:0.264583;stroke-linejoin:round"
       id="path1-1-5"
       cx="74.475792"
       cy="109.66438"
       r="18.266102" />
    <circle
       style="fill:none;stroke:#88aa00;stroke-width:0.264583;stroke-linejoin:round"
       id="path1-4-4"
       cx="74.475792"
       cy="109.66438"
       r="13.774437" />
    <path
       style="fill:#eeffaa;stroke:#eeffaa;stroke-width:0.264583;stroke-linejoin:round"
       d="m 73.008673,127.77397 c -6.73699,-0.51824 -12.76022,-4.93275 -15.34564,-11.24704 -2.51343,-6.13851 -1.46041,-13.17724 2.74394,-18.341238 0.68502,-0.84138 2.20831,-2.32222 3.05801,-2.972815 5.32527,-4.07735 12.73057,-4.86018 18.74508,-1.98158 4.83354,2.31337 8.37221,6.528185 9.78251,11.651703 1.746591,6.34521 -0.11711,13.16608 -4.85363,17.76363 -3.17233,3.07923 -6.9646,4.79188 -11.36556,5.13286 -1.36931,0.10609 -1.31224,0.10621 -2.76471,-0.006 z m 3.02237,-0.99751 c 0.56641,-0.52918 0.70282,-1.274 0.34177,-1.86617 -0.58685,-0.96251 -2.05822,-0.96452 -2.55709,-0.004 -0.3553,0.68445 -0.13026,1.59592 0.49024,1.98568 0.45556,0.28614 1.3597,0.22534 1.72508,-0.11601 z m 0.74785,-3.44754 c 1.90096,-0.3231 3.67306,-1.01927 5.26679,-2.06905 3.15904,-2.08083 5.21756,-5.11732 6.0211,-8.88161 0.3094,-1.44943 0.3094,-3.97821 0,-5.42764 -0.58775,-2.75337 -1.82242,-5.07162 -3.72703,-6.997978 -2.69617,-2.72694 -6.01964,-4.1126 -9.86396,-4.1126 -3.8493,0 -7.15265,1.37852 -9.86393,4.11632 -1.90634,1.924988 -3.13857,4.237418 -3.72706,6.994258 -0.3094,1.44943 -0.3094,3.97821 0,5.42764 0.83861,3.92857 3.16171,7.20137 6.55978,9.24147 1.26162,0.75743 3.1251,1.43804 4.68556,1.71134 1.11915,0.19601 3.48935,0.19491 4.64875,-0.002 z m 10.06933,-1.2469 c 0.47619,-0.26763 0.71994,-0.68463 0.71994,-1.23167 0,-0.86831 -0.57096,-1.47179 -1.40436,-1.48436 -0.59057,-0.009 -1.06764,0.25387 -1.32094,0.72759 -0.702,1.31289 0.71225,2.71521 2.00536,1.98844 z m -23.45031,-0.47649 c 0.49612,-0.26596 0.83978,-0.96151 0.74685,-1.51158 -0.091,-0.5388 -0.5519,-1.06304 -1.05323,-1.19804 -1.03205,-0.2779 -2.00284,0.56216 -1.86211,1.61135 0.13859,1.03328 1.24473,1.5935 2.16849,1.09827 z m 27.95677,-10.52071 c 0.39107,-0.26126 0.6882,-0.7883 0.6882,-1.22075 0,-0.43244 -0.29713,-0.95949 -0.6882,-1.22075 -0.71079,-0.47484 -1.74398,-0.19659 -2.1311,0.57394 -0.49123,0.97774 0.21374,2.09413 1.32239,2.09413 0.32201,0 0.57612,-0.0712 0.80871,-0.22657 z m -32.3119,-0.61056 c 0.50407,-0.21062 0.79933,-0.6946 0.80522,-1.31989 0.008,-0.87353 -0.57079,-1.45936 -1.44238,-1.45936 -0.56118,0 -0.87187,0.16525 -1.24152,0.66036 -0.28541,0.38228 -0.28492,1.23647 9.2e-4,1.62614 0.41861,0.57067 1.20032,0.7758 1.87775,0.49275 z m 4.84555,-10.916268 c 0.45159,-0.23027 0.70774,-0.59635 0.77662,-1.1099 0.1918,-1.42993 -1.59668,-2.2497 -2.54693,-1.16741 -0.43275,0.49287 -0.50204,1.04472 -0.20387,1.62378 0.39303,0.76329 1.22124,1.03746 1.97418,0.65353 z m 22.7175,-0.0264 c 0.4529,-0.27991 0.68088,-0.80067 0.62143,-1.41944 -0.0673,-0.70007 -0.5491,-1.1819 -1.24917,-1.24916 -0.95478,-0.0917 -1.62064,0.48932 -1.62064,1.41427 0,0.58022 0.21257,1.00622 0.62869,1.25994 0.43047,0.26248 1.19017,0.25984 1.61969,-0.006 z m -11.93381,-4.465305 c 0.46322,-0.23367 0.74049,-0.7354 0.74049,-1.33992 0,-0.81735 -0.62174,-1.39651 -1.49917,-1.39651 -1.06318,0 -1.7451,1.14326 -1.25901,2.11076 0.3663,0.72908 1.26208,1.00685 2.01769,0.62567 z"
       id="path4-7" />
    <circle
       style="fill:none;stroke:#cccccc;stroke-width:0.264583;stroke-linejoin:round"
       id="path1-6"
       cx="74.475792"
       cy="109.5621"
       r="16.070177" />
    <path
       style="fill:#eeffaa;stroke:#cccccc;stroke-width:0.264583;stroke-linejoin:round"
       d="M 74.475794,109.49186 H 149.95382"
       id="path25"
       sodipodi:nodetypes="cc" />
    <path
       style="fill:#eeffaa;stroke:#cccccc;stroke-width:0.264583;stroke-linejoin:round"
       d="M 74.475794,109.49186 123.14139,41.484063"
       id="path26" />
    <circle
       style="fill:none;stroke:#cccccc;stroke-width:0.264583;stroke-linejoin:round"
       id="path1-7"
       cx="74.48127"
       cy="109.60769"
       r="22.809975" />
    <circle
       style="fill:none;stroke:#cccccc;stroke-width:0.264582;stroke-linejoin:round"
       id="path1-7-4"
       cx="74.48127"
       cy="109.60769"
       r="43.072075" />
    <path
       style="fill:none;stroke:#cccccc;stroke-width:0.264583;stroke-linejoin:round"
       d="M 74.475794,109.49186 109.83356,37.193266"
       id="path28" />
    <path
       style="fill:none;stroke:#cccccc;stroke-width:0.264583;stroke-linejoin:round"
       d="m 74.475794,109.49186 70.000396,12.32558"
       id="path29" />
    <ellipse
       style="fill:none;stroke:#666666;stroke-width:0.264583;stroke-linejoin:round"
       id="circle29"
       cx="110.07079"
       cy="106.90092"
       rx="2.5819747"
       ry="2.5753267" />
    <path
       style="fill:none;stroke:#800080;stroke-width:0.264583;stroke-linejoin:round;marker-start:url(#ArrowWide);marker-end:url(#ArrowWide)"
       d="m 105.73982,45.89405 c 0,0 5.60208,2.908454 8.46241,4.886741 2.86033,1.978287 5.81928,4.606657 8.58159,7.03214 2.76231,2.425483 5.39054,4.417459 7.98566,7.508896 2.59512,3.091437 5.34324,7.500767 7.27051,11.084563 1.92727,3.583796 3.58081,6.857038 4.40999,10.250239 0.82918,3.393201 1.79113,6.714439 2.01185,9.535105 0.22072,2.820666 0.29169,5.260856 0.35757,7.389726 0.0659,2.12887 -0.11919,5.60191 -0.11919,5.60191"
       id="path30"
       sodipodi:nodetypes="czzzzzzzc" />
    <path
       style="fill:none;stroke:#800080;stroke-width:0.264583;stroke-linejoin:round;marker-start:url(#ArrowWide);marker-end:url(#ArrowWide)"
       d="m 109.43467,38.265965 c 0,0 3.94014,1.247316 5.72107,2.264588 1.96671,1.123389 5.3635,4.171609 5.3635,4.171609"
       id="path31"
       sodipodi:nodetypes="cac" />
    <ellipse
       style="fill:none;stroke:#666666;stroke-width:0.264583;stroke-linejoin:round"
       id="path10-3"
       cx="99.77475"
       cy="106.9252"
       rx="2.5819747"
       ry="2.5753267" />
    <path
       style="fill:#668000;stroke:#803300;stroke-width:0.264583;stroke-linejoin:round;marker-start:url(#ArrowWide);marker-end:url(#ArrowWide)"
       d="M 77.759361,91.325441 78.445573,87.49095"
       id="path35"
       sodipodi:nodetypes="cc" />
    <path
       style="fill:#668000;stroke:#803300;stroke-width:0.264583;stroke-linejoin:round;marker-start:url(#ArrowWide-1);marker-end:url(#ArrowWide-1)"
       d="m 82.162006,67.016131 0.617398,-3.093654"
       id="path16-5"
       sodipodi:nodetypes="cc" />
    <path
       style="fill:#668000;stroke:#ff00ff;stroke-width:0.264583;stroke-linejoin:round;marker-start:url(#ArrowWide)"
       d="m 107.67663,99.162455 -1.84627,0.920115"
       id="path36" />
    <path
       style="fill:#668000;stroke:#ff00ff;stroke-width:0.264583;stroke-linejoin:round;marker-start:url(#ArrowWide-6)"
       d="m 109.45263,98.27583 3.59574,-1.853681"
       id="path17-3" />
    <path
       style="fill:#668000;stroke:#0000ff;stroke-width:0.264583;stroke-linejoin:round;marker-start:url(#ArrowWide)"
       d="m 93.467811,110.95848 4.322906,1.06881"
       id="path37"
       sodipodi:nodetypes="cc" />
    <path
       style="fill:#668000;stroke:#0000ff;stroke-width:0.264583;stroke-linejoin:round;marker-start:url(#ArrowWide)"
       d="M 100.05702,71.478947 93.021667,71.31812"
       id="path38"
       sodipodi:nodetypes="cc" />
    <path
       style="fill:#668000;stroke:#0000ff;stroke-width:0.264583;stroke-linejoin:round;marker-start:url(#ArrowWide)"
       d="M 101.89465,93.764777 131.9597,80.853237"
       id="path39"
       sodipodi:nodetypes="cc" />
    <path
       style="fill:#668000;stroke:#0000ff;stroke-width:0.264583;stroke-linejoin:round;marker-start:url(#ArrowWide)"
       d="M 107.62563,94.610475 132.06268,81.579323"
       id="path40"
       sodipodi:nodetypes="cc" />
    <text
       xml:space="preserve"
       transform="matrix(0.26458333,0,0,0.26458333,-4.9097682,35.737412)"
       id="text22"
       style="font-size:16px;line-height:normal;font-family:'Liberation Mono';-inkscape-font-specification:'Liberation Mono';text-decoration-color:#000000;white-space:pre;shape-inside:url(#rect22);display:inline;fill:#0000ff;stroke-width:1;-inkscape-stroke:none;stop-color:#000000"><tspan
         x="519.21289"
         y="173.50402"
         id="tspan2">Nk</tspan></text>
    <text
       xml:space="preserve"
       transform="matrix(0.26458333,0,0,0.26458333,65.69237,79.028545)"
       id="text23"
       style="font-size:16px;line-height:normal;font-family:'Liberation Mono';-inkscape-font-specification:'Liberation Mono';text-decoration-color:#000000;white-space:pre;shape-inside:url(#rect23);display:inline;fill:#ff00ff;stroke-width:1;-inkscape-stroke:none;stop-color:#000000"><tspan
         x="173.88477"
         y="81.357535"
         id="tspan20">Ws</tspan></text>
    <text
       xml:space="preserve"
       transform="matrix(0.26458333,0,0,0.26458333,51.716414,91.200171)"
       id="text25"
       style="font-size:16px;line-height:normal;font-family:'Liberation Mono';-inkscape-font-specification:'Liberation Mono';text-decoration-color:#000000;white-space:pre;shape-inside:url(#rect25);display:inline;fill:#0000ff;stroke-width:1;-inkscape-stroke:none;stop-color:#000000"><tspan
         x="174.33398"
         y="84.511832"
         id="tspan21">Rrsi</tspan></text>
    <text
       xml:space="preserve"
       transform="matrix(0.26458333,0,0,0.26458333,41.532952,50.339951)"
       id="text26"
       style="font-size:16px;line-height:normal;font-family:'Liberation Mono';-inkscape-font-specification:'Liberation Mono';text-decoration-color:#000000;white-space:pre;shape-inside:url(#rect26);display:inline;fill:#0000ff;stroke-width:1;-inkscape-stroke:none;stop-color:#000000"><tspan
         x="154.51367"
         y="82.257926"
         id="tspan22">Rrse</tspan></text>
    <text
       xml:space="preserve"
       transform="matrix(0.26458333,0,0,0.26458333,-17.024676,5.36984)"
       id="text27"
       style="font-size:16px;line-height:normal;font-family:'Liberation Mono';-inkscape-font-specification:'Liberation Mono';text-decoration-color:#000000;white-space:pre;shape-inside:url(#rect27);display:inline;fill:#800080;stroke-width:1;-inkscape-stroke:none;stop-color:#000000"><tspan
         x="498.22852"
         y="128.65832"
         id="tspan23">aEs</tspan></text>
    <text
       xml:space="preserve"
       transform="matrix(0.26458333,0,0,0.26458333,0.61527035,25.989514)"
       id="text28"
       style="font-size:16px;line-height:normal;font-family:'Liberation Mono';-inkscape-font-specification:'Liberation Mono';text-decoration-color:#000000;white-space:pre;shape-inside:url(#rect28);display:inline;fill:#800080;stroke-width:1;-inkscape-stroke:none;stop-color:#000000"><tspan
         x="505.43555"
         y="161.9923"
         id="tspan24">Ns</tspan></text>
    <text
       xml:space="preserve"
       transform="matrix(0.26458333,0,0,0.26458333,30.293288,65.441018)"
       id="text29"
       style="font-size:16px;line-height:normal;font-family:'Liberation Mono';-inkscape-font-specification:'Liberation Mono';text-decoration-color:#000000;white-space:pre;shape-inside:url(#rect29);display:inline;fill:#800080;stroke-width:1;-inkscape-stroke:none;stop-color:#000000"><tspan
         x="148.6582"
         y="94.421988"
         id="tspan25">Esi</tspan></text>
    <text
       xml:space="preserve"
       transform="matrix(0.26458333,0,0,0.26458333,11.699831,46.251617)"
       id="text30"
       style="font-size:16px;line-height:normal;font-family:'Liberation Mono';-inkscape-font-specification:'Liberation Mono';text-decoration-color:#000000;white-space:pre;shape-inside:url(#rect30);display:inline;fill:#800080;stroke-width:1;-inkscape-stroke:none;stop-color:#000000"><tspan
         x="234.69922"
         y="77.302847"
         id="tspan26">Ese</tspan></text>
    <path
       style="fill:#800080;stroke:#b3b3b3;stroke-width:0.264583;stroke-linejoin:round;marker-start:url(#ArrowWide)"
       d="m 112.05682,109.00453 1.43027,2.32418"
       id="path41"
       sodipodi:nodetypes="cc" />
    <text
       xml:space="preserve"
       transform="matrix(0.26458333,0,0,0.26458333,67.718581,91.602966)"
       id="text31"
       style="font-size:16px;line-height:normal;font-family:'Liberation Mono';-inkscape-font-specification:'Liberation Mono';text-decoration-color:#000000;white-space:pre;shape-inside:url(#rect31);display:inline;fill:#b3b3b3;stroke-width:1;-inkscape-stroke:none;stop-color:#000000"><tspan
         x="165.32617"
         y="86.763785"
         id="tspan27">Dk</tspan></text>
    <path
       style="fill:#b3b3b3;stroke:#b3b3b3;stroke-width:0.264583;stroke-linejoin:round;marker-start:url(#ArrowWide);marker-end:url(#ArrowWide)"
       d="m 100.24402,95.303171 -2.297957,1.121598"
       id="path42"
       sodipodi:nodetypes="cc" />
    <text
       xml:space="preserve"
       transform="matrix(0.26458333,0,0,0.26458333,50.4362,69.076277)"
       id="text32"
       style="font-size:16px;line-height:normal;font-family:'Liberation Mono';-inkscape-font-specification:'Liberation Mono';text-decoration-color:#000000;white-space:pre;shape-inside:url(#rect32);display:inline;fill:#b3b3b3;stroke-width:1;-inkscape-stroke:none;stop-color:#000000"><tspan
         x="167.12695"
         y="95.773551"
         id="tspan28">Ek</tspan></text>
    <circle
       style="fill:none;stroke:#008000;stroke-width:0.264583;stroke-linejoin:round"
       id="path1-7-8"
       cx="74.48127"
       cy="109.60769"
       r="10.175959" />
    <path
       style="fill:none;stroke:#88aa00;stroke-width:0.264583;stroke-linejoin:round"
       d="m 74.75072,101.31686 -0.11919,-3.456482 c 0,0 -2.008899,0.213528 -2.979719,0.476755 -0.740567,0.200797 -1.459477,0.490419 -2.1454,0.834322 -0.67011,0.335975 -1.311177,0.737033 -1.907022,1.191885 -0.558702,0.42651 -1.549453,1.43028 -1.549453,1.43028 l 2.026209,2.02622 c 0,0 -0.794888,0.81948 -1.072698,1.31108 -0.290582,0.5142 -0.421306,1.10444 -0.595945,1.66865 -0.230802,0.74567 -0.595945,2.26461 -0.595945,2.26461 l -2.860532,0.11919 c 0,0 0.03635,1.59252 0.11919,2.38378 0.06703,0.64027 0.09923,1.2971 0.305154,1.90704 0.173076,0.51264 0.476473,0.97417 0.767546,1.43027 0.42746,0.66982 1.430266,1.90703 1.430266,1.90703 l 1.787832,-1.54946 c 0,0 0.917032,0.84299 1.430266,1.19189 0.41169,0.27987 0.858389,0.50804 1.311077,0.71514 0.617363,0.28243 1.246283,0.55916 1.907021,0.71514 0.738728,0.17439 2.264587,0.23838 2.264587,0.23838 l -0.119189,2.86054 c 0,0 1.767078,-0.0406 2.622155,-0.23838 0.869843,-0.20121 1.695787,-0.57196 2.502964,-0.95351 0.579176,-0.27377 1.133254,-0.60173 1.668645,-0.95352 0.66407,-0.43633 1.907021,-1.43027 1.907021,-1.43027 l -1.787831,-2.02622 c 0,0 0.853432,-0.99264 1.191887,-1.54946 0.341586,-0.56198 0.652268,-1.1559 0.834321,-1.78785 0.266012,-0.92338 0.357568,-2.86054 0.357568,-2.86054 l 2.383777,0.11919 c 0,0 -0.03621,-1.03814 -0.119189,-1.54947 -0.104957,-0.64678 -0.265239,-1.28687 -0.476755,-1.90703 -0.223979,-0.65671 -0.501548,-1.29819 -0.834322,-1.90703 -0.343511,-0.62849 -1.191888,-1.78784 -1.191888,-1.78784 l -1.787832,1.60905 c 0,0 -0.540707,-0.53426 -0.834323,-0.77473 -0.473442,-0.38774 -0.943937,-0.7962 -1.48986,-1.0727 -0.689315,-0.34914 -1.438732,-0.61569 -2.204993,-0.71514 -0.710279,-0.0922 -2.1454,0.11919 -2.1454,0.11919 z"
       id="path43"
       sodipodi:nodetypes="ccaaaccaaccaaaccaaaccaaaccaaccaaaccaaac" />
    <path
       style="fill:none;stroke:#d45500;stroke-width:0.264583;stroke-linejoin:round;marker-start:url(#ArrowWide)"
       d="m 76.503965,158.81162 v 6.23666"
       id="path44" />
    <path
       style="fill:none;stroke:#d45500;stroke-width:0.264583;stroke-linejoin:round;marker-start:url(#ArrowWide-9)"
       d="m 76.592163,155.30329 v -6.23666"
       id="path34-8" />
    <text
       xml:space="preserve"
       transform="matrix(0.26458333,0,0,0.26458333,15.822922,25.144666)"
       id="text34"
       style="font-size:16px;line-height:normal;font-family:'Liberation Mono';-inkscape-font-specification:'Liberation Mono';text-decoration-color:#000000;white-space:pre;shape-inside:url(#rect34);display:inline;fill:#d45500;stroke-width:1;-inkscape-stroke:none;stop-color:#000000"><tspan
         x="231.25781"
         y="472.92785"
         id="tspan29">Ee</tspan></text>
    <path
       style="fill:#d45500;stroke:#d45500;stroke-width:0.264583;stroke-linejoin:round;marker-start:url(#ArrowWide)"
       d="m 122.68899,134.53921 11.29341,8.25936"
       id="path45" />
    <text
       xml:space="preserve"
       transform="matrix(0.26458333,0,0,0.26458333,15.99148,-5.701531)"
       id="text35"
       style="font-size:16px;line-height:normal;font-family:'Liberation Mono';-inkscape-font-specification:'Liberation Mono';text-decoration-color:#000000;white-space:pre;shape-inside:url(#rect35);display:inline;fill:#d45500;stroke-width:1;-inkscape-stroke:none;stop-color:#000000"><tspan
         x="447.22461"
         y="568.48839"
         id="tspan30">De</tspan></text>
    <path
       style="fill:#aa4400;stroke:#d45500;stroke-width:0.264583;stroke-linejoin:round;marker-start:url(#ArrowWide)"
       d="m 117.63223,150.88937 4.8882,6.06811"
       id="path46" />
    <text
       xml:space="preserve"
       transform="matrix(0.26458333,0,0,0.26458333,10.429051,5.928995)"
       id="text36"
       style="font-size:16px;line-height:normal;font-family:'Liberation Mono';-inkscape-font-specification:'Liberation Mono';text-decoration-color:#000000;white-space:pre;shape-inside:url(#rect36);display:inline;fill:#d45500;stroke-width:1;-inkscape-stroke:none;stop-color:#000000"><tspan
         x="421.74219"
         y="585.05285"
         id="tspan31">DTe</tspan></text>
    <path
       style="fill:#aa4400;stroke:#d45500;stroke-width:0.264583;stroke-linejoin:round;marker-start:url(#ArrowWide)"
       d="M 81.729277,165.04828 110.0471,167.4081"
       id="path47" />
    <path
       style="fill:#aa4400;stroke:#d45500;stroke-width:0.264583;stroke-linejoin:round;marker-start:url(#ArrowWide)"
       d="m 113.58683,152.23784 -1.01135,12.64188"
       id="path48" />
    <text
       xml:space="preserve"
       transform="matrix(0.26458333,0,0,0.26458333,5.0351807,12.502774)"
       id="text38"
       style="font-size:16px;line-height:normal;font-family:'Liberation Mono';-inkscape-font-specification:'Liberation Mono';text-decoration-color:#000000;white-space:pre;shape-inside:url(#rect38);display:inline;fill:#d45500;stroke-width:1;-inkscape-stroke:none;stop-color:#000000"><tspan
         x="400.71875"
         y="592.06066"
         id="tspan32">Ne</tspan></text>
    <path
       style="fill:#37abc8;stroke:#37abc8;stroke-width:0.264583;stroke-linejoin:round;marker-start:url(#ArrowWide)"
       d="M 66.2219,123.92003 31.330299,161.67711"
       id="path49" />
    <path
       style="fill:#37abc8;stroke:#37abc8;stroke-width:0.264582;stroke-linejoin:round"
       d="m 30.487507,159.65441 v 21.06981"
       id="path50" />
    <text
       xml:space="preserve"
       transform="matrix(0.26458333,0,0,0.26458333,0.82121935,21.942054)"
       id="text40"
       style="font-size:16px;line-height:normal;font-family:'Liberation Mono';-inkscape-font-specification:'Liberation Mono';text-align:end;text-decoration-color:#000000;white-space:pre;shape-inside:url(#rect40);display:inline;fill:#37abc8;stroke-width:1;-inkscape-stroke:none;stop-color:#000000"><tspan
         x="87.824219"
         y="534.08605"
         id="tspan33">Di
</tspan><tspan
         x="87.824219"
         y="554.08605"
         id="tspan34">Ni
</tspan><tspan
         x="78.222656"
         y="574.08605"
         id="tspan52">DTi
</tspan><tspan
         x="87.824219"
         y="594.08605"
         id="tspan53">Ei</tspan></text>
    <path
       style="fill:#3771c8;stroke:#3771c8;stroke-width:0.264583;stroke-linejoin:round;marker-start:url(#ArrowWide)"
       d="M 72.627121,120.3803 44.983534,173.81332"
       id="path51" />
    <text
       xml:space="preserve"
       transform="matrix(0.26458333,0,0,0.26458333,-4.3999736,22.780727)"
       id="text42"
       style="font-size:16px;line-height:normal;font-family:'Liberation Mono';-inkscape-font-specification:'Liberation Mono';text-decoration-color:#000000;white-space:pre;shape-inside:url(#rect42);display:inline;fill:#2c5aa0;stroke-width:1;-inkscape-stroke:none;stop-color:#000000"><tspan
         x="174.55664"
         y="605.43957"
         id="tspan54">Dt
</tspan><tspan
         x="174.55664"
         y="625.43957"
         id="tspan55">Nt
</tspan><tspan
         x="174.55664"
         y="645.43957"
         id="tspan56">Ht</tspan></text>
    <path
       style="fill:#3771c8;stroke:#d4aa00;stroke-width:0.264583;stroke-linejoin:round;marker-end:url(#ArrowWide)"
       d="m 12.114635,157.65219 7.753689,-9.43927"
       id="path52" />
    <text
       xml:space="preserve"
       transform="matrix(0.26458333,0,0,0.26458333,-4.0669759,-72.767215)"
       id="text43"
       style="font-size:16px;line-height:normal;font-family:'Liberation Mono';-inkscape-font-specification:'Liberation Mono';text-decoration-color:#000000;white-space:pre;shape-inside:url(#rect43);display:inline;fill:#d4aa00;stroke-width:1;-inkscape-stroke:none;stop-color:#000000"><tspan
         x="77.722656"
         y="867.91222"
         id="tspan57">Th</tspan></text>
    <path
       style="fill:#3771c8;stroke:#3771c8;stroke-width:0.264583;stroke-linejoin:round"
       d="m 50.490768,176.01193 v 25.43219"
       id="path42-9" />
    <text
       xml:space="preserve"
       transform="matrix(0.26458333,0,0,0.26458333,5.4386792,19.765591)"
       id="text42-5"
       style="font-size:16px;line-height:normal;font-family:'Liberation Mono';-inkscape-font-specification:'Liberation Mono';text-decoration-color:#000000;white-space:pre;shape-inside:url(#rect42-6);display:inline;fill:#2c5aa0;stroke-width:1;-inkscape-stroke:none;stop-color:#000000"><tspan
         x="174.55664"
         y="605.43957"
         id="tspan58">ate
</tspan><tspan
         x="174.55664"
         y="625.43957"
         id="tspan59">dh
</tspan><tspan
         x="174.55664"
         y="645.43957"
         id="tspan60">ah
</tspan><tspan
         x="174.55664"
         y="665.43957"
         id="tspan61">aeh
</tspan><tspan
         x="174.55664"
         y="685.43957"
         id="tspan62">aM</tspan></text>
    <path
       style="fill:#3771c8;stroke:#3771c8;stroke-width:0.264583;stroke-linejoin:round"
       d="m 63.222498,176.02147 v 25.43219"
       id="path42-9-2" />
    <text
       xml:space="preserve"
       transform="matrix(0.26458333,0,0,0.26458333,18.170407,22.420962)"
       id="text42-5-7"
       style="font-size:16px;line-height:normal;font-family:'Liberation Mono';-inkscape-font-specification:'Liberation Mono';text-decoration-color:#000000;white-space:pre;shape-inside:url(#rect42-6-7);display:inline;fill:#2c5aa0;stroke-width:1;-inkscape-stroke:none;stop-color:#000000"><tspan
         x="174.55664"
         y="605.43957"
         id="tspan63">SnAde
</tspan><tspan
         x="174.55664"
         y="625.43957"
         id="tspan64">SnAae
</tspan><tspan
         x="174.55664"
         y="645.43957"
         id="tspan65">Rde
</tspan><tspan
         x="174.55664"
         y="665.43957"
         id="tspan66">Rae</tspan></text>
    <rect
       style="fill:none;stroke:#2c5aa0;stroke-width:0.264583;stroke-linejoin:round"
       id="rect44"
       width="38.262772"
       height="28.48638"
       x="40.769573"
       y="174.67244" />
    <text
       xml:space="preserve"
       transform="matrix(0.26458333,0,0,0.26458333,-0.69580675,0.55571896)"
       id="text45"
       style="font-size:16px;line-height:normal;font-family:'Liberation Mono';-inkscape-font-specification:'Liberation Mono';text-decoration-color:#000000;white-space:pre;shape-inside:url(#rect46);display:inline;fill:#2c5aa0;stroke-width:1;-inkscape-stroke:none;stop-color:#000000"><tspan
         x="324.34375"
         y="708.87316"
         id="tspan67">Teeth: [On, Off]</tspan></text>
    <ellipse
       style="fill:none;stroke:#666666;stroke-width:0.264583;stroke-linejoin:round"
       id="path10-3-6"
       cx="94.135857"
       cy="86.418251"
       rx="2.5819747"
       ry="2.5753267" />
    <ellipse
       style="fill:none;stroke:#666666;stroke-width:0.264583;stroke-linejoin:round"
       id="path10-3-5"
       cx="100.05219"
       cy="78.272835"
       rx="2.5819747"
       ry="2.5753267" />
    <text
       xml:space="preserve"
       transform="matrix(0.26458333,0,0,0.26458333,-26.579108,1.1918884)"
       id="text2"
       style="font-size:16px;line-height:normal;font-family:'Liberation Mono';-inkscape-font-specification:'Liberation Mono';text-decoration-color:#000000;white-space:pre;shape-inside:url(#rect2);fill:#000080;stroke-width:1;-inkscape-stroke:none;stop-color:#000000"><tspan
         x="261.27734"
         y="529.58214"
         id="tspan69">zig:[alt,<tspan
   style="font-weight:bold;-inkscape-font-specification:'Liberation Mono Bold'"
   id="tspan68">one</tspan>,two]</tspan></text>
    <path
       style="fill:#000080;stroke:#000080;stroke-width:0.264583;stroke-linejoin:round;marker-end:url(#ArrowWide)"
       d="m 72.94356,138.73579 8.581597,-11.20375"
       id="path18" />
    <text
       xml:space="preserve"
       transform="matrix(0.26458333,0,0,0.26458333,0,3.6948537)"
       id="text18"
       style="font-size:16px;line-height:normal;font-family:'Liberation Mono';-inkscape-font-specification:'Liberation Mono';text-decoration-color:#000000;white-space:pre;shape-inside:url(#rect18);fill:#000080;stroke-width:1;-inkscape-stroke:none;stop-color:#000000"><tspan
         x="152.26172"
         y="148.02746"
         id="tspan71">zag:[<tspan
   style="font-weight:bold;-inkscape-font-specification:'Liberation Mono Bold'"
   id="tspan70">stroke</tspan>,arc]</tspan></text>
    <path
       style="fill:#000080;stroke:#000080;stroke-width:0.264583;stroke-linejoin:round;marker-end:url(#ArrowWide)"
       d="m 60.190358,43.7423 7.628083,29.32045"
       id="path20" />
  </g>
</svg>
