<?xml version="1.0" encoding="UTF-8" standalone="no"?>
<!-- Created with Inkscape (http://www.inkscape.org/) -->

<svg
   width="600"
   height="3000"
   viewBox="0 0 158.75 793.75"
   version="1.1"
   id="svg1"
   inkscape:version="1.4.1 (1:1.4.1+202503302257+93de688d07)"
   sodipodi:docname="springTorqueA.svg"
   xmlns:inkscape="http://www.inkscape.org/namespaces/inkscape"
   xmlns:sodipodi="http://sodipodi.sourceforge.net/DTD/sodipodi-0.dtd"
   xmlns="http://www.w3.org/2000/svg"
   xmlns:svg="http://www.w3.org/2000/svg">
  <sodipodi:namedview
     id="namedview1"
     pagecolor="#ffffff"
     bordercolor="#000000"
     borderopacity="0.25"
     inkscape:showpageshadow="2"
     inkscape:pageopacity="0.0"
     inkscape:pagecheckerboard="0"
     inkscape:deskcolor="#d1d1d1"
     inkscape:document-units="px"
     inkscape:zoom="1.1099335"
     inkscape:cx="270.28647"
     inkscape:cy="265.33122"
     inkscape:window-width="1854"
     inkscape:window-height="1131"
     inkscape:window-x="0"
     inkscape:window-y="0"
     inkscape:window-maximized="1"
     inkscape:current-layer="layer1" />
  <defs
     id="defs1">
    <rect
       x="12.104355"
       y="17.837997"
       width="208.9594"
       height="33.76478"
       id="rect1" />
  </defs>
  <g
     inkscape:label="Layer 1"
     inkscape:groupmode="layer"
     id="layer1">
    <circle
       style="fill:#aa0000;stroke:#aa0000;stroke-width:0.264583;stroke-linejoin:round"
       id="path1-3"
       cx="70.541641"
       cy="95.788261"
       r="38.262768" />
    <circle
       style="fill:#ffffff;stroke:#aa0000;stroke-width:0.264583;stroke-linejoin:round"
       id="path1"
       cx="70.541641"
       cy="95.788261"
       r="35.90295" />
    <circle
       style="fill:#aa0000;stroke:#aa0000;stroke-width:0.264583;stroke-linejoin:round"
       id="path1-3-2"
       cx="70.541641"
       cy="95.788261"
       r="13.316116" />
    <text
       xml:space="preserve"
       transform="scale(0.26458333)"
       id="text1"
       style="font-size:16px;line-height:normal;font-family:'Liberation Mono';-inkscape-font-specification:'Liberation Mono';text-decoration-color:#000000;white-space:pre;shape-inside:url(#rect1);display:inline;fill:#000000;stroke-width:1;-inkscape-stroke:none;stop-color:#000000"><tspan
         x="12.103516"
         y="32.074332"
         id="tspan2">springTorqueA.svg</tspan></text>
    <circle
       style="fill:#ffffff;stroke:#aa0000;stroke-width:0.264583;stroke-linejoin:round"
       id="path1-1"
       cx="70.541641"
       cy="95.788261"
       r="10.640715" />
    <path
       style="fill:none;stroke:#aa0000;stroke-width:2.64583;stroke-linejoin:round;stroke-dasharray:none"
       d="m 70.541641,59.885313 c 0,0 -0.197374,2.084678 -0.08428,3.118334 0.06299,0.575718 -0.0069,1.295747 0.421395,1.685586 0.966689,0.879872 2.571433,0.522384 3.876844,0.589955 1.769501,0.09159 3.579454,-0.635127 5.309592,-0.252838 1.300608,0.287381 2.868068,0.703906 3.539728,1.854141 0.453538,0.776696 0.533567,2.043319 -0.08428,2.696938 -1.104225,1.168158 -3.197598,0.481846 -4.803915,0.421394 -1.906086,-0.07173 -3.74185,-0.827956 -5.646708,-0.927071 -3.34433,-0.174014 -6.769197,-0.176227 -10.029227,0.589955 -1.813439,0.4262 -4.457146,0.458487 -5.141034,2.19126 -0.484844,1.228456 0.420798,3.03191 1.601306,3.624006 3.039738,1.524612 6.544671,-2.326235 9.944947,-2.275538 2.786574,0.04155 6.322451,-0.047 8.090805,2.10698 0.607126,0.739523 0.829147,2.173307 0.16856,2.865493 -1.609944,1.686954 -5.246681,-1.627167 -6.995176,-0.08428 -1.123559,0.991438 -0.505674,4.466799 -0.505674,4.466799"
       id="path2"
       sodipodi:nodetypes="caaaaaaaaaaaaaaac" />
    <path
       style="fill:none;stroke:#aa0000;stroke-width:2.64583;stroke-linejoin:round;stroke-dasharray:none"
       d="m 70.541642,131.69121 c 0,0 0.19738,-2.08468 0.0843,-3.11833 -0.063,-0.57572 0.007,-1.29575 -0.42139,-1.68559 -0.96669,-0.87987 -2.57143,-0.52238 -3.87685,-0.58995 -1.7695,-0.0916 -3.57945,0.63512 -5.30959,0.25283 -1.30061,-0.28738 -2.86807,-0.7039 -3.53973,-1.85414 -0.45353,-0.77669 -0.53356,-2.04332 0.0843,-2.69693 1.10423,-1.16816 3.1976,-0.48185 4.80392,-0.4214 1.90609,0.0717 3.74185,0.82796 5.64671,0.92707 3.34433,0.17402 6.76919,0.17623 10.02922,-0.58995 1.81344,-0.4262 4.45715,-0.45849 5.14104,-2.19126 0.48484,-1.22846 -0.4208,-3.03191 -1.60131,-3.62401 -3.03974,-1.52461 -6.54467,2.32624 -9.94495,2.27554 -2.78657,-0.0416 -6.32245,0.047 -8.0908,-2.10698 -0.60713,-0.73952 -0.82915,-2.17331 -0.16856,-2.86549 1.60994,-1.68696 5.24668,1.62716 6.99518,0.0843 1.12356,-0.99144 0.50567,-4.4668 0.50567,-4.4668"
       id="path2-6"
       sodipodi:nodetypes="caaaaaaaaaaaaaaac" />
    <path
       style="fill:none;stroke:#aa0000;stroke-width:2.64583;stroke-linejoin:round;stroke-dasharray:none"
       d="m 34.638692,95.788263 c 0,0 2.08468,0.19737 3.11833,0.0843 0.57572,-0.063 1.29575,0.007 1.68559,-0.42139 0.87987,-0.96669 0.52238,-2.57144 0.58996,-3.87685 0.0916,-1.769502 -0.63513,-3.579452 -0.25284,-5.309592 0.28738,-1.30061 0.7039,-2.86807 1.85414,-3.53973 0.7767,-0.45354 2.04332,-0.53357 2.69694,0.0843 1.16816,1.10423 0.48185,3.1976 0.4214,4.80392 -0.0717,1.90608 -0.82796,3.741852 -0.92708,5.646702 -0.17401,3.34433 -0.17622,6.769197 0.58996,10.029227 0.4262,1.81344 0.45849,4.45715 2.19126,5.14104 1.22846,0.48484 3.03191,-0.4208 3.62401,-1.60131 1.52461,-3.03974 -2.32624,-6.54467 -2.27554,-9.944947 0.0416,-2.78657 -0.047,-6.32245 2.10698,-8.090802 0.73952,-0.60713 2.1733,-0.82915 2.86549,-0.16856 1.68695,1.609942 -1.62717,5.246682 -0.0843,6.995172 0.99144,1.12356 4.4668,0.50568 4.4668,0.50568"
       id="path2-1"
       sodipodi:nodetypes="caaaaaaaaaaaaaaac" />
    <path
       style="fill:none;stroke:#aa0000;stroke-width:2.64583;stroke-linejoin:round;stroke-dasharray:none"
       d="m 106.44459,95.788263 c 0,0 -2.08468,-0.19737 -3.11834,-0.0843 -0.57572,0.063 -1.29574,-0.007 -1.68558,0.4214 -0.87988,0.96669 -0.52239,2.57143 -0.58996,3.876837 -0.0916,1.7695 0.63513,3.57946 0.25284,5.30959 -0.28738,1.30061 -0.70391,2.86807 -1.854138,3.53973 -0.7767,0.45354 -2.04332,0.53357 -2.69694,-0.0843 -1.16816,-1.10422 -0.48185,-3.1976 -0.42139,-4.80391 0.0717,-1.90609 0.82795,-3.74185 0.92707,-5.646707 0.17401,-3.34433 0.17622,-6.7692 -0.58996,-10.02923 -0.4262,-1.81344 -0.45848,-4.45714 -2.19126,-5.14103 -1.22845,-0.48485 -3.03191,0.4208 -3.624,1.6013 -1.52462,3.03974 2.32623,6.54467 2.27553,9.94495 -0.0416,2.78658 0.047,6.322447 -2.10698,8.090807 -0.73952,0.60712 -2.1733,0.82914 -2.86549,0.16856 -1.68695,-1.60995 1.62717,-5.246677 0.0843,-6.995177 -0.99144,-1.12356 -4.4668,-0.50567 -4.4668,-0.50567"
       id="path2-0"
       sodipodi:nodetypes="caaaaaaaaaaaaaaac" />
  </g>
</svg>
