<?xml version="1.0" encoding="UTF-8" standalone="no"?>
<!-- Created with Inkscape (http://www.inkscape.org/) -->

<svg
   width="600"
   height="3000"
   viewBox="0 0 158.75 793.75"
   version="1.1"
   id="svg1"
   inkscape:version="1.4.1 (1:1.4.1+202503302257+93de688d07)"
   sodipodi:docname="src_springTorqueB.svg"
   xmlns:inkscape="http://www.inkscape.org/namespaces/inkscape"
   xmlns:sodipodi="http://sodipodi.sourceforge.net/DTD/sodipodi-0.dtd"
   xmlns="http://www.w3.org/2000/svg"
   xmlns:svg="http://www.w3.org/2000/svg">
  <sodipodi:namedview
     id="namedview1"
     pagecolor="#ffffff"
     bordercolor="#000000"
     borderopacity="0.25"
     inkscape:showpageshadow="2"
     inkscape:pageopacity="0.0"
     inkscape:pagecheckerboard="0"
     inkscape:deskcolor="#d1d1d1"
     inkscape:document-units="px"
     inkscape:zoom="2.2198669"
     inkscape:cx="391.91539"
     inkscape:cy="249.78975"
     inkscape:window-width="1854"
     inkscape:window-height="1131"
     inkscape:window-x="0"
     inkscape:window-y="0"
     inkscape:window-maximized="1"
     inkscape:current-layer="layer1" />
  <defs
     id="defs1">
    <rect
       x="19.11214"
       y="19.11214"
       width="221.70082"
       height="52.239849"
       id="rect1" />
  </defs>
  <g
     inkscape:label="Layer 1"
     inkscape:groupmode="layer"
     id="layer1">
    <text
       xml:space="preserve"
       transform="scale(0.26458333)"
       id="text1"
       style="font-size:16px;line-height:normal;font-family:'Liberation Mono';-inkscape-font-specification:'Liberation Mono';text-decoration-color:#000000;white-space:pre;shape-inside:url(#rect1);display:inline;fill:#000000;stroke-width:1;-inkscape-stroke:none;stop-color:#000000"><tspan
         x="19.111328"
         y="33.347769"
         id="tspan1">src_springTorqueB.svg</tspan></text>
    <circle
       style="fill:none;stroke:#88aa00;stroke-width:0.264583;stroke-linejoin:round"
       id="path3"
       cx="129.4529"
       cy="91.021553"
       r="4.7196364" />
    <circle
       style="fill:none;stroke:#88aa00;stroke-width:0.264583;stroke-linejoin:round"
       id="path3-3"
       cx="73.436737"
       cy="36.69099"
       r="4.7196364" />
    <circle
       style="fill:none;stroke:#88aa00;stroke-width:0.264583;stroke-linejoin:round"
       id="path3-1"
       cx="20.882734"
       cy="88.596252"
       r="4.7196364" />
    <circle
       style="fill:none;stroke:#88aa00;stroke-width:0.264583;stroke-linejoin:round"
       id="path3-36"
       cx="77.278511"
       cy="144.31123"
       r="4.7196364" />
    <circle
       style="fill:none;stroke:#88aa00;stroke-width:0.264583;stroke-linejoin:round"
       id="path3-18"
       cx="37.132759"
       cy="51.805187"
       r="4.7196364" />
    <circle
       style="fill:none;stroke:#88aa00;stroke-width:0.264583;stroke-linejoin:round"
       id="path3-18-2"
       cx="113.40279"
       cy="51.935455"
       r="4.7196364" />
    <circle
       style="fill:none;stroke:#88aa00;stroke-width:0.264583;stroke-linejoin:round"
       id="path3-18-22"
       cx="114.50978"
       cy="128.01259"
       r="4.7196364" />
    <circle
       style="fill:none;stroke:#88aa00;stroke-width:0.264583;stroke-linejoin:round"
       id="path3-18-6"
       cx="35.350765"
       cy="126.30559"
       r="4.7196364" />
    <circle
       style="fill:none;stroke:#88aa00;stroke-width:0.264583;stroke-linejoin:round"
       id="path1-1"
       cx="75.177078"
       cy="90.347343"
       r="61.692398" />
    <circle
       style="fill:none;stroke:#88aa00;stroke-width:0.264583;stroke-linejoin:round"
       id="path1-4"
       cx="75.177078"
       cy="90.347336"
       r="46.522137" />
    <path
       style="fill:#eeffaa;stroke:#eeffaa;stroke-width:0.999999;stroke-linejoin:round"
       d="M 265.40592,572.63897 C 179.4078,566.02368 102.52071,509.67215 69.517715,429.07 37.433523,350.71181 50.875484,260.8624 104.54427,194.94383 c 8.74435,-10.74024 28.1892,-29.64329 39.03574,-37.94807 67.9775,-52.04777 162.50659,-62.040687 239.28234,-25.29515 61.70047,29.53039 106.87183,83.33273 124.87442,148.73443 22.29531,80.99677 -1.49487,168.06518 -61.95699,226.75307 -40.49498,39.30665 -88.90358,61.16875 -145.08211,65.52136 -17.47944,1.35427 -16.7509,1.35574 -35.29175,-0.0705 z m 38.58072,-12.73331 c 7.23035,-6.75495 8.97162,-16.26266 4.36276,-23.82178 -7.49114,-12.28646 -26.2733,-12.31218 -32.64144,-0.0447 -4.5354,8.73696 -1.66285,20.37198 6.25796,25.34726 5.81519,3.65268 17.35669,2.87656 22.02072,-1.48079 z m 9.54646,-44.00805 c 24.26578,-4.12442 46.88679,-13.01105 67.23092,-26.41157 40.32535,-26.56199 66.6025,-65.32278 76.85973,-113.37389 3.94954,-18.50201 3.94954,-50.78183 0,-69.28383 -7.50261,-35.14677 -23.26322,-64.7392 -47.57585,-89.32929 -34.41673,-34.80952 -76.84106,-52.49756 -125.91409,-52.49756 -49.13658,0 -91.30409,17.59693 -125.91377,52.54509 -24.33456,24.57254 -40.06411,54.09073 -47.57617,89.28176 -3.94953,18.502 -3.94953,50.78182 0,69.28383 10.70488,50.14815 40.35944,91.92553 83.73606,117.96745 16.10462,9.66869 39.89213,18.35682 59.81153,21.8455 14.28597,2.50203 44.5418,2.48803 59.34164,-0.0275 z m 128.53569,-15.91672 c 6.07866,-3.41639 9.19007,-8.73942 9.19007,-15.72243 0,-11.08396 -7.28835,-18.78753 -17.92672,-18.94802 -7.53866,-0.11378 -13.62854,3.24068 -16.86192,9.28783 -8.96107,16.75915 9.09194,34.65987 25.59857,25.38262 z m -299.34493,-6.08241 c 6.33303,-3.39513 10.71992,-12.2739 9.53364,-19.29544 -1.16202,-6.87792 -7.04513,-13.5699 -13.4446,-15.2931 -13.17419,-3.54744 -25.56636,7.17595 -23.76997,20.569 1.76913,13.18986 15.88906,20.34117 27.68093,14.01954 z M 499.59404,359.60137 c 4.99208,-3.33494 8.78492,-10.06273 8.78492,-15.58285 0,-5.52012 -3.79284,-12.24791 -8.78492,-15.58286 -9.07325,-6.06131 -22.26204,-2.50938 -27.20367,7.32633 -6.27058,12.48082 2.72847,26.7316 16.88041,26.7316 4.11051,0 7.35423,-0.90877 10.32326,-2.89222 z M 87.130286,351.80753 c 6.43453,-2.68852 10.203507,-8.86643 10.278731,-16.84836 0.105086,-11.15047 -7.286258,-18.62875 -18.412172,-18.62875 -7.163425,0 -11.129455,2.10953 -15.848055,8.42959 -3.643288,4.87978 -3.637067,15.78351 0.01185,20.75775 5.34359,7.28446 15.322212,9.9029 23.969652,6.28977 z M 148.98412,212.46131 c 5.76454,-2.93941 9.03435,-7.6124 9.91362,-14.1679 2.44827,-18.2532 -20.38172,-28.71757 -32.51182,-14.90214 -5.5241,6.29159 -6.40853,13.33598 -2.6024,20.72771 5.0171,9.74351 15.58924,13.24328 25.2006,8.34233 z m 289.99052,-0.33664 c 5.78127,-3.57302 8.69152,-10.22051 7.93256,-18.11923 -0.85868,-8.93636 -7.00931,-15.08699 -15.94566,-15.94566 -12.18789,-1.1711 -20.6876,6.24629 -20.6876,18.05332 0,7.40647 2.71345,12.84444 8.02525,16.08324 5.49503,3.35051 15.19263,3.3169 20.67545,-0.0717 z M 286.63875,155.12489 c 5.91297,-2.98285 9.45241,-9.38747 9.45241,-17.10416 0,-10.43356 -7.93655,-17.82661 -19.1371,-17.82661 -13.57151,0 -22.27631,14.59378 -16.07137,26.94396 4.67586,9.30672 16.11059,12.85256 25.75606,7.98681 z"
       id="path4"
       transform="scale(0.26458333)" />
    <circle
       style="fill:none;stroke:#cccccc;stroke-width:0.264583;stroke-linejoin:round"
       id="path1"
       cx="75.177078"
       cy="90.001984"
       r="54.275826" />
    <circle
       style="fill:none;stroke:#88aa00;stroke-width:0.264583;stroke-linejoin:round"
       id="path3-10"
       cx="91.241776"
       cy="90.787437"
       r="1.3974065" />
    <circle
       style="fill:none;stroke:#88aa00;stroke-width:0.264583;stroke-linejoin:round"
       id="path3-3-6"
       cx="74.656311"
       cy="74.701057"
       r="1.3974065" />
    <circle
       style="fill:none;stroke:#88aa00;stroke-width:0.264583;stroke-linejoin:round"
       id="path3-1-3"
       cx="59.09594"
       cy="90.069359"
       r="1.3974065" />
    <circle
       style="fill:none;stroke:#88aa00;stroke-width:0.264583;stroke-linejoin:round"
       id="path3-36-2"
       cx="75.793808"
       cy="106.56565"
       r="1.3974065" />
    <circle
       style="fill:none;stroke:#88aa00;stroke-width:0.264583;stroke-linejoin:round"
       id="path3-18-0"
       cx="63.90731"
       cy="79.176125"
       r="1.3974065" />
    <circle
       style="fill:none;stroke:#88aa00;stroke-width:0.264583;stroke-linejoin:round"
       id="path3-18-2-6"
       cx="86.489609"
       cy="79.214699"
       r="1.3974065" />
    <circle
       style="fill:none;stroke:#88aa00;stroke-width:0.264583;stroke-linejoin:round"
       id="path3-18-22-1"
       cx="86.817368"
       cy="101.73988"
       r="1.3974065" />
    <circle
       style="fill:none;stroke:#88aa00;stroke-width:0.264583;stroke-linejoin:round"
       id="path3-18-6-5"
       cx="63.379692"
       cy="101.23447"
       r="1.3974065" />
    <circle
       style="fill:none;stroke:#88aa00;stroke-width:0.264583;stroke-linejoin:round"
       id="path1-1-5"
       cx="75.1716"
       cy="90.587822"
       r="18.266102" />
    <circle
       style="fill:none;stroke:#88aa00;stroke-width:0.264583;stroke-linejoin:round"
       id="path1-4-4"
       cx="75.1716"
       cy="90.587822"
       r="13.774437" />
    <path
       style="fill:#eeffaa;stroke:#eeffaa;stroke-width:0.264583;stroke-linejoin:round"
       d="m 73.70448,108.6973 c -6.73699,-0.51824 -12.76022,-4.93275 -15.34564,-11.247022 -2.51343,-6.13848 -1.46041,-13.17717 2.74394,-18.34115 0.68502,-0.84138 2.20831,-2.32222 3.05801,-2.972815 5.32527,-4.07735 12.73057,-4.86018 18.74508,-1.98158 4.83354,2.31337 8.37221,6.528185 9.78251,11.651675 1.746591,6.34518 -0.11711,13.16601 -4.85363,17.763552 -3.17233,3.07923 -6.9646,4.79188 -11.36556,5.13286 -1.36931,0.10609 -1.31224,0.10621 -2.76471,-0.006 z m 3.02237,-0.99751 c 0.56641,-0.52918 0.70282,-1.274 0.34177,-1.86617 -0.58685,-0.96251 -2.05822,-0.96452 -2.55709,-0.004 -0.3553,0.68445 -0.13026,1.59592 0.49024,1.98568 0.45556,0.28614 1.3597,0.22534 1.72508,-0.11601 z m 0.74785,-3.44754 c 1.90096,-0.3231 3.67306,-1.01927 5.26679,-2.06905 3.15904,-2.08083 5.21756,-5.117302 6.0211,-8.881572 0.3094,-1.44942 0.3094,-3.97818 0,-5.42761 -0.58775,-2.75335 -1.82242,-5.07159 -3.72703,-6.99794 -2.69617,-2.72694 -6.01964,-4.1126 -9.86396,-4.1126 -3.8493,0 -7.15265,1.37852 -9.86393,4.11632 -1.90634,1.92498 -3.13857,4.2374 -3.72706,6.99422 -0.3094,1.44943 -0.3094,3.97819 0,5.42761 0.83861,3.92855 3.16171,7.201332 6.55978,9.241432 1.26162,0.75743 3.1251,1.43804 4.68556,1.71134 1.11915,0.19601 3.48935,0.19491 4.64875,-0.002 z m 10.06933,-1.2469 c 0.47619,-0.26763 0.71994,-0.68463 0.71994,-1.23167 0,-0.86831 -0.57096,-1.47179 -1.40436,-1.48436 -0.59057,-0.009 -1.06764,0.25387 -1.32094,0.72759 -0.702,1.31289 0.71225,2.71521 2.00536,1.98844 z m -23.45031,-0.47649 c 0.49612,-0.26596 0.83978,-0.96151 0.74685,-1.51158 -0.091,-0.5388 -0.5519,-1.063037 -1.05323,-1.198037 -1.03205,-0.2779 -2.00284,0.562157 -1.86211,1.611347 0.13859,1.03328 1.24473,1.5935 2.16849,1.09827 z M 92.05049,92.008198 c 0.39107,-0.26126 0.6882,-0.7883 0.6882,-1.22074 0,-0.43244 -0.29713,-0.95949 -0.6882,-1.22075 -0.71079,-0.47483 -1.74398,-0.19658 -2.1311,0.57394 -0.49123,0.97773 0.21374,2.09412 1.32239,2.09412 0.32201,0 0.57612,-0.0712 0.80871,-0.22657 z m -32.3119,-0.61056 c 0.50407,-0.21062 0.79933,-0.69459 0.80522,-1.31988 0.008,-0.87352 -0.57079,-1.45935 -1.44238,-1.45935 -0.56118,0 -0.87187,0.16525 -1.24152,0.66036 -0.28541,0.38227 -0.28492,1.23646 9.2e-4,1.62613 0.41861,0.57066 1.20032,0.77579 1.87775,0.49274 z m 4.84555,-10.91621 c 0.45159,-0.23027 0.70774,-0.59635 0.77662,-1.1099 0.1918,-1.42993 -1.59668,-2.2497 -2.54693,-1.16741 -0.43275,0.49287 -0.50204,1.04472 -0.20387,1.62378 0.39303,0.76329 1.22124,1.03746 1.97418,0.65353 z m 22.7175,-0.0264 c 0.4529,-0.27991 0.68088,-0.80067 0.62143,-1.41944 -0.0673,-0.70007 -0.5491,-1.1819 -1.24917,-1.24916 -0.95478,-0.0917 -1.62064,0.48932 -1.62064,1.41427 0,0.58022 0.21257,1.00622 0.62869,1.25994 0.43047,0.26248 1.19017,0.25984 1.61969,-0.006 z M 75.36783,75.989723 c 0.46322,-0.23367 0.74049,-0.7354 0.74049,-1.33992 0,-0.81735 -0.62174,-1.39651 -1.49917,-1.39651 -1.06318,0 -1.7451,1.14326 -1.25901,2.11076 0.3663,0.72908 1.26208,1.00685 2.01769,0.62567 z"
       id="path4-7" />
    <circle
       style="fill:none;stroke:#cccccc;stroke-width:0.264583;stroke-linejoin:round"
       id="path1-6"
       cx="75.1716"
       cy="90.485565"
       r="16.070177" />
    <path
       style="fill:#eeffaa;stroke:#cccccc;stroke-width:0.264583;stroke-linejoin:round"
       d="M 75.171601,90.415249 H 145.88712"
       id="path5" />
    <path
       style="fill:#eeffaa;stroke:#cccccc;stroke-width:0.264583;stroke-linejoin:round"
       d="M 75.171601,90.415249 123.83719,22.407499"
       id="path6" />
    <path
       style="fill:none;stroke:#aad400;stroke-width:1.5875;stroke-linejoin:round"
       d="m 93.437701,90.587821 h 21.751119 c 0,0 1.97315,-0.569291 2.56256,-1.330082 0.43386,-0.560024 0.59042,-1.371865 0.47676,-2.071113 -0.13448,-0.827239 -0.64247,-1.640066 -1.31108,-2.145398 -0.70749,-0.534713 -2.56256,-0.715134 -2.56256,-0.715134 H 99.598753 c 0,0 -1.111637,-0.02257 -1.609042,-0.238376 -0.527154,-0.22871 -1.003287,-0.614066 -1.349487,-1.072701 -0.362912,-0.480776 -0.669851,-1.066745 -0.693753,-1.668642 -0.02965,-0.746654 0.187752,-1.581828 0.693753,-2.131676 0.633257,-0.68813 2.586602,-1.086425 2.586602,-1.086425 h 13.646804 c 0,0 1.49142,-0.529866 2.03159,-1.072697 0.3635,-0.365293 0.65993,-0.858299 0.71513,-1.370671 0.0728,-0.675572 -0.20514,-1.373328 -0.53635,-1.966617 -0.34018,-0.609335 -0.79006,-1.251104 -1.43026,-1.528863 -0.36447,-0.158131 -1.19189,0 -1.19189,0 v 0 H 94.337955 c 0,0 -1.98801,-0.139364 -2.624817,-0.795319 -0.301052,-0.310105 -0.282062,-0.823059 -0.339072,-1.251484 -0.05503,-0.413516 -0.116623,-0.850955 0,-1.251482 0.197473,-0.678192 0.613516,-1.314247 1.137593,-1.787832 0.393982,-0.356024 1.4235,-0.715134 1.4235,-0.715134 h 10.986931 c 0,0 1.06278,-0.05515 1.51211,-0.305154 0.59271,-0.329781 1.09525,-0.873561 1.39365,-1.482678 0.1681,-0.343143 0.26671,-0.760441 0.17878,-1.132292 -0.2073,-0.876619 -0.7999,-1.734539 -1.57243,-2.197812 -0.53908,-0.323273 -1.86968,-0.24556 -1.86968,-0.24556 l -1.76416,0.178785 c 0,0 -2.00634,0.04757 -2.56256,-0.297974 -0.556219,-0.345548 -1.504533,-0.899034 -1.686915,-1.668643 -0.229212,-0.96722 0.95351,-2.825473 0.95351,-2.825473 l 3.010285,-3.706633"
       id="path7"
       sodipodi:nodetypes="ccaaaccaaaaccaaaacccaaaaccaaaacczacc" />
    <circle
       style="fill:none;stroke:#cccccc;stroke-width:0.264583;stroke-linejoin:round"
       id="path1-7"
       cx="75.177078"
       cy="90.531151"
       r="22.809975" />
    <circle
       style="fill:none;stroke:#cccccc;stroke-width:0.264582;stroke-linejoin:round"
       id="path1-7-4"
       cx="75.177078"
       cy="90.531151"
       r="43.072075" />
    <path
       style="fill:none;stroke:#cccccc;stroke-width:0.26458333;stroke-linejoin:round"
       d="M 75.171601,90.415249 110.52936,18.116702"
       id="path8" />
    <path
       style="fill:none;stroke:#cccccc;stroke-width:0.264583;stroke-linejoin:round"
       d="M 75.171601,90.415249 145.17199,102.74077"
       id="path9" />
    <circle
       style="fill:none;stroke:#666666;stroke-width:0.264583;stroke-linejoin:round"
       id="path10"
       cx="114.77885"
       cy="87.417824"
       r="3.0989099" />
    <circle
       style="fill:none;stroke:#666666;stroke-width:0.264583;stroke-linejoin:round"
       id="path10-0"
       cx="99.217636"
       cy="81.300972"
       r="3.0989099" />
    <circle
       style="fill:none;stroke:#666666;stroke-width:0.264583;stroke-linejoin:round"
       id="path10-0-8"
       cx="101.3343"
       cy="81.300972"
       r="3.0989099" />
    <path
       style="fill:#668000;stroke:#668000;stroke-width:1;stroke-linejoin:round"
       d="m 370.26105,314.02719 c -1.64458,-1.11752 -3.64388,-3.77158 -4.22837,-5.61315 -0.53328,-1.68024 0.1637,-4.89868 1.37178,-6.3344 1.05611,-1.25512 4.89718,-3.13075 5.39399,-2.63394 0.12842,0.12842 -0.21516,0.99392 -0.76352,1.92332 -0.71955,1.21954 -1.05299,2.65662 -1.19812,5.1637 -0.19805,3.42113 0.002,4.22279 2.06045,8.2384 0.36328,0.70884 -1.11018,0.29303 -2.63621,-0.74393 z"
       id="path11"
       transform="scale(0.26458333)" />
  </g>
</svg>
