<?xml version="1.0" encoding="UTF-8" standalone="no"?>
<!-- Created with Inkscape (http://www.inkscape.org/) -->

<svg
   width="600"
   height="3000"
   viewBox="0 0 158.75 793.75"
   version="1.1"
   id="svg1"
   inkscape:version="1.4.1 (1:1.4.1+202503302257+93de688d07)"
   sodipodi:docname="src_springTorqueB.svg"
   xmlns:inkscape="http://www.inkscape.org/namespaces/inkscape"
   xmlns:sodipodi="http://sodipodi.sourceforge.net/DTD/sodipodi-0.dtd"
   xmlns="http://www.w3.org/2000/svg"
   xmlns:svg="http://www.w3.org/2000/svg">
  <sodipodi:namedview
     id="namedview1"
     pagecolor="#ffffff"
     bordercolor="#000000"
     borderopacity="0.25"
     inkscape:showpageshadow="2"
     inkscape:pageopacity="0.0"
     inkscape:pagecheckerboard="0"
     inkscape:deskcolor="#d1d1d1"
     inkscape:document-units="px"
     inkscape:zoom="1.1099335"
     inkscape:cx="296.86463"
     inkscape:cy="259.92548"
     inkscape:window-width="1854"
     inkscape:window-height="1131"
     inkscape:window-x="0"
     inkscape:window-y="0"
     inkscape:window-maximized="1"
     inkscape:current-layer="layer1" />
  <defs
     id="defs1">
    <rect
       x="324.34377"
       y="694.63624"
       width="177.48812"
       height="55.859205"
       id="rect46" />
    <rect
       x="77.722702"
       y="853.67558"
       width="103.20556"
       height="81.54513"
       id="rect43" />
    <rect
       x="174.55754"
       y="591.2022"
       width="89.189986"
       height="155.4454"
       id="rect42" />
    <rect
       x="38.22428"
       y="519.85021"
       width="68.803704"
       height="86.00463"
       id="rect40" />
    <rect
       x="400.71787"
       y="577.8237"
       width="50.328635"
       height="40.772565"
       id="rect38" />
    <rect
       x="421.74122"
       y="570.81591"
       width="45.869136"
       height="38.861351"
       id="rect36" />
    <rect
       x="447.22407"
       y="554.25206"
       width="39.498423"
       height="41.409637"
       id="rect35" />
    <rect
       x="231.25689"
       y="458.69136"
       width="35.038923"
       height="35.038923"
       id="rect34" />
    <rect
       x="167.12714"
       y="81.53642"
       width="36.038197"
       height="25.226738"
       id="rect32" />
    <rect
       x="165.32523"
       y="72.526871"
       width="34.686764"
       height="29.731512"
       id="rect31" />
    <rect
       x="234.69876"
       y="63.066844"
       width="50.002998"
       height="31.9839"
       id="rect30" />
    <rect
       x="148.65756"
       y="80.184988"
       width="59.012547"
       height="37.840107"
       id="rect29" />
    <rect
       x="505.43571"
       y="147.75661"
       width="70.274484"
       height="45.498223"
       id="rect28" />
    <rect
       x="498.22807"
       y="114.42127"
       width="45.498223"
       height="36.488674"
       id="rect27" />
    <rect
       x="154.51377"
       y="68.022096"
       width="55.408727"
       height="30.18199"
       id="rect26" />
    <rect
       x="174.33478"
       y="70.274484"
       width="38.290584"
       height="32.884854"
       id="rect25" />
    <rect
       x="154.06329"
       y="81.53642"
       width="44.597268"
       height="28.830557"
       id="rect24" />
    <rect
       x="173.8843"
       y="67.121141"
       width="45.047746"
       height="27.479125"
       id="rect23" />
    <rect
       x="519.21314"
       y="159.26783"
       width="28.986746"
       height="26.119925"
       id="rect22" />
    <marker
       style="overflow:visible"
       id="ArrowWide"
       refX="0"
       refY="0"
       orient="auto-start-reverse"
       inkscape:stockid="Wide arrow"
       markerWidth="1"
       markerHeight="1"
       viewBox="0 0 1 1"
       inkscape:isstock="true"
       inkscape:collect="always"
       preserveAspectRatio="xMidYMid">
      <path
         style="fill:none;stroke:context-stroke;stroke-width:1;stroke-linecap:butt"
         d="M 3,-3 0,0 3,3"
         transform="rotate(180,0.125,0)"
         sodipodi:nodetypes="ccc"
         id="path12" />
    </marker>
    <rect
       x="19.11214"
       y="19.11214"
       width="221.70082"
       height="52.239849"
       id="rect1" />
    <marker
       style="overflow:visible"
       id="ArrowWide-1"
       refX="0"
       refY="0"
       orient="auto-start-reverse"
       inkscape:stockid="Wide arrow"
       markerWidth="1"
       markerHeight="1"
       viewBox="0 0 1 1"
       inkscape:isstock="true"
       inkscape:collect="always"
       preserveAspectRatio="xMidYMid">
      <path
         style="fill:none;stroke:context-stroke;stroke-width:1;stroke-linecap:butt"
         d="M 3,-3 0,0 3,3"
         transform="rotate(180,0.125,0)"
         sodipodi:nodetypes="ccc"
         id="path12-9" />
    </marker>
    <marker
       style="overflow:visible"
       id="ArrowWide-6"
       refX="0"
       refY="0"
       orient="auto-start-reverse"
       inkscape:stockid="Wide arrow"
       markerWidth="1"
       markerHeight="1"
       viewBox="0 0 1 1"
       inkscape:isstock="true"
       inkscape:collect="always"
       preserveAspectRatio="xMidYMid">
      <path
         style="fill:none;stroke:context-stroke;stroke-width:1;stroke-linecap:butt"
         d="M 3,-3 0,0 3,3"
         transform="rotate(180,0.125,0)"
         sodipodi:nodetypes="ccc"
         id="path12-1" />
    </marker>
    <marker
       style="overflow:visible"
       id="ArrowWide-61"
       refX="0"
       refY="0"
       orient="auto-start-reverse"
       inkscape:stockid="Wide arrow"
       markerWidth="1"
       markerHeight="1"
       viewBox="0 0 1 1"
       inkscape:isstock="true"
       inkscape:collect="always"
       preserveAspectRatio="xMidYMid">
      <path
         style="fill:none;stroke:context-stroke;stroke-width:1;stroke-linecap:butt"
         d="M 3,-3 0,0 3,3"
         transform="rotate(180,0.125,0)"
         sodipodi:nodetypes="ccc"
         id="path12-5" />
    </marker>
    <marker
       style="overflow:visible"
       id="ArrowWide-6-5"
       refX="0"
       refY="0"
       orient="auto-start-reverse"
       inkscape:stockid="Wide arrow"
       markerWidth="1"
       markerHeight="1"
       viewBox="0 0 1 1"
       inkscape:isstock="true"
       inkscape:collect="always"
       preserveAspectRatio="xMidYMid">
      <path
         style="fill:none;stroke:context-stroke;stroke-width:1;stroke-linecap:butt"
         d="M 3,-3 0,0 3,3"
         transform="rotate(180,0.125,0)"
         sodipodi:nodetypes="ccc"
         id="path12-1-4" />
    </marker>
    <marker
       style="overflow:visible"
       id="ArrowWide-9"
       refX="0"
       refY="0"
       orient="auto-start-reverse"
       inkscape:stockid="Wide arrow"
       markerWidth="1"
       markerHeight="1"
       viewBox="0 0 1 1"
       inkscape:isstock="true"
       inkscape:collect="always"
       preserveAspectRatio="xMidYMid">
      <path
         style="fill:none;stroke:context-stroke;stroke-width:1;stroke-linecap:butt"
         d="M 3,-3 0,0 3,3"
         transform="rotate(180,0.125,0)"
         sodipodi:nodetypes="ccc"
         id="path12-2" />
    </marker>
    <rect
       x="174.55754"
       y="591.20221"
       width="89.189987"
       height="155.4454"
       id="rect42-6" />
    <rect
       x="174.55754"
       y="591.20221"
       width="89.189987"
       height="155.4454"
       id="rect42-6-7" />
  </defs>
  <g
     inkscape:label="Layer 1"
     inkscape:groupmode="layer"
     id="layer1">
    <rect
       style="fill:#ffffff;stroke:#ffffff;stroke-width:0.264583;stroke-linejoin:round"
       id="rect45"
       width="143.0266"
       height="173.53893"
       x="10.011862"
       y="31.465851"
       inkscape:export-filename="springTorqueB_profile.svg"
       inkscape:export-xdpi="96"
       inkscape:export-ydpi="96" />
    <path
       style="fill:#eeffaa;stroke:#eeffaa;stroke-width:0.264583;stroke-linejoin:round"
       d="m 74.249998,122.49716 c -3.867221,-0.26521 -7.494603,-2.23331 -9.81883,-5.32738 -2.371709,-3.1573 -3.238166,-7.03592 -2.43795,-10.91326 0.409115,-1.9823 1.393219,-4.04256 2.717818,-5.68985 1.546236,-1.922904 3.777562,-3.473098 6.167795,-4.285012 5.484225,-1.862883 11.594346,0.04305 15.085981,4.705792 0.502626,0.67121 0.848825,1.23562 1.266936,2.06547 1.667137,3.30891 1.876779,7.17523 0.579236,10.68246 -0.652126,1.76268 -1.66697,3.35916 -2.997404,4.7153 -0.764839,0.77961 -1.398783,1.30357 -2.262079,1.86962 -2.468832,1.61877 -5.365064,2.37823 -8.301503,2.17686 z m 1.830689,-1.97915 c 1.481143,-0.11005 2.354401,-0.36646 4.005649,-1.17617 0.849715,-0.41667 1.569286,-0.85457 2.318369,-1.41085 0.920261,-0.68341 1.284568,-0.98931 1.284568,-1.07863 0,-0.0495 -0.354065,-0.4846 -0.860401,-1.0574 l -0.860401,-0.97333 0.335698,-0.40534 c 0.851964,-1.02872 1.451586,-2.13107 1.677659,-3.08426 0.09583,-0.40404 0.235085,-1.45008 0.278908,-2.09508 l 0.02935,-0.43194 0.194736,-2.5e-4 c 0.107103,-1.2e-4 0.626983,0.0218 1.155284,0.0487 0.710325,0.0362 0.972876,0.0366 1.007862,0.002 0.07405,-0.074 -0.03115,-1.44109 -0.159502,-2.07279 -0.331557,-1.63172 -0.881343,-2.95982 -1.78246,-4.30582 -0.612037,-0.91419 -0.710925,-1.04593 -0.785128,-1.04593 -0.03457,0 -0.453376,0.35166 -0.930687,0.78147 l -0.867844,0.78147 -0.328433,-0.31378 c -0.364471,-0.34822 -1.046178,-0.90174 -1.439635,-1.16893 -0.550211,-0.37365 -1.541248,-0.7801 -2.319493,-0.9513 -0.404294,-0.0889 -1.452253,-0.0987 -2.053818,-0.0192 -0.195217,0.0258 -0.361807,0.0401 -0.3702,0.0317 -0.0084,-0.008 -0.0423,-0.757926 -0.07536,-1.665632 -0.03306,-0.907709 -0.07144,-1.668719 -0.08529,-1.691132 -0.03822,-0.06185 -0.324157,-0.04941 -1.015351,0.04417 -1.469462,0.198948 -2.137757,0.345485 -2.998407,0.657458 -1.2294,0.44564 -2.580616,1.206302 -3.44555,1.939658 -0.442444,0.375138 -1.410221,1.323148 -1.410221,1.381418 0,0.0252 0.444191,0.48973 0.987089,1.03226 l 0.987089,0.98643 -0.336388,0.38278 c -0.425014,0.48363 -0.678286,0.86143 -0.839367,1.25206 -0.162751,0.39467 -0.522589,1.60666 -0.780354,2.62833 -0.111104,0.44036 -0.217917,0.81151 -0.237366,0.82478 -0.01945,0.0133 -0.644737,0.0482 -1.389531,0.0776 -0.744794,0.0294 -1.379638,0.0633 -1.410769,0.0752 -0.04202,0.0161 -0.05644,0.1264 -0.05598,0.42807 0.0013,0.95655 0.142957,2.72424 0.276688,3.45612 0.173831,0.95134 0.633812,1.7528 2.052799,3.57673 0.245938,0.31612 0.361,0.43193 0.429154,0.43193 0.06019,0 0.393441,-0.26093 0.942277,-0.73779 l 0.849161,-0.7378 0.445159,0.38988 c 0.832054,0.72873 1.526561,1.15549 2.694628,1.6558 1.067887,0.45739 1.697439,0.60826 2.929112,0.70191 l 0.673825,0.0512 5.29e-4,0.14958 c 2.51e-4,0.0823 -0.0218,0.69195 -0.04905,1.35485 -0.02724,0.66289 -0.03754,1.23652 -0.02289,1.27472 0.03258,0.0849 0.448736,0.0927 1.354312,0.0254 z"
       id="path33" />
    <path
       style="fill:none;stroke:#ddff55;stroke-width:1.5875;stroke-linejoin:round"
       d="m 83.118752,92.695833 9.713515,-19.461732 c 0,0 0.400742,-2.005246 0.02194,-2.853054 -0.278851,-0.624066 -0.894023,-1.106092 -1.534868,-1.298909 -0.758142,-0.228101 -1.67093,-0.115932 -2.395955,0.269463 -0.767186,0.407809 -1.747868,1.991636 -1.747868,1.991636 l -6.589552,13.202648 c 0,0 -0.398337,0.633601 -0.683407,0.865813 -0.435892,0.355072 -0.957839,0.639318 -1.50788,0.75564 -0.560899,0.118615 -1.194819,0.152461 -1.717952,-0.08208 -0.646903,-0.290027 -1.22127,-0.862155 -1.489072,-1.518571 -0.289414,-0.709393 0.002,-2.298472 0.002,-2.298472 l 6.094305,-12.210429 c 0,0 0.218887,-1.557616 0.002,-2.269566 -0.145933,-0.479097 -0.429592,-0.951977 -0.837326,-1.217172 -0.537593,-0.34968 -1.250538,-0.394882 -1.899116,-0.34842 -0.666122,0.04773 -1.408605,0.179952 -1.928899,0.63578 -0.296207,0.259505 -0.532268,1.066439 -0.532268,1.066439 v 0 l -8.56631,17.163225 c 0,0 -0.98047,1.7246 -1.843333,2.013565 -0.388172,0.129996 -0.819347,-0.09377 -1.207529,-0.223728 -0.373091,-0.124911 -0.770834,-0.256145 -1.056103,-0.52711 -0.491598,-0.466949 -0.834958,-1.113423 -1.0007,-1.770872 -0.128353,-0.509139 0.03221,-1.574878 0.03221,-1.574878 l 5.85174,-11.724389 c 0,0 0.430405,-0.968556 0.417757,-1.481483 -0.01623,-0.65789 -0.239488,-1.340895 -0.628836,-1.871451 -0.213533,-0.290988 -0.523561,-0.557622 -0.875684,-0.636872 -0.846096,-0.190441 -1.803634,0.05141 -2.556905,0.481233 -0.595343,0.339697 -1.355586,1.546247 -1.355586,1.546247 l -1.789062,3.444407 c 0,0 -1.069122,1.70875 -1.609118,2.060885 -0.539996,0.352135 -1.125179,0.488121 -1.898549,0.279753 -0.773372,-0.208368 -1.401464,-1.173745 -1.401464,-1.173745 l -3.550458,-6.202136"
       id="path7-5"
       sodipodi:nodetypes="ccaaaccaaaaccaaaacccaaaaccaaaacczzcc"
       inkscape:transform-center-x="10.124068"
       inkscape:transform-center-y="-13.229601" />
    <path
       style="fill:none;stroke:#ddff55;stroke-width:1.5875;stroke-linejoin:round"
       d="m 83.036922,125.79482 9.511769,19.56112 c 0,0 1.345735,1.5397 2.248805,1.75594 0.664726,0.1592 1.421789,-0.0348 1.965181,-0.42545 0.642847,-0.46213 1.110145,-1.25421 1.246374,-2.06392 0.144158,-0.8568 -0.514031,-2.5995 -0.514031,-2.5995 l -6.452696,-13.27008 c 0,0 -0.259635,-0.70193 -0.27004,-1.06946 -0.01592,-0.56199 0.07677,-1.14904 0.319723,-1.65604 0.247743,-0.51701 0.607201,-1.04027 1.111967,-1.31211 0.62416,-0.33619 1.427795,-0.44296 2.111452,-0.25528 0.738827,0.20281 1.821196,1.4022 1.821196,1.4022 l 5.967778,12.27277 c 0,0 1.10162,1.12272 1.79828,1.38459 0.46878,0.17627 1.01658,0.23949 1.47532,0.0778 0.60485,-0.21316 1.07514,-0.75089 1.43352,-1.29346 0.36808,-0.55723 0.71567,-1.22653 0.67132,-1.91682 -0.0253,-0.39299 -0.52122,-1.07189 -0.52122,-1.07189 v 0 l -8.38839,-17.25088 c 0,0 -0.769937,-1.82833 -0.473246,-2.68857 0.133465,-0.38699 0.573658,-0.59249 0.913216,-0.8211 0.326394,-0.2197 0.672819,-0.45509 1.06149,-0.51616 0.66981,-0.10524 1.39163,0.0165 2.01391,0.28569 0.48188,0.20852 1.22906,0.98521 1.22906,0.98521 l 5.73022,11.78428 c 0,0 0.50568,0.93147 0.92008,1.23401 0.53149,0.38805 1.20913,0.62717 1.86704,0.64182 0.36083,0.008 0.76117,-0.0753 1.03858,-0.30624 0.66658,-0.5548 1.05832,-1.46139 1.17652,-2.32058 0.0935,-0.67903 -0.39993,-2.01705 -0.39993,-2.01705 l -1.64081,-3.51746 c 0,0 -0.70336,-1.88895 -0.6535,-2.53168 0.0499,-0.64274 0.29864,-1.18959 0.93508,-1.67583 0.63649,-0.48623 1.78466,-0.39596 1.78466,-0.39596 l 7.08112,0.9643"
       id="path7-5-4"
       sodipodi:nodetypes="ccaaaccaaaaccaaaacccaaaaccaaaacczzcc"
       inkscape:transform-center-x="18.975472"
       inkscape:transform-center-y="13.455246" />
    <text
       xml:space="preserve"
       transform="scale(0.26458333)"
       id="text1"
       style="font-size:16px;line-height:normal;font-family:'Liberation Mono';-inkscape-font-specification:'Liberation Mono';text-decoration-color:#000000;white-space:pre;shape-inside:url(#rect1);display:inline;fill:#000000;stroke-width:1;-inkscape-stroke:none;stop-color:#000000"><tspan
         x="19.111328"
         y="33.347769"
         id="tspan18">src_springTorqueB.svg</tspan></text>
    <circle
       style="fill:none;stroke:#88aa00;stroke-width:0.264583;stroke-linejoin:round"
       id="path3"
       cx="129.4529"
       cy="109.5424"
       r="4.7196364" />
    <circle
       style="fill:none;stroke:#88aa00;stroke-width:0.264583;stroke-linejoin:round"
       id="path3-3"
       cx="73.436737"
       cy="55.211842"
       r="4.7196364" />
    <circle
       style="fill:none;stroke:#88aa00;stroke-width:0.264583;stroke-linejoin:round"
       id="path3-1"
       cx="20.882734"
       cy="107.11708"
       r="4.7196364" />
    <circle
       style="fill:none;stroke:#88aa00;stroke-width:0.264583;stroke-linejoin:round"
       id="path3-36"
       cx="77.278511"
       cy="162.83182"
       r="4.7196364" />
    <circle
       style="fill:none;stroke:#88aa00;stroke-width:0.264583;stroke-linejoin:round"
       id="path3-18"
       cx="37.132759"
       cy="70.326035"
       r="4.7196364" />
    <circle
       style="fill:none;stroke:#88aa00;stroke-width:0.264583;stroke-linejoin:round"
       id="path3-18-2"
       cx="113.40279"
       cy="70.456306"
       r="4.7196364" />
    <circle
       style="fill:none;stroke:#88aa00;stroke-width:0.264583;stroke-linejoin:round"
       id="path3-18-22"
       cx="114.50978"
       cy="146.53317"
       r="4.7196364" />
    <circle
       style="fill:none;stroke:#88aa00;stroke-width:0.264583;stroke-linejoin:round"
       id="path3-18-6"
       cx="35.350765"
       cy="144.82617"
       r="4.7196364" />
    <circle
       style="fill:none;stroke:#88aa00;stroke-width:0.264583;stroke-linejoin:round"
       id="path1-1"
       cx="75.177078"
       cy="108.86816"
       r="61.692398" />
    <circle
       style="fill:none;stroke:#88aa00;stroke-width:0.264583;stroke-linejoin:round"
       id="path1-4"
       cx="75.177078"
       cy="108.86816"
       r="46.522137" />
    <path
       style="fill:#eeffaa;stroke:#eeffaa;stroke-width:0.264583;stroke-linejoin:round"
       d="M 70.221982,170.03167 C 47.468313,168.28138 27.125271,153.3717 18.393229,132.04572 9.9042862,111.31341 13.460805,87.540687 27.660671,70.099732 29.97428,67.258044 35.119063,62.256612 37.988877,60.059306 55.97459,46.288333 80.985412,43.644374 101.299,53.366631 c 16.32491,7.813249 28.2765,22.048451 33.03969,39.35265 5.89896,21.430469 -0.39552,44.467349 -16.39279,59.995189 -10.7143,10.39988 -23.522407,16.18423 -38.386309,17.33586 -4.624769,0.35831 -4.432009,0.3587 -9.337609,-0.0187 z m 10.207815,-3.36902 c 1.913031,-1.78725 2.373742,-4.30283 1.154314,-6.30285 -1.982031,-3.25079 -6.951477,-3.25759 -8.636381,-0.0118 -1.199991,2.31165 -0.439962,5.39008 1.655752,6.70646 1.538602,0.96644 4.592291,0.76109 5.826315,-0.39179 z m 2.525835,-11.6438 c 6.420321,-1.09125 12.405463,-3.4425 17.788178,-6.98806 10.66942,-7.02786 17.62191,-17.28332 20.33581,-29.99684 1.04498,-4.89535 1.04498,-13.4361 0,-18.331447 C 119.09455,90.403254 114.92456,82.57359 108.49184,76.067462 99.385746,66.857444 88.160975,62.177483 75.17707,62.177483 c -13.00072,0 -24.157541,4.655854 -33.314685,13.902555 -6.438519,6.501484 -10.600296,14.311505 -12.587861,23.622465 -1.04498,4.895347 -1.04498,13.436097 0,18.331447 2.832332,13.26837 10.678435,24.32196 22.155165,31.21222 4.261014,2.55818 10.554793,4.85691 15.825134,5.77996 3.779829,0.66199 11.785018,0.65829 15.700809,-0.007 z m 34.008398,-4.21129 c 1.60831,-0.90392 2.43154,-2.31231 2.43154,-4.1599 0,-2.93263 -1.92837,-4.97086 -4.74311,-5.01333 -1.9946,-0.0301 -3.60588,0.85743 -4.46138,2.45741 -2.37095,4.43419 2.40557,9.17042 6.77295,6.71582 z m -79.201676,-1.60931 c 1.675614,-0.89829 2.836312,-3.24747 2.522442,-5.10525 -0.307451,-1.81978 -1.864024,-3.59037 -3.557217,-4.0463 -3.485671,-0.93859 -6.764432,1.89864 -6.289137,5.44221 0.468082,3.48982 4.20398,5.38194 7.323912,3.70934 z m 94.421896,-35.5328 c 1.32083,-0.88238 2.32435,-2.66245 2.32435,-4.12299 0,-1.46054 -1.00352,-3.24061 -2.32435,-4.12299 -2.40063,-1.60373 -5.89016,-0.66394 -7.19763,1.93844 -1.65909,3.30224 0.7219,7.07278 4.46627,7.07278 1.08757,0 1.94581,-0.24045 2.73136,-0.76524 z M 23.053221,111.60331 c 1.70247,-0.71134 2.699678,-2.34592 2.719581,-4.45781 0.0278,-2.95025 -1.927822,-4.92889 -4.871554,-4.92889 -1.895323,0 -2.944668,0.55815 -4.193131,2.23034 -0.963953,1.29112 -0.962307,4.17608 0.0031,5.49219 1.413825,1.92736 4.054002,2.62015 6.341971,1.66417 z M 39.418715,74.734566 c 1.525201,-0.777719 2.390338,-2.014115 2.622978,-3.748591 0.647772,-4.829492 -5.392663,-7.59819 -8.602085,-3.942857 -1.461585,1.664649 -1.695591,3.528478 -0.688552,5.484206 1.327441,2.57797 4.124653,3.503951 6.667659,2.207242 z m 76.726655,-0.08907 c 1.52963,-0.945361 2.29963,-2.704176 2.09883,-4.794046 -0.2272,-2.364412 -1.85455,-3.991766 -4.21896,-4.218956 -3.22471,-0.309853 -5.47359,1.652664 -5.47359,4.776608 0,1.959628 0.71793,3.398424 2.12334,4.255357 1.4539,0.886489 4.01972,0.877596 5.47038,-0.01897 z M 75.839835,59.564305 c 1.564473,-0.789213 2.50095,-2.483768 2.50095,-4.525476 0,-2.760546 -2.099879,-4.716624 -5.063358,-4.716624 -3.590795,0 -5.89394,3.861271 -4.252216,7.128923 1.237154,2.462403 4.262593,3.400573 6.814624,2.113177 z"
       id="path4" />
    <circle
       style="fill:none;stroke:#cccccc;stroke-width:0.264583;stroke-linejoin:round"
       id="path1"
       cx="75.177078"
       cy="108.5228"
       r="54.275826" />
    <circle
       style="fill:none;stroke:#88aa00;stroke-width:0.264583;stroke-linejoin:round"
       id="path3-10"
       cx="91.241776"
       cy="109.30828"
       r="1.3974065" />
    <circle
       style="fill:none;stroke:#88aa00;stroke-width:0.264583;stroke-linejoin:round"
       id="path3-3-6"
       cx="74.656311"
       cy="93.221909"
       r="1.3974065" />
    <circle
       style="fill:none;stroke:#88aa00;stroke-width:0.264583;stroke-linejoin:round"
       id="path3-1-3"
       cx="59.09594"
       cy="108.59019"
       r="1.3974065" />
    <circle
       style="fill:none;stroke:#88aa00;stroke-width:0.264583;stroke-linejoin:round"
       id="path3-36-2"
       cx="75.793808"
       cy="125.08649"
       r="1.3974065" />
    <circle
       style="fill:none;stroke:#88aa00;stroke-width:0.264583;stroke-linejoin:round"
       id="path3-18-0"
       cx="63.90731"
       cy="97.696976"
       r="1.3974065" />
    <circle
       style="fill:none;stroke:#88aa00;stroke-width:0.264583;stroke-linejoin:round"
       id="path3-18-2-6"
       cx="86.489609"
       cy="97.73555"
       r="1.3974065" />
    <circle
       style="fill:none;stroke:#88aa00;stroke-width:0.264583;stroke-linejoin:round"
       id="path3-18-22-1"
       cx="86.817368"
       cy="120.2607"
       r="1.3974065" />
    <circle
       style="fill:none;stroke:#88aa00;stroke-width:0.264583;stroke-linejoin:round"
       id="path3-18-6-5"
       cx="63.379692"
       cy="119.75531"
       r="1.3974065" />
    <circle
       style="fill:none;stroke:#88aa00;stroke-width:0.264583;stroke-linejoin:round"
       id="path1-1-5"
       cx="75.1716"
       cy="109.10866"
       r="18.266102" />
    <circle
       style="fill:none;stroke:#88aa00;stroke-width:0.264583;stroke-linejoin:round"
       id="path1-4-4"
       cx="75.1716"
       cy="109.10866"
       r="13.774437" />
    <path
       style="fill:#eeffaa;stroke:#eeffaa;stroke-width:0.264583;stroke-linejoin:round"
       d="m 73.70448,127.21825 c -6.73699,-0.51824 -12.76022,-4.93275 -15.34564,-11.24704 -2.51343,-6.13851 -1.46041,-13.17724 2.74394,-18.341237 0.68502,-0.84138 2.20831,-2.32222 3.05801,-2.972815 5.32527,-4.07735 12.73057,-4.86018 18.74508,-1.98158 4.83354,2.31337 8.37221,6.528185 9.78251,11.651702 1.746591,6.34521 -0.11711,13.16608 -4.85363,17.76363 -3.17233,3.07923 -6.9646,4.79188 -11.36556,5.13286 -1.36931,0.10609 -1.31224,0.10621 -2.76471,-0.006 z m 3.02237,-0.99751 c 0.56641,-0.52918 0.70282,-1.274 0.34177,-1.86617 -0.58685,-0.96251 -2.05822,-0.96452 -2.55709,-0.004 -0.3553,0.68445 -0.13026,1.59592 0.49024,1.98568 0.45556,0.28614 1.3597,0.22534 1.72508,-0.11601 z m 0.74785,-3.44754 c 1.90096,-0.3231 3.67306,-1.01927 5.26679,-2.06905 3.15904,-2.08083 5.21756,-5.11732 6.0211,-8.88161 0.3094,-1.44943 0.3094,-3.97821 0,-5.42764 -0.58775,-2.75337 -1.82242,-5.07162 -3.72703,-6.997977 -2.69617,-2.72694 -6.01964,-4.1126 -9.86396,-4.1126 -3.8493,0 -7.15265,1.37852 -9.86393,4.11632 -1.90634,1.924987 -3.13857,4.237417 -3.72706,6.994257 -0.3094,1.44943 -0.3094,3.97821 0,5.42764 0.83861,3.92857 3.16171,7.20137 6.55978,9.24147 1.26162,0.75743 3.1251,1.43804 4.68556,1.71134 1.11915,0.19601 3.48935,0.19491 4.64875,-0.002 z m 10.06933,-1.2469 c 0.47619,-0.26763 0.71994,-0.68463 0.71994,-1.23167 0,-0.86831 -0.57096,-1.47179 -1.40436,-1.48436 -0.59057,-0.009 -1.06764,0.25387 -1.32094,0.72759 -0.702,1.31289 0.71225,2.71521 2.00536,1.98844 z m -23.45031,-0.47649 c 0.49612,-0.26596 0.83978,-0.96151 0.74685,-1.51158 -0.091,-0.5388 -0.5519,-1.06304 -1.05323,-1.19804 -1.03205,-0.2779 -2.00284,0.56216 -1.86211,1.61135 0.13859,1.03328 1.24473,1.5935 2.16849,1.09827 z M 92.05049,110.5291 c 0.39107,-0.26126 0.6882,-0.7883 0.6882,-1.22075 0,-0.43244 -0.29713,-0.95949 -0.6882,-1.22075 -0.71079,-0.47484 -1.74398,-0.19659 -2.1311,0.57394 -0.49123,0.97774 0.21374,2.09413 1.32239,2.09413 0.32201,0 0.57612,-0.0712 0.80871,-0.22657 z m -32.3119,-0.61056 c 0.50407,-0.21062 0.79933,-0.6946 0.80522,-1.31989 0.008,-0.87353 -0.57079,-1.45936 -1.44238,-1.45936 -0.56118,0 -0.87187,0.16525 -1.24152,0.66036 -0.28541,0.38228 -0.28492,1.23647 9.2e-4,1.62614 0.41861,0.57067 1.20032,0.7758 1.87775,0.49275 z m 4.84555,-10.916267 c 0.45159,-0.23027 0.70774,-0.59635 0.77662,-1.1099 0.1918,-1.42993 -1.59668,-2.2497 -2.54693,-1.16741 -0.43275,0.49287 -0.50204,1.04472 -0.20387,1.62378 0.39303,0.76329 1.22124,1.03746 1.97418,0.65353 z m 22.7175,-0.0264 c 0.4529,-0.27991 0.68088,-0.80067 0.62143,-1.41944 -0.0673,-0.70007 -0.5491,-1.1819 -1.24917,-1.24916 -0.95478,-0.0917 -1.62064,0.48932 -1.62064,1.41427 0,0.58022 0.21257,1.00622 0.62869,1.25994 0.43047,0.26248 1.19017,0.25984 1.61969,-0.006 z M 75.36783,94.510568 c 0.46322,-0.23367 0.74049,-0.7354 0.74049,-1.33992 0,-0.81735 -0.62174,-1.39651 -1.49917,-1.39651 -1.06318,0 -1.7451,1.14326 -1.25901,2.11076 0.3663,0.72908 1.26208,1.00685 2.01769,0.62567 z"
       id="path4-7" />
    <circle
       style="fill:none;stroke:#cccccc;stroke-width:0.264583;stroke-linejoin:round"
       id="path1-6"
       cx="75.1716"
       cy="109.00637"
       r="16.070177" />
    <path
       style="fill:#eeffaa;stroke:#cccccc;stroke-width:0.264583;stroke-linejoin:round"
       d="M 75.171601,108.93614 H 150.64962"
       id="path5"
       sodipodi:nodetypes="cc" />
    <path
       style="fill:#eeffaa;stroke:#cccccc;stroke-width:0.264583;stroke-linejoin:round"
       d="M 75.171601,108.93614 123.83719,40.928344"
       id="path6" />
    <path
       style="fill:none;stroke:#aad400;stroke-width:1.5875;stroke-linejoin:round"
       d="m 93.437701,109.11299 h 21.751119 c 0,0 1.97315,-0.53693 2.56256,-1.25448 0.43386,-0.52819 0.59042,-1.29388 0.47676,-1.95338 -0.13448,-0.78022 -0.64247,-1.54685 -1.31108,-2.02346 -0.70749,-0.50431 -2.56256,-0.67448 -2.56256,-0.67448 H 99.598753 c 0,0 -0.7448,-0.0735 -1.079875,-0.22483 -0.512358,-0.23144 -0.999775,-0.57152 -1.349487,-1.01173 -0.356614,-0.44889 -0.669991,-1.00098 -0.693753,-1.57379 -0.02939,-0.708332 0.226021,-1.477743 0.693753,-2.010497 0.50548,-0.57575 2.057435,-1.024665 2.057435,-1.024665 h 13.646804 c 0,0 1.49142,-0.499745 2.03159,-1.011718 0.3635,-0.344527 0.65993,-0.809508 0.71513,-1.292753 0.0728,-0.637168 -0.20514,-1.295259 -0.53635,-1.854822 -0.34018,-0.574696 -0.79006,-1.179983 -1.43026,-1.441952 -0.36447,-0.149142 -1.19189,0 -1.19189,0 v 0 H 93.279622 c 0,0 -1.980932,-0.107109 -2.624817,-0.750108 -0.289661,-0.289261 -0.282003,-0.77498 -0.339072,-1.180342 -0.05485,-0.389604 -0.115051,-0.80409 0,-1.180339 0.198265,-0.648383 0.623359,-1.244303 1.137593,-1.6862 0.398231,-0.342212 1.4235,-0.674481 1.4235,-0.674481 h 13.103594 c 0,0 1.05882,-0.04743 1.51211,-0.287807 0.5814,-0.308315 1.09281,-0.813092 1.39365,-1.398393 0.165,-0.321007 0.26512,-0.717474 0.17878,-1.067925 -0.20745,-0.842088 -0.85146,-1.590835 -1.57243,-2.072874 -0.56981,-0.380979 -1.98887,-0.52239 -1.98887,-0.52239 l -3.88082,-0.06257 c 0,0 -2.006342,-0.193507 -2.562561,-0.519412 -0.55622,-0.325905 -0.939223,-0.788765 -1.098154,-1.573788 -0.158931,-0.785023 0.424345,-1.77812 0.424345,-1.77812 l 3.96379,-5.946478"
       id="path7"
       sodipodi:nodetypes="ccaaaccaaaaccaaaacccaaaaccaaaacczzcc" />
    <circle
       style="fill:none;stroke:#cccccc;stroke-width:0.264583;stroke-linejoin:round"
       id="path1-7"
       cx="75.177078"
       cy="109.05196"
       r="22.809975" />
    <circle
       style="fill:none;stroke:#cccccc;stroke-width:0.264582;stroke-linejoin:round"
       id="path1-7-4"
       cx="75.177078"
       cy="109.05196"
       r="43.072075" />
    <path
       style="fill:none;stroke:#cccccc;stroke-width:0.264583;stroke-linejoin:round"
       d="M 75.171601,108.93614 110.52936,36.637547"
       id="path8" />
    <path
       style="fill:none;stroke:#cccccc;stroke-width:0.264583;stroke-linejoin:round"
       d="m 75.171601,108.93614 70.000389,12.32558"
       id="path9" />
    <circle
       style="fill:none;stroke:#666666;stroke-width:0.264583;stroke-linejoin:round"
       id="path10"
       cx="115.07682"
       cy="106.23664"
       r="2.8009379" />
    <path
       style="fill:none;stroke:#800080;stroke-width:0.264583;stroke-linejoin:round;marker-start:url(#ArrowWide);marker-end:url(#ArrowWide)"
       d="m 106.43562,45.338331 c 0,0 5.60208,2.908454 8.46241,4.886741 2.86033,1.978287 5.81928,4.606657 8.58159,7.03214 2.76231,2.425483 5.39054,4.417459 7.98566,7.508896 2.59512,3.091437 5.34324,7.500767 7.27051,11.084563 1.92727,3.583796 3.58081,6.857038 4.40999,10.250239 0.82918,3.393201 1.79113,6.714439 2.01185,9.535105 0.22072,2.820666 0.29169,5.260855 0.35757,7.389725 0.0659,2.12887 -0.11919,5.60191 -0.11919,5.60191"
       id="path2"
       sodipodi:nodetypes="czzzzzzzc" />
    <path
       style="fill:none;stroke:#800080;stroke-width:0.264583;stroke-linejoin:round;marker-start:url(#ArrowWide);marker-end:url(#ArrowWide)"
       d="m 110.13047,37.710246 c 0,0 3.94014,1.247316 5.72107,2.264588 1.96671,1.123389 5.3635,4.171609 5.3635,4.171609"
       id="path13"
       sodipodi:nodetypes="cac" />
    <circle
       style="fill:none;stroke:#666666;stroke-width:0.264583;stroke-linejoin:round"
       id="path10-1"
       cx="100.73009"
       cy="78.239326"
       r="2.8009379" />
    <circle
       style="fill:none;stroke:#666666;stroke-width:0.264583;stroke-linejoin:round"
       id="path10-3"
       cx="99.259254"
       cy="100.30363"
       r="2.8009379" />
    <circle
       style="fill:none;stroke:#666666;stroke-width:0.264583;stroke-linejoin:round"
       id="path10-6"
       cx="112.56783"
       cy="94.508606"
       r="2.8009379" />
    <circle
       style="fill:none;stroke:#666666;stroke-width:0.264583;stroke-linejoin:round"
       id="path10-2"
       cx="93.090164"
       cy="89.314178"
       r="2.8009379" />
    <circle
       style="fill:none;stroke:#666666;stroke-width:0.264583;stroke-linejoin:round"
       id="path10-5"
       cx="106.1557"
       cy="83.614662"
       r="2.8009379" />
    <circle
       style="fill:none;stroke:#666666;stroke-width:0.264583;stroke-linejoin:round"
       id="path10-2-9"
       cx="101.55722"
       cy="100.29179"
       r="2.8009379" />
    <path
       style="fill:#668000;stroke:#668000;stroke-width:0.264583;stroke-linejoin:round"
       d="m 98.977033,102.25734 c -0.623808,-0.22283 -1.198266,-0.73493 -1.490646,-1.32885 -0.167976,-0.34121 -0.181962,-0.41366 -0.156488,-0.81064 0.0223,-0.347645 0.06891,-0.512727 0.230058,-0.815079 0.232439,-0.4361 0.475395,-0.618329 1.185428,-0.88913 0.782749,-0.298532 0.769742,-0.298648 0.521208,0.0047 -0.832027,1.015378 -0.876948,2.591359 -0.102878,3.609229 0.25926,0.34091 0.228915,0.37827 -0.186682,0.22982 z"
       id="path14" />
    <circle
       style="fill:none;stroke:#666666;stroke-width:0.264583;stroke-linejoin:round"
       id="path10-1-2"
       cx="102.82055"
       cy="77.271843"
       r="3.277693" />
    <path
       style="fill:#668000;stroke:#668000;stroke-width:0.264583;stroke-linejoin:round"
       d="m 99.872706,79.763363 c -0.489416,-0.127727 -0.77338,-0.33859 -0.953286,-0.707874 -0.255042,-0.52351 -0.143658,-1.146625 0.329407,-1.842802 l 0.154654,-0.227594 v 0.388678 c 0,0.766403 0.311081,1.569109 0.835869,2.156854 0.35298,0.395333 0.32483,0.4132 -0.366644,0.232738 z"
       id="path15" />
    <path
       style="fill:#668000;stroke:#803300;stroke-width:0.264583;stroke-linejoin:round;marker-start:url(#ArrowWide);marker-end:url(#ArrowWide)"
       d="M 78.455168,90.769722 79.14138,86.935231"
       id="path16"
       sodipodi:nodetypes="cc" />
    <path
       style="fill:#668000;stroke:#803300;stroke-width:0.264583;stroke-linejoin:round;marker-start:url(#ArrowWide-1);marker-end:url(#ArrowWide-1)"
       d="m 82.857813,66.460412 0.617398,-3.093654"
       id="path16-5"
       sodipodi:nodetypes="cc" />
    <path
       style="fill:#668000;stroke:#ff00ff;stroke-width:0.264583;stroke-linejoin:round;marker-start:url(#ArrowWide)"
       d="m 110.3588,108.18418 v -2.8557"
       id="path17" />
    <path
       style="fill:#668000;stroke:#ff00ff;stroke-width:0.264583;stroke-linejoin:round;marker-start:url(#ArrowWide-6)"
       d="m 110.40725,110.21198 v 4.04542"
       id="path17-3" />
    <path
       style="fill:#668000;stroke:#ff00ff;stroke-width:0.264583;stroke-linejoin:round;marker-start:url(#ArrowWide-61)"
       d="m 99.037736,100.23236 h 2.855694"
       id="path17-5" />
    <path
       style="fill:#668000;stroke:#ff00ff;stroke-width:0.264583;stroke-linejoin:round;marker-start:url(#ArrowWide-6-5)"
       d="M 97.009955,100.28081 H 92.964552"
       id="path17-3-6" />
    <path
       style="fill:#668000;stroke:#0000ff;stroke-width:0.264583;stroke-linejoin:round;marker-start:url(#ArrowWide)"
       d="m 94.223782,110.46954 5.258107,0.99484"
       id="path18"
       sodipodi:nodetypes="cc" />
    <path
       style="fill:#668000;stroke:#0000ff;stroke-width:0.264583;stroke-linejoin:round;marker-start:url(#ArrowWide)"
       d="m 100.69323,70.68485 -5.426301,4.756777"
       id="path19"
       sodipodi:nodetypes="cc" />
    <path
       style="fill:#668000;stroke:#0000ff;stroke-width:0.264583;stroke-linejoin:round;marker-start:url(#ArrowWide)"
       d="m 110.6357,83.37598 22.0198,-3.078462"
       id="path20"
       sodipodi:nodetypes="cc" />
    <path
       style="fill:#668000;stroke:#0000ff;stroke-width:0.264583;stroke-linejoin:round;marker-start:url(#ArrowWide)"
       d="m 115.88992,92.08814 17.5241,-9.515081"
       id="path22"
       sodipodi:nodetypes="cc" />
    <text
       xml:space="preserve"
       transform="matrix(0.26458333,0,0,0.26458333,-4.2139614,36.135204)"
       id="text22"
       style="font-size:16px;line-height:normal;font-family:'Liberation Mono';-inkscape-font-specification:'Liberation Mono';text-decoration-color:#000000;white-space:pre;shape-inside:url(#rect22);display:inline;fill:#0000ff;stroke-width:1;-inkscape-stroke:none;stop-color:#000000"><tspan
         x="519.21289"
         y="173.50402"
         id="tspan19">Nk</tspan></text>
    <text
       xml:space="preserve"
       transform="matrix(0.26458333,0,0,0.26458333,64.957911,92.775485)"
       id="text23"
       style="font-size:16px;line-height:normal;font-family:'Liberation Mono';-inkscape-font-specification:'Liberation Mono';text-decoration-color:#000000;white-space:pre;shape-inside:url(#rect23);display:inline;fill:#ff00ff;stroke-width:1;-inkscape-stroke:none;stop-color:#000000"><tspan
         x="173.88477"
         y="81.357535"
         id="tspan20">Ws</tspan></text>
    <text
       xml:space="preserve"
       transform="matrix(0.26458333,0,0,0.26458333,50.059308,74.062839)"
       id="text24"
       style="font-size:16px;line-height:normal;font-family:'Liberation Mono';-inkscape-font-specification:'Liberation Mono';text-decoration-color:#000000;white-space:pre;shape-inside:url(#rect24);display:inline;fill:#ff00ff;stroke-width:1;-inkscape-stroke:none;stop-color:#000000"><tspan
         x="154.0625"
         y="95.773551"
         id="tspan21">Wc</tspan></text>
    <text
       xml:space="preserve"
       transform="matrix(0.26458333,0,0,0.26458333,53.530149,90.749275)"
       id="text25"
       style="font-size:16px;line-height:normal;font-family:'Liberation Mono';-inkscape-font-specification:'Liberation Mono';text-decoration-color:#000000;white-space:pre;shape-inside:url(#rect25);display:inline;fill:#0000ff;stroke-width:1;-inkscape-stroke:none;stop-color:#000000"><tspan
         x="174.33398"
         y="84.511832"
         id="tspan22">Rsi</tspan></text>
    <text
       xml:space="preserve"
       transform="matrix(0.26458333,0,0,0.26458333,48.033098,56.899648)"
       id="text26"
       style="font-size:16px;line-height:normal;font-family:'Liberation Mono';-inkscape-font-specification:'Liberation Mono';text-decoration-color:#000000;white-space:pre;shape-inside:url(#rect26);display:inline;fill:#0000ff;stroke-width:1;-inkscape-stroke:none;stop-color:#000000"><tspan
         x="154.51367"
         y="82.257926"
         id="tspan23">Rse</tspan></text>
    <text
       xml:space="preserve"
       transform="matrix(0.26458333,0,0,0.26458333,-16.328869,4.8141215)"
       id="text27"
       style="font-size:16px;line-height:normal;font-family:'Liberation Mono';-inkscape-font-specification:'Liberation Mono';text-decoration-color:#000000;white-space:pre;shape-inside:url(#rect27);display:inline;fill:#800080;stroke-width:1;-inkscape-stroke:none;stop-color:#000000"><tspan
         x="498.22852"
         y="128.65832"
         id="tspan24">aEs</tspan></text>
    <text
       xml:space="preserve"
       transform="matrix(0.26458333,0,0,0.26458333,1.3110771,25.433795)"
       id="text28"
       style="font-size:16px;line-height:normal;font-family:'Liberation Mono';-inkscape-font-specification:'Liberation Mono';text-decoration-color:#000000;white-space:pre;shape-inside:url(#rect28);display:inline;fill:#800080;stroke-width:1;-inkscape-stroke:none;stop-color:#000000"><tspan
         x="505.43555"
         y="161.9923"
         id="tspan25">Ns</tspan></text>
    <text
       xml:space="preserve"
       transform="matrix(0.26458333,0,0,0.26458333,30.989095,64.885299)"
       id="text29"
       style="font-size:16px;line-height:normal;font-family:'Liberation Mono';-inkscape-font-specification:'Liberation Mono';text-decoration-color:#000000;white-space:pre;shape-inside:url(#rect29);display:inline;fill:#800080;stroke-width:1;-inkscape-stroke:none;stop-color:#000000"><tspan
         x="148.6582"
         y="94.421988"
         id="tspan26">Esi</tspan></text>
    <text
       xml:space="preserve"
       transform="matrix(0.26458333,0,0,0.26458333,12.395638,45.695898)"
       id="text30"
       style="font-size:16px;line-height:normal;font-family:'Liberation Mono';-inkscape-font-specification:'Liberation Mono';text-decoration-color:#000000;white-space:pre;shape-inside:url(#rect30);display:inline;fill:#800080;stroke-width:1;-inkscape-stroke:none;stop-color:#000000"><tspan
         x="234.69922"
         y="77.302847"
         id="tspan27">Ese</tspan></text>
    <path
       style="fill:#800080;stroke:#b3b3b3;stroke-width:0.264583;stroke-linejoin:round;marker-start:url(#ArrowWide)"
       d="m 96.066193,89.080631 3.218098,-0.119189"
       id="path30" />
    <text
       xml:space="preserve"
       transform="matrix(0.26458333,0,0,0.26458333,55.661183,67.388264)"
       id="text31"
       style="font-size:16px;line-height:normal;font-family:'Liberation Mono';-inkscape-font-specification:'Liberation Mono';text-decoration-color:#000000;white-space:pre;shape-inside:url(#rect31);display:inline;fill:#b3b3b3;stroke-width:1;-inkscape-stroke:none;stop-color:#000000"><tspan
         x="165.32617"
         y="86.763785"
         id="tspan28">Dk</tspan></text>
    <path
       style="fill:#b3b3b3;stroke:#b3b3b3;stroke-width:0.264583;stroke-linejoin:round;marker-start:url(#ArrowWide);marker-end:url(#ArrowWide)"
       d="m 108.10427,98.377359 v 3.575671"
       id="path31" />
    <text
       xml:space="preserve"
       transform="matrix(0.26458333,0,0,0.26458333,65.0771,76.446615)"
       id="text32"
       style="font-size:16px;line-height:normal;font-family:'Liberation Mono';-inkscape-font-specification:'Liberation Mono';text-decoration-color:#000000;white-space:pre;shape-inside:url(#rect32);display:inline;fill:#b3b3b3;stroke-width:1;-inkscape-stroke:none;stop-color:#000000"><tspan
         x="167.12695"
         y="95.773551"
         id="tspan29">Ek</tspan></text>
    <circle
       style="fill:none;stroke:#008000;stroke-width:0.264583;stroke-linejoin:round"
       id="path1-7-8"
       cx="75.177078"
       cy="109.05196"
       r="10.175959" />
    <path
       style="fill:none;stroke:#88aa00;stroke-width:0.264583;stroke-linejoin:round"
       d="m 75.446527,100.76114 -0.11919,-3.456481 c 0,0 -2.008899,0.213528 -2.979719,0.476755 -0.740567,0.200797 -1.459477,0.490419 -2.1454,0.834322 -0.67011,0.335975 -1.311177,0.737033 -1.907022,1.191889 -0.558702,0.426505 -1.549453,1.430275 -1.549453,1.430275 l 2.026209,2.02622 c 0,0 -0.794888,0.81948 -1.072698,1.31108 -0.290582,0.5142 -0.421306,1.10444 -0.595945,1.66865 -0.230802,0.74567 -0.595945,2.26461 -0.595945,2.26461 l -2.860532,0.11919 c 0,0 0.03635,1.59252 0.11919,2.38378 0.06703,0.64027 0.09923,1.2971 0.305154,1.90704 0.173076,0.51264 0.476473,0.97417 0.767546,1.43027 0.42746,0.66982 1.430266,1.90703 1.430266,1.90703 l 1.787832,-1.54946 c 0,0 0.917032,0.84299 1.430266,1.19189 0.41169,0.27987 0.858389,0.50804 1.311077,0.71514 0.617363,0.28243 1.246283,0.55916 1.907021,0.71514 0.738728,0.17439 2.264587,0.23838 2.264587,0.23838 l -0.119189,2.86054 c 0,0 1.767078,-0.0406 2.622155,-0.23838 0.869843,-0.20121 1.695787,-0.57196 2.502964,-0.95351 0.579176,-0.27377 1.133254,-0.60173 1.668645,-0.95352 0.66407,-0.43633 1.907021,-1.43027 1.907021,-1.43027 l -1.787831,-2.02622 c 0,0 0.853432,-0.99264 1.191887,-1.54946 0.341586,-0.56198 0.652268,-1.1559 0.834321,-1.78785 0.266012,-0.92338 0.357568,-2.86054 0.357568,-2.86054 l 2.383777,0.11919 c 0,0 -0.03621,-1.03814 -0.119189,-1.54947 -0.104957,-0.64678 -0.265239,-1.28687 -0.476755,-1.90703 -0.223979,-0.65671 -0.501548,-1.29819 -0.834322,-1.90703 -0.343511,-0.62849 -1.191888,-1.78784 -1.191888,-1.78784 l -1.787832,1.60905 c 0,0 -0.540707,-0.53426 -0.834323,-0.77473 -0.473442,-0.38774 -0.943937,-0.7962 -1.48986,-1.0727 -0.689315,-0.34914 -1.438732,-0.61569 -2.204993,-0.71514 -0.710279,-0.0922 -2.1454,0.11919 -2.1454,0.11919 z"
       id="path32"
       sodipodi:nodetypes="ccaaaccaaccaaaccaaaccaaaccaaccaaaccaaac" />
    <path
       style="fill:none;stroke:#d45500;stroke-width:0.264583;stroke-linejoin:round;marker-start:url(#ArrowWide)"
       d="m 77.199772,158.25591 v 6.23666"
       id="path34" />
    <path
       style="fill:none;stroke:#d45500;stroke-width:0.264583;stroke-linejoin:round;marker-start:url(#ArrowWide-9)"
       d="m 77.28797,154.74758 v -6.23666"
       id="path34-8" />
    <text
       xml:space="preserve"
       transform="matrix(0.26458333,0,0,0.26458333,16.518729,24.588947)"
       id="text34"
       style="font-size:16px;line-height:normal;font-family:'Liberation Mono';-inkscape-font-specification:'Liberation Mono';text-decoration-color:#000000;white-space:pre;shape-inside:url(#rect34);display:inline;fill:#d45500;stroke-width:1;-inkscape-stroke:none;stop-color:#000000"><tspan
         x="231.25781"
         y="472.92785"
         id="tspan30">Ee</tspan></text>
    <path
       style="fill:#d45500;stroke:#d45500;stroke-width:0.264583;stroke-linejoin:round;marker-start:url(#ArrowWide)"
       d="m 123.38479,133.98349 11.29341,8.25937"
       id="path35" />
    <text
       xml:space="preserve"
       transform="matrix(0.26458333,0,0,0.26458333,16.687287,-6.2572504)"
       id="text35"
       style="font-size:16px;line-height:normal;font-family:'Liberation Mono';-inkscape-font-specification:'Liberation Mono';text-decoration-color:#000000;white-space:pre;shape-inside:url(#rect35);display:inline;fill:#d45500;stroke-width:1;-inkscape-stroke:none;stop-color:#000000"><tspan
         x="447.22461"
         y="568.48839"
         id="tspan31">De</tspan></text>
    <path
       style="fill:#aa4400;stroke:#d45500;stroke-width:0.264583;stroke-linejoin:round;marker-start:url(#ArrowWide)"
       d="m 118.32803,150.33366 4.8882,6.06811"
       id="path36" />
    <text
       xml:space="preserve"
       transform="matrix(0.26458333,0,0,0.26458333,11.124858,5.3732758)"
       id="text36"
       style="font-size:16px;line-height:normal;font-family:'Liberation Mono';-inkscape-font-specification:'Liberation Mono';text-decoration-color:#000000;white-space:pre;shape-inside:url(#rect36);display:inline;fill:#d45500;stroke-width:1;-inkscape-stroke:none;stop-color:#000000"><tspan
         x="421.74219"
         y="585.05285"
         id="tspan32">DTe</tspan></text>
    <path
       style="fill:#aa4400;stroke:#d45500;stroke-width:0.264583;stroke-linejoin:round;marker-start:url(#ArrowWide)"
       d="m 82.425084,164.49257 28.317816,2.35982"
       id="path37" />
    <path
       style="fill:#aa4400;stroke:#d45500;stroke-width:0.264583;stroke-linejoin:round;marker-start:url(#ArrowWide)"
       d="m 114.28263,151.68213 -1.01135,12.64188"
       id="path38" />
    <text
       xml:space="preserve"
       transform="matrix(0.26458333,0,0,0.26458333,5.7309875,11.947055)"
       id="text38"
       style="font-size:16px;line-height:normal;font-family:'Liberation Mono';-inkscape-font-specification:'Liberation Mono';text-decoration-color:#000000;white-space:pre;shape-inside:url(#rect38);display:inline;fill:#d45500;stroke-width:1;-inkscape-stroke:none;stop-color:#000000"><tspan
         x="400.71875"
         y="592.06066"
         id="tspan33">Ne</tspan></text>
    <path
       style="fill:#37abc8;stroke:#37abc8;stroke-width:0.264583;stroke-linejoin:round;marker-start:url(#ArrowWide)"
       d="M 66.917707,123.36431 32.026106,161.1214"
       id="path39" />
    <path
       style="fill:#37abc8;stroke:#37abc8;stroke-width:0.264582;stroke-linejoin:round"
       d="m 31.183314,159.0987 v 21.06981"
       id="path40" />
    <text
       xml:space="preserve"
       transform="matrix(0.26458333,0,0,0.26458333,1.5170261,21.386335)"
       id="text40"
       style="font-size:16px;line-height:normal;font-family:'Liberation Mono';-inkscape-font-specification:'Liberation Mono';text-align:end;text-decoration-color:#000000;white-space:pre;shape-inside:url(#rect40);display:inline;fill:#37abc8;stroke-width:1;-inkscape-stroke:none;stop-color:#000000"><tspan
         x="87.824219"
         y="534.08605"
         id="tspan34">Di
</tspan><tspan
         x="87.824219"
         y="554.08605"
         id="tspan35">Ni
</tspan><tspan
         x="78.222656"
         y="574.08605"
         id="tspan53">DTi
</tspan><tspan
         x="87.824219"
         y="594.08605"
         id="tspan54">Ei</tspan></text>
    <path
       style="fill:#3771c8;stroke:#3771c8;stroke-width:0.264583;stroke-linejoin:round;marker-start:url(#ArrowWide)"
       d="M 73.322928,119.82458 45.679341,173.25761"
       id="path41" />
    <text
       xml:space="preserve"
       transform="matrix(0.26458333,0,0,0.26458333,-3.7041668,22.225008)"
       id="text42"
       style="font-size:16px;line-height:normal;font-family:'Liberation Mono';-inkscape-font-specification:'Liberation Mono';text-decoration-color:#000000;white-space:pre;shape-inside:url(#rect42);display:inline;fill:#2c5aa0;stroke-width:1;-inkscape-stroke:none;stop-color:#000000"><tspan
         x="174.55664"
         y="605.43957"
         id="tspan55">Dt
</tspan><tspan
         x="174.55664"
         y="625.43957"
         id="tspan56">Nt
</tspan><tspan
         x="174.55664"
         y="645.43957"
         id="tspan57">Ht</tspan></text>
    <path
       style="fill:#3771c8;stroke:#d4aa00;stroke-width:0.264583;stroke-linejoin:round;marker-end:url(#ArrowWide)"
       d="m 12.810442,157.09648 7.753689,-9.43927"
       id="path43" />
    <text
       xml:space="preserve"
       transform="matrix(0.26458333,0,0,0.26458333,-3.3711691,-73.322929)"
       id="text43"
       style="font-size:16px;line-height:normal;font-family:'Liberation Mono';-inkscape-font-specification:'Liberation Mono';text-decoration-color:#000000;white-space:pre;shape-inside:url(#rect43);display:inline;fill:#d4aa00;stroke-width:1;-inkscape-stroke:none;stop-color:#000000"><tspan
         x="77.722656"
         y="867.91222"
         id="tspan58">Th</tspan></text>
    <path
       style="fill:#3771c8;stroke:#3771c8;stroke-width:0.264583;stroke-linejoin:round"
       d="m 51.186575,175.45622 v 25.43219"
       id="path42-9" />
    <text
       xml:space="preserve"
       transform="matrix(0.26458333,0,0,0.26458333,6.134486,19.209872)"
       id="text42-5"
       style="font-size:16px;line-height:normal;font-family:'Liberation Mono';-inkscape-font-specification:'Liberation Mono';text-decoration-color:#000000;white-space:pre;shape-inside:url(#rect42-6);display:inline;fill:#2c5aa0;stroke-width:1;-inkscape-stroke:none;stop-color:#000000"><tspan
         x="174.55664"
         y="605.43957"
         id="tspan59">ate
</tspan><tspan
         x="174.55664"
         y="625.43957"
         id="tspan60">dh
</tspan><tspan
         x="174.55664"
         y="645.43957"
         id="tspan61">ah
</tspan><tspan
         x="174.55664"
         y="665.43957"
         id="tspan62">aeh
</tspan><tspan
         x="174.55664"
         y="685.43957"
         id="tspan63">aM</tspan></text>
    <path
       style="fill:#3771c8;stroke:#3771c8;stroke-width:0.264583;stroke-linejoin:round"
       d="m 63.918305,175.46576 v 25.43219"
       id="path42-9-2" />
    <text
       xml:space="preserve"
       transform="matrix(0.26458333,0,0,0.26458333,18.866214,21.865243)"
       id="text42-5-7"
       style="font-size:16px;line-height:normal;font-family:'Liberation Mono';-inkscape-font-specification:'Liberation Mono';text-decoration-color:#000000;white-space:pre;shape-inside:url(#rect42-6-7);display:inline;fill:#2c5aa0;stroke-width:1;-inkscape-stroke:none;stop-color:#000000"><tspan
         x="174.55664"
         y="605.43957"
         id="tspan64">SnAde
</tspan><tspan
         x="174.55664"
         y="625.43957"
         id="tspan65">SnAae
</tspan><tspan
         x="174.55664"
         y="645.43957"
         id="tspan66">Rde
</tspan><tspan
         x="174.55664"
         y="665.43957"
         id="tspan67">Rae</tspan></text>
    <rect
       style="fill:none;stroke:#2c5aa0;stroke-width:0.264583;stroke-linejoin:round"
       id="rect44"
       width="38.262772"
       height="28.48638"
       x="41.465378"
       y="174.11671" />
    <text
       xml:space="preserve"
       transform="scale(0.26458333)"
       id="text45"
       style="font-size:16px;line-height:normal;font-family:'Liberation Mono';-inkscape-font-specification:'Liberation Mono';text-decoration-color:#000000;white-space:pre;shape-inside:url(#rect46);fill:#2c5aa0;stroke-width:1;-inkscape-stroke:none;stop-color:#000000"><tspan
         x="324.34375"
         y="708.87316"
         id="tspan68">Teeth: [On, Off]</tspan></text>
  </g>
</svg>
